<?xml version="1.0" encoding="utf-8"?>
<!-- Generator: Adobe Illustrator 23.0.1, SVG Export Plug-In . SVG Version: 6.00 Build 0)  -->
<svg version="1.1" id="Layer_1" xmlns="http://www.w3.org/2000/svg" xmlns:xlink="http://www.w3.org/1999/xlink" height="40px"
	 viewBox="0 0 280.43 219.45" style="enable-background:new 0 0 280.43 219.45;" xml:space="preserve">
<style type="text/css">
	.st0{fill:#1A1A1A;}
</style>
<g>
	<path class="st0" d="M248.95,82.33c-0.02,45.8-36.79,82.55-82.56,82.53c-45.47-0.02-82.15-36.86-82.19-82.53
		C84.16,36.79,120.99-0.02,166.57,0C212.2,0.02,248.98,36.78,248.95,82.33z M108.56,82.52c0.09,32.53,26.06,58.06,58.94,57.96
		c31.36-0.1,57.24-26.51,57.18-58.35c-0.06-32.05-26.16-57.79-58.48-57.67C134.17,24.57,108.47,50.45,108.56,82.52z"/>
	<path class="st0" d="M34.25,157.56c0-42.15,0-84.1,0-126.4c-11.56,0-22.79,0-34.25,0c0-8.21,0-16.07,0-24.18
		c19.63,0,39.12,0,58.91,0c0,50.09,0,100.16,0,150.58C50.96,157.56,42.89,157.56,34.25,157.56z"/>
	<path class="st0" d="M280.43,49.38c-8.07,0-15.82,0-23.8,0c0-14.16,0-28.13,0-42.38c7.86,0,15.69,0,23.8,0
		C280.43,21.04,280.43,35.01,280.43,49.38z"/>
	<path class="st0" d="M67.64,218.03c-2.32,0-4.2,0-6.2,0c-0.12-1.47-0.22-2.75-0.37-4.7c-2.92,3.85-6.41,5.84-10.83,5.92
		c-7.17,0.13-12.58-2.81-15.62-9.38c-3.53-7.62-4.06-15.53-0.9-23.38c4.45-11.06,17.34-13.53,25.76-5.12
		c0.22,0.22,0.52,0.36,1.29,0.89c0-3.6,0-6.77,0-9.95c0-3.11,0-6.22,0-9.65c2.4,0,4.58,0,6.87,0
		C67.64,181.17,67.64,199.46,67.64,218.03z M61.17,198.62c-0.14-0.04-0.27-0.08-0.41-0.12c-0.16-1.9-0.23-3.82-0.52-5.71
		c-0.2-1.29-0.64-2.56-1.11-3.78c-1.66-4.26-4.87-6.4-9.4-6.35c-4.89,0.06-8.17,2.11-9.56,6.6c-1.82,5.86-1.79,11.83,0.47,17.59
		c1.52,3.87,4.43,6.22,8.75,6.31c4.48,0.1,8.04-1.8,9.77-5.95C60.28,204.55,60.53,201.51,61.17,198.62z"/>
	<path class="st0" d="M160.98,200.03c-10.21,0-19.76,0-29.25,0c-1.04,5.36,1.32,10.31,5.57,12.2c5.1,2.27,11.77,1.11,14.13-3.46
		c2.08-4.03,4.83-3.75,8.17-3.26c-0.34,5.47-5,11.14-10.48,12.81c-13.29,4.03-24.24-3.13-25.19-16.9c-0.29-4.2,0.25-8.68,1.47-12.71
		c2.63-8.64,9.87-12.99,19.19-12.34c7.85,0.54,13.18,5.64,15.02,14.52C160.19,193.69,160.47,196.54,160.98,200.03z M153.21,194.27
		c-0.53-7.9-4.52-11.94-11.31-11.6c-6.01,0.3-10.56,5.24-10.48,11.6C138.68,194.27,145.94,194.27,153.21,194.27z"/>
	<path class="st0" d="M215.95,191.06c-3.36,0.46-6.39,1.19-7.68-3.6c-0.98-3.63-4.48-4.75-8.08-4.8c-4.24-0.05-7.51,1.78-9.23,5.66
		c-2.76,6.2-2.71,12.61-0.35,18.91c1.5,4.01,4.72,5.9,8.98,5.97c4.04,0.06,7.37-1.76,8.45-5.47c1.41-4.84,4.49-4.21,7.95-3.77
		c-0.31,7.17-4.77,12.94-11.25,14.69c-7.68,2.07-15.61-0.7-19.71-6.89c-5.21-7.88-4.55-21.89,1.53-29.15
		c4.8-5.74,11.22-7.13,18.24-5.85c6.42,1.18,9.71,5.68,11.18,11.75c0.11,0.46,0.19,0.94,0.2,1.42
		C216.17,190.27,216.04,190.61,215.95,191.06z"/>
	<path class="st0" d="M245.41,218c-2.34,0-4.34,0-6.73,0c0-4.61,0-9.02,0-13.42c0-7.43,0.01-14.87,0.01-22.3
		c0-5.05-0.01-5.06,5.18-4.83c0.46,0.02,0.92,0.13,1.54,0.22C245.41,191.18,245.41,204.61,245.41,218z"/>
	<path class="st0" d="M99.6,217.99c-2.15,0-4.13,0-6.38,0c0-13.44,0-26.79,0-40.35c2.12,0,4.1,0,6.38,0
		C99.6,191.06,99.6,204.41,99.6,217.99z"/>
	<path class="st0" d="M239.07,170c-1.11-7.74-0.43-8.49,6.48-7.16c0,2.27,0,4.58,0,7.16C243.4,170,241.34,170,239.07,170z"/>
	<path class="st0" d="M99.71,170.07c-2.22,0-4.3,0-6.57,0c0-2.53,0-4.87,0-7.45c2.23,0,4.31,0,6.57,0
		C99.71,165.17,99.71,167.51,99.71,170.07z"/>
</g>
</svg>
