<?xml version="1.0" encoding="utf-8"?>
<!-- Generator: Adobe Illustrator 23.0.1, SVG Export Plug-In . SVG Version: 6.00 Build 0)  -->
<svg version="1.1" id="Layer_1" xmlns="http://www.w3.org/2000/svg" xmlns:xlink="http://www.w3.org/1999/xlink" height="30px"
	 viewBox="0 0 282.07 59.91" style="enable-background:new 0 0 282.07 59.91;" xml:space="preserve">
<style type="text/css">
	.st0{fill:#171D29;}
</style>
<path class="st0" d="M129.83,22.05v36.47c-0.03,0.79-0.7,1.4-1.49,1.37c0,0-0.01,0-0.01,0h-12.88c-0.79,0.05-1.47-0.55-1.52-1.34
	c0-0.01,0-0.02,0-0.03V22.05c0.06-3.08,2.07-5.79,5-6.75V0.63c0.02-0.37,0.34-0.65,0.71-0.63c0,0,0,0,0,0h4.57
	c0.36-0.02,0.66,0.26,0.68,0.62c0,0,0,0.01,0,0.01v14.64C127.81,16.25,129.79,18.97,129.83,22.05z M30.08,43.14v-25.8
	c0-5.28-1.22-9.38-3.63-12.37s-6.66-4.5-12.66-4.5H0v59.42h13.78c6,0,10.22-1.49,12.66-4.47C28.88,52.44,30.09,48.35,30.08,43.14z
	 M20.36,41.48c0.03,2.38-0.35,4.75-1.12,7c-0.74,2.1-2.91,3.18-6.52,3.18h-3V8.83h3c3.62,0,5.78,1.05,6.52,3.09
	c0.78,2.25,1.16,4.62,1.12,7V41.5V41.48z M88.54,59.9l-7.45-27.15c2.48-1.52,4.36-3.83,5.33-6.57c0.79-2.7,1.18-5.5,1.15-8.31
	c0-5.27-1.12-9.49-3.37-12.66c-2.28-3.15-6.54-4.72-12.81-4.72H57.78v59.42h9.76V35.15h4.55L78.3,59.9H88.54z M77.85,17.9v1.39
	c0,0.51-0.09,1-0.13,1.49c-0.08,0.65-0.21,1.29-0.39,1.91c-0.19,0.59-0.42,1.17-0.68,1.73c-0.49,1.03-1.41,1.79-2.51,2.07
	c-1.14,0.23-2.3,0.35-3.47,0.33h-3.13V8.83h3.09c1.16,0.01,2.32,0.11,3.47,0.3c1.09,0.32,1.98,1.1,2.44,2.14
	c0.26,0.57,0.49,1.15,0.68,1.74c0.18,0.62,0.32,1.26,0.39,1.9c0,0.56,0.1,1,0.13,1.53s0.09,0.95,0.09,1.42L77.85,17.9z M188.65,59.9
	V0.47h-9.11v35.27L166.25,0.47h-9.82v59.42h9V23.22l14,36.68h9.13H188.65z M249.23,59.9l-12.69-38.75l11.17-20.67h-10.17
	l-11.37,23.79V0.47h-9.73v59.42h9.73V40.58l4.49-8.28l8.25,27.6h10.3H249.23z M282.07,49.87c0-5.52-4.48-10-10-10s-10,4.48-10,10
	s4.48,10,10,10S282.07,55.39,282.07,49.87z"/>
</svg>
