<?xml version="1.0" encoding="utf-8"?>
<!-- Generator: Adobe Illustrator 23.0.1, SVG Export Plug-In . SVG Version: 6.00 Build 0)  -->
<svg version="1.1" id="Layer_1" xmlns="http://www.w3.org/2000/svg" xmlns:xlink="http://www.w3.org/1999/xlink" height="45px"
	 viewBox="0 0 269.22 255.35" style="enable-background:new 0 0 269.22 255.35;" xml:space="preserve">
<style type="text/css">
	.st0{fill-rule:evenodd;clip-rule:evenodd;fill:#FFFFFF;}
	.st1{fill:none;stroke:#000000;stroke-width:0.71;stroke-miterlimit:2.613;}
	.st2{fill-rule:evenodd;clip-rule:evenodd;}
	.st3{fill:none;stroke:#000000;stroke-width:1.096;stroke-miterlimit:2.613;}
	.st4{fill:none;stroke:#000000;stroke-width:0.531;stroke-linejoin:round;stroke-miterlimit:2.613;}
	.st5{fill:none;stroke:#000000;stroke-width:0.531;stroke-miterlimit:2.613;}
	.st6{fill-rule:evenodd;clip-rule:evenodd;stroke:#000000;stroke-width:0.531;stroke-miterlimit:2.613;}
	.st7{fill:none;stroke:#000000;stroke-width:0.531;stroke-linejoin:bevel;stroke-miterlimit:2.613;}
</style>
<g>
	<path class="st0" d="M211.97,174.65v-13.13l-1.46-1.65l-1.08-1.22V81.52l1-1l1.7-1.7l0-2.41v-9.94l3.12-5.36l0.79-1.35v-7.4
		l-3.03-1.65C198.82,43,192.52,36.8,191.76,9.84l-0.16-5.63H78.56L78.4,9.84C77.63,36.8,71.33,43,57.15,50.72l-3.03,1.65v7.4
		c0,0.02,0.79,1.37,0.79,1.37l3.12,5.34l0,9.94v2.43l1.73,1.7l0.98,0.96v77.14l-1.08,1.22l-1.46,1.65v13.17
		C22.77,172.01,0,168.48,0,168.48v86.87c0,0,58.93-9.13,134.61-9.13c75.68,0,134.61,9.02,134.61,9.02V168.6
		C269.22,168.6,246.85,172.02,211.97,174.65L211.97,174.65z"/>
	<path class="st0" d="M134.75,185.85c69.31,0,126.84-7.92,129.31-8.3l-0.74-4.3c-0.51,0.08-57.76,8.27-128.57,8.27
		c-70.81,0-128.33-8.18-128.85-8.27l-0.73,4.28C6.15,177.69,64.38,185.85,134.75,185.85L134.75,185.85z M134.66,237.84
		c69.31,0,126.86,7.92,129.32,8.3l-0.75,4.3c-0.51-0.08-57.76-8.27-128.57-8.27c-70.81,0-128.33,8.18-128.85,8.27l-0.75-4.28
		C6.03,246.01,64.29,237.84,134.66,237.84L134.66,237.84z"/>
	<path class="st1" d="M263.23,250.44c-0.51-0.08-57.76-8.27-128.57-8.27c-70.81,0-128.33,8.18-128.85,8.27 M263.33,173.25
		c-0.51,0.08-57.76,8.27-128.57,8.27c-70.81,0-128.33-8.18-128.85-8.27"/>
	<path class="st2" d="M19.24,198.94v11.02h4.36v4.09h-4.36v10.87h-4.62v-25.98H19.24z M24.93,198.94v3.89h-4.81v-3.89H24.93z
		 M33.86,198.94v10.75h4.43v4.09h-4.43v11.14h-4.62v-25.98H33.86z M39.66,198.94v3.89h-4.93v-3.89H39.66z M39.92,221.02v3.89h-5.19
		v-3.89H39.92z M49.2,198.94v25.98h-4.62v-25.98H49.2z M54.65,221.02v3.89h-4.59v-3.89H54.65z M62.81,198.94v25.98h-4.62v-25.98
		H62.81z M63.79,198.98c2.69,0.24,4.4,1.25,5.49,3.12c0.99,1.75,1.37,4.36,1.37,9.5c0,9.97-1.44,12.7-6.97,13.32v-3.94
		c1.82-0.35,2.16-1.55,2.16-8.18v-2.65c-0.04-2.84-0.07-3.5-0.23-4.79c-0.23-1.56-0.76-2.26-1.93-2.45v-3.97L63.79,198.98z
		 M86.81,205.84v0.54h-4.09c0.04-0.58,0.08-0.78,0.08-1.13c0-1.52-0.49-2.53-1.4-2.84v-3.93C85.06,198.67,86.81,201.04,86.81,205.84
		L86.81,205.84z M80.48,202.37c-0.87,0.23-1.32,1.17-1.32,2.61c0,1.75,0.45,2.76,1.82,3.82l3.11,2.37c2.54,1.95,3.41,3.78,3.41,7.09
		c0,4.32-2.35,7.09-6.1,7.17v-3.86c1.29-0.12,1.97-1.13,1.97-2.85c0-1.4-0.42-2.37-1.33-3.03l-1.17-0.82l-0.57-0.43l-1.78-1.37
		c-2.58-2.02-3.49-3.97-3.49-7.48c0-4.21,2.01-6.85,5.46-7.13L80.48,202.37L80.48,202.37L80.48,202.37z M79.3,217.79v0.16
		c0,2.06,0.3,2.88,1.17,3.43v4.01c-3.41-0.24-5.27-2.77-5.27-7.09v-0.97h4.13L79.3,217.79L79.3,217.79z M97.63,202.52
		c-0.91,0.78-1.29,3.43-1.29,9.07c0,7.44,0.23,9.31,1.29,9.86v3.93c-4.36-0.39-6.14-4.21-6.14-13.36c0-8.68,2.01-13.12,6.14-13.55
		V202.52z M104.26,208.17h-4.36v-0.16c0-3.54-0.49-5.45-1.4-5.64v-3.89C102.64,198.79,104.23,201.51,104.26,208.17z M104.07,215.42
		v0.35c0,6.47-1.63,9.31-5.57,9.62v-3.89c0.87-0.31,1.21-1.71,1.21-5.26c0-0.24,0-0.39-0.04-0.82L104.07,215.42L104.07,215.42z
		 M113.5,198.94v10.51h2.69v4.4h-2.69v11.06h-4.62v-25.98L113.5,198.94L113.5,198.94L113.5,198.94z M121.68,198.94v25.98h-4.62
		v-25.98H121.68z M131.93,198.94v25.98h-4.62v-25.98H131.93z M137.39,221.02v3.89h-4.59v-3.89H137.39z M145.84,194.35v3.39h-3.52
		v-3.39H145.84z M151.22,194.35v3.39h-3.52v-3.39H151.22z M146.33,202.41c-0.99,0.43-1.29,2.37-1.29,8.64
		c0,2.77,0.04,5.37,0.11,6.62c0.11,2.33,0.46,3.5,1.17,3.78v3.97c-4.36-0.28-6.29-4.4-6.29-13.48c-0.04-9.03,1.93-13.24,6.29-13.48
		L146.33,202.41L146.33,202.41L146.33,202.41z M153.5,211.87c0,9.16-1.93,13.32-6.29,13.55v-3.97c0.53-0.28,0.8-0.74,0.99-1.79
		c0.08-0.62,0.15-1.37,0.23-2.3c0.04-1.13,0.08-3.31,0.08-5.53c0-7.13-0.23-8.92-1.29-9.42v-3.93
		C151.52,198.71,153.5,202.87,153.5,211.87L153.5,211.87z M169.63,205.84v0.54h-4.09c0.04-0.58,0.08-0.78,0.08-1.13
		c0-1.52-0.49-2.53-1.4-2.84v-3.93C167.89,198.67,169.63,201.04,169.63,205.84L169.63,205.84z M163.3,202.37
		c-0.87,0.23-1.32,1.17-1.32,2.61c0,1.75,0.46,2.76,1.82,3.82l3.11,2.37c2.54,1.95,3.41,3.78,3.41,7.09c0,4.32-2.35,7.09-6.1,7.17
		v-3.86c1.29-0.12,1.97-1.13,1.97-2.85c0-1.4-0.42-2.37-1.32-3.03l-1.17-0.82l-0.57-0.43l-1.78-1.37c-2.58-2.02-3.49-3.97-3.49-7.48
		c0-4.21,2.01-6.85,5.46-7.13L163.3,202.37L163.3,202.37z M162.13,217.79v0.16c0,2.06,0.3,2.88,1.17,3.43v4.01
		c-3.41-0.24-5.27-2.77-5.27-7.09v-0.97h4.13L162.13,217.79L162.13,217.79z M185.49,205.84v0.54h-4.09
		c0.04-0.58,0.08-0.78,0.08-1.13c0-1.52-0.49-2.53-1.4-2.84v-3.93C183.75,198.67,185.49,201.04,185.49,205.84L185.49,205.84z
		 M179.17,202.37c-0.87,0.23-1.33,1.17-1.33,2.61c0,1.75,0.46,2.76,1.82,3.82l3.11,2.37c2.54,1.95,3.41,3.78,3.41,7.09
		c0,4.32-2.35,7.09-6.1,7.17v-3.86c1.29-0.12,1.97-1.13,1.97-2.85c0-1.4-0.42-2.37-1.33-3.03l-1.17-0.82l-0.57-0.43l-1.78-1.37
		c-2.58-2.02-3.49-3.97-3.49-7.48c0-4.21,2.01-6.85,5.46-7.13V202.37L179.17,202.37z M177.99,217.79v0.16c0,2.06,0.3,2.88,1.17,3.43
		v4.01c-3.41-0.24-5.27-2.77-5.27-7.09v-0.97h4.13L177.99,217.79L177.99,217.79z M196.4,202.52c-0.91,0.78-1.29,3.43-1.29,9.07
		c0,7.44,0.23,9.31,1.29,9.86v3.93c-4.36-0.39-6.14-4.21-6.14-13.36c0-8.68,2.01-13.12,6.14-13.55V202.52z M203.03,208.17h-4.36
		v-0.16c0-3.54-0.49-5.45-1.4-5.64v-3.89C201.4,198.79,202.99,201.51,203.03,208.17z M202.84,215.42v0.35
		c0,6.47-1.63,9.31-5.57,9.62v-3.89c0.87-0.31,1.21-1.71,1.21-5.26c0-0.24,0-0.39-0.04-0.82L202.84,215.42L202.84,215.42z
		 M212.26,198.94v10.51h2.69v4.4h-2.69v11.06h-4.62v-25.98L212.26,198.94L212.26,198.94L212.26,198.94z M220.45,198.94v25.98h-4.63
		v-25.98H220.45z M230.69,198.94v10.75h4.43v4.09h-4.43v11.14h-4.62v-25.98H230.69z M236.49,198.94v3.89h-4.92v-3.89H236.49z
		 M236.75,221.02v3.89h-5.19v-3.89H236.75z M246.6,198.94l7.84,25.98h-3.9l-8.23-25.98H246.6L246.6,198.94z M255.35,198.94v25.98
		l-3.68-12.66v-13.32H255.35z M245.08,210.86v14.06h-3.68v-25.98L245.08,210.86z M4.68,180.44c0.53,0.08,59.08,8.36,130.07,8.36
		c71,0,129.37-8.28,129.8-8.37l-0.55-3.26c-0.53,0.08-58.76,8.3-129.22,8.3c-71.12,0-129.01-8.23-129.54-8.32L4.68,180.44
		L4.68,180.44z M5.15,246.54c0.53-0.08,58.43-8.32,129.54-8.32c70.46,0,128.69,8.22,129.22,8.3l0.56-3.26
		c-0.44-0.09-58.81-8.37-129.8-8.37S5.12,243.17,4.59,243.26L5.15,246.54L5.15,246.54z"/>
	<path class="st0" d="M149.49,76.33l-9.47-0.06v20.87h-9.87V76.27l-9.48,0.06v21.2h-5.25V14.55l-3.36-4.54h-9.33v24.03h-5.97V14.55
		l-3.36-4.54H84.2c-0.84,29.54-8.49,37.31-24.27,45.92v2.41l3.91,6.71l0,11.54l2.7,2.67v81.97l-2.55,2.87v16.68h53.8v-16.68
		l-2.54-2.87v-18.78c0-10.94,8.87-19.81,19.81-19.81c6.51,0,12.29,3.15,15.9,8l1.34,2.05c1.69,2.97,2.57,6.34,2.57,9.76l0.04,18.77
		l-2.54,2.87v16.68h53.8v-16.68l-2.54-2.87V79.28l2.7-2.7l0-11.54l3.91-6.73v-2.39C194.45,47.31,186.8,39.54,185.96,10h-9.2
		l-3.36,4.54v19.49h-5.97V10.01h-9.33l-3.36,4.54v83.01h-5.25L149.49,76.33L149.49,76.33z"/>
	<path class="st3" d="M149.49,75.86l-1.63-11.75h-7.84v33.08h-9.87V64.11h-7.84l-1.63,11.75v21.69h-5.25v-83l-3.36-4.54h-9.33v24.03
		h-5.97V14.55l-3.36-4.54H84.2c-0.84,29.54-8.49,37.31-24.27,45.92v2.41l3.91,6.71l0,11.54l2.7,2.67v81.97l-2.55,2.87v16.68h53.8
		v-16.68l-2.54-2.87v-18.78c0-10.94,8.87-19.81,19.81-19.81c6.51,0,12.29,3.15,15.9,8l1.34,2.05c1.69,2.97,2.57,6.34,2.57,9.76
		l0.04,18.77l-2.54,2.87v16.68h53.8v-16.68l-2.54-2.87V79.28l2.7-2.7l0-11.54l3.91-6.73v-2.39C194.45,47.31,186.8,39.54,185.96,10
		h-9.2l-3.36,4.54v19.49h-5.97V10.01h-9.33l-3.36,4.54v83h-5.25L149.49,75.86z"/>
	<path class="st4" d="M96.57,34.04l-3.36,6.82 M173.59,34.04l3.36,6.82 M111.58,88.01H69.55c-1.22,0-2.19,0.12-3.02,0.32
		 M63.99,164.01h53.8 M66.54,161.14h48.72 M66.54,151.58h48.72 M66.54,142.85h48.72 M66.54,133.4h48.72 M66.54,123.84h21.01
		 M87.9,78.88v9.12 M104.13,78.88v9.12 M78.49,88.02v10.01 M96.65,88.02v10.01 M87.9,98.07v9.38 M104.14,98.07v9.38 M77.86,133.43
		v9.42 M88.15,142.88v8.7 M77.83,151.61v9.54 M97.95,151.61v9.54 M203.63,98.37c-0.84-0.2-1.8-0.32-3.02-0.32H158.1 M158.39,88.01
		h42.22c1.22,0,2.18,0.12,3.02,0.32 M203.63,107.79c-0.84-0.2-1.8-0.32-3.02-0.32H69.55c-1.22,0-2.19,0.12-3.02,0.32 M203.63,109.87
		c-0.84-0.2-1.8-0.32-3.02-0.32H69.55c-1.22,0-2.19,0.11-3.02,0.32 M203.63,111.96c-0.84-0.2-1.8-0.32-3.02-0.32H69.55
		c-1.22,0-2.19,0.12-3.02,0.32 M206.17,164.01h-53.8 M203.63,161.14h-48.72 M203.63,151.58h-48.72 M203.63,142.85h-48.72
		 M203.63,123.84h-24.01 M182.87,78.88v9.12 M166.04,78.88v9.12 M174.05,88.02v10.01 M182.87,98.07v9.38 M166.03,98.07v9.38
		 M192.3,133.43v9.42 M182.02,142.87v8.7 M192.33,151.61v9.54 M172.21,151.61v9.54 M111.77,64.11H68.12c-1.88,0-3.16,0.41-4.28,0.85
		 M96.52,64.14v11.51 M78.22,64.14v11.51 M158.39,64.11h43.66c1.88,0,3.15,0.41,4.28,0.85 M174.18,64.14v11.51 M191.94,64.14v11.51
		 M134.9,98.07v9.38 M127.37,111.64l2.5,11.69 M142.64,111.64l-2.45,11.65 M191.94,88.04v10 M66.53,98.37
		c0.84-0.2,1.8-0.32,3.02-0.32h42.51 M111.62,56.36V98 M158.55,55.51v42.31"/>
	<path class="st2" d="M112.06,10.01V56.4H66.5c-4.06,0-6.58,1.91-6.58,1.91v-2.39c15.78-8.61,23.44-16.38,24.27-45.91h9.21v30.85
		h9.33V10.01H112.06L112.06,10.01z M158.1,10.01V56.4h45.56c4.06,0,6.57,1.91,6.57,1.91v-2.39c-15.78-8.61-23.43-16.38-24.27-45.91
		h-9.2v30.85h-9.33V10.01H158.1z M62.6,62.91c1.76-0.91,3.71-1.38,5.69-1.37h43.36v-2.63H67.34c-3.05,0-5.22,1.08-6.12,1.61
		L62.6,62.91L62.6,62.91z M63.83,76.57c1.12-0.44,2.4-0.92,4.28-0.92h43.54v3.2h-42.1c-1.22,0-2.18,0.2-3.01,0.4L63.83,76.57z
		 M207.56,62.91c-1.76-0.91-3.71-1.38-5.7-1.37h-43.47v-2.63h44.43c3.05,0,5.22,1.08,6.12,1.61L207.56,62.91z M206.33,76.57
		c-1.12-0.44-2.4-0.92-4.28-0.92h-43.66v3.2h42.22c1.22,0,2.18,0.23,3.01,0.43L206.33,76.57z M111.75,98.52l9.83,0l0.01-11.65h-6.49
		L111.75,98.52z M155.06,86.87h-6.48l0,11.65l9.82,0L155.06,86.87z M189.17,175.18v0.64l16.62,0.96l0.34,0.02v-2.6l-0.34,0.02
		L189.17,175.18L189.17,175.18z M189.17,172.31v0.64l16.62,0.96l0.34,0.02v-2.6l-0.34,0.02L189.17,172.31L189.17,172.31z
		 M189.17,169.47v0.64l16.62,0.96l0.34,0.02v-2.6l-0.34,0.02L189.17,169.47L189.17,169.47z M205.79,165.63l-16.62,0.96v0.64
		l16.62,0.96l0.34,0.02v-2.6L205.79,165.63L205.79,165.63z M206.13,165.34v-1.42l-0.08-0.09l-0.82-0.93l-0.11-0.12l-0.16,0.01
		l-15.81,0.93v0.64l16.64,0.96L206.13,165.34z M205.02,162.59L204.5,162l-0.88-0.99v-1.11l-0.34,0.02l-15.75,0.9l0,0.64l16.71,1.08
		L205.02,162.59L205.02,162.59z M203.63,159.31v-2.6l-0.34,0.02l-15.75,0.9l0,0.64l15.75,1.02L203.63,159.31z M203.63,156.11v-2.59
		l-0.34,0.02l-15.75,0.9l0,0.64l15.75,1.01L203.63,156.11z M203.63,152.93v-2.59l-0.34,0.02l-15.75,0.9l0,0.64l15.75,1.02
		L203.63,152.93z M203.63,150.03v-2.6l-0.34,0.02l-15.75,0.9l0,0.64l15.75,1.02L203.63,150.03z M203.63,147.11v-2.59l-0.34,0.02
		l-15.75,0.9l0,0.64l15.75,1.02L203.63,147.11z M203.63,144.21v-2.6l-0.34,0.02l-15.75,0.9l0,0.64l15.75,1.02L203.63,144.21z
		 M203.63,141.14v-2.59l-0.34,0.02l-15.75,0.9l0,0.64l15.75,1.02L203.63,141.14z M203.63,138.02v-2.6l-0.34,0.02l-15.75,0.9l0,0.64
		l15.75,1.01L203.63,138.02z M203.63,134.94v-2.6l-0.34,0.02l-15.75,0.9l0,0.64l15.75,1.02L203.63,134.94z M203.63,131.71v-2.59
		l-0.34,0.02l-15.75,0.9l0,0.64l15.75,1.01L203.63,131.71z M203.63,128.46v-2.59l-0.34,0.02l-15.75,0.89l0,0.64l15.75,1.02
		L203.63,128.46z M187.54,123.53l0,0.64l15.75,1.02l0.34,0.02v-2.59l-0.34,0.02L187.54,123.53L187.54,123.53z M203.29,119.59
		l-15.75,0.9l0,0.64l15.75,1.02l0.34,0.02v-2.6L203.29,119.59z M203.29,116.55l-15.75,0.9l0,0.64l15.75,1.02l0.34,0.02v-2.6
		L203.29,116.55z M203.29,113.51l-15.75,0.9l0,0.64l15.75,1.01l0.34,0.02v-2.59L203.29,113.51z M203.37,110.88
		c-1.02-0.23-2.05-0.34-3.09-0.32l-12.76,0.73l0,0.64l12.76,0.8c1.13,0,2.09,0.1,2.94,0.31l0.4,0.1v-2.19L203.37,110.88
		L203.37,110.88z M203.37,106.75c-1.02-0.23-2.05-0.34-3.09-0.32l-12.76,0.73l0,0.64l12.76,0.8c1.12,0,2.09,0.1,2.94,0.31l0.4,0.1
		v-2.2L203.37,106.75L203.37,106.75z M203.37,103.63c-0.91-0.22-1.92-0.33-3.09-0.33l-12.76,0.73l0,0.64l12.76,0.8
		c1.12,0,2.09,0.1,2.94,0.31l0.4,0.1v-2.19L203.37,103.63L203.37,103.63z M203.37,100.49c-0.91-0.22-1.92-0.32-3.09-0.32
		l-12.76,0.73l0,0.64l12.76,0.8c1.12,0,2.09,0.1,2.94,0.31l0.4,0.1v-2.19L203.37,100.49L203.37,100.49z M203.37,97.35
		c-0.91-0.22-1.92-0.33-3.09-0.33l-12.76,0.73l-0.01,0.64l12.76,0.8c1.12,0,2.09,0.1,2.94,0.31l0.4,0.1v-2.19L203.37,97.35
		L203.37,97.35z M203.37,93.96c-0.91-0.22-1.92-0.32-3.09-0.32l-12.76,0.73l0,0.64l12.76,0.8c1.12,0,2.09,0.1,2.94,0.31l0.4,0.1
		v-2.19L203.37,93.96L203.37,93.96z M203.37,90.61c-1.01-0.23-2.05-0.34-3.09-0.32l-12.76,0.73l-0.01,0.64l12.76,0.8
		c1.13,0,2.09,0.1,2.94,0.31l0.4,0.1v-2.2L203.37,90.61L203.37,90.61z M203.37,87.3c-0.91-0.22-1.92-0.33-3.09-0.33l-12.76,0.73
		l0,0.64l12.76,0.8c1.12,0,2.09,0.1,2.94,0.31l0.4,0.1v-2.19L203.37,87.3L203.37,87.3z M203.37,84.2c-0.91-0.22-1.92-0.32-3.09-0.32
		l-12.76,0.73l0,0.64l12.76,0.8c1.13,0,2.09,0.1,2.94,0.31l0.4,0.1v-2.19L203.37,84.2L203.37,84.2z M203.37,81.13
		c-1.01-0.23-2.05-0.34-3.09-0.32l-12.76,0.73l0,0.64l12.76,0.8c1.12,0,2.09,0.1,2.94,0.31l0.4,0.1v-2.2L203.37,81.13L203.37,81.13z
		 M206.07,72.77c-1.16-0.45-2.48-0.87-4.4-0.87l-1.45,0.08l-12.74,0.73l0,0.64l12.74,0.8l1.44,0.06c1.91,0,3.16,0.43,4.18,0.83
		l0.44,0.17v-2.36L206.07,72.77L206.07,72.77z M206.07,69.58c-1.15-0.45-2.48-0.87-4.4-0.87l-1.45,0.08l-12.74,0.73l0,0.64
		l12.74,0.8l1.44,0.06c1.91,0,3.16,0.43,4.18,0.83l0.44,0.17v-2.36L206.07,69.58L206.07,69.58z M206.07,66.41
		c-1.16-0.45-2.48-0.87-4.4-0.87l-1.45,0.08l-12.74,0.73l0,0.64l12.74,0.8l1.44,0.06c1.91,0,3.16,0.43,4.18,0.83l0.44,0.17v-2.36
		L206.07,66.41L206.07,66.41z M121.9,63.65l-1.76,12.68h10.48V63.65L121.9,63.65L121.9,63.65z M148.27,63.65h-8.71v12.68h10.47
		L148.27,63.65L148.27,63.65z M63.91,177.05v3.71h53.89v-3.71H63.91z M152.36,177.05v3.71h53.78v-3.71H152.36L152.36,177.05z
		 M140.95,98.53V86.91h-11.73v11.63H140.95z"/>
	<path class="st0" d="M142.32,45.72c-3.68,4.56-6.03,14.35-6,18.25c0.01,0.96-0.18,3.54-0.44,6.64l-0.01-15.17
		c1.38-0.46,2.76-1.86,2.76-4.25c0-1.99-0.99-3.96-1.92-5.71c1.18-0.52,2.69-1.61,2.68-3.86c-0.01-2.11-0.93-3.6-1.91-4.91
		c1.06-0.44,2.11-1.4,2.11-3.51c0-2.42-1.27-3.9-2.46-5.32c1.17-0.68,2.46-1.96,2.46-4.31c0-2.24-0.97-3.7-2.01-4.98
		c1.03-0.67,2.01-1.8,2.01-3.68c0-0.13-0.04-0.24-0.05-0.37c0.01-0.13,0.05-0.24,0.05-0.38c0-4.06-4.51-5.28-4.51-8.68
		c0,2.43-2.32,4.08-3.32,6.51c-1.24-0.22-3.04-0.66-3.58-1.42c0.8,1.15-1.07,5.21,0.11,7.58c0.88,1.75,2.05,2.44,3.64,2.53
		c0,0-2.03,0.68-4.55-0.92c0.69,2.07-0.8,4.59,1.38,8.15c1.17,1.44,2.39,1.91,3.36,2l-0.15,0.06c0,0-3.33,0.11-4.94-1.61
		c0.8,2.41,0.35,6.31,1.49,8.03c0.81,1.24,2.1,1.8,3.24,2.04l-0.14,0.03c0,0-4.13,0-5.17-1.84c1.38,2.07,0.69,5.74,2.07,7.81
		c1.22,1.96,2.99,2.37,4.25,2.37c-0.06,0.13-0.12,0.26-0.18,0.39l-0.04,0c0,0-3.1-0.11-4.71-1.15c-4.11-4.17-7.06-5.95-15.73-6.4
		c9.2,3.04,14.86,7.65,18.29,22.63c0.32,1.38,0.62,2.81,0.88,4.29c0.88,5.01,0.82,20.82,0.82,20.82l5.94-0.01
		c-0.21-13.47,0.24-16.01,1.66-25.35c1.68-11.11,7.4-19.09,18.44-23.15C148.51,37.23,143.69,44.12,142.32,45.72L142.32,45.72z
		 M131.33,54.6c0.64,0.2,1.28,0.32,1.83,0.4c0.19,0.16,0.38,0.3,0.56,0.41l0.01,8.7C133.11,60.89,132.31,57.72,131.33,54.6
		L131.33,54.6z M181.48,116.05l0.02-0.02c0,0-1.55-2.87-0.75-4.82c-1.55,2.12-5.11,2.53-6.43,5.11c-0.76,1.93,0.23,4.04,0.47,4.5
		l-0.07-0.02c-0.53-0.53-2.64-2.9-1.38-6.03c-1.89,3.79-5.63,4.48-6.55,6.83c-1.03,2.07,0.35,4.36,0.35,4.36l-0.12,0.07
		c-0.01,0-0.02,0-0.03,0c-0.04-0.04-2.48-2.34-1.46-5.64c-1.38,2.24-5.16,4.08-5.79,5.97c-0.85,2.15,0.46,4.06,0.51,4.12h-0.01
		c-0.13-0.12-3.34-3.09-1.71-5.84c-2.75,3.38-4.48,4.02-5.68,6.37c-1.2,2.35-0.34,5.34-0.34,5.34s-2.18-2.64-1.21-6.26
		c-1.78,3.38-5.11,4.19-5.51,6.89c-0.4,2.7,1.43,4.71,1.43,4.71c-6.25,5.1-9.1,13.94-10.63,22.16v-12.72
		c0.38-0.12,1.63-0.85,2.52-5.34c1.67-5.69,7.46-15.68,9.68-26.4c1.3-8.95-5.28-14.23-9.8-15.08c1.3,1.99,5.28,7.19,4.9,13.54
		c0.28,7.1-4.47,18.49-7.3,24.66v-18.9c0,0-0.95-0.05-1.49-0.05c-0.54,0-1.62,0.05-1.62,0.05v21.85c-2.45-6.97-8.26-20.8-7.72-26.92
		c0.24-2.74,0.61-8.11,5.13-13.85c0,0-10.31,2.52-10.1,12.47c0.23,10.7,11.61,28.36,12.7,38.31v12.67
		c-1.42-16.59-7.38-23.19-13.29-27.45c0,0,0.1-0.28,0.15-0.7c0.65-0.68,1.78-2.19,1.69-4.3c-0.11-2.7-5.11-4.47-5.8-6.26
		c1.26,4.31-2.35,5.74-2.35,5.74s1.66-1.32,1.26-4.19c-1.03-3.62-4.3-3.44-6.37-6.54c0.69,3.79-2.3,5.51-2.3,5.51
		s2.13-1.61,1.09-4.13c-1.03-2.52-4.36-3.56-6.31-5.91c0.81,4.32-1.45,5.57-1.73,5.71h-0.02c0.16-0.16,1.58-1.6,0.71-3.99
		c-0.92-2.53-4.13-3.21-6.31-5.97c0.17,3.32-1.99,4.71-2.15,4.8l-0.01,0c0.13-0.1,1.55-1.2,0.78-3.77
		c-1.03-2.81-4.65-3.16-6.94-5.74c1.09,3.61-0.69,5.28-0.69,5.28l0.11,0.07c-2.33-0.26-5.09,0.01-6.54-0.41
		c1.72,1.55,2.35,6.2,4.65,7.86c1.05,0.77,3.15,1.07,4.72,0.7l0-0.01c0.82,1.73,1.66,3.34,3.02,4.01c2.4,1.06,3.95,0.83,4.9,0.32
		c0.78,1.64,1.56,3.32,2.96,4.45c1.82,0.94,3.23,0.7,4.22,0.18l0.01-0.02c0.82,1.67,1.74,3.37,3.23,4.38c2.39,1.16,4.05,0.66,5,0.06
		l0.01-0.02c0.96,1.83,1.76,3.67,3.65,4.67c1.89,1.66,4.3-0.35,4.3-0.35c7.51,5.9,10.61,14.9,11.91,22.6
		c-3.38-7.7-10.38-15.38-21.84-16.11c-3.98-0.16-12.17,1.07-16.99,6.89c7.27-2.37,11.25-2.99,14.62-3.06
		c14.23,0.08,22.96,9.8,22.81,18.67c0,0,0.46,1.83,2.07,2.07l0.22,0.02l-0.01,0c0.09,1.92,0.1,8.04,0.12,9.15h6.1
		c0.03-0.27,0.05-0.54,0.08-0.8c2.21-21.82,17.38-29.19,24.41-29.09c5.36,0.08,8.73,0.98,16.07,4.03
		c-5.05-6.81-14.01-7.5-17.75-7.57c-13.68,0.6-19.82,8.93-22.77,16.71l0-0.01c1.54-8.37,4.19-16.51,10.35-22.4
		c0,0,1.95,1.78,4.71-0.35c1.69-1.14,2.51-3.01,3.43-4.77c0.78,0.59,2.34,1.31,4.5,0.06c1.55-0.7,2.49-2.38,3.28-4.09
		c1.32,0.27,2.7,0.07,3.89-0.56c1.96-0.82,2.73-2.77,3.39-4.63c1.22,0.4,2.61,0.43,4.3-0.32c1.57-0.55,2.41-2.53,3.21-4.54
		c1.11,0.27,2.44,0.33,3.62-0.38c3.04-1.26,3.39-6.54,5.74-8.61C186.24,116.44,183.67,115.87,181.48,116.05L181.48,116.05z"/>
	<path class="st5" d="M135.88,70.51c0.26-3.06,0.44-5.58,0.43-6.53c-0.03-3.91,2.32-13.69,6-18.25c1.38-1.61,6.19-8.49,15.81-6.84
		c-11.05,4.06-16.76,12.04-18.44,23.15c-1.42,9.34-1.86,11.88-1.66,25.36h-2.18 M127.82,46.04c-4.11-4.17-7.06-5.95-15.73-6.4
		c9.2,3.04,14.86,7.65,18.29,22.63c0.32,1.38,0.62,2.81,0.88,4.29c0.88,5.01,0.82,20.84,0.82,20.84l3.76-0.03
		c0-6.88-0.74-20.99-4.53-32.79 M131.93,20.67c-1.59-0.08-2.77-0.77-3.65-2.53c-1.18-2.36,0.69-6.43-0.11-7.58
		c0.59,0.84,2.71,1.29,3.93,1.49 M131.85,20.79l-0.12-0.12c0,0-1.84,0.69-4.36-0.92c0.69,2.07-0.8,4.59,1.38,8.15
		c1.17,1.44,2.39,1.91,3.36,2.01 M132.04,30.03l-0.08-0.06c0,0-3.33,0.11-4.94-1.61c0.8,2.41,0.35,6.31,1.49,8.03
		c0.81,1.25,2.11,1.8,3.26,2.04 M132.74,46.8c-1.25-0.01-3.02-0.42-4.23-2.37c-1.38-2.07-0.69-5.74-2.07-7.81
		c1.03,1.84,5.17,1.84,5.17,1.84l0.08,0.08 M132.53,47.18c0,0-3.1-0.11-4.71-1.15c0.23,1.84-0.46,4.36,0.46,6.31
		c0.96,1.85,3.35,2.46,4.93,2.66 M133.04,17.83c-0.9-0.67-1.76-1.8-1.76-3.66c0-3.79,3.79-5.59,3.79-8.68c0,3.4,4.51,4.62,4.51,8.68
		c0,1.89-1,3.02-2.03,3.69 M133.31,27.03c-0.99-0.7-2.03-1.98-2.03-4.21c0-4.14,3.77-6.44,3.77-9.54c0,3.47,4.53,4.7,4.53,9.54
		c0,2.36-1.31,3.65-2.48,4.32 M132.9,35.84c-0.85-0.49-1.62-1.46-1.62-3.39c0-4.14,3.77-6.44,3.77-9.54c0,3.74,4.53,4.96,4.53,9.54
		c0,2.14-1.07,3.1-2.14,3.53 M133.47,44.61c-1.16-0.57-2.53-1.7-2.53-3.81c0-4.14,4.13-6.36,4.13-9.46c0,3.3,4.3,4.95,4.31,9.53
		c0.01,2.27-1.52,3.37-2.71,3.88 M133.71,64.08v-8.68c-0.97-0.6-2.21-1.82-2.21-4.21c0-3.79,3.56-7.46,3.56-9.76
		c0,2.3,3.56,5.97,3.56,9.76c0,2.38-1.38,3.79-2.76,4.25v32.71 M128.29,10.74l-5.71-10.62 M127.49,19.93l-5.71-11.31 M127.14,28.54
		l-5.49-10.5 M126.6,36.86l-4.83-9.42 M142.56,10.66l6.31-10.38 M142.67,19.99l6.76-11.07 M142.67,29.37l6.65-10.95 M143.02,37.44
		l6.3-10.26 M135.1,42.06V0.24"/>
	<path class="st6" d="M138.55,19.37c1.17-0.27,2.96-0.88,3.83-2.17c1.35-2.02-0.4-5.88,0.74-7.86c-1.14,1.98-3.8,1.87-4.65,1.87
		c0.63,0.89,1.14,1.88,1.14,3.18c0,1.85-1,3.01-2.02,3.68C137.94,18.49,138.26,18.9,138.55,19.37L138.55,19.37z M139.22,20.74
		c0.23,0.35,3.33-1.03,4.02-2.06c-0.63,1.03,0.71,5.4-1.15,7.92c-0.98,1.33-2.7,1.88-3.86,2.12c-0.35-0.48-0.73-0.92-1.1-1.37
		c1.17-0.68,2.48-1.94,2.48-4.3C139.62,22.26,139.48,21.48,139.22,20.74L139.22,20.74z M138.08,37.04c1.35-0.16,3.61-0.67,4.24-2.33
		c0.78-2.04,0.33-5.86,0.92-6.66c-1.84,1.95-4.25,1.86-4.25,1.86c0.38,0.78,0.62,1.69,0.62,2.76c0,2.14-1.07,3.07-2.14,3.5
		C137.69,36.46,137.88,36.73,138.08,37.04L138.08,37.04z M138.8,38.32c0.36,0.81,0.59,1.7,0.6,2.77c0.01,2.27-1.5,3.35-2.69,3.86
		c0.1,0.18,0.2,0.34,0.3,0.52c0.05,0.01,0.12,0.02,0.17,0.03c2.05,0.23,3.64-0.91,4.89-2.39c1.25-1.48,0.34-2.95,1.47-6.93
		C142.52,37.54,139.48,38.44,138.8,38.32L138.8,38.32z M137.74,46.94l0.11-0.15c0,0,2.64,0.45,4.97-1.98
		c-1,1.35-1.13,5.49-1.74,7.15c-0.46,1.26-2.51,3.24-4.25,3c1.15-0.63,1.83-2.27,1.83-4.3C138.65,49.4,138.27,48.14,137.74,46.94
		L137.74,46.94z"/>
	<path class="st7" d="M130.9,104.71c0,0-10.31,2.52-10.1,12.47c0.23,10.71,11.63,28.39,12.7,38.34V145.5
		c-2.45-6.97-8.26-20.82-7.73-26.94C126.01,115.81,126.39,110.45,130.9,104.71z M136.59,170.99c2.06-8.72,7.45-21.31,24.38-22.05
		c3.75,0.08,12.7,0.76,17.75,7.57c-7.34-3.06-10.72-3.96-16.07-4.03c-7.03-0.1-22.21,7.27-24.41,29.09
		c-0.03,0.27-0.05,0.53-0.08,0.8h-6.1c-0.02-1.11-0.03-7.23-0.12-9.15 M92.25,155.52c4.82-5.82,13.01-7.04,16.99-6.89
		c15.76,0.99,23.11,15.15,24.18,24.42c0,0-0.08,0.38-1.68,0.15c-1.61-0.23-2.07-2.07-2.07-2.07c0.15-8.88-8.57-18.6-22.81-18.67
		C103.5,152.53,99.52,153.15,92.25,155.52z"/>
	<path class="st5" d="M136.61,142.48v-18.85c0,0-0.95-0.05-1.49-0.05c-0.54,0-1.62,0.05-1.62,0.05v58.75h3.11v-31.26"/>
	<path class="st7" d="M139.01,104.32c4.51,0.84,11.1,6.12,9.8,15.08c-2.22,10.71-8.01,20.71-9.68,26.4
		c-1.07,5.35-2.64,5.36-2.64,5.36s-2.99,1.33-2.99,0.09c0-1.4,0.54-3.3,1.08-4.45c0.53-1.15,9.72-19.13,9.34-28.93
		C144.29,111.52,140.31,106.31,139.01,104.32z"/>
	<path class="st6" d="M179.29,124.05c1.14,0.3,2.38,0.34,3.59-0.39c1.12-0.46,1.88-1.48,2.5-2.67l0.11-0.08c0,0,1.04,3,4.59,2.84
		c-3.11,0.93-4.43,3.49-7.1,3.43c-2.29-0.16-3.82-2.23-3.82-2.23L179.29,124.05L179.29,124.05z M171.47,129.6
		c0.11-0.29,0.18-0.41,0.28-0.7c1.21,0.4,2.57,0.44,4.3-0.32c0.98-0.35,1.69-1.35,2.25-2.35c0,0,1.51,2.23,4.78,2.45
		c-2.78,0.32-5.02,3.38-7.85,3.32c-2.4,0.33-3.77-1.74-3.77-1.74V129.6L171.47,129.6z M164.22,134.63c0.09-0.18,0.17-0.36,0.26-0.54
		c1.11,0.21,2.48,0.19,3.88-0.55c1.09-0.46,1.82-1.26,2.35-2.2c0,0,0.44,2.28,5.35,2.39c-3.22,0.27-5.07,3.16-8.34,3.33
		c-2.73,0.05-3.43-2.07-3.43-2.07L164.22,134.63L164.22,134.63L164.22,134.63z M156.33,138.84c0.13-0.25,0.22-0.49,0.35-0.74
		c0.77,0.59,2.33,1.34,4.5,0.08c0.86-0.39,1.54-1.1,2.11-1.93c0,0,1.04,2.2,4.42,2.42c-2.89,0.71-4.47,2.84-7.42,2.73
		c-1.91,0.22-3.87-2.4-3.87-2.4L156.33,138.84L156.33,138.84L156.33,138.84z M149.29,143.69c0.81,0.33,2.25,0.53,3.97-0.8
		c1.09-0.73,1.79-1.75,2.41-2.87c0,0,1.07,2.78,5.19,2.8c-2.83,0.6-5.06,3.17-7.62,3.39C151.36,146.21,149.91,144.55,149.29,143.69
		L149.29,143.69z M87.6,124.52c-1.54,0.29-3.48-0.01-4.48-0.74c-0.83-0.6-1.43-1.58-1.96-2.68c0,0-0.29,2.47-4.35,2.75
		c3.28,0.45,3.84,3.4,7.29,3.4c3.45,0,3.67-2.5,3.67-2.5L87.6,124.52L87.6,124.52z M95.46,128.97c-0.97,0.39-2.44,0.47-4.58-0.48
		c-0.91-0.45-1.58-1.29-2.17-2.34c0,0-0.64,2.63-5.31,2.69c3.78,0.33,5.67,2.84,8.73,3.17c2.95,0,3.84-2.45,3.84-2.45L95.46,128.97
		L95.46,128.97z M111.2,137.84c-0.95,0.6-2.61,1.11-5-0.06c-0.88-0.59-1.56-1.4-2.14-2.33c0,0-0.83,2.62-5.06,2.68
		c3.23,0.05,5.39,2.73,7.95,2.95c2.56,0.22,4.34-2.73,4.34-2.73l-0.01-0.45L111.2,137.84L111.2,137.84z M103.46,134.37
		c-0.17-0.32-0.34-0.62-0.5-0.95c-0.98,0.53-2.4,0.76-4.22-0.18c-0.81-0.65-1.4-1.49-1.91-2.4h-0.02c0,0-0.52,2.28-5.3,2.5
		c4.45,0.17,5.32,3.52,7.99,3.13c2,0.11,3.84-2,3.84-2l0.11-0.15L103.46,134.37L103.46,134.37z M118.83,142.4
		c-0.73,0.48-2.5,1.38-3.96,0.09c-1.3-0.68-2.09-1.76-2.77-2.97c0,0-1.01,2.75-5.18,3.25c4.62,0.17,4.39,2.26,7.57,2.48
		C116.6,145.39,118.3,143.17,118.83,142.4z"/>
	<path class="st5" d="M84.91,116.26c0,0,1.78-1.66,0.69-5.28c2.3,2.58,5.91,2.93,6.94,5.74c0.8,2.7-0.8,3.79-0.8,3.79
		s2.35-1.38,2.18-4.82c2.18,2.76,5.39,3.44,6.31,5.97c0.92,2.52-0.74,4.02-0.74,4.02s2.64-1.15,1.78-5.74
		c1.95,2.35,5.28,3.39,6.31,5.91c1.03,2.53-1.09,4.13-1.09,4.13s2.98-1.72,2.3-5.51c2.07,3.1,5.34,2.93,6.37,6.54
		c0.4,2.87-1.26,4.19-1.26,4.19s3.62-1.43,2.35-5.74c0.69,1.78,5.68,3.56,5.8,6.26c0.09,2.11-1.05,3.62-1.7,4.31 M147.24,141.69
		c0,0-1.84-2.01-1.43-4.71c0.4-2.7,3.73-3.5,5.51-6.89c-0.98,3.61,1.21,6.26,1.21,6.26s-0.86-2.99,0.34-5.34
		c1.21-2.35,2.93-2.99,5.68-6.37c-1.66,2.81,1.72,5.85,1.72,5.85s-1.38-1.95-0.52-4.13c0.63-1.89,4.42-3.73,5.79-5.97
		c-1.03,3.33,1.46,5.64,1.46,5.64l0.14-0.08c0,0-1.38-2.3-0.35-4.36c0.92-2.35,4.65-3.04,6.55-6.83c-1.26,3.13,0.85,5.5,1.38,6.03
		l0.07,0.02c-0.24-0.46-1.23-2.57-0.47-4.5c1.32-2.58,4.88-2.99,6.43-5.11c-0.8,1.95,0.75,4.82,0.75,4.82 M89.91,120.4
		c-0.17-1.19-0.75-2.3-2.08-3.22c-2.24-1.55-7.23-0.63-9.35-1.26c1.72,1.55,2.35,6.2,4.65,7.86c1.05,0.77,3.15,1.07,4.72,0.7
		 M95.79,128.8c-0.95,0.52-2.5,0.76-4.91-0.31c-2.7-1.32-3.33-6.31-5.85-8.61c2.3,1.49,6.83-0.63,10.22,1.84
		c1.69,1.24,2.17,2.65,2.22,3.77 M102.96,133.43c-0.98,0.52-2.39,0.76-4.22-0.18c-2.89-2.32-3.16-7-6.14-8.78
		c2.18,1.66,7.75,0.46,10.27,2.01c1.58,0.95,2.02,2.3,2.07,3.41 M111.2,137.84c-0.95,0.6-2.61,1.11-5-0.06
		c-2.98-2.01-3.67-6.83-5.91-8.55c2.47,1.26,7.56-0.04,10.22,1.84c1.84,1.3,2.21,2.86,2.14,4.06 M131.09,164.76
		c-1.3-7.7-4.4-16.7-11.92-22.61c0,0-2.41,2.01-4.3,0.35c-3.27-1.72-3.27-5.97-6.49-8.32c2.35,1.72,7.06,0.29,10.16,2.24
		c2.64,1.84,1.66,4.3,1.66,4.3c5.91,4.27,11.88,10.87,13.29,27.46v5.39 M101.23,138.13H88.87 M86.06,128.83H73.49 M116.25,129.46
		l-5.22-8.78 M108.78,124.47l-4.94-8.27 M101.26,119.93l-4.82-8.04 M93.92,115.69l-4.82-8.03 M85.6,110.98l-5.51-9.07
		 M108.38,134.17l-36.96-22.6 M169.37,125.99c-0.01-1.09,0.29-2.49,1.58-3.66c2.53-2.3,8.34-1.27,10.75-2.65
		c-2.3,1.84-2.72,7.86-5.64,8.89c-1.69,0.76-3.09,0.73-4.3,0.32 M162.05,130.27c0.24-1.07,0.77-2.26,1.89-3.22
		c3.16-2.12,5.34-0.06,9.76-1.89c-2.13,1.66-1.78,6.89-5.34,8.38c-1.19,0.63-2.57,0.83-3.89,0.56 M155,136
		c-0.27-0.9-0.15-2.15,1.24-3.66c2.64-2.87,8.46-1.67,10.7-2.65c-1.95,1.61-2.6,7.07-5.76,8.5c-2.17,1.26-3.75,0.52-4.52-0.07
		 M136.6,163.86c1.53-8.23,4.38-17.07,10.63-22.17c0,0-0.46-2.16,1.32-3.79c2.52-2.3,7.63-1.32,10.39-2.87
		c-2.47,2.01-2.87,5.97-5.69,7.86c-2.76,2.13-4.71,0.35-4.71,0.35c-6.15,5.88-8.81,14.03-10.35,22.4l-1.62,5.36 M176.71,120.59
		c0.12-1.15,0.58-2.47,1.86-3.41c2.52-2.35,6.48-0.06,10.04-2.13c-2.35,2.07-2.7,7.35-5.74,8.61c-1.18,0.71-2.52,0.65-3.64,0.37
		 M158.95,135.03l34.72-23.41 M151.31,130.1l5.05-8.73 M158.54,124.64l4.82-8.32 M165.55,120.39l5.05-8.72 M173.35,114.77l4.82-8.38
		 M180.76,111.21l5.05-8.72 M165.79,138.67h12.44 M173.91,133.71h11.61 M181.15,128.66h6.15"/>
</g>
</svg>
