<?xml version="1.0" encoding="utf-8"?>
<!-- Generator: Adobe Illustrator 23.0.1, SVG Export Plug-In . SVG Version: 6.00 Build 0)  -->
<svg version="1.1" id="Layer_1" xmlns="http://www.w3.org/2000/svg" xmlns:xlink="http://www.w3.org/1999/xlink" height="30px"
	 viewBox="0 0 268.19 56.67" style="enable-background:new 0 0 268.19 56.67;" xml:space="preserve">
<style type="text/css">
	.st0{fill:#0C0C0C;}
</style>
<g>
	<path class="st0" d="M22.31,4.05c1.37,1.98,1.37,5.19,0,7.17c-3.05,3.97-8.39,4.73-12.97,3.82C6.6,14.43,3.7,12.3,3.09,9.4
		c-0.31-2.75,0.76-5.34,3.2-7.02c3.51-2.44,9-2.75,12.81-1.07C20.33,1.92,21.55,2.99,22.31,4.05z M214.36,4.05
		c1.07,1.53,1.22,3.51,0.92,5.34c-1.68,4.27-6.26,5.65-10.37,5.8c-3.51-0.15-7.17-1.07-9.15-4.43c-1.07-1.83-0.91-4.43,0.15-6.26
		c2.9-3.51,7.17-4.89,11.75-4.43C210.24,0.54,212.68,1.46,214.36,4.05z M101.02,9.7l0.46,1.98c0,10.84-0.15,22.44-0.15,33.58
		c0.15,0.92,0.31,1.83,1.07,2.14c1.83,0,2.9-2.44,4.88-1.37c0.92,0.61,1.68,1.53,1.53,2.75c0,2.75-2.59,5.04-4.88,6.11
		c-4.42,2.29-11.14,2.14-15.41-0.46c-4.42-2.6-4.88-7.48-4.73-12.36c-0.31-4.88,0-9.77-0.31-14.5c-0.76-0.92-2.14-0.46-3.2-0.76
		c-1.37-0.31-2.59-1.68-2.75-3.05c-0.15-1.53,0.31-3.05,1.68-3.82c3.51-1.07,8.24-1.07,9.46-5.49c0.76-2.9,1.53-7.02,5.34-7.63
		C96.75,6.5,99.95,6.8,101.02,9.7z M49.31,19.78c0.61,1.37,0.61,3.05,0.61,4.73v24.88c0.76,1.37,2.9,1.98,2.29,4.12
		c-0.15,0.92-0.76,1.68-1.53,2.14l-1.37,0.46c-5.95,0.31-12.51,0.46-18.46-0.31c-0.92-0.31-1.68-1.07-1.98-1.83
		c0-0.76,0.15-1.68,0.61-2.29c0.61-0.92,1.98-1.37,2.29-2.44c0.31-6.41,0.46-13.13,0.15-19.54c0.15-3.21-5.64-3.21-3.2-6.72
		c2.75-2.44,5.95-3.2,9.31-3.97C41.38,18.25,46.72,16.26,49.31,19.78z M74.48,25.88c1.53,2.6,1.07,6.1,1.07,9.31v13.89
		c0.46,1.68,3.2,1.83,2.9,3.97c-0.15,0.76-0.31,1.37-0.76,1.83c-0.92,1.07-2.44,0.92-3.66,1.07c-5.49,0.46-11.44,0.31-16.93-0.15
		c-0.92-0.31-1.83-0.76-2.29-1.68c-0.31-0.76-0.31-1.83,0.31-2.59c0.76-1.22,2.29-1.22,2.44-2.44c0.46-5.65,0.15-11.6,0.15-17.4
		c-0.31-1.83-0.31-3.66-1.68-5.04c-1.53-1.22-3.97-1.68-4.42-3.97c-0.15-1.53,0.61-3.21,1.98-3.82c4.42-1.98,10.53-1.37,14.8,0.76
		C70.97,20.69,73.26,23.29,74.48,25.88z M190.72,22.37c1.22,2.75,1.22,6.72-0.91,9.16c-0.91,1.07-2.29,1.53-3.81,1.53
		c-3.05-0.15-2.75-3.66-5.03-4.89c-1.53-0.61-3.2-1.83-3.36-3.66c-0.46-2.14,0.15-4.27,1.98-5.65c2.29-1.68,5.95-1.83,8.24-0.15
		C189.5,19.78,190.26,21,190.72,22.37L190.72,22.37z M175.62,19.47c1.07,1.98,1.37,4.43,1.37,7.02l0.15,20.61
		c0.15,0.76,0.15,1.53,0.76,2.14c1.52,1.07,4.42,1.07,4.42,3.51c-0.15,0.92-0.31,1.83-0.92,2.6c-1.83,1.22-4.27,0.92-6.56,1.07
		c-5.95,0.15-11.9,0.15-17.7-0.46c-0.91-0.15-1.68-0.76-2.14-1.53c-0.46-1.07-0.3-2.6,0.76-3.36c0.91-1.07,2.75-0.92,3.2-2.44
		c0.61-5.5,0.3-11.45,0.15-16.79c-0.3-1.37-0.46-2.9-1.83-3.66c-1.37-0.46-2.9-1.53-3.36-2.9c-0.15-1.37,0.3-2.59,1.22-3.51
		c4.58-2.6,10.07-3.2,15.41-3.97C172.41,17.79,174.39,17.94,175.62,19.47L175.62,19.47z M21.7,19.62c1.22,1.68,1.53,3.97,1.37,6.26
		c-0.15,7.63-0.15,15.42-0.15,22.89c0.46,1.83,3.97,2.59,3.05,5.04c-0.46,1.98-2.59,1.83-4.12,2.14c-5.49,0.46-10.98,0.15-16.47,0
		c-1.07-0.31-2.44,0-3.2-1.22c-0.61-0.61-0.61-1.53-0.46-2.29c0.31-1.83,3.05-1.83,2.9-3.82l-0.3-18.01
		c-0.3-0.92-0.15-1.83-0.92-2.44c-1.22-0.76-3.36-1.22-3.36-3.05c-0.15-0.92,0.15-1.53,0.76-2.14c1.83-1.68,4.42-1.83,6.71-2.75
		c3.2-0.92,6.56-1.53,9.91-2.29C19.11,18.1,20.63,18.25,21.7,19.62L21.7,19.62z M214.06,20.23c0.76,1.07,0.76,2.59,0.92,3.97
		c-0.15,8.24-0.61,16.94-0.46,25.18c0.76,1.83,3.81,2.29,3.05,4.88c-0.15,0.76-0.91,1.37-1.52,1.53
		c-6.25,1.22-13.58,0.76-19.98,0.46c-1.07-0.31-2.59-0.76-2.9-2.14c-0.46-1.22,0.3-2.14,1.07-3.05c3.36-1.37,1.52-5.8,1.98-8.4
		l-0.15-12.82c0-2.9-3.81-1.99-3.66-4.89c-0.15-1.37,0.61-2.75,1.83-3.36c4.88-1.68,10.07-2.75,15.25-3.51
		C211.46,17.94,213.14,18.55,214.06,20.23L214.06,20.23z M263.33,24.81c3.81,4.43,5.8,10.38,4.42,16.48
		c-1.68,7.78-10.07,14.04-17.7,14.96c-1.83,0.15-3.81-0.15-4.73-1.83c-0.92-2.44,1.68-3.82,2.74-5.65
		c3.36-5.65,3.51-14.81,0.76-20.91c-1.07-2.6-5.34-4.88-3.05-7.94c1.37-1.83,3.81-1.83,5.95-1.53
		C255.85,19.47,259.97,21.3,263.33,24.81L263.33,24.81z"/>
	<path class="st0" d="M110.02,21.45c0.31,1.37,0.31,2.9-0.76,3.97c-1.37,1.53-3.36,1.98-5.34,1.53c-1.53-0.76-2.14-2.44-2.14-4.12
		c0.15-1.53,0.46-3.05,1.68-3.82C105.9,17.79,108.95,19.01,110.02,21.45L110.02,21.45z M242.58,19.32c0.76,1.07,1.22,2.6,0.76,3.97
		c-3.36,3.21-5.19,7.17-5.49,11.75c-0.61,6.11,0.46,12.06,4.88,16.33c0.76,0.92,0.76,2.44,0.46,3.36c-1.07,1.99-3.51,1.99-5.64,1.68
		c-6.25-0.92-12.2-4.27-15.56-10.23c-3.2-5.5-2.59-13.74,1.07-18.77c3.66-5.49,9.61-8.09,15.56-9.31
		C240.14,18.1,241.51,18.55,242.58,19.32L242.58,19.32z M149.38,22.98c2.44,2.29,3.2,5.49,2.59,8.7c-1.68,6.41-8.39,8.85-14.03,9.77
		c-2.9,0.46-6.71,1.07-9-1.37c-0.61-0.61-0.61-1.53-0.46-2.44c1.07-3.05,4.73-2.29,6.1-5.34c0.91-1.37,1.37-3.05,0.91-4.73
		c-0.15-2.44-3.81-4.12-1.83-6.87c1.98-2.9,6.41-1.99,9.31-1.22C145.26,20.39,147.39,21.61,149.38,22.98L149.38,22.98z"/>
	<path class="st0" d="M131.68,20.84c1.68,3.05-1.98,5.04-2.9,7.48c-2.29,3.97-2.75,9.77-1.37,14.35c0.76,2.9,2.75,5.34,4.88,7.63
		c0.76,1.37,0.76,3.21-0.3,4.58c-3.05,3.21-8.24,1.37-11.59,0.15c-5.34-2.14-10.37-7.02-11.59-12.82
		c-1.37-7.02,1.22-13.58,6.71-18.16c3.97-3.05,8.39-5.34,13.58-5.04C130.16,19.32,131.23,19.93,131.68,20.84L131.68,20.84z
		 M150.9,42.82c1.22,1.22,1.37,3.21,0.91,4.88c-1.98,5.19-7.63,8.24-12.97,8.85c-1.83,0.31-3.66,0-4.73-1.53
		c-0.76-1.22-0.46-3.05,0.15-3.97c2.13-2.6,5.95-1.53,8.39-3.82c2.59-1.53,3.35-5.8,6.86-4.88L150.9,42.82L150.9,42.82z"/>
</g>
</svg>
