<?xml version="1.0" encoding="utf-8"?>
<!-- Generator: Adobe Illustrator 23.0.1, SVG Export Plug-In . SVG Version: 6.00 Build 0)  -->
<svg version="1.1" id="Layer_1" xmlns="http://www.w3.org/2000/svg" xmlns:xlink="http://www.w3.org/1999/xlink" height="30px"
	 viewBox="0 0 451.98 86.29" style="enable-background:new 0 0 451.98 86.29;" xml:space="preserve">
<style type="text/css">
	.st0{fill-rule:evenodd;clip-rule:evenodd;fill:#1A1A1A;}
</style>
<g id="Page-1">
	<g id="nespresso_logo">
		<path id="Shape" class="st0" d="M410.69,13.78c-6.79,0-27.72,2.4-27.72,29.36c0,28.76,22.63,29.96,27.15,29.96
			c2.83,0,13.01-0.6,19.8-7.79c5.09-5.39,7.35-12.58,7.35-22.17C437.84,15.58,417.48,13.78,410.69,13.78L410.69,13.78z
			 M419.17,61.72c-1.7,1.2-3.96,3-7.92,3h-0.57c-3.96,0-6.22-1.8-7.92-3c-3.96-3.6-5.66-10.19-5.66-19.77
			c0-17.98,8.49-20.97,13.58-20.97h0.57c5.09,0,13.58,3,13.58,20.97C424.83,51.53,423.13,58.12,419.17,61.72z M83.72,82.09
			c-5.09-1.8-12.45-7.79-16.4-13.18c-5.09-6.59-18.1-24.57-18.1-24.57c-2.26-2.4-3.96-5.39-6.22-8.39
			c-5.66-8.39-11.88-17.38-18.67-22.77V73.1h7.92V41.95l6.79,8.99c3.39,4.79,7.35,10.19,10.18,13.78c2.26,2.4,7.35,8.99,9.05,10.19
			c7.35,7.19,18.67,11.39,29.98,11.39c5.09,0,9.62-0.6,14.14-2.4v-0.6c-1.7,0.6-3.96,0.6-5.66,0.6
			C92.77,85.09,88.25,83.89,83.72,82.09L83.72,82.09z M35.07,17.98c5.09,6.59,18.67,24.57,18.67,24.57c1.7,2.4,3.96,5.39,5.66,8.39
			c5.66,8.39,11.88,17.38,18.67,22.77V13.78h-7.92v31.16l-6.79-8.99c-3.39-5.39-6.79-10.19-10.18-13.78c-1.7-3-7.92-8.99-9.62-10.79
			C36.77,4.19,24.89,0,13.58,0C9.05,0,4.53,0.6,0,2.4V3c1.7-0.6,3.96-0.6,5.66-0.6c4.53,0,8.49,1.2,13.01,2.4
			C23.76,6.59,31.11,12.58,35.07,17.98L35.07,17.98z M334.32,44.34c-6.22-5.99-13.58-7.19-18.67-10.79c-3.96-3-3.39-7.19-1.7-9.59
			c4.53-5.99,14.14-3.6,16.4-3c2.83,0.6,3.96,1.2,6.79,3v-6.59c-11.31-3.6-28.85-6.59-35.64,5.39c-2.83,4.79-3.39,13.18,3.96,18.58
			c7.35,5.99,20.36,8.99,21.5,14.38c1.13,3,0,5.39-1.7,7.19c-6.79,6.59-17.54,2.4-24.32-0.6v7.19c7.35,3.6,16.97,4.19,24.89,2.4
			c5.66-1.2,11.88-6.59,13.01-13.18C339.98,52.13,338.28,47.94,334.32,44.34L334.32,44.34z M375.05,44.34
			c-6.22-5.99-13.58-7.19-18.67-10.79c-3.96-3-3.39-7.19-1.7-9.59c4.53-5.39,13.58-3,15.84-2.4c2.83,0.6,3.96,1.2,6.79,3v-7.19
			c-11.31-3.6-28.85-6.59-35.64,5.39c-2.26,4.79-2.83,13.18,4.53,18.58c7.35,5.99,20.36,8.99,21.5,14.38c1.13,3,0,5.39-1.7,7.19
			c-6.79,6.59-17.54,2.4-24.32-0.6v7.19c7.35,3.6,16.4,4.19,24.89,2.4c5.66-1.2,11.88-6.59,13.01-13.18
			C380.71,52.13,379.01,47.94,375.05,44.34L375.05,44.34z M260.78,71.91h35.64v-7.19h-23.19V46.14h18.67v-6.59h-18.67V22.17h23.19
			v-6.59h-35.64V71.91z M158.96,44.34c-6.22-5.99-13.58-7.19-18.67-10.79c-3.96-3-3.39-7.19-1.7-9.59c4.53-5.39,13.58-3,15.84-2.4
			c2.83,0.6,3.96,1.2,6.79,3v-7.19c-11.31-3.6-28.85-6.59-35.64,5.39c-2.26,4.79-3.39,13.18,4.53,18.58
			c7.35,5.99,20.36,8.99,21.5,14.38c1.13,3,0,5.39-1.7,7.19c-6.79,6.59-17.54,2.4-24.32-0.6v7.19c7.35,3.6,16.97,4.19,24.89,2.4
			c5.66-1.2,11.88-6.59,13.01-13.18C164.05,52.13,162.92,47.94,158.96,44.34L158.96,44.34z M85.42,71.91h35.64v-7.19H97.86V46.14
			h18.67v-6.59H97.86V22.17h23.19v-6.59H85.42V71.91z M192.33,14.98h-23.19v57.53h11.88V51.53c0,0,18.67,1.2,24.32-6.59
			c3.96-4.79,4.53-13.18,2.83-19.18C205.34,17.98,199.12,14.98,192.33,14.98L192.33,14.98z M194.6,40.75c-3.39,3.6-9.05,3.6-13.58,3
			V22.17c0,0,10.18-2.4,14.14,3.6C197.42,28.76,197.42,36.55,194.6,40.75L194.6,40.75z M248.9,44.34
			c3.96-4.79,4.53-12.58,2.83-19.18c-2.26-6.59-8.49-10.19-15.27-10.19h-23.19v56.93h11.88V50.93h5.66l12.45,20.97h13.58
			l-13.58-23.37C244.94,47.34,247.77,46.14,248.9,44.34L248.9,44.34z M239.28,40.75c-3.39,3.6-9.05,3-13.58,3V22.77
			c0,0,9.62-2.4,14.14,3.6C241.55,29.36,242.11,36.55,239.28,40.75L239.28,40.75z M445.19,59.32c-3.96,0-6.79,3-6.79,7.19
			s3.39,7.19,6.79,7.19c3.39,0,6.79-3,6.79-7.19S448.59,59.32,445.19,59.32z M445.19,72.51c-3.39,0-6.22-3-6.22-6.59
			c0-3.6,2.83-6.59,6.22-6.59c3.39,0,6.22,3,6.22,6.59C450.85,70.11,448.02,72.51,445.19,72.51z M446.89,66.51
			c0,0,1.13-0.6,1.13-1.8c0-1.2-1.13-2.4-2.26-2.4h-3.39v7.79h1.13v-3h2.26c1.13,0,1.7,0.6,1.7,1.8v1.2h1.13
			c-0.57-0.6-0.57-1.2-0.57-2.4C448.02,66.51,447.46,66.51,446.89,66.51L446.89,66.51z M445.19,65.91h-2.26v-2.4h2.26
			c0.57,0,1.13,0,1.13,1.2C446.89,65.31,446.33,65.91,445.19,65.91z"/>
	</g>
</g>
</svg>
