<?xml version="1.0" encoding="utf-8"?>
<!-- Generator: Adobe Illustrator 23.0.1, SVG Export Plug-In . SVG Version: 6.00 Build 0)  -->
<svg version="1.1" id="Layer_1" xmlns="http://www.w3.org/2000/svg" xmlns:xlink="http://www.w3.org/1999/xlink" height="40px"
	 viewBox="0 0 97.88 196.95" style="enable-background:new 0 0 97.88 196.95;" xml:space="preserve">
<path d="M68.63,14.09C73.36,9.33,78.02,4.63,82.62,0c5.09,5.1,10.11,10.12,15.26,15.28c-2.38,2.35-4.88,4.81-7.38,7.27
	c-2,1.98-3.98,3.99-6.01,5.95c-0.59,0.57-0.59,0.99-0.2,1.7c7.71,14.05,8.34,28.44,1.12,42.76C78.59,86.47,67.4,94.72,52.42,97.14
	c-15.3,2.47-28.68-2.02-39.52-13.09C-3.44,67.37-4.37,41.43,10.75,23.64C20.97,11.62,34.24,6.41,49.96,7.8
	c6.4,0.57,12.38,2.64,17.93,5.9C68.1,13.82,68.31,13.92,68.63,14.09z M69.92,52.59C69.89,39.02,58.78,27.92,45.2,27.91
	C31.63,27.9,20.41,39.16,20.47,52.73c0.06,13.61,11.14,24.63,24.76,24.62C58.91,77.35,69.94,66.28,69.92,52.59z"/>
<path d="M88.77,196.95c-7.44,0-14.72,0-22.17,0c0-0.58,0-1.11,0-1.64c0-14.27,0.13-28.53-0.04-42.8c-0.11-8.71-3.65-15.81-11.57-20
	c-11.09-5.86-26.19-1.11-30.22,13.62c-0.63,2.31-0.88,4.79-0.89,7.19c-0.08,14.07-0.04,28.14-0.04,42.21c0,0.43,0,0.85,0,1.38
	c-7.39,0-14.7,0-22.08,0c-0.03-0.28-0.09-0.54-0.09-0.8c0.01-15.28-0.21-30.57,0.13-45.85c0.23-10.6,4.2-19.99,11.3-27.95
	c7.09-7.95,15.98-12.54,26.52-14.03c18.26-2.57,36.83,7.54,44.61,24.25c3.08,6.61,4.58,13.53,4.57,20.81
	c-0.03,14.15-0.01,28.3-0.01,42.44C88.77,196.13,88.77,196.48,88.77,196.95z"/>
</svg>
