<?xml version="1.0" encoding="utf-8"?>
<!-- Generator: Adobe Illustrator 23.0.1, SVG Export Plug-In . SVG Version: 6.00 Build 0)  -->
<svg version="1.1" id="Layer_1" xmlns="http://www.w3.org/2000/svg" xmlns:xlink="http://www.w3.org/1999/xlink" height="30px"
	 viewBox="0 0 208.79 82.52" style="enable-background:new 0 0 208.79 82.52;" xml:space="preserve">
<style type="text/css">
	.st0{fill:#4D4D4D;}
	.st1{fill:#333333;}
</style>
<g>
	<path d="M208.79,78.64c-0.09,0.14-0.21,0.27-0.28,0.42c-0.63,1.38-1.68,2.13-3.21,2.13c-4.98,0-9.96,0.04-14.94-0.01
		c-3.18-0.03-6.25-0.61-8.89-2.58c-2.38-1.78-3.71-4.15-3.72-7.16c-0.02-11.13,0-22.25-0.01-33.38c0-1.89,0.34-3.69,1.43-5.27
		c1.39-2.02,3.37-3.15,5.76-3.5c1.16-0.17,2.36-0.16,3.54-0.17c5.52-0.03,11.04-0.05,16.56-0.06c1.84,0,3.08,0.97,3.44,2.67
		c0.47,2.19-1.13,3.99-3.57,3.99c-4.98,0.01-9.96,0-14.94,0c-1.02,0-2.05-0.04-3.07,0.02c-1.39,0.08-2.1,0.82-2.25,2.21
		c-0.01,0.12-0.02,0.24-0.02,0.36c0,3.85,0,7.7,0,11.55c0,0.14,0.02,0.27,0.04,0.48c0.26,0,0.5,0,0.74,0c6.43,0,12.86,0,19.29,0
		c1.94,0,3.42,1.49,3.43,3.44c0.01,1.99-1.47,3.5-3.43,3.5c-6.41,0-12.82,0-19.23,0c-0.24,0-0.48,0-0.84,0c0,0.26,0,0.49,0,0.72
		c0,4.19,0,8.39,0,12.58c0,2.15,0.79,3.13,2.92,3.52c0.83,0.15,1.68,0.24,2.52,0.24c4.98,0.02,9.96,0.01,14.94,0.01
		c1.96,0,2.86,0.6,3.6,2.4c0.03,0.08,0.12,0.14,0.18,0.21C208.79,77.52,208.79,78.08,208.79,78.64z"/>
	<path d="M64.49,82.52c-0.17-0.07-0.34-0.17-0.51-0.19c-4.68-0.43-9.13-1.69-13.31-3.83c-5.9-3.02-10.61-7.35-14.01-13.06
		c-0.45-0.76-0.3-1.04,0.56-1.08c0.3-0.01,0.6-0.04,0.9-0.11c1.8-0.41,3.61-0.08,5.42-0.08c0.3,0,0.6,0.6,0.92,0.94
		c-1.11,0.09-2.07,0.11-3.01,0.26c-0.88,0.15-1.08,0.55-0.75,1.38c0.22,0.56,0.54,1.08,0.8,1.62c0.28,0.58,0.73,0.86,1.38,0.91
		c0.19,0.02,0.39,0.21,0.54,0.36c0.38,0.39,0.69,0.85,1.1,1.2c0.67,0.57,1.47,0.57,2.29,0.34c0.63-0.18,1.32-0.61,1.88-0.48
		c0.57,0.13,1,0.82,1.49,1.26c3.93,3.44,8.46,5.68,13.58,6.7c6.28,1.25,12.32,0.46,18.15-2.16c3.06-1.38,5.81-3.19,8.07-5.69
		c1.37-1.51,2.54-3.16,3.5-4.96c0.19-0.35,0.45-0.66,0.72-0.96c0.38-0.42,0.84-0.53,1.37-0.28c0.52,0.25,0.88,0.64,0.77,1.23
		c-0.08,0.48-0.23,0.98-0.46,1.41c-1.21,2.36-2.75,4.48-4.66,6.33c-2.67,2.6-5.79,4.51-9.21,5.96c-3.56,1.51-7.27,2.45-11.13,2.79
		c-0.16,0.01-0.3,0.12-0.45,0.19C68.44,82.52,66.46,82.52,64.49,82.52z"/>
	<path d="M133.09,47.58c0,4.88,0.01,9.76,0,14.63c-0.01,3.82-0.72,7.5-2.38,10.94c-2.75,5.7-7.36,8.62-13.66,8.82
		c-4.1,0.13-7.79-1.1-10.95-3.72c-2.85-2.36-4.68-5.43-5.47-9.03c-1.01-4.62-1.88-9.27-2.77-13.91c-0.65-3.38-1.39-6.73-2.83-9.89
		c-1.01-2.23-2.28-4.29-3.94-6.1c-4.02-4.36-9.08-6.74-14.83-7.81c-3.74-0.7-7.48-0.79-11.21,0.12c-3.79,0.93-7.21,2.63-10.18,5.16
		c-1.34,1.14-2.52,2.48-3.77,3.72c-0.2,0.2-0.42,0.37-0.64,0.54c-0.49,0.37-1,0.4-1.51,0.03c-0.56-0.4-0.82-0.94-0.51-1.52
		c0.39-0.74,0.88-1.44,1.43-2.06c4.95-5.6,11.29-8.43,18.63-9.22c5.29-0.57,10.51-0.07,15.58,1.49c3.65,1.13,6.98,2.98,9.99,5.36
		c5.16,4.08,7.95,9.58,9.41,15.87c1.21,5.23,2.42,10.47,3.67,15.69c0.49,2.05,1.23,4,2.76,5.55c1.67,1.69,3.76,2.45,6.07,2.62
		c2.2,0.17,4.3-0.22,6.09-1.61c1.32-1.03,2.14-2.45,2.73-3.99c0.91-2.37,1.32-4.85,1.32-7.39c0.01-10.02,0-20.04,0.01-30.06
		c0-1.41,0.63-2.48,1.87-3.14c1.21-0.65,2.42-0.57,3.54,0.2c1.06,0.72,1.56,1.76,1.56,3.03C133.09,37.14,133.09,42.36,133.09,47.58z
		"/>
	<path class="st0" d="M74.69,76.19c6.03-1.57,10.91-4.78,14.45-9.9c-0.06-0.06-0.12-0.12-0.18-0.18c-0.92,1.11-1.85,2.22-2.77,3.33
		c-0.03-0.02-0.06-0.04-0.08-0.06c0.08-0.13,0.17-0.26,0.26-0.4c-0.07-0.04-0.12-0.11-0.16-0.1c-0.15,0.05-0.3,0.1-0.43,0.19
		c-1.45,1.01-2.95,1.96-4.34,3.06c-2.46,1.96-5.26,3.1-8.34,3.55c-3.77,0.56-7.55,0.86-11.2-0.68c-0.22-0.09-0.43-0.19-0.62-0.37
		c0.26,0.07,0.53,0.15,0.79,0.21c0.27,0.06,0.54,0.11,0.81,0.17c0.02-0.05,0.04-0.11,0.06-0.16c-0.91-0.36-1.82-0.71-2.72-1.07
		c0.01-0.03,0.01-0.07,0.02-0.1c0.75,0.04,1.51,0.08,2.26,0.12c0.01-0.06,0.03-0.12,0.04-0.18c-2.55-0.43-5.03-1.02-6.99-2.86
		c0.09-0.09,0.16-0.15,0.22-0.21c-0.77-0.58-1.52-1.12-2.24-1.7c-0.12-0.09-0.12-0.33-0.11-0.52c5.46,4.11,11.36,3.83,17.43,1.97
		c-0.89,0-1.77,0.03-2.66-0.01c-0.7-0.03-1.41-0.1-2.09-0.25c-0.33-0.07-0.59-0.39-0.89-0.59c-0.13-0.09-0.26-0.17-0.41-0.23
		c-0.64-0.24-1.28-0.48-1.81-0.67c-0.11-0.32-0.2-0.55-0.29-0.81c0.24-0.33,0.49-0.24,0.82,0.02c1,0.82,2.17,1.21,3.45,1.29
		c1.09,0.07,1.34-0.13,1.65-1.15c0.05-0.17,0.34-0.29,0.54-0.37c0.71-0.3,0.88-0.7,0.51-1.39c3.5-0.91,6.74-2.32,9.41-4.88
		c-0.34,0.06-0.67,0.14-1.01,0.16c-0.49,0.02-0.66-0.25-0.34-0.62c0.47-0.55,0.99-1.06,1.55-1.52c2.29-1.87,4.2-4.05,5.41-6.79
		c0.05-0.11,0.1-0.22,0.14-0.33c0.02-0.05,0.03-0.12,0.05-0.22c-2.02-0.28-4.01-0.34-5.97,0.24c-1.73,0.51-3.45,1.08-5.18,1.59
		c-0.45,0.13-0.93,0.16-1.4,0.23c-0.04-0.07-0.08-0.14-0.12-0.21c0.16-0.16,0.29-0.39,0.48-0.48c0.76-0.35,1.52-0.73,2.32-0.98
		c1.75-0.56,3.44-1.3,5.34-1.32c0.98-0.01,1.95-0.27,2.8-0.83c0.12-0.08,0.23-0.19,0.48-0.38c-2.31-0.46-4.37,0.42-6.51,0.54
		c0.1-0.25,0.18-0.45,0.23-0.56c-0.12-0.4-0.77,0.22-0.64-0.56c-1.85,0.9-3.76,0.61-5.68,0.44c1.37-1.24,3.07-1.66,4.83-2.12
		c-0.03,0.18-0.04,0.29-0.08,0.51c1.72-0.36,3.39-0.7,5.06-1.05c0-0.02,0-0.04,0.01-0.05c-0.32,0-0.63,0-0.95,0
		c0-0.02,0-0.04,0-0.06c0.7-0.2,1.4-0.4,2.2-0.63c-1.7-0.88-3.25-0.28-4.76,0.02c-5.07,1.01-9.91,2.74-14.58,4.93
		c-0.43,0.2-0.67,0.14-0.93-0.24c-1.7-2.47-4.1-4.19-6.42-5.99c-0.94-0.73-2-1.18-3.23-1.33c0.95-1.58,2.06-2.96,3.32-4.22
		c3.9-3.91,8.91-5.36,14.13-5.98c5.91-0.7,11.24,1.08,15.78,4.94c3.74,3.17,6.12,7.22,7.08,12.06c0.72,3.62,0.46,7.17-0.65,10.72
		c-0.74,2.38-1.73,4.58-3.25,6.53c-3.31,4.26-7.6,7.07-12.8,8.49c-0.33,0.09-0.67,0.12-1.01,0.18
		C74.74,76.32,74.71,76.25,74.69,76.19z"/>
	<path d="M149.85,81.25c-3.18,0-6.37,0.01-9.55,0c-2.2-0.01-3.74-1.58-3.66-3.69c0.06-1.66,1.49-3.15,3.14-3.28
		c0.3-0.02,0.6-0.02,0.91-0.02c5.95,0,11.89,0.01,17.84-0.01c1.82-0.01,3.58-0.35,5-1.6c0.58-0.51,1.11-1.13,1.49-1.8
		c1.21-2.16,1.6-4.5,1.14-6.94c-0.55-2.91-2.45-4.6-5.18-5.36c-1.26-0.35-2.61-0.47-3.92-0.54c-2.23-0.13-4.49,0.05-6.69-0.25
		c-5.4-0.73-9.13-3.75-11.12-8.82c-1.47-3.74-1.6-7.55-0.17-11.33c1.7-4.51,5.16-7.06,9.72-8.21c1.18-0.3,2.42-0.45,3.64-0.47
		c4.07-0.06,8.14-0.04,12.21-0.02c2.49,0.01,4.11,2.15,3.46,4.52c-0.34,1.26-1.62,2.32-2.93,2.44c-0.32,0.03-0.64,0.04-0.97,0.04
		c-3.95,0-7.9-0.01-11.85,0.01c-1.66,0.01-3.22,0.48-4.61,1.4c-1.82,1.21-2.5,3.04-2.63,5.11c-0.13,2.18,0.41,4.2,1.71,5.97
		c1.23,1.66,3,2.42,5,2.52c1.95,0.1,3.91,0.07,5.86,0.09c2.74,0.02,5.36,0.6,7.8,1.83c5.07,2.56,7.6,6.77,7.82,12.39
		c0.14,3.51-0.72,6.79-2.63,9.75c-2.36,3.65-5.79,5.64-10.06,6.11c-1.89,0.21-3.82,0.15-5.73,0.17
		C153.19,81.27,151.52,81.25,149.85,81.25z"/>
	<path class="st1" d="M24.14,68.79c0.14-0.12,0.29-0.23,0.43-0.36c1.21-1.19,2.69-1.73,4.37-1.76c0.75-0.02,1.49-0.01,2.24-0.05
		c1.36-0.07,2.41-0.72,3.18-1.83c0.29-0.41,0.57-0.81,0.87-1.23c0.51,0.22,0.6,0.54,0.36,0.98c-0.27,0.5-0.47,1.03-0.8,1.48
		c-0.26,0.35-0.65,0.62-1.01,0.88c-0.29,0.21-0.66,0.32-0.94,0.54c-0.8,0.61-1.69,0.67-2.64,0.51c-0.53-0.09-1.08-0.15-1.62-0.19
		c-0.66-0.05-1.19,0.23-1.7,0.65c-0.54,0.44-1.13,0.84-1.76,1.13c-0.32,0.15-0.78,0.11-1.16,0.04c-0.56-0.11-1.04-0.03-1.28,0.5
		c-0.81,1.78-1.89,1.58-3.53,1.13c0.21-0.61,0.41-1.22,0.62-1.83c0.02-0.05,0.07-0.12,0.12-0.13c1.26-0.25,1.64-1.66,2.78-2.1
		c0.62-0.24,0.86-0.91,1.07-1.54c0.4-1.25,0.5-1.2,1.78-1.39c0.73-0.11,1.43-0.57,2.09-0.95c0.15-0.08,0.22-0.55,0.13-0.75
		c-0.52-1.23-0.77-2.49-0.72-3.82c0.02-0.47-0.21-0.53-0.61-0.42c-1.31,0.34-2.61,0.44-3.89-0.17c-2.51-1.19-3.17-4.27-1.3-6.32
		c0.74-0.81,1.64-1.49,2.43-2.26c0.22-0.21,0.31-0.55,0.46-0.83c-0.31-0.14-0.63-0.4-0.94-0.38c-1.39,0.07-2.43-0.46-3.14-1.64
		c-0.46-0.77-0.57-1.58-0.07-2.48c0.21,0.13,0.42,0.23,0.6,0.37c0.78,0.61,1.68,0.91,2.65,1.09c0.61,0.11,1.22,0.3,1.77,0.57
		c1.15,0.57,1.52,1.96,0.82,3.03c-0.31,0.48-0.75,0.89-1.18,1.28c-0.64,0.61-1.35,1.15-1.98,1.77c-0.95,0.93-1.2,2.31-0.64,3.32
		c0.6,1.09,1.8,1.58,3.17,1.28c1.34-0.3,2.5-0.99,3.58-1.81c1.2-0.92,2.37-1.89,3.93-2.14c0.56-0.09,1.12-0.11,1.68-0.2
		c1.06-0.19,1.96-0.7,2.71-1.47c1.06-1.1,2.32-1.66,3.88-1.64c0.45,0.01,1.02-0.31,1.35-0.66c0.99-1.06,2.2-1.63,3.54-2.08
		c1.11-0.38,2.24-0.83,3.22-1.47c1.93-1.27,3.81-1.19,5.56,0.13c2.76,2.09,5.42,4.3,7.46,7.18c0.96,1.36,1.44,2.81,1.72,4.43
		c0.3,1.75,0.9,3.45,1.38,5.18c0.04,0.15,0.13,0.3,0.22,0.42c0.56,0.75,1.09,1.53,1.7,2.24c0.45,0.52,1.02,0.95,1.53,1.41
		c0.12,0.11,0.26,0.19,0.39,0.28c-0.02,0.09-0.05,0.17-0.07,0.26c-0.49-0.07-1.01-0.05-1.46-0.22c-0.8-0.3-1.35-0.92-1.77-1.66
		c-0.43-0.76-0.9-1.47-1.92-1.86c0.12,0.24,0.18,0.37,0.24,0.49c0.34,0.62,0.79,1.2,1,1.85c0.33,1.02,1.04,1.59,1.9,2.08
		c0.27,0.15,0.53,0.31,0.8,0.47c-0.01,0.06-0.02,0.12-0.03,0.18c-0.15,0.03-0.31,0.1-0.46,0.1c-1.29-0.01-2.39-0.46-3.32-1.36
		c-0.74-0.73-0.75-0.73-1.57-0.08c-0.61,0.48-1.25,0.68-2.06,0.63c-0.76-0.04-1.54,0.16-2.3,0.31c-0.59,0.12-1.15,0.41-1.74,0.46
		c-0.39,0.04-1-0.08-1.17-0.34c-0.3-0.48-0.48-1.12-0.13-1.71c0.15-0.25,0.32-0.49,0.55-0.84c-0.36,0-0.59,0-1.03,0
		c0.21-0.42,0.3-0.89,0.58-1.09c0.95-0.69,1.06-1.84,1.64-2.82c-0.82,0.14-1.63,0.27-2.45,0.42c-0.41,0.07-0.82,0.22-1.23,0.24
		c-0.59,0.02-0.69-0.17-0.38-0.68c0.53-0.87,0.77-1.82,0.68-2.83c-0.02-0.21-0.22-0.4-0.34-0.6c-0.11,0.19-0.27,0.37-0.33,0.57
		c-0.16,0.58-0.25,1.18-0.41,1.76c-0.23,0.85-0.79,1.29-1.66,1.43c-1.05,0.16-1.14,0.4-0.63,1.3c0.36,0.65,0.68,1.33,1.1,1.94
		c0.49,0.71,0.49,1.42,0.24,2.18c-0.07,0.22-0.13,0.45-0.21,0.72c0.95-0.41,1.49-1.69,1.09-2.53c-0.36-0.76-0.76-1.51-1.14-2.26
		c-0.09-0.18-0.16-0.36-0.24-0.54c0.77-0.36,1.28-0.16,1.59,0.53c0.28,0.62,0.61,1.22,0.95,1.81c0.32,0.56,0.41,1.13,0.11,1.72
		c-0.13,0.25-0.29,0.49-0.4,0.74c-0.43,1-1.15,1.52-2.27,1.4c-0.15-0.02-0.31,0.06-0.46,0.12c-1.16,0.44-2.32,0.92-3.49,1.33
		c-1.16,0.41-1.94,0.11-2.53-0.96c-0.32-0.58-0.63-1.07-1.42-0.92c-0.13,0.03-0.35-0.11-0.44-0.24c-0.31-0.47-0.61-0.95-0.87-1.45
		c-0.2-0.36-0.08-0.63,0.35-0.68c0.5-0.07,1-0.16,1.5-0.16c0.53-0.01,0.97,0.21,1.26,0.69c0.25,0.41,0.5,0.83,0.79,1.22
		c0.55,0.74,0.99,0.87,1.89,0.62c0.1-0.03,0.19-0.05,0.29-0.09c1.67-0.61,1.99-1.48,0.66-2.97c-0.28-0.31-0.66-0.52-1.01-0.75
		c-1.03-0.65-2.04-1.32-2.32-2.64c-0.03-0.13-0.27-0.21-0.42-0.31c-0.06,0.17-0.18,0.34-0.16,0.5c0.17,0.98-0.05,1.29-1.04,1.24
		c-1.89-0.1-3.78-0.2-5.66,0.14c-0.21,0.04-0.44,0.02-0.66,0c-0.9-0.08-1.42-0.58-1.42-1.48c0-0.7,0.11-1.4,0.17-2.1
		c0.03-0.31,0.31-0.75-0.21-0.85c-0.51-0.1-0.46,0.42-0.52,0.72C34.9,60.4,34.79,61,34.73,61.6c-0.2,1.92-1.28,3.16-3.05,3.73
		c-0.92,0.3-1.93,0.4-2.9,0.48c-1.68,0.14-3.23,0.5-4.35,1.89c-0.22,0.28-0.35,0.63-0.53,0.94C23.98,68.68,24.06,68.74,24.14,68.79z
		"/>
	<path d="M7.05,50.32c4.75,0,9.42,0,14.28,0c-2.38,2.04-2.55,4.39-1.37,7.02c-4.29,0-8.55,0-12.92,0c0,0.28,0,0.51,0,0.74
		c0,6.69,0,13.38,0,20.07c0,2.1-1.58,3.71-3.6,3.65c-1.3-0.04-2.29-0.67-2.94-1.8C0.16,79.4,0,78.78,0,78.06
		c0.02-15.28,0.02-30.55,0-45.83c0-1.8,1.67-3.56,3.52-3.57c1.9-0.01,3.51,1.59,3.52,3.56c0.01,4.13,0,8.26,0,12.39
		C7.05,46.49,7.05,48.37,7.05,50.32z"/>
	<path d="M67.11,11.5c0.32,0.18,0.57,0.33,0.84,0.47c3.89,2,3.71,7.09,1.31,9.5c-1.36,1.36-2.98,2.14-4.9,2.16
		c-3.2,0.04-6.41,0.01-9.61,0.01c-0.1,0-0.2-0.02-0.34-0.04c0-7.35,0-14.69,0-22.03c0.04-0.02,0.07-0.06,0.1-0.06
		c3.08,0.03,6.16-0.04,9.24,0.13c3.08,0.16,5.01,2.14,5.27,5.19C69.17,8.64,68.45,10.16,67.11,11.5z M59.1,19.79
		c1.3,0,2.53,0,3.75,0c0.28,0,0.57-0.01,0.84-0.05c1.1-0.18,1.9-0.75,2.26-1.84c0.66-2.01-0.64-3.83-2.76-3.86
		c-0.88-0.01-1.76,0-2.65,0c0-1.36,0-2.64,0-3.98c0.57,0,1.11,0.02,1.64,0c1.19-0.06,2.14-0.99,2.22-2.15
		c0.09-1.23-0.68-2.37-1.87-2.5c-1.13-0.12-2.27-0.03-3.44-0.03C59.1,10.17,59.1,14.94,59.1,19.79z"/>
	<path d="M0.06,1.39c0.23-0.01,0.42-0.03,0.62-0.03c2.68,0,5.36-0.02,8.04,0c4.87,0.04,8.04,5.11,5.92,9.44
		c-0.89,1.82-2.39,2.95-4.42,3.54c2.16,3.08,4.29,6.12,6.5,9.27c-0.64,0-1.17,0-1.7,0c-1.13,0-2.26,0.02-3.39-0.02
		c-0.25-0.01-0.59-0.17-0.72-0.37c-1.44-2.16-2.84-4.35-4.25-6.53c-0.1-0.15-0.22-0.32-0.22-0.48c-0.02-1.71-0.01-3.42-0.01-5.2
		c0.41,0,0.77,0.01,1.13,0c1.77-0.04,3.15-1.34,3.13-2.94C10.67,6.4,9.29,5.17,7.47,5.2c-0.86,0.01-1.72,0-2.66,0
		c0,6.17,0,12.26,0,18.39c-1.62,0-3.16,0-4.75,0C0.06,16.2,0.06,8.81,0.06,1.39z"/>
	<path d="M48.23,23.61c-1.45,0-2.88,0-4.38,0c0-0.53,0-1.04,0-1.45c-0.99,0.49-1.91,1.13-2.92,1.4c-2.48,0.66-4.62-0.09-6.33-1.98
		c-2.73-3.02-2.46-7.99,0.55-10.68c2.35-2.11,5.65-2.22,8.14-0.27c0.15,0.12,0.3,0.24,0.54,0.43c0-3.69,0-7.29,0-10.94
		c1.49,0,2.93,0,4.41,0C48.23,7.92,48.23,15.73,48.23,23.61z M37.37,16.67c0,1.84,1.23,3.33,2.89,3.54
		c1.67,0.21,3.21-1.02,3.56-2.82c0.36-1.89-0.7-3.75-2.39-4.2C39.33,12.62,37.37,14.3,37.37,16.67z"/>
	<path d="M153.6,11.87c0-3.33,0-6.65,0-9.98c0-1.17,0.48-1.65,1.64-1.65c3.65,0,7.3,0,10.95,0c4.53,0,8.06,2.88,8.95,7.34
		c0.64,3.23,0.59,6.46-0.4,9.61c-1.21,3.86-4.84,6.47-8.9,6.48c-3.55,0.01-7.1,0-10.64,0c-1.1,0-1.59-0.49-1.59-1.58
		C153.6,18.69,153.6,15.28,153.6,11.87z M156.36,20.92c0.13,0.02,0.22,0.04,0.32,0.04c3.06,0,6.13,0.05,9.19-0.01
		c3.28-0.07,5.79-2.16,6.49-5.31c0.52-2.33,0.59-4.67,0.2-7.02c-0.6-3.69-2.95-5.68-6.71-5.68c-2.94,0-5.89,0-8.83,0
		c-0.21,0-0.43,0-0.67,0C156.36,8.99,156.36,14.94,156.36,20.92z"/>
	<path d="M109.64,4.71c0,0.4,0,0.61,0,0.83c0,5.5,0,11,0,16.51c0,0.2,0.01,0.4-0.01,0.6c-0.07,0.69-0.6,1.19-1.27,1.23
		c-0.62,0.04-1.21-0.41-1.37-1.05c-0.04-0.17-0.06-0.36-0.06-0.54c0-6.89-0.01-13.79,0.01-20.68c0-0.31,0.05-0.68,0.22-0.91
		c0.53-0.73,1.27-1.04,2.13-0.18c2.58,2.58,5.16,5.16,7.74,7.74c0.24,0.24,0.51,0.47,0.72,0.73c0.32,0.39,0.56,0.36,0.92,0
		c2.68-2.71,5.38-5.39,8.07-8.09c0.13-0.13,0.25-0.27,0.39-0.38c0.42-0.3,0.87-0.41,1.37-0.2c0.51,0.21,0.78,0.61,0.84,1.15
		c0.02,0.16,0.01,0.32,0.01,0.48c0,6.73,0,13.46,0,20.19c0,0.57-0.07,1.08-0.57,1.44c-0.81,0.58-1.86,0.2-2.09-0.77
		c-0.06-0.23-0.06-0.48-0.06-0.72c0-5.46,0-10.92,0-16.39c0-0.22,0-0.44,0-0.81c-0.26,0.22-0.45,0.34-0.61,0.5
		c-2.2,2.19-4.39,4.39-6.59,6.58c-0.94,0.94-1.53,0.94-2.46,0.01c-2.25-2.25-4.5-4.5-6.76-6.75C110.09,5.11,109.93,4.97,109.64,4.71
		z"/>
	<path d="M33.21,50.33c0-0.34,0-0.6,0-0.86c0-5.7,0-11.4,0-17.1c0-1.92,1.18-3.34,3.02-3.65c1.9-0.32,3.93,1.24,3.95,3.16
		c0.04,5.6,0.02,11.2,0.02,16.85c-0.14,0.05-0.28,0.13-0.43,0.14c-1.19,0.03-2.12,0.63-2.9,1.43c-1.02,1.06-2.22,1.59-3.69,1.65
		c-1.83,0.08-3.28,1.09-4.71,2.11c-0.85,0.6-1.73,1.16-2.64,1.67c-0.35,0.2-0.8,0.27-1.21,0.31c-0.76,0.07-1.39-0.18-1.77-0.89
		c-0.38-0.71-0.24-1.42,0.23-1.97c0.57-0.66,1.28-1.2,1.93-1.8c0.06-0.05,0.15-0.08,0.19-0.15c0.62-0.88,1.5-0.96,2.49-0.93
		C29.49,50.38,31.31,50.33,33.21,50.33z"/>
	<path d="M135.51,10.04c0.31,0,0.55,0,0.79,0c4.17,0,8.34,0,12.52,0c0.99,0,1.58,0.5,1.59,1.34c0,0.83-0.6,1.36-1.57,1.36
		c-4.19,0-8.38,0-12.58,0c-0.22,0-0.44,0-0.75,0c0,0.26,0,0.47,0,0.68c0,2.06,0,4.11,0,6.17c0,1.11,0.21,1.35,1.34,1.35
		c4.05,0.01,8.1-0.01,12.15,0.02c0.41,0,0.86,0.18,1.2,0.41c0.45,0.31,0.55,0.82,0.36,1.35c-0.19,0.56-0.6,0.84-1.16,0.91
		c-0.26,0.03-0.52,0.01-0.79,0.01c-3.97,0-7.94,0-11.91,0c-2.37,0-3.91-1.5-3.91-3.87c-0.01-5.18-0.01-10.36,0-15.54
		c0-2.34,1.65-3.97,4.01-3.97c4.05-0.01,8.1-0.01,12.15,0.01c0.36,0,0.78,0.09,1.08,0.28c0.49,0.32,0.69,0.83,0.52,1.42
		c-0.16,0.56-0.7,0.97-1.31,0.98c-1.23,0.01-2.46,0-3.69,0c-2.74,0-5.48,0-8.22,0c-0.34,0-0.68,0.03-1.02,0.09
		c-0.5,0.08-0.79,0.41-0.8,0.92C135.51,5.96,135.51,7.95,135.51,10.04z"/>
	<path d="M72.51,10.05c1.5,0,2.93,0,4.43,0c0,0.24,0,0.45,0,0.67c0,2.38,0,4.76,0,7.13c0,1.51,1.04,2.59,2.5,2.6
		c1.49,0.01,2.57-1.07,2.58-2.59c0-2.58,0-5.15,0-7.78c1.45,0,2.86,0,4.37,0c0,0.2,0,0.41,0,0.62c0,2.52-0.06,5.04,0.02,7.56
		c0.08,2.55-1.13,4.25-3.32,5.25c-3.04,1.38-6,1.15-8.7-0.92c-1.27-0.97-1.89-2.32-1.88-3.94c0.01-2.64,0-5.28,0-7.92
		C72.51,10.53,72.51,10.33,72.51,10.05z"/>
	<path d="M195.79,4.44c-0.47,0.88-0.89,1.65-1.3,2.43c-2.63,5.04-5.26,10.08-7.89,15.13c-0.15,0.28-0.3,0.57-0.46,0.84
		c-0.38,0.66-1.1,0.89-1.76,0.57c-0.67-0.33-0.95-1.1-0.6-1.79c1.26-2.47,2.55-4.93,3.83-7.39c1.24-2.37,2.48-4.73,3.72-7.1
		c1.09-2.08,2.19-4.16,3.28-6.25c0.27-0.52,0.71-0.78,1.27-0.76c0.54,0.02,0.92,0.33,1.18,0.82c1.91,3.65,3.82,7.3,5.73,10.95
		c1.7,3.24,3.4,6.48,5.09,9.72c0.41,0.78,0.34,1.31-0.19,1.8c-0.51,0.48-1.23,0.5-1.74,0.02c-0.19-0.18-0.35-0.39-0.47-0.62
		c-2.14-4.08-4.26-8.16-6.39-12.24c-1.01-1.92-2.02-3.84-3.03-5.76C195.98,4.73,195.91,4.64,195.79,4.44z"/>
	<path d="M88.89,0.28c1.46,0,2.88,0,4.35,0c0,7.78,0,15.55,0,23.36c-1.43,0-2.87,0-4.35,0C88.89,15.87,88.89,8.11,88.89,0.28z"/>
	<path d="M100.76,23.65c-1.47,0-2.89,0-4.34,0c0-7.8,0-15.57,0-23.37c1.45,0,2.87,0,4.34,0C100.76,8.06,100.76,15.82,100.76,23.65z"
		/>
	<path d="M178.48,11.87c0-3.4,0-6.81,0-10.21c0-0.69,0.35-1.18,0.98-1.36c0.59-0.17,1.09,0.03,1.43,0.51
		c0.16,0.23,0.26,0.56,0.26,0.84c0.01,6.87,0.01,13.74,0.01,20.61c0,0.8-0.6,1.42-1.33,1.42c-0.76,0-1.34-0.62-1.34-1.47
		C178.48,18.76,178.48,15.31,178.48,11.87z"/>
	<path d="M71.45,54.55c-2.16,1.35-4.31,2.69-6.48,4.05c-0.31-0.98-0.31-0.96,0.49-1.35c1.7-0.81,3.4-1.64,5.1-2.46
		c0.27-0.13,0.55-0.22,0.83-0.32C71.41,54.5,71.43,54.52,71.45,54.55z"/>
	<path d="M45.24,65.71c0.66-0.05,1.3-0.11,1.93-0.12c0.13,0,0.32,0.2,0.4,0.36c0.16,0.32,0.27,0.67,0.39,1
		c0.03,0.07,0.07,0.2,0.04,0.22c-0.31,0.2-0.62,0.45-0.97,0.54c-0.22,0.06-0.61-0.03-0.73-0.2C45.92,66.99,45.63,66.38,45.24,65.71z
		"/>
	<path d="M17.1,71.04c0.13-0.67,0.24-1.25,0.36-1.82c0.09-0.44,0.54-0.87,0.84-0.79c0.43,0.13,0.69,0.68,0.54,1.15
		c-0.18,0.57-0.34,1.15-0.54,1.8C17.85,71.25,17.43,71.13,17.1,71.04z"/>
	<path d="M19.64,68.42c-0.17-0.15-0.48-0.29-0.54-0.5c-0.06-0.21,0.07-0.55,0.23-0.72c0.29-0.29,0.65-0.54,1.02-0.72
		c0.17-0.09,0.5-0.05,0.65,0.07c0.12,0.09,0.16,0.44,0.08,0.59C20.79,67.69,20.46,68.25,19.64,68.42z"/>
	<path d="M53.25,62.9c0.72-0.13,1.28-0.24,1.84-0.34c0.04,0.04,0.07,0.08,0.11,0.12c-0.39,0.47-0.78,0.95-1.28,1.56
		C53.67,63.75,53.48,63.36,53.25,62.9z"/>
	<path d="M21.54,17.64c2.58,0,5.16,0,7.73,0c1.34,0,1.36,0,1.33-1.34c-0.05-2.1-0.67-3.96-2.3-5.38c-2.3-1.99-6.03-2.24-8.69-0.59
		c-2.72,1.68-4.08,5-3.32,8.1c1.14,4.61,6,7.09,10.87,4.9c1.29-0.58,2.31-1.51,3.03-2.8c-0.63-0.29-1.21-0.56-1.79-0.82
		c-0.6-0.28-1.19-0.55-1.78-0.82c-1.05,1.52-2.42,2.02-3.93,1.47c-1.22-0.45-1.96-1.5-1.84-2.72
		C21.07,17.64,21.31,17.64,21.54,17.64z M20.8,15.32c0.07-0.92,0.39-1.62,0.95-2.1c0.56-0.48,1.27-0.72,2.12-0.72
		c0.82,0,1.5,0.24,2.06,0.71c0.55,0.47,0.82,1.18,0.8,2.12H20.8z"/>
</g>
</svg>
