<?xml version="1.0" encoding="utf-8"?>
<!-- Generator: Adobe Illustrator 23.0.1, SVG Export Plug-In . SVG Version: 6.00 Build 0)  -->
<svg version="1.1" id="Layer_1" xmlns="http://www.w3.org/2000/svg" xmlns:xlink="http://www.w3.org/1999/xlink" height="70px"
	 viewBox="0 0 882.65 557.99" style="enable-background:new 0 0 882.65 557.99;" xml:space="preserve">
<style type="text/css">
	.st0{fill:#FFFFFF;}
</style>
<path d="M836.73,333.87c4.29,5.82,8.27,11.1,12.12,16.48c1.74,2.43,3.22,5.04,4.83,7.57c15.84,25-2.51,51.77-27.54,54.34
	c-3.47,0.36-6.98,0.57-10.47,0.55c-3.08-0.02-4.27,0.97-4.55,4.3c-0.66,7.94-2.08,15.81-2.79,23.75c-0.14,1.57,1.11,4.19,2.41,4.79
	c3.29,1.49,6.93,2.35,10.52,3.02c6.61,1.22,10.07,5.22,11.47,11.57c0.75,3.38,1.7,6.76,2.98,9.98c0.93,2.34,2.61,3.02,5.16,1.31
	c9.22-6.2,20.92-2.53,25.83,7.66c1.05,2.18,2.94,4.32,4.99,5.56c4.43,2.67,7.45,5.72,7.72,11.32c0.15,3.06,1.76,6.03,2.63,9.07
	c1.67,5.86-0.08,10.17-6.04,10.84c-12.89,1.45-26.47,4.63-38.32-2.9c-6.08-3.86-11.02-7.85-18.9-6.29
	c-2.96,0.59-6.65-1.64-9.78-3.07c-2.7-1.23-5.25-2.94-7.6-4.79c-9.12-7.2-19.49-8.75-30.69-7.42c-19.03,2.27-38.89-12.3-42.12-31.3
	c-0.86-5.05-2.72-6.58-7.68-6.42c-7.98,0.26-16.01-0.71-23.97-0.28c-8.42,0.45-16.77,2.08-25.18,2.9
	c-6.61,0.64-13.26,0.83-19.89,1.18c-0.99,0.05-2.22-0.51-2.95-0.1c-2.04,1.14-3.88,2.63-5.8,3.99c1.47,1.41,2.78,3.74,4.44,4.03
	c3.69,0.64,7.57,0.38,11.36,0.25c2.65-0.09,5.28-0.78,7.93-0.84c8.54-0.2,13.07,6.98,9.2,14.64c-2.93,5.82-7.39,10.14-13.25,13.15
	c-1.65,0.85-3.46,2.72-3.87,4.44c-1.84,7.76-7.29,13.18-15.23,13.24c-5.09,0.04-10.45-0.53-15.22-2.18
	c-9.07-3.13-17.8-7.24-26.68-10.91c-1.37-0.57-2.84-1.33-4.25-1.29c-5.51,0.15-9.92-1.37-13.32-6.14c-2.28-3.2-3.9-0.23-5.26,1.56
	c-10.03,13.24-21.77,24.7-35.38,34.26c-39.11,27.49-82.34,37.51-129.43,29.75c-43.05-7.1-78.29-28.02-105.62-62.05
	c-2.73-3.39-4.6-4.1-7.78-0.85c-1.32,1.35-3.36,2.15-5.22,2.8c-11.07,3.84-22.1,7.83-33.31,11.22c-5.36,1.62-11.05,2.55-16.64,2.87
	c-8.28,0.48-13.57-3.98-16.22-11.94c-0.67-2.01-2.36-3.82-3.95-5.35c-3.58-3.43-7.65-6.38-11.03-9.99
	c-3.45-3.68-5.43-8.18-2.71-13.22c2.85-5.3,8.17-5.15,13.13-5.17c2.62-0.01,5.41,0.43,7.84,1.38c5.66,2.21,9.06-0.75,13.38-5.22
	c-2.8-1.29-4.83-2.88-7.01-3.13c-11.54-1.34-23.1-2.71-34.7-3.37c-11.11-0.63-22.26-0.43-33.4-0.52c-9.4-0.08-9.95-0.13-11.57,8.98
	c-2.19,12.32-22.94,30.67-36.64,28.16c-0.32-0.06-0.68,0.05-1-0.01c-15.93-3.12-29.38,2.39-41.9,11.71
	c-4.9,3.65-10.57,4.42-16.67,3.11c-1.72-0.37-4.31,0.39-5.65,1.58c-7.65,6.8-16.32,9.99-26.6,9.12c-4.96-0.42-10.01,0.09-14.96-0.43
	c-9.82-1.05-12.09-4.81-9.31-14.19c1.13-3.81,1.6-7.87,3.11-11.51c0.92-2.21,2.93-4.36,5.01-5.59c3.37-2,5.91-3.96,7.59-7.94
	c4.01-9.5,15.65-12.65,24.04-6.82c3.53,2.45,5.3,1,6.54-1.89c1.43-3.35,2.47-6.9,3.33-10.45c1.61-6.63,6.11-9.6,12.44-10.5
	c1.32-0.19,2.66-0.22,3.97-0.45c7.68-1.33,8.19-2.49,6.74-10.2c-1.17-6.19-2.09-12.52-2.17-18.8c-0.06-4.65-1.78-5.46-5.89-5.53
	c-9.94-0.19-19.59-1.93-27.89-7.98c-13.73-10.02-18.72-27.92-11.09-43.11c3.99-7.95,9.68-15.05,14.71-22.46
	c1.28-1.88,2.99-3.48,4.46-5.16c-5.34-4-10.59-7.41-15.22-11.52c-9.25-8.22-9.63-18.88-6.91-29.93c1.11-4.49,4.76-5.83,8.43-4.19
	c8.63,3.87,17.36,7.52,26,11.37c3.79,1.69,7.7,3.3,11.14,5.57c10.24,6.76,13.02,20.96,5.64,30.8c-3.95,5.27-9.23,9.53-13.76,14.39
	c-3.95,4.24-8.6,8.21-11.21,13.2c-2.04,3.9-2.41,9.34-1.73,13.83c1.05,6.87,5.59,9.64,12.63,9.35c9.08-0.38,17.24-3.65,24.77-8.48
	c13.74-8.81,27.25-18.03,43.18-22.66c0.16-0.05,0.3-0.15,0.46-0.19c16.48-3.23,30.63-11.57,44.83-20c4.15-2.47,9.41-3.01,14.01-4.82
	c4.77-1.89,9.44-4.07,14-6.44c12.68-6.6,24.74-14.56,39.29-16.85c1.59-0.25,3.04-1.86,4.39-3.03c7.78-6.73,14.94-14.39,25.5-16.92
	c8.4-2.02,16.67-1.41,24.29,2.6c3.45,1.82,5.2,1.31,7.42-1.57c15.51-20.2,35.22-35.34,57.86-46.59
	c27.25-13.54,56.19-19.66,86.64-17.58c51.97,3.56,93.88,26.3,126.2,66.94c1.96,2.46,3.3,2.8,6.12,1.24
	c14.74-8.15,29.86-6.36,42.47,4.7c1.38,1.21,2.89,2.28,4.13,3.62c5.14,5.54,11.41,8.25,18.8,10.22c8.22,2.19,15.96,6.54,23.55,10.61
	c10.14,5.43,20.19,10.64,31.39,13.9c6.67,1.94,12.56,6.69,18.67,10.39c8.21,4.97,17.04,7.89,26.35,10.26
	c16.48,4.21,31.13,12.57,44.56,22.96c8.24,6.37,17.68,9.15,27.91,9.38c6.8,0.15,11.94-5.02,12.11-11.88
	c0.2-8.09-3.76-14.38-9.13-19.87c-4.42-4.52-9.11-8.78-13.74-13.1c-17.11-15.95-7.74-34.15,8.5-41.07
	c6.41-2.74,13.25-4.47,19.81-6.89c2.94-1.09,5.79-2.56,8.47-4.19c5.36-3.26,9.46-1.57,10.89,4.73c3.11,13.63-3.38,27.71-16.23,35.13
	C841.92,331.17,839.7,332.28,836.73,333.87z M430.45,476.19c-2.95-2.77-5.19-4.94-7.49-7.03c-7.21-6.56-13.14-13.98-17.35-22.91
	c-6.4-13.58-8.81-28.2-12.3-42.59c-2.61-10.77-5.32-21.73-9.81-31.79c-7.16-16.05-20.28-27.57-33.91-38.07
	c-16.87-12.98-34.32-25.22-51.55-37.72c-1.74-1.26-3.73-2.2-5.65-3.18c-7.2-3.69-14.28-3.12-20.77,1.44
	c-4.88,3.43-9.22,7.64-14.03,11.19c-3.69,2.72-7.44,6.06-11.68,7.18c-12.6,3.35-23.81,9.24-34.66,16.19
	c-3.74,2.4-7.93,4.86-12.2,5.54c-12.57,2.01-22.96,8.34-33.64,14.57c-5.94,3.46-12.77,5.45-19.31,7.78
	c-6.08,2.16-12.72,3.09-18.38,5.99c-12.13,6.23-23.85,13.28-35.61,20.2c-8.96,5.26-18.39,8.54-28.9,8.04
	c-13.3-0.63-21.75-15.46-15.19-26.98c2.29-4.02,5.1-7.82,8.12-11.33c5.96-6.94,12.58-13.34,18.3-20.47
	c6.59-8.21,5.88-16.32-2.45-22.67c-4.89-3.73-11.07-5.83-16.82-8.32c-5.63-2.44-11.56-4.22-17.16-6.73
	c-4.42-1.99-5.87-1.3-5.91,3.75c-0.1,11.18,6.3,20.29,16.99,23.93c3.3,1.13,6.73,1.87,10.1,2.79c5.63,1.55,6.2,3.55,2.26,7.73
	c-6.05,6.42-12.49,12.52-18,19.38c-18.08,22.51-6.04,43.45,10.37,50.89c7.93,3.59,16.32,2.53,24.49,0.51
	c5.75-1.42,6.58-0.12,6.42,5.78c-0.25,9.41-0.02,18.94,1.28,28.24c1.32,9.49-0.17,12.34-9.99,13.35
	c-12.01,1.23-12.83,2.15-16.02,13.89c-1.02,3.76-2.7,7.6-5.05,10.66c-3.51,4.57-7.75,8.62-11.94,12.63c-2.61,2.5-5.62,4.61-8.6,6.68
	c-2.26,1.57-6.02,10.39-5.04,12.86c0.32,0.79,1.22,1.57,2.04,1.91c6.25,2.61,14.67,0.54,18.13-5.3c3.99-6.74,9.14-8.43,16.39-6.42
	c5.39,1.5,10.23,0.24,14.96-3.26c12.17-9.01,25.5-14.09,41.17-11.17c4.2,0.78,9.41,0.6,13.11-1.24c11.23-5.61,17-15.5,18.43-27.9
	c0.17-1.46-0.23-2.98-0.36-4.47c-2.05,1.15-2.78,2.56-3.7,3.84c-6.5,9.06-12.44,18.97-25.11,20.23c-5.95,0.59-12.02,1.11-17.95,0.64
	c-13.59-1.08-25.19,3.13-35.54,11.64c-1.13,0.93-2.7,1.31-4.07,1.95c-0.42-0.55-0.85-1.11-1.27-1.66c3.42-3.1,6.52-6.65,10.3-9.21
	c11.81-7.97,25.27-9.81,39.15-9.52c14.36,0.3,20.79-3.56,25.66-17.15c3.76-10.48,6.42-21.35,9.78-31.98
	c0.95-3.01,2.66-5.78,4.01-8.67c0.55,0.22,1.09,0.45,1.64,0.67c-0.39,5.09-1.02,10.18-1.11,15.28
	c-0.22,12.33,6.65,20.89,17.65,20.31c19.13-1,37.89,1.63,56.72,4.02c5.43,0.69,6-0.05,4.65-5.25c-0.78-2.99-1.35-5.89,2.9-7.6
	c1.49,2.28,2.94,4.47,4.37,6.67c3.92,6.01,7.84,11.64,15.13,14.59c4.77,1.93,8.82,5.9,12.82,9.38c2.72,2.37,4.67,5.97,2.56,9.4
	c-4.29,6.97-11.44,9.36-19.17,10.07c-5.54,0.51-7.59-3.96-10.02-7.72c-0.72-1.12-1.44-2.24-2.22-3.33
	c-3.37-4.7-14.2-8.22-19.41-5.86c-1.37,0.62-3.08,3.84-2.6,4.64c2.62,4.32,5.12,9.44,9.12,12.01c4.08,2.62,6.92,5.37,8.61,9.68
	c1.8,4.6,5.1,6.82,10.1,6.4c13.08-1.1,25.46-4.25,36.58-11.66c2.33-1.55,5.47-1.85,8.19-2.85c1.79-0.66,4.22-1.03,5.13-2.37
	c6.24-9.13,10.19-20.16,3.14-30.64c-2.6-3.87-5.29-7.7-7.58-11.75c-2.07-3.67-4.72-4.11-7.76-1.84c-3.45,2.59-0.26,4.7,1.07,6.67
	c2.14,3.16,4.84,5.97,6.8,9.23c2.98,4.97,2.24,10.53-1.59,13.98c-0.85-2.41-1.5-4.8-2.52-7.01c-1.12-2.4-2.48-4.72-3.95-6.93
	c-2.3-3.46-4.88-6.75-7.18-10.21c-3.44-5.17-2.45-9.66,2.72-13.21c1.91-1.31,3.89-2.58,5.63-4.1c7.46-6.57,8.84-15.69,10.17-24.81
	c0.72-4.96,0.75-10.19,5.68-15.41c0.91,3.29,1.86,5.3,1.99,7.38c0.73,11.17-1.72,21.86-5.6,32.24c-1.44,3.87-0.69,5.57,3.65,5.65
	c9.24,0.18,17.87-1.49,25.39-7.26c1.85-1.42,3.74-2.82,5.78-3.92c0.83-0.45,2.56-0.5,3.04,0.02c0.58,0.64,0.56,2.18,0.26,3.16
	c-0.32,1.05-1.31,1.89-1.93,2.87c-6.47,10.27-12.99,20.5-19.29,30.88c-0.54,0.89,0.2,3.78,0.8,3.93c5.53,1.39,5.44,5.39,5.29,9.8
	c-0.22,6.37,3.17,9.73,9.49,9.33c2.59-0.16,5.36-0.79,7.64-1.99c8.86-4.67,18.28-5.94,28.09-5.35c5.22,0.31,9.77-0.86,13.64-4.77
	c2.69-2.72,5.59-2.56,8.81,0.13c4.83,4.04,9.94,7.83,15.32,11.09c3.33,2.02,7.25,3.83,12.76,1.63
	c-11.59-9.32-17.15-21.6-22.46-34.28c2.13,0.17,3.94,0.65,5.03,1.81c2.84,3.01,5.37,6.31,8.03,9.49c3.4,4.06,6.45,8.49,10.3,12.06
	C420.17,477.36,424.64,478.27,430.45,476.19z M821.59,488.51c-0.42,0.47-0.83,0.93-1.25,1.4c-1.75-1.31-3.68-2.44-5.22-3.95
	c-5.89-5.76-13.04-8.52-21.11-8.99c-6.48-0.38-13.03-1.13-19.46-0.58c-15.89,1.35-26.12-6.79-34.21-19.07
	c-1.43-2.16-2.76-4.39-4.87-7.76c-0.44,2.56-1.08,3.88-0.78,4.93c1.81,6.17,2.72,13,6.06,18.25c5.47,8.62,13.23,13.77,24.8,11.96
	c14.13-2.21,27.93,0.59,39.24,9.59c6.67,5.31,13.13,6.47,20.8,4.55c4.25-1.06,7.5,0.3,10.02,3.77c1.07,1.48,2.19,2.94,3.32,4.38
	c3.8,4.85,11.55,7.03,17.14,4.73c1.01-0.41,2.69-1.63,2.58-1.97c-1.53-4.54-2.48-9.64-5.28-13.29c-3.53-4.59-8.66-7.93-13.03-11.9
	c-1.58-1.44-3.07-3.04-4.35-4.74c-2.54-3.37-6.4-6.6-7.08-10.37c-2.07-11.54-7.14-18.04-19.86-17.18c-4.63,0.31-8.38-4.58-7.62-8.73
	c2.06-11.16,4.02-22.23,1.59-33.65c-0.78-3.67,1.36-5.31,5.5-4.52c4.71,0.9,9.57,1.18,14.37,1.5c15.26,1.01,25.13-9.84,29.65-22.32
	c4.32-11.91-1.11-22.19-8.62-31.24c-5.2-6.27-11.05-12-16.35-18.2c-1.23-1.44-2.33-4.11-1.8-5.63c0.51-1.45,3.11-2.42,4.97-3.09
	c4.52-1.63,9.38-2.47,13.67-4.53c9.83-4.72,14.57-18.5,9.52-26.53c-10.37,3.95-20.78,7.82-31.1,11.91c-2.28,0.9-4.38,2.42-6.31,3.97
	c-7.41,5.95-8.42,15.55-2.47,22.98c1.66,2.08,3.55,3.98,5.25,6.03c6.82,8.16,13.53,16.42,20.45,24.5
	c6.54,7.64,1.99,22.39-8.52,26.65c-8,3.24-16.02,2.14-23.3-1.31c-10.19-4.83-19.99-10.56-29.68-16.37
	c-9.9-5.93-19.69-12.22-31.26-13.98c-12.52-1.91-22.68-8.08-32.62-15.29c-3.54-2.56-7.9-4.35-12.15-5.5
	c-9.69-2.62-19.07-5.53-27.53-11.34c-4.86-3.34-10.54-5.95-16.22-7.55c-14.59-4.1-27.35-10.98-37.84-21.99
	c-1.58-1.66-3.57-3.04-5.57-4.18c-6.82-3.87-13.71-3.98-20.24,0.59c-17.17,12.05-34.46,23.94-51.3,36.45
	c-12.27,9.11-24.36,18.48-32.78,31.81c-10.79,17.06-15.15,36.2-18.64,55.52c-3.89,21.49-13.31,39.57-29.59,54.1
	c-1.24,1.11-2.28,2.45-4,4.33c6.62,1.49,11.49,0.05,15.13-3.93c4.02-4.39,7.23-9.52,11.04-14.11c2.2-2.65,4.84-4.97,7.45-7.24
	c0.53-0.46,2.13-0.38,2.69,0.09c0.5,0.43,0.69,2.08,0.27,2.62c-5.93,7.58-7.44,17.94-15.4,24.27c-2.41,1.92-4.24,4.57-6.34,6.89
	c0.35,0.51,0.69,1.01,1.04,1.52c2.7-0.49,5.79-0.3,8.01-1.59c5.71-3.32,11.15-7.14,16.48-11.05c5.71-4.19,7.65-4.55,13.2-0.14
	c3.25,2.59,6.64,3.52,10.63,3.13c8.49-0.83,16.58,0.45,24.17,4.57c1.59,0.86,3.4,1.36,5.15,1.9c10.72,3.3,15.16,0.09,15.9-10.89
	c0.14-2.08,1.58-5.16,3.21-5.83c4.07-1.67,4.12-3.87,2.2-6.92c-5.46-8.71-10.99-17.38-16.54-26.04c-1.87-2.91-4.95-5.33-3.62-10.34
	c2.07,1.3,3.74,2.2,5.25,3.32c8.58,6.35,18.08,9.79,28.85,9.33c3.84-0.16,5.47-1.48,3.86-5.68c-1.91-4.96-3.84-10.05-4.66-15.26
	c-0.92-5.85-0.88-11.91-0.68-17.86c0.06-1.68,2.14-3.3,3.3-4.94c0.88,1.64,2.13,3.19,2.55,4.94c0.85,3.55,1.01,7.27,1.86,10.82
	c2.4,9.94,3.71,20.19,13.97,26.4c7.84,4.74,8.17,9.82,2.22,16.99c-4.96,5.98-9.36,12.08-10.5,20.01c-0.1,0.69-0.77,1.3-1.24,2.04
	c-4.39-5.18-5.01-9.55-1.79-14.64c2.13-3.37,4.82-6.37,7.05-9.68c1.4-2.08,3.93-4.57,0.57-6.83c-2.95-1.98-5.62-1.13-7.51,2.11
	c-2.27,3.88-4.59,7.74-7.16,11.42c-6.9,9.86-2.73,23.86,2.89,30.8c0.7,0.87,1.77,1.98,2.72,2.03c7.22,0.38,12.03,6.1,18.44,8.13
	c6.98,2.2,14.11,3.96,21.07,6.22c9.8,3.17,14.08,1.46,18.32-7.85c1.68-3.68,3.59-6.56,7.8-8.41c3.49-1.53,6.44-5.14,8.66-8.47
	c2.88-4.31,0.58-8.06-4.66-7.72c-7.74,0.49-15.02,1.79-19.16,10.1c-3.64,7.3-7.81,8.77-15.64,6.25c-3.84-1.24-7.48-3.58-10.75-6.05
	c-4.85-3.67-5-7.67-0.59-11.7c3.55-3.25,7.11-7.01,11.39-8.84c8.85-3.78,14.35-10.43,19.15-18.22c0.83-1.35,2.91-1.93,4.42-2.87
	c0.4,1.94,1.44,4.01,1.07,5.79c-1.17,5.7-1.07,6.25,4.83,5.64c17.36-1.8,34.6-5.17,52.19-3.53c2.14,0.2,4.33,0.04,6.49-0.12
	c7.93-0.56,12.86-4.46,14.03-12.24c0.83-5.52,0.47-11.22,0.61-16.84c0.05-2.14,0.01-4.29,0.01-6.43c0.53-0.1,1.06-0.2,1.58-0.3
	c0.81,1.66,1.83,3.26,2.38,5c3.96,12.55,7.86,25.11,11.71,37.69c2.79,9.11,8.83,14.4,18.34,15.16c6.13,0.49,12.31,0.4,18.47,0.47
	c12.84,0.13,23.52,5.39,32.83,13.83C819.26,484.97,820.32,486.86,821.59,488.51z M253.04,467.59c-2.4,0.54-6.78-1.88-6.84,3.91
	c-0.08,7.05,2.44,10.57,7.69,10.56c5.6-0.01,9.15-2.9,9.21-7.5C263.15,469.36,260.87,467.72,253.04,467.59z M637.01,468.04
	c-8.46,0.07-12.01,2.56-11.96,8.39c0.03,3.72,3.77,6.42,9.03,6.51c4.43,0.08,7.89-4.49,7.81-10.17
	C641.84,469.48,640.38,467.82,637.01,468.04z M871.15,512.57c2.4-1.89,5.25-3.22,5.14-4.22c-0.55-5.03-1.57-10.07-3.13-14.88
	c-0.49-1.52-3.24-3.3-4.82-3.19c-1.35,0.1-3.58,2.76-3.56,4.27c0.06,4.4,0.74,8.87,1.84,13.14
	C867.05,509.36,869.23,510.59,871.15,512.57z M23.9,494.43c-0.72-1.49-1.52-5.65-3.15-6c-4.2-0.9-5.78,2.9-6.66,6.45
	c-0.63,2.57-0.89,5.24-1.55,7.81c-0.78,3.04-1.07,5.65,2.94,6.48c3.79,0.78,6.15-0.47,6.76-4.47
	C22.7,501.76,23.19,498.82,23.9,494.43z M856.58,487.71c0.98-0.72,3.52-1.64,4.04-3.23c0.49-1.49-0.67-4.12-1.94-5.46
	c-1.89-2-4.41-3.47-6.84-4.87c-2.76-1.58-5-0.43-5.8,2.4C844.98,480.31,851.64,487.88,856.58,487.71z M31.21,485.53
	c4.61,0.2,11.71-7.35,10.65-10.57c-0.45-1.35-3.34-3.14-4.49-2.77c-2.92,0.94-5.77,2.67-8.06,4.73c-1.35,1.21-2.53,3.97-2.06,5.48
	C27.75,483.98,30.33,484.9,31.21,485.53z"/>
<path d="M584.36,95.1c6.09,4.42,12.45,7.92,17.41,12.83c24.24,23.96,17.77,66.64-12.24,82.93c-11.53,6.25-23.93,9.25-36.93,9.35
	c-24.83,0.19-49.66-0.04-74.49,0.14c-4.49,0.03-6.01-1.12-6-5.86c0.15-58.83,0.09-117.66,0.1-176.49c0-6.69,0.04-6.7,6.47-6.7
	c24.17,0,48.34-0.36,72.49,0.25c7.27,0.18,14.89,2.07,21.63,4.88c33.78,14.11,32.05,55.93,13.99,75.76
	C585.82,93.26,584.94,94.4,584.36,95.1z M512.63,105.56c0.02,0,0.05,0,0.07,0c0,19.33,0.02,38.65-0.02,57.98
	c-0.01,2.65-0.22,5.05,3.65,4.96c12.49-0.28,25.01,0.03,37.45-0.81c4.72-0.32,9.95-2.24,13.77-5.04
	c7.73-5.67,10.11-18.91,6.94-29.39c-3.18-10.49-11.07-14.02-20.84-14.74c-7.63-0.56-15.3-0.78-22.96-0.73
	c-3.98,0.03-5.28-1.38-5.07-5.24c0.26-4.82,0.01-9.66,0.08-14.49c0.06-4.14-1.26-9.63,0.86-12.03c2-2.26,7.67-1.39,11.75-1.68
	c11.62-0.82,19.93-7.73,20.73-17.84c0.31-3.94-0.17-7.98-0.57-11.94c-0.47-4.56-3.2-7.87-7.32-9.34c-4.33-1.55-8.93-2.74-13.49-3.11
	c-6.46-0.52-13,0.14-19.48-0.23c-4.52-0.26-5.67,1.38-5.63,5.69C512.74,66.91,512.63,86.23,512.63,105.56z"/>
<path d="M82.91,124.05c19.11,26.75,37.72,52.79,56.95,79.7c-2.37,0.27-3.73,0.56-5.09,0.57c-12.99,0.03-25.99-0.08-38.98,0.08
	c-3.21,0.04-5.16-1.03-6.91-3.71c-11.95-18.24-24.09-36.36-36.02-54.61c-1.28-1.96-2.19-4.56-2.24-6.88
	c-0.22-12.49-0.01-24.99-0.2-37.48c-0.05-3.45,1.16-4.35,4.48-4.9c6.51-1.07,13.22-2.16,19.26-4.65c9.98-4.1,13.61-12.5,12.92-23.07
	c-0.63-9.5-6.24-18.5-15.45-20.58c-9.28-2.09-19.04-2.15-28.6-2.81c-0.9-0.06-2.46,1.85-2.79,3.1c-0.5,1.87-0.2,3.96-0.2,5.96
	c0.01,47.81,0.02,95.62,0.03,143.43c0,6.56,0,6.57-6.63,6.58c-9.5,0.01-18.99-0.13-28.48,0.06c-3.7,0.08-4.94-1.2-4.93-4.9
	C0.09,139.31,0.09,78.68,0,18.04c-0.01-3.79,1.4-4.85,4.98-4.83c22.16,0.12,44.35-0.74,66.46,0.31
	c21.65,1.03,39.59,10.81,49.2,30.77c9.42,19.57,8.8,39.79-3.3,58.62c-6.46,10.06-16.87,14.73-27.63,18.66
	C87.84,122.25,85.98,122.93,82.91,124.05z"/>
<path d="M374.35,188.13c-6.09,3.64-10.98,7.14-16.33,9.67c-29.84,14.11-61.94,1.93-75.35-28.32c-9.68-21.84-8.93-43.22,3.77-63.51
	c12.89-20.59,39.95-30.78,64.8-25.02c3.99,0.92,7.9,2.55,11.54,4.45c3.64,1.9,6.88,4.55,11.14,7.45c0.2-2.46,0.48-4.3,0.48-6.14
	c0.03-26.82,0.11-53.65-0.07-80.47c-0.03-4.24,0.86-5.95,5.45-5.79c9.32,0.33,18.66,0.24,27.99,0.03c3.97-0.09,5.59,0.98,5.58,5.3
	c-0.12,63.15-0.13,126.29-0.03,189.44c0.01,4.05-1.39,5.19-5.21,5.11c-9.49-0.21-19-0.31-28.49-0.03c-4.34,0.13-5.69-1.54-5.31-5.54
	C374.5,192.82,374.35,190.86,374.35,188.13z M375.63,141.71c0.3-17.71-12.57-31.99-29.19-32.41c-16.73-0.41-29.97,13.24-30.27,31.21
	c-0.29,16.84,12.68,31.7,27.93,32.03C361.99,172.93,375.32,159.89,375.63,141.71z"/>
<path d="M256.53,178.1c-7.91,12.62-18.31,20.76-31.14,25.33c-27.72,9.85-52.45,3.64-74.21-15.46c-8.22-7.21-12.23-16.86-14.04-27.5
	c-2.56-15.04-2.32-29.86,3.53-44.2c7.56-18.52,22.32-28.69,40.84-33.65c17.66-4.72,35.08-3.52,51.24,5.91
	c17.13,10,25.32,25.86,28.32,44.83c0.73,4.59,0.66,9.29,1.16,13.92c0.43,4.01-1.25,5.15-5.15,5.12
	c-21.16-0.15-42.32-0.07-63.49-0.07c-4.67,0-9.33,0.07-14-0.05c-3.06-0.08-4.03,1.1-3.84,4.19c0.66,10.93,7.16,18.85,17.9,21.11
	c12.46,2.62,23.46,0.4,32.08-9.84c0.83-0.98,3.11-1.8,4.16-1.36C238.6,170,247.19,173.94,256.53,178.1z M201.39,129.14
	c0,0.02,0,0.03,0,0.05c7.15,0,14.3-0.08,21.45,0.04c3.51,0.06,4.29-1.3,3.49-4.6c-2.88-11.81-11.36-19.35-22.56-19.8
	c-12.71-0.51-22.96,6.64-26.49,18.47c-1.57,5.25-1.19,5.81,4.16,5.84C188.09,129.17,194.74,129.14,201.39,129.14z"/>
<path d="M751.29,129.02c0,10.66-0.53,21.36,0.13,31.98c0.97,15.63-6.23,26.88-18.62,34.59c-7,4.36-15.33,7.51-23.46,8.92
	c-15.13,2.64-30.49,2.98-45.49-1.99c-20.09-6.66-33.54-22.79-32.51-45.33c1-21.95,0.21-43.98,0.19-65.97
	c-0.01-6.54-0.02-6.54,6.64-6.56c8.66-0.01,17.33,0.15,25.99-0.09c3.81-0.11,4.85,1.28,4.82,4.93c-0.13,21.49,0.02,42.99-0.09,64.48
	c-0.04,8.3,3.63,14.06,11.08,17.3c8.35,3.64,16.92,3.61,25.23-0.03c7.22-3.16,10.91-8.88,10.89-16.95
	c-0.06-21.33,0.14-42.66-0.13-63.98c-0.06-4.81,1.51-5.95,5.98-5.77c8.15,0.33,16.33,0.24,24.49,0.06c3.67-0.08,4.98,1.21,4.93,4.92
	C751.19,102.7,751.29,115.86,751.29,129.02z"/>
<path d="M838.82,100.21c0-31.16,0-62.33,0-93.49c0-6.57,0.02-6.58,6.62-6.59c8.33-0.01,16.68,0.28,24.99-0.11
	c5.05-0.24,6.54,1.35,6.53,6.45c-0.17,60.33-0.11,120.66-0.11,180.98c0,3.17-0.1,6.34,0.05,9.5c0.17,3.48-1.69,4.14-4.68,4.1
	c-9.33-0.12-18.67-0.29-27.99,0.04c-4.67,0.16-5.52-1.73-5.49-5.88c0.17-20.33,0.08-40.66,0.08-60.99
	C838.82,122.88,838.82,111.55,838.82,100.21z"/>
<path d="M811.56,100.19c0,31.32,0.01,62.63,0,93.95c0,6.48-0.03,6.48-6.67,6.48c-8.66,0-17.33-0.22-25.98,0.12
	c-4.27,0.17-5.44-1.25-5.42-5.37c0.15-24.65,0.08-49.31,0.08-73.96c0-38.31,0.09-76.62-0.11-114.93c-0.03-5.02,1.25-6.72,6.42-6.45
	c8.47,0.44,16.99,0.34,25.48,0.02c4.74-0.18,6.31,1.31,6.28,6.18c-0.2,31.31-0.1,62.63-0.1,93.95
	C811.54,100.19,811.55,100.19,811.56,100.19z"/>
<path class="st0" d="M430.45,476.19c-5.82,2.08-10.28,1.17-13.64-1.94c-3.85-3.57-6.91-8-10.3-12.06c-2.66-3.18-5.19-6.49-8.03-9.49
	c-1.1-1.16-2.9-1.64-5.03-1.81c5.31,12.67,10.88,24.96,22.46,34.28c-5.52,2.21-9.43,0.39-12.76-1.63
	c-5.38-3.26-10.49-7.05-15.32-11.09c-3.22-2.69-6.12-2.85-8.81-0.13c-3.87,3.91-8.42,5.08-13.64,4.77
	c-9.81-0.58-19.23,0.69-28.09,5.35c-2.28,1.2-5.05,1.83-7.64,1.99c-6.33,0.39-9.71-2.96-9.49-9.33c0.15-4.42,0.24-8.41-5.29-9.8
	c-0.6-0.15-1.34-3.04-0.8-3.93c6.29-10.38,12.81-20.62,19.29-30.88c0.62-0.98,1.61-1.81,1.93-2.87c0.3-0.99,0.32-2.53-0.26-3.16
	c-0.48-0.53-2.22-0.47-3.04-0.02c-2.04,1.1-3.93,2.51-5.78,3.92c-7.52,5.77-16.15,7.44-25.39,7.26c-4.35-0.08-5.1-1.78-3.65-5.65
	c3.87-10.38,6.32-21.07,5.6-32.24c-0.13-2.07-1.07-4.09-1.99-7.38c-4.93,5.23-4.96,10.45-5.68,15.41
	c-1.33,9.12-2.71,18.24-10.17,24.81c-1.74,1.53-3.71,2.79-5.63,4.1c-5.17,3.55-6.17,8.04-2.72,13.21c2.31,3.46,4.88,6.75,7.18,10.21
	c1.47,2.21,2.83,4.53,3.95,6.93c1.03,2.21,1.67,4.59,2.52,7.01c3.84-3.45,4.58-9,1.59-13.98c-1.96-3.26-4.66-6.06-6.8-9.23
	c-1.33-1.97-4.53-4.09-1.07-6.67c3.04-2.28,5.69-1.83,7.76,1.84c2.28,4.05,4.98,7.88,7.58,11.75c7.05,10.48,3.09,21.51-3.14,30.64
	c-0.92,1.34-3.34,1.72-5.13,2.37c-2.72,1-5.86,1.3-8.19,2.85c-11.12,7.41-23.5,10.56-36.58,11.66c-5,0.42-8.3-1.8-10.1-6.4
	c-1.68-4.31-4.52-7.06-8.61-9.68c-4-2.57-6.5-7.68-9.12-12.01c-0.48-0.8,1.23-4.02,2.6-4.64c5.21-2.37,16.04,1.16,19.41,5.86
	c0.78,1.08,1.49,2.21,2.22,3.33c2.44,3.76,4.48,8.23,10.02,7.72c7.72-0.71,14.88-3.1,19.17-10.07c2.11-3.43,0.16-7.03-2.56-9.4
	c-4-3.48-8.05-7.45-12.82-9.38c-7.29-2.95-11.21-8.58-15.13-14.59c-1.43-2.2-2.88-4.39-4.37-6.67c-4.25,1.71-3.68,4.61-2.9,7.6
	c1.35,5.2,0.78,5.93-4.65,5.25c-18.83-2.39-37.59-5.02-56.72-4.02c-11.01,0.58-17.88-7.99-17.65-20.31
	c0.09-5.1,0.73-10.19,1.11-15.28c-0.55-0.22-1.09-0.45-1.64-0.67c-1.36,2.88-3.06,5.65-4.01,8.67c-3.36,10.63-6.02,21.5-9.78,31.98
	c-4.87,13.59-11.3,17.44-25.66,17.15c-13.88-0.29-27.34,1.56-39.15,9.52c-3.78,2.55-6.89,6.11-10.3,9.21
	c0.42,0.55,0.85,1.11,1.27,1.66c1.37-0.64,26.02-14.67,39.62-13.59c5.93,0.47,12-0.05,17.95-0.64
	c12.67-1.26,18.61-11.16,25.11-20.23c0.92-1.28,1.66-2.7,3.7-3.84c0.13,1.49,0.53,3.01,0.36,4.47c-1.43,12.4-7.2,22.28-18.43,27.9
	c-3.69,1.85-8.91,2.03-13.11,1.24c-15.67-2.93-28.99,2.16-41.17,11.17c-4.73,3.5-9.57,4.76-14.96,3.26
	c-7.25-2.01-12.4-0.32-16.39,6.42c-3.45,5.84-11.88,7.9-18.13,5.3c-0.82-0.34-1.72-1.12-2.04-1.91c-0.98-2.47,2.78-11.29,5.04-12.86
	c2.98-2.07,5.99-4.18,8.6-6.68c4.19-4,8.43-8.05,11.94-12.63c2.35-3.06,4.03-6.91,5.05-10.66c3.19-11.74,4.01-12.66,16.02-13.89
	c9.83-1.01,11.32-3.85,9.99-13.35c-1.3-9.3-1.53-18.84-1.28-28.24c0.15-5.9-0.67-7.2-6.42-5.78c-8.17,2.02-16.57,3.09-24.49-0.51
	c-16.42-7.44-28.45-28.39-10.37-50.89c5.51-6.86,11.95-12.96,18-19.38c3.94-4.18,3.37-6.18-2.26-7.73c-3.37-0.92-6.8-1.67-10.1-2.79
	C38.4,318.55,32,309.44,32.09,298.26c0.04-5.05,1.49-5.74,5.91-3.75c5.6,2.52,11.52,4.29,17.16,6.73
	c5.75,2.49,11.94,4.59,16.82,8.32c8.33,6.35,9.03,14.47,2.45,22.67c-5.72,7.13-12.34,13.53-18.3,20.47
	c-3.02,3.51-5.83,7.31-8.12,11.33c-6.56,11.52,1.89,26.35,15.19,26.98c10.51,0.5,19.94-2.78,28.9-8.04
	c11.77-6.92,23.48-13.97,35.61-20.2c5.66-2.91,12.3-3.83,18.38-5.99c6.54-2.33,13.38-4.32,19.31-7.78
	c10.68-6.23,21.07-12.56,33.64-14.57c4.27-0.68,8.46-3.14,12.2-5.54c10.85-6.96,22.06-12.84,34.66-16.19
	c4.24-1.13,7.99-4.47,11.68-7.18c4.81-3.55,9.14-7.75,14.03-11.19c6.5-4.56,13.57-5.13,20.77-1.44c1.92,0.99,3.91,1.92,5.65,3.18
	c17.24,12.5,34.68,24.74,51.55,37.72c13.63,10.49,26.76,22.01,33.91,38.07c4.49,10.06,7.19,21.02,9.81,31.79
	c3.49,14.39,5.9,29,12.3,42.59c4.21,8.93,10.13,16.36,17.35,22.91C425.27,471.25,427.51,473.41,430.45,476.19z M375.31,432.83
	c3.42-5.29,2.6-10.05-0.61-14.15c-3.47-4.44-7.87-8.16-11.21-12.67c-6.82-9.23-9.02-6.64-13.95,2.46c-0.62,1.14-1.08,2.5-1.14,3.78
	c-0.06,1.37,0.44,2.76,0.69,4.14c1.33-0.41,2.91-0.49,3.95-1.28c2.27-1.71,4.32-3.04,7.16-1.12c5.89,3.98,11.13,8.44,13.34,15.58
	C373.91,430.73,374.71,431.75,375.31,432.83z M308.96,359.12c2.98-10.57-9.73-30.9-19.07-32.32c-3.29-0.5-4.66,1.67-3.27,4.18
	c1.71,3.08,4.09,6.06,6.86,8.21c5.47,4.25,10.6,8.53,12.7,15.5C306.57,355.99,307.66,357.08,308.96,359.12z M353.23,467.05
	c5.04,0.15,8.79-2.86,8.34-6.1c-0.2-1.45-3.01-3.91-3.18-3.79c-2.82,1.94-5.46,4.15-7.87,6.57
	C350.4,463.86,352.67,466.38,353.23,467.05z"/>
<path class="st0" d="M821.59,488.51c-1.27-1.65-2.33-3.54-3.85-4.91c-9.3-8.44-19.99-13.69-32.83-13.83
	c-6.16-0.06-12.34,0.02-18.47-0.47c-9.51-0.76-15.55-6.05-18.34-15.16c-3.86-12.58-7.75-25.15-11.71-37.69
	c-0.55-1.74-1.58-3.34-2.38-5c-0.53,0.1-1.06,0.2-1.58,0.3c0,2.14,0.04,4.29-0.01,6.43c-0.14,5.62,0.22,11.32-0.61,16.84
	c-1.17,7.78-6.1,11.68-14.03,12.24c-2.16,0.15-4.35,0.32-6.49,0.12c-17.6-1.64-34.84,1.73-52.19,3.53c-5.9,0.61-5.99,0.06-4.83-5.64
	c0.37-1.78-0.68-3.85-1.07-5.79c-1.5,0.94-3.59,1.52-4.42,2.87c-4.8,7.79-10.29,14.44-19.15,18.22c-4.28,1.83-7.84,5.59-11.39,8.84
	c-4.41,4.04-4.27,8.04,0.59,11.7c3.26,2.46,6.9,4.81,10.75,6.05c7.83,2.52,12,1.05,15.64-6.25c4.14-8.31,11.42-9.61,19.16-10.1
	c5.25-0.33,7.54,3.41,4.66,7.72c-2.22,3.33-5.18,6.94-8.66,8.47c-4.21,1.85-6.12,4.73-7.8,8.41c-4.24,9.31-8.53,11.02-18.32,7.85
	c-6.97-2.25-14.09-4.01-21.07-6.22c-6.42-2.03-11.22-7.75-18.44-8.13c-0.95-0.05-2.01-1.16-2.72-2.03
	c-5.62-6.93-9.79-20.94-2.89-30.8c2.57-3.68,4.89-7.54,7.16-11.42c1.89-3.23,4.56-4.09,7.51-2.11c3.36,2.26,0.83,4.75-0.57,6.83
	c-2.23,3.31-4.93,6.32-7.05,9.68c-3.22,5.09-2.6,9.47,1.79,14.64c0.46-0.74,1.14-1.35,1.24-2.04c1.14-7.93,5.54-14.03,10.5-20.01
	c5.95-7.17,5.62-12.24-2.22-16.99c-10.27-6.21-11.57-16.46-13.97-26.4c-0.86-3.55-1.02-7.27-1.86-10.82
	c-0.42-1.75-1.67-3.3-2.55-4.94c-1.16,1.65-3.24,3.26-3.3,4.94c-0.2,5.95-0.24,12,0.68,17.86c0.82,5.21,2.75,10.3,4.66,15.26
	c1.61,4.2-0.02,5.51-3.86,5.68c-10.77,0.46-20.27-2.98-28.85-9.33c-1.51-1.12-3.18-2.02-5.25-3.32c-1.33,5,1.75,7.43,3.62,10.34
	c5.55,8.66,11.07,17.33,16.54,26.04c1.91,3.05,1.87,5.24-2.2,6.92c-1.64,0.67-3.07,3.76-3.21,5.83
	c-0.74,10.99-5.18,14.19-15.9,10.89c-1.75-0.54-3.56-1.03-5.15-1.9c-7.59-4.12-15.68-5.4-24.17-4.57
	c-3.99,0.39-7.38-0.54-10.63-3.13c-5.55-4.41-7.49-4.05-13.2,0.14c-5.33,3.91-10.77,7.73-16.48,11.05
	c-2.23,1.29-5.32,1.11-8.01,1.59c-0.35-0.51-0.69-1.01-1.04-1.52c2.1-2.32,3.93-4.97,6.34-6.89c7.97-6.34,9.48-16.69,15.4-24.27
	c0.42-0.53,0.23-2.18-0.27-2.62c-0.56-0.48-2.16-0.55-2.69-0.09c-2.61,2.27-5.24,4.59-7.45,7.24c-3.82,4.59-7.02,9.72-11.04,14.11
	c-3.64,3.98-8.51,5.42-15.13,3.93c1.72-1.88,2.76-3.22,4-4.33c16.28-14.53,25.7-32.61,29.59-54.1c3.5-19.33,7.86-38.47,18.64-55.52
	c8.42-13.32,20.52-22.69,32.78-31.81c16.83-12.51,34.13-24.4,51.3-36.45c6.52-4.58,13.42-4.46,20.24-0.59
	c2.01,1.14,3.99,2.52,5.57,4.18c10.5,11.01,23.25,17.88,37.84,21.99c5.69,1.6,11.36,4.21,16.22,7.55
	c8.46,5.81,17.84,8.72,27.53,11.34c4.25,1.15,8.61,2.93,12.15,5.5c9.94,7.21,20.11,13.38,32.62,15.29
	c11.58,1.77,21.37,8.05,31.26,13.98c9.69,5.81,19.48,11.54,29.68,16.37c7.28,3.45,15.31,4.55,23.3,1.31
	c10.51-4.26,15.06-19.01,8.52-26.65c-6.92-8.08-13.63-16.34-20.45-24.5c-1.71-2.04-3.59-3.95-5.25-6.03
	c-5.94-7.43-4.94-17.03,2.47-22.98c1.93-1.55,4.04-3.07,6.31-3.97c10.32-4.1,20.73-7.97,31.1-11.91c5.05,8.03,0.3,21.81-9.52,26.53
	c-4.29,2.06-9.16,2.9-13.67,4.53c-1.86,0.67-4.46,1.64-4.97,3.09c-0.53,1.51,0.57,4.19,1.8,5.63c5.3,6.2,11.15,11.93,16.35,18.2
	c7.51,9.05,12.94,19.34,8.62,31.24c-4.53,12.48-14.39,23.34-29.65,22.32c-4.81-0.32-9.66-0.6-14.37-1.5
	c-4.14-0.79-6.28,0.85-5.5,4.52c2.43,11.43,0.47,22.49-1.59,33.65c-0.77,4.15,2.99,9.04,7.62,8.73
	c12.71-0.86,17.79,5.65,19.86,17.18c0.67,3.76,4.54,6.99,7.08,10.37c1.29,1.71,2.77,3.3,4.35,4.74c4.36,3.97,9.5,7.31,13.03,11.9
	c2.8,3.65,3.75,8.75,5.28,13.29c0.12,0.34-1.57,1.55-2.58,1.97c-5.59,2.3-13.34,0.12-17.14-4.73c-1.13-1.44-2.24-2.9-3.32-4.38
	c-2.51-3.48-5.77-4.83-10.02-3.77c-7.67,1.92-14.12,0.76-20.8-4.55c-11.31-9-25.11-11.8-39.24-9.59
	c-11.57,1.81-19.32-3.34-24.8-11.96c-3.34-5.26-4.24-12.08-6.06-18.25c-0.31-1.05,0.34-2.37,0.78-4.93
	c2.11,3.37,3.44,5.59,4.87,7.76c8.09,12.28,18.32,20.42,34.21,19.07c6.43-0.55,12.98,0.2,19.46,0.58
	c8.07,0.48,15.22,3.23,21.11,8.99c1.55,1.51,3.47,2.64,5.22,3.95C820.76,489.44,821.17,488.98,821.59,488.51z M512.07,433.01
	c4.58-5.61,8.73-11.01,13.24-16.09c3.2-3.61,6.92-5,11.05-0.87c0.72,0.72,2.79,1.12,3.43,0.62c0.78-0.6,1.32-2.59,0.9-3.49
	c-1.8-3.86-3.76-7.69-6.18-11.17c-0.61-0.88-3.93-1.22-4.63-0.49c-5.73,5.97-11.49,11.98-16.49,18.55
	C510.5,423.87,509.44,428.74,512.07,433.01z M578.37,358.2c0.71,0.23,1.42,0.45,2.13,0.68c0.87-1.32,2-2.53,2.55-3.96
	c2.43-6.32,6.79-10.86,12.29-14.66c2.54-1.75,4.76-4.17,6.54-6.7c0.82-1.17,0.23-3.34,0.27-5.06c-1.67,0.08-3.65-0.4-4.97,0.33
	c-7.54,4.13-13.04,10.35-16.35,18.2C579.37,350.47,579.15,354.45,578.37,358.2z M535.62,467.64c0.5-0.66,2.19-1.9,2.37-3.34
	c0.35-2.83-4.49-7.16-7.52-6.6c-1.35,0.25-3.15,2.28-3.34,3.69C526.7,464.57,530.48,467.58,535.62,467.64z"/>
<path class="st0" d="M253.04,467.59c7.84,0.13,10.11,1.77,10.05,6.97c-0.05,4.6-3.6,7.5-9.21,7.5c-5.25,0.01-7.77-3.51-7.69-10.56
	C246.26,465.7,250.63,468.13,253.04,467.59z"/>
<path class="st0" d="M637.01,468.04c3.37-0.22,4.83,1.44,4.88,4.72c0.09,5.68-3.38,10.26-7.81,10.17c-5.25-0.1-8.99-2.8-9.03-6.51
	C625,470.6,628.55,468.11,637.01,468.04z"/>
<path class="st0" d="M871.15,512.57c-2.76-0.18-4.1-3.21-4.53-4.88c-1.1-4.27-1.78-8.74-1.84-13.14c-0.02-1.5,0.89-4.27,3.56-4.27
	c2.96,0,4.33,1.66,4.82,3.19c1.56,4.81,3.12,9.83,3.13,14.88C876.3,511.67,874.2,512.78,871.15,512.57z"/>
<path class="st0" d="M23.9,494.43c-0.71,4.39-1.2,7.33-1.65,10.27c-0.61,4-2.98,5.24-6.76,4.47c-4.01-0.82-3.72-3.43-2.94-6.48
	c0.66-2.57,0.92-5.24,1.55-7.81c0.88-3.55,2.46-7.36,6.66-6.45C23.9,489.1,23.9,491.96,23.9,494.43z"/>
<path class="st0" d="M856.58,487.71c-5.87,1.15-11.71-8.17-10.65-11.94c0.8-2.82,3.88-3.21,6.64-1.63c2.43,1.39,4.22,2.88,6.11,4.88
	c1.27,1.34,2.44,3.97,1.94,5.46C860.1,486.07,858.91,487.25,856.58,487.71z"/>
<path class="st0" d="M31.21,485.53c-1.08,0.1-3.03-0.54-3.96-3.13c-0.54-1.49,0.71-4.27,2.06-5.48c2.29-2.06,5-4.67,8.06-4.73
	c2.48-0.05,4.04,1.42,4.49,2.77C42.92,478.18,37.38,484.98,31.21,485.53z"/>
<path d="M375.31,432.83c-0.6-1.08-1.4-2.1-1.76-3.26c-2.2-7.14-7.45-11.6-13.34-15.58c-2.84-1.92-4.89-0.59-7.16,1.12
	c-1.05,0.79-2.62,0.88-3.95,1.28c-0.25-1.38-0.75-2.78-0.69-4.14c0.06-1.28,0.52-2.64,1.14-3.78c4.93-9.1,7.13-11.69,13.95-2.46
	c3.34,4.52,7.74,8.24,11.21,12.67C377.91,422.78,378.73,427.54,375.31,432.83z"/>
<path d="M308.96,359.12c-1.31-2.04-2.39-3.13-2.78-4.43c-2.09-6.97-7.23-11.25-12.7-15.5c-2.77-2.15-5.15-5.13-6.86-8.21
	c-1.4-2.5-0.02-4.68,3.27-4.18C299.24,328.22,311.95,348.54,308.96,359.12z"/>
<path d="M353.23,467.05c-0.55-0.67-2.83-3.19-2.7-3.32c2.41-2.42,5.05-4.64,7.87-6.57c0.17-0.12,2.98,2.34,3.18,3.79
	C362.02,464.19,358.26,467.2,353.23,467.05z"/>
<path d="M512.07,433.01c-2.63-4.27-1.57-9.14,1.32-12.93c5-6.57,10.76-12.58,16.49-18.55c0.7-0.73,4.02-0.39,4.63,0.49
	c2.42,3.48,4.38,7.31,6.18,11.17c0.42,0.9-0.12,2.89-0.9,3.49c-0.65,0.5-2.71,0.1-3.43-0.62c-4.13-4.13-7.85-2.74-11.05,0.87
	C520.8,422.01,516.65,427.41,512.07,433.01z"/>
<path d="M578.37,358.2c0.78-3.74,1-7.72,2.46-11.18c3.31-7.85,8.82-14.07,16.35-18.2c1.32-0.72,3.3-0.25,4.97-0.33
	c-0.05,1.72,0.55,3.89-0.27,5.06c-1.77,2.53-4,4.95-6.54,6.7c-5.5,3.79-9.86,8.34-12.29,14.66c-0.55,1.44-1.68,2.65-2.55,3.96
	C579.79,358.65,579.08,358.42,578.37,358.2z"/>
<path d="M535.62,467.64c-5.14-0.06-8.92-3.06-8.5-6.24c0.19-1.41,1.99-3.44,3.34-3.69c3.03-0.56,7.87,3.77,7.52,6.6
	C537.81,465.73,536.12,466.98,535.62,467.64z"/>
</svg>
