<?xml version="1.0" encoding="utf-8"?>
<!-- Generator: Adobe Illustrator 23.0.1, SVG Export Plug-In . SVG Version: 6.00 Build 0)  -->
<svg version="1.1" id="Layer_1" xmlns="http://www.w3.org/2000/svg" xmlns:xlink="http://www.w3.org/1999/xlink" height="30px"
	 viewBox="0 0 280.66 89.3" style="enable-background:new 0 0 280.66 89.3;" xml:space="preserve">
<g>
	<path d="M28.57,48.93c-9.42-1.52-11.8-2.28-11.8-5.17c0-3.39,1.52-4.91,8.76-4.91c7.29,0,22.84,2.03,22.84,2.03l0.25-14.03
		c0,0-15.3-3.14-24.31-3.14C11.14,23.71,0,29.58,0,44.17c0,5.57,1.27,9.47,3.95,12.36c3.7,4,10.13,5.98,19.65,7.6
		c8.76,1.52,10.18,2.53,10.18,5.27c0,3.24-2.13,4.76-10.18,4.76c-6.38,0-21.93-2.03-21.93-2.03L1.17,86.31
		c0,0,14.79,2.99,24.06,2.99c15.7,0,25.33-5.62,25.33-20.31c0-5.47-1.01-9.47-3.5-12.46C43.76,52.58,37.99,50.4,28.57,48.93z"/>
	<polygon points="64.83,56.48 64.83,87.78 81.6,87.78 81.6,56.48 81.6,0 64.83,0 	"/>
	<polygon points="98.47,56.48 98.47,87.78 115.23,87.78 115.23,56.48 115.23,25.22 98.47,25.22 	"/>
	<path d="M198.71,25.33c0,0-8.91-1.62-13.52-1.62c-17.07,0-25.93,9.42-25.93,32.11c0,0.25,0,0.46,0,0.71l0,0
		c0.1,21.48,5.72,32.67,24.47,32.67c6.38,0,15.04-3.9,15.04-3.9v2.53h16.82v-31.3l0,0V0h-16.82v25.33H198.71z M198.71,56.48
		L198.71,56.48v15.35c0,0-7.29,1.62-12.16,1.77c-7.75-0.25-10.18-4.96-10.28-17.12l0,0c0-0.25,0-0.46,0-0.71
		c0-12.41,3.9-16.92,10.18-16.92c5.37,0,12.31,1.11,12.31,1.11v16.51H198.71z"/>
	<path d="M139.6,63.92c-6.58,0-11.95,5.37-11.95,11.95s5.37,11.95,11.95,11.95c6.58,0,11.95-5.37,11.95-11.95
		C151.5,69.24,146.18,63.92,139.6,63.92z"/>
	<path d="M280.66,57.24c0,18.84-6.84,32.06-28.11,32.06s-28.11-13.22-28.11-32.06s6.84-31.91,28.11-31.91S280.66,38.39,280.66,57.24
		z M264.05,57.24c0-11.24-2.43-17.12-11.5-17.12c-9.07,0-11.5,5.88-11.5,17.12c0,11.24,2.43,17.22,11.5,17.22
		C261.62,74.46,264.05,68.48,264.05,57.24z"/>
</g>
</svg>
