<?xml version="1.0" encoding="utf-8"?>
<!-- Generator: Adobe Illustrator 23.0.1, SVG Export Plug-In . SVG Version: 6.00 Build 0)  -->
<svg version="1.1" id="Layer_1" xmlns="http://www.w3.org/2000/svg" xmlns:xlink="http://www.w3.org/1999/xlink" height="40px"
	 viewBox="0 0 308.69 270.79" style="enable-background:new 0 0 308.69 270.79;" xml:space="preserve">
<g>
	<path d="M79.75,259.2c1.86-6.6-1.27-13.91,0.66-20.5c0.88,0.07,1.77,0.14,2.65,0.2c0,5.87-0.12,11.75,0.06,17.61
		c0.07,2.41,0.58,4.86,1.21,7.2c1.01,3.71,0.08,5.19-3.77,5.44c-5.6,0.37-5.64,0.35-8.07-2.74c2.43-2.04,6.71,1.22,9.53-3.23
		c-4.26,0.22-7.36,0.63-10.4,0.39c-1.08-0.09-2.9-1.76-2.9-2.71c0-3.52,0.92-7.04,0.96-10.57c0.14-10.8,0.07-21.61-0.01-32.42
		c-0.01-1.85-0.1-3.88-0.86-5.5c-1.5-3.22,0.29-3.59,2.66-3.6c5.4-0.02,10.81-0.03,16.21,0.09c6,0.13,10.74,2.91,11.72,6.69
		c1.96,7.52-0.13,12.85-6.43,16.36c-1,0.56-2.04,1.05-3.67,1.88c6.45,7.62,5.53,18.42,11.48,26.19c0.41-0.16,0.81-0.31,1.22-0.47
		c-2.37-6.9-4.84-13.76-7.02-20.72c-0.48-1.52-0.55-4.24,0.34-4.93c4.88-3.79,7.21-8.61,7.4-14.65c0.01-0.39,0.38-0.76,0.66-1.29
		c3.03,1.96,2.76,4.94,1.69,7.36c-1.43,3.26-3.46,6.36-5.71,9.13c-1.52,1.86-1.79,3.02-0.81,5.33c2.1,4.92,3.45,10.15,5.3,15.19
		c1.25,3.39,2.92,6.62,4.22,10c0.41,1.07,0.77,2.72,0.25,3.49c-1.66,2.43-10.48,1.26-12.73-2.34c2.29,0.19,4.04,0.62,5.68,0.37
		c1.25-0.19,2.37-1.26,3.55-1.94c-0.22-0.36-0.44-0.71-0.66-1.07c-2.79,0.24-5.59,0.46-8.38,0.74c-2.77,0.28-4.32-0.89-5.1-3.6
		c-2.01-6.98-4-13.99-6.42-20.83c-0.72-2.04-2.85-3.58-4.34-5.35c-0.62,2.21-1.69,4.39-1.79,6.62c-0.25,6.06-0.09,12.14-0.09,18.21
		C78.63,259.22,79.19,259.21,79.75,259.2z M84.77,216.78c-5.65-0.05-6.95,1.1-6.97,5.13c-0.02,3.39,1.59,4.53,4.88,4.44
		c4.8-0.13,8.64-2.13,8.42-5.1C90.77,216.77,87.11,217.05,84.77,216.78z"/>
	<path d="M139.68,263.16c-3.3,0.57-6.6,1.22-9.93,1.59c-0.4,0.05-1.57-1.71-1.37-2.08c3.64-6.72,0.59-13.79,1.1-20.67
		c0.6-8.12,0.27-16.31,0.16-24.47c-0.02-1.8-0.61-3.67-1.31-5.35c-1-2.39-0.07-3.26,2.16-3.45c5.37-0.45,9.65,1.08,12.27,6.24
		c1.82,3.59,4.02,6.99,6.42,11.12c2.66-4.11,5.32-7.46,7.13-11.22c2.37-4.92,6.56-5.8,11.14-6.04c2.67-0.13,3.79,1.03,2.23,3.84
		c-0.73,1.31-1.01,3.03-1.02,4.56c-0.05,13.26-0.06,26.52,0.1,39.79c0.02,2.08,0.9,4.15,1.56,6.98c-3.72,0.21-7.26,0.41-10.76,0.6
		c2.18-13.25,0.85-25.76-0.05-38.4c-4,3.46-5.39,8.11-6.23,12.85c-0.51,2.92-0.64,5.78-4.48,5.51c-3.84-0.27-3.7-3.42-3.93-6.21
		c-0.07-0.8-0.51-1.56-0.78-2.34l0.1,0.14c-0.8-3.73-1.36-7.58-5.77-10.37c-0.19,2.03-0.42,3.39-0.43,4.74
		c-0.03,6.69-0.21,13.39,0.09,20.07c0.19,4.26,1.1,8.48,1.68,12.72L139.68,263.16z"/>
	<path d="M31.94,208.39c3.09,0,6.23,0,8.69,0c0,14.01-0.08,27.46,0.06,40.92c0.04,3.49,3.19,6.21,6.28,5.92
		c3.68-0.35,4.58-2.64,4.53-6.09c-0.17-11.24-0.08-22.48-0.1-33.72c0-0.29,0.01-0.59-0.04-0.87c-0.35-1.99-0.7-3.98-1.06-5.97
		c3.35,0,6.69,0,8.96,0c-0.21,13.32-0.42,25.99-0.58,38.66c-0.01,0.85,0.12,1.81,0.52,2.54c2.17,3.96,0.63,6.97-2.3,9.67
		c-4.42,4.08-9.68,4.74-15.11,2.96c-5.06-1.66-7.84-5.64-7.95-10.94c-0.25-11.79-0.14-23.59-0.38-35.38
		C33.41,213.59,32.5,211.12,31.94,208.39z"/>
	<path d="M209.44,209.82c-1.34,3.23-2.36,5.69-3.38,8.14c-0.2-0.44-0.4-0.88-0.6-1.32c-4.34,0-8.69-0.22-13,0.08
		c-2.59,0.18-3.9,3.94-2.73,7.17c1.11,3.06,3.52,2.96,6.12,2.39c1.48-0.32,2.99-0.46,4.49-0.68c-0.11,2.95-0.22,5.89-0.33,8.84
		c-1.19-0.07-2.48,0.14-3.56-0.26c-4.45-1.62-6.75-0.25-6.82,4.39c-0.07,4.81,0.15,9.63,0.02,14.44c-0.08,3.1,1.57,4.41,4.24,4.25
		c4.95-0.28,9.88-0.92,15.21-1.45c1.9,3.7-0.77,8.25-5.74,8.21c-7.56-0.05-15.13-0.01-22.04-0.01c0-16.02,0.01-31.81-0.01-47.6
		c0-0.86-0.1-1.76-0.33-2.59c-1.36-4.9-1.18-5.33,3.61-5.18C192.61,208.92,200.62,209.4,209.44,209.82z"/>
	<path d="M293.12,220.21c1.73-2.17,3.45-4.34,5.58-7.02c-1.54-1.07-3.64-0.76-5.26,1.06c-1.63,1.82-3.35,3.9-4.03,6.16
		c-2.7,9.13-3.16,18.32,0.81,27.29c0.45,1.02,1.13,2.2,2.04,2.71c1.56,0.87,3.78,2.14,4.99,1.6c1.16-0.52,1.97-3.14,1.93-4.81
		c-0.12-4.9-0.77-9.78-1.12-14.68c-0.06-0.78,0.27-2.22,0.6-2.28c2.1-0.36,4.25-0.5,6.38-0.47c0.27,0,0.81,1.43,0.75,2.15
		c-0.49,6.42-1.08,12.83-1.74,20.27c1.89-1.08,2.71-1.55,3.57-2.04c1.96,8.5,1.45,10.4-3.44,13.13c-6.13,3.42-11.43,2.75-16.2-2.64
		c8.28,4.07,14.93,2.93,19.12-5.75c-1.44,0.99-2.93,1.91-4.31,2.98c-6.26,4.82-12.64,2.05-16.4-3.62
		c-4.33-6.53-5.69-14.02-5.52-21.72c0.14-6.56,1.15-12.98,4.33-18.95c3.01-5.66,8.44-9.04,14.52-8.45c3.91,0.38,5.05,2.14,3.76,5.81
		c-0.43,1.23-0.8,2.48-1.29,3.68c-0.38,0.94-0.91,1.82-1.37,2.72c0.46,0.35,0.93,0.7,1.39,1.04c1.16-1.35,2.32-2.69,3.47-4.04
		c0.25,0,0.5,0,0.75,0c-0.64,2.27-1.16,4.59-2.05,6.75c-0.15,0.36-2.59,0.42-2.81,0.01c-2.43-4.69-5.49-2.61-8.55-0.99
		L293.12,220.21z"/>
	<path d="M227.64,267.01c1.94-0.52,3-0.99,4.09-1.06c3.02-0.18,6.04,0.42,3.69-4.66c-1.15-2.49,0-6.02,0-9.07
		c0-9.93-0.25-19.86,0.07-29.78c0.07-2.03,2.18-3.98,3.72-6.59c-0.78-0.15-2.56-1.06-3.66-0.54c-1.27,0.61-2.64,2.42-2.76,3.8
		c-0.36,4.35-0.14,8.75-0.15,13.13c-0.02,6.28-0.16,12.56-0.02,18.83c0.08,3.55,0.61,7.09,1.03,11.6c-2.64,0.2-5.92,0.45-8.61,0.66
		c0.15-14.68,0.37-28.66,0.34-42.64c0-1.51-1.01-3.65-2.22-4.36c-1.14-0.67-3.19,0.05-4.79,0.39c-0.76,0.16-1.4,0.87-3.53,1.06
		c0.17-2.47-0.05-5.09,0.74-7.34c0.27-0.77,3.1-0.76,4.77-0.9c5.64-0.48,11.28-1.01,16.93-1.23c6.03-0.24,6.56,0.57,5.25,6.61
		c-0.15,0.71-0.33,1.43-0.37,2.15c-0.02,0.4,0.21,0.82,1.46,1.86c0.97-1.74,1.94-3.47,3.29-5.9c0.42,2.45,1.17,4.59,1.04,6.68
		c-0.16,2.63-2.14,2.06-3.93,1.49c-4.95-1.58-6.17-0.74-6.18,4.52c-0.01,11.24,0.1,22.48,0.18,33.72c0.01,0.87,0,1.79,0.26,2.6
		c0.6,1.9,3.04,3.98-0.1,5.56C235.14,269.14,231.83,270.31,227.64,267.01z"/>
	<path d="M250.52,215.98c-0.86-5.44,1.02-7.77,6.57-7.92c4.66-0.13,9.34-0.2,13.96-0.72c3.37-0.38,4.59,1.13,3.82,3.91
		c-1.32,4.71-2.91,9.37-4.85,13.86c-3.52,8.13-7.41,16.1-11.07,24.17c-1.45,3.21-0.1,5.08,3.44,4.74c4.52-0.43,9.02-1.06,13.53-1.6
		c0.13,6.47-1.73,8.43-7.74,8.53c-5.09,0.09-10.19,0.31-15.25,0.82c-3.36,0.34-5.18-0.92-4.14-4.05c2.1-6.29,4.6-12.47,7.28-18.54
		c2.99-6.77,6.41-13.35,9.54-20.05c1.52-3.25-0.49-4.45-3.23-4.35C258.55,214.92,254.73,215.53,250.52,215.98z"/>
	<path d="M0,259.47c3.38-7.93,6.22-14.56,9.03-21.2c2.57-6.07,5.08-12.17,7.67-18.23c1.41-3.29,0.08-5.1-3.13-5.6
		c-2.42-0.38-4.91-0.27-7.37-0.43c-1.36-0.08-2.72-0.25-4.08-0.38c1.28-1.79,2.37-4.91,3.88-5.12c5.58-0.8,11.33-1.07,16.96-0.69
		c3.82,0.25,3.16,3.82,2.25,6.19c-2.07,5.4-4.51,10.67-6.95,15.92c-2.76,5.93-5.89,11.69-8.42,17.71c-0.7,1.67-0.26,4.2,0.53,5.94
		c0.34,0.75,2.95,0.83,4.45,0.63c3.33-0.43,6.6-1.29,9.92-1.82c0.51-0.08,1.41,0.53,1.68,1.05c0.9,1.75-2.14,7.94-4,7.84
		C15.38,260.86,8.34,260.17,0,259.47z"/>
	<path d="M163.34,267.52c2.58,0,4.76,0.32,6.76-0.13c1.04-0.24,2.52-1.85,2.51-2.83c-0.04-3.07-1-6.13-1.05-9.2
		c-0.19-11.8-0.19-23.61-0.17-35.42c0-1.7,0.37-3.47,0.96-5.05c0.25-0.66,1.53-0.94,2.35-1.39c0.36,0.86,1.04,1.73,1.02,2.58
		c-0.25,15.25-0.59,30.49-0.9,45.74c-0.01,0.57,0.09,1.17,0.25,1.72c0.64,2.14,3.32,4.43-0.35,6.25
		C171.58,271.35,165.5,270.36,163.34,267.52z"/>
	<path d="M64.54,212.45c0.27,1.34,0.67,2.39,0.67,3.44c-0.08,13.13-0.21,26.26-0.33,39.4c-0.01,0.72,0.24,1.51,0.01,2.14
		c-2.73,7.62-16,15.93-24.78,8.76c-0.42-0.34-0.72-0.82-1.83-2.12c2.08,0.22,3.3,0.11,4.34,0.5c6.92,2.56,15.18-0.05,17.97-6.61
		c1.3-3.06,0.89-6.93,0.87-10.43c-0.05-9.03-0.41-18.06-0.45-27.09C61,217.6,60.29,214.23,64.54,212.45z"/>
	<path d="M144.11,236.01c0.34,10.1,0.59,20.2,1.07,30.3c0.14,2.92-0.71,4.62-3.72,4.48c-2.94-0.13-5.87-0.6-8.8-0.92
		c0.04-0.67,0.08-1.35,0.12-2.02c1.86-0.09,3.75-0.04,5.58-0.33c1.12-0.18,2.15-0.89,3.22-1.36c-0.63-1-1.26-1.99-1.89-2.99
		c0,0,0.1,0.15,0.1,0.15c0.45-9.37,0.89-18.74,1.36-28.5c1.08,0.47,2.08,0.9,3.08,1.34L144.11,236.01z"/>
	<path d="M203.18,228.73c3.28,2.89,3.92,9.71,1.69,11.54c-0.64,0.53-2.16,0.52-3.04,0.16c-5.11-2.1-6.98-0.88-6.69,4.62
		c0.09,1.74,0.48,3.47,0.41,5.2c-0.06,1.38-0.61,2.74-1.59,4.04c-2.15-5.28-1.98-10.67-0.78-15.87c0.23-0.99,4.48-2.28,5.85-1.54
		c3.8,2.06,3.88-0.21,4.12-2.68C203.3,232.64,203.18,231.06,203.18,228.73z"/>
	<path d="M45.38,212.08c0,13.39,0,26.17,0,39.56C41.35,248.36,41.49,216.16,45.38,212.08z"/>
	<path d="M213.26,258.69c1.28,7.75-1.44,10.65-8.34,10.74c-4.96,0.06-9.91,0.46-14.87,0.52c-1.93,0.02-3.87-0.47-5.8-0.73
		c-0.04-0.45-0.08-0.9-0.12-1.35c1.36-0.26,2.72-0.73,4.09-0.75c5.1-0.1,10.2-0.15,15.3-0.03c4.26,0.1,6.87-1.79,8.15-5.8
		C211.97,260.34,212.72,259.55,213.26,258.69z"/>
	<path d="M261.52,250.43c5.66-12.56,11.31-25.12,17.06-37.88c1.1,2.6-1.25,9.25-6.47,19.82c-3.07,6.21-5.85,12.58-8.76,18.87
		C262.74,250.97,262.13,250.7,261.52,250.43z"/>
	<path d="M12.07,249.83c5.4-12.08,10.8-24.15,16.28-36.44C29.72,216.75,16.81,246.99,12.07,249.83z"/>
	<path d="M254.54,264.15c4.29,0,8.59-0.14,12.87,0.04c4.88,0.21,8.99-0.46,10.08-6.28c0.11-0.61,0.85-1.1,1.35-1.71
		c1.49,3.11-0.69,9.18-3.62,9.45c-6.37,0.59-12.78,0.71-19.18,0.92c-0.57,0.02-1.17-0.68-1.76-1.05
		C254.37,265.06,254.45,264.6,254.54,264.15z"/>
	<path d="M29.61,256.96c0.4,8.01-2.46,10.64-9.75,9.56c-3.58-0.53-7.23-0.51-10.84-0.87c-1.26-0.12-2.48-0.62-3.72-0.95
		c0.07-0.48,0.13-0.96,0.2-1.44c3.61,0.22,7.21,0.52,10.82,0.66c4.91,0.18,10.59,1.72,11.49-5.95c0.03-0.22,0.37-0.45,0.61-0.6
		C28.64,257.23,28.92,257.18,29.61,256.96z"/>
	<path d="M212.79,212.99c0.42,3.4-0.71,6.52-2.67,9.33c-0.38,0.55-2.05,0.8-2.73,0.44c-4.86-2.59-9.41-1.83-13.93,1.16
		c-1.99-2.62-1.39-4.25,1.62-4.49c2.87-0.23,5.83-0.22,8.67,0.22c3.58,0.56,5.59-0.41,6.14-4.17c0.15-1.02,1.05-1.92,1.61-2.88
		C211.93,212.74,212.36,212.86,212.79,212.99z"/>
	<path d="M158.08,235.02c0,3.58,0.28,7.19-0.15,10.71c-0.16,1.32-1.77,2.89-3.11,3.5c-1,0.46-2.63-0.45-3.97-0.75
		c0.91-0.79,1.95-1.47,2.71-2.38c0.93-1.12,1.98-2.33,2.35-3.68c0.67-2.46,0.88-5.04,1.28-7.57
		C157.49,234.91,157.78,234.96,158.08,235.02z"/>
	<path d="M293.03,220.13c-0.29,2.59-0.83,5.19-0.83,7.78c0.01,4.13,0.38,8.26,0.61,12.38c0.07,1.27,0.18,2.54-0.64,4.05
		c-0.46-1.49-1.19-2.95-1.34-4.47c-0.67-6.7-1.52-13.46,2.29-19.66C293.12,220.21,293.03,220.13,293.03,220.13z"/>
	<path d="M84.88,218.72c1.27,0.78,2.15,1.32,3.03,1.86c-0.89,0.51-1.78,1.02-2.68,1.52c-0.12,0.06-0.28,0.04-0.42,0.07
		c-1.35,0.35-2.7,0.7-4.04,1.06c-0.06-0.66-0.41-1.7-0.13-1.91C81.91,220.36,83.35,219.63,84.88,218.72z"/>
	<g>
		<path d="M142.73,159.03h-2.88C140.88,159.28,141.85,159.27,142.73,159.03z"/>
	</g>
	<path d="M273.98,37.27c-10.14-11.56-20.42-23.01-30.77-34.38c-1.24-1.36-12.21-6.88-17.16,2.29c-4.94,9.16-7.52,18.92-13.25,27.27
		c-8.44,12.32-17.53,24.2-26.49,36.16c-6.63,8.86-13.51,17.52-20.21,26.33c-1.23,1.61-2.16,2.65-4.15,0.92
		c-3.51-3.05-7.32-5.76-10.74-8.91c-13.14-12.1-26.4-24.07-39.17-36.54C99.28,37.94,87.2,25.21,78.82,8.76
		C78.47,8.06,67.46,1.77,62.4,9.58c-6.17,9.51-11.52,19.53-17.54,29.13c-2.99,4.77-6.74,9.07-9.93,13.72
		c-0.58,0.85-0.69,2.88-0.09,3.54c2.51,2.8,5.22,5.47,8.13,7.86c9.98,8.21,55.44,42.68,63.47,48.11c2.26,1.53,3.84,1.39,5.45-0.93
		c3.73-5.36,7.66-10.58,11.42-15.92c1.56-2.22,3.33-2.19,5.19-0.69c7,5.64,13.97,11.3,20.83,17.11c0.54,0.45,0.54,2.46,0.01,3.1
		c-5.48,6.59-11.37,12.84-16.64,19.58c-7.23,9.23-4.56,18.14,4.81,23.84c0.79,0.48,1.58,0.8,2.34,0.99h2.88
		c2.17-0.59,3.74-2.58,3.95-5.61c0.59-8.47,4.54-14.79,10.8-20.07c3.1-2.61,5.97-5.49,9.11-8.06c0.61-0.5,2.31-0.53,2.91-0.04
		c5.52,4.46,11.22,8.72,12.81,16.44c0.45,2.16,3.09,5.7,4.28,5.53c3.02-0.43,6.83-1.88,8.49-4.23c5.74-8.1,3.93-16.35-3.85-22.5
		c-3.62-2.86-7.11-5.91-10.4-9.14c-0.74-0.73-1.03-3.14-0.44-3.79c3.8-4.21,7.8-8.26,12.01-12.05c0.78-0.7,3.38-0.6,4.18,0.16
		c4.33,4.06,8.43,8.37,12.47,12.73c1.9,2.04,3.84,3.45,6.34,1.35c3.08-2.59,6.08-5.31,8.87-8.21c2.28-2.38,4.47-4.84,6.65-7.32
		c1.76-1.79,3.11-3.19,3.23-3.33l36.53-43.84c0.01,0.01,0.02,0.02,0.03,0.03c0.13-0.18,0.27-0.37,0.4-0.55l2.35-2.82
		c0.09-0.11,0.04-0.2-0.1-0.29c0.44-0.61,0.87-1.22,1.31-1.83C275.29,40.71,274.82,38.24,273.98,37.27z"/>
	<g>
		<path d="M111.59,190.01l-1.73,7.53h-3.49l-5.6-19.87h5.19l2.34,11.25l1.67-8.16h3.29l1.64,8.19l2.34-11.28h5.19l-5.57,19.87h-3.52
			L111.59,190.01z"/>
		<path d="M124.06,177.67h4.9v19.87h-4.9V177.67z"/>
		<path d="M146.13,197.54h-4.18l-4.44-9.63v9.63h-4.9v-19.87h4.3l4.33,9.61v-9.61h4.9V197.54z"/>
		<path d="M155.86,182.02h-6.66v-4.36h12.81v3.84l-7.12,11.68h7.12v4.35h-13.12v-3.81L155.86,182.02z"/>
		<path d="M164.93,177.67h11.71v4.36h-6.81v3.46h5.85v4.38h-5.85v3.32h6.95v4.35h-11.86V177.67z"/>
		<path d="M193.81,197.54h-5.16l-3.46-6.46h-0.55v6.46h-4.9v-19.87h7.21c4.24,0,5.97,3.4,5.97,6.69c0,2.54-0.92,4.96-3.09,6.09
			L193.81,197.54z M186.37,182.02h-1.73v4.7h1.73c1.36,0,1.64-1.62,1.64-2.34C188.01,183.67,187.72,182.02,186.37,182.02z"/>
		<path d="M196.09,177.67h11.71v4.36H201v3.46h5.85v4.38H201v3.32h6.95v4.35h-11.86V177.67z"/>
		<path d="M210.9,177.67h4.9v19.87h-4.9V177.67z"/>
	</g>
</g>
</svg>
