<?xml version="1.0" encoding="utf-8"?>
<!-- Generator: Adobe Illustrator 23.0.1, SVG Export Plug-In . SVG Version: 6.00 Build 0)  -->
<svg version="1.1" id="Layer_1" xmlns="http://www.w3.org/2000/svg" xmlns:xlink="http://www.w3.org/1999/xlink" height="50px"
	 viewBox="0 0 87.3 57.7" style="enable-background:new 0 0 87.3 57.7;" xml:space="preserve">
<g id="Page-1">
	<g id="austria">
		<path id="Path" d="M37,57.7h-8c0.3-0.4,0.6-0.9,1-1.3c11.4-14,22.9-28,34.4-42C68.3,9.6,72.2,4.8,76.2,0h11.1v57.5H79V10
			c-0.2,0.2-0.3,0.3-0.4,0.5c-2.4,2.9-4.8,5.7-7.2,8.6c-0.3,0.4-0.5,0.8-0.5,1.3c0,12.2,0,24.3,0,36.4v0.8h-8.2V29.4
			c-0.2,0.3-0.4,0.4-0.5,0.6c-6.8,8.2-13.6,16.3-20.4,24.5c-1.2,1.5-2.6,2.8-4.6,3.2C37.2,57.7,37.1,57.7,37,57.7z"/>
		<path d="M8.5,57.7c4.1-4.9,8.2-9.8,12.3-14.7C30,31.8,39.3,20.7,48.6,9.6c2-2.5,4.1-4.9,6.2-7.4c1-1.1,2.1-1.9,3.6-2.2h8.3
			c-0.1,0.1-0.1,0.2-0.2,0.4c-7.1,8.7-14.2,17.3-21.3,26c-8.6,10.5-17.1,20.9-25.6,31.3C15.9,57.7,12.2,57.7,8.5,57.7z"/>
		<g id="Group" transform="translate(0.000000, 71.000000)">
			<path id="Shape" d="M0-23c0.3-0.4,0.6-0.4,1.1-0.2c2.7,1,5.4,1.9,8.2,2.9c0.2,0.1,0.6,0.1,0.4,0.5c-0.1,0.3-0.4,0.5-0.8,0.4
				c-0.5-0.2-1-0.3-1.4-0.5C7.2-20,7-20,6.8-19.7c-0.7,0.8-1.4,1.7-2.1,2.5c-0.2,0.2-0.2,0.4,0,0.7c0.3,0.4,0.5,0.9,0.8,1.3
				c0.2,0.4,0,0.7-0.3,0.8c-0.1,0.1-0.4-0.2-0.5-0.3c-1.4-2.4-2.7-4.8-4.1-7.1c-0.1-0.2-0.3-0.5-0.5-0.7C0-22.6,0-22.8,0-23z
				 M1.5-22.1c0,0-0.1,0.1-0.1,0.1c0.8,1.4,1.7,2.8,2.5,4.3c0.7-0.9,1.4-1.8,2.2-2.6C4.5-20.9,3-21.5,1.5-22.1L1.5-22.1z"/>
			<path d="M25.1-44.8c1.2,0.3,2.5,0.5,3.7,0.8c0.3,0.1,0.6,0,0.6,0.4c0,0.3-0.5,0.6-0.8,0.5c-1.2-0.3-2.4-0.5-3.6-0.8
				c-0.4-0.1-0.7-0.1-1,0.3c-0.3,0.5-0.7,0.8-1.1,1.3c0.9,0.8,1.8,1.5,2.7,2.3c0.3,0.2,0.5,0.5,0.2,0.8c-0.3,0.4-0.6,0.1-0.8-0.1
				c-2.1-1.7-4.1-3.5-6.2-5.2c-0.4-0.3-0.5-0.6-0.1-1c0.7-0.8,1.3-1.6,2-2.4c0.7-0.7,1.5-1.2,2.5-0.9c1,0.3,1.8,0.9,2,2
				C25.3-46,25.2-45.4,25.1-44.8L25.1-44.8z M19.5-44.9c0.9,0.7,1.7,1.4,2.6,2.2c0.6-0.8,1.3-1.6,1.9-2.4c0.5-0.7,0.3-1.5-0.3-2
				c-0.8-0.7-1.7-0.7-2.5,0.1C20.7-46.4,20.2-45.7,19.5-44.9L19.5-44.9z"/>
			<path d="M37.3-53.1c0,0.5-0.4,0.7-0.8,0.6c-0.5-0.2-1-0.4-1.5-0.6c-0.2,0-0.5,0-0.6,0.2c-0.7,0.8-1.4,1.7-2.1,2.6
				c-0.1,0.1-0.1,0.4,0,0.6c0.2,0.4,0.5,0.8,0.7,1.2c0.1,0.1,0.1,0.2,0.2,0.3c0.2,0.4,0,0.6-0.3,0.8c-0.1,0-0.4-0.1-0.5-0.3
				c-0.6-1-1.2-2.1-1.8-3.1c-0.9-1.5-1.7-3-2.6-4.5c-0.2-0.3-0.3-0.5,0-0.8s0.5-0.2,0.8-0.1c2.8,1,5.5,2,8.3,3
				C37.1-53.3,37.2-53.2,37.3-53.1L37.3-53.1z M33.8-53.5c-1.6-0.6-3.1-1.2-4.8-1.8c0.9,1.5,1.7,2.9,2.6,4.4
				C32.3-51.7,33-52.6,33.8-53.5L33.8-53.5z"/>
			<path d="M13.5-25.1c-0.1,1.1-0.8,2.2-2,2.8c-1.2,0.6-2.4,0.4-3.4-0.5c-1.4-1.2-2.9-2.4-4.3-3.6c-0.3-0.2-0.5-0.4-0.2-0.8
				c0.3-0.4,0.6-0.1,0.8,0.1c1.4,1.2,2.9,2.4,4.3,3.6c1.2,1,2.6,0.7,3.5-0.6c0.6-1,0.4-2.1-0.6-3c-1.3-1.1-2.6-2.2-3.9-3.3
				c-0.1-0.1-0.2-0.2-0.4-0.3c-0.3-0.2-0.5-0.5-0.2-0.8c0.3-0.4,0.5-0.2,0.8,0c1.2,1,2.4,2,3.7,3.1c0.4,0.3,0.7,0.6,1,0.9
				C13.3-26.9,13.5-26.2,13.5-25.1L13.5-25.1z"/>
			<path d="M18.9-32.2c0,2.1-1.8,4.1-3.6,4.2c-0.2,0-0.5-0.2-0.5-0.4c-0.1-0.3,0-0.5,0.4-0.6c1.3-0.2,2.1-1,2.6-2.1
				c0.3-0.7,0.2-1.3-0.3-1.8c-0.7-0.7-1.3-0.8-2.1-0.2c-0.6,0.4-1.1,1-1.8,1.4c-1.3,0.9-2.7,0.6-3.5-0.6c-0.5-0.7-0.6-1.4-0.3-2.2
				c0.5-1.2,1.3-2.1,2.6-2.5c0.3-0.1,0.6-0.2,0.8,0.2c0.1,0.4-0.1,0.6-0.5,0.6c-0.9,0.2-1.6,0.8-2,1.7c-0.3,0.7-0.1,1.4,0.5,2
				c0.6,0.5,1.2,0.5,1.9,0.1c0.6-0.5,1.2-1,1.9-1.4c0.8-0.6,1.6-0.7,2.5-0.2C18.4-33.6,18.9-32.8,18.9-32.2L18.9-32.2z"/>
			<path d="M15.6-40.2c-0.5,0.6-0.9,1.1-1.4,1.7c-0.2,0.3-0.4,0.4-0.7,0.1c-0.3-0.2-0.2-0.5,0-0.7l3.4-4.1c0.2-0.2,0.4-0.4,0.7-0.1
				c0.3,0.2,0.2,0.5,0,0.7c-0.5,0.5-0.9,1.1-1.4,1.7c1.1,0.9,2.1,1.8,3.1,2.6c1,0.8,2,1.7,3,2.5c0.2,0.2,0.4,0.4,0.1,0.7
				c-0.3,0.3-0.5,0.2-0.8,0c-1.9-1.6-3.7-3.1-5.6-4.7C16-39.9,15.8-40,15.6-40.2L15.6-40.2z"/>
			<path d="M24.4-52c0.1,0.1,0.2,0.1,0.4,0.2c2.1,1.8,4.3,3.6,6.4,5.3c0.3,0.2,0.4,0.4,0.1,0.7c-0.2,0.3-0.5,0.2-0.7,0
				c-2.1-1.8-4.3-3.6-6.4-5.4C24-51.1,24-51.4,24-51.6c0-0.2,0.2-0.4,0.3-0.4C24.2-52,24.3-52,24.4-52z"/>
		</g>
	</g>
</g>
</svg>
