<?xml version="1.0" encoding="utf-8"?>
<!-- Generator: Adobe Illustrator 23.0.1, SVG Export Plug-In . SVG Version: 6.00 Build 0)  -->
<svg version="1.1" id="Layer_1" xmlns="http://www.w3.org/2000/svg" xmlns:xlink="http://www.w3.org/1999/xlink" height="60px"
	 viewBox="0 0 846.38 1265.47" style="enable-background:new 0 0 846.38 1265.47;" xml:space="preserve">
<g>
	<g>
		<path d="M445.54,371.6c2.66,3.42,7.83,7.02,7.6,10.24c-2.63,36.54-3.36,73.56-10.3,109.34c-4.56,23.54-18.38,45.28-28.1,67.94
			c-26.47-12.57-29.08-19.46-17.55-40.83c20.69-38.32,25.3-78.79,17.3-121.25c-2.33-12.39-8.85-18.79-20.99-22.33
			c-33.69-9.83-67-20.95-100.56-31.2c-14.52-4.44-28.77-12.4-44.86-3c-1.96,1.15-12.84-6.27-13.26-10.37
			c-1.57-15.45-0.9-31.17-0.38-46.77c0.61-18.03,1.88-36.04,2.99-54.05c0.85-13.72-5.86-18.18-18.98-17.89
			c-6.89,0.16-13.87-3.17-23.35-5.57c1.53,10.79-2.33,24.04,11.58,34.23c3.91,2.87,7.28,14.24,6.2,15
			c-20.07,14.09-2.07,31.69-2.12,46.1c-0.06,17.37,13.18,35.47,22.75,52.04c15.56,26.94,32.76,52.94,49.41,79.25
			c2.75,4.35,6.18,8.29,9.44,12.31c19.55,24.12,38.33,48.94,58.98,72.08c17,19.05,35.59,36.84,54.76,53.74
			c10.34,9.12,24.78,12.75,28.31,29.76c1,4.81,13.86,7.62,21.62,10.42c6.31,2.28,13.11,3.17,19.69,4.67
			c-0.11,2.19-0.21,4.37-0.32,6.56c-25.61,1.14-51.22,2.28-81.25,3.62c5.69-6.34,8.31-9.26,10.94-12.2
			c-24.54-19.87-24.37-19.59-50.35-3.54c-39.5,24.4-82.69,33.32-128.88,30.92c-24.19-1.25-48.5-0.22-72.76-0.22
			c-0.25,2.31-0.49,4.61-0.74,6.92c15.65,6.14,31.29,12.29,46.94,18.43c-0.25,1.87-0.51,3.74-0.76,5.6
			c-4.38,0.71-9.04,2.72-13.09,1.86c-8.87-1.89-18.55-3.52-25.93-8.29c-34.65-22.4-71.52-18.48-109.31-12.24
			c-16.4,2.71-33.36,2-50.23,0.1c33.92-3.97,67.84-7.94,101.76-11.92c0.65-1.85,1.3-3.71,1.95-5.56
			c-10.3-9.55-21.29-18.46-30.78-28.77C-0.37,527.1-15.02,422.27,34.16,326.16c7.95-15.54,11.28-29.43,2.78-45.84
			c-5.01-9.66-7.29-20.85-10.07-31.54c-7.45-28.67,8.86-63,36.19-75.62c8.66-4,12.55-7.91,7.11-17.67
			c-4.07-7.3-6.15-15.71-9.04-23.65c-13.32-36.65-3.37-53.59,39.43-58.88C87.89,50.29,76.14,29.26,63.66,6.93
			C71.73,4.51,78.34,2.53,86.79,0c4.26,10.43,8.29,20.28,12.32,30.13c-0.87,0.65-1.74,1.3-2.61,1.95
			c-3.57-3.27-7.13-6.54-13.43-12.32c1.28,7.03,1.19,10.91,2.68,14.04c10.84,22.94,21.98,45.74,33.05,68.56
			c1.42,2.92,3.38,8.39,4.47,8.23c15.16-2.13,13.76,11.93,16.77,18.9c7.51,17.4,17.5,26.9,37.85,25.97
			c8.18-0.37,16.61,6.69,25.06,10.02c71.59,28.24,54.81,23.4,56.8,87.32c0.74,23.78,5.34,47.53,9.5,71.05
			c0.69,3.92,7.68,8.14,12.57,9.68c48.36,15.27,96.79,30.36,145.52,44.37c5.16,1.48,12.39-4.24,18.66-6.63L445.54,371.6z
			 M354.82,569.55c-6.83-10.23-11.26-19.8-18.26-26.81c-21.05-21.09-42.88-41.42-64.82-61.6c-31.57-29.03-63.57-57.6-95.26-86.51
			c-9.49-8.66-16.77-7.23-23.92,3.14c-18.72,27.16-22.55,57.93-19.31,89.24c2.55,24.71,7.25,49.63,14.74,73.27
			c7.63,24.11,17.22,47.16,7.52,71.41c30.56,0,58.34,0,86.12,0c0.09-1.96,0.17-3.93,0.26-5.89c-24.68,0-49.35,0-76.36,0
			c2.54-12.98,4.4-22.51,6.32-32.34C237.04,619.06,296.63,613.67,354.82,569.55z M120.72,607.89
			c-6.21-14.17-17.94-27.86-15.17-37.29c6.05-20.62,1.16-37.28-5.95-55.33c-3.75-9.51-6.59-19.89-7.19-30.03
			c-2.03-34.31-2.47-68.71-4.57-103.01c-0.37-6.08-5.87-16.97-8.92-16.94c-21.27,0.19-25.93-16.64-33.87-30.52
			c-50.21,91.54-29.67,208.26,46.91,273.69C105.4,619.95,113.82,618.82,120.72,607.89z M71.97,288.05
			c-1.48-1.12-2.95-2.23-4.43-3.35c1.57-3.71,2.09-9.01,4.89-10.88c21.31-14.15,14.38-28.46,0.75-42.73
			c-3.65-3.83-8.55-6.47-12.88-9.65c-3.78,5.54-11.28,11.52-10.69,16.55c2.12,17.97,5.04,36.34,11.27,53.22
			c8.72,23.64,20.67,46.08,31.75,70.13c8.52-29.55,11.83-59.03,1.32-91.26C85.41,277.06,78.69,282.56,71.97,288.05z"/>
		<path d="M445.99,371.29c-22.87-2.39-42.78-7.03-56.33-30.27c-22.23-38.12-57.42-61.46-99.84-73.43
			c-11.34-3.2-23.02-6.84-18.92-21.52c4.21-15.03,16.52-13.91,28.85-10.33c63.24,18.41,108.52,57.34,135.37,117.64
			c2.84,6.37,6.8,12.24,10.33,18.28C445.54,371.6,445.99,371.29,445.99,371.29z"/>
		<path d="M362.05,236.54c-31.14-9.84-62.28-19.68-95.79-30.26C288.48,196.84,345.37,213.54,362.05,236.54z"/>
		<path d="M472.37,485.74c-8.88,22.7-17.77,45.39-26.65,68.09c-1.8-0.71-3.6-1.43-5.4-2.14c8.98-22.66,17.96-45.33,26.94-67.99
			C468.96,484.38,470.67,485.06,472.37,485.74z"/>
	</g>
	<g>
		<path d="M65.8,859.72c4.3,4.9,6.45,10.75,6.45,17.55c0,8.3-2.85,15.08-8.55,20.33c-5.7,5.25-14,7.88-24.9,7.88H8.5v-105.6h30.3
			c10.5,0,18.3,2.38,23.4,7.13c5.1,4.75,7.65,10.98,7.65,18.67c0,7.1-1.93,12.73-5.77,16.88c-3.85,4.15-8.78,6.83-14.78,8.02
			C56,851.77,61.5,854.82,65.8,859.72z M11.5,849.07h28.2c8.8,0,15.52-2.07,20.17-6.22c4.65-4.15,6.98-9.87,6.98-17.17
			c0-7-2.3-12.55-6.9-16.65c-4.6-4.1-11.65-6.15-21.15-6.15H11.5V849.07z M61.22,895.72c5.35-4.5,8.02-10.65,8.02-18.45
			c0-7.7-2.75-13.82-8.25-18.38c-5.5-4.55-13-6.83-22.5-6.83h-27v50.4h27.3C48.4,902.47,55.87,900.22,61.22,895.72z"/>
		<path d="M98.5,799.87v105.6h-3v-105.6H98.5z"/>
		<path d="M185.5,876.37h-52.2l-11.1,29.1h-3.45l39.15-102.45h3l39,102.45h-3.45L185.5,876.37z M184.45,873.67l-25.05-65.85
			l-25.05,65.85H184.45z"/>
		<path d="M274.9,799.87v2.7h-30.75v102.9h-3v-102.9H210.4v-2.7H274.9z"/>
		<path d="M365.49,799.87v105.6h-3v-52.95h-65.85v52.95h-3v-105.6h3v49.95h65.85v-49.95H365.49z"/>
		<path d="M396.99,902.77h40.5v2.7h-43.5v-105.6h3V902.77z"/>
		<path d="M528.91,805.79c7.65,4.55,13.62,10.93,17.92,19.13c4.3,8.2,6.45,17.5,6.45,27.9c0,10.4-2.15,19.7-6.45,27.9
			c-4.3,8.2-10.27,14.58-17.92,19.13c-7.65,4.55-16.33,6.83-26.02,6.83c-9.7,0-18.38-2.27-26.03-6.83
			c-7.65-4.55-13.63-10.92-17.92-19.13c-4.3-8.2-6.45-17.5-6.45-27.9c0-10.4,2.15-19.7,6.45-27.9c4.3-8.2,10.27-14.57,17.92-19.13
			c7.65-4.55,16.32-6.83,26.03-6.83C512.59,798.97,521.26,801.24,528.91,805.79z M478.89,807.89c-7.2,4.15-12.88,10.1-17.03,17.85
			c-4.15,7.75-6.22,16.78-6.22,27.07c0,10.3,2.07,19.33,6.22,27.08c4.15,7.75,9.83,13.7,17.03,17.85c7.2,4.15,15.2,6.22,24,6.22
			c8.8,0,16.8-2.07,24-6.22c7.2-4.15,12.87-10.1,17.02-17.85c4.15-7.75,6.23-16.77,6.23-27.08c0-10.3-2.08-19.32-6.23-27.07
			c-4.15-7.75-9.83-13.7-17.02-17.85c-7.2-4.15-15.2-6.22-24-6.22C494.09,801.67,486.09,803.75,478.89,807.89z"/>
		<path d="M649.59,905.47h-3l-65.55-100.05v100.05h-3V800.02h3l65.55,99.9v-99.9h3V905.47z"/>
		<path d="M67,1056.37H14.8l-11.1,29.1H0.25L39.4,983.02h3l39,102.45h-3.45L67,1056.37z M65.95,1053.67L40.9,987.82l-25.05,65.85
			H65.95z"/>
		<path d="M159.4,1085.47l-32.25-46.05h-22.5v46.05h-3v-105.6h26.7c11.5,0,20,2.65,25.5,7.95c5.5,5.3,8.25,12.6,8.25,21.9
			c0,9.4-2.68,16.6-8.03,21.6c-5.35,5-13.18,7.7-23.47,8.1l32.55,46.05H159.4z M104.65,1036.27h23.7c20.5,0,30.75-8.85,30.75-26.55
			c0-8.6-2.4-15.22-7.2-19.88s-12.65-6.97-23.55-6.97h-23.7V1036.27z"/>
		<path d="M187.9,982.57v48.75H232v2.7h-44.1v48.75h48.6v2.7h-51.6v-105.6h51.6v2.7H187.9z"/>
		<path d="M331.29,1085.47h-3l-65.55-100.05v100.05h-3V980.02h3l65.55,99.9v-99.9h3V1085.47z"/>
		<path d="M418.29,1056.37h-52.2l-11.1,29.1h-3.45l39.15-102.45h3l39,102.45h-3.45L418.29,1056.37z M417.24,1053.67l-25.05-65.85
			l-25.05,65.85H417.24z"/>
		<path d="M11.5,1262.77H52v2.7H8.5v-105.6h3V1262.77z"/>
		<path d="M73.75,1162.57v48.75h44.1v2.7h-44.1v48.75h48.6v2.7h-51.6v-105.6h51.6v2.7H73.75z"/>
		<path d="M217.14,1265.47h-3l-65.55-100.05v100.05h-3v-105.45h3l65.55,99.9v-99.9h3V1265.47z"/>
		<path d="M241.44,1262.62h59.25v2.85h-62.55v-2.85l57.9-99.75h-55.95v-3h59.1v3L241.44,1262.62z"/>
		<path d="M324.69,1162.57v48.75h44.1v2.7h-44.1v48.75h48.6v2.7h-51.6v-105.6h51.6v2.7H324.69z"/>
		<path d="M454.29,1265.47l-32.25-46.05h-22.5v46.05h-3v-105.6h26.7c11.5,0,20,2.65,25.5,7.95c5.5,5.3,8.25,12.6,8.25,21.9
			c0,9.4-2.68,16.6-8.03,21.6c-5.35,5-13.18,7.7-23.47,8.1l32.55,46.05H454.29z M399.54,1216.27h23.7c20.5,0,30.75-8.85,30.75-26.55
			c0-8.6-2.4-15.22-7.2-19.88s-12.65-6.97-23.55-6.97h-23.7V1216.27z"/>
		<path d="M551.64,1159.87v105.6h-3v-52.95h-65.85v52.95h-3v-105.6h3v49.95h65.85v-49.95H551.64z"/>
		<path d="M583.14,1162.57v48.75h44.1v2.7h-44.1v48.75h48.6v2.7h-51.6v-105.6h51.6v2.7H583.14z"/>
		<path d="M657.99,1159.87v105.6h-3v-105.6H657.99z"/>
		<path d="M755.78,1251.67c-9.5,9.2-23.35,13.8-41.55,13.8h-27.75v-105.6h27.75c18.2,0,32.05,4.6,41.55,13.8
			c9.5,9.2,14.25,22.2,14.25,39S765.28,1242.47,755.78,1251.67z M753.68,1249.57c8.9-8.8,13.35-21.1,13.35-36.9
			c0-15.8-4.45-28.1-13.35-36.9c-8.9-8.8-22.05-13.2-39.45-13.2h-24.75v100.2h24.75C731.63,1262.77,744.78,1258.37,753.68,1249.57z"
			/>
		<path d="M797.78,1162.57v48.75h44.1v2.7h-44.1v48.75h48.6v2.7h-51.6v-105.6h51.6v2.7H797.78z"/>
	</g>
</g>
</svg>
