<?xml version="1.0" encoding="utf-8"?>
<!-- Generator: Adobe Illustrator 23.0.1, SVG Export Plug-In . SVG Version: 6.00 Build 0)  -->
<svg version="1.1" id="Layer_1" xmlns="http://www.w3.org/2000/svg" xmlns:xlink="http://www.w3.org/1999/xlink" height="25px"
	 viewBox="0 0 782.8 150.36" style="enable-background:new 0 0 782.8 150.36;" xml:space="preserve">
<g>
	<path d="M641.53,32.99c4.74-1.8,11.52-5.55,18.74-6.9c22.87-4.26,40.74,14.78,36.7,37.64c-4.23,23.92-7.83,47.96-11.35,71.99
		c-1.02,6.97-3.32,12.06-10.73,13.83c-9,2.14-14.84-2.65-13.48-11.77c3.58-24.05,7.31-48.08,11.17-72.08
		c1.46-9.12-0.72-13.93-7.75-15.51c-7.42-1.66-16.44,4.02-17.69,11.61c-4.12,25.11-8.13,50.24-11.96,75.39
		c-0.85,5.61-2.62,9.68-8.59,11.62c-10.75,3.49-17.26-1.44-15.52-12.43c3.7-23.43,7.5-46.84,11.32-70.26
		c1.65-10.15-1.07-15.25-8.93-16.38c-7.21-1.04-15.48,5.49-16.7,13.14c-4.04,25.42-8.08,50.84-12.13,76.25
		c-1.14,7.15-8.6,12.11-15.94,10.66c-7.71-1.53-9.09-6.38-7.88-13.48c4.19-24.51,8.02-49.08,12.01-73.62
		c3.35-20.6,22.26-37.61,43.09-36.93C624.03,26.03,632.06,30.19,641.53,32.99z"/>
	<path d="M540.63,26.53c0.83-5.17,1.56-9.69,2.27-14.23c1.73-11.02,14.57-16.21,23.03-8.92c1.89,1.63,2.96,5.64,2.55,8.26
		c-5.39,34.4-11,68.78-16.81,103.11c-3.93,23.25-31.14,40.58-52.68,33.86c-16.14-5.03-24.89-20.5-21.76-36.94
		c3.13-16.42,5.22-33.04,8.17-49.5C490.03,36.28,514.52,20.25,540.63,26.53z M524.76,50.51c-7.68-0.13-13.5,5.02-14.74,12.86
		c-2.61,16.51-5.46,32.99-7.78,49.54c-0.37,2.65,0.66,6.93,2.54,8.14c3.22,2.08,8.69,4.33,11.28,2.93c4.5-2.43,9.73-7.09,10.79-11.7
		c3.73-16.23,5.78-32.85,8.54-49.3C536.57,56,532.07,50.63,524.76,50.51z"/>
	<path d="M699.68,115.25c2.74-17.1,5.05-37.23,9.37-56.93c4.04-18.41,23.09-32.58,41.18-32.95c24.46-0.5,38.99,22.04,29.77,46.17
		c-6.14,16.07-23.51,27.6-42.25,28.25c-5.64,0.2-12.89-2.1-12.86,7.88c0.02,6.87-2.01,14.43,6.82,17.62
		c6.4,2.31,15.18-2.43,17.72-10.41c2-6.29,5.37-10.02,11.69-11.17c9.49-1.73,14.52,3.56,12.35,12.91
		c-5.11,22.07-31.14,37.9-52.1,31.69C708.76,144.57,699.23,131.38,699.68,115.25z M730.39,72.93c4.84,6.45,11.76,4.07,15.7,1.92
		c5.02-2.73,9.6-7.97,11.9-13.32c2.41-5.61-1.59-10.61-6.59-11.61c-5.01-1-11.58,1.37-14.41,4.61
		C732.71,59.42,727.39,68.93,730.39,72.93z"/>
	<path d="M134.95,24.86c18.97,0.15,33.57,17.16,30.79,35.73c-2.56,17.13-4.94,34.28-7.46,51.41c-3.67,24.84-30.63,43.31-53.45,36.68
		c-15.3-4.44-24.32-19.55-21.69-35.48c2.73-16.52,5.08-33.1,7.46-49.68C93.63,42.26,113.7,24.69,134.95,24.86z M129.91,50.4
		c-6.6,0.05-12.42,4.5-13.54,10.9c-2.89,16.44-5.72,32.89-8.28,49.39c-1.32,8.5,2.31,13.73,9.39,14.69
		c5.14,0.7,14.11-5.36,15.04-10.72c2.99-17.33,5.87-34.68,8.44-52.07C142.02,55.33,137.13,50.35,129.91,50.4z"/>
	<path d="M275.95,24.85c19.24,0.02,34,17.47,31,36.31c-2.72,17.11-4.75,34.33-7.7,51.4c-5.04,29.24-34.58,42.13-53.76,36.02
		c-14.25-4.54-23.63-19.38-21.43-34.27c2.57-17.42,5.02-34.86,7.67-52.27C234.72,42.35,255.65,24.83,275.95,24.85z M282.04,62.33
		c0.88-7.04-2.6-10.61-8.9-11.66c-7.19-1.2-14.35,3.3-15.62,10.28c-3.08,16.99-5.68,34.05-8.6,51.07
		c-1.31,7.67,2.97,11.46,9.39,13.21c5.46,1.49,14.34-4.8,15.43-11.05C276.75,96.86,279.33,79.47,282.04,62.33z"/>
	<path d="M445.83,24.84c19.08-0.01,34.1,17.5,31.15,36.35c-4.09,26.21-8.21,52.41-12.29,78.62c-1.06,6.84-8.33,11.57-16.29,10.22
		c-7.15-1.22-9.79-4.76-8.38-12.69c4.25-23.83,7.46-47.85,11.34-71.75c1.44-8.9-0.43-13.47-7.09-14.72
		c-8.43-1.59-16.3,3.3-17.58,11.38c-3.81,24.2-7.52,48.41-11.07,72.65c-1.79,12.21-10.81,18.71-20.73,13.85
		c-2.51-1.23-5.41-5.62-5.06-8.13c3.8-27.41,7.45-54.89,12.7-82.04C406.19,39.7,426.74,24.85,445.83,24.84z"/>
	<path d="M339.25,150.11c-20.13-0.18-34.18-18.14-30.76-39.3c3.99-24.74,7.96-49.49,11.92-74.23c1.45-9.02,11.25-14.28,19.68-10.62
		c5.38,2.33,6.62,5.82,5.58,11.76c-4.21,24.14-7.89,48.37-11.5,72.61c-1.36,9.1,1.92,14.38,8.5,15.1
		c6.31,0.69,14.75-5.52,15.81-12.14c3.64-22.76,6.92-45.58,10.72-68.31c1.04-6.24-0.53-14.59,7.18-17.3
		c4.9-1.72,11.19-1.72,16.22-0.29c6,1.71,3.38,7.24,2.62,11.78c-4.15,25-7.86,50.08-12.13,75.06
		C379.6,134.71,360.21,150.3,339.25,150.11z"/>
	<path d="M83.97,56.1c-0.03,11.75-6.53,17.69-17.23,15.61c-4.66-0.91-8.03-2.94-7.59-8.64c0.54-7.08-2.53-11.94-9.94-12.66
		c-7.05-0.69-14.66,4.62-15.71,11.02c-2.61,15.91-4.72,31.91-7.34,47.82c-1.21,7.33-0.54,13.47,7.63,15.92
		c6.04,1.81,13.47-3.6,16.9-10.8c1.72-3.61,4.37-8.27,7.61-9.3c4.39-1.4,10.46-1.1,14.4,1.06c2.18,1.19,2.63,7.89,1.86,11.7
		c-4.31,21.29-32.01,37.18-52.61,30.65c-13.9-4.4-23.88-20.29-21.61-34.53C3.13,96.3,6.05,78.68,8.83,61.04
		c3.72-23.6,34.11-42.62,54.94-34.32C76.51,31.78,84,42.68,83.97,56.1z"/>
	<path d="M197.09,71.85c-3.68,22.34-7.37,43.89-10.73,65.49c-1.19,7.63-4.97,12.11-12.74,12.75c-9.94,0.82-13.52-3.46-11.8-14.62
		c5.02-32.49,10.73-64.89,15.15-97.46c2.62-19.28,20.77-36.29,44.6-37.51c2.02-0.1,4.06-0.07,6.08-0.02
		c5.89,0.13,12.07-0.23,12.54,8.24c0.5,9.08-3.88,15.12-11.95,16.22c-1.43,0.19-2.89,0.2-4.34,0.21
		c-17.78,0.14-20.78,2.9-23.29,22.24c4.07,0,8.04-0.02,12,0c5.98,0.03,11.19,1.38,11.83,8.56c0.71,8.02-4.45,15.18-11.54,15.81
		C208.03,72.19,203.1,71.85,197.09,71.85z"/>
</g>
</svg>
