<?xml version="1.0" encoding="utf-8"?>
<!-- Generator: Adobe Illustrator 23.0.1, SVG Export Plug-In . SVG Version: 6.00 Build 0)  -->
<svg version="1.1" id="Layer_1" xmlns="http://www.w3.org/2000/svg" xmlns:xlink="http://www.w3.org/1999/xlink" height="25px"
	 viewBox="0 0 1390.55 197.85" style="enable-background:new 0 0 1390.55 197.85;" xml:space="preserve">
<g>
	<path d="M263.66,46.89c-3.69,0.31-7.22,2.6-12.68,4.71c-21.72-15.44-55.69-7.77-69.22,20.75c-6.75,14.23-6.82,29.12-3.67,44.12
		c4.8,22.9,25.36,40.17,48.54,39.12c9.33-0.42,18.47-4.86,27.69-7.47c0,4.99,0,11.14,0,17.9c-14.73,0-28.87,0.07-43-0.02
		c-23.48-0.15-23.25-0.19-23.34,23.58c-0.02,6.68,2.35,8.33,8.62,8.27c27.51-0.27,55.03-0.09,82.54-0.14c2.51,0,5.01-0.41,7.58-0.63
		c0-50.42,0-100.06,0-150.38C278.63,46.7,271.1,46.26,263.66,46.89z M231.8,124.12c-12.91-0.15-22.84-10.71-22.86-24.32
		c-0.03-14.51,8.87-23.97,22.66-24.11c13.88-0.14,23.11,9.23,23.21,23.54C254.9,113.73,245.15,124.28,231.8,124.12z"/>
	<path d="M70.53,21.6C47.57,18.11,23.95,18.97,0,17.87c0,46.36,0,90.85,0,136.66c17.41,0,33.91,0.53,50.37-0.1
		c39.91-1.53,65.77-26.65,68.89-66.21C121.55,59.23,98.76,25.9,70.53,21.6z M84.42,98.28c-4.09,14.25-17.5,24.08-34.09,24.99
		c-17.45,0.96-17.44,0.96-17.43-16.17c0.01-15.94-0.03-31.87-0.01-47.81c0-2.81,0.24-5.62,0.53-11.92
		c15.13-0.38,27.62,0.27,38.13,5.62C85.76,60.23,89.21,81.59,84.42,98.28z"/>
	<path d="M547.55,52.71v-1.71c0-2.76-2.25-5.01-5.01-5.01h-22.98c-2.47,0-4.52,1.82-4.93,4.18c-0.53,0.23-1.06,0.46-1.59,0.66
		c0.15,0.94,0.3,1.88,0.44,2.82c-0.97-0.52-2-0.96-2.9-1.57c-16.22-11.13-40.02-10.33-54.82,2.39
		c-21.07,18.11-23.57,41.27-16.85,66.44c8.42,31.53,47.43,46.54,71.84,27.37c0.8-0.63,2.06-0.69,3.38-1.11
		c0.14,0.46,0.27,0.9,0.41,1.35v1.46c0,1.4,0.59,2.67,1.52,3.58c0.12,0.38,0.23,0.76,0.35,1.16c0.52,0,1.03-0.01,1.55-0.01
		c0.5,0.17,1.03,0.29,1.59,0.29h22.98c2.76,0,5.01-2.25,5.01-5.01v-2.37c0.01-0.46,0.02-0.93,0.01-1.43
		c-0.01-0.59-0.01-1.19-0.01-1.78V63.94C547.81,59.98,548.11,55.9,547.55,52.71z M491.29,125.26
		c-13.09-0.14-23.14-11.29-22.87-25.37c0.28-14.79,9.78-24.48,23.71-24.19c11.54,0.24,20.68,8.8,22.42,20.22v8.12
		C512.75,116.34,503.13,125.39,491.29,125.26z"/>
	<path d="M826.07,44.26c-32.75-0.13-56.43,23.42-56.44,56.15c-0.01,32.12,23.66,55.82,55.89,55.96
		c27.08,0.68,56.28-15.39,55.27-58.02C880.05,67.57,857.31,44.39,826.07,44.26z M844.41,83.42c-12.38,0-24.34,0-37.1,0
		C813.23,68.71,837.38,68.01,844.41,83.42z M854.98,110.96c-3.27,0.51-7.21,2.81-9.01,5.52c-5.62,8.47-13.57,12.41-24.53,10.78
		c-9.54-1.43-15.14-7.02-17.67-18.3c22.97,0,45.77,0,68.56,0c0.04,0.59,0.07,1.17,0.11,1.76
		C866.62,110.71,860.68,110.07,854.98,110.96z"/>
	<path d="M667.35,19.64c0,2.84,0,4.84,0,6.83c0.04,34.49,0.09,68.98,0.11,103.47c0,3.58,0.01,6.62,0.08,9.24v10.81
		c0,2.76,2.25,5.01,5.01,5.01h22.98c2.26,0,4.16-1.52,4.78-3.58c0.58-1.4,0.74-3.26,0.64-5.65c-0.48-11.86,0.14-23.78-0.4-35.64
		c0-0.08,0-0.15-0.01-0.23v-1.79c0.09-1.84,0.48-3.18,1.27-4.11h50.72c2.76,0,5.01-2.25,5.01-5.01V76.01c0-0.85-0.23-1.64-0.61-2.35
		c-0.01-0.81-0.01-1.62-0.01-2.45c-1.01,0-2.01,0-3.02,0c-0.44-0.13-0.89-0.21-1.37-0.21H701.3c0-7.19,0-13.4,0-21.06
		c3.32,0,6.14-0.01,8.96,0c14.78,0.03,29.57,0.29,44.34-0.13c2.43-0.07,6.66-2.99,6.84-4.89c0.76-8.26,0.33-16.64,0.33-25.29
		C729.9,19.64,698.9,19.64,667.35,19.64z"/>
	<path d="M1201.26,46.53c-5.34-0.31-7.77,1.78-9.25,6.63c-4.88,16.03-9.99,31.98-15.08,47.94c-0.6,1.89-1.64,3.64-3.37,7.41
		c-6.28-19.81-11.7-37.43-17.57-54.89c-0.9-2.68-3.76-6.47-5.95-6.64c-9.46-0.74-19-0.31-29.22-0.31c0,2.22-0.22,3.13,0.03,3.89
		c10.99,32.88,21.89,65.78,33.28,98.52c0.87,2.5,5.08,5.09,7.97,5.39c7.45,0.76,15.05-0.04,22.56,0.37
		c5.16,0.29,7.77-1.51,9.42-6.44c10.64-31.77,21.54-63.45,32.26-95.2c0.6-1.77,0.32-3.83,0.51-6.53
		C1217.94,46.66,1209.57,47.01,1201.26,46.53z"/>
	<path d="M594.96,7.53c-4.6-4.18-15.15-1.61-23.06-2.41c-6.84-0.69-9.03,1.76-8.89,8.74c0.43,21.72,0.16,43.45,0.16,65.17
		c0.01,0,0.02,0,0.03,0c0,22.59,0.17,45.19-0.11,67.78c-0.08,6.09,1.9,8.41,7.99,7.96c5.47-0.4,11.04-0.53,16.49,0.01
		c7.34,0.73,9.33-2.09,9.27-9.29c-0.33-38.52-0.12-77.05-0.21-115.57C596.59,22.17,598.98,11.18,594.96,7.53z"/>
	<path d="M337.27,82.67c-0.02-11.52,0-23.05,0-36.01c-10.63,0-19.87-0.28-29.07,0.25c-1.72,0.1-4.66,3.41-4.67,5.25
		c-0.28,32.14-0.31,64.29,0.06,96.43c0.02,2.07,3.61,5.57,5.87,5.86c6.27,0.81,12.73-0.08,19.07,0.39c6.72,0.5,9.17-1.7,9.02-8.75
		C337.08,124.95,337.3,103.81,337.27,82.67z"/>
	<path d="M164.74,100.85c-0.03,0-0.07,0-0.1,0c0-9.54,0.14-19.09-0.04-28.62c-0.16-8.26,0.53-22.65-1.05-24.23c-3-3-17-2-25-2
		c-5.62,0-7.53,2.09-7.48,7.92c0.27,30.93,0.27,61.87,0.03,92.81c-0.04,5.89,2.1,8.27,4.45,8.27c3,0,14.51,0.18,22,0
		c6.17,0.43,7.47-2.13,7.32-8.18C164.49,131.5,164.74,116.17,164.74,100.85z"/>
	<path d="M1113.55,52.82v-1.82c0-2.76-2.25-5.01-5.01-5.01h-22.98c-2.29,0-4.22,1.57-4.81,3.68c0,0.01-0.01,0.02-0.01,0.03
		c-0.03,0.12-0.07,0.23-0.1,0.35c-0.3,1.07-0.41,2.38-0.38,3.96c0.33,15.34,0.11,30.68,0.11,46.03c-0.01,0-0.02,0-0.03,0
		c0,15.92,0.16,31.85-0.09,47.76c-0.05,3.52,0.72,5.61,2.83,6.52c0.73,0.42,1.57,0.68,2.46,0.68h22.98c2.76,0,5.01-2.25,5.01-5.01
		V65.97C1113.89,61.27,1114.32,56.36,1113.55,52.82z"/>
	<path d="M147.21,0.03c-10.65-0.01-19.64,8.79-19.52,19.1c0.12,10.6,8.43,18.01,20.22,18.04c11.73,0.03,19.81-7.42,19.79-18.24
		C167.69,8.01,159.05,0.04,147.21,0.03z"/>
	<path d="M319.42,0.01C308.81,0,299.99,8.75,300.1,19.17c0.12,10.89,8.04,17.92,20.14,17.86c12.27-0.05,19.4-6.75,19.41-18.22
		C339.65,7.58,331.51,0.02,319.42,0.01z"/>
	<path d="M1095.19,0.02c-10.69,0.42-19.49,9.52-19.02,19.66c0.47,10.14,9.57,17.8,20.84,17.55c11.69-0.27,19.4-7.89,19.11-18.89
		C1115.83,7.32,1106.96-0.45,1095.19,0.02z"/>
	<path d="M423.86,122.99h-29.31v-46h28.31c2.58,0,4.69-2.11,4.69-4.69V51.69c0-2.58-2.11-4.69-4.69-4.69h-28.31V28.32
		c0-2.38-1.95-4.33-4.33-4.33h-24.34c-2.38,0-4.33,1.95-4.33,4.33v18.67h-12.31c-2.58,0-4.69,2.11-4.69,4.69V72.3
		c0,2.58,2.11,4.69,4.69,4.69h12.31v50.69v22.62v0.36c0,2.38,1.95,4.33,4.33,4.33h0.36h23.98h33.64c2.58,0,4.69-2.11,4.69-4.69
		v-22.62C428.55,125.11,426.44,122.99,423.86,122.99z"/>
	<path d="M1335.54,46.99h-0.47c-4.93-1.11-11.95,0.12-17.59-0.37c-2.77-0.24-5.29-0.23-7.02,0.85c-1.71,0.8-2.91,2.53-2.91,4.53
		v1.59c-24.67-16.51-52.04-8.19-64.64,6.68c-17.18,20.27-18.22,56.37-1.63,77.72c15.65,20.14,37.32,23.43,66.27,9.21v3.78
		c0,2.76,2.25,5.01,5.01,5.01h22.98c2.76,0,5.01-2.25,5.01-5.01V64.55c0.35-4.66,0.88-9.6-0.04-12.92
		C1340.31,49.05,1338.17,46.99,1335.54,46.99z M1307.55,107.62c-2.93,10.3-11.8,17.66-22.42,17.63
		c-12.53-0.04-23.48-11.77-23.42-25.09c0.06-13.71,10.51-24.51,23.68-24.46c10.78,0.04,19.31,6.91,22.17,16.93V107.62z"/>
	<path d="M1385.54,4.99h-22.98c-0.49,0-0.96,0.09-1.41,0.23c-1.12,0.01-2.24,0.01-3.37,0.01c0,1.11,0,2.22,0,3.33
		c-0.14,0.46-0.24,0.94-0.24,1.44v139.98c0,0.5,0.1,0.98,0.24,1.44c0,1.09,0,2.17,0,3.25c1.06,0,2.1,0.01,3.13,0.01
		c0.52,0.18,1.07,0.3,1.65,0.3h22.98c2.76,0,5.01-2.25,5.01-5.01V10.01C1390.55,7.25,1388.29,4.99,1385.54,4.99z"/>
	<path d="M1063.54,45.99h-28.99V28.01c0-2.76-2.25-5.01-5.01-5.01h-22.98c-2.76,0-5.01,2.25-5.01,5.01v17.99h-11.99
		c-2.76,0-5.01,2.25-5.01,5.01v22.98c0,2.76,2.25,5.01,5.01,5.01h11.99v70.99c0,2.76,2.25,5.01,5.01,5.01h22.98
		c2.76,0,5.01-2.25,5.01-5.01V78.99h28.99c2.76,0,5.01-2.25,5.01-5.01V51.01C1068.55,48.25,1066.29,45.99,1063.54,45.99z"/>
	<path d="M971.54,83.99h-23.98h-23.01v-10h45.99c2.76,0,5.01-2.25,5.01-5.01V51.01c0-2.76-2.25-5.01-5.01-5.01h-51h-22.98
		c-2.76,0-5.01,2.25-5.01,5.01v17.98v20.02v18.98c0,2.76,2.25,5.01,5.01,5.01h22.98h23.01v14h-45.99c-2.76,0-5.01,2.25-5.01,5.01
		v17.98c0,2.76,2.25,5.01,5.01,5.01h51h23.98c2.76,0,5.01-2.25,5.01-5.01v-17.98v-24.02V89.01
		C976.55,86.25,974.29,83.99,971.54,83.99z"/>
</g>
</svg>
