<?xml version="1.0" encoding="utf-8"?>
<!-- Generator: Adobe Illustrator 23.0.1, SVG Export Plug-In . SVG Version: 6.00 Build 0)  -->
<svg version="1.1" id="Layer_1" xmlns="http://www.w3.org/2000/svg" xmlns:xlink="http://www.w3.org/1999/xlink" height="25px"
	 viewBox="0 0 1846.4 363.67" style="enable-background:new 0 0 1846.4 363.67;" xml:space="preserve">
<g>
	<path d="M5.09,18.94C5.09,7.67,13.92,0,25.77,0c11.85,0,20.68,7.67,20.68,18.94c0,11.04-8.83,18.94-20.68,18.94
		C13.92,37.87,5.09,29.97,5.09,18.94z M8.92,62.85h33.46v142.66H8.92V62.85z"/>
	<path d="M90.82,62.85h27.42l2.56,19.28h0.93c12.78-12.43,27.3-22.77,46.82-22.77c30.55,0,43.91,20.68,43.91,56.69v89.45H179v-85.16
		c0-23.47-6.74-32.3-22.19-32.3c-12.55,0-20.8,6.16-32.53,17.77v99.68H90.82V62.85z"/>
	<path d="M259.28,62.85h27.42l2.56,19.28h0.93c12.78-12.43,27.3-22.77,46.82-22.77c30.55,0,43.91,20.68,43.91,56.69v89.45h-33.46
		v-85.16c0-23.47-6.74-32.3-22.19-32.3c-12.55,0-20.79,6.16-32.53,17.77v99.68h-33.46V62.85z"/>
	<path d="M418.32,134.3c0-47.52,32.3-74.93,67.85-74.93c35.55,0,67.85,27.42,67.85,74.93c0,47.28-32.3,74.7-67.85,74.7
		C450.62,209,418.32,181.58,418.32,134.3z M519.63,134.3c0-28.58-12.55-47.63-33.46-47.63s-33.46,19.05-33.46,47.63
		s12.55,47.4,33.46,47.4S519.63,162.88,519.63,134.3z"/>
	<path d="M573.47,62.85h33.92l22.65,74c3.95,14.06,8.13,28.69,12.08,42.98h1.16c3.95-14.29,8.13-28.93,12.08-42.98l22.65-74h32.3
		l-48.44,142.66H623.2L573.47,62.85z"/>
	<path d="M727.35,167.18c0-30.55,25.33-46.47,83.88-52.74c-0.46-15.33-6.62-28.11-25.91-28.11c-14.17,0-27.53,6.39-40.08,14.06
		l-12.31-22.31c15.68-9.87,35.9-18.7,58.55-18.7c35.67,0,53.21,21.96,53.21,61.69v84.46h-27.42l-2.56-15.8h-0.93
		C801,200.63,786.37,209,769.52,209C744.54,209,727.35,192.04,727.35,167.18z M811.23,167.29v-32.06
		c-38.69,4.88-51.58,14.99-51.58,29.39c0,12.6,8.6,18.12,20.56,18.12C791.83,182.74,800.66,177.05,811.23,167.29z"/>
	<path d="M891.04,157.42V89.45h-20.33V64.36l22.07-1.51l3.95-38.92h27.77v38.92h36.36v26.6H924.5v67.9
		c0,16.79,6.51,25.04,20.21,25.04c4.88,0,10.69-1.63,14.87-3.25l5.69,24.63c-7.78,2.56-17.72,5.23-29.16,5.23
		C903.24,209,891.04,188.2,891.04,157.42z"/>
	<path d="M992.86,18.94c0-11.27,8.83-18.94,20.68-18.94c11.85,0,20.68,7.67,20.68,18.94c0,11.04-8.83,18.94-20.68,18.94
		C1001.7,37.87,992.86,29.97,992.86,18.94z M996.7,62.85h33.46v142.66H996.7V62.85z"/>
	<path d="M1069.19,134.3c0-47.52,32.3-74.93,67.85-74.93c35.55,0,67.85,27.42,67.85,74.93c0,47.28-32.3,74.7-67.85,74.7
		C1101.49,209,1069.19,181.58,1069.19,134.3z M1170.49,134.3c0-28.58-12.55-47.63-33.46-47.63s-33.46,19.05-33.46,47.63
		s12.55,47.4,33.46,47.4S1170.49,162.88,1170.49,134.3z"/>
	<path d="M1243.86,62.85h27.42l2.56,19.28h0.93c12.78-12.43,27.3-22.77,46.82-22.77c30.55,0,43.91,20.68,43.91,56.69v89.45h-33.46
		v-85.16c0-23.47-6.74-32.3-22.19-32.3c-12.55,0-20.79,6.16-32.53,17.77v99.68h-33.46V62.85z"/>
	<path d="M1476.21,168.8V0.35h33.46v170.19c0,8.25,3.72,11.15,7.2,11.15c1.51,0,2.67,0,5.23-0.58l4.18,24.98
		c-4.07,1.63-9.64,2.9-17.66,2.9C1484.92,209,1476.21,193.66,1476.21,168.8z"/>
	<path d="M1553.06,167.18c0-30.55,25.33-46.47,83.88-52.74c-0.46-15.33-6.62-28.11-25.91-28.11c-14.17,0-27.53,6.39-40.08,14.06
		l-12.31-22.31c15.68-9.87,35.9-18.7,58.55-18.7c35.67,0,53.21,21.96,53.21,61.69v84.46h-27.42l-2.56-15.8h-0.93
		c-12.78,10.92-27.42,19.29-44.26,19.29C1570.25,209,1553.06,192.04,1553.06,167.18z M1636.93,167.29v-32.06
		c-38.69,4.88-51.58,14.99-51.58,29.39c0,12.6,8.6,18.12,20.56,18.12C1617.53,182.74,1626.36,177.05,1636.93,167.29z"/>
	<path d="M1746.6,190.53h-0.93l-2.9,14.99h-26.37V0.35h33.46v53.09l-0.93,23.7c11.91-10.46,26.55-17.77,41.18-17.77
		c35.67,0,56.29,28.58,56.29,72.44c0,48.97-29.16,77.2-60.88,77.2C1772.51,209,1758.57,202.38,1746.6,190.53z M1812.01,132.32
		c0-28.46-9.29-45.31-31.02-45.31c-10.34,0-20.33,5.23-31.13,16.03v66.45c9.99,8.71,20.33,11.85,28.58,11.85
		C1797.49,181.35,1812.01,164.62,1812.01,132.32z"/>
</g>
<g>
	<path d="M0,258.39h56.58v6.21H7.22v39.16h41.45v6.21H7.22v45.6h50.93v6.21H0V258.39z"/>
	<path d="M102.41,308.25l-28.87-49.87h7.81l17.07,30.47c2.76,4.71,4.96,8.38,8.35,14.12h0.63c3.04-5.74,4.96-9.42,7.69-14.12
		l16.98-30.47h7.4l-28.87,50.27l31.01,53.13h-7.81l-18.05-31.76c-2.79-5.05-5.84-10.11-9.48-16.38h-0.63
		c-3.33,6.28-6.09,11.33-8.85,16.38l-17.98,31.76h-7.4L102.41,308.25z"/>
	<path d="M162.74,258.39h26.05c23.41,0,37.47,7.59,37.47,28.81c0,20.29-13.81,30.13-36.84,30.13h-19.46v44.47h-7.22V258.39z
		 M187.59,311.24c21.12,0,31.23-7.03,31.23-24.04c0-17.29-10.48-22.72-31.85-22.72h-17.01v46.76H187.59z"/>
	<path d="M252.03,258.39h7.22v97.19h47.64v6.21h-54.86V258.39z"/>
	<path d="M318.67,309.76c0-32.73,17.73-53.25,42.59-53.25s42.58,20.54,42.58,53.25c0,32.73-17.73,53.91-42.58,53.91
		S318.67,342.49,318.67,309.76z M396.28,309.76c0-28.68-14.03-46.7-35.02-46.7c-21,0-35.02,18.01-35.02,46.7
		s14.03,47.36,35.02,47.36C382.25,357.12,396.28,338.44,396.28,309.76z"/>
	<path d="M430.78,258.39h29.56c20.56,0,34.02,7.53,34.02,27.3c0,18.84-13.46,28.62-34.02,28.62H438v47.48h-7.22V258.39z
		 M458.46,308.22c18.3,0,28.47-7.25,28.47-22.53c0-15.57-10.17-21.21-28.47-21.21H438v43.75H458.46z M458.73,312.19l6.9-2.07
		l30.71,51.67h-8.38L458.73,312.19z"/>
	<path d="M519.29,258.39h56.58v6.21h-49.36v39.16h41.45v6.21h-41.45v45.6h50.93v6.21h-58.15V258.39z"/>
	<path d="M598.54,356.68c0-4.58,3.2-7.28,6.65-7.28s6.65,2.7,6.65,7.28c0,4.3-3.2,7-6.65,7S598.54,360.97,598.54,356.68z"/>
	<path d="M634.1,309.88c0-32.79,17.89-53.38,44.18-53.38c12.08,0,21.37,5.99,26.89,12.36l-4.24,4.83
		c-5.59-6.37-13.15-10.64-22.6-10.64c-22.66,0-36.69,18.05-36.69,46.73c0,28.75,13.87,47.33,36.09,47.33
		c10.67,0,18.64-4.36,26.14-12.74l4.24,4.52c-7.93,9.2-17.29,14.78-30.75,14.78C651.9,363.67,634.1,342.74,634.1,309.88z"/>
	<path d="M732.4,258.39h7.22v45.31h55.29v-45.31h7.22v103.4h-7.22v-51.78h-55.29v51.78h-7.22V258.39z"/>
	<path d="M858.26,258.39h7.22l36.43,103.4h-7.66l-20.65-60.88c-4.2-12.27-7.84-23.11-11.48-35.71h-0.63
		c-3.61,12.62-7.25,23.44-11.45,35.71l-20.93,60.88h-7.28L858.26,258.39z M838.46,320.26h46.37v6.04h-46.37V320.26z"/>
	<path d="M921.35,258.39h7.22v97.19h47.64v6.21h-54.86V258.39z"/>
	<path d="M997.78,258.39h7.22v97.19h47.64v6.21h-54.86V258.39z"/>
	<path d="M1074.2,258.39h56.58v6.21h-49.36v39.16h41.45v6.21h-41.45v45.6h50.93v6.21h-58.15V258.39z"/>
	<path d="M1158.16,258.39h7.56l43.5,72.9l11.7,20.65h0.63c-0.41-10.14-0.91-20.15-0.91-30.16v-63.39h6.81v103.4h-7.56l-43.49-72.92
		l-11.71-20.63h-0.63c0.41,9.92,0.91,19.3,0.91,29.31v64.24h-6.81V258.39z"/>
	<path d="M1254.46,309.88c0-32.79,18.45-53.38,45.75-53.38c13.93,0,22.66,6.56,28.18,12.36l-4.24,4.83
		c-5.3-5.81-12.58-10.64-23.85-10.64c-23.69,0-38.29,18.05-38.29,46.73c0,28.75,13.84,47.33,37.41,47.33
		c9.32,0,18.11-2.89,23.1-7.82v-32.2h-24.67v-6.15h31.57v41.02c-6.37,6.9-16.98,11.7-30.56,11.7
		C1272.28,363.67,1254.46,342.74,1254.46,309.88z"/>
	<path d="M1359.19,258.39h56.58v6.21h-49.36v39.16h41.45v6.21h-41.45v45.6h50.93v6.21h-58.15V258.39z"/>
	<path d="M1438.44,356.68c0-4.58,3.2-7.28,6.65-7.28c3.45,0,6.65,2.7,6.65,7.28c0,4.3-3.2,7-6.65,7
		C1441.65,363.67,1438.44,360.97,1438.44,356.68z"/>
	<path d="M1480.66,258.39h23.91c31.92,0,47.04,20.08,47.04,51.37s-15.12,52.03-46.88,52.03h-24.07V258.39z M1503.85,355.67
		c28.02,0,40.2-18.96,40.2-45.91c0-26.96-12.18-45.25-40.2-45.25h-15.97v91.16H1503.85z"/>
	<path d="M1599.45,258.39h7.22l36.43,103.4h-7.66l-20.65-60.88c-4.2-12.27-7.84-23.11-11.48-35.71h-0.63
		c-3.61,12.62-7.25,23.44-11.45,35.71l-20.93,60.88h-7.28L1599.45,258.39z M1579.65,320.26h46.37v6.04h-46.37V320.26z"/>
	<path d="M1662.54,258.39h29.56c20.56,0,34.02,7.53,34.02,27.3c0,18.84-13.46,28.62-34.02,28.62h-22.34v47.48h-7.22V258.39z
		 M1690.22,308.22c18.3,0,28.46-7.25,28.46-22.53c0-15.57-10.17-21.21-28.46-21.21h-20.46v43.75H1690.22z M1690.49,312.19l6.9-2.07
		l30.71,51.67h-8.38L1690.49,312.19z"/>
	<path d="M1751.05,258.39h56.58v6.21h-49.36v39.16h41.45v6.21h-41.45v45.6h50.93v6.21h-58.15V258.39z"/>
	<path d="M1830.31,356.68c0-4.58,3.2-7.28,6.65-7.28c3.45,0,6.65,2.7,6.65,7.28c0,4.3-3.2,7-6.65,7
		C1833.51,363.67,1830.31,360.97,1830.31,356.68z"/>
</g>
</svg>
