<?xml version="1.0" encoding="utf-8"?>
<!-- Generator: Adobe Illustrator 23.0.1, SVG Export Plug-In . SVG Version: 6.00 Build 0)  -->
<svg version="1.1" id="Layer_1" xmlns="http://www.w3.org/2000/svg" xmlns:xlink="http://www.w3.org/1999/xlink" height="25px"
	 viewBox="0 0 758.59 214.17" style="enable-background:new 0 0 758.59 214.17;" xml:space="preserve">
<path d="M0,117.8v-5.6c12.6-1.2,14-2.2,14-15.8V55.2C14,42.8,13.4,42,1.4,40v-4.8c10.4-1.8,19.8-4.4,28.4-8c0,8.4,0,16.8,0,25.2v44
	c0,13.6,1.4,14.6,14.4,15.8v5.6H0z"/>
<path d="M111.8,117.8v-5.6c11.6-1.2,12.8-2.6,12.8-16.2V63c0-14-5-23.4-18.2-23.4c-8.2,0-16,4.8-22.2,10.4v46.8
	c0,13.8,1.2,14.2,13,15.4v5.6H54v-5.6c13.2-1.4,14.4-2.2,14.4-15.4V55.6c0-13-1.4-13.6-12.2-15.4V35c9.8-1.6,19.6-4.2,28-8
	c0,4.6,0,11,0,15.8c4-2.8,8.4-5.8,13.6-9.2c5.6-3.6,10.8-6,16.6-6c16,0,26,11.8,26,31.2v38c0,13.6,1.2,14.2,12.8,15.4v5.6H111.8z"/>
<path d="M248.4,35.4c-10.8,1.4-12.2,3-17.4,15c-6.6,16-18,42.6-28.4,69.6h-5.8c-8.4-23-18.2-46.8-27.6-70.2
	c-4.6-11.6-6.2-12.8-16.6-14.4V30h40.8v5.4c-11,1.4-11.4,2.8-8.2,11.4c5,13.8,13.4,35,19,49c7.2-17.8,13.8-34.2,18.2-47
	c3.4-9.8,2.8-12-10.4-13.4V30h36.4V35.4z"/>
<path d="M325.2,100.8c-12.8,16-26.8,19.4-33.2,19.4c-24.4,0-39.2-20-39.2-43c0-13.6,4.8-26.2,13-35c8.4-9.4,19.4-14.6,29.8-14.6
	c17.4,0,30.6,15,30.6,31c-0.2,4-0.8,5.8-4,6.6c-4,0.8-29.6,2.6-53.4,3.4c-0.6,26.8,15.8,37.8,30,37.8c8.2,0,15.8-3.4,23.2-10.2
	L325.2,100.8z M290.8,35.2c-9.2,0-18.2,8.6-21,24.8c11.2,0,22.4,0,34.2-0.6c3.6,0,4.8-1,4.8-4C309,44.8,302,35.2,290.8,35.2z"/>
<path d="M390.4,53.8c-3.6-11.6-8.8-19.6-21-19.6c-7,0-12.4,5-12.4,13c0,8.6,5.8,12.6,17,17.8c17.2,8.2,25.8,14.2,25.8,27.4
	c0,18.4-16.8,27.8-32.6,27.8c-10.4,0-19.6-3.2-23.8-5.6c-1-5.8-2.8-16.8-3.6-23.4l5.8-1c3.6,12.8,10.6,23.2,24.6,23.2
	c7.6,0,14-5.2,14-13.6c0-9-5.4-13.6-16-18.8c-14-6.8-25.4-13.2-25.4-27.6c0-14.6,12.4-25.8,31.2-25.8c8.4,0,15.2,2,19.2,2.6
	c0.6,4.8,2,17.4,3,22.2L390.4,53.8z"/>
<path d="M450.2,117.6c-3.4,1.8-6.6,2.6-8.6,2.6c-12.8,0-19.6-7.8-19.6-23.8V38.2h-13.8l-0.8-2.4l5.4-5.8h9.2V13.2
	c3.8-4,9.6-9.2,13.4-13.2l3,0.4c-0.4,8.4-0.6,20-0.6,29.6h22.8c1.8,2,1.2,6.4-1.2,8.2h-21.6v51.2c0,16.2,6.4,19.2,11.6,19.2
	c4.8,0,9.4-1.8,12.2-3.2l1.8,5.2L450.2,117.6z"/>
<path d="M471.59,117.8v-5.6c12.6-1.2,14-2.2,14-15.8V55.2c0-12.4-0.6-13.2-12.6-15.2v-4.8c10.4-1.8,19.8-4.4,28.4-8
	c0,8.4,0,16.8,0,25.2v44c0,13.6,1.4,14.6,14.4,15.8v5.6H471.59z"/>
<path d="M598.59,100.8c-12.8,16-26.8,19.4-33.2,19.4c-24.4,0-39.2-20-39.2-43c0-13.6,4.8-26.2,13-35c8.4-9.4,19.4-14.6,29.8-14.6
	c17.4,0,30.6,15,30.6,31c-0.2,4-0.8,5.8-4,6.6c-4,0.8-29.6,2.6-53.4,3.4c-0.6,26.8,15.8,37.8,30,37.8c8.2,0,15.8-3.4,23.2-10.2
	L598.59,100.8z M564.19,35.2c-9.2,0-18.2,8.6-21,24.8c11.2,0,22.4,0,34.2-0.6c3.6,0,4.8-1,4.8-4
	C582.39,44.8,575.39,35.2,564.19,35.2z"/>
<path d="M657.59,117.8h-46v-5.6c12.6-1.2,13.8-2.2,13.8-15.2V55.4c0-13.2-0.8-13.8-12.4-15.2v-5c9.8-1.6,18.8-4,28.2-8.2
	c0,6.6,0,15.4,0,22c7-10.4,15.4-21.4,25.4-21.4c7.4,0,11.6,4.6,11.6,9.6c0,4.6-3.2,9-6.8,11c-2,1.2-3.6,1-5.2-0.4c-3-3-5.4-5-9-5
	c-4.2,0-11.6,6.2-16,16.4v37.6c0,13.2,1,14.2,16.4,15.4V117.8z"/>
<path d="M757.59,100.8c-12.8,16-26.8,19.4-33.2,19.4c-24.4,0-39.2-20-39.2-43c0-13.6,4.8-26.2,13-35c8.4-9.4,19.4-14.6,29.8-14.6
	c17.4,0,30.6,15,30.6,31c-0.2,4-0.8,5.8-4,6.6c-4,0.8-29.6,2.6-53.4,3.4c-0.6,26.8,15.8,37.8,30,37.8c8.2,0,15.8-3.4,23.2-10.2
	L757.59,100.8z M723.19,35.2c-9.2,0-18.2,8.6-21,24.8c11.2,0,22.4,0,34.2-0.6c3.6,0,4.8-1,4.8-4
	C741.39,44.8,734.39,35.2,723.19,35.2z"/>
<g>
	<path d="M20.71,194.31l11.25-31.34h4.2l-13.81,36.98h-3.32L5.15,162.96h4.2L20.71,194.31z"/>
	<path d="M58.13,200.63c-3.14,0-5.99-0.77-8.53-2.32c-2.54-1.55-4.52-3.71-5.93-6.48c-1.41-2.77-2.12-5.87-2.12-9.31v-1.47
		c0-3.55,0.69-6.76,2.07-9.6c1.38-2.85,3.3-5.09,5.76-6.72c2.46-1.63,5.13-2.44,8-2.44c4.49,0,8.05,1.53,10.68,4.6
		c2.63,3.06,3.95,7.25,3.95,12.56v2.29H45.62v0.79c0,4.19,1.2,7.69,3.61,10.48c2.4,2.79,5.43,4.19,9.07,4.19
		c2.19,0,4.12-0.4,5.79-1.2c1.67-0.8,3.2-2.07,4.56-3.83l2.56,1.95C68.21,198.45,63.85,200.63,58.13,200.63z M57.38,165.77
		c-3.08,0-5.67,1.13-7.78,3.38c-2.11,2.26-3.39,5.29-3.85,9.09h22.18v-0.44c-0.11-3.55-1.13-6.45-3.04-8.68
		C62.98,166.88,60.48,165.77,57.38,165.77z"/>
	<path d="M85.27,162.96l0.14,6.32c1.39-2.28,3.12-4.02,5.2-5.21c2.07-1.2,4.36-1.79,6.87-1.79c3.96,0,6.92,1.12,8.85,3.35
		c1.94,2.23,2.92,5.58,2.94,10.05v24.27h-4.07v-24.3c-0.02-3.3-0.72-5.76-2.1-7.38c-1.38-1.62-3.58-2.43-6.61-2.43
		c-2.53,0-4.77,0.79-6.72,2.38c-1.95,1.58-3.39,3.72-4.32,6.41v25.33h-4.07v-36.98H85.27z"/>
	<path d="M127.58,153.5v9.47h7.66v3.35h-7.66v24.67c0,2.05,0.37,3.58,1.11,4.59c0.74,1,1.98,1.51,3.71,1.51
		c0.68,0,1.79-0.11,3.32-0.34l0.17,3.32c-1.07,0.38-2.53,0.58-4.38,0.58c-2.8,0-4.84-0.81-6.12-2.44c-1.28-1.63-1.91-4.03-1.91-7.19
		v-24.68h-6.8v-3.35h6.8v-9.47H127.58z"/>
	<path d="M168.9,195.26c-2.46,3.58-6.39,5.37-11.79,5.37c-3.94,0-6.94-1.15-8.99-3.44s-3.1-5.68-3.14-10.17v-24.06h4.07v23.55
		c0,7.04,2.85,10.56,8.54,10.56c5.92,0,9.67-2.45,11.25-7.35v-26.76h4.1v36.98h-3.96L168.9,195.26z"/>
	<path d="M202.06,166.45c-0.87-0.16-1.79-0.24-2.77-0.24c-2.55,0-4.71,0.71-6.48,2.14c-1.77,1.42-3.02,3.49-3.78,6.2v25.4h-4.07
		v-36.98h4l0.07,5.88c2.16-4.38,5.64-6.56,10.42-6.56c1.14,0,2.04,0.15,2.7,0.44L202.06,166.45z"/>
	<path d="M223.59,200.63c-3.14,0-5.99-0.77-8.53-2.32c-2.54-1.55-4.52-3.71-5.93-6.48c-1.41-2.77-2.12-5.87-2.12-9.31v-1.47
		c0-3.55,0.69-6.76,2.07-9.6c1.38-2.85,3.3-5.09,5.76-6.72c2.46-1.63,5.13-2.44,8-2.44c4.49,0,8.05,1.53,10.68,4.6
		c2.63,3.06,3.95,7.25,3.95,12.56v2.29h-26.39v0.79c0,4.19,1.2,7.69,3.61,10.48c2.4,2.79,5.43,4.19,9.07,4.19
		c2.19,0,4.12-0.4,5.79-1.2c1.67-0.8,3.2-2.07,4.56-3.83l2.56,1.95C233.67,198.45,229.31,200.63,223.59,200.63z M222.84,165.77
		c-3.08,0-5.67,1.13-7.78,3.38c-2.11,2.26-3.39,5.29-3.85,9.09h22.18v-0.44c-0.11-3.55-1.13-6.45-3.04-8.68
		C228.44,166.88,225.94,165.77,222.84,165.77z"/>
	<path d="M278.92,197.18c2.85,0,5.23-0.8,7.16-2.41c1.93-1.61,2.97-3.69,3.13-6.24h3.93c-0.11,2.26-0.82,4.31-2.12,6.17
		c-1.3,1.86-3.02,3.31-5.18,4.36s-4.46,1.57-6.92,1.57c-4.85,0-8.7-1.69-11.54-5.06c-2.84-3.37-4.26-7.91-4.26-13.6v-1.23
		c0-3.65,0.64-6.87,1.91-9.67c1.28-2.8,3.1-4.97,5.49-6.49c2.38-1.53,5.17-2.29,8.36-2.29c4.06,0,7.4,1.21,10.03,3.62
		c2.63,2.42,4.04,5.59,4.22,9.54h-3.93c-0.18-2.89-1.23-5.23-3.13-7.01c-1.9-1.78-4.3-2.67-7.19-2.67c-3.69,0-6.56,1.33-8.6,4
		c-2.04,2.67-3.06,6.4-3.06,11.21v1.2c0,4.72,1.02,8.4,3.06,11.04C272.33,195.86,275.21,197.18,278.92,197.18z"/>
	<path d="M326.06,199.95c-0.41-1.16-0.67-2.88-0.79-5.16c-1.44,1.87-3.26,3.31-5.49,4.32s-4.57,1.52-7.06,1.52
		c-3.55,0-6.43-0.99-8.63-2.97c-2.2-1.98-3.3-4.49-3.3-7.52c0-3.6,1.5-6.45,4.49-8.54c3-2.1,7.17-3.14,12.53-3.14h7.42v-4.2
		c0-2.64-0.81-4.72-2.44-6.24c-1.63-1.52-4-2.27-7.13-2.27c-2.85,0-5.21,0.73-7.08,2.19c-1.87,1.46-2.8,3.21-2.8,5.26l-4.1-0.03
		c0-2.94,1.37-5.49,4.1-7.64s6.1-3.23,10.08-3.23c4.12,0,7.38,1.03,9.76,3.09c2.38,2.06,3.61,4.94,3.67,8.63v17.5
		c0,3.58,0.38,6.25,1.13,8.03v0.41H326.06z M313.2,197.01c2.73,0,5.18-0.66,7.33-1.98c2.15-1.32,3.72-3.09,4.7-5.3v-8.13h-7.31
		c-4.08,0.05-7.27,0.79-9.57,2.24c-2.3,1.45-3.45,3.44-3.45,5.96c0,2.07,0.77,3.79,2.31,5.16S310.74,197.01,313.2,197.01z"/>
	<path d="M371.34,181.83c0,5.77-1.28,10.34-3.83,13.72c-2.55,3.38-5.97,5.08-10.25,5.08c-5.06,0-8.93-1.78-11.62-5.33v18.87h-4.07
		v-51.2h3.79l0.21,5.23c2.67-3.94,6.53-5.91,11.59-5.91c4.42,0,7.89,1.67,10.41,5.02c2.52,3.35,3.78,8,3.78,13.95V181.83z
		 M367.24,181.11c0-4.72-0.97-8.44-2.91-11.18c-1.94-2.73-4.64-4.1-8.1-4.1c-2.51,0-4.66,0.6-6.46,1.81
		c-1.8,1.21-3.18,2.96-4.14,5.26v17.74c0.98,2.12,2.38,3.74,4.2,4.85c1.82,1.12,3.98,1.67,6.46,1.67c3.44,0,6.12-1.37,8.05-4.12
		C366.28,190.31,367.24,186.33,367.24,181.11z"/>
	<path d="M381.56,152.28c0-0.77,0.25-1.42,0.75-1.95c0.5-0.53,1.18-0.8,2.05-0.8c0.87,0,1.56,0.27,2.07,0.8
		c0.51,0.53,0.77,1.18,0.77,1.95s-0.26,1.42-0.77,1.94s-1.2,0.78-2.07,0.78c-0.87,0-1.55-0.26-2.05-0.78
		C381.81,153.7,381.56,153.05,381.56,152.28z M386.38,199.95h-4.1v-36.98h4.1V199.95z"/>
	<path d="M405.25,153.5v9.47h7.66v3.35h-7.66v24.67c0,2.05,0.37,3.58,1.11,4.59c0.74,1,1.98,1.51,3.71,1.51
		c0.68,0,1.79-0.11,3.32-0.34l0.17,3.32c-1.07,0.38-2.53,0.58-4.38,0.58c-2.8,0-4.84-0.81-6.12-2.44c-1.28-1.63-1.91-4.03-1.91-7.19
		v-24.68h-6.8v-3.35h6.8v-9.47H405.25z"/>
	<path d="M446.12,199.95c-0.41-1.16-0.67-2.88-0.79-5.16c-1.44,1.87-3.26,3.31-5.49,4.32s-4.57,1.52-7.06,1.52
		c-3.55,0-6.43-0.99-8.63-2.97c-2.2-1.98-3.3-4.49-3.3-7.52c0-3.6,1.5-6.45,4.49-8.54c3-2.1,7.17-3.14,12.53-3.14h7.42v-4.2
		c0-2.64-0.81-4.72-2.44-6.24c-1.63-1.52-4-2.27-7.13-2.27c-2.85,0-5.21,0.73-7.08,2.19c-1.87,1.46-2.8,3.21-2.8,5.26l-4.1-0.03
		c0-2.94,1.37-5.49,4.1-7.64s6.1-3.23,10.08-3.23c4.12,0,7.38,1.03,9.76,3.09c2.38,2.06,3.61,4.94,3.67,8.63v17.5
		c0,3.58,0.38,6.25,1.13,8.03v0.41H446.12z M433.27,197.01c2.73,0,5.18-0.66,7.33-1.98c2.15-1.32,3.72-3.09,4.7-5.3v-8.13h-7.31
		c-4.08,0.05-7.27,0.79-9.57,2.24c-2.3,1.45-3.45,3.44-3.45,5.96c0,2.07,0.77,3.79,2.31,5.16S430.81,197.01,433.27,197.01z"/>
	<path d="M466.25,199.95h-4.1v-52.5h4.1V199.95z"/>
</g>
</svg>
