<?xml version="1.0" encoding="utf-8"?>
<!-- Generator: Adobe Illustrator 23.0.1, SVG Export Plug-In . SVG Version: 6.00 Build 0)  -->
<svg version="1.1"
	 id="svg5358" xmlns:cc="http://creativecommons.org/ns#" xmlns:dc="http://purl.org/dc/elements/1.1/" xmlns:inkscape="http://www.inkscape.org/namespaces/inkscape" xmlns:rdf="http://www.w3.org/1999/02/22-rdf-syntax-ns#" xmlns:sodipodi="http://sodipodi.sourceforge.net/DTD/sodipodi-0.dtd" xmlns:svg="http://www.w3.org/2000/svg"
	 xmlns="http://www.w3.org/2000/svg" xmlns:xlink="http://www.w3.org/1999/xlink" height="25px" viewBox="0 0 1033.75 220.7"
	 style="enable-background:new 0 0 1033.75 220.7;" xml:space="preserve">
<path id="path5056" d="M1033.75,99.84V81.66h-22.58V53.39l-0.76,0.23l-21.21,6.49l-0.42,0.13v21.42h-33.47V69.73
	c0-5.56,1.24-9.81,3.69-12.64c2.43-2.8,5.91-4.22,10.34-4.22c3.19,0,6.49,0.75,9.81,2.23l0.83,0.37V36.32l-0.39-0.14
	c-3.1-1.11-7.32-1.67-12.54-1.67c-6.59,0-12.57,1.43-17.79,4.27c-5.22,2.84-9.33,6.9-12.21,12.07c-2.87,5.16-4.32,11.11-4.32,17.7
	v13.12h-15.72v18.18h15.72v76.59h22.57V99.84h33.47v48.67c0,20.04,9.46,30.2,28.1,30.2c3.07,0,6.29-0.36,9.58-1.06
	c3.35-0.72,5.63-1.44,6.98-2.21l0.3-0.18v-18.35l-0.92,0.61c-1.22,0.82-2.75,1.48-4.54,1.98c-1.8,0.51-3.3,0.76-4.46,0.76
	c-4.37,0-7.6-1.18-9.61-3.5c-2.03-2.34-3.06-6.44-3.06-12.18V99.84L1033.75,99.84L1033.75,99.84z M866.63,160.26
	c-8.19,0-14.65-2.72-19.2-8.07c-4.58-5.38-6.9-13.04-6.9-22.78c0-10.05,2.32-17.91,6.9-23.39c4.55-5.44,10.95-8.19,19.01-8.19
	c7.83,0,14.05,2.64,18.52,7.84c4.48,5.23,6.76,13.03,6.76,23.2c0,10.29-2.14,18.2-6.36,23.48
	C881.17,157.59,874.87,160.26,866.63,160.26 M867.64,79.38c-15.63,0-28.04,4.58-36.89,13.61c-8.84,9.03-13.33,21.53-13.33,37.15
	c0,14.84,4.38,26.77,13.01,35.47c8.63,8.7,20.38,13.1,34.92,13.1c15.15,0,27.31-4.64,36.16-13.8c8.84-9.15,13.33-21.53,13.33-36.79
	c0-15.07-4.21-27.09-12.5-35.73C894.03,83.76,882.36,79.38,867.64,79.38 M781.04,79.37c-10.63,0-19.42,2.72-26.14,8.08
	c-6.76,5.39-10.18,12.47-10.18,21.03c0,4.45,0.74,8.4,2.2,11.75c1.47,3.36,3.73,6.32,6.74,8.81c2.99,2.46,7.6,5.05,13.72,7.67
	c5.14,2.12,8.97,3.9,11.41,5.32c2.38,1.38,4.07,2.77,5.02,4.12c0.93,1.32,1.4,3.13,1.4,5.37c0,6.37-4.77,9.46-14.58,9.46
	c-3.64,0-7.79-0.76-12.34-2.26c-4.55-1.5-8.8-3.65-12.63-6.41l-0.94-0.67v21.73l0.34,0.16c3.19,1.47,7.22,2.72,11.96,3.7
	c4.74,0.98,9.04,1.48,12.78,1.48c11.53,0,20.82-2.73,27.6-8.13c6.82-5.43,10.28-12.67,10.28-21.53c0-6.39-1.86-11.87-5.53-16.28
	c-3.64-4.38-9.97-8.4-18.78-11.96c-7.03-2.82-11.53-5.16-13.38-6.96c-1.79-1.74-2.7-4.19-2.7-7.3c0-2.76,1.12-4.96,3.42-6.75
	c2.32-1.8,5.55-2.71,9.6-2.71c3.76,0,7.61,0.59,11.43,1.76c3.82,1.16,7.18,2.72,9.98,4.63l0.92,0.63V83.5l-0.35-0.15
	c-2.59-1.11-6-2.06-10.14-2.83C788.03,79.76,784.29,79.37,781.04,79.37 M685.88,160.26c-8.19,0-14.65-2.72-19.2-8.07
	c-4.58-5.38-6.9-13.04-6.9-22.78c0-10.05,2.32-17.91,6.9-23.39c4.55-5.44,10.95-8.19,19.01-8.19c7.82,0,14.05,2.64,18.51,7.84
	c4.48,5.23,6.76,13.03,6.76,23.2c0,10.29-2.14,18.2-6.36,23.48C700.42,157.59,694.12,160.26,685.88,160.26 M686.89,79.38
	c-15.63,0-28.04,4.58-36.89,13.61c-8.84,9.03-13.33,21.53-13.33,37.15c0,14.84,4.38,26.77,13.01,35.47
	c8.63,8.7,20.38,13.1,34.92,13.1c15.15,0,27.31-4.64,36.16-13.8c8.84-9.15,13.33-21.53,13.33-36.79c0-15.07-4.21-27.09-12.51-35.73
	C713.28,83.76,701.6,79.38,686.89,79.38 M602.41,98.07V81.66h-22.29v94.77h22.29v-48.48c0-8.24,1.87-15.01,5.56-20.13
	c3.64-5.05,8.49-7.61,14.42-7.61c2.01,0,4.26,0.33,6.7,0.99c2.42,0.65,4.17,1.36,5.2,2.1l0.94,0.68V81.5l-0.36-0.15
	c-2.08-0.88-5.01-1.33-8.73-1.33c-5.6,0-10.61,1.8-14.91,5.34c-3.77,3.11-6.49,7.39-8.58,12.71
	C602.65,98.07,602.41,98.07,602.41,98.07z M540.2,79.37c-10.23,0-19.35,2.19-27.11,6.52c-7.77,4.33-13.79,10.52-17.88,18.39
	c-4.07,7.85-6.14,17.01-6.14,27.24c0,8.95,2.01,17.17,5.97,24.41c3.96,7.25,9.58,12.93,16.68,16.87c7.09,3.93,15.29,5.93,24.37,5.93
	c10.59,0,19.64-2.12,26.89-6.29l0.29-0.17v-20.42l-0.94,0.68c-3.28,2.39-6.96,4.3-10.91,5.68c-3.94,1.38-7.53,2.07-10.68,2.07
	c-8.75,0-15.77-2.74-20.87-8.13c-5.11-5.4-7.7-12.99-7.7-22.54c0-9.61,2.7-17.39,8.03-23.13c5.31-5.72,12.34-8.63,20.91-8.63
	c7.33,0,14.47,2.48,21.22,7.38l0.93,0.68V84.37l-0.3-0.17c-2.54-1.42-6.01-2.6-10.31-3.49C548.37,79.82,544.18,79.37,540.2,79.37
	 M473.71,81.66h-22.29v94.77h22.29V81.66z M462.8,41.29c-3.67,0-6.87,1.25-9.5,3.72c-2.64,2.48-3.98,5.61-3.98,9.3
	c0,3.63,1.32,6.7,3.94,9.11c2.6,2.41,5.81,3.63,9.54,3.63c3.73,0,6.95-1.22,9.58-3.63c2.65-2.42,3.99-5.49,3.99-9.12
	c0-3.56-1.3-6.65-3.88-9.19C469.92,42.57,466.66,41.29,462.8,41.29 M407.18,74.67v101.76h22.75V44.19h-31.49l-40.02,98.22
	l-38.84-98.22h-32.77v132.24h21.38V74.66h0.73l41.01,101.77h16.13l40.37-101.76L407.18,74.67L407.18,74.67z"/>
<path id="path5058" d="M104.87,104.87H0V0h104.87V104.87z"/>
<path id="path5060" d="M220.65,104.87H115.79V0h104.87V104.87z"/>
<path id="path5062" d="M104.86,220.7H0V115.83h104.86V220.7z"/>
<path id="path5064" d="M220.65,220.7H115.79V115.83h104.87V220.7z"/>
</svg>
