<?xml version="1.0" encoding="utf-8"?>
<!-- Generator: Adobe Illustrator 23.0.1, SVG Export Plug-In . SVG Version: 6.00 Build 0)  -->
<svg version="1.1" id="Layer_1" xmlns="http://www.w3.org/2000/svg" xmlns:xlink="http://www.w3.org/1999/xlink" height="25px"
	 viewBox="0 0 786.38 171.48" style="enable-background:new 0 0 786.38 171.48;" xml:space="preserve">
<path d="M0,70.48c4.09-16.53,12.89-28.76,30.27-33.11c2.5-0.62,5.08-1.3,7.62-1.31c24.06-0.11,48.13-0.09,72.19-0.07
	c1.38,0,2.76,0.32,4.47,0.53c-1.3,8.3-2.54,16.26-3.95,25.31c-13.56,0-27.11-0.17-40.65,0.06c-8.95,0.15-17.92,0.68-26.84,1.44
	c-6.42,0.54-9.98,4.5-9.97,10.96c0.01,5.96,3.01,9.89,9.21,10.68c12.91,1.64,25.8,3.56,38.76,4.69c21.85,1.9,35.23,13.71,36.8,33.25
	c2.04,25.37-6.84,39.26-29.56,44.83c-8.07,1.98-16.51,3.09-24.82,3.27c-19.7,0.44-39.42,0.09-59.14,0.04c-0.54,0-1.08-0.32-2.9-0.88
	c1.4-8.16,2.82-16.5,4.44-25.97c10.82,0,21.45,0.05,32.08-0.01c10.44-0.06,20.87-0.09,31.3-0.4c10.83-0.33,15.75-4.1,16.15-11.84
	c0.43-8.36-4.43-13.22-14.69-14.75c-12.3-1.83-24.6-3.58-36.88-5.54C15.14,108.66,4.56,97.03,0,79.18C0,76.28,0,73.38,0,70.48z"/>
<path d="M227.71,63.32c2.02-9.61,3.79-18.03,5.64-26.83c21.57,0,42.74-1.19,63.73,0.31c24.59,1.76,40.03,20.11,40.21,44.97
	c0.16,22.58,0.11,45.17,0.01,67.75c-0.07,16.29-5.53,21.77-22.07,21.69c-20.54-0.1-41.11-0.05-61.62-0.99
	c-30.09-1.39-37.44-20.45-35.47-45.54c1.9-24.11,15.22-36.16,39.74-36.74c14.93-0.35,29.88,0.56,45.66,0.93
	c4.16-8.84,0.04-20.23-10.82-23.51c-5.41-1.63-11.37-1.86-17.09-1.95C260.03,63.16,244.41,63.32,227.71,63.32z M304.56,145.42
	c0-8.64,1.16-17.48-0.48-25.75c-0.83-4.19-6.4-10.02-10.39-10.52c-11.37-1.42-23.08-1.09-34.58-0.28
	c-7.87,0.55-11.54,7.09-11.77,17.63c-0.23,10.49,3.82,18.28,11.62,18.69C273.87,145.99,288.87,145.42,304.56,145.42z"/>
<path d="M452.84,5.22c10.8-1.74,21.24-3.42,32.43-5.22c0,12.18,0,23.68,0,36.07c16.42,0,32.2,0,49.53,0
	c-1.81,9.45-3.14,17.84-5.28,26.03c-0.33,1.28-4.29,2.24-6.6,2.28c-12.14,0.22-24.29,0.1-37.7,0.1c0,8-0.01,15.43,0,22.85
	c0.03,13.62-0.19,27.24,0.18,40.85c0.32,11.6,3.52,15.28,14.84,16.01c10.6,0.68,21.27,0.15,32.91,0.15
	c-1.66,9.85-3.05,18.02-4.52,26.75c-16.5,0-32.74,0.85-48.85-0.23c-16.98-1.13-26.8-13.35-27.08-33.43
	c-0.6-42.3-0.46-84.6-0.58-126.9C452.12,8.86,452.56,7.19,452.84,5.22z"/>
<path d="M204.47,145.2c-1.8,8.97-3.41,17.06-5.19,25.93c-14.52,0-29.01,0.94-43.32-0.26c-15.29-1.28-24.62-14.64-25.2-34.45
	c-0.55-19.1-0.42-38.22-0.5-57.33c-0.08-20.27-0.04-40.55-0.05-60.82c0-3.68,0-7.36,0-11.26c11.58-1.79,22.01-3.4,33.29-5.14
	c0,11.66,0,22.56,0,34.18c16.52,0,32.32,0,49.57,0c-1.91,9.51-3.62,18.02-5.45,27.13c-14.57,0-28.66,0-44.18,0
	c0,6.04-0.07,11.4,0.01,16.77c0.26,16.77-0.19,33.6,1.15,50.28c0.91,11.31,5.16,14.23,16.5,14.87
	C188.6,145.54,196.11,145.2,204.47,145.2z"/>
<path d="M386.28,171.12c-11.3,0-21.6,0-32.94,0c0-3.99,0-7.66,0-11.33c0-26.93-0.13-53.87,0.05-80.8
	c0.18-27.04,15.91-42.62,42.72-42.67c13.57-0.02,27.15,0,41.41,0c0,9.61,0,18.63,0,28.48c-9.69,0-19.18-0.11-28.67,0.03
	c-16.27,0.24-21.38,4.35-21.98,21.08c-0.88,24.59-0.45,49.22-0.58,73.83C386.26,163.2,386.28,166.66,386.28,171.12z"/>
<path d="M782.24,37.42c1.52,7.61-2.24,8.85-7.75,8.8c-14.2-0.14-28.41-0.27-42.6-0.01c-6.62,0.12-13.3,0.7-19.8,1.9
	c-13.23,2.45-17.96,8.9-17.95,23.25c0,14.68,4.3,20.82,17.85,23.17c16.21,2.81,32.69,4.12,48.82,7.27
	c19.3,3.78,27.01,14.86,25.37,36.78c-1.46,19.46-9.14,30.49-28.82,31.31c-23.65,0.98-47.38,0.23-71.61,0.23
	c-1.9-5.51,0.53-7.54,6.69-7.51c19.13,0.1,38.27,0.24,57.38-0.29c23.1-0.64,34.31-18.54,25.42-40.17
	c-4.27-10.4-13.98-12.07-23.55-13.37c-13.74-1.87-27.59-2.99-41.24-5.3c-18.1-3.06-28.33-17.53-26.75-36.55
	c1.32-15.91,13.85-27.21,31.13-27.8c19.68-0.67,39.37-1.16,59.06-1.71C776.71,37.36,779.54,37.42,782.24,37.42z"/>
<path d="M558.49,36.61c3.16,0,5.37,0,8.03,0c0.23,1.68,0.59,3.05,0.59,4.42c0.05,28.96-0.03,57.93,0.09,86.89
	c0.09,22.23,8.51,32.32,30.34,34.09c11.71,0.95,23.72,0.12,35.43-1.32c11.79-1.45,19.86-10.11,21.02-22.01
	c1.21-12.35,1.42-24.83,1.56-37.25c0.23-21.12,0.06-42.24,0.06-63.95c2.85-0.35,5.3-0.65,7.82-0.96c0.46,1.14,1.04,1.9,1.05,2.66
	c0.06,30.41,0.52,60.83-0.07,91.23c-0.49,25.1-13.35,38.45-40.34,40.47c-13.6,1.02-27.72-0.58-41.17-3.22
	c-15.03-2.95-23.88-13.64-24.19-28.83C558.02,105.02,558.49,71.18,558.49,36.61z"/>
</svg>
