<?xml version="1.0" encoding="utf-8"?>
<!-- Generator: Adobe Illustrator 23.0.1, SVG Export Plug-In . SVG Version: 6.00 Build 0)  -->
<svg version="1.1" id="Layer_1" xmlns="http://www.w3.org/2000/svg" xmlns:xlink="http://www.w3.org/1999/xlink" height="40px"
	 viewBox="0 0 811.01 369.54" style="enable-background:new 0 0 811.01 369.54;" xml:space="preserve">
<path d="M239.85,183.55c0,66.39-53.65,120.12-119.92,120.1C53.37,303.63-0.03,249.78,0,182.72C0.03,117.28,54.03,63.74,119.98,63.76
	C186.32,63.79,239.85,117.28,239.85,183.55z M53.16,238.45c1.63,0,2.57,0,3.5,0c4.64,0,9.29-0.12,13.92,0.05
	c2.27,0.09,3.39-0.69,4.35-2.75c14.23-30.84,28.56-61.64,42.86-92.45c0.62-1.33,1.29-2.63,2.12-4.33c0.57,1.07,0.95,1.72,1.27,2.41
	c2.98,6.34,5.96,12.68,8.9,19.03c11.64,25.1,23.3,50.19,34.87,75.32c0.95,2.05,2.08,2.86,4.36,2.77c4.72-0.17,9.46-0.04,14.19-0.06
	c0.9,0,1.79-0.13,3.15-0.23c-22.26-47.89-44.3-95.32-66.68-143.49C97.58,142.88,75.54,190.31,53.16,238.45z"/>
<path d="M707.22,143.55c8.04,11.68,15.99,23.23,24.32,35.35c-5.61,0-10.58-0.3-15.5,0.09c-4.09,0.33-6.43-1.15-8.61-4.56
	c-5.46-8.56-11.44-16.79-17.05-25.24c-1.38-2.08-2.91-2.97-5.38-2.73c-2.17,0.21-4.38,0.16-6.56,0.01c-2.14-0.15-2.9,0.55-2.87,2.79
	c0.11,8.93-0.04,17.87,0.1,26.8c0.04,2.39-0.73,3-2.99,2.9c-3.76-0.17-7.53-0.16-11.29-0.01c-2.13,0.09-2.69-0.73-2.67-2.73
	c0.08-8.49,0.03-16.99,0.03-25.48c0-21.02,0-42.04,0-63.05c0-3.54,0.01-3.56,3.64-3.54c11.29,0.07,22.62-0.33,33.87,0.37
	c13.54,0.85,24.54,10.9,27.58,23.99c3.05,13.14-2.62,26.42-14.37,33.65C708.79,142.55,708.14,142.97,707.22,143.55z M675.61,115.55
	c0,3.94,0.06,7.88-0.03,11.82c-0.04,1.73,0.62,2.3,2.3,2.28c5.34-0.07,10.68,0.09,16.02-0.06c7.43-0.21,13.39-6.64,13.35-14.19
	c-0.04-7.63-5.97-13.72-13.59-13.83c-5.16-0.08-10.33,0.09-15.5-0.07c-2.21-0.07-2.65,0.81-2.59,2.76
	C675.69,108.01,675.61,111.78,675.61,115.55z"/>
<path d="M408.91,152.4c6.49,0,12.76,0,19.19,0c1.13,5.99,4.88,9.45,10.75,10.7c5.44,1.16,11.91-2.2,14.11-7.3
	c2.12-4.93-0.41-11.12-6-13.39c-3.1-1.26-6.6-1.54-9.91-2.3c-3.66-0.84-7.44-1.35-10.93-2.65c-15.82-5.88-22.54-22.71-15.36-38.06
	c4.47-9.56,12.38-14.39,22.44-16.23c15.79-2.89,30.53,4.88,36.09,19.16c0.84,2.17,1.13,4.56,1.58,6.87c0.31,1.57-0.47,2.2-2.05,2.19
	c-5.08-0.04-10.16-0.08-15.23,0.02c-1.78,0.03-2.07-0.92-2.45-2.33c-1.27-4.74-5.7-8.14-11.06-8.72c-5.31-0.57-10.28,1.92-12.6,6.31
	c-3.07,5.81-0.23,12.6,6.51,14.98c2.61,0.92,5.48,1.07,8.2,1.68c4.17,0.93,8.46,1.55,12.44,3.01c10.51,3.86,16.18,11.74,16.97,22.8
	c0.84,11.67-3.35,21.18-13.69,27.28c-15.82,9.33-36.88,4.08-45.47-11.22C410.25,161.31,408.69,157.18,408.91,152.4z"/>
<path d="M332.39,369.54c-2.99,0-5.5,0-8.26,0c-0.07-1.31-0.18-2.51-0.18-3.7c-0.01-120.69-0.01-241.39-0.01-362.08
	c0-3.74,0.01-3.78,3.67-3.74c5.47,0.06,4.76-0.76,4.76,4.69c0.01,120.26,0.01,240.51,0.01,360.77
	C332.39,366.77,332.39,368.07,332.39,369.54z"/>
<path d="M646.37,178.9c-6.05,0-11.54,0.08-17.02-0.1c-0.68-0.02-1.54-1.26-1.96-2.11c-8.24-16.72-16.43-33.47-24.64-50.21
	c-0.71-1.45-1.48-2.86-2.49-4.81c-0.74,1.39-1.21,2.19-1.62,3.02c-8.48,17.29-16.99,34.57-25.4,51.89c-0.85,1.74-1.81,2.46-3.77,2.4
	c-4.89-0.14-9.79-0.04-15.34-0.04c15.4-31.47,30.6-62.53,46.12-94.22C615.74,116.35,630.94,147.4,646.37,178.9z"/>
<path d="M768.43,101.45c-8.7,0-16.9,0-25.27,0c0-5.63,0-11.01,0-16.59c22.62,0,45.15,0,67.84,0c0,5.54,0,10.91,0,16.54
	c-1.03,0.05-1.96,0.13-2.9,0.14c-6.39,0.01-12.78,0-19.17,0.01c-3.46,0-3.47,0.01-3.47,3.39c0,23.46,0,46.92,0,70.38
	c0,3.59,0,3.59-3.51,3.59c-3.59,0-7.18-0.12-10.76,0.04c-2.2,0.1-2.81-0.65-2.81-2.82c0.07-23.63,0.04-47.27,0.04-70.9
	C768.43,104.1,768.43,102.99,768.43,101.45z"/>
<path d="M526.77,101.54c-0.07,1.47-0.17,2.67-0.17,3.88c-0.01,23.37-0.04,46.74,0.04,70.12c0.01,2.54-0.49,3.64-3.3,3.43
	c-3.57-0.27-7.18-0.23-10.76-0.01c-2.54,0.16-3.02-0.84-3.01-3.14c0.07-23.55,0.04-47.09,0.04-70.64c0-1.11,0-2.22,0-3.63
	c-2.65,0-4.91,0-7.17,0c-5.34,0-10.68-0.07-16.02,0.04c-1.88,0.04-2.43-0.64-2.38-2.43c0.1-3.85,0.16-7.71-0.02-11.55
	c-0.11-2.31,0.62-2.99,2.95-2.98c20.75,0.08,41.49,0.05,62.24,0.05c0.86,0,1.72,0.08,3.04,0.15c0,4.11,0.03,8.09-0.01,12.07
	c-0.04,5.38,0.62,4.6-4.55,4.64c-5.95,0.04-11.9,0.01-17.86,0.01C528.9,101.54,527.95,101.54,526.77,101.54z"/>
<path d="M550.95,219.38c17.69-0.03,32.02,14.63,32.05,32.78c0.03,18.62-14.11,33.33-32.03,33.33c-17.66,0-31.89-14.68-31.92-32.91
	C519.01,234.17,533.2,219.41,550.95,219.38z M527.92,252.29c-0.08,12.75,10.05,23.07,22.88,23.31
	c12.48,0.23,23.28-10.34,23.38-22.89c0.1-12.75-10.36-23.37-23.09-23.43C538.43,229.22,528,239.58,527.92,252.29z"/>
<path d="M595.27,252.52c0-9.36,0-18.72,0-28.08c0-3.51,0.01-3.51,3.63-3.51c5.34,0,10.67,0,16.01,0c7.03-0.01,12.31,3.19,15.77,9.14
	c3.46,5.94,3.31,12.1-0.38,17.9c-1.37,2.14-1.24,3.22,0.7,4.9c6.04,5.23,7.85,12.53,5.2,19.43c-2.78,7.23-9.38,11.72-17.31,11.75
	c-7,0.02-14-0.07-21,0.05c-2.11,0.04-2.67-0.67-2.65-2.7C595.32,271.76,595.27,262.14,595.27,252.52z M603.7,266.02
	c0,2.53-0.12,5.07,0.08,7.59c0.06,0.71,1.06,1.91,1.65,1.92c5.14,0.07,10.31,0.21,15.42-0.24c4.77-0.43,8.32-5.12,8.03-9.76
	c-0.29-4.63-4.39-8.73-9.1-8.87c-4.62-0.13-9.25,0.02-13.88-0.07c-1.77-0.03-2.28,0.74-2.23,2.36
	C603.76,261.3,603.7,263.66,603.7,266.02z M603.7,238.59c0,2.36,0.08,4.72-0.03,7.07c-0.08,1.78,0.51,2.52,2.38,2.45
	c2.96-0.12,5.94-0.02,8.91-0.03c5.49-0.03,9.43-3.94,9.66-9.57c0.19-4.6-4.17-9.03-9.26-9.24c-3.23-0.14-6.46,0.01-9.69-0.05
	c-1.49-0.03-2.01,0.62-1.98,2.04C603.75,233.69,603.71,236.14,603.7,238.59z"/>
<path d="M442.03,260.36c0-2.75,0-5.08,0-7.71c6.27,0,12.37-0.04,18.47,0.07c0.5,0.01,1.39,1.06,1.4,1.63
	c0.09,9.8,0.08,19.6,0.04,29.41c0,0.53-0.27,1.26-0.67,1.56c-1.06,0.78-6.55-0.17-7.68-0.88c-0.71-0.45-1.89-0.61-2.71-0.38
	c-17.34,4.99-34.16-3.75-40.09-20.89c-6.7-19.39,5.88-40.37,26.08-43.48c7.95-1.22,17.81,1.38,23.46,6.38
	c-1.68,1.84-3.27,3.78-5.1,5.46c-0.42,0.39-1.78,0.14-2.48-0.23c-13.84-7.33-30.09-0.49-34.26,14.73
	c-2.67,9.75,0.01,18.33,7.62,24.9c7.14,6.17,15.38,7.45,24.28,3.88c2.08-0.83,2.99-2.02,2.82-4.32c-0.2-2.7-0.1-5.42-0.04-8.14
	c0.03-1.46-0.53-2.04-2-2C448.2,260.41,445.24,260.36,442.03,260.36z"/>
<path d="M642.59,284.11c9.81-21.16,19.41-41.83,29.31-63.18c9.89,21.28,19.51,41.98,29.35,63.17c-2.93,0-5.27,0.14-7.58-0.08
	c-0.7-0.07-1.56-1-1.92-1.74c-1.87-3.86-3.65-7.76-5.34-11.7c-0.65-1.51-1.57-2.06-3.2-2.05c-7.44,0.07-14.88,0.07-22.32,0
	c-1.72-0.02-2.72,0.53-3.42,2.15c-1.66,3.86-3.56,7.61-5.2,11.47c-0.65,1.53-1.54,2.11-3.17,2.01
	C647.12,284.02,645.14,284.11,642.59,284.11z M672.34,240.48c-0.27,0.01-0.55,0.03-0.82,0.04c-3.03,6.51-6.05,13.02-9.21,19.83
	c6.58,0,12.73,0,19.27,0C678.4,253.5,675.37,246.99,672.34,240.48z"/>
<path d="M710.64,284.11c0-21.23,0-42.09,0-63.14c2.7,0,5.28,0,8.11,0c0,18.22,0,36.29,0,54.74c9.89,0,19.53,0,29.47,0
	c0,2.62,0.14,4.88-0.11,7.1c-0.06,0.51-1.47,1.23-2.26,1.24c-7.17,0.1-14.35,0.06-21.52,0.06
	C719.89,284.11,715.43,284.11,710.64,284.11z"/>
<path d="M513.08,275.79c0,2.86,0,5.36,0,8.09c-0.84,0.08-1.59,0.22-2.34,0.22c-10.86,0.01-21.72-0.04-32.58,0.05
	c-2.04,0.02-2.7-0.56-2.7-2.66c0.07-19.36,0.07-38.71,0-58.07c-0.01-2.07,0.63-2.84,2.69-2.68c1.8,0.14,3.62,0.03,5.71,0.03
	c0,1.46,0,2.49,0,3.52c0,16.12,0.06,32.23-0.06,48.35c-0.02,2.54,0.7,3.25,3.22,3.21C495.6,275.7,504.18,275.79,513.08,275.79z"/>
</svg>
