<?xml version="1.0" encoding="utf-8"?>
<!-- Generator: Adobe Illustrator 23.0.1, SVG Export Plug-In . SVG Version: 6.00 Build 0)  -->
<svg version="1.1" id="Layer_1" xmlns="http://www.w3.org/2000/svg" xmlns:xlink="http://www.w3.org/1999/xlink" height="40px"
	 viewBox="0 0 1023.94 406.41" style="enable-background:new 0 0 1023.94 406.41;" xml:space="preserve">
<g>
	<path d="M154.08,346.79c-29.08,0-58.17,0.13-87.25-0.11c-5.41-0.05-10.97-1.03-16.19-2.53c-14.35-4.11-22.55-13.93-24.73-28.67
		c-2.58-17.47,2.04-32.91,12.75-46.9c10.82-14.13,21.17-28.63,31.71-42.98c12.26-16.68,24.53-33.35,36.71-50.09
		c0.84-1.16,1.36-2.82,1.39-4.25c0.13-8.61,0.12-17.21,0-25.82c-0.02-1.25-0.6-2.76-1.44-3.7c-5.37-6.04-8-13.22-8.41-21.09
		c-0.23-4.46-0.13-9.17,1.07-13.41c3.26-11.6,12.03-17.36,23.25-19.84c3.01-0.67,6.17-0.91,9.27-0.93
		c14.91-0.09,29.83-0.06,44.74-0.03c7.35,0.01,14.28,1.7,20.53,5.67c7.82,4.97,11.97,12.19,12.59,21.38
		c0.46,6.82-0.31,13.51-3.19,19.79c-1.04,2.27-2.14,4.73-3.88,6.43c-2.67,2.62-3.15,5.52-3.06,9.01c0.19,7.49-0.01,14.99,0.12,22.48
		c0.03,1.44,0.51,3.11,1.35,4.26c22.34,30.54,44.62,61.12,67.23,91.46c6.45,8.66,11.64,17.69,13.69,28.35
		c1.64,8.51,1.51,17.01-0.78,25.36c-3.67,13.43-12.92,21.21-26.15,24.21c-5.59,1.27-11.44,1.88-17.18,1.92
		c-28.05,0.19-56.09,0.09-84.14,0.09C154.08,346.83,154.08,346.81,154.08,346.79z M183.81,145.48c0.32-3.56,1.6-6.41,4.98-7.84
		c4.16-1.76,6.79-4.9,8.48-8.96c1.77-4.25,2.37-8.71,2.25-13.28c-0.2-7.63-3.85-13.12-10.89-15.8c-3.81-1.45-8.03-2.39-12.09-2.47
		c-14.83-0.29-29.68-0.28-44.51-0.01c-3.99,0.07-8.12,1-11.9,2.36c-5.68,2.04-9.9,6.12-10.64,12.36
		c-1.26,10.68,0.03,20.53,10.87,26.43c2.72,1.48,3.65,4.21,3.83,7.24c-1.72-0.55-3.19-1.02-4.86-1.56c-0.1,1.09-0.18,1.67-0.2,2.25
		c-0.14,5.19-0.41,10.38-0.39,15.57c0.05,10.26-2.64,19.46-8.86,27.83c-8.18,11.02-15.94,22.35-23.69,33.67
		c-11.86,17.33-23.6,34.75-32.98,53.59c-4.92,9.88-6.84,20.51-5.71,31.56c1.67,16.31,14.01,25.35,28,26.52
		c13.64,1.14,27.28,0.04,40.88-1.12c23.55-2,47.12-2.2,70.69-0.47c14.57,1.07,29.13,2.35,43.77,1.86
		c14.39-0.48,26.11-10.12,28.77-24.24c2.28-12.13,0.25-23.92-4.86-34.94c-3.82-8.25-8.6-16.09-13.38-23.85
		c-13.46-21.88-28.58-42.63-43.56-63.47c-4-5.57-7.13-11.62-7.38-18.77c-0.19-5.33-0.64-10.66-0.85-15.99
		c-0.13-3.23-0.02-6.46-0.02-10.27C187.28,144.39,185.7,144.88,183.81,145.48z"/>
	<path d="M327.26,247.37c5.51,20.46,10.9,40.46,16.28,60.45c0.2,0,0.39,0.01,0.59,0.01c0.3-0.94,0.65-1.87,0.9-2.82
		c6.43-24.38,12.89-48.75,19.23-73.15c0.56-2.14,1.44-2.84,3.61-2.76c4.3,0.16,8.61,0.18,12.9-0.01c2.23-0.1,3.03,0.77,3.59,2.8
		c6.81,24.35,13.71,48.68,20.6,73.01c0.21,0.74,0.47,1.47,0.71,2.21c0.22,0,0.45,0,0.67,0.01c5.11-19.74,10.22-39.48,15.47-59.75
		c-2.36,0-4.38,0.04-6.4-0.01c-2.12-0.06-5.06,0.58-6.14-0.54c-1.11-1.14-0.45-4.04-0.47-6.17c-0.04-3.19,0.05-6.38-0.03-9.57
		c-0.04-1.46,0.49-1.94,1.93-1.94c14.39,0.03,28.78,0.03,43.18,0c1.36,0,1.83,0.53,1.82,1.84c-0.04,4.82-0.05,9.64,0.01,14.47
		c0.02,1.41-0.42,2-1.92,1.95c-2.82-0.09-5.64,0.09-8.45-0.07c-1.93-0.11-2.69,0.59-3.18,2.44c-5.48,20.95-11.05,41.87-16.6,62.8
		c-2.68,10.11-5.4,20.2-7.99,30.33c-0.43,1.7-1.18,2.23-2.89,2.19c-5.34-0.1-10.68-0.12-16.02,0.01c-1.89,0.04-2.69-0.55-3.2-2.41
		c-6.6-23.79-13.29-47.56-19.96-71.34c-0.2-0.7-0.43-1.38-1.13-2.15c-0.29,0.84-0.63,1.67-0.87,2.53
		c-6.57,23.42-13.16,46.83-19.63,70.28c-0.64,2.3-1.51,3.23-4.02,3.12c-4.96-0.22-9.94-0.16-14.91-0.02
		c-1.92,0.05-2.67-0.63-3.18-2.44c-8.67-30.61-17.4-61.2-26.14-91.79c-1.15-4.03-0.42-3.46-4.54-3.51
		c-2.08-0.02-4.16-0.04-6.23,0.01c-1.16,0.03-1.79-0.27-1.78-1.6c0.05-5.04-0.02-10.09,0.09-15.13c0.01-0.5,0.82-1.28,1.39-1.42
		c0.98-0.24,2.06-0.08,3.1-0.08c13.21,0,26.41,0.05,39.62-0.05c2.27-0.02,2.92,0.63,2.82,2.88c-0.18,4.37-0.12,8.75-0.02,13.13
		c0.04,1.7-0.4,2.37-2.22,2.3C334.51,247.27,331.18,247.37,327.26,247.37z"/>
	<path d="M745.22,196.06c0,6.93,0,13.45,0,19.97c0,5.31,0,5.31,5.23,5.31c1.48,0,2.97,0.05,4.45-0.01c1.18-0.05,1.56,0.48,1.55,1.59
		c-0.03,4.97-0.04,9.94,0.01,14.91c0.01,1.27-0.52,1.66-1.73,1.66c-12.83-0.02-25.67-0.03-38.5,0.01c-1.42,0-1.76-0.62-1.75-1.88
		c0.04-4.82,0.04-9.64,0-14.47c-0.01-1.31,0.42-1.93,1.8-1.82c0.96,0.08,1.93,0.01,2.89,0.01c6.45,0,6.45,0,6.45-6.56
		c0-3.26,0-6.53,0-9.79c0-20.85,0-41.69,0-62.54c0-3.09-0.01-3.09-3.02-3.1c-2.08,0-4.16-0.05-6.23,0.01
		c-1.28,0.04-1.9-0.34-1.89-1.75c0.05-4.9-0.03-9.79,0.08-14.69c0.01-0.59,0.86-1.68,1.32-1.68c9.64-0.1,19.28-0.07,29.32-0.07
		c0,4.34,0,8.56,0,12.77c0.18,0.04,0.36,0.07,0.54,0.11c0.38-0.41,0.79-0.79,1.12-1.23c5.89-7.77,13.88-11.7,23.42-12.46
		c22.71-1.8,42.91,13.79,47,36.11c4.13,22.57-9.16,44.86-31.05,50.93c-14.92,4.14-28.53,1.36-39.57-10.33
		C746.35,196.74,745.92,196.54,745.22,196.06z M745.07,164.67c0.04,14.65,11.9,26.41,26.58,26.35c14.33-0.06,26.21-12,26.18-26.33
		c-0.02-14.52-11.82-26.65-25.9-26.63C756.96,138.08,745.03,149.89,745.07,164.67z"/>
	<path d="M1023.94,326.87c0,5.92,0.03,11.47-0.06,17.02c-0.01,0.4-0.93,1.11-1.43,1.12c-9.2,0.07-18.4,0.04-27.59,0.07
		c-1.31,0-1.64-0.61-1.62-1.78c0.04-2.74,0.02-5.49,0-8.23c0-0.7-0.09-1.41-0.17-2.48c-0.61,0.53-0.97,0.76-1.21,1.07
		c-8.29,10.57-19.5,13.96-32.28,12.35c-23.31-2.93-39.97-22.92-39.15-46.41c0.83-23.52,20.88-42.85,44.32-42.58
		c10.47,0.12,19.28,4.22,26.4,11.92c0.49,0.53,0.99,1.04,1.78,1.86c0.14-0.94,0.3-1.49,0.3-2.03c0.02-6.38-0.03-12.76,0.04-19.14
		c0.02-1.73-0.54-2.38-2.31-2.28c-2.52,0.13-5.04,0-7.56,0.04c-1.14,0.02-1.59-0.41-1.58-1.56c0.04-5.04,0.04-10.09,0-15.13
		c-0.01-1.2,0.57-1.53,1.63-1.53c9.2,0.01,18.4,0.03,27.6-0.02c1.87-0.01,1.72,1.13,1.72,2.36c-0.01,15.28,0,30.56,0,45.84
		c0,15.58,0.05,31.16-0.05,46.73c-0.01,2.3,0.69,2.98,2.91,2.84C1018.25,326.73,1020.92,326.87,1023.94,326.87z M967.21,328.46
		c14.6-0.01,26.51-12.15,26.51-27.02c0-14.26-11.98-26.22-26.27-26.23c-14.75-0.02-26.68,11.95-26.69,26.79
		C940.74,316.59,952.62,328.47,967.21,328.46z"/>
	<path d="M665.44,296.91c7.51-7.51,14.67-14.66,22.21-22.2c-2.06,0-3.99-0.11-5.9,0.03c-1.99,0.15-2.75-0.45-2.66-2.57
		c0.17-3.92,0.09-7.86,0.03-11.79c-0.02-1.37,0.32-2.02,1.86-2.01c13.06,0.05,26.12,0.03,39.17,0.04c0.36,0,0.72,0.1,1.26,0.18
		c0,5.93,0,11.82,0,18.12c-2.78,0-5.57-0.09-8.35,0.05c-1.02,0.05-2.26,0.4-2.96,1.07c-7.37,6.99-14.66,14.08-21.97,21.14
		c-0.26,0.25-0.47,0.56-0.86,1.04c0.52,0.61,1.01,1.23,1.55,1.8c7.46,7.85,14.89,15.73,22.44,23.5c0.85,0.88,2.38,1.42,3.64,1.51
		c3.1,0.21,6.23,0.12,9.34,0.05c1.4-0.03,1.99,0.38,1.97,1.88c-0.07,4.82-0.07,9.65,0,14.47c0.02,1.49-0.57,1.89-1.97,1.89
		c-14.39-0.03-28.79-0.04-43.18,0c-1.44,0-1.96-0.47-1.94-1.92c0.06-4.75,0.07-9.5,0-14.24c-0.02-1.51,0.43-2.18,2.02-2.07
		c1.53,0.11,3.07,0.02,4.6,0.02c0.12-0.21,0.25-0.42,0.37-0.62c-6.66-7.34-13.32-14.68-20.34-22.42c-0.17,1.1-0.32,1.64-0.32,2.17
		c-0.02,6.23,0.03,12.47-0.04,18.7c-0.02,1.63,0.5,2.18,2.16,2.2c5.66,0.07,5.66,0.13,5.66,5.92c0,3.41-0.06,6.83,0.02,10.24
		c0.04,1.58-0.56,2.03-2.08,2.02c-11.57-0.05-23.15-0.04-34.72,0c-1.38,0-1.99-0.36-1.97-1.87c0.08-4.82,0.07-9.65,0-14.47
		c-0.02-1.48,0.5-1.96,1.94-1.89c2.07,0.09,4.15,0.02,6.23,0.02c3.32,0,3.32,0,3.33-3.22c0-6.9,0-13.8,0-20.7
		c0-17.58-0.04-35.17,0.05-52.75c0.01-2.25-0.58-3.06-2.87-2.86c-2.28,0.2-4.6,0.01-6.9,0.06c-1.17,0.03-1.78-0.28-1.76-1.61
		c0.05-4.97,0.05-9.94,0-14.91c-0.01-1.24,0.46-1.72,1.69-1.72c9.2,0.02,18.4,0.03,27.6-0.01c1.69-0.01,1.67,1,1.67,2.19
		c-0.01,9.05-0.01,18.1-0.01,27.16c0,11.87,0,23.74,0,35.61C665.44,294.96,665.44,295.81,665.44,296.91z"/>
	<path d="M481.53,207.81c-4.28,0-8.2,0-12.12,0c-5.49,0-10.98-0.06-16.46,0.03c-1.71,0.03-2.38-0.42-2.29-2.23
		c0.14-2.84,0.04-5.7,0.04-9.03c-0.72,0.57-1.04,0.73-1.24,0.99c-8.05,10.34-19.02,13.64-31.45,12.17
		c-24.11-2.84-40.8-22.76-39.89-47.06c0.94-25.2,22.69-45.13,47.86-43.69c9.3,0.53,16.91,4.6,22.7,11.96
		c0.41,0.52,0.83,1.04,1.26,1.54c0.07,0.08,0.26,0.06,0.75,0.16c0-3.06,0.12-6.07-0.04-9.06c-0.11-1.99,0.55-2.51,2.5-2.49
		c8.68,0.1,17.35,0.09,26.03,0.01c1.83-0.02,2.45,0.49,2.39,2.37c-0.12,4.52-0.13,9.05,0,13.57c0.06,1.94-0.66,2.42-2.44,2.32
		c-2.14-0.13-4.3,0.03-6.45-0.05c-1.48-0.05-2.14,0.41-2.13,2.01c0.04,15.43,0.04,30.85,0,46.28c0,1.63,0.71,2.03,2.15,1.99
		c2.37-0.06,4.75-0.09,7.12,0.05c0.59,0.03,1.62,0.74,1.62,1.15C481.56,196.35,481.53,201.9,481.53,207.81z M398.31,164.83
		c-0.01,14.26,11.79,26.16,25.96,26.19c14.84,0.03,26.76-11.95,26.8-26.93c0.04-14.27-11.87-26.14-26.26-26.18
		C410.13,137.88,398.32,149.87,398.31,164.83z"/>
	<path d="M303.31,97.52c0-1.38,0.04-2.76-0.01-4.14c-0.04-1.13,0.4-1.59,1.56-1.58c4.45,0.04,8.9,0.04,13.36,0
		c1.21-0.01,1.74,0.38,1.74,1.66c-0.03,9.2-0.03,18.4,0,27.6c0,1.25-0.46,1.7-1.7,1.69c-5.42-0.04-10.83-0.06-16.25,0.01
		c-1.46,0.02-1.64-0.76-1.82-1.91c-0.97-6.19-4.3-10.62-10.34-12.44c-6.27-1.89-12.14-0.73-16.87,4
		c-6.12,6.12-4.97,16.93,2.41,21.43c3.05,1.86,6.6,2.99,10.01,4.19c6.57,2.31,13.44,3.9,19.76,6.73
		c14.33,6.44,20.79,18.15,19.26,33.47c-1.46,14.66-11.83,26.9-25.83,30.46c-6.58,1.67-13.18,1.98-19.79,0.12
		c-4.31-1.21-8.05-3.41-11.17-6.61c-0.5-0.51-0.67-1.35-0.99-2.03c-0.39,0.24-0.77,0.49-1.16,0.73c0,1.74-0.03,3.48,0.01,5.23
		c0.03,1.21-0.45,1.72-1.71,1.7c-4.6-0.05-9.2-0.05-13.8,0c-1.29,0.01-1.67-0.54-1.67-1.73c0.02-10.24,0.03-20.48-0.01-30.72
		c-0.01-1.6,0.82-1.78,2.1-1.77c5.12,0.04,10.24,0.09,15.36-0.03c1.82-0.04,2.39,0.58,2.59,2.35c0.86,7.53,5.5,13.07,12.5,14.81
		c10.11,2.52,22.13-2.82,21.97-15.85c-0.06-4.71-1.89-8.7-5.93-11.08c-3.41-2.02-7.18-3.48-10.9-4.88
		c-6.51-2.45-13.37-4.12-19.63-7.08c-10.56-5-17.48-13.25-18.68-25.28c-1.8-17.99,10.52-33.72,28.47-36.6
		c6.34-1.02,12.65-0.9,18.53,1.93C297.62,93.31,300.21,95.47,303.31,97.52z"/>
	<path d="M878.42,326.86c3.33,0,6.28-0.01,9.24,0c1.03,0,1.97-0.03,1.96-1.45c-0.07-10.98,0.21-21.97-0.28-32.93
		c-0.64-14.3-13.8-18.15-22.7-16.4c-9.22,1.81-14.8,7.68-15.28,17.35c-0.52,10.59-0.23,21.21-0.31,31.82
		c-0.01,1.31,0.64,1.64,1.8,1.63c2.52-0.03,5.05,0.04,7.57-0.02c1.27-0.03,1.9,0.29,1.88,1.73c-0.07,4.9-0.05,9.79-0.01,14.69
		c0.01,1.14-0.23,1.8-1.57,1.8c-13.13-0.03-26.26-0.03-39.4-0.05c-0.28,0-0.56-0.13-1.07-0.26c0-5.63-0.03-11.24,0.07-16.86
		c0.01-0.35,0.99-0.96,1.54-0.98c2.52-0.11,5.04-0.09,7.57-0.04c1.34,0.03,2.03-0.31,2.03-1.85c-0.04-15.51-0.03-31.01-0.01-46.52
		c0-1.33-0.45-1.87-1.8-1.83c-2.45,0.07-4.9-0.04-7.34,0.03c-1.46,0.05-2.14-0.34-2.11-1.98c0.09-4.82,0.08-9.65,0.01-14.47
		c-0.02-1.49,0.54-1.91,1.95-1.9c8.98,0.04,17.96,0.05,26.93-0.01c1.61-0.01,2.04,0.6,2,2.1c-0.08,3.08-0.02,6.16-0.02,9.79
		c0.69-0.65,0.98-0.84,1.16-1.11c6.66-9.93,16.34-13.42,27.74-12.46c10.09,0.85,18.45,5.3,24.42,13.7
		c3.25,4.58,4.55,9.83,4.61,15.33c0.15,12.69,0.11,25.37,0.15,38.06c0.01,3.09,0.01,3.09,3,3.09c2.15,0,4.31,0.06,6.45-0.02
		c1.38-0.05,1.82,0.53,1.81,1.83c-0.04,4.9-0.04,9.79-0.01,14.69c0.01,1.23-0.5,1.7-1.73,1.7c-12.84-0.02-25.67-0.02-38.51-0.01
		c-0.98,0-1.75-0.1-1.75-1.39C878.44,338.19,878.42,332.71,878.42,326.86z"/>
	<path d="M561.28,309.06c0.58,1.83,0.9,3.11,1.39,4.33c5.88,14.64,23.49,21.26,37.45,13.97c2.32-1.21,4.59-2.87,6.27-4.85
		c1.79-2.1,3.59-2.84,6.26-2.72c4.59,0.21,9.2,0.05,13.79,0.06c0.71,0,1.43,0.07,2.5,0.12c-0.5,1.14-0.84,2.01-1.26,2.84
		c-8.94,17.72-27.62,27.06-47.69,23.84c-18.91-3.03-34.02-18.49-36.81-37.65c-3.24-22.27,8.8-43.15,29.14-50.52
		c27.75-10.06,61.71,9.67,59.91,44.97c-0.29,5.61-0.36,5.6-5.96,5.6c-20.47,0-40.95,0-61.42,0
		C563.83,309.06,562.81,309.06,561.28,309.06z M613.96,293.95c-1.09-11.55-15.43-21.57-29.1-20.63
		c-10.87,0.75-23.64,12.03-23.19,20.63C579.03,293.95,596.41,293.95,613.96,293.95z"/>
	<path d="M463.68,309.26c1.26,5.49,3.79,9.75,7.48,13.36c11.51,11.26,30.64,9.63,38.98-1.61c0.36-0.49,1.02-1.07,1.55-1.08
		c6.36-0.07,12.73-0.05,19.5-0.05c-0.41,1.03-0.66,1.76-0.99,2.44c-8.7,18.05-28.25,27.88-48.27,24.29
		c-19.6-3.52-34.67-19.63-36.7-39.26c-2.18-21.07,8.6-40.21,27.16-48.02c26.79-11.27,58.91,5.97,61.81,36.24
		c0.35,3.66-0.04,7.39,0.05,11.08c0.05,2-0.82,2.45-2.68,2.44c-14.76-0.06-29.52-0.04-44.28-0.04c-6.9,0-13.8-0.01-20.7,0.01
		C465.73,309.07,464.88,309.17,463.68,309.26z M516.23,293.9c-1.1-11.47-15.33-21.47-29.05-20.58
		c-10.89,0.7-23.51,11.81-23.26,20.58C481.34,293.9,498.77,293.9,516.23,293.9z"/>
	<path d="M745.14,309.21c1.14,2.72,1.86,5.06,3.04,7.15c10.18,18.02,34.45,17.57,43.83,4.56c0.37-0.52,1.19-1.01,1.81-1.02
		c6.08-0.06,12.16-0.03,18.25,0c0.2,0,0.4,0.15,0.87,0.34c-0.43,0.94-0.82,1.87-1.27,2.76c-9.1,17.77-28.4,27.25-48.02,23.59
		c-19.65-3.67-34.39-19.42-36.58-39.12c-2.54-22.8,10.64-43.42,31.64-49.75c25.36-7.65,54.86,8.99,57.37,38.4
		c0.31,3.59-0.07,7.24-0.03,10.86c0.02,1.68-0.74,2.12-2.31,2.1c-6.08-0.07-12.17-0.03-18.25-0.03c-15.58,0-31.16,0-46.73,0.01
		C747.79,309.06,746.84,309.14,745.14,309.21z M798.02,293.9c-1.05-11.36-15.1-21.31-28.82-20.59
		c-10.95,0.58-23.69,11.68-23.48,20.59C763.14,293.9,780.57,293.9,798.02,293.9z"/>
	<path d="M612.8,139.34c0-5.87-0.04-11.35,0.07-16.82c0.01-0.46,0.96-1.3,1.48-1.3c9.27-0.08,18.54-0.08,27.82,0.01
		c0.48,0,1.11,0.83,1.4,1.41c0.23,0.48,0.05,1.16,0.05,1.76c0,15.06-0.02,30.12,0.02,45.17c0.01,2.44,0.14,4.9,0.53,7.31
		c1.5,9.3,8.51,15.2,17.76,15.12c9.18-0.07,16.73-6.61,17.99-15.65c0.28-1.98,0.44-3.99,0.45-5.98c0.05-9.49-0.02-18.99,0.06-28.48
		c0.02-1.9-0.47-2.7-2.48-2.57c-2.36,0.15-4.75,0.09-7.12-0.02c-0.55-0.03-1.54-0.63-1.55-0.98c-0.1-5.61-0.07-11.23-0.07-17
		c0.96-0.06,1.67-0.14,2.39-0.14c8.53-0.01,17.06,0.1,25.59-0.07c2.44-0.05,2.75,0.85,2.75,2.94c-0.06,20.77-0.04,41.54-0.04,62.31
		c0,3.26,0,3.26,3.29,3.26c2.15,0,4.31-0.07,6.45,0.06c0.53,0.03,1.47,0.69,1.48,1.08c0.1,5.61,0.07,11.22,0.07,16.96
		c-9.79,0-19.25,0-29.05,0c0-3.27,0-6.48,0-9.68c-0.38-0.27-0.76-0.54-1.13-0.81c-0.28,0.66-0.4,1.47-0.86,1.97
		c-9.32,10.11-20.86,13.2-33.81,9.42c-12.37-3.61-19.53-12.44-21.62-25.17c-0.49-2.98-0.6-6.05-0.62-9.09
		c-0.07-10.76-0.08-21.51,0.01-32.27c0.02-2.14-0.62-2.89-2.78-2.76C618.63,139.47,615.88,139.34,612.8,139.34z"/>
	<path d="M190.43,355.82c-0.55,14.62,0.93,28.81,8.78,42.35c0.54-1.35,0.86-2.07,1.12-2.81c6.56-18.43,22.58-29.72,42.16-29.76
		c14.32-0.03,28.65-0.21,42.75-3.13c4.76-0.99,9.46-2.28,14.55-3.02c-3.36,3.61-6.6,7.35-10.12,10.81
		c-15.44,15.19-34.26,23.9-55.15,28.61c-14.95,3.37-30.14,4.92-45.41,5.78c-5.48,0.31-10.97,0.48-16.45,0.8
		c-1.42,0.08-2.07-0.41-2.57-1.76c-4.38-12.02-3.04-23.68,2.49-34.91C175.94,361.96,183.41,356.81,190.43,355.82z"/>
	<path d="M376.58,207.81c-4.07,0-7.77,0-11.47,0c-7.12,0-14.24-0.08-21.36,0.05c-2.14,0.04-2.57-0.71-2.56-2.67
		c0.06-20.99,0.04-41.98,0.04-62.97c0-2.88-0.01-2.88-2.96-2.89c-2.89-0.01-5.79-0.06-8.68,0.02c-1.4,0.04-1.99-0.39-1.97-1.88
		c0.07-4.82,0.07-9.64,0-14.46c-0.02-1.49,0.55-1.92,1.96-1.88c2.96,0.08,5.94-0.14,8.9,0.07c2.37,0.17,2.83-0.77,2.8-2.93
		c-0.12-8.01,0.02-16.02-0.09-24.03c-0.03-2,0.62-2.52,2.54-2.48c4.97,0.13,9.94,0.11,14.91,0c1.79-0.04,2.28,0.56,2.26,2.29
		c-0.07,8.23,0.01,16.47-0.07,24.7c-0.02,1.83,0.53,2.49,2.39,2.42c3.56-0.12,7.12,0,10.68-0.05c1.22-0.02,1.73,0.38,1.72,1.65
		c-0.05,4.97-0.05,9.94,0,14.91c0.01,1.29-0.52,1.67-1.72,1.65c-3.63-0.04-7.27,0.05-10.9-0.04c-1.66-0.04-2.17,0.56-2.16,2.2
		c0.05,15.28,0.06,30.56-0.01,45.84c-0.01,1.81,0.64,2.3,2.32,2.27c3.85-0.08,7.71-0.08,11.57,0.04c0.63,0.02,1.77,0.76,1.78,1.19
		C376.62,196.38,376.58,201.93,376.58,207.81z"/>
	<path d="M567.73,207.45c0-0.98,0-1.93,0-2.89c0-20.77,0-41.54,0-62.31c0-2.9-0.01-2.9-2.96-2.91c-3.26-0.01-6.53-0.02-9.79-0.05
		c-0.21,0-0.42-0.11-0.97-0.26c0-2.56,0-5.21,0-7.86c0-2.74,0.05-5.49-0.02-8.23c-0.03-1.35,0.45-1.83,1.81-1.81
		c3.26,0.07,6.53-0.05,9.79,0.05c1.66,0.05,2.18-0.56,2.17-2.19c-0.06-8.23,0.03-16.47-0.07-24.7c-0.02-1.92,0.45-2.57,2.46-2.52
		c5.55,0.14,11.1,0.05,16.89,0.05c0.05,1.06,0.13,1.92,0.13,2.77c0.01,8.01,0.06,16.02-0.03,24.03c-0.02,1.9,0.47,2.66,2.49,2.57
		c3.48-0.14,6.97,0.02,10.46-0.06c1.47-0.03,1.94,0.5,1.92,1.93c-0.06,4.75-0.07,9.5,0,14.24c0.02,1.52-0.46,2.1-2.03,2.06
		c-3.48-0.09-6.97,0.03-10.46-0.05c-1.64-0.04-2.39,0.36-2.38,2.22c0.06,15.28,0.07,30.56,0,45.84c-0.01,1.85,0.72,2.27,2.37,2.24
		c3.78-0.07,7.57,0.03,11.35-0.05c1.56-0.03,2.28,0.32,2.24,2.08c-0.1,4.75-0.04,9.49-0.03,14.24c0,1.01,0.03,1.93-1.44,1.93
		c-11.05-0.04-22.1-0.05-33.15-0.08C568.33,207.74,568.2,207.64,567.73,207.45z"/>
	<path d="M118.27,405.73c-0.46,0.08-0.82,0.2-1.18,0.2c-18.6-0.22-37.04-1.6-54.8-7.73c-6.69-2.31-13.02-5.35-18.74-9.58
		c-13.67-10.1-18.89-23.87-17.48-40.45c0.33-3.9,1.06-7.76,1.63-11.81c0.39,0.21,0.65,0.25,0.71,0.39
		c4.3,9.24,11.97,14.92,20.69,19.42c11.07,5.7,22.98,8.74,35.2,10.61c10.96,1.67,19.26,7.26,25.36,16.35
		c4.23,6.3,6.87,13.27,8.56,20.63c0.08,0.36,0.12,0.73,0.15,1.1C118.39,405.05,118.33,405.27,118.27,405.73z"/>
	<path d="M489.73,207.8c0-5.87-0.04-11.41,0.07-16.96c0.01-0.43,1.01-1.16,1.58-1.19c2.44-0.14,4.9-0.12,7.34-0.04
		c1.57,0.05,2.24-0.4,2.23-2.12c-0.06-15.36-0.06-30.72,0-46.07c0.01-1.74-0.7-2.15-2.26-2.1c-2.37,0.08-4.75-0.05-7.12,0.04
		c-1.48,0.06-1.91-0.53-1.89-1.95c0.06-4.82,0.06-9.64,0-14.47c-0.01-1.33,0.42-1.82,1.79-1.81c8.53,0.05,17.06,0.05,25.6,0
		c1.43-0.01,1.97,0.42,1.92,1.9c-0.09,3.26-0.04,6.53-0.02,9.79c0,0.7,0.09,1.39,0.36,2.23c5.73-9.66,14.35-14.09,25.42-14.84
		c0,6.65,0,13.12,0,19.83c-1.31,0.2-2.68,0.39-4.04,0.63c-12.54,2.24-19.85,10.63-20.23,23.59c-0.23,7.78-0.05,15.58-0.12,23.37
		c-0.01,1.43,0.47,2.02,1.92,1.98c2.45-0.06,4.9,0.04,7.34-0.03c1.38-0.04,2.02,0.35,2,1.87c-0.07,4.9-0.04,9.79-0.02,14.69
		c0,1.02-0.18,1.69-1.45,1.69C516.83,207.79,503.48,207.8,489.73,207.8z"/>
	<path d="M115.64,355.04c18.94,13.92,34.9,30.73,48.86,50.39c-2.71,0.15-4.79,0.33-6.88,0.38c-8.07,0.22-16.15,0.4-24.23,0.59
		c-1.03,0.02-1.91,0.13-2.35-1.31c-3.76-12.25-7.59-24.48-11.46-36.69c-1.38-4.36-2.94-8.67-4.43-13
		C115.31,355.27,115.48,355.15,115.64,355.04z"/>
	<path d="M162.33,0c12.8,0.04,22.93,10.29,22.91,23.16c-0.02,12.88-10.37,23.14-23.27,23.06c-12.74-0.08-23.02-10.46-22.97-23.2
		C139.04,10.16,149.38-0.04,162.33,0z M161.73,40.21c0.13,0.12,0.22,0.27,0.33,0.28c0.37,0.03,0.74,0.07,1.1,0.01
		c5.65-0.85,10.41-3.33,14.05-7.79c2.56-3.14,3.31-6.73,2.47-10.66c-1.33-6.22-5.01-10.87-10.13-14.36
		c-5.8-3.96-13.23-3.54-18.67,0.79c-5.23,4.16-7.25,11.32-4.97,17.66c2.32,6.45,8.31,10.7,15.28,10.36c2.77-0.13,5.49-1.18,8.24-1.8
		c0.09,0.09,0.19,0.19,0.28,0.28C167.05,36.72,164.39,38.46,161.73,40.21z M160.98,43.76c6.47,0.99,14.94-3.27,15.19-7.1
		c-2.32,1.39-4.55,2.98-6.99,4.12C166.68,41.96,163.98,42.7,160.98,43.76z"/>
	<path d="M112.08,52.84c0-9.34,7.29-16.67,16.6-16.69c9.37-0.02,16.85,7.46,16.8,16.79c-0.06,9.23-7.54,16.63-16.78,16.61
		C119.41,69.53,112.08,62.15,112.08,52.84z M118.99,45.85c-3.74,4.56-1.56,12.03,4.12,14.58c5.5,2.47,13.77,0.43,17.38-4.36
		c0.52-0.7,1.13-2.15,0.84-2.47c-0.59-0.65-1.76-0.8-2.71-1.06c-0.28-0.08-0.65,0.16-1,0.25c-1.04-9.11-7.43-14.2-13.63-10.84
		c0.86,1.7,1.47,3.54-0.39,4.95C121.79,48.27,120.29,47.14,118.99,45.85z M140.84,59.23c-5.73-0.61-7.04,4.51-10.12,7.48
		C135.04,66.87,140,63.11,140.84,59.23z"/>
	<path d="M303.47,298.92c3.67,8.96,6.43,18.06,4.93,27.87c-1.15,7.52-5.11,13.18-11.69,16.98c-6.45,3.73-13.51,5-20.94,5.05
		C295.3,337.84,301.63,319.68,303.47,298.92z"/>
	<path d="M17.41,323.95C6.9,341.12,9.8,358.15,17.6,375.27c-0.25-0.02-0.5,0.04-0.61-0.06c-5.37-4.39-10.25-9.22-13.64-15.35
		c-5.22-9.43-4.32-18.54,2.64-26.8C9.15,329.29,12.94,326.24,17.41,323.95z"/>
	<path d="M163.47,79.14c-6.76-0.02-12.1-5.39-12.08-12.17c0.02-6.74,5.45-12.13,12.18-12.1c6.71,0.03,12.15,5.5,12.12,12.2
		C175.66,73.79,170.23,79.15,163.47,79.14z M161.06,57.82c0.97,1.85,1.7,3.64-0.12,5.13c-1.88,1.54-3.39,0.18-4.82-1
		c-1.49,2.98-0.72,6.29,1.86,8.44c2.64,2.19,6.54,2.21,9.23,0.03c2.61-2.11,3.44-5.79,2-8.84
		C167.76,58.53,164.55,56.96,161.06,57.82z M163.31,77.42c2.47,1.08,7.18-1.12,8.43-4.12C168.89,74.7,166.03,76.09,163.31,77.42z"/>
	<path d="M887.59,362.99c1.08,1.4,2.16,2.18,2.14,2.93c-0.03,0.77-1.01,1.91-1.8,2.15c-1.29,0.38-2.39-0.52-2.22-1.92
		C885.81,365.27,886.66,364.48,887.59,362.99z"/>
	<path d="M110.71,243.9c-4.35-0.81-4.37-0.83-4.32-4.53c0.18-13.85,10.95-24.61,24.81-24.76c2.82-0.03,5.64-0.01,8.46-0.01
		c14.83,0.04,25.5,10.56,25.77,25.45c0.06,3.19-0.06,6.38,0.06,9.57c0.03,0.8,0.67,1.58,1.03,2.37c0.35-0.75,0.93-1.47,1.01-2.25
		c0.33-3.09,0.1-6.28,0.8-9.27c2.2-9.34,10.43-15.78,20.01-16.01c2.82-0.07,5.64-0.06,8.45-0.01c11.49,0.2,20.53,9.11,20.94,20.6
		c0.02,0.65,0.09,1.3,0.15,2.19c0.99-0.22,1.82-0.43,2.65-0.59c5.19-1.03,9.95,2.26,10.76,7.44c0.78,4.98-2.93,9.77-7.93,10.24
		c-5.34,0.49-9.81-3.39-9.95-8.75c-0.08-3.19,0.04-6.38,0.02-9.57c-0.07-9.73-7.18-17.03-16.93-17.27
		c-3.33-0.08-6.71-0.21-9.99,0.25c-8.62,1.2-14.41,8.04-14.68,16.92c-0.05,1.78,0.04,3.56-0.05,5.34c-0.17,3.28-2.17,5.25-5.16,5.2
		c-3.22-0.05-5.47-2.2-5.53-5.44c-0.07-3.71,0-7.42-0.03-11.12c-0.09-11.87-8.93-20.83-20.82-20.98c-4.14-0.05-8.36-0.24-12.42,0.39
		c-10.06,1.56-17.07,10.11-17.11,20.27C110.7,240.94,110.71,242.33,110.71,243.9z M226.18,255.39c-0.05-2.08-1.84-3.71-3.95-3.61
		c-2.03,0.09-3.61,1.77-3.57,3.77c0.05,2.06,1.87,3.74,3.95,3.64C224.59,259.09,226.23,257.35,226.18,255.39z"/>
	<path d="M120.2,310.72c0.11-2.49-0.79-3.32-2.52-3.9c-3.29-1.08-5.34-4.33-5.31-7.74c0.03-3.41,2.14-6.68,5.44-7.65
		c1.96-0.57,2.3-1.57,2.28-3.34c-0.08-6.45,0.02-12.91-0.05-19.36c-0.1-9.79-6.67-16.28-16.44-16.28c-2.74,0-5.51-0.13-8.22,0.2
		c-7.57,0.91-13.33,7.16-13.52,14.76c-0.17,7.04-0.08,14.09,0,21.14c0.01,0.85,0.52,1.82,1.08,2.52c3.25,4.02,3.98,8.45,1.9,13.12
		c-2.1,4.71-5.99,7.02-11.13,7.14c-2.59,0.06-5.19,0.06-7.79,0c-6.59-0.17-11.76-5.08-12.04-11.35c-0.3-6.83,4.07-12.23,10.86-12.83
		c4.1-0.36,8.27-0.07,12.66-0.07c0.05-0.76,0.13-1.55,0.13-2.33c0.01-5.49-0.01-10.98,0.01-16.47c0.04-11.28,8.46-19.9,19.73-20.16
		c2.52-0.06,5.05-0.07,7.57,0.01c10.8,0.32,19.34,9.02,19.43,19.83c0.05,6.82,0.04,13.65-0.01,20.47c-0.01,1.57,0.29,2.32,2.14,2.52
		c4.3,0.46,7.27,4,7.27,8.19c0,4.14-2.83,7.54-7.02,8.22c-1.33,0.22-2.23,0.31-2.6,2.02C123.9,310.02,121.76,310.22,120.2,310.72z
		 M69.79,307.16c0-0.07,0-0.15,0-0.22c1.7,0,3.43,0.18,5.1-0.04c3.93-0.52,6.67-3.75,6.7-7.65c0.03-3.92-2.62-7.38-6.52-7.77
		c-3.44-0.34-6.98-0.34-10.42,0.01c-3.88,0.4-6.56,3.93-6.51,7.81c0.05,3.76,2.78,7.01,6.55,7.58
		C66.37,307.14,68.09,307.08,69.79,307.16z M123.1,295.06c0,0.03,0,0.06,0,0.09c-0.88,0-1.78-0.08-2.65,0.02
		c-2.15,0.25-3.74,1.98-3.75,3.97c-0.01,2.09,1.67,3.87,3.93,3.99c1.69,0.09,3.4,0.11,5.08-0.03c2.08-0.17,3.55-1.83,3.61-3.81
		c0.06-1.97-1.33-3.7-3.36-4.06C125.03,295.06,124.06,295.11,123.1,295.06z"/>
	<path d="M181.03,112.59c1.67-3.18,0.35-5.25-6.17-9.51c4.21,0.56,7.8,1.42,10.9,3.71c2.41,1.78,3.06,4.23,2.65,7.09
		c-0.4,2.85-1.9,4.84-4.62,5.7c-1.61,0.51-3.33,0.94-5,0.95c-16.69,0.07-33.38,0.07-50.06,0.01c-1.6-0.01-3.23-0.43-4.79-0.87
		c-2.75-0.78-4.38-2.69-4.85-5.51c-0.49-2.91,0.09-5.47,2.58-7.34c2.94-2.21,6.35-3.02,10.55-3.72c-3.34,2.77-7.48,4.4-6.04,9.84
		c2.31-3.38,5.46-3.51,8.71-3.51c12.76,0.02,25.52,0.02,38.27,0C176.21,109.43,179.1,109.76,181.03,112.59z"/>
	<path d="M179.14,290.98c3.5-0.34,6.74-0.9,9.99-0.91c5.16-0.02,8.64,3.61,8.56,8.51c-0.08,4.76-3.64,8.17-8.74,8.07
		c-3.18-0.06-6.35-0.54-9.8-0.86c-0.02,0.4-0.19,1.4-0.11,2.38c0.12,1.61-0.43,2.23-2.13,2.23c-1.72,0-2.13-0.69-2.13-2.26
		c0.05-8.68,0.03-17.36,0.02-26.04c-0.02-9.44-5.32-14.78-14.7-14.85c-1.63-0.01-3.27-0.04-4.89,0.03
		c-7.72,0.33-13.14,5.92-13.18,13.67c-0.05,8.68-0.01,17.36-0.01,26.04c0,3.7-0.2,3.85-4.17,3.05c-0.04-0.81-0.11-1.68-0.11-2.55
		c-0.01-8.83-0.02-17.65,0-26.48c0.02-10.38,7.59-18,17.98-17.98c3.4,0.01,6.89-0.13,10.17,0.59c7.82,1.72,13.06,8.63,13.14,16.64
		c0.03,2.97-0.01,5.93,0.01,8.9C179.03,289.95,179.13,290.73,179.14,290.98z M187.08,302.34c0,0.02,0,0.04,0,0.06
		c0.82,0,1.64,0.06,2.45-0.01c2.36-0.21,3.88-1.86,3.84-4.08c-0.04-2.14-1.51-3.73-3.79-3.88c-1.77-0.11-3.57-0.12-5.33,0.06
		c-1.98,0.2-3.39,1.88-3.46,3.77c-0.07,1.95,1.36,3.75,3.4,4.06C185.14,302.46,186.12,302.34,187.08,302.34z"/>
	<path d="M202.62,295.96c0-3.56-0.01-7.12,0-10.68c0.04-8.56,5.96-15.49,14.44-16.47c3.43-0.4,7-0.39,10.42,0.06
		c8.25,1.09,14.06,8.01,14.12,16.32c0.04,4.67,0.04,4.67,4.59,4.83c5.12,0.17,8.82,3.77,8.72,8.49c-0.1,4.79-3.77,8.16-8.95,8.2
		c-0.74,0.01-1.49,0.05-2.22-0.01c-1.43-0.11-2.33,0.28-2.14,1.94c0.22,1.88-1.09,1.68-2.3,1.74c-1.36,0.06-2.17-0.32-1.97-1.86
		c0.26-1.96-0.42-3.42-1.8-4.93c-2.81-3.07-2.41-7.79,0.35-10.99c0.78-0.9,1.19-2.26,1.39-3.47c0.23-1.37,0.09-2.81,0.04-4.22
		c-0.26-6.6-5.39-11.75-12-11.98c-2.15-0.08-4.3-0.08-6.45,0c-6.72,0.25-11.9,5.5-11.95,12.22c-0.07,7.64-0.06,15.28,0.02,22.92
		c0.02,1.69-0.41,2.32-2.21,2.35c-1.95,0.03-2.15-0.88-2.12-2.44C202.66,303.98,202.62,299.97,202.62,295.96z M244.19,302.36
		c0,0.01,0,0.01,0,0.02c0.89,0,1.79,0.08,2.67-0.02c2.19-0.24,3.72-1.95,3.7-4.02c-0.02-1.98-1.48-3.71-3.57-3.88
		c-1.84-0.15-3.71-0.16-5.55,0.01c-2.09,0.19-3.48,1.93-3.45,3.96c0.03,2.03,1.44,3.64,3.55,3.9
		C242.4,302.45,243.3,302.36,244.19,302.36z"/>
	<path d="M191.65,262.51c-3.7,0-7.4,0.02-11.1-0.01c-2.88-0.02-4.63-1.52-4.66-3.93c-0.03-2.43,1.67-3.96,4.56-3.97
		c7.4-0.03,14.8-0.03,22.2,0c2.87,0.01,4.64,1.59,4.59,3.98c-0.05,2.35-1.87,3.9-4.71,3.92
		C198.91,262.53,195.28,262.51,191.65,262.51z M191.56,260.52c3.48,0,6.96-0.01,10.44,0c1.48,0,3.09-0.07,3.13-1.96
		c0.04-1.9-1.56-2.06-3.04-2.07c-7.03-0.01-14.06-0.01-21.09,0c-1.47,0-3.07,0.14-3.01,2.08c0.07,1.92,1.68,1.94,3.14,1.94
		C184.61,260.52,188.09,260.52,191.56,260.52z"/>
	<path d="M100.26,275.66c3.63,0,7.27-0.02,10.9,0.01c2.89,0.02,4.58,1.55,4.54,4.02c-0.04,2.37-1.68,3.85-4.47,3.86
		c-7.42,0.03-14.83,0.03-22.25,0c-2.9-0.01-4.58-1.55-4.54-4.01c0.04-2.41,1.77-3.87,4.69-3.88
		C92.84,275.64,96.55,275.66,100.26,275.66z M100.08,281.65C100.08,281.64,100.08,281.64,100.08,281.65c3.62-0.01,7.25,0,10.87-0.01
		c1.36-0.01,2.66-0.34,2.67-1.98c0-1.8-1.38-2.02-2.82-2.02c-7.1,0.01-14.2,0.01-21.3,0c-1.5,0-3.04,0.14-3,2.07
		c0.04,1.76,1.53,1.94,2.94,1.95C92.98,281.65,96.53,281.65,100.08,281.65z"/>
	<path d="M124.95,256.88c7.41,0,14.82,0,22.22,0c0.59,0,1.19,0,1.78-0.01c1.58-0.04,2.9-0.58,2.91-2.35
		c0.02-2.05-1.5-2.51-3.22-2.51c-8.75-0.01-17.5,0.03-26.24-0.04c-1.09-0.01-2.18-0.53-3.26-0.81c0.05-0.26,0.09-0.52,0.14-0.78
		c0.47-0.07,0.94-0.2,1.4-0.2c9.41-0.01,18.83-0.01,28.24,0c0.52,0,1.04,0.02,1.55,0.12c2.06,0.42,3.48,2.26,3.39,4.34
		c-0.09,2.12-1.62,3.95-3.75,3.98c-7.93,0.1-15.86,0.08-23.79,0.02c-0.63,0-1.25-0.7-1.87-1.07
		C124.62,257.33,124.78,257.11,124.95,256.88z"/>
	<path d="M150.18,244.7c-2.34-0.02-4.2-1.94-4.16-4.28c0.04-2.36,1.96-4.18,4.32-4.09c2.27,0.08,4.03,1.88,4.04,4.15
		C154.4,242.82,152.51,244.72,150.18,244.7z"/>
	<path d="M115.67,240.22c0.13-2.36,2.11-4.08,4.47-3.88c2.26,0.18,3.96,2.1,3.86,4.33c-0.11,2.32-2.11,4.15-4.41,4.02
		C117.25,244.56,115.54,242.61,115.67,240.22z"/>
	<path d="M108.17,268.67c0.04-2.28,1.7-3.89,3.97-3.85c2.24,0.03,3.92,1.71,3.93,3.95c0.01,2.3-1.81,4.05-4.13,3.97
		C109.68,272.65,108.13,270.98,108.17,268.67z"/>
	<path d="M88.89,264.86c2.22-0.01,3.97,1.7,3.99,3.88c0.02,2.15-1.76,3.95-3.93,3.98c-2.19,0.03-3.92-1.69-3.94-3.92
		C84.99,266.55,86.65,264.86,88.89,264.86z"/>
	<path d="M158.16,291.02c-2.07,0-4.15,0.12-6.21-0.06c-0.73-0.07-1.39-0.89-2.08-1.36c0.65-0.45,1.29-1.28,1.95-1.3
		c4.29-0.12,8.58-0.12,12.86,0.01c0.63,0.02,1.23,0.9,1.84,1.38c-0.64,0.45-1.26,1.22-1.94,1.28
		C162.46,291.13,160.3,291.02,158.16,291.02z"/>
	<path d="M220.79,296.07c-2.14,0-4.29,0.1-6.43-0.06c-0.67-0.05-1.28-0.83-1.92-1.27c0.63-0.45,1.24-1.28,1.88-1.3
		c4.28-0.12,8.57-0.12,12.86,0c0.66,0.02,1.29,0.82,1.93,1.27c-0.63,0.45-1.23,1.25-1.9,1.3
		C225.09,296.18,222.94,296.07,220.79,296.07z"/>
	<path d="M171.7,281.36c-0.08,1.94-1.71,3.47-3.64,3.42c-2.06-0.05-3.52-1.68-3.41-3.82c0.1-2,1.65-3.37,3.69-3.26
		C170.33,277.81,171.79,279.4,171.7,281.36z"/>
	<path d="M147.62,277.74c2,0.04,3.42,1.54,3.37,3.57c-0.04,1.98-1.6,3.48-3.55,3.43c-1.93-0.05-3.46-1.67-3.42-3.6
		C144.07,279.18,145.64,277.7,147.62,277.74z"/>
	<path d="M208.22,246.57c-0.03,1.96-1.62,3.49-3.58,3.43c-1.98-0.06-3.44-1.63-3.38-3.62c0.06-1.89,1.51-3.28,3.45-3.29
		C206.69,243.09,208.25,244.63,208.22,246.57z"/>
	<path d="M182.63,246.52c-0.01,1.9-1.47,3.42-3.35,3.47c-1.94,0.05-3.51-1.56-3.46-3.55c0.05-1.96,1.46-3.31,3.43-3.3
		C181.17,243.15,182.63,244.62,182.63,246.52z"/>
	<path d="M234.52,285.88c-0.02,1.92-1.46,3.36-3.34,3.34c-1.88-0.02-3.32-1.51-3.31-3.41c0.02-1.87,1.54-3.4,3.38-3.37
		C233.1,282.46,234.54,283.98,234.52,285.88z"/>
	<path d="M215.71,285.99c-0.08,1.83-1.77,3.33-3.6,3.19c-1.77-0.14-3.19-1.72-3.12-3.45c0.08-1.88,1.69-3.29,3.6-3.16
		C214.38,282.69,215.79,284.23,215.71,285.99z"/>
	<path d="M133.36,222.93c3,0,6.01-0.07,9.01,0.03c1.44,0.05,2.12,1.05,1.84,2.45c-0.3,1.46-1.36,1.91-2.69,1.39
		c-2.75-1.07-5.47-2.23-8.2-3.35C133.34,223.28,133.35,223.1,133.36,222.93z"/>
	<path d="M186.45,281.28c-0.63-1.87-0.35-2.81,1.61-2.74c2.06,0.07,4.13-0.07,6.18,0.09c0.54,0.04,1.01,0.85,1.52,1.3
		c-0.49,0.45-0.97,1.27-1.48,1.29C191.65,281.35,189.02,281.28,186.45,281.28z"/>
</g>
</svg>
