<?xml version="1.0" encoding="utf-8"?>
<!-- Generator: Adobe Illustrator 23.0.1, SVG Export Plug-In . SVG Version: 6.00 Build 0)  -->
<svg version="1.1" id="Layer_1" xmlns="http://www.w3.org/2000/svg" xmlns:xlink="http://www.w3.org/1999/xlink" height="25px"
	 viewBox="0 0 707.59 133.11" style="enable-background:new 0 0 707.59 133.11;" xml:space="preserve">
<path d="M0.07,60.89c6.23,0,11.3,0,17.39,0c0,9.78,0.37,18.98-0.11,28.14c-0.44,8.4,3.14,10.57,10.95,9.64
	c11.73-1.4,23.55-2.06,35.93-3.08c0,4.24,0,7.87,0,12.34c-17.71-1-21.29,16.38-33.48,25.18c-0.38-6.87-0.73-13.19-1.1-19.94
	c-4.6,0-8.82,0.05-13.05-0.01c-10.58-0.14-16.26-5.41-16.47-15.9C-0.12,85.44,0.07,73.6,0.07,60.89z"/>
<path d="M63.42,20.48c-12.29-1.67-24.6-3.17-36.85-5.08c-6.96-1.08-9.46,1.51-9.2,8.39c0.35,9.45,0.09,18.92,0.09,29.27
	c-6.21-0.34-11.26-0.62-17.14-0.94c0-13.78-0.46-27.01,0.18-40.19C0.87,4.24,7.54-0.92,15.9,0.14c14.89,1.89,29.77,4.32,44.37,7.72
	c2.69,0.63,4.06,6.91,6.04,10.58C65.35,19.12,64.38,19.8,63.42,20.48z"/>
<path d="M107.25,56.39c0-8.41,0.54-15.95-0.29-23.33c-0.3-2.63-3.53-6.31-6.11-7.04c-6.61-1.85-13.6-3.04-20.46-3.13
	c-9.1-0.12-10.8-4.27-8.14-13.34c12,2.18,24.22,3.74,35.99,6.96c3.36,0.92,7.24,6.44,7.67,10.22c1.09,9.62,0.36,19.44,0.36,29.66
	C113.29,56.39,110.87,56.39,107.25,56.39z"/>
<path d="M71.57,107.09c0-4.3,0-7.64,0-11.89c8.91-0.71,17.49-1.7,26.08-1.97c7.2-0.23,10.53-2.79,9.75-10.5
	c-0.63-6.27-0.13-12.66-0.13-19.64c3.13,0,5.75,0,9,0c0,10.11,0.42,19.89-0.14,29.62c-0.41,7.25-5.84,10.2-12.48,10.95
	C93.32,104.84,82.98,105.88,71.57,107.09z"/>
<path d="M46.29,48.4c5.23,3.94,10.47,7.88,16.13,12.14c8.54-7.64,16.87-15.09,25.2-22.53c0.59,0.54,1.18,1.07,1.77,1.61
	c-9.36,11.13-18.72,22.26-28.89,34.35c-5.88-8.52-11.13-16.12-16.37-23.72C44.85,49.63,45.57,49.01,46.29,48.4z"/>
<g>
	<path d="M166.49,29.03h-18.26V16.45h51.52v12.58h-18.26V82.8h-15V29.03z"/>
	<path d="M200.23,57.57c0-16.38,11.69-26.49,23.82-26.49c14.38,0,21.51,10.46,21.51,24.24c0,2.7-0.34,5.39-0.62,6.61h-30.21
		c1.34,7.33,6.36,10.69,13.1,10.69c3.82,0,7.26-1.16,10.92-3.3l4.95,9.02c-5.17,3.58-11.93,5.69-17.92,5.69
		C211.38,84.02,200.23,74.28,200.23,57.57z M232.78,52.03c0-5.55-2.42-9.55-8.39-9.55c-4.73,0-8.81,3.17-9.83,9.55H232.78z"/>
	<path d="M253.46,76.97l6.73-9.32c4.57,3.46,8.8,5.31,13.03,5.31c4.45,0,6.38-1.7,6.38-4.34c0-3.33-5.01-4.84-10.2-6.87
		c-6.19-2.4-13.36-6.5-13.36-14.85c0-9.4,7.64-15.81,19.3-15.81c7.74,0,13.5,3.13,17.8,6.4l-6.7,8.99
		c-3.59-2.61-7.14-4.31-10.63-4.31c-3.87,0-5.77,1.51-5.77,4.03c0,3.22,4.73,4.45,9.96,6.36c6.39,2.36,13.6,5.96,13.6,15.2
		c0,9.14-7.21,16.29-20.74,16.29C266.19,84.02,258.57,81.14,253.46,76.97z"/>
	<path d="M305.04,64.44v-20.4h-6.9V32.87l7.74-0.57l1.75-13.41h12.38V32.3h12.11v11.74h-12.11v20.22c0,5.72,2.6,8.02,6.54,8.02
		c1.67,0,3.47-0.48,4.8-0.96l2.36,10.87c-2.68,0.85-6.32,1.83-11.22,1.83C310,84.02,305.04,76.14,305.04,64.44z"/>
	<path d="M342.88,17.09c0-4.59,3.64-7.82,8.66-7.82c5.02,0,8.66,3.24,8.66,7.82c0,4.55-3.64,7.82-8.66,7.82
		C346.52,24.91,342.88,21.64,342.88,17.09z M344.04,32.3H359v50.5h-14.96V32.3z"/>
	<path d="M374.17,32.3h12.21l1.08,6.39h0.37c4.25-4.08,9.34-7.62,16.23-7.62c10.98,0,15.66,7.75,15.66,20.37V82.8h-14.96V53.36
		c0-7.27-1.95-9.54-6.27-9.54c-3.76,0-6.06,1.75-9.35,4.91V82.8h-14.96V32.3z"/>
	<path d="M431.33,91.47c0-4.19,2.51-7.58,7.16-10.17V80.9c-2.61-1.76-4.61-4.41-4.61-8.57c0-3.64,2.42-7.2,5.63-9.46v-0.41
		c-3.56-2.48-6.78-7.2-6.78-13.1c0-12.12,10.01-18.28,20.89-18.28c2.81,0,5.56,0.44,7.82,1.22h18.47v10.9h-8.12
		c0.94,1.51,1.71,4.01,1.71,6.66c0,11.62-8.84,16.97-19.88,16.97c-1.84,0-3.93-0.31-6.17-0.98c-1.23,1.08-1.76,1.98-1.76,3.76
		c0,2.49,2.04,3.7,7.56,3.7h8.19c12.38,0,19.28,3.8,19.28,12.84c0,10.49-10.93,18.13-28.27,18.13
		C440.71,104.27,431.33,100.45,431.33,91.47z M466.39,88.69c0-3.18-2.73-3.91-7.7-3.91h-5.24c-3.46,0-5.44-0.2-7.08-0.65
		c-1.87,1.58-2.73,3.14-2.73,4.95c0,3.83,4.43,5.79,11.19,5.79C461.58,94.88,466.39,92.19,466.39,88.69z M460.51,49.35
		c0-5.38-2.92-8.21-6.9-8.21c-3.97,0-6.89,2.81-6.89,8.21c0,5.53,2.96,8.42,6.89,8.42C457.56,57.77,460.51,54.88,460.51,49.35z"/>
	<path d="M501.38,29.03h-18.26V16.45h51.52v12.58h-18.26V82.8h-15V29.03z"/>
	<path d="M544.63,17.09c0-4.59,3.64-7.82,8.66-7.82c5.02,0,8.66,3.24,8.66,7.82c0,4.55-3.64,7.82-8.66,7.82
		C548.27,24.91,544.63,21.64,544.63,17.09z M545.79,32.3h14.96v50.5h-14.96V32.3z"/>
	<path d="M575.92,32.3h12.21l1.08,6.48h0.37c4.14-4.17,8.67-7.7,15.3-7.7c7.1,0,11.39,3.06,13.94,8.5c4.44-4.63,9.18-8.5,15.86-8.5
		c10.91,0,15.8,7.75,15.8,20.37V82.8h-14.96V53.36c0-7.27-1.99-9.54-6.24-9.54c-2.54,0-5.41,1.58-8.59,4.91V82.8h-14.96V53.36
		c0-7.27-1.99-9.54-6.24-9.54c-2.5,0-5.41,1.58-8.6,4.91V82.8h-14.96V32.3z"/>
	<path d="M662.26,57.57c0-16.38,11.69-26.49,23.82-26.49c14.38,0,21.51,10.46,21.51,24.24c0,2.7-0.34,5.39-0.62,6.61h-30.21
		c1.34,7.33,6.36,10.69,13.1,10.69c3.82,0,7.26-1.16,10.92-3.3l4.95,9.02c-5.17,3.58-11.93,5.69-17.92,5.69
		C673.41,84.02,662.26,74.28,662.26,57.57z M694.81,52.03c0-5.55-2.42-9.55-8.39-9.55c-4.73,0-8.81,3.17-9.83,9.55H694.81z"/>
</g>
</svg>
