<?xml version="1.0" encoding="utf-8"?>
<!-- Generator: Adobe Illustrator 23.0.1, SVG Export Plug-In . SVG Version: 6.00 Build 0)  -->
<svg version="1.1" id="Layer_1" xmlns="http://www.w3.org/2000/svg" xmlns:xlink="http://www.w3.org/1999/xlink" height="25px"
	 viewBox="0 0 445.91 156.86" style="enable-background:new 0 0 445.91 156.86;" xml:space="preserve">
<path d="M0,47.21c4.76-0.53,9.28-1.5,13.78-1.4c4.86,0.11,6.53,4.11,7.44,8.24c3.31,15.08,6.63,30.16,9.84,45.27
	c1.74,8.18,3.25,16.41,4.9,24.61c0.21,1.06,0.64,2.08,1.95,3.24c0.64-2.63,1.37-5.24,1.92-7.89c4.62-22.53,9.27-45.06,13.74-67.62
	c0.73-3.68,2.33-5.19,6.08-5.02c4.98,0.23,9.98,0.16,14.97,0.07c3-0.05,4.18,1.39,4.75,4.21c4.78,23.81,9.66,47.61,14.53,71.4
	c0.32,1.54,0.74,3.07,2.11,4.74c0.34-1.03,0.78-2.04,1.01-3.1c5.42-24.5,10.89-48.98,16.14-73.52c0.63-2.97,1.89-4.18,4.7-4.22
	c0.32,0,0.64-0.08,0.96-0.11c13.62-1.43,15.04,0.09,11.82,12.91c-6.66,26.51-13.45,53-19.98,79.54c-0.81,3.29-2.19,4.69-5.46,4.65
	c-4.19-0.05-8.38,0.23-12.56,0.08c-7.91-0.29-10.64-2.56-12.2-10.31c-4.21-20.97-8.3-41.97-12.45-62.96
	c-0.3-1.49-0.7-2.97-1.85-4.37c-2.65,12.9-5.29,25.8-7.96,38.69c-2.32,11.18-4.82,22.33-6.95,33.55c-0.69,3.63-2.32,5.03-5.96,5.24
	c-23.62,1.39-22.75-0.99-26.95-18.77C12.57,100.09,6.6,75.89,0.74,51.66C0.48,50.59,0.37,49.49,0,47.21z"/>
<path d="M231.28,140.62c-1.57,0.67-3.81,2.04-6.24,2.61c-10.28,2.43-15.57-1.62-15.68-12.16c-0.16-16.11,0-32.21-0.09-48.32
	c-0.02-3.52-0.19-7.11-0.92-10.54c-1.41-6.64-5.41-9.48-12.2-8.91c-8.7,0.73-16.05,4.58-22.2,10.59c-1.15,1.12-1.57,3.43-1.58,5.19
	c-0.11,19.17-0.07,38.33-0.07,57.5c0,1.76,0,3.51,0,5.98c-6.53,0-12.78,0-19.52,0c0-2.07,0-3.65,0-5.23
	c0-43.81,0.07-87.62-0.1-131.43c-0.02-4.67,1.32-6.02,5.94-5.9c11.34,0.3,13.63,2.31,13.66,13.55c0.03,12.89,0.01,25.77,0.01,38.66
	c0,1.54,0,3.09,0,5.46c2.1-1.49,3.49-2.46,4.87-3.45c8.93-6.45,18.75-9.74,29.88-8.74c9.26,0.83,15.89,5.52,19.05,14.08
	c1.86,5.03,2.95,10.6,3.11,15.96c0.43,14.16-0.04,28.35,0.24,42.52C229.6,125.2,230.58,132.35,231.28,140.62z"/>
<path d="M360.47,61.21c-5.14,0-9.62,0-14.65,0c0-4.82,0-9.35,0-14.33c4.87,0,9.46,0,14.67,0c0-5.87-0.09-11.31,0.02-16.75
	c0.23-11.24,6.04-15.72,17.04-12.87c1.15,0.3,2.43,2.74,2.48,4.22c0.24,8.33,0.11,16.68,0.11,25.33c8.28,0,16.09,0,24.5,0
	c0,4.86,0,9.4,0,14.34c-8.32,0-16.15,0-24.5,0c0,6.13,0,11.88,0,17.64c0,13.05-0.03,26.1,0.01,39.15c0.03,7.27,2.23,9.44,9.53,9.63
	c0.64,0.02,1.3-0.06,1.93,0.02c5.72,0.64,9.78-0.28,13.03-6.43c4.64-8.77,15.83-11.84,25.37-8.78c9.57,3.07,15.97,11.9,15.89,21.9
	c-0.09,9.93-6.8,18.83-16.31,21.62c-9.7,2.85-20.17-0.59-25.3-9.24c-2.33-3.93-4.9-4.44-8.89-4.19c-6.72,0.42-13.56,0.9-20.2,0.09
	c-9.21-1.13-14.13-6.6-14.38-15.94c-0.47-17.55-0.28-35.12-0.36-52.68C360.46,69.78,360.47,65.64,360.47,61.21z"/>
<path d="M311.14,132.18c-2.72,2.06-5.19,4.1-7.83,5.88c-8.17,5.52-17.04,8.16-26.98,6.42c-11.53-2.02-19.73-8.18-22.56-19.68
	c-3.03-12.33-1.17-23.82,9.34-32.38c7.03-5.72,15.51-7.65,24.37-7.91c6.9-0.2,13.8-0.04,21.82-0.04c-0.5-4.56-0.43-10.06-1.83-15.15
	c-1.75-6.34-7.91-9.71-16.03-8.54c-8.22,1.18-16.34,3.37-24.37,5.57c-5.77,1.58-6.7,1.48-9.04-3.92c-3.04-7.04-2.37-8.67,4.69-11.3
	c11.74-4.36,23.86-6.67,36.4-6.26c18.45,0.61,29.31,11.39,29.71,29.86c0.3,14.01-0.28,28.04,0.28,42.03
	c0.21,5.24,2.96,10.32,3.76,15.6c0.36,2.39-0.76,5.32-1.99,7.57c-1.41,2.58-3.69,4.36-7.22,3.18
	C318.01,141.22,313.93,137.61,311.14,132.18z M308.95,98.18c-6.41,0-12.04-0.27-17.63,0.1c-3.46,0.22-7.1,0.87-10.25,2.26
	c-7.2,3.18-10.14,11.03-7.79,19.24c1.98,6.9,7.03,9.99,15.34,9.24c7.8-0.7,13.89-4.72,19.14-10.21c0.61-0.64,1.12-1.67,1.13-2.53
	C309,110.68,308.95,105.08,308.95,98.18z"/>
</svg>
