<?xml version="1.0" encoding="utf-8"?>
<!-- Generator: Adobe Illustrator 23.0.1, SVG Export Plug-In . SVG Version: 6.00 Build 0)  -->
<svg version="1.1" id="Layer_1" xmlns="http://www.w3.org/2000/svg" xmlns:xlink="http://www.w3.org/1999/xlink" height="25px"
	 viewBox="0 0 700.21 125.36" style="enable-background:new 0 0 700.21 125.36;" xml:space="preserve">
<g>
	<path d="M670.66,0c0,32.06,0,64.12,0,96.78c-5.68,0-10.5,0-16.86,0c0-32.17,0-64.48,0-96.78C659.42,0,665.04,0,670.66,0z"/>
	<path d="M32.73,96.67c-13.79,1.46-13.93,1.5-17.47-10.99C10.12,67.55,5.19,49.36,0,30.59c5.45,0,10.27,0,15.61,0
		c3.57,16,7.12,31.91,11.05,49.51c4.66-17.47,8.84-33.14,13.17-49.37c4.28,0,8.5,0,13.43,0c4.03,15.62,8.17,31.65,12.78,49.54
		c4.09-17.7,7.72-33.41,11.46-49.62c4.6,0,9.08,0,14,0c-6.31,22.37-12.51,44.34-18.74,66.42c-4.86,0-9.15,0-14.05,0
		c-4.26-15.53-8.49-30.95-12.92-47.08C41.3,66.05,36.99,81.45,32.73,96.67z"/>
	<path d="M229.85,121.76c2.39-4.8,3.88-7.78,5.33-10.68c23.87,6.62,31.06,3.39,30.97-13.62c-0.49-0.31-1.07-0.97-1.46-0.88
		c-12.82,3.09-24.27,1.65-32.11-10.33c-8.23-12.57-7.95-33.32,1.05-44.97c8.85-11.46,20.91-14.77,34.88-11.66
		c13.29,2.97,13.2,2.97,13.11,16.68c-0.11,16.81,0.2,33.63-0.12,50.44c-0.38,20.2-10.11,29.43-30.32,28.57
		C244.46,125.02,237.83,123.14,229.85,121.76z M265.83,40.15c-14.83-3.15-21.58,1.74-22.47,16.13c-0.29,4.65-0.33,9.33-0.13,13.98
		c0.64,15.33,6.83,20.01,22.6,16.8C265.83,71.47,265.83,55.77,265.83,40.15z"/>
	<path d="M178.04,96.91c-5.2,0-9.69,0-15.05,0c0-19.98-0.1-39.52,0.16-59.06c0.03-1.89,1.97-4.96,3.61-5.43
		c11.35-3.24,22.79-6.08,34.68-2.01c9.29,3.18,14.56,9.06,14.53,19.19c-0.05,15.54-0.01,31.08-0.01,47.18c-4.81,0-9.61,0-15.42,0
		c0-14.71,0.04-29.26-0.01-43.81c-0.04-11.91-6.63-17-18.11-13.28c-2.06,0.67-4.13,4.9-4.19,7.53
		C177.86,63.63,178.04,80.06,178.04,96.91z"/>
	<path d="M427.87,60.04c-10.77-9.37-12.3-15.54-6.41-23.45c6.87-9.23,22.17-10.7,33.7-3.1c-1.15,5.45-2.71,9.09-9.93,6.35
		c-5.28-2-11.42-0.63-12.29,6.06c-0.91,7.02,4.72,8.82,10.56,8.46c4.6-0.28,9.25-0.99,13.68-2.22c4.09-1.14,7.9-3.24,12.21-5.07
		c1.54,3.04,2.88,5.72,4.93,9.78c-13.07-0.01-11.93,8.59-11.41,16.87c0.1,1.55,0.01,3.12,0.01,4.68
		c-0.03,18.77-0.43,19.31-19.46,19.83c-4.62,0.13-9.42-0.27-13.89-1.42c-8.06-2.08-14-7.08-15.25-15.7
		C412.87,71.06,418.57,64.78,427.87,60.04z M449.21,63.76c-13.94,0.85-21.05,6.27-20.28,14.91c0.7,7.9,6.76,10.54,20.28,8.58
		C449.21,79.67,449.21,72,449.21,63.76z"/>
	<path d="M642.52,63.42c-14.03,2.2-27.19,4.26-40.35,6.32c2.56,17.98,10.47,21.47,34.77,14.86c1.22,2.85,2.5,5.81,3.76,8.76
		c-20.28,9.84-39.52,6.44-48.66-8.21c-11.01-17.65-5.14-45.74,11.17-53.46c18.99-8.99,38.19,2.41,39.28,23.37
		C642.63,57.52,642.52,59.99,642.52,63.42z M629.73,56.97c-2.78-6.05-4.03-12.52-7.94-15.98c-2.59-2.29-9.86-1.84-13.51,0.16
		c-7.4,4.05-7.61,11.93-6.85,20.01C610.27,59.85,618.67,58.61,629.73,56.97z"/>
	<path d="M348.3,63.38c-13.74,2.15-26.88,4.2-40.02,6.25c1.25,17.56,10.68,21.8,34.26,14.85c1.19,2.84,2.43,5.78,3.64,8.68
		c-16.89,9.07-36.4,7.09-46.02-4.3c-9.83-11.64-10.41-36.71-1.13-49.38c6.06-8.28,18.73-12.47,29.21-9.67
		c11.95,3.2,18.76,11.27,20.02,23.97C348.53,56.55,348.3,59.37,348.3,63.38z M306.92,61.23c8.78-1.3,17.46-2.58,26.1-3.85
		c0.98-12.45-2.49-18.03-11.28-18.43C311.63,38.48,307.04,45.19,306.92,61.23z"/>
	<path d="M151.73,63.1c-14.18,2.26-27.58,4.4-40.95,6.53c-0.38,16.79,8.75,20.83,34.36,14.99c0.97,2.78,1.97,5.61,3.19,9.09
		c-12.9,6.3-25.77,8.02-38.27,1.11c-11.41-6.3-15.2-17.35-15.19-30.03c0-19.69,6.44-30.39,21.4-34.88
		c14.29-4.29,28.03,2.76,32.34,16.97C150.09,51.84,150.6,57.09,151.73,63.1z M135.84,57.14c-0.53-13.87-5.08-19.31-14.61-18.11
		c-9.06,1.15-13.86,10.47-11.48,22.28C118.23,59.96,126.72,58.6,135.84,57.14z"/>
	<path d="M493.54,30.44c5.89,0,11.12,0,16.73,0c4.35,16.25,8.65,32.3,13.26,49.5c3.67-13.28,7.81-25.26,10.14-37.59
		c1.94-10.29,6.19-14.9,17.97-11.36c-7.05,21.9-14.16,44.01-21.18,65.83c-14.79,1.18-14.76,1.17-18.86-11.39
		C505.64,67.21,499.64,49.01,493.54,30.44z"/>
	<path d="M392.49,27.12c-1.41,5.99-2.29,9.72-3.15,13.41c-13.66-2.76-14.49-1.93-14.32,10.91c0.2,14.88,0.05,29.76,0.05,45.24
		c-5.11,0-9.62,0-15.37,0c0-19.87-0.09-39.95,0.17-60.02c0.02-1.51,2.26-3.98,3.83-4.32C372.63,30.42,381.69,29.01,392.49,27.12z"/>
	<path d="M700.08,30.59c0,22.4,0,44.06,0,66.25c-5.2,0-10.03,0-15.48,0c0-21.92,0-43.82,0-66.25
		C689.6,30.59,694.42,30.59,700.08,30.59z"/>
	<path d="M574.63,97c-4.9,0-9.17,0-13.95,0c0-22.05,0-43.75,0-66.19c4.3,0,8.78,0,13.95,0C574.63,52.41,574.63,74.33,574.63,97z"/>
	<circle cx="567.97" cy="15.9" r="8.05"/>
	<circle cx="692.16" cy="15.9" r="8.05"/>
</g>
</svg>
