<?xml version="1.0" encoding="utf-8"?>
<!-- Generator: Adobe Illustrator 23.0.1, SVG Export Plug-In . SVG Version: 6.00 Build 0)  -->
<svg version="1.1" id="Layer_1" xmlns="http://www.w3.org/2000/svg" xmlns:xlink="http://www.w3.org/1999/xlink" height="35px"
	 viewBox="0 0 1267.93 930.43" style="enable-background:new 0 0 1267.93 930.43;" xml:space="preserve">
<path d="M1031.82,749.72c2.63-29.18,6.08-56.04,7.07-82.98c0.56-15.14,5.72-18.27,20.49-19.89c31.35-3.44,48.43,8.44,63.78,36.17
	c43,77.66,89.75,153.25,134.99,229.67c2.89,4.89,5.55,9.91,9.78,17.51c-23.96,0-45.78,0.83-67.44-0.63
	c-4.95-0.33-10.69-7.81-13.83-13.28c-26.32-45.83-84.13-144.23-91.72-153.57c-2.1,31.38-4.37,63.94-6.64,97.9
	c-18.53,0-36.89,0.69-55.11-0.52c-4.18-0.28-8.92-6.47-11.71-10.99c-14.37-23.21-28.13-46.79-42.22-70.18
	c-4.76-7.9-10.46-15.22-15.06-23.21c-0.23,0.06-0.2,0.05-0.43,0.11v103.36h-71.25c1.39-31,2.53-61.53,4.2-92.04
	c1.91-34.78,4.78-69.51,6.22-104.31c0.47-11.32,16.9-15.31,17.44-15.29c30.32,0.7,44.69,7.73,65.66,34.33
	C1003.25,703.73,1026.93,746.81,1031.82,749.72z"/>
<path d="M156.47,282.68c-3.28-35.27-6.95-73.12-9.93-105.12c-1.25-0.46,1.25,0.46,0,0c-3.5,4.77-10.55,13.54-13.68,18.54
	c-15.08,24.13-30.49,48.08-44.68,72.72c-6.06,10.52-13.51,13.83-25.23,13.82c-46.13-0.02-45.47,0.29-47.09-45.31
	c-1.75-49.29-4.9-98.54-7.36-147.81c-0.29-5.72-0.04-11.47-0.04-18.3c22.1,0,43.89,0,67.57,0c1.43,31.8,3.72,102.33,5.09,102.83
	c6.61-11.03,16.52-28.44,23.13-39.46c5.67-9.45,11.33-18.91,17.02-28.35c24.15-40.02,30.33-42.68,81.65-33.82
	c2.41,30.92,4.86,62.43,7.66,98.29c5.06-6.61,64.59-109.11,91.06-157.43C307.21,3.15,313.56,0.02,324.84,0
	c18.41-0.03,36.86,0.24,58.62,0.24c-16.41,27.86-31.26,53.19-46.22,78.46c-36.98,62.46-74.33,124.7-110.72,187.49
	c-7.06,12.18-14.98,16.4-29.02,16.44C183.33,282.68,171.19,282.68,156.47,282.68z"/>
<path d="M446.39,650.15c45.74,0,89.3-2.23,132.5,0.75c30.7,2.12,56.53,18.71,62.55,51.51c6.42,34.96,3.29,58.09-38.49,85.71
	c14.7,22.22,29.46,44.54,46.12,69.72c-26.01,0-48.95,0.55-71.82-0.47c-4.45-0.2-9.64-5.78-12.75-10.12
	c-9.78-13.67-18.15-28.38-28.35-41.71c-3.12-4.08-10.73-9.03-15.83-6.67c-6.45,2.98-5.71,7.92-5.57,12.45
	c0.29,9.22,0.29,19.15-0.16,29.58c-0.54,12.46-2.98,17.36-16.38,17.62c-51.82,0.98-51.81,1.43-51.81-49.75
	C446.39,756.56,446.39,704.36,446.39,650.15z M536.93,750.32c1.73,0,3.47,0.04,5.2-0.01c21.19-0.55,33.05-8.66,33.17-22.67
	c0.12-14.67-10.32-22.29-32.35-23.32c-5.77-0.27-11.6-0.38-17.33,0.23c-3.21,0.34-8.83,2.07-8.96,3.55
	c-1.04,11.96,0.12,23.66-0.38,35.82C517.2,748.11,536.59,751.15,536.93,750.32z"/>
<path d="M972.97,70.98c44.14,2.44,87.82,1.31,130.21,8.15c45.79,7.39,71.24,41.97,74.19,88.31c3.28,51.74-17.95,87.12-62.86,104.72
	c-26.31,10.31-110.99,14.85-141.54,7.32C972.97,211.57,972.97,143.43,972.97,70.98z M1041.21,216.1c0.57,4.41,5.96,6.47,10.09,7.09
	c29.37,4.41,54.1-12.59,56.95-37.87c3.51-31.13-12.33-49.93-45.16-53.6c-21.14-2.36-23.55-6.66-23.64,14.88
	C1039.43,154.75,1039.73,204.67,1041.21,216.1z"/>
<path d="M197.9,753.79c0.03-63.1,49.2-110.8,114.12-110.71c65.34,0.08,114.91,47.69,114.83,110.27
	c-0.07,62.11-50.26,110.44-114.84,110.58C246.48,864.08,197.86,817.15,197.9,753.79z M311.98,703.7
	c-25.23,0.07-45.76,22.11-45.86,49.25c-0.11,28.23,20.51,50.34,46.68,50.04c25.07-0.29,46.07-23.29,45.41-49.74
	C357.54,726.46,336.24,703.64,311.98,703.7z"/>
<path d="M545.06,178.06c-0.34,62.71-50,110.22-115.03,110.07C363.27,287.97,315.5,240.12,316,173.91
	C316.45,115,368.38,66.92,431.16,67.3C497.14,67.7,545.4,114.63,545.06,178.06z M476.43,177.85c-0.14-27.96-21.44-50.57-47.05-49.96
	c-24.64,0.59-45.7,24.22-45.01,50.51c0.71,27.24,21.48,48.93,46.7,48.79C456.57,227.04,476.57,205.27,476.43,177.85z"/>
<path d="M722,213.25c14.63,21.97,29.24,43.9,45.85,68.83c-26.42,0-49.41,0.54-72.33-0.48c-4.4-0.2-9.5-5.85-12.59-10.18
	c-9.76-13.69-18.13-28.4-28.32-41.74c-3.13-4.1-10.37-6.7-15.73-6.69c-2.17,0-6.46-3.4-6.45,13.62c0,0.53,0,1.15-0.05,1.73
	c-1.21,14.15,1.69,37.92-4.45,40.54c-14.85,6.35-33.96,3.58-51.26,2.72c-3.74-0.19-10.15-7.77-10.2-12
	c-0.66-61.59-0.37-123.2-0.53-184.8c-0.02-9.34,4.51-11.78,12.98-11.69c37.19,0.37,74.44-0.88,111.55,0.9
	c28.63,1.37,54.34,12.62,65.87,40.98c10.48,25.79,9.95,52.58-8.66,75.65C741.28,198.6,732.24,204.4,722,213.25z M651.69,175.22
	c12.37-0.48,18.45,0.4,25.11-1.17c11.32-2.66,16.94-9.93,16.49-23.4c-0.26-7.88-3.06-20.98-17.66-21.56
	c-12.17-0.49-21.63-0.49-32.52-0.24c-10.11,0.24-8.3,2.51-8.44,4.21c-1.01,11.92,0.08,24.05-0.23,35.69
	C635.31,172.71,638.84,175.81,651.69,175.22z"/>
<path d="M669.71,650.06c23.19,0,44.39,0,67.86,0c0,35.67-0.17,70.33,0.13,104.99c0.07,8.02,0.67,16.32,2.85,23.98
	c4.81,16.97,20.2,26.21,37.34,23.67c17.27-2.56,27.64-13.82,27.9-32.33c0.48-33.67,0.13-67.35,0.23-101.03
	c0.02-6.23,0.52-12.45,0.84-19.46c23.45,0,45.35,0,68.6,0c0.47,4.46,1.31,8.85,1.33,13.25c0.11,33.1,0.39,66.2-0.02,99.29
	c-0.8,64.12-29.27,95.44-92.87,100.34c-16.5,1.27-33.77-0.59-50.02-4.11c-37.49-8.12-61.5-34.03-63.6-72.97
	C667.87,741.19,669.71,696.47,669.71,650.06z"/>
<path d="M0,858.18c0-70.68,0-138.48,0-207.73c57.37,0,114.5,0,172.87,0c0,18.3,0,36.49,0,56.71c-35.36,0-69.93,0-104.09,0
	c0.67,30.44,1.25,29.85,22.14,29.56c23.79,0.01,47.59,0,74.48,0c0,15.08,0.74,29.36-0.59,43.43c-0.29,3.03-7.99,7.51-12.42,7.67
	c-22.06,0.8-44.21,1.1-66.25,0.12c-14.93,1.04-19.02,2.21-19.85,19.34c0.83,16.16,0.46,24.38,0.36,36.58
	c-0.11,12.28,1.06,14.03-14.2,14.45C35.67,857.79,18.88,858.18,0,858.18z"/>
<path d="M790.08,74.19c23,0,45.22-0.04,67.76-0.04c0,9.97-0.31,13.65-0.29,20.39c0.12,37.76,0.07,75.52-0.19,113.27
	c-0.1,14.71,4.31,16.8,17.1,16.7c28.35-0.23,53.18-0.25,82.02-0.25c0,17.46,0.67,32.97-0.51,48.34c-0.27,3.47-6.97,9.17-10.77,9.22
	c-47.62,0.64-95.27,0.75-142.88-0.09c-4.15-0.07-11.66-7.73-11.71-11.94C789.85,205.37,790.08,140.92,790.08,74.19z"/>
<g>
	<path d="M240.53,451.75c7.95-26.99,16.34-53.86,23.61-81.03c2.86-10.7,7.52-15.21,19.09-14.55c17.83,1.01,35.75,0.27,55.8,0.27
		c-10.03,31.18-19.36,60.25-28.74,89.3c-11.74,36.36-23.75,72.64-35.12,109.12c-3.04,9.75-5.79,13.82-16.52,14.56
		c-18.51,1.28-31.21,0-47.3,0c-12.13-33.83-24.95-68.85-36.95-102.35c-1.44-0.09-2.88-0.17-4.32-0.26
		c-2.17,5.48-4.48,10.9-6.48,16.44c-5.1,14.16-10.11,28.36-15.08,42.57c-14.84,46.52-8.41,47.69-63.31,45.35
		c-9.34,0-12.99-8.46-14.3-12.38c-22.17-66.37-43.69-132.95-65.89-201.1c24.39,0,47.2,0,71.38,0c9.43,31.07,19.02,62.67,28.62,94.26
		c1.66-0.05,3.32-0.1,4.98-0.14c8.23-24.33,17.87-48.3,24.25-73.1c4.98-19.38,14.61-25.18,34.17-24.19
		c33.98,1.71,33.97,0.48,44.64,32.45c7.25,21.73,14.74,43.38,22.12,65.07C236.98,451.94,238.76,451.84,240.53,451.75z"/>
	<path d="M543.32,510.45c0,16.59,0.89,30.51-0.55,44.19c-0.42,4-7.46,10.4-11.53,10.46c-52.27,0.71-104.55,0.41-156.83,0.55
		c-8.5,0.02-12.86-2.85-12.81-12.07c0.35-63.88,0.44-127.76,0.68-191.64c0-1.05,0.86-2.09,1.84-4.32c57.81,0,116.12,0,175.56,0
		c0,17.51,0,34.55,0,53.47c-30.61,0-60.65-0.14-90.69,0.08c-9.14,0.07-20.48-3.72-20.06,13.17c0.39,15.48,10.73,12.31,19.43,12.38
		c27.75,0.23,55.5,0.08,84.22,0.08c0,16,0,30.32,0,47.58c-23.05,0-46.58,0-70.1,0c-6.97,0-13.96,0.32-20.91-0.04
		c-8.78-0.46-12.6,2.89-12.53,12.08c0.06,8.91,1.73,14.29,12.37,14.13c27.88-0.42,55.76-0.12,83.64-0.11
		C530.2,510.45,535.36,510.45,543.32,510.45z"/>
	<path d="M763.65,503.12c-1.08-19.43-11.8-32.04-28.96-39.97c-3.79-1.75-7.41-3.89-9.96-5.25c10.26-11.39,22.65-20.02,27.78-31.81
		c14.82-34.02-8.9-66.86-49.26-68.99c-28.97-1.53-58.07-0.57-87.11-0.67c-16.04-0.06-32.09-0.01-48.83-0.01
		c0,70.27,0,138.04,0,207.13c49.76,0,97.8,0.58,145.81-0.51c9.16-0.21,18.78-5.93,27.13-10.89
		C758.64,541.25,764.79,523.66,763.65,503.12z M683.01,424.58c0,8.57-4.51,18.26-17.13,18.26h-33.36v-34.49h33.59
		C675.57,408.35,683.01,416.01,683.01,424.58z M632.51,473.95h34.72c15.33,0,22.77,8.79,22.77,18.71c0,9.69-7.44,18.71-22.09,18.71
		h-35.39V473.95z"/>
</g>
</svg>
