<?xml version="1.0" encoding="UTF-8" standalone="no"?><!DOCTYPE svg PUBLIC "-//W3C//DTD SVG 1.1//EN" "http://www.w3.org/Graphics/SVG/1.1/DTD/svg11.dtd"><svg width="81px" height="49px" viewBox="0 0 81 49" version="1.1" xmlns="http://www.w3.org/2000/svg" xmlns:xlink="http://www.w3.org/1999/xlink" xml:space="preserve" xmlns:serif="http://www.serif.com/" style="fill-rule:evenodd;clip-rule:evenodd;stroke-linejoin:round;stroke-miterlimit:2;"><path id="Path" d="M1.339,22.438l20.051,-21.018c1.068,-1.12 2.843,-1.162 3.964,-0.093c0.03,0.029 0.06,0.059 0.09,0.09c1.135,1.186 1.136,3.054 0.003,4.242l-15.161,15.892l67.344,-0.057c1.586,-0.002 2.869,1.341 2.87,2.997c0.001,1.656 -1.279,3.002 -2.864,3.003l-67.345,0.057l15.188,15.867c1.135,1.185 1.137,3.054 0.004,4.242c-1.069,1.12 -2.844,1.162 -3.964,0.093c-0.031,-0.029 -0.061,-0.059 -0.09,-0.09l-20.086,-20.983c-1.122,-1.172 -1.124,-3.068 -0.004,-4.242Z" style="fill:#454a58;fill-opacity:0.33;"/></svg>