<?xml version="1.0" encoding="UTF-8"?>
<svg width="81px" height="49px" viewBox="0 0 81 49" version="1.1" xmlns="http://www.w3.org/2000/svg" xmlns:xlink="http://www.w3.org/1999/xlink">
    <!-- Generator: Sketch 56.3 (81716) - https://sketch.com -->
    <title>Flecha</title>
    <desc>Created with Sketch.</desc>
    <g id="Page-1" stroke="none" stroke-width="1" fill="none" fill-rule="evenodd" opacity="0.326357887">
        <g id="SFFI_V4" transform="translate(-1400.000000, -6939.000000)" fill="#454A58">
            <g id="Flecha" transform="translate(1440.500000, 6964.000000) scale(-1, 1) rotate(90.000000) translate(-1440.500000, -6964.000000) translate(1416.000000, 6924.000000)">
                <path d="M26.146503,79.1592673 L47.1468994,59.0906266 C48.2663434,58.0208506 48.3066073,56.2461371 47.2368313,55.1266931 C47.2075379,55.0960396 47.1775529,55.0660546 47.1468994,55.0367612 C45.9602353,53.9027475 44.0914835,53.9027475 42.9048193,55.0367612 L27.0255196,70.2115205 L27.0255196,2.86694867 C27.0255196,1.28152606 25.6814942,-2.84217094e-14 24.025463,-2.84217094e-14 C22.3694317,-2.84217094e-14 21.0254063,1.28152606 21.0254063,2.86694867 L21.0254063,70.2115205 L5.14610659,55.0367612 C3.95944246,53.9027475 2.09069064,53.9027475 0.904026513,55.0367612 C-0.215417512,56.1065372 -0.255681408,57.8812506 0.814094585,59.0006947 C0.843388014,59.0313482 0.873373036,59.0613332 0.904026513,59.0906266 L21.9044229,79.1592673 C23.0774451,80.2802442 24.9734809,80.2802442 26.146503,79.1592673 Z" id="Path"></path>
            </g>
        </g>
    </g>
</svg>