<?xml version="1.0" encoding="UTF-8"?>
<svg width="114px" height="113px" viewBox="0 0 114 113" version="1.1" xmlns="http://www.w3.org/2000/svg" xmlns:xlink="http://www.w3.org/1999/xlink">
    <!-- Generator: Sketch 56.3 (81716) - https://sketch.com -->
    <title>Group 13</title>
    <desc>Created with Sketch.</desc>
    <g id="Page-1" stroke="none" stroke-width="1" fill="none" fill-rule="evenodd">
        <g id="SFFI_V4" transform="translate(-427.000000, -2522.000000)" fill="#454A58">
            <g id="Group-13" transform="translate(427.000000, 2522.000000)">
                <path d="M56.1710076,17 C46.8146814,17 37.6982669,20.2778763 30.5,26.2266319 L32.833353,29.0533276 C39.3792526,23.6451181 47.6650274,20.666272 56.1710076,20.666272 C76.3866025,20.666272 92.833728,37.1133975 92.833728,57.3289924 C92.833728,65.8331395 89.8548819,74.1207474 84.4466724,80.6648139 L87.2717642,83 C93.2221237,75.8017331 96.5,66.6834855 96.5,57.3289924 C96.5,35.0914485 78.4085515,17 56.1710076,17 Z" id="Fill-1"></path>
                <path d="M56.8289924,92.333728 C36.6133975,92.333728 20.166272,75.8866025 20.166272,55.6710076 C20.166272,47.1668605 23.1451181,38.8792526 28.5533276,32.3351861 L25.7282358,30 C19.7778076,37.1982669 16.5,46.3165145 16.5,55.6710076 C16.5,77.9085515 34.5914485,96 56.8289924,96 C66.1853186,96 75.3017331,92.7221924 82.5,86.7733681 L80.166647,83.9466724 C73.6207474,89.3548819 65.3349726,92.333728 56.8289924,92.333728 Z" id="Fill-2"></path>
                <path d="M113.5,70.5208851 L113.5,42.4791149 L105.046643,39.3091915 C104.479593,37.7242298 103.838956,36.1729859 103.131339,34.6761915 L106.865579,26.4620484 L87.036129,6.63442137 L78.8219859,10.3686613 C77.3270141,9.66104435 75.7739476,9.02040726 74.1889859,8.45335685 L71.0208851,0 L42.9791149,0 L39.8110141,8.4517621 C38.2260524,9.01858468 36.6729859,9.65922177 35.1780141,10.3668387 L26.963871,6.63442137 L7.13444415,26.4620484 L10.8685929,34.6761915 C10.1611127,36.1729859 9.52036169,37.7242298 8.95347077,39.3091915 L0.5,42.4791149 L0.5,70.5208851 L8.95347077,73.6908085 C9.52036169,75.2757702 10.1611127,76.8270141 10.8685929,78.3238085 L7.13444415,86.5379516 L26.963871,106.365556 L35.1780141,102.631407 C36.6748085,103.33891 38.227875,103.981438 39.8110141,104.546529 L42.9791149,113 L71.0227077,113 L74.1908085,104.548306 C75.7739476,103.981438 77.3270141,103.340687 78.8238085,102.633184 L87.0379516,106.367333 L106.867401,86.5395464 L103.133161,78.325631 C103.840778,76.8286089 104.481415,75.278504 105.048238,73.692631 L113.5,70.5208851 Z M102.502321,85.7449012 L86.2467238,102.000452 L78.7650302,98.6017952 L77.9908891,98.9862458 C76.1441593,99.8993131 74.1960484,100.704711 72.1982722,101.381048 L71.3803891,101.657807 L68.495244,109.354839 L45.504756,109.354839 L42.6177883,101.657807 L41.7999052,101.381048 C39.802129,100.704689 37.8540181,99.8993131 36.0072883,98.9862458 L35.2349698,98.6017952 L27.7550988,102.002229 L11.4995704,85.7467238 L14.8982048,78.2668528 L14.5155313,77.4927117 C13.6024639,75.6478044 12.7970883,73.697871 12.1207286,71.7000948 L11.8421927,70.8803891 L4.14516129,67.995244 L4.14516129,45.004756 L11.8421927,42.1196109 L12.1189516,41.3017278 C12.7953113,39.3039516 13.6006869,37.3540181 14.5137542,35.5091109 L14.8964278,34.7349698 L11.4977706,27.2550988 L27.7532762,10.999502 L35.2367923,14.3981593 L36.012756,14.0138226 C37.8558407,13.1007097 39.802129,12.2953569 41.8017278,11.6189516 L42.6196109,11.3421472 L45.504756,3.64516129 L68.4934214,3.64516129 L71.3803891,11.3421472 L72.1982722,11.6189516 C74.197871,12.2953569 76.1441593,13.1007097 77.987244,14.0138226 L78.7632077,14.3981593 L86.2449012,10.9976794 L102.500498,27.2532762 L99.1018407,34.7331472 L99.4843548,35.5072883 C100.397468,37.3521956 101.202821,39.302129 101.879226,41.2999052 L102.15603,42.1177883 L109.854839,45.004756 L109.854839,67.995244 L102.157853,70.8803891 L101.881048,71.6982722 C101.204643,73.6960484 100.39929,75.6459819 99.4861774,77.4908891 L99.1036633,78.2650302 L102.502321,85.7449012 Z" id="Fill-3"></path>
                <path d="M32.1849688,70.2863958 L41.1218555,84.1078958 C43.507668,87.7961042 47.5650703,90 51.9755508,90 L62.0226055,90 C66.4349297,90 70.492332,87.7961042 72.8781445,84.1078958 L81.816875,70.2863958 C84.8795742,65.5435625 86.5,60.0561667 86.5,54.4227917 L86.5,53.3333333 C86.5,41.2903958 78.9088203,30.2885625 67.6105508,25.9559375 C64.2291133,24.6579375 60.6577695,24 57,24 C40.7348984,24 27.5,37.160125 27.5,53.3333333 L27.5,54.4227917 C27.5,60.0561667 29.1204258,65.5435625 32.1849688,70.2863958 Z M57,75.3333333 C63.6305859,75.3333333 70.0943125,74.3602917 75.9966172,72.5063333 L72.9869258,77.1595625 C62.7635625,79.5775 51.2345937,79.5775 41.0130742,77.1595625 L38.0061484,72.5063333 C43.9056875,74.3602917 50.3694141,75.3333333 57,75.3333333 Z M62.0244492,86.3333333 L51.9773945,86.3333333 C48.8264258,86.3333333 45.9285117,84.7605625 44.222582,82.1242292 L43.8227187,81.5063958 C48.0891562,82.2745625 52.5030937,82.6666667 57,82.6666667 C61.4969062,82.6666667 65.9108437,82.2745625 70.1772812,81.5047917 L69.777418,82.1223958 C68.073332,84.7605625 65.175418,86.3333333 62.0244492,86.3333333 Z M82.8125,53.3333333 L82.8125,54.4227917 C82.8125,59.0097917 81.5718867,63.4757917 79.243,67.4172292 C75.9443008,68.7975 72.3918555,69.8592292 68.6693242,70.5719375 L70.6202422,60.5949375 C73.3298633,60.2415625 75.4375,57.957 75.4375,55.1666667 C75.4375,52.5232292 73.5497305,50.3103958 71.045918,49.7858333 L68.4370117,30.3307292 C77.1173867,34.6186667 82.8125,43.5820625 82.8125,53.3333333 Z M71.75,55.1666667 C71.75,56.176375 70.9235391,57 69.90625,57 C68.8889609,57 68.0625,56.176375 68.0625,55.1666667 C68.0625,54.1569583 68.8889609,53.3333333 69.90625,53.3333333 C70.9235391,53.3333333 71.75,54.1569583 71.75,55.1666667 Z M64.5100547,28.7884375 L67.3936797,50.2950417 C65.610082,51.2082708 64.375,53.0379375 64.375,55.1666667 C64.375,57.1413958 65.4372305,58.8628958 67.0136367,59.8322708 L64.795375,71.1698333 C62.2440859,71.4886042 59.6404805,71.6666667 57,71.6666667 C54.2938359,71.6666667 51.6254687,71.4812708 49.0110312,71.147375 L45.5980195,59.5137292 C46.9160703,58.5065417 47.78125,56.943625 47.78125,55.1666667 C47.78125,53.165125 46.6902109,51.4266667 45.0769297,50.4641667 L49.43325,28.7964583 C51.8280508,28.0640417 54.3666641,27.6666667 57,27.6666667 C59.5701875,27.6666667 62.084832,28.0551042 64.5100547,28.7884375 Z M42.25,53.3333333 C43.2672891,53.3333333 44.09375,54.1569583 44.09375,55.1666667 C44.09375,56.176375 43.2672891,57 42.25,57 C41.2327109,57 40.40625,56.176375 40.40625,55.1666667 C40.40625,54.1569583 41.2327109,53.3333333 42.25,53.3333333 Z M31.1875,53.3333333 C31.1875,43.3565625 36.9545195,34.709875 45.3378203,30.4659375 L41.4604141,49.7455 C38.787668,50.1302708 36.71875,52.4022292 36.71875,55.1666667 C36.71875,58.1458333 39.1170078,60.5656042 42.0932812,60.650625 L44.9840508,70.5082292 C41.3875859,69.7966667 37.953832,68.7555625 34.7588437,67.4172292 C32.4281133,63.4757917 31.1875,59.0097917 31.1875,54.4227917 L31.1875,53.3333333 Z" id="Fill-4"></path>
                <polygon id="Fill-5" points="55.5 11 58.5 11 58.5 8 55.5 8"></polygon>
                <polygon id="Fill-6" points="20.5 23.0001326 23.5000663 20 26.5 23.0001326 23.5000663 26"></polygon>
                <polygon id="Fill-7" points="8.5 59 11.5 59 11.5 56 8.5 56"></polygon>
                <polygon id="Fill-8" points="20.5 89.9999204 23.5000663 87 26.5 89.9999204 23.5000663 93"></polygon>
                <polygon id="Fill-9" points="55.5 105 58.5 105 58.5 102 55.5 102"></polygon>
                <polygon id="Fill-10" points="86.5 89.9999204 89.4998674 87 92.5 89.9999204 89.4998674 93"></polygon>
                <polygon id="Fill-11" points="101.5 59 104.5 59 104.5 56 101.5 56"></polygon>
                <polygon id="Fill-12" points="86.5 23.0001326 89.4998674 20 92.5 23.0001326 89.4998674 26"></polygon>
            </g>
        </g>
    </g>
</svg>