<?xml version="1.0" encoding="UTF-8"?>
<svg width="103px" height="113px" viewBox="0 0 103 113" version="1.1" xmlns="http://www.w3.org/2000/svg" xmlns:xlink="http://www.w3.org/1999/xlink">
    <!-- Generator: Sketch 56.3 (81716) - https://sketch.com -->
    <title>Group 19</title>
    <desc>Created with Sketch.</desc>
    <g id="Page-1" stroke="none" stroke-width="1" fill="none" fill-rule="evenodd">
        <g id="SFFI_V4" transform="translate(-1190.000000, -2522.000000)" fill="#454A58">
            <g id="Group-19" transform="translate(1190.000000, 2522.000000)">
                <path d="M88.2230732,91.6212492 L85.5972864,89.111618 C85.465047,89.2520839 85.3202677,89.3776229 85.1865084,89.516175 L70.1332637,39.8965143 C72.0351542,37.4286019 73.1785685,34.3414149 73.1785685,30.984013 C73.1785685,22.9445432 66.6844009,16.4035036 58.7025408,16.4035036 L58.7025408,9.71089863 C59.1839984,9.78553308 59.661656,9.83682034 60.1427336,9.92599894 L60.8031703,6.34086621 C60.0595141,6.20231406 59.3173778,6.11313546 58.5737215,6.00902997 C57.9695245,2.60072348 55.0199792,0 51.463957,0 C47.9079348,0 44.9595296,2.60110622 44.3553326,6.00941271 C43.6116763,6.11504916 42.86954,6.2026968 42.1258837,6.34124895 L42.7863204,9.92638168 C43.267778,9.83720308 43.7454356,9.78591582 44.2265132,9.71128137 L44.2265132,16.4038863 C36.2446531,16.4038863 29.7504856,22.944926 29.7504856,30.9843957 C29.7504856,34.3414149 30.8942799,37.4289847 32.7942704,39.8949834 L17.7406456,89.5142613 C17.6068863,89.3757092 17.462107,89.2501702 17.3298677,89.1097043 L14.7040808,91.6193355 C15.2957379,92.2462649 15.9253947,92.8402786 16.5497316,93.4400333 L13.5424266,103.354933 L13.464527,113 L24.070274,104.988088 L25.4979269,100.28229 C25.8832449,100.515762 26.2598231,100.772581 26.6470411,100.991126 L28.4185923,97.8124638 C27.8014753,97.4626387 27.1972784,97.0653538 26.5873814,96.6826131 L33.2498881,74.7259237 L69.677266,74.7259237 L76.3382527,96.684144 C75.7283557,97.0668848 75.1260587,97.4641697 74.5070418,97.8139948 L76.278593,100.992657 C76.667711,100.772198 77.0423891,100.514996 77.4277072,100.283821 L78.8553601,104.989619 L89.464527,113 L89.464527,103.615579 L86.3774225,93.441947 C87.0017593,92.8421923 87.6333162,92.2481786 88.2230732,91.6212492 Z M58.7029208,20.0487266 C64.6905509,20.0487266 69.5598466,24.9531668 69.5598466,30.984013 C69.5598466,34.4941285 67.9022948,37.6165276 65.3418676,39.6174963 C64.2816729,36.0071027 61.869445,32.9834507 58.6957009,31.1298372 C58.6957009,31.0804636 58.7029208,31.0333865 58.7029208,30.984013 C58.7029208,27.0509689 57.1411286,23.4842077 54.6187013,20.8578406 C55.8818149,20.3403751 57.2589281,20.0487266 58.7029208,20.0487266 Z M58.1021438,35.1088102 C60.070914,36.6470453 61.5004668,38.8470392 62.0579241,41.3784866 C61.0007693,41.7263979 59.875215,41.919682 58.7029208,41.919682 C57.2589281,41.919682 55.8818149,41.6280336 54.6187013,41.110568 C56.2219132,39.4410528 57.4325872,37.3926243 58.1021438,35.1088102 Z M51.464717,39.1126613 C49.8071653,37.6127002 48.6056113,35.6151762 48.1081938,33.3478199 C49.1664885,32.9999085 50.2920429,32.8066245 51.464717,32.8066245 C52.6373912,32.8066245 53.7629455,32.9999085 54.8212402,33.3478199 C54.3234427,35.6151762 53.1222687,37.6127002 51.464717,39.1126613 Z M51.464717,29.1614014 C50.2468231,29.1614014 49.070729,29.3309556 47.9398547,29.6168629 C48.272733,26.9434187 49.5685265,24.5723397 51.464717,22.8553646 C53.3609075,24.570426 54.6567011,26.941505 54.9895794,29.615332 C53.8587051,29.3309556 52.6826109,29.1614014 51.464717,29.1614014 Z M48.3107328,41.110568 C47.0476191,41.6280336 45.670506,41.919682 44.2265132,41.919682 C43.0538391,41.919682 41.9282847,41.7263979 40.86999,41.3784866 C41.4274472,38.8470392 42.8570001,36.6470453 44.8257702,35.1088102 C45.4968469,37.3922415 46.7075208,39.4410528 48.3107328,41.110568 Z M44.2265132,45.5645223 C46.86484,45.5645223 49.3329277,44.8392286 51.464717,43.5926419 C53.5965064,44.8392286 56.064594,45.5645223 58.7029208,45.5645223 C59.9208147,45.5645223 61.0969089,45.3949681 62.2277832,45.1090608 C61.5563266,50.4949888 56.9910294,54.6775799 51.464717,54.6775799 C45.9384047,54.6775799 41.3731075,50.4946061 40.7016508,45.1090608 C41.8325252,45.3953509 43.0086193,45.5645223 44.2265132,45.5645223 Z M47.8456151,7.29082879 C47.8456151,5.2806743 49.468587,3.64560576 51.464717,3.64560576 C53.460847,3.64560576 55.0838189,5.28029156 55.0838189,7.29082879 L55.0838189,16.8830778 C53.7990454,17.2183587 52.5849514,17.72128 51.464717,18.3757668 C50.3444826,17.7197491 49.1303887,17.2183587 47.8456151,16.8830778 L47.8456151,7.29082879 Z M44.2265132,20.0487266 C45.670506,20.0487266 47.0476191,20.3403751 48.3107328,20.8578406 C45.7883054,23.4842077 44.2265132,27.0509689 44.2265132,30.984013 C44.2265132,31.0333865 44.2337332,31.0804636 44.2337332,31.1298372 C41.059989,32.9834507 38.6477611,36.0071027 37.5875664,39.6174963 C35.0271392,37.6161449 33.3695875,34.4941285 33.3695875,30.984013 C33.3695875,24.9531668 38.2388832,20.0487266 44.2265132,20.0487266 Z M20.9546696,102.784649 L17.0840089,105.709554 L17.0840089,104.158688 L35.7130358,42.7486985 C36.1257137,43.0529774 36.5528316,43.3354401 36.9959094,43.5945556 C36.9959094,43.6454601 36.9886894,43.69292 36.9886894,43.7422935 C36.9886894,45.192881 37.2075683,46.591033 37.6004863,47.9141678 L20.9546696,102.784649 Z M34.3575826,71.0807007 L39.9724345,52.5725057 C42.6198813,56.059274 46.7797205,58.3228029 51.464717,58.3228029 C56.1497136,58.3228029 60.3095528,56.059274 62.9569996,52.5725057 L68.5718515,71.0807007 L34.3575826,71.0807007 Z M85.8458051,105.709554 L81.9747645,102.78618 L65.3293277,47.9156988 C65.7218657,46.5906503 65.9411246,45.192881 65.9411246,43.7419108 C65.9411246,43.6925372 65.9339047,43.6454601 65.9339047,43.5960866 C66.3773625,43.3373538 66.8041003,43.0529774 67.2167783,42.7502295 L85.8458051,104.158306 L85.8458051,105.709554 Z" id="Fill-1"></path>
                <path d="M75.464527,10.8024381 C73.2764231,9.71810984 70.9861585,8.77365841 68.6613224,8 L67.464527,11.398517 C69.6231092,12.1148674 71.7486737,12.991077 73.7814001,14 L75.464527,10.8024381 Z" id="Fill-2"></path>
                <path d="M95.464527,31.1296016 C94.2388057,29.0009752 92.8503473,26.9371008 91.3353157,25 L88.464527,27.3068897 C89.8733756,29.1086352 91.1629607,31.0238919 92.3005809,33 L95.464527,31.1296016 Z" id="Fill-3"></path>
                <path d="M87.464527,19.4490151 C85.6420278,17.8426209 83.6841768,16.344991 81.6412362,15 L79.464527,17.8669546 C81.3602429,19.1168229 83.1807633,20.5075319 84.8734515,22 L87.464527,19.4490151 Z" id="Fill-4"></path>
                <path d="M97.684948,45 L101.464527,44.1127237 C100.849446,41.697622 100.043915,39.3068399 99.0728643,37 L95.464527,38.4007355 C96.3673266,40.5416524 97.1148233,42.7625889 97.684948,45 Z" id="Fill-5"></path>
                <path d="M102.213686,51 L98.464527,51.3382407 C98.6172471,52.8174457 98.6963767,54.31947 98.6963767,55.8075083 C98.6963767,56.4909827 98.6813421,57.1693044 98.6492946,57.8457858 L102.413488,58 C102.447514,57.2727273 102.464527,56.541774 102.464527,55.8075083 C102.464131,54.2072138 102.381441,52.5896209 102.213686,51 Z" id="Fill-6"></path>
                <path d="M96.464527,71.7761253 L99.7109059,73 C100.45206,70.6244299 101.040444,68.1671624 101.464527,65.7007733 L98.0913196,65 C97.6978628,67.2907 97.1505543,69.5702955 96.464527,71.7761253 Z" id="Fill-7"></path>
                <path d="M90.464527,83.8641059 L93.547034,86 C95.0032022,83.9917552 96.3217266,81.8686648 97.464527,79.6885397 L94.1043525,78 C93.0412823,80.0268684 91.8171649,82.000194 90.464527,83.8641059 Z" id="Fill-8"></path>
                <path d="M62.464527,102.154111 L63.26225,106 C65.7121511,105.415259 68.1342651,104.63533 70.464527,103.676339 L69.1469526,100 C66.9857292,100.888276 64.7380569,101.612792 62.464527,102.154111 Z" id="Fill-9"></path>
                <path d="M51.974054,103.131444 C50.8851012,103.10264 49.7997435,103.088846 48.7143858,103 L48.464527,106.852028 C49.6113608,106.948582 50.7704178,106.994831 51.9089829,106.994831 C53.14857,107.019983 54.2972013,106.950205 55.464527,106.853651 L55.2179038,103.001623 C54.1533977,103.088846 53.0612093,103.131444 51.974054,103.131444 Z" id="Fill-10"></path>
                <path d="M33.464527,103.676499 C35.8071111,104.639559 38.2303941,105.421089 40.6683496,106 L41.464527,102.154376 C39.2030279,101.618884 36.9542707,100.89235 34.7827374,100 L33.464527,103.676499 Z" id="Fill-11"></path>
                <path d="M36.464527,11.4015094 L35.2727156,8 C32.9461415,8.7690566 30.654495,9.71056604 28.464527,10.7996226 L30.1461027,14 C32.1788959,12.9901887 34.3040536,12.1169811 36.464527,11.4015094 Z" id="Fill-12"></path>
                <path d="M14.464527,27.3101146 L11.5972378,25 C10.0791933,26.938484 8.68765254,28.999805 7.46452703,31.1242993 L10.6267352,33 C11.7621925,31.0240799 13.0549143,29.1113332 14.464527,27.3101146 Z" id="Fill-13"></path>
                <path d="M6.46452703,79.6846393 C7.60791063,81.8681148 8.92512347,83.9903026 10.3784628,86 L13.464527,83.8646237 C12.1131833,82.0007758 10.8904257,80.0283165 9.83038483,78 L6.46452703,79.6846393 Z" id="Fill-14"></path>
                <path d="M5.84138462,65 L2.46452703,65.696842 C2.88690475,68.1689059 3.4744823,70.6243121 4.21319244,73 L7.46452703,71.7800307 C6.77775744,69.5760746 6.2312995,67.2947796 5.84138462,65 Z" id="Fill-15"></path>
                <path d="M4.22746658,55.8614584 C4.22746658,54.357308 4.30648673,52.8351371 4.46452703,51.3449616 L0.720552313,51 C0.549473688,52.6074919 0.464527027,54.2433015 0.464527027,55.8632973 C0.464527027,56.5778607 0.481516359,57.2887465 0.51351952,58 L4.27250806,57.8459073 C4.24248041,57.1872439 4.22746658,56.5271094 4.22746658,55.8614584 Z" id="Fill-16"></path>
                <path d="M24.464527,17.8683143 L22.290872,15 C20.2489416,16.3437846 18.288103,17.838436 16.464527,19.4441166 L19.0507612,22 C20.7461726,20.5082995 22.5677707,19.1187754 24.464527,17.8683143 Z" id="Fill-17"></path>
                <path d="M8.46452703,38.4049335 L4.86166891,37 C3.89154302,39.2978765 3.08473798,41.6891276 2.46452703,44.1050954 L6.23846374,45 C6.81580297,42.759796 7.5642208,40.5403855 8.46452703,38.4049335 Z" id="Fill-18"></path>
            </g>
        </g>
    </g>
</svg>