<?xml version="1.0" encoding="UTF-8"?>
<svg width="114px" height="113px" viewBox="0 0 114 113" version="1.1" xmlns="http://www.w3.org/2000/svg" xmlns:xlink="http://www.w3.org/1999/xlink">
    <!-- Generator: Sketch 56.3 (81716) - https://sketch.com -->
    <title>Group 20</title>
    <desc>Created with Sketch.</desc>
    <g id="Page-1" stroke="none" stroke-width="1" fill="none" fill-rule="evenodd">
        <g id="SFFI_V4" transform="translate(-811.000000, -2522.000000)" fill="#454A58">
            <g id="Group-20" transform="translate(811.000000, 2522.000000)">
                <path d="M57,0 C25.8447964,0 0.5,25.3447964 0.5,56.5 C0.5,87.6552036 25.8447964,113 57,113 C88.1552036,113 113.5,87.6552036 113.5,56.5 C113.5,25.3447964 88.1552036,0 57,0 Z M58.9940861,109.30386 L60.4010459,106.868855 L57.2441894,105.046237 L57,105.469167 L56.7558106,105.046237 L53.5989541,106.868855 L55.0059139,109.30386 C26.7832799,108.250554 4.14523537,84.9740955 4.14523537,56.5 C4.14523537,47.5932095 6.36896673,39.2000589 10.2763804,31.8315088 L11.6798955,34.2611554 L14.836752,32.8339103 L14.5925626,32.8067356 L15.0809415,32.8067356 L15.0809415,29.1611175 L12.284628,29.1611175 C21.6545363,12.7579411 38.190907,4.43598046 57,4.43598046 C75.809093,4.43598046 92.3454637,12.7579411 101.715372,29.1611175 L98.9194413,29.1611175 L98.9194413,32.8063528 L99.4078201,32.8063528 L99.1636307,32.8335275 L102.320487,34.4594158 L103.724002,31.9294908 C107.631799,39.2980409 109.855147,47.6437315 109.855147,56.548991 C109.855147,85.0234692 87.2167201,108.250554 58.9940861,109.30386 Z" id="Fill-1"></path>
                <polygon id="Fill-2" points="38.5 80.7313845 42.3280932 87 45.5 85.2686155 41.6716377 79"></polygon>
                <polygon id="Fill-3" points="46.5 93.7313845 50.3282151 100 53.5 98.2686155 49.6717849 92"></polygon>
                <polygon id="Fill-4" points="23.5 53.7314003 27.3281701 60 30.5 58.2685997 26.6718299 52"></polygon>
                <polygon id="Fill-5" points="15.5 40.7314003 19.3281701 47 22.5 45.2685997 18.6718299 39"></polygon>
                <polygon id="Fill-6" points="39.5 33 46.5 33 46.5 29 39.5 29"></polygon>
                <polygon id="Fill-7" points="22.5 33 29.5 33 29.5 29 22.5 29"></polygon>
                <polygon id="Fill-8" points="68.5 33 75.5 33 75.5 29 68.5 29"></polygon>
                <polygon id="Fill-9" points="84.5 33 91.5 33 91.5 29 84.5 29"></polygon>
                <polygon id="Fill-10" points="61.5 98.2690922 64.6723437 100 68.5 93.7308715 65.3276563 92"></polygon>
                <polygon id="Fill-11" points="79.4670988 66.6359918 77.2736884 65.3948194 75.5 68.3897751 77.6967564 69.634583 76.7320275 71.2687571 79.7979692 73 83.5 66.7312429 80.4336865 65"></polygon>
                <polygon id="Fill-12" points="68.5 85.2690922 71.6721334 87 75.5 80.7308715 72.3278666 79"></polygon>
                <polygon id="Fill-13" points="84.5 58.2691207 87.6723437 60 91.5 53.7308793 88.3276563 52"></polygon>
                <polygon id="Fill-14" points="91.5 45.2691207 94.6723437 47 98.5 40.7308793 95.3276563 39"></polygon>
                <polygon id="Fill-15" points="55.5 98 59.5 98 59.5 91 55.5 91"></polygon>
                <polygon id="Fill-16" points="28.5 37.7191975 22.3193588 34 20.5 37.2808025 26.6806412 41"></polygon>
                <path d="M74.8504007,69.0807456 L76.6588279,65.9052402 L74.6915805,64.750231 L79.0559131,45.6887285 L81.5,44.254977 L79.6949842,41.0794716 L77.2455907,42.5166881 L58.8057739,36.8351977 L58.8057739,32.6667693 L60.6107897,32.6667693 L60.6107897,29 L53.3907265,29 L53.3907265,32.6667693 L55.1957423,32.6667693 L55.1957423,34.499384 L55.1957423,34.500154 L55.1957423,36.8351977 L36.7544093,42.5147631 L34.3050158,41.0775466 L32.5,44.253052 L34.9440869,45.6868035 L39.3103147,64.749846 L37.3430673,65.9067803 L39.1514945,69.0784356 L41.1172257,67.9234264 L55.1961214,81.3103685 L55.1961214,84 L58.8061529,84 L58.8061529,81.3122935 L72.8831534,67.9268914 L74.8504007,69.0807456 Z M55.1957423,76.2876183 L43.0086639,64.6990256 L39.2326103,48.2043386 L55.1957423,57.5691536 L55.1957423,76.2876183 Z M41.0376261,45.0292182 L57.0007581,40.1123439 L72.9638901,45.0292182 L57.0007581,54.3940332 L41.0376261,45.0292182 Z M58.8057739,76.2895433 L58.8057739,57.5691536 L74.7689059,48.2062637 L70.9928523,64.7028756 L58.8057739,76.2895433 Z" id="Fill-17"></path>
                <polygon id="Fill-18" points="39.5 68.3879573 37.72561 65.3930016 35.5317918 66.6341741 34.5668836 65 31.5 66.7312429 35.2023472 73 38.2692308 71.2687571 37.3024634 69.6327653"></polygon>
                <polygon id="Fill-19" points="88.3193622 41 94.5 37.2805911 92.6806378 34 86.5 37.7190111"></polygon>
            </g>
        </g>
    </g>
</svg>