<?xml version="1.0" encoding="UTF-8" standalone="no"?>
<!DOCTYPE svg PUBLIC "-//W3C//DTD SVG 1.1//EN" "http://www.w3.org/Graphics/SVG/1.1/DTD/svg11.dtd">
<svg width="100%" height="100%" viewBox="0 0 2500 1250" version="1.1" xmlns="http://www.w3.org/2000/svg" xmlns:xlink="http://www.w3.org/1999/xlink" xml:space="preserve" xmlns:serif="http://www.serif.com/" style="fill-rule:evenodd;clip-rule:evenodd;stroke-linejoin:round;stroke-miterlimit:1.41421;">
    <g transform="matrix(4.16667,0,0,4.16667,-504.167,-616.667)">
        <g transform="matrix(1.00819,0,0,1.00819,35.4325,-11.2354)">
            <rect x="327.729" y="199.522" width="4.258" height="216.188" style="fill:rgb(64,63,65);"/>
        </g>
        <g transform="matrix(1.00819,0,0,1.00819,35.4325,-11.2354)">
            <path d="M164.647,288.234L131.918,269.338L99.4,288.234L132.131,307.132L164.647,288.234Z" style="fill:rgb(0,76,95);fill-rule:nonzero;"/>
        </g>
        <g transform="matrix(1.00819,0,0,1.00819,35.4325,-11.2354)">
            <path d="M295.003,288.212L262.272,269.315L229.756,288.212L262.485,307.108L295.003,288.212Z" style="fill:rgb(0,76,95);fill-rule:nonzero;"/>
        </g>
        <g transform="matrix(1.00819,0,0,1.00819,35.4325,-11.2354)">
            <path d="M164.759,325.989L197.488,344.885L230.006,325.988L197.276,307.092L164.759,325.989Z" style="fill:rgb(0,76,95);fill-rule:nonzero;"/>
        </g>
        <g transform="matrix(1.00819,0,0,1.00819,35.4325,-11.2354)">
            <path d="M164.536,401.196L197.053,382.3L197.16,344.69L164.643,363.588L164.536,401.196Z" style="fill:rgb(0,123,146);fill-rule:nonzero;"/>
        </g>
        <g transform="matrix(1.00819,0,0,1.00819,35.4325,-11.2354)">
            <path d="M229.785,288.192L262.302,269.295L262.409,231.686L229.892,250.584L229.785,288.192Z" style="fill:rgb(0,123,146);fill-rule:nonzero;"/>
        </g>
        <g transform="matrix(1.00819,0,0,1.00819,35.4325,-11.2354)">
            <path d="M197.375,269.491L164.858,288.387L164.752,325.997L197.268,307.099L197.375,269.491Z" style="fill:rgb(0,123,146);fill-rule:nonzero;"/>
        </g>
        <g transform="matrix(1.00819,0,0,1.00819,35.4325,-11.2354)">
            <path d="M197.053,382.304L229.783,401.201L229.89,363.593L197.159,344.696L197.053,382.304Z" style="fill:rgb(49,55,70);fill-rule:nonzero;"/>
        </g>
        <g transform="matrix(1.00819,0,0,1.00819,35.4325,-11.2354)">
            <path d="M131.81,269.309L164.54,288.206L164.646,250.597L131.917,231.701L131.81,269.309Z" style="fill:rgb(0,46,60);fill-rule:nonzero;"/>
        </g>
        <g transform="matrix(1.00819,0,0,1.00819,35.4325,-11.2354)">
            <path d="M230.104,288.386L197.375,269.489L197.268,307.098L229.998,325.995L230.104,288.386Z" style="fill:rgb(0,46,60);fill-rule:nonzero;"/>
        </g>
        <g transform="matrix(1.00819,0,0,1.00819,35.4325,-11.2354)">
            <path d="M229.885,250.593L262.402,231.696L229.682,212.804L197.165,231.701L164.435,212.804L131.917,231.702L164.647,250.598L132.131,269.495L164.851,288.386L197.368,269.489L230.098,288.385L262.614,269.489L229.885,250.593Z" style="fill:rgb(0,76,95);fill-rule:nonzero;"/>
        </g>
        <g transform="matrix(1.00819,0,0,1.00819,35.4325,-11.2354)">
            <path d="M164.752,325.988L164.858,288.38L132.138,269.488L132.031,307.097L99.301,288.201L99.195,325.81L131.925,344.707L131.818,382.315L164.538,401.207L164.644,363.597L197.375,382.494L197.481,344.885L164.752,325.988Z" style="fill:rgb(0,46,60);fill-rule:nonzero;"/>
        </g>
        <g transform="matrix(1.00819,0,0,1.00819,35.4325,-11.2354)">
            <path d="M262.506,307.095L262.612,269.486L230.104,288.378L229.998,325.987L197.481,344.884L197.375,382.493L229.892,363.596L229.785,401.205L262.293,382.313L262.399,344.705L294.917,325.807L295.023,288.198L262.506,307.095Z" style="fill:rgb(0,123,146);fill-rule:nonzero;"/>
        </g>
        <g transform="matrix(1.00819,0,0,1.00819,35.4325,-11.2354)">
            <path d="M372.887,316.446L367.452,324.273C371.852,328.026 378.58,331.648 388.803,331.648C399.992,331.648 407.628,326.798 407.628,316.964C407.628,304.284 395.4,303.313 387.701,301.697C383.433,300.79 378.321,300.013 378.321,296.65C378.321,292.897 383.497,291.992 386.472,291.992C391.065,291.992 395.789,293.932 399.863,296.844L405.557,289.082C400.381,285.264 395.143,282.742 386.86,282.742C378.516,282.742 368.1,285.782 368.1,297.039C368.1,308.36 380.908,310.559 386.86,311.529C392.359,312.499 397.405,313.471 397.405,317.222C397.405,319.876 394.3,322.463 388.673,322.463C383.238,322.463 376.316,319.292 372.887,316.446ZM446.765,292.315L446.765,283.453L408.984,283.453L408.984,292.315L422.765,292.315L422.765,330.743L433.05,330.743L433.05,292.315L446.765,292.315ZM440.036,330.743L451.293,330.743L454.917,323.497L476.977,323.497L480.729,330.743L491.919,330.743L465.977,281.964L440.036,330.743ZM459.961,314.764L465.977,302.408L472.059,314.764L459.961,314.764ZM504.859,330.743L504.859,315.993L511.847,315.993C515.728,321.169 519.284,325.892 523.168,330.743L535.394,330.743C531.577,325.696 527.242,320.005 523.168,314.894C529.055,312.37 532.806,306.741 532.806,299.884C532.806,290.181 525.884,283.453 515.728,283.453L494.702,283.453L494.702,330.743L504.859,330.743ZM504.859,307.132L504.859,292.315L515.728,292.315C521.742,292.315 522.65,297.427 522.65,299.884C522.65,304.802 518.896,307.132 515.728,307.132L504.859,307.132ZM574.598,292.315L574.598,283.453L536.817,283.453L536.817,292.315L550.597,292.315L550.597,330.743L560.884,330.743L560.884,292.315L574.598,292.315ZM600.659,331.584C613.468,331.584 621.75,323.691 621.75,311.594L621.75,283.518L611.527,283.518L611.527,311.594C611.527,320.522 604.671,322.786 600.659,322.786C596.519,322.786 589.66,320.522 589.66,311.594L589.66,283.518L579.44,283.518L579.44,311.594C579.44,323.691 587.785,331.584 600.659,331.584ZM646.525,283.453L627.311,283.453L627.311,330.743L637.534,330.743L637.534,316.964L646.461,316.964C659.141,316.964 665.609,309.719 665.609,300.401C665.609,291.022 658.429,283.453 646.525,283.453ZM647.948,308.101L637.534,308.101L637.534,292.315L646.913,292.315C652.412,292.315 655.324,296.391 655.324,300.401C655.324,304.284 653.059,308.101 647.948,308.101Z" style="fill:rgb(65,64,66);fill-rule:nonzero;"/>
        </g>
        <g transform="matrix(1.00819,0,0,1.00819,35.4325,-11.2354)">
            <path d="M372.887,251.754L367.452,259.581C371.852,263.334 378.58,266.956 388.803,266.956C399.992,266.956 407.628,262.105 407.628,252.271C407.628,239.592 395.4,238.621 387.701,237.005C383.433,236.096 378.321,235.321 378.321,231.958C378.321,228.205 383.497,227.3 386.472,227.3C391.065,227.3 395.789,229.24 399.863,232.152L405.557,224.389C400.381,220.572 395.143,218.05 386.86,218.05C378.516,218.05 368.1,221.089 368.1,232.345C368.1,243.668 380.908,245.866 386.86,246.837C392.359,247.806 397.405,248.779 397.405,252.53C397.405,255.183 394.3,257.77 388.673,257.77C383.238,257.77 376.316,254.599 372.887,251.754ZM473.678,218.826L462.809,218.826L453.494,243.344L441.073,217.596L428.652,243.344L419.529,218.826L408.533,218.826L427.424,267.799L441.073,239.72L454.594,267.799L473.678,218.826ZM489.914,218.761L479.692,218.761L479.692,266.052L489.914,266.052L489.914,218.761ZM503.435,251.754L498.001,259.581C502.4,263.334 509.128,266.956 519.351,266.956C530.54,266.956 538.176,262.105 538.176,252.271C538.176,239.592 525.949,238.621 518.25,237.005C513.979,236.096 508.869,235.321 508.869,231.958C508.869,228.205 514.044,227.3 517.02,227.3C521.614,227.3 526.337,229.24 530.411,232.152L536.104,224.389C530.931,220.572 525.69,218.05 517.408,218.05C509.063,218.05 498.647,221.089 498.647,232.345C498.647,243.668 511.456,245.866 517.408,246.837C522.906,247.806 527.954,248.779 527.954,252.53C527.954,255.183 524.85,257.77 519.221,257.77C513.786,257.77 506.864,254.599 503.435,251.754ZM549.172,251.754L543.737,259.581C548.138,263.334 554.865,266.956 565.087,266.956C576.277,266.956 583.913,262.105 583.913,252.271C583.913,239.592 571.685,238.621 563.986,237.005C559.718,236.096 554.606,235.321 554.606,231.958C554.606,228.205 559.782,227.3 562.757,227.3C567.351,227.3 572.074,229.24 576.148,232.152L581.842,224.389C576.666,220.572 571.427,218.05 563.145,218.05C554.801,218.05 544.385,221.089 544.385,232.345C544.385,243.668 557.193,245.866 563.145,246.837C568.644,247.806 573.69,248.779 573.69,252.53C573.69,255.183 570.584,257.77 564.958,257.77C559.523,257.77 552.602,254.599 549.172,251.754Z" style="fill:rgb(65,64,66);fill-rule:nonzero;"/>
        </g>
        <g transform="matrix(1.00819,0,0,1.00819,35.4325,-11.2354)">
            <path d="M416.09,386.357L406.474,382.629C403.595,386.815 398.689,390.217 393.39,390.217C384.886,390.217 378.017,382.956 378.017,374.779C378.017,366.602 384.886,359.406 393.39,359.406C398.689,359.406 403.595,362.742 406.474,366.863L416.09,363.134C411.511,355.35 403.006,350.051 393.39,350.051C379.195,350.051 367.616,361.172 367.616,374.779C367.616,388.451 379.195,399.571 393.39,399.571C403.006,399.571 411.511,394.273 416.09,386.357Z" style="fill:rgb(65,64,66);fill-rule:nonzero;"/>
        </g>
        <g transform="matrix(1.00819,0,0,1.00819,35.4325,-11.2354)">
            <path d="M415.828,398.656L427.211,398.656L430.874,391.329L453.181,391.329L456.975,398.656L468.292,398.656L442.06,349.332L415.828,398.656ZM435.976,382.498L442.06,370.003L448.209,382.498L435.976,382.498Z" style="fill:rgb(65,64,66);fill-rule:nonzero;"/>
        </g>
        <g transform="matrix(1.00819,0,0,1.00819,35.4325,-11.2354)">
            <path d="M493.216,350.836L473.787,350.836L473.787,398.656L484.123,398.656L484.123,384.722L493.15,384.722C505.972,384.722 512.513,377.395 512.513,367.975C512.513,358.49 505.252,350.836 493.216,350.836ZM494.655,375.76L484.123,375.76L484.123,359.798L493.608,359.798C499.169,359.798 502.112,363.919 502.112,367.975C502.112,371.9 499.823,375.76 494.655,375.76Z" style="fill:rgb(65,64,66);fill-rule:nonzero;"/>
        </g>
        <g transform="matrix(1.00819,0,0,1.00819,35.4325,-11.2354)">
            <rect x="519.84" y="350.836" width="10.336" height="47.82" style="fill:rgb(65,64,66);fill-rule:nonzero;"/>
        </g>
        <g transform="matrix(1.00819,0,0,1.00819,35.4325,-11.2354)">
            <path d="M574.986,359.798L574.986,350.836L536.783,350.836L536.783,359.798L550.717,359.798L550.717,398.656L561.118,398.656L561.118,359.798L574.986,359.798Z" style="fill:rgb(65,64,66);fill-rule:nonzero;"/>
        </g>
        <g transform="matrix(1.00819,0,0,1.00819,35.4325,-11.2354)">
            <path d="M568.183,398.656L579.565,398.656L583.229,391.329L605.536,391.329L609.33,398.656L620.647,398.656L594.415,349.332L568.183,398.656ZM588.331,382.498L594.415,370.003L600.564,382.498L588.331,382.498Z" style="fill:rgb(65,64,66);fill-rule:nonzero;"/>
        </g>
        <g transform="matrix(1.00819,0,0,1.00819,35.4325,-11.2354)">
            <path d="M659.897,389.694L634.842,389.694L634.842,350.836L624.441,350.836L624.441,398.656L659.897,398.656L659.897,389.694Z" style="fill:rgb(65,64,66);fill-rule:nonzero;"/>
        </g>
    </g>
</svg>
