<?xml version="1.0" encoding="UTF-8"?>
<svg width="567px" height="217px" viewBox="0 0 567 217" version="1.1" xmlns="http://www.w3.org/2000/svg" xmlns:xlink="http://www.w3.org/1999/xlink">
    <!-- Generator: Sketch 55.1 (78136) - https://sketchapp.com -->
    <title>Group</title>
    <desc>Created with Sketch.</desc>
    <g id="Page-1" stroke="none" stroke-width="1" fill="none" fill-rule="evenodd">
        <g id="SS_CAPITAL" transform="translate(-99.000000, -199.000000)">
            <g id="Group" transform="translate(99.195000, 199.522000)">
                <polygon id="Fill-1" fill="#343433" points="228.534 216.188 232.792 216.188 232.792 -1.42108547e-14 228.534 -1.42108547e-14"></polygon>
                <polyline id="Fill-2" fill="#4B3073" points="65.452 88.712 32.723 69.816 0.205 88.712 32.936 107.61 65.452 88.712"></polyline>
                <polyline id="Fill-3" fill="#4B3073" points="195.808 88.69 163.077 69.793 130.561 88.69 163.29 107.586 195.808 88.69"></polyline>
                <polyline id="Fill-4" fill="#4B3073" points="65.564 126.467 98.293 145.363 130.811 126.466 98.081 107.57 65.564 126.467"></polyline>
                <polyline id="Fill-5" fill="#9B8CAF" points="65.341 201.674 97.858 182.778 97.965 145.168 65.448 164.066 65.341 201.674"></polyline>
                <polyline id="Fill-6" fill="#9B8CAF" points="130.59 88.67 163.107 69.773 163.214 32.164 130.697 51.062 130.59 88.67"></polyline>
                <polyline id="Fill-7" fill="#9B8CAF" points="98.18 69.969 65.663 88.865 65.557 126.475 98.073 107.577 98.18 69.969"></polyline>
                <polyline id="Fill-8" fill="#25254C" points="97.858 182.782 130.588 201.679 130.695 164.071 97.964 145.174 97.858 182.782"></polyline>
                <polyline id="Fill-9" fill="#25254C" points="32.615 69.787 65.345 88.684 65.451 51.075 32.722 32.179 32.615 69.787"></polyline>
                <polyline id="Fill-10" fill="#25254C" points="130.909 88.864 98.18 69.967 98.073 107.576 130.803 126.473 130.909 88.864"></polyline>
                <polyline id="Fill-11" fill="#4B3073" points="130.69 51.071 163.207 32.174 130.487 13.282 97.97 32.179 65.24 13.282 32.722 32.18 65.452 51.076 32.936 69.973 65.656 88.864 98.173 69.967 130.903 88.863 163.419 69.967 130.69 51.071"></polyline>
                <polyline id="Fill-12" fill="#25254C" points="65.557 126.466 65.663 88.858 32.943 69.966 32.836 107.575 0.106 88.679 -7.10542736e-15 126.288 32.73 145.185 32.623 182.793 65.343 201.685 65.449 164.075 98.18 182.972 98.286 145.363 65.557 126.466"></polyline>
                <polyline id="Fill-13" fill="#9B8CAF" points="163.311 107.573 163.417 69.964 130.909 88.856 130.803 126.465 98.286 145.362 98.18 182.971 130.697 164.074 130.59 201.683 163.098 182.791 163.204 145.183 195.722 126.285 195.828 88.676 163.311 107.573"></polyline>
                <path d="M273.692,116.924 L268.257,124.751 C272.657,128.504 279.385,132.126 289.608,132.126 C300.797,132.126 308.433,127.276 308.433,117.442 C308.433,104.762 296.205,103.791 288.506,102.175 C284.238,101.268 279.126,100.491 279.126,97.128 C279.126,93.375 284.302,92.47 287.277,92.47 C291.87,92.47 296.594,94.41 300.668,97.322 L306.362,89.56 C301.186,85.742 295.948,83.22 287.665,83.22 C279.321,83.22 268.905,86.26 268.905,97.517 C268.905,108.838 281.713,111.037 287.665,112.007 C293.164,112.977 298.21,113.949 298.21,117.7 C298.21,120.354 295.105,122.941 289.478,122.941 C284.043,122.941 277.121,119.77 273.692,116.924 Z M347.57,92.793 L347.57,83.931 L309.789,83.931 L309.789,92.793 L323.57,92.793 L323.57,131.221 L333.855,131.221 L333.855,92.793 L347.57,92.793 Z M340.841,131.221 L352.098,131.221 L355.722,123.975 L377.782,123.975 L381.534,131.221 L392.724,131.221 L366.782,82.442 L340.841,131.221 Z M360.766,115.242 L366.782,102.886 L372.864,115.242 L360.766,115.242 Z M405.664,131.221 L405.664,116.471 L412.652,116.471 C416.533,121.647 420.089,126.37 423.973,131.221 L436.199,131.221 C432.382,126.174 428.047,120.483 423.973,115.372 C429.86,112.848 433.611,107.219 433.611,100.362 C433.611,90.659 426.689,83.931 416.533,83.931 L395.507,83.931 L395.507,131.221 L405.664,131.221 Z M405.664,107.61 L405.664,92.793 L416.533,92.793 C422.547,92.793 423.455,97.905 423.455,100.362 C423.455,105.28 419.701,107.61 416.533,107.61 L405.664,107.61 Z M475.403,92.793 L475.403,83.931 L437.622,83.931 L437.622,92.793 L451.402,92.793 L451.402,131.221 L461.689,131.221 L461.689,92.793 L475.403,92.793 Z M501.464,132.062 C514.273,132.062 522.555,124.169 522.555,112.072 L522.555,83.996 L512.332,83.996 L512.332,112.072 C512.332,121 505.476,123.264 501.464,123.264 C497.324,123.264 490.465,121 490.465,112.072 L490.465,83.996 L480.245,83.996 L480.245,112.072 C480.245,124.169 488.59,132.062 501.464,132.062 Z M547.33,83.931 L528.116,83.931 L528.116,131.221 L538.339,131.221 L538.339,117.442 L547.266,117.442 C559.946,117.442 566.414,110.197 566.414,100.879 C566.414,91.5 559.234,83.931 547.33,83.931 Z M548.753,108.579 L538.339,108.579 L538.339,92.793 L547.718,92.793 C553.217,92.793 556.129,96.869 556.129,100.879 C556.129,104.762 553.864,108.579 548.753,108.579 L548.753,108.579 Z" id="Fill-14" fill="#353534"></path>
                <path d="M273.692,52.232 L268.257,60.059 C272.657,63.812 279.385,67.434 289.608,67.434 C300.797,67.434 308.433,62.583 308.433,52.749 C308.433,40.07 296.205,39.099 288.506,37.483 C284.238,36.574 279.126,35.799 279.126,32.436 C279.126,28.683 284.302,27.778 287.277,27.778 C291.87,27.778 296.594,29.718 300.668,32.63 L306.362,24.867 C301.186,21.05 295.948,18.528 287.665,18.528 C279.321,18.528 268.905,21.567 268.905,32.823 C268.905,44.146 281.713,46.344 287.665,47.315 C293.164,48.284 298.21,49.257 298.21,53.008 C298.21,55.661 295.105,58.248 289.478,58.248 C284.043,58.248 277.121,55.077 273.692,52.232 Z M374.483,19.304 L363.614,19.304 L354.299,43.822 L341.878,18.074 L329.457,43.822 L320.334,19.304 L309.338,19.304 L328.229,68.277 L341.878,40.198 L355.399,68.277 L374.483,19.304 Z M380.497,66.53 L390.719,66.53 L390.719,19.239 L380.497,19.239 L380.497,66.53 Z M404.24,52.232 L398.806,60.059 C403.205,63.812 409.933,67.434 420.156,67.434 C431.345,67.434 438.981,62.583 438.981,52.749 C438.981,40.07 426.754,39.099 419.055,37.483 C414.784,36.574 409.674,35.799 409.674,32.436 C409.674,28.683 414.849,27.778 417.825,27.778 C422.419,27.778 427.142,29.718 431.216,32.63 L436.909,24.867 C431.736,21.05 426.495,18.528 418.213,18.528 C409.868,18.528 399.452,21.567 399.452,32.823 C399.452,44.146 412.261,46.344 418.213,47.315 C423.711,48.284 428.759,49.257 428.759,53.008 C428.759,55.661 425.655,58.248 420.026,58.248 C414.591,58.248 407.669,55.077 404.24,52.232 Z M449.977,52.232 L444.542,60.059 C448.943,63.812 455.67,67.434 465.892,67.434 C477.082,67.434 484.718,62.583 484.718,52.749 C484.718,40.07 472.49,39.099 464.791,37.483 C460.523,36.574 455.411,35.799 455.411,32.436 C455.411,28.683 460.587,27.778 463.562,27.778 C468.156,27.778 472.879,29.718 476.953,32.63 L482.647,24.867 C477.471,21.05 472.232,18.528 463.95,18.528 C455.606,18.528 445.19,21.567 445.19,32.823 C445.19,44.146 457.998,46.344 463.95,47.315 C469.449,48.284 474.495,49.257 474.495,53.008 C474.495,55.661 471.389,58.248 465.763,58.248 C460.328,58.248 453.407,55.077 449.977,52.232 L449.977,52.232 Z" id="Fill-15" fill="#353534"></path>
                <path d="M316.895,186.835 L307.279,183.107 C304.4,187.293 299.494,190.695 294.195,190.695 C285.691,190.695 278.822,183.434 278.822,175.257 C278.822,167.08 285.691,159.884 294.195,159.884 C299.494,159.884 304.4,163.22 307.279,167.341 L316.895,163.612 C312.316,155.828 303.811,150.529 294.195,150.529 C280,150.529 268.421,161.65 268.421,175.257 C268.421,188.929 280,200.049 294.195,200.049 C303.811,200.049 312.316,194.751 316.895,186.835" id="Fill-16" fill="#353534"></path>
                <path d="M316.633,199.134 L328.016,199.134 L331.679,191.807 L353.986,191.807 L357.78,199.134 L369.097,199.134 L342.865,149.81 L316.633,199.134 Z M336.781,182.976 L342.865,170.481 L349.014,182.976 L336.781,182.976 L336.781,182.976 Z" id="Fill-17" fill="#353534"></path>
                <path d="M394.021,151.314 L374.592,151.314 L374.592,199.134 L384.928,199.134 L384.928,185.2 L393.955,185.2 C406.777,185.2 413.319,177.873 413.319,168.453 C413.319,158.968 406.057,151.314 394.021,151.314 Z M395.46,176.238 L384.928,176.238 L384.928,160.276 L394.413,160.276 C399.974,160.276 402.917,164.397 402.917,168.453 C402.917,172.378 400.628,176.238 395.46,176.238 L395.46,176.238 Z" id="Fill-18" fill="#353534"></path>
                <polygon id="Fill-19" fill="#353534" points="420.645 199.134 430.981 199.134 430.981 151.314 420.645 151.314"></polygon>
                <polyline id="Fill-20" fill="#353534" points="475.791 160.276 475.791 151.314 437.588 151.314 437.588 160.276 451.522 160.276 451.522 199.134 461.923 199.134 461.923 160.276 475.791 160.276"></polyline>
                <path d="M468.988,199.134 L480.37,199.134 L484.034,191.807 L506.341,191.807 L510.135,199.134 L521.452,199.134 L495.22,149.81 L468.988,199.134 Z M489.136,182.976 L495.22,170.481 L501.369,182.976 L489.136,182.976 L489.136,182.976 Z" id="Fill-21" fill="#353534"></path>
                <polyline id="Fill-22" fill="#353534" points="560.702 190.172 535.647 190.172 535.647 151.314 525.246 151.314 525.246 199.134 560.702 199.134 560.702 190.172"></polyline>
            </g>
        </g>
    </g>
</svg>