<?xml version="1.0" encoding="UTF-8" standalone="no"?>
<!DOCTYPE svg PUBLIC "-//W3C//DTD SVG 1.1//EN" "http://www.w3.org/Graphics/SVG/1.1/DTD/svg11.dtd">
<svg width="100%" height="100%" viewBox="0 0 2084 812" version="1.1" xmlns="http://www.w3.org/2000/svg" xmlns:xlink="http://www.w3.org/1999/xlink" xml:space="preserve" xmlns:serif="http://www.serif.com/" style="fill-rule:evenodd;clip-rule:evenodd;stroke-linejoin:round;stroke-miterlimit:1.41421;">
    <g transform="matrix(4.16667,0,0,4.16667,400,155.844)">
        <g transform="matrix(1.66556,0,0,1.66556,-102.054,-33.3588)">
            <path d="M33.649,26.694L52.24,15.844L64.158,22.355L76.398,15.844L94.315,26.7L76.398,37.445L64.158,30.662L52.24,37.434L33.649,26.694Z" style="fill:rgb(240,241,244);"/>
        </g>
        <g transform="matrix(1.66556,0,0,1.66556,-102.054,-33.3588)">
            <path d="M33.649,37.434L52.24,47.478L64.135,40.682L76.064,47.478L94.399,37.434L94.315,26.7L76.396,37.434L64.158,30.662L52.24,37.434L33.649,26.692L33.649,37.434Z" style="fill:url(#_Linear1);fill-rule:nonzero;"/>
        </g>
        <g transform="matrix(0.695609,0,0,0.695609,45.2752,21.7239)">
            <g transform="matrix(2.39439,0,0,2.39439,-212.084,-78.5968)">
                <path d="M52.544,64.39L64.204,71.121L75.787,64.39L64.128,57.658L52.544,64.39Z" style="fill:rgb(173,178,184);"/>
            </g>
            <g transform="matrix(2.39439,0,0,2.39439,-212.084,-78.5968)">
                <path d="M64.163,44.264L52.58,50.996L52.542,64.393L64.125,57.661L64.163,44.264Z" style="fill:rgb(240,241,244);"/>
            </g>
            <g transform="matrix(2.39439,0,0,2.39439,-212.084,-78.5968)">
                <path d="M75.822,50.995L64.163,44.263L64.125,57.661L75.784,64.392L75.822,50.995Z" style="fill:rgb(69,74,88);fill-rule:nonzero;"/>
            </g>
        </g>
        <g transform="matrix(0.695609,0,0,0.695609,45.1416,21.2645)">
            <g transform="matrix(2.39439,0,0,2.39439,-212.664,-78.5137)">
                <path d="M67.561,93.911L76.998,99.704L77.076,79.228L89.273,71.792L89.273,58.307L106.699,47.673L106.919,47.402L97.467,42.054L79.272,52.931L79.272,66.198L67.561,73.381L67.561,93.911Z" style="fill:url(#_Linear2);fill-rule:nonzero;"/>
            </g>
            <g transform="matrix(2.39439,0,0,2.39439,-212.664,-78.5137)">
                <path d="M94.882,88.997L94.882,75.44L106.919,68.443L106.919,47.402L89.195,58.251L89.195,71.731L76.996,79.172L76.996,99.704L94.882,88.997Z" style="fill:rgb(48,54,69);"/>
            </g>
        </g>
        <g transform="matrix(1.66556,0,0,1.66556,-102.054,-33.0299)">
            <path d="M60.889,93.71L51.517,99.542L51.517,78.965L39.291,71.572L39.113,58.159L21.452,47.376L30.984,41.852L49.178,52.73L49.178,65.997L60.889,73.179L60.889,93.71Z" style="fill:url(#_Linear3);fill-rule:nonzero;"/>
        </g>
        <g transform="matrix(-1.67461,0,0,1.65465,112.725,-32.5566)">
            <path d="M94.882,89.155L94.882,75.44L106.919,68.443L106.919,47.402L89.195,58.251L89.195,71.731L76.996,79.172L76.996,99.924L94.882,89.155Z" style="fill:rgb(203,206,210);"/>
        </g>
        <g transform="matrix(1.66556,0,0,1.66556,-102.054,-33.3588)">
            <path d="M130.188,31.037L127.658,34.69C129.705,36.441 132.839,38.132 137.598,38.132C142.808,38.132 146.363,35.868 146.363,31.278C146.363,25.361 140.67,24.908 137.086,24.153C135.098,23.73 132.718,23.368 132.718,21.798C132.718,20.047 135.128,19.624 136.513,19.624C138.652,19.624 140.851,20.53 142.748,21.889L145.399,18.266C142.989,16.484 140.549,15.307 136.694,15.307C132.808,15.307 127.959,16.726 127.959,21.979C127.959,27.263 133.923,28.289 136.694,28.742C139.254,29.195 141.604,29.648 141.604,31.399C141.604,32.637 140.158,33.845 137.537,33.845C135.007,33.845 131.784,32.365 130.188,31.037Z" style="fill:rgb(48,54,69);fill-rule:nonzero;"/>
        </g>
        <g transform="matrix(1.66556,0,0,1.66556,-102.054,-33.3588)">
            <path d="M151.483,31.037L148.953,34.69C151.001,36.441 154.134,38.132 158.893,38.132C164.104,38.132 167.658,35.868 167.658,31.278C167.658,25.361 161.965,24.908 158.381,24.153C156.393,23.73 154.013,23.368 154.013,21.798C154.013,20.047 156.423,19.624 157.808,19.624C159.947,19.624 162.146,20.53 164.043,21.889L166.694,18.266C164.284,16.484 161.845,15.307 157.989,15.307C154.104,15.307 149.254,16.726 149.254,21.979C149.254,27.263 155.218,28.289 157.989,28.742C160.549,29.195 162.899,29.648 162.899,31.399C162.899,32.637 161.453,33.845 158.833,33.845C156.302,33.845 153.08,32.365 151.483,31.037Z" style="fill:rgb(48,54,69);fill-rule:nonzero;"/>
        </g>
        <g transform="matrix(1.66556,0,0,1.66556,-102.054,-33.3588)">
            <path d="M181.122,38.102C187.085,38.102 190.941,34.418 190.941,28.773L190.941,15.669L186.182,15.669L186.182,28.773C186.182,32.939 182.989,33.996 181.122,33.996C179.194,33.996 176.001,32.939 176.001,28.773L176.001,15.669L171.242,15.669L171.242,28.773C171.242,34.418 175.128,38.102 181.122,38.102Z" style="fill:rgb(48,54,69);fill-rule:nonzero;"/>
        </g>
        <g transform="matrix(1.66556,0,0,1.66556,-102.054,-33.3588)">
            <path d="M218.079,25.421L204.766,25.421L204.766,29.618L212.989,29.618C212.296,31.973 209.405,33.815 206.573,33.815C202.658,33.815 199.435,30.463 199.435,26.689C199.435,22.915 202.658,19.594 206.573,19.594C208.953,19.594 211.091,21.074 212.447,22.945L216.543,20.56C214.375,17.33 210.67,15.247 206.573,15.247C200.037,15.247 194.706,20.409 194.706,26.689C194.706,32.999 200.037,38.132 206.573,38.132C212.507,38.132 217.598,34.116 218.079,28.471C218.11,28.018 218.14,27.595 218.14,27.203C218.14,26.719 218.11,26.025 218.079,25.421Z" style="fill:rgb(48,54,69);fill-rule:nonzero;"/>
        </g>
        <g transform="matrix(1.66556,0,0,1.66556,-102.054,-33.3588)">
            <path d="M133.411,50.536L145.308,50.536L145.308,46.4L128.621,46.4L128.621,68.47L133.411,68.47L133.411,59.534L143.923,59.534L143.923,55.398L133.411,55.398L133.411,50.536Z" style="fill:rgb(48,54,69);fill-rule:nonzero;"/>
        </g>
        <g transform="matrix(1.66556,0,0,1.66556,-102.054,-33.3588)">
            <path d="M165.067,64.334L153.531,64.334L153.531,46.4L148.742,46.4L148.742,68.47L165.067,68.47L165.067,64.334Z" style="fill:rgb(48,54,69);fill-rule:nonzero;"/>
        </g>
        <g transform="matrix(1.66556,0,0,1.66556,-102.054,-33.3588)">
            <path d="M165.549,68.47L170.79,68.47L172.477,65.089L182.748,65.089L184.495,68.47L189.706,68.47L177.628,45.706L165.549,68.47ZM174.826,61.013L177.628,55.247L180.459,61.013L174.826,61.013Z" style="fill:rgb(48,54,69);fill-rule:nonzero;"/>
        </g>
        <g transform="matrix(1.66556,0,0,1.66556,-102.054,-33.3588)">
            <path d="M212.926,56.182L199.613,56.182L199.613,60.379L207.836,60.379C207.143,62.734 204.252,64.576 201.42,64.576C197.505,64.576 194.282,61.224 194.282,57.45C194.282,53.676 197.505,50.355 201.42,50.355C203.8,50.355 205.938,51.835 207.294,53.707L211.39,51.321C209.221,48.091 205.517,46.008 201.42,46.008C194.884,46.008 189.553,51.17 189.553,57.45C189.553,63.76 194.884,68.893 201.42,68.893C207.354,68.893 212.444,64.878 212.926,59.232C212.956,58.779 212.987,58.356 212.987,57.964C212.987,57.481 212.956,56.786 212.926,56.182Z" style="fill:rgb(48,54,69);fill-rule:nonzero;"/>
        </g>
        <g transform="matrix(1.66556,0,0,1.66556,-102.054,-33.3588)">
            <path d="M218.258,61.798L215.727,65.451C217.776,67.202 220.908,68.893 225.667,68.893C230.878,68.893 234.432,66.629 234.432,62.04C234.432,56.122 228.739,55.669 225.155,54.914C223.167,54.492 220.788,54.129 220.788,52.559C220.788,50.808 223.197,50.385 224.583,50.385C226.721,50.385 228.92,51.291 230.818,52.65L233.468,49.027C231.059,47.246 228.619,46.068 224.764,46.068C220.878,46.068 216.029,47.487 216.029,52.74C216.029,58.024 221.993,59.051 224.764,59.503C227.324,59.956 229.673,60.409 229.673,62.16C229.673,63.398 228.227,64.606 225.607,64.606C223.077,64.606 219.854,63.126 218.258,61.798Z" style="fill:rgb(48,54,69);fill-rule:nonzero;"/>
        </g>
        <g transform="matrix(1.66556,0,0,1.66556,-102.054,-33.3588)">
            <path d="M257.806,46.4L253.077,46.4L253.077,55.761L242.746,55.761L242.746,46.4L238.017,46.4L238.017,68.47L242.746,68.47L242.746,59.896L253.077,59.896L253.077,68.47L257.806,68.47L257.806,46.4Z" style="fill:rgb(48,54,69);fill-rule:nonzero;"/>
        </g>
        <g transform="matrix(1.66556,0,0,1.66556,-102.054,-33.3588)">
            <rect x="263.318" y="46.4" width="4.759" height="22.07" style="fill:rgb(48,54,69);fill-rule:nonzero;"/>
        </g>
        <g transform="matrix(1.66556,0,0,1.66556,-102.054,-33.3588)">
            <path d="M282.384,46.4L273.438,46.4L273.438,68.47L278.197,68.47L278.197,62.04L282.354,62.04C288.257,62.04 291.27,58.658 291.27,54.31C291.27,49.933 287.926,46.4 282.384,46.4ZM283.047,57.903L278.197,57.903L278.197,50.536L282.565,50.536C285.125,50.536 286.48,52.439 286.48,54.31C286.48,56.122 285.426,57.903 283.047,57.903Z" style="fill:rgb(48,54,69);fill-rule:nonzero;"/>
        </g>
        <g transform="matrix(1.66556,0,0,1.66556,-102.054,-33.3588)">
            <path d="M133.411,81.298L145.308,81.298L145.308,77.161L128.621,77.161L128.621,99.231L133.411,99.231L133.411,90.295L143.923,90.295L143.923,86.158L133.411,86.158L133.411,81.298Z" style="fill:rgb(48,54,69);fill-rule:nonzero;"/>
        </g>
        <g transform="matrix(1.66556,0,0,1.66556,-102.054,-33.3588)">
            <path d="M158.652,99.624C164.616,99.624 168.471,95.941 168.471,90.295L168.471,77.191L163.712,77.191L163.712,90.295C163.712,94.461 160.519,95.518 158.652,95.518C156.724,95.518 153.531,94.461 153.531,90.295L153.531,77.191L148.772,77.191L148.772,90.295C148.772,95.941 152.658,99.624 158.652,99.624Z" style="fill:rgb(48,54,69);fill-rule:nonzero;"/>
        </g>
        <g transform="matrix(1.66556,0,0,1.66556,-102.054,-33.3588)">
            <path d="M178.2,86.672L193.411,99.926L193.411,77.191L188.652,77.191L188.652,89.932L173.471,76.467L173.471,99.231L178.2,99.231L178.2,86.672Z" style="fill:rgb(48,54,69);fill-rule:nonzero;"/>
        </g>
        <g transform="matrix(1.66556,0,0,1.66556,-102.054,-33.3588)">
            <path d="M198.411,99.231L207.507,99.231C210.73,99.231 213.531,98.265 215.549,96.484C217.718,94.522 218.983,91.563 218.983,88.181C218.983,84.77 217.808,81.901 215.549,79.939C213.501,78.127 210.76,77.161 207.507,77.161L198.411,77.161L198.411,99.231ZM203.17,95.095L203.17,81.328L207.507,81.328C210.489,81.328 214.164,82.415 214.164,88.211C214.164,94.008 210.519,95.095 207.507,95.095L203.17,95.095Z" style="fill:rgb(48,54,69);fill-rule:nonzero;"/>
        </g>
        <g transform="matrix(1.66556,0,0,1.66556,-102.054,-33.3588)">
            <rect x="232.597" y="77.161" width="4.76" height="22.07" style="fill:rgb(48,54,69);fill-rule:nonzero;"/>
        </g>
    </g>
    <defs>
        <linearGradient id="_Linear1" x1="0" y1="0" x2="1" y2="0" gradientUnits="userSpaceOnUse" gradientTransform="matrix(0.319004,-23.13,-23.13,-0.319004,63.703,52.878)"><stop offset="0" style="stop-color:rgb(162,169,179);stop-opacity:1"/><stop offset="1" style="stop-color:rgb(227,232,235);stop-opacity:1"/></linearGradient>
        <linearGradient id="_Linear2" x1="0" y1="0" x2="1" y2="0" gradientUnits="userSpaceOnUse" gradientTransform="matrix(43.199,0.125,0.125,-43.199,63.828,70.778)"><stop offset="0" style="stop-color:rgb(153,158,166);stop-opacity:1"/><stop offset="0.3" style="stop-color:rgb(74,80,93);stop-opacity:1"/><stop offset="1" style="stop-color:rgb(48,55,70);stop-opacity:1"/></linearGradient>
        <linearGradient id="_Linear3" x1="0" y1="0" x2="1" y2="0" gradientUnits="userSpaceOnUse" gradientTransform="matrix(-43.849,0.199001,0.199001,43.849,65.299,70.501)"><stop offset="0" style="stop-color:rgb(221,224,227);stop-opacity:1"/><stop offset="0.3" style="stop-color:rgb(182,187,192);stop-opacity:1"/><stop offset="1" style="stop-color:rgb(172,177,184);stop-opacity:1"/></linearGradient>
    </defs>
</svg>
