<?xml version="1.0" encoding="utf-8"?>
<!-- Generator: Adobe Illustrator 22.1.0, SVG Export Plug-In . SVG Version: 6.00 Build 0)  -->
<svg version="1.1" id="Layer_1" xmlns="http://www.w3.org/2000/svg" xmlns:xlink="http://www.w3.org/1999/xlink" x="0px" y="0px"
	 viewBox="0 0 166.9 149.9" style="enable-background:new 0 0 166.9 149.9;" xml:space="preserve" heigth="100px">
<style type="text/css">
	.st0{fill:#834949;}
	.st1{fill:#CCC6C4;}
	.st2{fill:#FFFFFF;}
	.st3{opacity:0.99;}
	.st4{fill:none;stroke:#999999;stroke-width:2;stroke-linecap:round;stroke-linejoin:round;stroke-miterlimit:10;}
	.st5{opacity:0.8;fill:#6D6D6D;}
	.st6{fill:#E5E1D6;}
	.st7{fill:#6D6D6D;}
	.st8{fill:#A6A39E;}
	.st9{fill:#F6CA56;}
	.st10{opacity:0.68;fill:#E5E1D6;}
	.st11{opacity:0.66;fill:#FF0000;}
	.st12{opacity:0.66;fill:#FFFF00;}
	.st13{opacity:0.66;fill:#00FF00;}
	.st14{fill:#E6E6E6;}
	.st15{fill:#CCCCCC;}
	.st16{fill:#00486B;}
	.st17{opacity:7.000000e-02;fill:#00486B;}
	.st18{opacity:0.95;fill:#00486B;}
	.st19{opacity:0.28;fill:#E6E6E6;}
	.st20{fill:#F8C18A;}
	.st21{opacity:0.89;fill:#F2F2F2;}
	.st22{fill:#F2F2F2;}
	.st23{opacity:0.46;fill:#3C3C3B;}
	.st24{opacity:0.71;fill:#007EC3;}
	.st25{opacity:7.000000e-02;}
	.st26{fill:url(#SVGID_1_);}
	.st27{fill:url(#SVGID_2_);}
	.st28{fill:url(#SVGID_3_);}
	.st29{fill:url(#SVGID_4_);}
	.st30{fill:url(#SVGID_5_);}
	.st31{opacity:0.55;fill:#808088;}
	.st32{opacity:0.7;fill:#E5E1D6;}
	.st33{fill:none;stroke:#F2F2F2;stroke-width:2;stroke-linecap:round;stroke-linejoin:round;stroke-miterlimit:10;}
	.st34{opacity:0.39;fill:#808088;}
	.st35{opacity:0.84;fill:#FFFFFF;}
</style>
<polygon class="st0" points="127.1,77.6 112.6,99.3 109.7,95.6 "/>
<path class="st1" d="M112.4,97.4h-0.7c-1,0-1.8-0.8-1.8-1.8V69.7c0-1,0.8-1.8,1.8-1.8h0.7c1,0,1.8,0.8,1.8,1.8v25.9
	C114.2,96.6,113.4,97.4,112.4,97.4z"/>
<path class="st1" d="M111.7,97.4h17c1,0,1.8-0.8,1.8-1.8v-0.7c0-1-0.8-1.8-1.8-1.8h-17c-1,0-1.8,0.8-1.8,1.8v0.7
	C110,96.6,110.8,97.4,111.7,97.4z"/>
<g>
	<circle class="st2" cx="112.2" cy="95.5" r="2.6"/>
	<path class="st1" d="M112.2,90c-3,0-5.4,2.4-5.4,5.4c0,3,2.4,5.4,5.4,5.4s5.4-2.4,5.4-5.4C117.6,92.5,115.2,90,112.2,90z
		 M112.3,97.9c-1.4,0-2.6-1.2-2.6-2.6c0-1.4,1.2-2.6,2.6-2.6s2.6,1.2,2.6,2.6C114.9,96.7,113.7,97.9,112.3,97.9z"/>
</g>
<g class="st3">
	<g>
		<line class="st4" x1="112.4" y1="51.7" x2="112.4" y2="59.2"/>
		<line class="st4" x1="112.4" y1="130.5" x2="112.4" y2="137.9"/>
	</g>
	<g>
		<line class="st4" x1="69.1" y1="94" x2="76.6" y2="94"/>
		<line class="st4" x1="148.5" y1="94" x2="156" y2="94"/>
	</g>
	<g>
		<line class="st4" x1="80.7" y1="123.9" x2="85.9" y2="118.7"/>
		<line class="st4" x1="135.7" y1="68.9" x2="140.9" y2="63.7"/>
	</g>
	<g>
		<line class="st4" x1="144.7" y1="124.6" x2="139.4" y2="119.3"/>
		<line class="st4" x1="88.8" y1="68.6" x2="83.5" y2="63.3"/>
	</g>
</g>
<path class="st5" d="M112.9,0c-10.3,0-18.7,8.4-18.7,18.7c0,10.3,8.4,18.7,18.7,18.7s18.7-8.4,18.7-18.7C131.5,8.4,123.2,0,112.9,0z
	 M112.9,33.5c-8,0-14.5-6.5-14.5-14.5s6.5-14.5,14.5-14.5s14.5,6.5,14.5,14.5S120.9,33.5,112.9,33.5z"/>
<path class="st6" d="M113.5,40.3h-1.2c-1.8,0-3.3-1.5-3.3-3.3v-5.6c0-1.8,1.5-3.3,3.3-3.3h1.2c1.8,0,3.3,1.5,3.3,3.3V37
	C116.7,38.8,115.3,40.3,113.5,40.3z"/>
<path class="st7" d="M116.7,29.7h-7.6c-1.9,0-3.4-1.6-3.4-3.4v-5.6c0-1.9,1.6-3.4,3.4-3.4h7.6c1.9,0,3.4,1.6,3.4,3.4v5.6
	C120.1,28.1,118.6,29.7,116.7,29.7z"/>
<path class="st6" d="M147.4,53.1l-3.1-2.3c-1.1-0.8-1.3-2.4-0.5-3.5l3.7-5c0.8-1.1,2.4-1.3,3.5-0.5l3.1,2.3c1.1,0.8,1.3,2.4,0.5,3.5
	l-3.7,5C150.1,53.7,148.5,53.9,147.4,53.1z"/>
<path class="st8" d="M153.7,49.4l-7.6-5.7c-1.6-1.2-1.9-3.5-0.7-5.1l2.2-2.9c1.2-1.6,3.5-1.9,5.1-0.7l7.6,5.7
	c1.6,1.2,1.9,3.5,0.7,5.1l-2.2,2.9C157.6,50.3,155.3,50.6,153.7,49.4z"/>
<path class="st6" d="M79.4,52.6l3.1-2.3c1.1-0.8,1.3-2.4,0.5-3.5l-3.7-5c-0.8-1.1-2.4-1.3-3.5-0.5l-3.1,2.3
	c-1.1,0.8-1.3,2.4-0.5,3.5l3.7,5C76.7,53.2,78.3,53.4,79.4,52.6z"/>
<path class="st8" d="M73.1,48.9l7.6-5.7c1.6-1.2,1.9-3.5,0.7-5.1l-2.2-2.9c-1.2-1.6-3.5-1.9-5.1-0.7l-7.6,5.7
	c-1.6,1.2-1.9,3.5-0.7,5.1l2.2,2.9C69.2,49.8,71.4,50.2,73.1,48.9z"/>
<path class="st7" d="M111.9,39.9c-30.4,0-55,24.6-55,55c0,30.4,24.6,55,55,55s55-24.6,55-55C166.9,64.5,142.2,39.9,111.9,39.9z
	 M111.9,144.9c-27.6,0-50-22.4-50-50s22.4-50,50-50s50,22.4,50,50S139.5,144.9,111.9,144.9z"/>
<g>
	<path class="st9" d="M87,78.9H14c-2.2,0-4-1.8-4-4v-1c0-2.2,1.8-4,4-4h73c2.2,0,4,1.8,4,4v1C91,77.1,89.2,78.9,87,78.9z"/>
	<path class="st9" d="M93,95.9H39c-2.2,0-4-1.8-4-4v-1c0-2.2,1.8-4,4-4h54c2.2,0,4,1.8,4,4v1C97,94.1,95.2,95.9,93,95.9z"/>
	<path class="st9" d="M26,95.9H4c-2.2,0-4-1.8-4-4v-1c0-2.2,1.8-4,4-4h22c2.2,0,4,1.8,4,4v1C30,94.1,28.2,95.9,26,95.9z"/>
	<path class="st9" d="M88,111.9H44c-2.2,0-4-1.8-4-4v-1c0-2.2,1.8-4,4-4h44c2.2,0,4,1.8,4,4v1C92,110.1,90.2,111.9,88,111.9z"/>
	<path class="st9" d="M69,127.9H25c-2.2,0-4-1.8-4-4v-1c0-2.2,1.8-4,4-4h44c2.2,0,4,1.8,4,4v1C73,126.1,71.2,127.9,69,127.9z"/>
</g>
</svg>
