<?xml version="1.0" encoding="utf-8"?>
<!-- Generator: Adobe Illustrator 23.0.1, SVG Export Plug-In . SVG Version: 6.00 Build 0)  -->
<svg version="1.1" id="Layer_1" xmlns="http://www.w3.org/2000/svg" xmlns:xlink="http://www.w3.org/1999/xlink" height="200px"
	 viewBox="0 0 589.6 255" style="enable-background:new 0 0 589.6 255;" xml:space="preserve">
<style type="text/css">
	.st0{fill:#3C3C3B;}
	.st1{fill:#0A6C95;}
	.st2{fill:#FEFEFE;}
	.st3{fill:#FCFCFC;}
	.st4{fill:#FBFBFB;}
</style>
<g>
	<g>
		<path class="st0" d="M288.47,0.74c8.8,1.9,16.3,7.6,24.2,11.94c6.12,1.92,23.38,3.16,24.95-2.66c0.11-0.4,1.22-0.61,1.89-0.77
			c9.34-2.13,18.68-4.21,28.01-6.34c3.3-0.75,4.45,0.54,4.43,3.86c-0.09,18.12-0.09,36.25-0.01,54.37c0.01,3.38-1.22,4.94-4.7,4.76
			c-3.01-0.15-6.05-0.16-9.06,0c-2.73,0.15-4.39-0.9-5.14-4.35c-2.23,6.4-5.93,9.91-12.51,8.84c-1.58-0.26-1.6,0.77-1.82,1.86
			c-1.17,5.68-4.99,8-10.45,7.55c-2.29-0.19-3.37,0.04-4.13,2.5c-1.44,4.69-5.16,6.64-9.87,6.4c-1.99-0.1-2.85-0.17-3.63,2.25
			c-2.29,7.13-8.88,9.16-15.32,5.17c-0.3-0.19-0.59-0.4-0.88-0.6c-5.78-3.87-5.78-3.87-9.91,1.99c-6.61,9.39-13.63,9.06-19.15-1.1
			c-0.84-1.55-1.59-1.36-2.86-1.3c-4.66,0.22-7.86-2.03-9.36-6.34c-0.71-2.05-1.61-2.89-3.79-2.52c-1,0.17-2.1-0.25-3.16-0.33
			c-5.35-0.4-4.02-8.33-10.11-8.53c-5.26-0.17-7.72-4.12-8.62-9.27c-0.45-2.55-3.58-2.43-5.44-3.62c-1.05-1.72-0.99-3.23,0.8-4.43
			c3.94,0.76,6.85-0.54,9.74-3.5c4.37-4.47,11.61-3.9,15.49,1c1.39,1.75,2.23,1.89,4.14,1.21c3.62-1.31,7.11-0.59,9.85,2.13
			c1.81,1.8,3.34,1.81,5.65,0.9c6.27-2.48,10.6-0.48,13.77,5.86c0.58,3.66,2.14,6.3,5.85,7.99c3.14,1.43,5.08,4.65,5.12,8.19
			c0.04,3.94,2.5,5.59,5.34,7.15c2.31,1.27,4.86,2.01,6.59-0.64c1.67-2.56,0.36-4.77-1.88-6.36c-4.32-3.08-8.63-6.16-12.98-9.2
			c-2.85-1.99-6.19-3.53-7.85-6.91c-0.9-3.36,0.74-4.33,3.68-3.66c2.29,0.52,4.1,2.08,5.98,3.42c6.21,4.45,12.43,8.89,18.81,13.1
			c2.5,1.65,5.57,3.86,7.89,0.28c2.24-3.46-0.93-5.57-3.31-7.33c-4-2.95-8.19-5.65-12.2-8.6c-0.86-0.63-1.82-1.13-2.6-1.86
			c-1.75-1.63-4.72-3.19-2.85-5.99c1.87-2.8,4.45-0.97,6.55,0.39c6.28,4.04,12.22,8.57,18.4,12.75c1.18,0.8,2.25,1.76,3.51,2.41
			c2.35,1.21,4.91,2.04,6.61-0.69c1.63-2.62,0.16-4.77-2.05-6.36c-7.65-5.5-15.4-10.84-23.11-16.26c-2.64-1.86-7.16-4.09-4.73-7.61
			c2.64-3.83,5.93,0.22,8.52,1.96c7.97,5.35,15.8,10.89,23.61,16.47c1.59,1.14,3.21,2.23,4.92,3.19c2.34,1.32,4.78,2.09,6.55-0.67
			c1.6-2.51,0-4.39-1.87-5.94c-4.25-3.52-8.93-6.46-13.47-9.57c-11.29-7.73-21.88-16.53-33.76-23.31
			c-8.29-4.74-17.34-4.47-25.82,0.38c-4.02,2.3-7.92,4.72-12.52,5.77c-2.92,0.67-5.66,0.38-8.26-1.03c-4.9-2.66-5.75-7.34-2.01-11.5
			c1.65-1.84,3.59-3.41,5.95-4.22c-3.78,0.46-7.57,1.22-11.31,2.31c-1.65,0.48-3.41,1.35-4.98-0.29c-0.72-1.88-0.3-3.36,1.5-4.37
			c7.17-2.03,14.36-3.98,21.93-3.18c2.05,0.22,3.33-1.08,4.69-2.14c2.94-2.29,6.19-4.1,9.72-5.02
			C279.79-0.34,284.29-0.16,288.47,0.74z"/>
		<path class="st1" d="M223.34,60.42c-1.4,1.06-0.97,2.7-1.29,4.1c-5.39,2.77-11.13,0.97-16.71,1.15c-1.94,0.06-2.11-2.07-2.11-3.72
			c-0.01-18.46,0-36.92-0.02-55.38c0-2.51,0.77-4.43,3.64-3.86c10.52,2.09,21.07,4.1,31.34,7.27c0.44,0.14,0.75,0.74,1.11,1.12
			c-0.37,1.62-0.73,3.24-1.09,4.86c0.81,1.81,0.08,3.5-0.46,5.17c-3.8,11.66-7.78,23.26-11.62,34.9
			C225.58,57.7,225.01,59.42,223.34,60.42z"/>
		<path class="st2" d="M223.34,60.42c4.61-14.94,9.45-29.8,14.88-44.47c5.69-1.6,11.2-4.15,18.38-3.61
			c-2.88,2.3-5.13,3.92-7.18,5.77c-1.76,1.59-3.09,3.65-2.4,6.14c0.73,2.63,2.77,3.88,5.45,4.44c7.41,1.54,13.08-2.25,18.66-6.06
			c7.7-5.26,16.47-5.2,23.59-1.2c17.95,10.09,33.96,23.24,50.97,34.86c2.9,1.98,3.64,4.96,1.45,7.88c-2.33,3.11-5.33,3.03-8.41,0.86
			c-9.44-6.64-18.91-13.24-28.36-19.86c-0.87-0.61-1.69-1.33-2.63-1.81c-1.7-0.87-3.58-3.7-5.33-1.08
			c-1.34,2.01,1.27,3.29,2.83,4.39c8.42,5.93,16.82,11.9,25.31,17.71c3.46,2.37,6,5.2,3.14,9.16c-2.85,3.94-6.37,2.4-9.74-0.04
			c-6.32-4.59-12.72-9.08-19.23-13.4c-2.14-1.42-4.9-5.28-7.07-2.28c-1.86,2.57,2.54,3.91,4.49,5.37c4.83,3.62,9.84,7,14.79,10.45
			c3.09,2.15,5.14,4.83,2.68,8.46c-2.55,3.77-5.82,3.13-9.2,0.72c-7.81-5.56-15.7-11.02-23.58-16.48c-2.26-1.56-4.65-3.07-4.78,1.67
			c0.03,0.12,0.07,0.22,0.1,0.33c0.2,0.7,0.27,1.08,0.26,1.25c-0.03,0.59-1.04-1.33-1.27-1.57c-4.9-6.57-8.71-7.6-15.28-3.75
			c-1.31,0.77-1.91,1.18-2.81-0.26c-0.56-0.88-1.29-1.7-2.07-2.39c-3.72-3.28-8.79-0.02-11.78-1.53c-3.36-1.71-5.61-5.54-10.32-5.08
			c-2.85,0.28-5.53,1.2-6.77,3.62C229.78,63.2,226.89,62.8,223.34,60.42z"/>
		<path class="st2" d="M350.77,54.78c-9.74-6.85-18.81-13.34-27.99-19.66c-8.48-5.84-16.18-13.06-25.6-17.2
			c-9.18-4.03-19.04-4.88-28.14,1.16c-3.87,2.57-7.73,5.1-12.36,5.97c-1.89,0.35-4.32,0.21-5.13-1.65
			c-0.68-1.54,1.28-2.73,2.55-3.67c5.13-3.81,10.18-7.75,15.5-11.29c6.68-4.44,13.96-4.84,21.37-1.93c3.13,1.23,5.5,2.39,9.13,4.26
			c10.63,5.73,17.75,7.16,30.21,6.97c6.58-0.1,9.15,1.66,10.78,7.9C343.62,35.36,347.37,44.76,350.77,54.78z"/>
		<path class="st3" d="M277.64,72.19c-0.31,0.73-0.57,1.79-1.14,2.64c-3.08,4.54-6.16,9.08-9.4,13.51c-2,2.73-4.77,3.97-7.83,1.89
			c-3.13-2.13-3.62-5.08-1.38-8.29c3.14-4.5,6.21-9.05,9.49-13.44c1.58-2.1,3.78-3.19,6.53-1.99
			C276.27,67.54,277.4,69.38,277.64,72.19z"/>
		<path class="st3" d="M274.83,100c-4.23-0.19-6.89-4.56-4.85-8.12c2.19-3.81,4.76-7.45,7.57-10.84c1.8-2.17,4.55-2.9,7.13-1.07
			c2.67,1.88,3.44,4.59,1.68,7.42c-2.23,3.59-4.72,7.03-7.21,10.46C278.06,99.36,276.37,99.95,274.83,100z"/>
		<path class="st3" d="M249.53,82.29c-3.87,0.14-6.7-4.06-4.75-7.8c1.55-2.97,3.52-5.75,5.53-8.46c1.95-2.63,4.65-3.36,7.48-1.52
			c3.01,1.96,3.6,4.77,1.66,7.84c-1.61,2.55-3.45,4.96-5.19,7.43C253.17,81.36,251.59,82.05,249.53,82.29z"/>
		<path class="st4" d="M231.91,68.86c-0.1-4.57,4.66-10.41,7.91-10.11c3.09,0.29,5.28,2.02,5.42,5.44c0.17,3.92-4.46,9.27-7.98,9.19
			C233.88,73.31,232.2,71.36,231.91,68.86z"/>
		<path class="st2" d="M290.28,75.34l3.75,2.64l6.36,4.52c0,0,2.56,1.8,3.6,2.82c1.04,1.02,1.25,2.11,1.15,2.99s-0.4,2.05-1.68,3.13
			s-7.48,2.64-11.25-5.57s-3.33-7.6-4.75-9.03c-1.43-1.43-3.8-1.43-4.28-2.38c-0.48-0.95-0.95-2.85-1.43-4.28
			c-0.48-1.43-1.9-4.28-1.9-4.28l0.94,0.8l0.66-0.7c0,0,1.25,3.7,2.67,4.65C285.54,71.61,290.28,75.34,290.28,75.34z"/>
	</g>
	<g>
		<path class="st0" d="M58.21,148.53l36.06,104.7H72.26l-7.29-23.32H28.9l-7.56,23.32H0l36.46-104.7H58.21z M59.42,212.76
			l-12.15-38.42H47l-12.56,38.42H59.42z"/>
		<path class="st0" d="M124.12,253.23l-31.2-104.7h21.74l21.47,73.61h0.27l21.74-73.61h21.88l-32.01,104.7H124.12z"/>
		<path class="st0" d="M236.89,148.53l36.06,104.7h-22.01l-7.29-23.32h-36.06l-7.56,23.32h-21.34l36.46-104.7H236.89z M238.1,212.76
			l-12.15-38.42h-0.27l-12.56,38.42H238.1z"/>
		<path class="st0" d="M309.14,148.53l40.25,70.24h0.27v-70.24h19.85v104.7h-21.2l-40.11-70.09h-0.27v70.09h-19.85v-104.7H309.14z"
			/>
		<path class="st0" d="M467.02,148.53v19.36h-50.92v22.44h46.73v17.89h-46.73v25.66h52v19.36h-73.2v-104.7H467.02z"/>
		<path class="st0" d="M539.06,145.25c-27.91,0-50.54,24.57-50.54,54.87c0,30.31,22.63,54.87,50.54,54.87
			c27.91,0,50.54-24.57,50.54-54.87C589.6,169.82,566.98,145.25,539.06,145.25z M538.21,234.71c-17.59,0-31.85-15.48-31.85-34.58
			s14.26-34.58,31.85-34.58c17.59,0,31.85,15.48,31.85,34.58S555.81,234.71,538.21,234.71z"/>
	</g>
</g>
</svg>
