<?xml version="1.0" encoding="utf-8"?>
<!-- Generator: Adobe Illustrator 23.0.1, SVG Export Plug-In . SVG Version: 6.00 Build 0)  -->
<svg version="1.1" id="Layer_1" xmlns="http://www.w3.org/2000/svg" xmlns:xlink="http://www.w3.org/1999/xlink" height="200px"
	 viewBox="0 0 661.41 275.49" style="enable-background:new 0 0 661.41 275.49;" xml:space="preserve">
<style type="text/css">
	.st0{fill:#2F5495;}
	.st1{fill:#EAE2CC;}
</style>
<g>
	<g>
		<path class="st0" d="M19.41,239.55c-1.23-1.04-2.88-1.55-4.95-1.55c-1.77,0-3.24,0.33-4.43,0.98c-1.19,0.65-2.14,1.52-2.85,2.59
			c-0.71,1.07-1.22,2.31-1.53,3.71c-0.31,1.4-0.46,2.85-0.46,4.35c0,1.38,0.16,2.73,0.49,4.03c0.33,1.31,0.83,2.47,1.53,3.48
			c0.69,1.02,1.59,1.83,2.71,2.45c1.11,0.62,2.44,0.92,3.97,0.92c2.42,0,4.31-0.63,5.67-1.9c1.36-1.27,2.2-3.05,2.51-5.36h5.01
			c-0.54,3.68-1.91,6.53-4.12,8.52c-2.21,2-5.21,2.99-9.01,2.99c-2.27,0-4.27-0.37-6.02-1.09c-1.75-0.73-3.21-1.77-4.38-3.11
			c-1.17-1.34-2.05-2.95-2.65-4.81C0.3,253.9,0,251.86,0,249.63c0-2.23,0.29-4.31,0.86-6.25c0.58-1.94,1.45-3.63,2.62-5.07
			c1.17-1.44,2.64-2.57,4.4-3.4c1.77-0.83,3.82-1.24,6.16-1.24c1.69,0,3.27,0.2,4.75,0.6c1.48,0.4,2.78,1.03,3.92,1.87
			c1.13,0.84,2.06,1.91,2.79,3.2c0.73,1.29,1.19,2.81,1.38,4.58h-5.07C21.44,242.05,20.63,240.59,19.41,239.55z"/>
		<path class="st0" d="M53.73,262.24c-2.23,1.69-5.03,2.53-8.41,2.53c-2.38,0-4.44-0.38-6.19-1.15c-1.75-0.77-3.22-1.84-4.4-3.23
			c-1.19-1.38-2.08-3.03-2.68-4.95c-0.6-1.92-0.93-4.01-1.01-6.28c0-2.26,0.35-4.34,1.04-6.22c0.69-1.88,1.66-3.51,2.91-4.89
			c1.25-1.38,2.73-2.46,4.43-3.23c1.71-0.77,3.58-1.15,5.61-1.15c2.65,0,4.85,0.55,6.59,1.64c1.75,1.09,3.15,2.49,4.2,4.18
			c1.05,1.69,1.79,3.53,2.19,5.53c0.4,2,0.57,3.9,0.49,5.7H36.22c-0.04,1.31,0.12,2.54,0.46,3.72c0.35,1.17,0.9,2.21,1.67,3.11
			c0.77,0.9,1.75,1.62,2.94,2.16c1.19,0.54,2.59,0.81,4.2,0.81c2.07,0,3.77-0.48,5.1-1.44c1.32-0.96,2.2-2.42,2.62-4.38h4.84
			C57.39,258.04,55.95,260.55,53.73,262.24z M52.55,243.12c-0.44-1.04-1.04-1.93-1.79-2.68c-0.75-0.75-1.63-1.34-2.65-1.79
			c-1.02-0.44-2.14-0.66-3.37-0.66c-1.27,0-2.41,0.22-3.43,0.66c-1.02,0.44-1.89,1.05-2.62,1.81c-0.73,0.77-1.31,1.66-1.73,2.68
			c-0.42,1.02-0.67,2.1-0.75,3.25h17.1C53.25,245.25,52.99,244.16,52.55,243.12z"/>
		<path class="st0" d="M68.12,234.37v6.28h0.11c1.19-2.42,2.65-4.2,4.38-5.36c1.73-1.15,3.92-1.69,6.56-1.61v5.18
			c-1.96,0-3.63,0.27-5.01,0.81c-1.38,0.54-2.5,1.32-3.34,2.36c-0.84,1.04-1.46,2.29-1.84,3.77c-0.38,1.48-0.58,3.18-0.58,5.1v13.24
			h-4.89v-29.77H68.12z"/>
		<path class="st0" d="M95.7,234.37v4.32h-5.93v18.49c0,0.58,0.05,1.04,0.14,1.38c0.1,0.35,0.28,0.62,0.55,0.81
			c0.27,0.19,0.64,0.32,1.12,0.37c0.48,0.06,1.1,0.09,1.87,0.09h2.25v4.32h-3.74c-1.27,0-2.35-0.09-3.25-0.26
			c-0.9-0.17-1.63-0.49-2.19-0.95c-0.56-0.46-0.97-1.11-1.24-1.96c-0.27-0.84-0.4-1.96-0.4-3.34v-18.95h-5.07v-4.32h5.07v-8.93h4.89
			v8.93H95.7z"/>
		<path class="st0" d="M101.52,229.01v-5.99h4.89v5.99H101.52z M106.41,234.37v29.77h-4.89v-29.77H106.41z"/>
		<path class="st0" d="M111.14,238.69v-4.32h5.01v-4.43c0-2.42,0.7-4.25,2.1-5.5c1.4-1.25,3.45-1.87,6.13-1.87
			c0.46,0,0.99,0.04,1.58,0.12c0.6,0.08,1.12,0.19,1.58,0.35v4.26c-0.42-0.15-0.88-0.26-1.38-0.32c-0.5-0.06-0.96-0.09-1.38-0.09
			c-1.19,0-2.11,0.23-2.76,0.69c-0.65,0.46-0.98,1.34-0.98,2.65v4.15h5.76v4.32h-5.76v25.45h-4.89v-25.45H111.14z"/>
		<path class="st0" d="M131.58,229.01v-5.99h4.89v5.99H131.58z M136.47,234.37v29.77h-4.89v-29.77H136.47z"/>
		<path class="st0" d="M165.26,262.24c-2.23,1.69-5.03,2.53-8.41,2.53c-2.38,0-4.44-0.38-6.19-1.15c-1.75-0.77-3.22-1.84-4.4-3.23
			c-1.19-1.38-2.08-3.03-2.68-4.95c-0.6-1.92-0.93-4.01-1.01-6.28c0-2.26,0.35-4.34,1.04-6.22c0.69-1.88,1.66-3.51,2.91-4.89
			c1.25-1.38,2.73-2.46,4.43-3.23c1.71-0.77,3.58-1.15,5.61-1.15c2.65,0,4.85,0.55,6.59,1.64c1.75,1.09,3.15,2.49,4.2,4.18
			c1.05,1.69,1.79,3.53,2.19,5.53c0.4,2,0.57,3.9,0.49,5.7h-22.29c-0.04,1.31,0.12,2.54,0.46,3.72c0.35,1.17,0.9,2.21,1.67,3.11
			c0.77,0.9,1.75,1.62,2.94,2.16c1.19,0.54,2.59,0.81,4.2,0.81c2.07,0,3.77-0.48,5.1-1.44c1.32-0.96,2.2-2.42,2.62-4.38h4.84
			C168.93,258.04,167.49,260.55,165.26,262.24z M164.08,243.12c-0.44-1.04-1.04-1.93-1.79-2.68c-0.75-0.75-1.63-1.34-2.65-1.79
			c-1.02-0.44-2.14-0.66-3.37-0.66c-1.27,0-2.41,0.22-3.43,0.66c-1.02,0.44-1.89,1.05-2.62,1.81c-0.73,0.77-1.31,1.66-1.73,2.68
			c-0.42,1.02-0.67,2.1-0.75,3.25h17.1C164.78,245.25,164.52,244.16,164.08,243.12z"/>
		<path class="st0" d="M196.94,264.14v-4.03h-0.12c-0.81,1.65-2.07,2.84-3.8,3.57c-1.73,0.73-3.63,1.09-5.7,1.09
			c-2.3,0-4.31-0.42-6.02-1.27c-1.71-0.84-3.13-1.98-4.26-3.4c-1.13-1.42-1.99-3.07-2.56-4.95c-0.58-1.88-0.86-3.88-0.86-5.99
			c0-2.11,0.28-4.11,0.83-5.99c0.56-1.88,1.4-3.52,2.53-4.92c1.13-1.4,2.55-2.51,4.26-3.34c1.71-0.83,3.69-1.24,5.96-1.24
			c0.77,0,1.59,0.08,2.48,0.23c0.88,0.15,1.77,0.41,2.65,0.78c0.88,0.37,1.72,0.84,2.5,1.44c0.79,0.6,1.45,1.33,1.99,2.22h0.12
			v-15.32h4.89v41.12H196.94z M179.34,253.57c0.36,1.32,0.92,2.51,1.67,3.54c0.75,1.04,1.71,1.86,2.88,2.48
			c1.17,0.62,2.54,0.92,4.12,0.92c1.65,0,3.05-0.33,4.2-0.98c1.15-0.65,2.09-1.51,2.82-2.56c0.73-1.06,1.26-2.26,1.58-3.6
			c0.33-1.34,0.49-2.71,0.49-4.09c0-1.46-0.17-2.87-0.52-4.23c-0.35-1.36-0.89-2.56-1.64-3.6c-0.75-1.04-1.72-1.87-2.91-2.51
			c-1.19-0.63-2.63-0.95-4.32-0.95c-1.65,0-3.05,0.33-4.2,0.98c-1.15,0.65-2.07,1.52-2.76,2.59c-0.69,1.07-1.19,2.3-1.5,3.69
			c-0.31,1.38-0.46,2.8-0.46,4.26C178.8,250.9,178.98,252.25,179.34,253.57z"/>
		<path class="st0" d="M233.79,264.14l-11.06-29.77h5.47l8.35,24.82h0.12l8.12-24.82h5.12l-10.88,29.77H233.79z"/>
		<path class="st0" d="M280.89,264.02c-0.84,0.5-2.02,0.75-3.51,0.75c-1.27,0-2.27-0.35-3.02-1.07c-0.75-0.71-1.12-1.87-1.12-3.48
			c-1.34,1.61-2.91,2.77-4.69,3.48c-1.79,0.71-3.71,1.07-5.79,1.07c-1.34,0-2.62-0.15-3.83-0.46c-1.21-0.31-2.26-0.79-3.14-1.44
			c-0.88-0.65-1.58-1.51-2.1-2.56c-0.52-1.06-0.78-2.33-0.78-3.83c0-1.69,0.29-3.07,0.86-4.15c0.58-1.07,1.33-1.95,2.27-2.62
			c0.94-0.67,2.02-1.18,3.23-1.53c1.21-0.35,2.45-0.63,3.71-0.86c1.34-0.27,2.62-0.47,3.83-0.61c1.21-0.13,2.27-0.32,3.2-0.57
			c0.92-0.25,1.65-0.61,2.19-1.09c0.54-0.48,0.81-1.18,0.81-2.1c0-1.07-0.2-1.94-0.6-2.59c-0.4-0.65-0.92-1.15-1.55-1.5
			c-0.63-0.35-1.34-0.58-2.13-0.69c-0.79-0.12-1.56-0.17-2.33-0.17c-2.07,0-3.8,0.39-5.18,1.18s-2.13,2.27-2.25,4.46h-4.89
			c0.08-1.84,0.46-3.4,1.15-4.67c0.69-1.27,1.61-2.29,2.76-3.08c1.15-0.79,2.47-1.35,3.95-1.7c1.48-0.35,3.06-0.52,4.75-0.52
			c1.34,0,2.68,0.1,4,0.29c1.32,0.19,2.52,0.58,3.6,1.18c1.07,0.59,1.94,1.43,2.59,2.5c0.65,1.07,0.98,2.47,0.98,4.19v15.29
			c0,1.15,0.07,1.99,0.2,2.53c0.13,0.54,0.58,0.8,1.35,0.8c0.42,0,0.92-0.08,1.5-0.23V264.02z M272.95,248.76
			c-0.61,0.46-1.42,0.79-2.42,1c-1,0.21-2.04,0.38-3.14,0.52c-1.09,0.13-2.2,0.29-3.31,0.46c-1.11,0.17-2.11,0.45-2.99,0.83
			c-0.88,0.38-1.6,0.93-2.16,1.63c-0.56,0.71-0.83,1.67-0.83,2.89c0,0.8,0.16,1.48,0.49,2.03c0.33,0.55,0.75,1,1.27,1.35
			s1.12,0.59,1.81,0.74c0.69,0.15,1.42,0.23,2.19,0.23c1.61,0,2.99-0.22,4.15-0.66c1.15-0.44,2.09-0.99,2.82-1.66
			c0.73-0.67,1.27-1.39,1.61-2.18c0.35-0.78,0.52-1.52,0.52-2.21V248.76z"/>
		<path class="st0" d="M290.74,223.02v41.12h-4.89v-41.12H290.74z"/>
		<path class="st0" d="M318.49,264.14v-4.72h-0.11c-1.04,1.84-2.36,3.2-3.97,4.06c-1.61,0.86-3.51,1.29-5.7,1.29
			c-1.96,0-3.59-0.26-4.89-0.78c-1.31-0.52-2.36-1.26-3.17-2.22c-0.81-0.96-1.37-2.1-1.7-3.43c-0.33-1.32-0.49-2.79-0.49-4.41
			v-19.58h4.89v20.15c0,1.84,0.54,3.3,1.61,4.38c1.07,1.07,2.55,1.61,4.43,1.61c1.5,0,2.79-0.23,3.89-0.69
			c1.09-0.46,2.01-1.11,2.74-1.96c0.73-0.84,1.28-1.83,1.64-2.97c0.36-1.13,0.55-2.37,0.55-3.71v-16.82h4.89v29.77H318.49z"/>
		<path class="st0" d="M356.96,264.02c-0.84,0.5-2.02,0.75-3.51,0.75c-1.27,0-2.27-0.35-3.02-1.07c-0.75-0.71-1.12-1.87-1.12-3.48
			c-1.34,1.61-2.91,2.77-4.69,3.48c-1.79,0.71-3.72,1.07-5.79,1.07c-1.34,0-2.62-0.15-3.83-0.46c-1.21-0.31-2.26-0.79-3.14-1.44
			c-0.88-0.65-1.58-1.51-2.1-2.56c-0.52-1.06-0.78-2.33-0.78-3.83c0-1.69,0.29-3.07,0.86-4.15c0.58-1.07,1.33-1.95,2.27-2.62
			s2.02-1.18,3.23-1.53c1.21-0.35,2.45-0.63,3.71-0.86c1.34-0.27,2.62-0.47,3.83-0.61c1.21-0.13,2.27-0.32,3.2-0.57
			c0.92-0.25,1.65-0.61,2.19-1.09c0.54-0.48,0.81-1.18,0.81-2.1c0-1.07-0.2-1.94-0.6-2.59c-0.4-0.65-0.92-1.15-1.56-1.5
			c-0.63-0.35-1.34-0.58-2.13-0.69c-0.79-0.12-1.56-0.17-2.33-0.17c-2.07,0-3.8,0.39-5.18,1.18c-1.38,0.79-2.13,2.27-2.25,4.46
			h-4.89c0.08-1.84,0.46-3.4,1.15-4.67c0.69-1.27,1.61-2.29,2.76-3.08c1.15-0.79,2.47-1.35,3.95-1.7c1.48-0.35,3.06-0.52,4.75-0.52
			c1.34,0,2.68,0.1,4,0.29c1.32,0.19,2.52,0.58,3.6,1.18c1.07,0.59,1.94,1.43,2.59,2.5c0.65,1.07,0.98,2.47,0.98,4.19v15.29
			c0,1.15,0.07,1.99,0.2,2.53c0.13,0.54,0.58,0.8,1.35,0.8c0.42,0,0.92-0.08,1.5-0.23V264.02z M349.01,248.76
			c-0.61,0.46-1.42,0.79-2.42,1c-1,0.21-2.04,0.38-3.14,0.52c-1.09,0.13-2.2,0.29-3.31,0.46c-1.11,0.17-2.11,0.45-2.99,0.83
			c-0.88,0.38-1.6,0.93-2.16,1.63c-0.56,0.71-0.83,1.67-0.83,2.89c0,0.8,0.16,1.48,0.49,2.03c0.33,0.55,0.75,1,1.27,1.35
			c0.52,0.34,1.12,0.59,1.81,0.74c0.69,0.15,1.42,0.23,2.19,0.23c1.61,0,2.99-0.22,4.15-0.66c1.15-0.44,2.09-0.99,2.82-1.66
			c0.73-0.67,1.27-1.39,1.61-2.18c0.35-0.78,0.52-1.52,0.52-2.21V248.76z"/>
		<path class="st0" d="M374.35,234.37v4.32h-5.93v18.49c0,0.58,0.05,1.04,0.14,1.38c0.1,0.35,0.28,0.62,0.55,0.81
			c0.27,0.19,0.64,0.32,1.12,0.37c0.48,0.06,1.1,0.09,1.87,0.09h2.25v4.32h-3.74c-1.27,0-2.35-0.09-3.25-0.26
			c-0.9-0.17-1.63-0.49-2.19-0.95c-0.56-0.46-0.97-1.11-1.24-1.96s-0.4-1.96-0.4-3.34v-18.95h-5.07v-4.32h5.07v-8.93h4.89v8.93
			H374.35z"/>
		<path class="st0" d="M380.17,229.01v-5.99h4.89v5.99H380.17z M385.06,234.37v29.77h-4.89v-29.77H385.06z"/>
		<path class="st0" d="M392.09,243.15c0.61-1.9,1.54-3.55,2.76-4.95c1.23-1.4,2.74-2.51,4.55-3.31c1.8-0.81,3.88-1.21,6.22-1.21
			c2.38,0,4.46,0.4,6.25,1.21c1.79,0.81,3.29,1.91,4.52,3.31c1.23,1.4,2.15,3.05,2.76,4.95c0.61,1.9,0.92,3.95,0.92,6.13
			c0,2.19-0.31,4.22-0.92,6.1c-0.62,1.88-1.54,3.52-2.76,4.92c-1.23,1.4-2.73,2.5-4.52,3.28c-1.79,0.79-3.87,1.18-6.25,1.18
			c-2.34,0-4.42-0.39-6.22-1.18c-1.81-0.79-3.32-1.88-4.55-3.28c-1.23-1.4-2.15-3.04-2.76-4.92c-0.61-1.88-0.92-3.92-0.92-6.1
			C391.17,247.1,391.47,245.05,392.09,243.15z M397.07,254.09c0.48,1.4,1.14,2.57,1.99,3.51c0.84,0.94,1.83,1.66,2.97,2.16
			c1.13,0.5,2.33,0.75,3.6,0.75c1.27,0,2.47-0.25,3.6-0.75c1.13-0.5,2.12-1.22,2.97-2.16c0.84-0.94,1.51-2.11,1.99-3.51
			c0.48-1.4,0.72-3,0.72-4.81c0-1.8-0.24-3.41-0.72-4.81c-0.48-1.4-1.14-2.58-1.99-3.54c-0.84-0.96-1.83-1.69-2.97-2.19
			c-1.13-0.5-2.33-0.75-3.6-0.75c-1.27,0-2.47,0.25-3.6,0.75c-1.13,0.5-2.12,1.23-2.97,2.19c-0.84,0.96-1.51,2.14-1.99,3.54
			c-0.48,1.4-0.72,3-0.72,4.81C396.35,251.09,396.59,252.69,397.07,254.09z"/>
		<path class="st0" d="M430.55,234.37v4.72h0.12c2.03-3.61,5.26-5.41,9.67-5.41c1.96,0,3.59,0.27,4.89,0.81
			c1.3,0.54,2.36,1.29,3.17,2.25c0.81,0.96,1.37,2.1,1.7,3.43c0.33,1.32,0.49,2.79,0.49,4.41v19.58h-4.89v-20.15
			c0-1.84-0.54-3.3-1.61-4.38c-1.07-1.07-2.55-1.61-4.43-1.61c-1.5,0-2.79,0.23-3.89,0.69c-1.09,0.46-2.01,1.11-2.73,1.96
			c-0.73,0.84-1.28,1.83-1.64,2.97c-0.37,1.13-0.55,2.37-0.55,3.72v16.81h-4.89v-29.77H430.55z"/>
		<path class="st0" d="M495.28,262.24c-2.23,1.69-5.03,2.53-8.41,2.53c-2.38,0-4.44-0.38-6.19-1.15c-1.75-0.77-3.22-1.84-4.41-3.23
			c-1.19-1.38-2.08-3.03-2.68-4.95c-0.6-1.92-0.93-4.01-1.01-6.28c0-2.26,0.35-4.34,1.04-6.22c0.69-1.88,1.66-3.51,2.91-4.89
			c1.25-1.38,2.73-2.46,4.43-3.23c1.71-0.77,3.58-1.15,5.61-1.15c2.65,0,4.85,0.55,6.59,1.64c1.75,1.09,3.15,2.49,4.2,4.18
			c1.06,1.69,1.79,3.53,2.19,5.53c0.4,2,0.57,3.9,0.49,5.7h-22.28c-0.04,1.31,0.12,2.54,0.46,3.72c0.35,1.17,0.9,2.21,1.67,3.11
			c0.77,0.9,1.75,1.62,2.94,2.16c1.19,0.54,2.59,0.81,4.2,0.81c2.07,0,3.77-0.48,5.1-1.44c1.32-0.96,2.2-2.42,2.62-4.38h4.84
			C498.94,258.04,497.5,260.55,495.28,262.24z M494.1,243.12c-0.44-1.04-1.04-1.93-1.79-2.68c-0.75-0.75-1.63-1.34-2.65-1.79
			c-1.02-0.44-2.14-0.66-3.37-0.66c-1.27,0-2.41,0.22-3.43,0.66c-1.02,0.44-1.89,1.05-2.62,1.81c-0.73,0.77-1.31,1.66-1.73,2.68
			c-0.42,1.02-0.67,2.1-0.75,3.25h17.1C494.8,245.25,494.54,244.16,494.1,243.12z"/>
		<path class="st0" d="M502.88,234.37h6.28l7.14,10.42l7.43-10.42h5.87l-10.25,13.71l11.52,16.07h-6.28l-8.29-12.32L508,264.14
			h-5.93l11.17-15.66L502.88,234.37z"/>
		<path class="st0" d="M540.25,234.37v4.03h0.12c0.81-1.65,2.07-2.85,3.8-3.6c1.73-0.75,3.63-1.12,5.7-1.12
			c2.3,0,4.31,0.42,6.02,1.27c1.71,0.84,3.13,1.99,4.26,3.43c1.13,1.44,1.99,3.1,2.56,4.98c0.58,1.88,0.86,3.88,0.86,5.99
			c0,2.11-0.28,4.11-0.83,5.99c-0.56,1.88-1.4,3.52-2.53,4.92c-1.13,1.4-2.55,2.51-4.26,3.31c-1.71,0.81-3.7,1.21-5.96,1.21
			c-0.73,0-1.55-0.08-2.45-0.23c-0.9-0.15-1.79-0.4-2.68-0.75c-0.88-0.35-1.72-0.82-2.51-1.41c-0.79-0.6-1.45-1.33-1.99-2.22h-0.12
			v15.32h-4.89v-41.12H540.25z M557.84,244.94c-0.37-1.32-0.92-2.51-1.67-3.54c-0.75-1.04-1.71-1.86-2.88-2.48
			c-1.17-0.61-2.54-0.92-4.12-0.92c-1.65,0-3.05,0.33-4.2,0.98c-1.15,0.65-2.09,1.51-2.82,2.56c-0.73,1.06-1.26,2.26-1.58,3.6
			c-0.33,1.34-0.49,2.71-0.49,4.09c0,1.46,0.17,2.87,0.52,4.23c0.35,1.36,0.89,2.56,1.64,3.6c0.75,1.04,1.72,1.87,2.91,2.51
			c1.19,0.63,2.63,0.95,4.32,0.95c1.69,0,3.1-0.33,4.23-0.98c1.13-0.65,2.04-1.52,2.73-2.59c0.69-1.07,1.19-2.3,1.5-3.68
			c0.31-1.38,0.46-2.8,0.46-4.26C558.39,247.61,558.21,246.26,557.84,244.94z"/>
		<path class="st0" d="M590.52,262.24c-2.23,1.69-5.03,2.53-8.41,2.53c-2.38,0-4.44-0.38-6.19-1.15c-1.75-0.77-3.22-1.84-4.41-3.23
			c-1.19-1.38-2.08-3.03-2.68-4.95c-0.6-1.92-0.93-4.01-1.01-6.28c0-2.26,0.35-4.34,1.04-6.22c0.69-1.88,1.66-3.51,2.91-4.89
			c1.25-1.38,2.73-2.46,4.43-3.23c1.71-0.77,3.58-1.15,5.61-1.15c2.65,0,4.85,0.55,6.59,1.64c1.75,1.09,3.15,2.49,4.2,4.18
			c1.06,1.69,1.79,3.53,2.19,5.53c0.4,2,0.57,3.9,0.49,5.7h-22.28c-0.04,1.31,0.12,2.54,0.46,3.72c0.35,1.17,0.9,2.21,1.67,3.11
			c0.77,0.9,1.75,1.62,2.94,2.16c1.19,0.54,2.59,0.81,4.2,0.81c2.07,0,3.77-0.48,5.1-1.44c1.32-0.96,2.2-2.42,2.62-4.38h4.84
			C594.19,258.04,592.75,260.55,590.52,262.24z M589.34,243.12c-0.44-1.04-1.04-1.93-1.79-2.68c-0.75-0.75-1.63-1.34-2.65-1.79
			c-1.02-0.44-2.14-0.66-3.37-0.66c-1.27,0-2.41,0.22-3.43,0.66c-1.02,0.44-1.89,1.05-2.62,1.81c-0.73,0.77-1.31,1.66-1.73,2.68
			c-0.42,1.02-0.67,2.1-0.75,3.25h17.1C590.04,245.25,589.78,244.16,589.34,243.12z"/>
		<path class="st0" d="M604.92,234.37v6.28h0.12c1.19-2.42,2.65-4.2,4.38-5.36c1.73-1.15,3.92-1.69,6.56-1.61v5.18
			c-1.96,0-3.63,0.27-5.01,0.81c-1.38,0.54-2.5,1.32-3.34,2.36c-0.84,1.04-1.46,2.29-1.84,3.77c-0.38,1.48-0.58,3.18-0.58,5.1v13.24
			h-4.89v-29.77H604.92z"/>
		<path class="st0" d="M632.5,234.37v4.32h-5.93v18.49c0,0.58,0.05,1.04,0.14,1.38c0.1,0.35,0.28,0.62,0.55,0.81
			c0.27,0.19,0.64,0.32,1.12,0.37c0.48,0.06,1.1,0.09,1.87,0.09h2.25v4.32h-3.74c-1.27,0-2.35-0.09-3.25-0.26
			c-0.9-0.17-1.63-0.49-2.19-0.95c-0.56-0.46-0.97-1.11-1.24-1.96c-0.27-0.84-0.4-1.96-0.4-3.34v-18.95h-5.07v-4.32h5.07v-8.93h4.89
			v8.93H632.5z"/>
		<path class="st0" d="M641.77,257.49c0.46,0.75,1.07,1.34,1.81,1.79c0.75,0.44,1.59,0.76,2.53,0.95c0.94,0.19,1.91,0.29,2.91,0.29
			c0.77,0,1.57-0.06,2.42-0.17c0.84-0.11,1.62-0.32,2.33-0.63c0.71-0.31,1.3-0.76,1.76-1.35c0.46-0.6,0.69-1.35,0.69-2.27
			c0-1.27-0.48-2.23-1.44-2.88c-0.96-0.65-2.16-1.18-3.6-1.58c-1.44-0.4-3-0.77-4.69-1.09c-1.69-0.33-3.25-0.79-4.69-1.38
			c-1.44-0.6-2.64-1.43-3.6-2.51c-0.96-1.07-1.44-2.57-1.44-4.49c0-1.5,0.34-2.78,1.01-3.86c0.67-1.07,1.54-1.95,2.59-2.62
			c1.05-0.67,2.25-1.17,3.57-1.5c1.32-0.33,2.64-0.49,3.94-0.49c1.69,0,3.24,0.14,4.67,0.43c1.42,0.29,2.68,0.79,3.77,1.5
			c1.09,0.71,1.97,1.67,2.62,2.88c0.65,1.21,1.04,2.72,1.15,4.52h-4.89c-0.08-0.96-0.33-1.76-0.75-2.39
			c-0.42-0.63-0.96-1.14-1.61-1.53c-0.65-0.38-1.37-0.66-2.16-0.84c-0.79-0.17-1.58-0.26-2.39-0.26c-0.73,0-1.47,0.06-2.22,0.17
			c-0.75,0.11-1.43,0.32-2.04,0.6s-1.11,0.67-1.5,1.15c-0.38,0.48-0.58,1.1-0.58,1.87c0,0.84,0.3,1.55,0.89,2.1
			c0.6,0.56,1.35,1.02,2.28,1.38c0.92,0.37,1.96,0.67,3.11,0.92c1.15,0.25,2.3,0.51,3.45,0.78c1.23,0.27,2.43,0.6,3.6,0.98
			c1.17,0.38,2.21,0.89,3.11,1.53c0.9,0.63,1.63,1.43,2.19,2.39c0.56,0.96,0.84,2.15,0.84,3.57c0,1.81-0.37,3.3-1.12,4.49
			c-0.75,1.19-1.73,2.15-2.94,2.88c-1.21,0.73-2.57,1.24-4.09,1.53c-1.52,0.29-3.02,0.43-4.52,0.43c-1.65,0-3.23-0.17-4.72-0.52
			c-1.5-0.35-2.82-0.91-3.97-1.7c-1.15-0.79-2.07-1.82-2.76-3.11c-0.69-1.29-1.08-2.85-1.15-4.69h4.89
			C641.06,255.83,641.31,256.74,641.77,257.49z"/>
	</g>
	<g>
		<path class="st0" d="M335.27,131.87c10.68-35.59,21.1-70.54,31.72-105.43c1.22-4,1.59-6.69-3.64-6.77
			c-4.84-0.07-6.04-2.93-5.71-7.14c0.13-1.61,0.16-3.26-0.01-4.87c-0.49-4.66,1.27-6.24,6.14-6.07c11.15,0.39,22.33,0.3,33.49,0.03
			c3.89-0.09,5.61,1.06,5.45,4.96c-0.08,2.02-0.06,4.05,0.04,6.08c0.21,4.27-1.33,7.08-6.02,6.91c-5.5-0.2-6.86,3.36-8.18,7.77
			c-12.37,41.58-25.83,82.81-39.7,123.92c-1.71,4.11-1.6,4.88-2.92,5.33c-7.31,2.44-20.72,1.22-23.15,0
			c-1.54-0.77-5.3-12.37-7.31-18.28c-12.62-37.03-23.73-74.42-34.97-111.89c-1.17-3.91-2.44-6.7-7.06-6.66
			c-5.36,0.05-7.46-2.82-6.79-8.04c0.21-1.6,0.2-3.25,0.07-4.86c-0.3-3.76,0.89-5.33,5.09-5.24c12.38,0.29,24.76,0.24,37.14,0.02
			c3.75-0.07,5.18,1.23,5.01,4.82c-0.1,2.02-0.09,4.07,0.06,6.08c0.32,4.33-1.22,7.04-5.91,7.12c-5.13,0.09-5.01,2.54-3.76,6.69
			c9.27,30.66,18.31,61.38,27.39,92.1C332.99,122.69,334,127.01,335.27,131.87z"/>
		<path class="st1" d="M427.63,155.38c-9.74,0-19.49,0.2-29.23,0.09c-9.81-0.12-15.91-7.43-12.25-14.74
			c12.45-24.9,9.54-19.79,15.87-33.07c15.45-32.4,31.65-64.4,49.05-95.8c1.64-2.95,3.37-3.11,6.24-2.84
			c15.84,1.49,15.95,1.55,9,15.31c-17.76,35.12-35.55,70.23-53.31,105.35c-3.08,6.09-3.04,6.14,3.67,6.15
			c13.6,0.02,27.21-0.13,40.8,0.09c4.21,0.07,5.68-1.18,5.58-5.5c-0.25-11.57,0.19-23.15-0.22-34.71c-0.17-4.75,1.64-6.63,5.9-7.07
			c1.01-0.1,2.01-0.22,3.02-0.27c12.07-0.55,13.11,0.43,13.11,12.13c0,10.15,0.12,20.3-0.06,30.45c-0.07,3.67,1.11,5.04,4.87,4.94
			c8.11-0.22,16.24,0.07,24.36-0.13c3.58-0.09,4.81,0.99,5.09,4.76c1.11,14.86,1.27,14.84-13.66,14.84
			c-5.28,0-10.57,0.19-15.83-0.06c-3.82-0.18-4.88,1.36-4.83,4.98c0.16,11.98-0.17,23.96,0.18,35.93c0.13,4.65-2.06,6.08-5.9,6.53
			c-1,0.12-2.03,0.07-3.04,0.09c-12.81,0.2-13.07-0.06-13.07-12.8c0-9.95-0.13-19.9,0.07-29.84c0.07-3.75-1.27-4.95-4.95-4.88
			C447.93,155.51,437.78,155.38,427.63,155.38z"/>
		<path class="st0" d="M231.81,75.07c2.33-1.55,3.98-2.62,5.6-3.73c7.09-4.86,12.2-11.23,14.73-19.52
			c7.5-24.59-5.76-45.96-31.94-49.86c-24.61-3.67-49.4-1.23-74.12-0.39c-1.88,0.06-2.83,0.7-3.32,2.68
			c-2.55,10.38-0.03,14.33,10.25,15.7c0.2,0.03,0.41,0,0.61,0.06c4.65,1.3,5.66,1.82,5.64,6.22c-0.18,34.3-0.26,68.6,0.05,102.89
			c0.05,5.99-1.41,8.48-7.59,9.04c-9.34,0.84-9.46,1.77-9.29,11.1c0.02,1.22,0,2.44,0,3.66c0,2.44,1.44,3.42,4.3,3.42
			c23.11-0.01,46.21,2.53,69.33,0.28c23.6-2.3,37.78-14.37,41.41-35.08C261.19,100.22,253.5,85.91,231.81,75.07z M184.94,18.65
			c3.84-0.24,23.34-0.54,29.11,1.08c11.63,3.26,16.71,10.81,16.34,24.38c-0.35,12.71-6.78,21.27-17.94,23.53
			c-9.44,1.92-19.03,0.62-28.55,0.97c-2.65,0.1-2.85-1.56-2.85-3.56c0.02-14.21,0.08-28.43-0.04-42.64
			C180.98,19.39,181.42,18.87,184.94,18.65z M216.19,138c-10.62,2.47-21.39,1.31-32.13,0.82c-2.98-0.14-3.03-1.94-3.02-4.11
			c0.04-7.51,0.01-15.02,0.01-22.53c0-7.51,0.04-15.02-0.02-22.53c-0.02-2.32,0.3-3.76,3.24-3.76c11.76,0,20.71-0.96,30.96,1.14
			c12.66,2.61,19.41,10.95,19.65,24.1C235.16,125.83,228.89,135.04,216.19,138z"/>
	</g>
</g>
</svg>
