<?xml version="1.0" standalone="no"?><!DOCTYPE svg PUBLIC "-//W3C//DTD SVG 1.1//EN" "http://www.w3.org/Graphics/SVG/1.1/DTD/svg11.dtd"><svg width="100%" height="100%" viewBox="0 0 248 236" version="1.1" xmlns="http://www.w3.org/2000/svg" xmlns:xlink="http://www.w3.org/1999/xlink" xml:space="preserve" style="fill-rule:evenodd;clip-rule:evenodd;stroke-linejoin:round;stroke-miterlimit:1.41421;"><g><path d="M94.327,100.795l-32.73,-18.897l-32.517,18.897l32.731,18.896l32.516,-18.896Z" style="fill:#0877b5;fill-rule:nonzero;"/><path d="M224.682,100.771l-32.729,-18.896l-32.517,18.896l32.73,18.897l32.516,-18.897Z" style="fill:#0877b5;fill-rule:nonzero;"/><path d="M94.439,138.549l32.73,18.896l32.516,-18.896l-32.729,-18.897l-32.517,18.897Z" style="fill:#0877b5;fill-rule:nonzero;"/><path d="M94.216,213.756l32.517,-18.897l0.107,-37.608l-32.517,18.896l-0.107,37.609Z" style="fill:#a9bfd8;fill-rule:nonzero;"/><path d="M159.465,100.752l32.517,-18.897l0.107,-37.608l-32.517,18.896l-0.107,37.609Z" style="fill:#a9bfd8;fill-rule:nonzero;"/><path d="M127.055,82.051l-32.517,18.897l-0.107,37.608l32.518,-18.896l0.106,-37.609Z" style="fill:#a9bfd8;fill-rule:nonzero;"/><path d="M126.733,194.864l32.73,18.897l0.107,-37.609l-32.73,-18.896l-0.107,37.608Z" style="fill:#004261;fill-rule:nonzero;"/><path d="M61.491,81.87l32.729,18.896l0.106,-37.609l-32.729,-18.896l-0.106,37.609Z" style="fill:#004261;fill-rule:nonzero;"/><path d="M159.785,100.946l-32.73,-18.896l-0.107,37.608l32.731,18.897l0.106,-37.609Z" style="fill:#004261;fill-rule:nonzero;"/><path d="M159.565,63.152l32.517,-18.896l-32.72,-18.892l-32.517,18.898l-32.73,-18.898l-32.518,18.898l32.73,18.896l-32.517,18.897l32.721,18.891l32.517,-18.896l32.729,18.896l32.518,-18.897l-32.73,-18.897Z" style="fill:#0982c6;fill-rule:nonzero;"/><path d="M94.431,138.549l0.107,-37.61l-32.72,-18.89l-0.107,37.608l-32.73,-18.896l-0.107,37.609l32.73,18.896l-0.106,37.609l32.72,18.891l0.107,-37.608l32.73,18.897l0.106,-37.61l-32.73,-18.896Z" style="fill:#004b6d;fill-rule:nonzero;"/><path d="M192.186,119.655l0.107,-37.608l-32.508,18.891l-0.106,37.609l-32.518,18.896l-0.106,37.61l32.517,-18.897l-0.107,37.608l32.508,-18.891l0.106,-37.609l32.518,-18.896l0.106,-37.609l-32.517,18.896Z" style="fill:#bad1ed;fill-rule:nonzero;"/></g></svg>