<?xml version="1.0" encoding="utf-8"?>
<!-- Generator: Adobe Illustrator 22.1.0, SVG Export Plug-In . SVG Version: 6.00 Build 0)  -->
<svg version="1.1" id="Layer_1" xmlns="http://www.w3.org/2000/svg" xmlns:xlink="http://www.w3.org/1999/xlink" x="0px" y="0px"
	 viewBox="0 0 166.9 149.9" style="enable-background:new 0 0 166.9 149.9;" xml:space="preserve" heigth="100px">
<style type="text/css">
	.st0{opacity:0.68;fill:#E5E1D6;}
	.st1{fill:#FFFFFF;}
	.st2{opacity:0.66;fill:#FF0000;}
	.st3{opacity:0.66;fill:#FFFF00;}
	.st4{opacity:0.66;fill:#00FF00;}
	.st5{fill:#E6E6E6;}
	.st6{fill:#6D6D6D;}
	.st7{fill:#CCCCCC;}
	.st8{fill:#00486B;}
	.st9{opacity:7.000000e-02;fill:#00486B;}
	.st10{opacity:0.95;fill:#00486B;}
	.st11{opacity:0.28;fill:#E6E6E6;}
	.st12{fill:#834949;}
	.st13{fill:#CCC6C4;}
	.st14{opacity:0.99;}
	.st15{fill:none;stroke:#999999;stroke-width:2;stroke-linecap:round;stroke-linejoin:round;stroke-miterlimit:10;}
	.st16{opacity:0.8;fill:#6D6D6D;}
	.st17{fill:#E5E1D6;}
	.st18{fill:#A6A39E;}
	.st19{fill:#F6CA56;}
	.st20{fill:#F8C18A;}
	.st21{opacity:0.89;fill:#F2F2F2;}
	.st22{fill:#F2F2F2;}
	.st23{opacity:0.46;fill:#3C3C3B;}
	.st24{opacity:0.71;fill:#007EC3;}
	.st25{opacity:7.000000e-02;}
	.st26{fill:url(#SVGID_1_);}
	.st27{fill:url(#SVGID_2_);}
	.st28{fill:url(#SVGID_3_);}
	.st29{fill:url(#SVGID_4_);}
	.st30{fill:url(#SVGID_5_);}
	.st31{opacity:0.55;fill:#808088;}
	.st32{opacity:0.7;fill:#E5E1D6;}
	.st33{fill:none;stroke:#F2F2F2;stroke-width:2;stroke-linecap:round;stroke-linejoin:round;stroke-miterlimit:10;}
	.st34{opacity:0.39;fill:#808088;}
	.st35{opacity:0.84;fill:#FFFFFF;}
</style>
<g>
	<path class="st17" d="M153,3.9c0,0-0.3-0.2-0.3-0.2c-2.6-0.7-17.2-4.4-31.1-1.8c-9.2,1.7-18.3,6.4-23.9,10.5
		C94,15.1,92,18.1,92,18.1S50.5,70.2,50.5,70.2c-1.7-0.9-7.9-2.8-16,0.3C23.6,74.6,11.1,90,11.1,90s-3.9,5.9,2.7,2.1
		c3.4-2,7.1-6.4,15.8-7.6c4.8-0.7,7-0.6,8.2-0.2c-0.4,1-0.9,2.2-1.2,3.3c0,0-0.2,0.6-0.2,0.8c-0.5,2.1-0.8,4.3-0.8,6.6
		c0,15.6,12.7,28.3,28.3,28.3c3.9,0,7.6-0.8,11-2.2c0.4,1.3,0.7,3.6,0.1,8.1c-1,8.7-3.8,10-7,16.1c-3.2,6.1,2.2,2.7,2.2,2.7
		s15-13,18.7-24c2.7-7.9,0.9-13.3-0.1-15.7c0.1-0.2,51.6-41.9,51.6-41.9s3-2,5.7-5.8c4.1-5.6,8.7-14.8,10.3-23.9
		C159,22.6,153.9,6.5,153,3.9z"/>
	<g>
		<path class="st23" d="M35.9,98c-0.7,1-1.2,1.9-1.8,3c-3,4.9-0.2,13.2,6.6,19.4c6.8,6.2,15.4,8.2,20,4.8c0.8-0.5,1.5-1.3,2.3-1.9
			C48.7,122.7,37,111.2,35.9,98z"/>
	</g>
	<g>
		<path class="st19" d="M10.1,134.6L10.1,134.6c-0.5-0.5-0.5-1.3,0.1-1.8l18.6-16c0.6-0.5,1.4-0.4,1.9,0.1h0
			c0.5,0.5,0.5,1.3-0.1,1.8l-18.6,16C11.5,135.2,10.6,135.1,10.1,134.6z"/>
		<path class="st19" d="M26.7,112.1L12.8,124c-0.6,0.5-1.4,0.4-1.9-0.1h0c-0.5-0.5-0.5-1.3,0.1-1.8l13.9-11.9
			c0.6-0.5,1.4-0.4,1.9,0.1h0C27.3,110.9,27.2,111.7,26.7,112.1z"/>
		<path class="st19" d="M20.2,144.6L20.2,144.6c0.5,0.5,1.4,0.5,1.9,0.1l18.5-16.1c0.6-0.5,0.6-1.3,0.1-1.8h0
			c-0.5-0.5-1.4-0.5-1.9-0.1l-18.5,16.1C19.7,143.2,19.6,144,20.2,144.6z"/>
		<path class="st19" d="M9.2,144.3L9.2,144.3c0.5,0.5,1.4,0.5,1.9,0.1l23.2-20.2c0.6-0.5,0.6-1.3,0.1-1.8h0
			c-0.5-0.5-1.4-0.5-1.9-0.1L9.2,142.5C8.7,142.9,8.6,143.7,9.2,144.3z"/>
		<path class="st19" d="M45.5,130.8l-13.8,12c-0.6,0.5-0.6,1.3-0.1,1.8h0c0.5,0.5,1.4,0.5,1.9,0.1l13.8-12c0.6-0.5,0.6-1.3,0.1-1.8
			l0,0C47,130.3,46.1,130.3,45.5,130.8z"/>
	</g>
	<g class="st25">
		
			<linearGradient id="SVGID_1_" gradientUnits="userSpaceOnUse" x1="3.164" y1="132.5019" x2="26.2443" y2="119.1764" gradientTransform="matrix(0.9993 3.657287e-02 -3.657287e-02 0.9993 10.3296 -0.5359)">
			<stop  offset="0" style="stop-color:#FFFFFF;stop-opacity:0.1"/>
			<stop  offset="0.2756" style="stop-color:#C0BFBF;stop-opacity:0.1222"/>
			<stop  offset="0.7376" style="stop-color:#5A5757;stop-opacity:0.1595"/>
			<stop  offset="0.8621" style="stop-color:#2D2C2C;stop-opacity:0.1787"/>
			<stop  offset="1" style="stop-color:#000000;stop-opacity:0.2"/>
		</linearGradient>
		<path class="st26" d="M10.1,134.6L10.1,134.6c-0.5-0.5-0.5-1.3,0.1-1.8l18.6-16c0.6-0.5,1.4-0.4,1.9,0.1h0
			c0.5,0.5,0.5,1.3-0.1,1.8l-18.6,16C11.5,135.2,10.6,135.1,10.1,134.6z"/>
		
			<linearGradient id="SVGID_2_" gradientUnits="userSpaceOnUse" x1="3.8969" y1="122.442" x2="21.6698" y2="112.1808" gradientTransform="matrix(0.9993 3.657287e-02 -3.657287e-02 0.9993 10.3296 -0.5359)">
			<stop  offset="0" style="stop-color:#FFFFFF;stop-opacity:0.1"/>
			<stop  offset="0.2756" style="stop-color:#C0BFBF;stop-opacity:0.1222"/>
			<stop  offset="0.7376" style="stop-color:#5A5757;stop-opacity:0.1595"/>
			<stop  offset="0.8621" style="stop-color:#2D2C2C;stop-opacity:0.1787"/>
			<stop  offset="1" style="stop-color:#000000;stop-opacity:0.2"/>
		</linearGradient>
		<path class="st27" d="M26.7,112.1L12.8,124c-0.6,0.5-1.4,0.4-1.9-0.1h0c-0.5-0.5-0.5-1.3,0.1-1.8l13.9-11.9
			c0.6-0.5,1.4-0.4,1.9,0.1h0C27.3,110.9,27.2,111.7,26.7,112.1z"/>
		
			<linearGradient id="SVGID_3_" gradientUnits="userSpaceOnUse" x1="13.5247" y1="141.9896" x2="36.5617" y2="128.6893" gradientTransform="matrix(0.9993 3.657287e-02 -3.657287e-02 0.9993 10.3296 -0.5359)">
			<stop  offset="0" style="stop-color:#FFFFFF;stop-opacity:0.1"/>
			<stop  offset="0.2756" style="stop-color:#C0BFBF;stop-opacity:0.1222"/>
			<stop  offset="0.7376" style="stop-color:#5A5757;stop-opacity:0.1595"/>
			<stop  offset="0.8621" style="stop-color:#2D2C2C;stop-opacity:0.1787"/>
			<stop  offset="1" style="stop-color:#000000;stop-opacity:0.2"/>
		</linearGradient>
		<path class="st28" d="M20.2,144.6L20.2,144.6c0.5,0.5,1.4,0.5,1.9,0.1l18.5-16.1c0.6-0.5,0.6-1.3,0.1-1.8h0
			c-0.5-0.5-1.4-0.5-1.9-0.1l-18.5,16.1C19.7,143.2,19.6,144,20.2,144.6z"/>
		
			<linearGradient id="SVGID_4_" gradientUnits="userSpaceOnUse" x1="2.178" y1="141.4752" x2="30.486" y2="125.1316" gradientTransform="matrix(0.9993 3.657287e-02 -3.657287e-02 0.9993 10.3296 -0.5359)">
			<stop  offset="0" style="stop-color:#FFFFFF;stop-opacity:0.1"/>
			<stop  offset="0.2756" style="stop-color:#C0BFBF;stop-opacity:0.1222"/>
			<stop  offset="0.7376" style="stop-color:#5A5757;stop-opacity:0.1595"/>
			<stop  offset="0.8621" style="stop-color:#2D2C2C;stop-opacity:0.1787"/>
			<stop  offset="1" style="stop-color:#000000;stop-opacity:0.2"/>
		</linearGradient>
		<path class="st29" d="M9.2,144.3L9.2,144.3c0.5,0.5,1.4,0.5,1.9,0.1l23.2-20.2c0.6-0.5,0.6-1.3,0.1-1.8h0
			c-0.5-0.5-1.4-0.5-1.9-0.1L9.2,142.5C8.7,142.9,8.6,143.7,9.2,144.3z"/>
		
			<linearGradient id="SVGID_5_" gradientUnits="userSpaceOnUse" x1="25.4183" y1="142.1747" x2="43.1589" y2="131.9321" gradientTransform="matrix(0.9993 3.657287e-02 -3.657287e-02 0.9993 10.3296 -0.5359)">
			<stop  offset="0" style="stop-color:#FFFFFF;stop-opacity:0.1"/>
			<stop  offset="0.2756" style="stop-color:#C0BFBF;stop-opacity:0.1222"/>
			<stop  offset="0.7376" style="stop-color:#5A5757;stop-opacity:0.1595"/>
			<stop  offset="0.8621" style="stop-color:#2D2C2C;stop-opacity:0.1787"/>
			<stop  offset="1" style="stop-color:#000000;stop-opacity:0.2"/>
		</linearGradient>
		<path class="st30" d="M45.5,130.8l-13.8,12c-0.6,0.5-0.6,1.3-0.1,1.8h0c0.5,0.5,1.4,0.5,1.9,0.1l13.8-12c0.6-0.5,0.6-1.3,0.1-1.8
			l0,0C47,130.3,46.1,130.3,45.5,130.8z"/>
	</g>
	<path class="st31" d="M79.1,70.1c-5.8,0.1-10.4,4.8-10.3,10.5c0.1,5.7,4.8,10.3,10.6,10.2c5.8-0.1,10.4-4.8,10.3-10.5
		C89.6,74.6,84.8,70,79.1,70.1z M79.3,88.7c-4.6,0.1-8.4-3.6-8.5-8.1c-0.1-4.6,3.6-8.3,8.2-8.4c4.6-0.1,8.4,3.6,8.5,8.1
		C87.7,84.9,84,88.6,79.3,88.7z"/>
	
		<ellipse transform="matrix(0.9999 -1.542332e-02 1.542332e-02 0.9999 -1.2314 1.2314)" class="st32" cx="79.2" cy="80.4" rx="8.4" ry="8.3"/>
	<path class="st34" d="M112,25.4c-11.3,0.2-20.4,9.4-20.2,20.6c0.2,11.2,9.5,20.1,20.8,19.9c11.3-0.2,20.4-9.4,20.2-20.6
		C132.7,34.2,123.3,25.3,112,25.4z M112.6,61.9c-9.1,0.1-16.5-7-16.7-15.9c-0.1-8.9,7.1-16.3,16.2-16.5s16.5,7,16.7,15.9
		S121.6,61.7,112.6,61.9z"/>
	
		<ellipse transform="matrix(0.9999 -1.542332e-02 1.542332e-02 0.9999 -0.691 1.7379)" class="st32" cx="112.3" cy="45.7" rx="16.4" ry="16.2"/>
	
		<ellipse transform="matrix(0.9999 -1.542332e-02 1.542332e-02 0.9999 -1.2314 1.2314)" class="st6" cx="79.2" cy="80.4" rx="8.4" ry="8.3"/>
	
		<ellipse transform="matrix(0.9999 -1.542332e-02 1.542332e-02 0.9999 -0.6869 1.7396)" class="st6" cx="112.4" cy="45.4" rx="17" ry="16.8"/>
	
		<ellipse transform="matrix(3.986733e-02 -0.9992 0.9992 3.986733e-02 52.9018 166.3443)" class="st35" cx="113" cy="55.6" rx="1.7" ry="1.7"/>
	
		<ellipse transform="matrix(3.986733e-02 -0.9992 0.9992 3.986733e-02 63.1596 170.0023)" class="st35" cx="120" cy="52.1" rx="3.9" ry="3.9"/>
</g>
</svg>
