<?xml version="1.0" encoding="UTF-8" standalone="no"?>
<!DOCTYPE svg PUBLIC "-//W3C//DTD SVG 1.1//EN" "http://www.w3.org/Graphics/SVG/1.1/DTD/svg11.dtd">
<svg width="200px" height="200px" viewBox="0 0 1000 1000" version="1.1" xmlns="http://www.w3.org/2000/svg" xmlns:xlink="http://www.w3.org/1999/xlink" xml:space="preserve" xmlns:serif="http://www.serif.com/" style="fill-rule:evenodd;clip-rule:evenodd;stroke-linejoin:round;stroke-miterlimit:1.41421;">
    <g transform="matrix(1.19514,0,0,1.21608,-83.2281,-293.138)">
        <g transform="matrix(4.24909,0,0,4.05774,-827.1,-2503.71)">
            <rect x="247.648" y="823.474" width="5.493" height="23.779" style="fill:rgb(0,114,98);fill-rule:nonzero;stroke:rgb(0,114,98);stroke-width:0.17px;"/>
        </g>
        <g transform="matrix(0.767918,0,0,0.711447,54.3115,354.91)">
            <rect x="222.505" y="623.34" width="30.395" height="33.454" style="fill:rgb(0,114,98);stroke:rgb(0,114,98);stroke-width:0.95px;stroke-linecap:round;stroke-miterlimit:1.5;"/>
        </g>
        <g transform="matrix(4.24909,0,0,4.05774,-836.852,-2503.71)">
            <path d="M260.099,823.474L265.616,823.474L265.616,825.672C267.537,823.767 269.702,822.815 272.111,822.815C274.878,822.815 277.034,823.686 278.58,825.427C279.915,826.908 280.582,829.325 280.582,832.678L280.582,847.254L275.065,847.254L275.065,833.972C275.065,831.629 274.739,830.009 274.088,829.114C273.453,828.202 272.298,827.747 270.621,827.747C268.798,827.747 267.504,828.349 266.739,829.553C265.991,830.741 265.616,832.817 265.616,835.779L265.616,847.254L260.099,847.254L260.099,823.474Z" style="fill:rgb(0,114,98);fill-rule:nonzero;stroke:rgb(0,114,98);stroke-width:0.17px;"/>
        </g>
        <g transform="matrix(4.24909,0,0,3.24253,-838.927,-1813.02)">
            <path d="M293.204,828.601L293.204,847.254L287.687,847.254L287.687,828.601L285.734,828.601L285.734,823.474L287.687,823.474L287.687,814.295C287.687,811.3 288.208,809.184 289.249,807.947C290.682,806.222 292.765,805.359 295.499,805.359C296.476,805.359 297.705,805.644 299.186,806.214L299.186,811.829L298.624,811.536C297.436,810.934 296.46,810.632 295.695,810.632C294.718,810.632 294.059,810.982 293.717,811.682C293.375,812.366 293.204,813.684 293.204,815.637L293.204,823.474L299.186,823.474L299.186,828.601L293.204,828.601Z" style="fill:rgb(0,114,98);fill-rule:nonzero;stroke:rgb(0,114,98);stroke-width:0.19px;"/>
        </g>
        <g transform="matrix(4.24909,0,0,4.05774,-839.67,-2503.71)">
            <path d="M324.772,836.658L307.731,836.658C307.877,838.611 308.512,840.165 309.635,841.321C310.758,842.46 312.198,843.03 313.956,843.03C315.323,843.03 316.455,842.704 317.35,842.053C318.229,841.402 319.23,840.198 320.353,838.44L324.991,841.028C324.275,842.249 323.518,843.294 322.721,844.165C321.923,845.036 321.069,845.752 320.157,846.314C319.246,846.875 318.261,847.286 317.203,847.547C316.145,847.807 314.998,847.937 313.761,847.937C310.213,847.937 307.364,846.798 305.216,844.519C303.068,842.224 301.993,839.181 301.993,835.388C301.993,831.629 303.035,828.585 305.118,826.257C307.218,823.963 310.001,822.815 313.468,822.815C316.967,822.815 319.734,823.93 321.769,826.16C323.787,828.373 324.796,831.441 324.796,835.364L324.772,836.658ZM319.132,832.166C318.367,829.236 316.52,827.771 313.59,827.771C312.923,827.771 312.296,827.873 311.71,828.076C311.124,828.28 310.591,828.573 310.111,828.955C309.631,829.338 309.22,829.797 308.878,830.335C308.536,830.872 308.276,831.482 308.097,832.166L319.132,832.166Z" style="fill:rgb(0,114,98);fill-rule:nonzero;stroke:rgb(0,114,98);stroke-width:0.17px;"/>
        </g>
        <g transform="matrix(4.24909,0,0,4.05774,-848.298,-2503.71)">
            <path d="M348.307,823.474L353.824,823.474L353.824,847.254L348.307,847.254L348.307,844.763C346.045,846.879 343.611,847.937 341.007,847.937C337.719,847.937 335.001,846.749 332.853,844.373C330.721,841.948 329.655,838.92 329.655,835.291C329.655,831.726 330.721,828.756 332.853,826.38C334.985,824.003 337.654,822.815 340.861,822.815C343.628,822.815 346.11,823.954 348.307,826.233L348.307,823.474ZM335.27,835.291C335.27,837.569 335.88,839.425 337.101,840.857C338.354,842.306 339.933,843.03 341.837,843.03C343.872,843.03 345.516,842.33 346.769,840.93C348.022,839.482 348.649,837.643 348.649,835.413C348.649,833.183 348.022,831.344 346.769,829.895C345.516,828.479 343.888,827.771 341.886,827.771C339.998,827.771 338.419,828.487 337.15,829.92C335.896,831.368 335.27,833.158 335.27,835.291Z" style="fill:rgb(0,114,98);fill-rule:nonzero;stroke:rgb(0,114,98);stroke-width:0.17px;"/>
        </g>
        <g transform="matrix(4.47177,0,0,4.05774,-931.073,-2503.71)">
            <path d="M374.576,827.527L370.035,829.944C369.319,828.479 368.432,827.747 367.374,827.747C366.87,827.747 366.438,827.914 366.08,828.247C365.722,828.581 365.543,829.008 365.543,829.529C365.543,830.44 366.601,831.344 368.717,832.239C371.63,833.492 373.592,834.648 374.601,835.706C375.61,836.764 376.114,838.188 376.114,839.978C376.114,842.273 375.268,844.194 373.575,845.74C371.932,847.205 369.946,847.937 367.618,847.937C363.631,847.937 360.807,845.992 359.147,842.102L363.834,839.929C364.485,841.069 364.982,841.793 365.323,842.102C365.991,842.721 366.788,843.03 367.716,843.03C369.572,843.03 370.499,842.184 370.499,840.491C370.499,839.514 369.783,838.603 368.351,837.756C367.797,837.48 367.244,837.211 366.691,836.951C366.137,836.69 365.576,836.422 365.006,836.145C363.411,835.364 362.288,834.583 361.637,833.801C360.807,832.809 360.392,831.531 360.392,829.968C360.392,827.901 361.1,826.192 362.516,824.841C363.964,823.491 365.722,822.815 367.789,822.815C370.833,822.815 373.095,824.386 374.576,827.527Z" style="fill:rgb(0,114,98);fill-rule:nonzero;stroke:rgb(0,114,98);stroke-width:0.17px;"/>
        </g>
    </g>
    <g transform="matrix(1.09471,0,0,1.09471,-110.747,-11.2409)">
        <path d="M623.109,453.347C647.473,463.724 674.285,469.463 702.428,469.463C710.216,469.463 717.903,469.024 725.453,468.124C693.248,515.177 641.741,547.989 582.377,555.077C604.523,526.279 619.09,491.373 623.109,453.347Z" style="fill:rgb(0,114,98);"/>
    </g>
    <g transform="matrix(1.09471,0,0,1.09471,-110.747,-11.2409)">
        <path d="M534.88,151.984C516.37,178.964 504.225,210.64 500.615,244.83C476.251,234.453 449.439,228.713 421.296,228.713C413.015,228.713 404.849,229.21 396.824,230.237C429.501,187.59 478.732,158.291 534.88,151.984Z" style="fill:rgb(0,114,98);"/>
    </g>
    <g transform="matrix(1.09471,0,0,1.09471,47.4635,-106.631)">
        <path d="M390.382,239.118C397.908,238.221 405.595,237.781 413.383,237.781C525.41,237.781 616.361,328.733 616.361,440.759C616.361,483.229 603.289,522.67 580.93,555.261C573.38,556.161 565.694,556.6 557.905,556.6C529.763,556.6 502.951,550.861 478.587,540.484C479.364,533.371 479.752,526.145 479.752,518.828C479.752,434.944 428.757,362.876 356.092,331.966C359.721,297.754 371.867,266.068 390.382,239.118Z" style="fill:rgb(134,188,36);"/>
    </g>
    <g transform="matrix(1.09471,0,0,1.09471,-260.295,74.2225)">
        <path d="M759.696,375.268C755.699,413.304 741.132,448.21 718.986,477.008C710.961,478.034 702.795,478.531 694.514,478.531C582.487,478.531 491.536,387.58 491.536,275.553C491.536,229.145 507.145,186.353 533.433,152.168C541.458,151.141 549.624,150.644 557.905,150.644C585.912,150.644 612.601,156.329 636.882,166.606L637.224,166.76C636.446,173.874 636.058,181.1 636.058,188.416C636.058,272.273 687.02,344.32 759.696,375.268Z" style="fill:rgb(0,152,129);"/>
    </g>
</svg>
