<?xml version="1.0" encoding="utf-8"?>
<!-- Generator: Adobe Illustrator 22.1.0, SVG Export Plug-In . SVG Version: 6.00 Build 0)  -->
<svg version="1.1" id="Layer_1" xmlns="http://www.w3.org/2000/svg" xmlns:xlink="http://www.w3.org/1999/xlink" x="0px" y="0px"
	 viewBox="0 0 166.9 149.9" style="enable-background:new 0 0 166.9 149.9;" xml:space="preserve" heigth="100">
<style type="text/css">
	.st0{opacity:0.68;fill:#E5E1D6;}
	.st1{fill:#FFFFFF;}
	.st2{opacity:0.66;fill:#FF0000;}
	.st3{opacity:0.66;fill:#FFFF00;}
	.st4{opacity:0.66;fill:#00FF00;}
	.st5{fill:#E6E6E6;}
	.st6{fill:#6D6D6D;}
	.st7{fill:#CCCCCC;}
	.st8{fill:#00486B;}
	.st9{opacity:7.000000e-02;fill:#00486B;}
	.st10{opacity:0.95;fill:#00486B;}
	.st11{opacity:0.28;fill:#E6E6E6;}
	.st12{fill:#834949;}
	.st13{fill:#CCC6C4;}
	.st14{opacity:0.99;}
	.st15{fill:none;stroke:#999999;stroke-width:2;stroke-linecap:round;stroke-linejoin:round;stroke-miterlimit:10;}
	.st16{opacity:0.8;fill:#6D6D6D;}
	.st17{fill:#E5E1D6;}
	.st18{fill:#A6A39E;}
	.st19{fill:#F6CA56;}
	.st20{fill:#F8C18A;}
	.st21{opacity:0.89;fill:#F2F2F2;}
	.st22{fill:#F2F2F2;}
	.st23{opacity:0.46;fill:#3C3C3B;}
	.st24{opacity:0.71;fill:#007EC3;}
	.st25{opacity:7.000000e-02;}
	.st26{fill:url(#SVGID_1_);}
	.st27{fill:url(#SVGID_2_);}
	.st28{fill:url(#SVGID_3_);}
	.st29{fill:url(#SVGID_4_);}
	.st30{fill:url(#SVGID_5_);}
	.st31{opacity:0.55;fill:#808088;}
	.st32{opacity:0.7;fill:#E5E1D6;}
	.st33{fill:none;stroke:#F2F2F2;stroke-width:2;stroke-linecap:round;stroke-linejoin:round;stroke-miterlimit:10;}
	.st34{opacity:0.39;fill:#808088;}
	.st35{opacity:0.84;fill:#FFFFFF;}
</style>
<g>
	<path class="st20" d="M127.6,48.6c0-13.2,1.7-44.6,1.7-44.6H89.1c0,0,0,19.4-1.7,21.2C85.7,26.9,67,31.5,61.9,32
		c-5.1,0.6-35.1,17.2-35.1,17.2s-1.8,7.7,10.8,2.9c11.9-4.6,22.2-11.9,23.8-10.3c0.6,0.6-13.6,8.2-17,12c-3.7,4.2-7.9,21.2-7.9,21.2
		s2.8,6.9,10.2-5.1s9.1-15.4,13.6-17.2s9.5-3.7,7.9-2.9c-2.3,1.1-11.2,5.6-11.9,9.7c-1.1,6.9-3.4,26.9-0.6,33.2s6.8,1.7,7.4-9.1
		s0.6-15.4,2.3-18.9c1.7-3.4,16.4-13.1,17.5-12.6c1.1,0.6-9.6,7.4-13,12c-3.4,4.6-2.3,34.3-2.3,34.3s1.7,3.4,4,1.7
		c2.3-1.7,6.2-7.4,6.2-12.6s-0.1-10.9,1.1-14.3c2.7-7,13-18.9,24.9-16.6S118,70.9,118,70.9s0.6,16.6,1.1,20c0.6,3.4,2.3,6.9,4.5,7.4
		c2.3,0.6,4.5,0.6,5.1-0.6c0.6-1.1,1.7-1.1,2.3-10.3c0.6-9.1,0.6-8.6,0.6-22.9c0-2.7,0-3.4-1.7-9.1
		C128.8,51.8,127.6,50.9,127.6,48.6z"/>
	<ellipse class="st21" cx="98.6" cy="116.6" rx="31" ry="31.4"/>
	<ellipse class="st19" cx="98.6" cy="116.6" rx="28.5" ry="28.8"/>
	<path class="st1" d="M108.9,120.3c-0.9-1.3-2-2.3-3.3-2.9c-1.2-0.6-2.7-1.2-4.4-1.8c-0.2-0.1-0.4-0.1-0.6-0.2
		c-1.6-0.6-2.9-1.1-3.9-1.5c0,0-0.1,0-0.1-0.1c-0.9-0.4-1.6-1-2.2-1.7c-0.6-0.7-0.9-1.7-0.9-2.8c0-1.4,0.4-2.5,1.3-3.3
		c0.5-0.4,1.1-0.7,1.8-0.9c0.5-0.1,1.1-0.2,1.8-0.2c1.1,0,2.1,0.2,2.9,0.6c0.4,0.2,0.7,0.4,1,0.7c0.9,0.9,1.5,2,1.7,3.2h5.7
		c-0.3-2.6-1.4-4.8-3.4-6.4c-1.4-1.1-3.1-1.9-5.1-2.2v-2.6c0-1.3-1-2.3-2.3-2.3s-2.3,1.1-2.3,2.3v2.4c-1.4,0.2-2.7,0.5-3.8,1
		c-1.6,0.7-2.9,1.8-3.7,3.1c-0.9,1.3-1.3,2.9-1.3,4.7c0,2,0.4,3.7,1.3,4.9c0.9,1.3,2,2.2,3.3,2.9c1.1,0.6,2.5,1.1,4.2,1.7
		c0.3,0.1,0.5,0.2,0.8,0.3c1.6,0.5,2.9,1,3.9,1.5c0,0,0.1,0,0.1,0c1,0.4,1.8,1,2.4,1.8c0.7,0.8,1,1.7,1,2.9c0,1.4-0.4,2.5-1.3,3.4
		c-0.6,0.6-1.3,0.9-2.2,1.1c-0.5,0.1-1,0.2-1.6,0.2c-1.2,0-2.2-0.2-3.1-0.7c-0.5-0.2-0.9-0.5-1.2-0.9c-1.1-1-1.7-2.3-1.8-3.7h-5.7
		c0.2,1.9,0.8,3.5,1.8,5c1.1,1.4,2.5,2.6,4.2,3.4c0.8,0.4,1.7,0.7,2.7,0.9v2.2c0,1.3,1,2.3,2.3,2.3s2.3-1.1,2.3-2.3v-1.9
		c1.7-0.1,3.2-0.5,4.5-1.2c1.6-0.8,2.8-2,3.5-3.4c0.8-1.4,1.2-2.9,1.2-4.5C110.3,123.3,109.8,121.6,108.9,120.3z"/>
	<path class="st22" d="M126.9,18H88.6c-2.6,0-4.7-2.1-4.7-4.7v-2c0-2.6,2.1-4.7,4.7-4.7h38.2c2.6,0,4.7,2.1,4.7,4.7v2
		C131.5,15.9,129.5,18,126.9,18z"/>
	<path class="st6" d="M132.8,11H82.7c-1.2,0-2.2-1-2.2-2.2V3.5c0-1.2,1-2.2,2.2-2.2h50.1c1.2,0,2.2,1,2.2,2.2v5.3
		C135,10,134,11,132.8,11z"/>
</g>
</svg>
