<?xml version="1.0" encoding="utf-8"?>
<!-- Generator: Adobe Illustrator 22.1.0, SVG Export Plug-In . SVG Version: 6.00 Build 0)  -->
<svg version="1.1" id="Layer_1" xmlns="http://www.w3.org/2000/svg" xmlns:xlink="http://www.w3.org/1999/xlink"
	 viewBox="0 0 84 149" style="enable-background:new 0 0 84 149;" xml:space="preserve" heigth="100px">
<style type="text/css">
	.st0{opacity:0.68;fill:#E5E1D6;}
	.st1{fill:#FFFFFF;}
	.st2{opacity:0.66;fill:#FF0000;}
	.st3{opacity:0.66;fill:#FFFF00;}
	.st4{opacity:0.66;fill:#00FF00;}
	.st5{fill:#E6E6E6;}
	.st6{fill:#6D6D6D;}
	.st7{fill:#CCCCCC;}
	.st8{fill:#00486B;}
	.st9{opacity:7.000000e-02;fill:#00486B;}
	.st10{opacity:0.95;fill:#00486B;}
	.st11{opacity:0.28;fill:#E6E6E6;}
</style>
<rect x="6" y="20" class="st0" width="72" height="109"/>
<path class="st1" d="M76.2,116H20.8c-2.7,0-4.8-2.2-4.8-4.8V38.8c0-2.7,2.2-4.8,4.8-4.8h55.3c2.7,0,4.8,2.2,4.8,4.8v72.3
	C81,113.8,78.8,116,76.2,116z"/>
<g>
	<circle class="st2" cx="22.9" cy="39.8" r="1.5"/>
	<circle class="st3" cx="27.4" cy="39.8" r="1.5"/>
	<circle class="st4" cx="31.9" cy="39.8" r="1.5"/>
</g>
<path class="st5" d="M35.8,86.6c0-1.1-0.7-2-1.6-2h-0.7c-0.9,0-1.6,0.9-1.6,2v16.3h4V86.6z"/>
<path class="st5" d="M43.8,81.2c0-1.1-0.7-2-1.6-2h-0.7c-0.9,0-1.6,0.9-1.6,2v21.7h4V81.2z"/>
<path class="st5" d="M52.7,88.2c0-0.7-0.7-1.2-1.6-1.2h-0.7c-0.9,0-1.6,0.5-1.6,1.2v14.7h4V88.2z"/>
<path class="st6" d="M75.5,0h-67C3.8,0,0,3.8,0,8.5v132c0,4.7,3.8,8.5,8.5,8.5h67c4.7,0,8.5-3.8,8.5-8.5V8.5C84,3.8,80.2,0,75.5,0z
	 M78,129H6V20h72V129z"/>
<path class="st7" d="M26,54.5v48c0,0.3-0.2,0.5-0.5,0.5l0,0c-0.3,0-0.5-0.2-0.5-0.5v-48c0-0.3,0.2-0.5,0.5-0.5l0,0
	C25.8,54,26,54.2,26,54.5z"/>
<path class="st5" d="M60.7,81.7c0-1-0.7-1.7-1.6-1.7h-0.7c-0.9,0-1.6,0.8-1.6,1.7v21.2h4V81.7z"/>
<path class="st5" d="M69.7,66c0-1.7-0.7-3-1.6-3h-0.7c-0.9,0-1.6,1.4-1.6,3v36.9h4V66z"/>
<path class="st7" d="M77.5,103h-52c-0.3,0-0.5-0.2-0.5-0.5l0,0c0-0.3,0.2-0.5,0.5-0.5h52c0.3,0,0.5,0.2,0.5,0.5l0,0
	C78,102.8,77.8,103,77.5,103z"/>
<path class="st8" d="M41.8,81.4l-6.3,4.9C35,86.6,34.4,86.5,34,86l0,0c-0.3-0.4-0.3-1.1,0.2-1.4l6.3-4.9c0.4-0.3,1.1-0.3,1.4,0.2
	l0,0C42.3,80.4,42.2,81,41.8,81.4z"/>
<g>
	<circle class="st8" cx="33.9" cy="86.1" r="3.2"/>
	<circle class="st1" cx="33.9" cy="86.1" r="1.3"/>
</g>
<path class="st8" d="M59.3,82.2L51,89.3c-0.4,0.4-1.1,0.3-1.4-0.1v0c-0.4-0.4-0.3-1.1,0.1-1.4l8.3-7.2c0.4-0.4,1.1-0.3,1.4,0.1v0
	C59.8,81.2,59.7,81.8,59.3,82.2z"/>
<path class="st8" d="M51.1,90L40.5,79.4c-0.4-0.4-0.4-1,0-1.4l0,0c0.4-0.4,1-0.4,1.4,0l10.6,10.6c0.4,0.4,0.4,1,0,1.4l0,0
	C52.1,90.4,51.5,90.4,51.1,90z"/>
<g>
	<circle class="st8" cx="41.9" cy="80.1" r="3.2"/>
	<circle class="st1" cx="41.9" cy="80.1" r="1.3"/>
</g>
<g>
	<circle class="st8" cx="50.9" cy="88.1" r="3.2"/>
	<circle class="st1" cx="50.9" cy="88.1" r="1.3"/>
</g>
<path class="st8" d="M67.1,66l-6.9,15.4c-0.2,0.5-0.8,0.7-1.3,0.5h0c-0.5-0.2-0.7-0.8-0.5-1.3l6.9-15.4c0.2-0.5,0.8-0.7,1.3-0.5l0,0
	C67.1,64.9,67.3,65.5,67.1,66z"/>
<g>
	<circle class="st8" cx="58.9" cy="81.1" r="3.2"/>
	<circle class="st1" cx="58.9" cy="81.1" r="1.3"/>
</g>
<g>
	<g>
		<circle class="st8" cx="67.5" cy="64.9" r="4.8"/>
		<circle class="st1" cx="67.5" cy="64.8" r="3.3"/>
	</g>
	<path class="st8" d="M67.5,64.9"/>
	<path class="st9" d="M74.7,63.9c-0.6-3.9-4.2-6.7-8.1-6.1c-3.9,0.6-6.7,4.2-6.1,8.1c0.6,3.9,4.2,6.7,8.1,6.1
		C72.5,71.4,75.2,67.8,74.7,63.9z M68.4,70.6c-3.2,0.4-6.1-1.8-6.5-4.9c-0.4-3.2,1.8-6.1,4.9-6.5c3.2-0.4,6.1,1.8,6.5,4.9
		C73.7,67.2,71.5,70.1,68.4,70.6z"/>
</g>
<path class="st10" d="M66.9,65.8c0.3-0.4,0.7-0.8,1-1.1c0.4-0.5,0.9-1,1.3-1.5c0.2-0.2,0.5-0.2,0.7-0.1c0.2,0.2,0.2,0.5,0,0.7
	c-0.9,1-1.8,2-2.7,3.1c-0.2,0.3-0.6,0.3-0.8,0c-0.4-0.5-0.7-1.1-1.1-1.6c-0.2-0.2-0.1-0.6,0.1-0.7c0.2-0.2,0.5-0.1,0.7,0.1
	C66.4,65,66.6,65.4,66.9,65.8z"/>
<circle class="st11" cx="42.5" cy="138.5" r="5.5"/>
</svg>
