<?xml version="1.0" encoding="utf-8"?>
<!-- Generator: Adobe Illustrator 23.0.1, SVG Export Plug-In . SVG Version: 6.00 Build 0)  -->
<svg version="1.1" id="Layer_1" xmlns="http://www.w3.org/2000/svg" xmlns:xlink="http://www.w3.org/1999/xlink" x="0px" y="0px"
	 viewBox="0 0 252.7 100" style="enable-background:new 0 0 252.7 100;" xml:space="preserve">
<style type="text/css">
	.st0{fill:none;}
	.st1{fill:#FFD404;}
	.st2{fill:#013067;}
	.st3{fill:#F7941E;}
	.st4{fill:#005894;}
	.st5{fill:#FFFFFF;}
	.st6{fill:#BABABA;}
	.st7{fill:#6D6D6D;}
	.st8{fill:#DFDFDF;}
	.st9{fill:#636466;}
	.st10{fill:#E21A4C;}
</style>
<g>
	<path class="st1" d="M102.1,64.6c-0.1-0.4-0.5-0.3-0.7-0.3c-3.3-0.5-6.5,0.3-9.6,1.3c-1.2,0.4-2.3,0.7-3.5,1
		c-0.2,0.1-0.5,0.1-0.7,0.1c-0.2,0-0.5,0.1-0.6-0.2c-0.1-0.3,0.2-0.4,0.4-0.5c0.5-0.2,0.9-0.5,1.4-0.7c2.2-0.7,4.3-1.7,6.6-2
		c0.8-0.1,1.6-0.1,2.5-0.3c0.8-0.1,1.5-0.4,2.2-0.8c0.2-0.1,0.4-0.1,0.4-0.4c0-0.2-0.3-0.2-0.4-0.2c-1.2-0.3-2.3,0.2-3.4,0.2
		c-1.1,0.1-2.1,0.5-3.2,0.5c-0.3,0-0.7,0-0.3-0.4c0.1-0.2,0.1-0.4-0.2-0.4c-0.2,0-0.4,0.1-0.6-0.2c0-0.1,0.3-0.1,0-0.2
		c-2,0.8-4,0.6-6.1,0.6c-0.3,0-0.6,0.1-0.7-0.3c-0.1-0.3,0.3-0.4,0.5-0.6c1.5-0.9,3.2-1.5,4.9-1.9c0.2,0,0.5-0.2,0.5,0.3
		c0,0.3,0.4,0.1,0.6,0.1c1.2-0.2,2.5-0.5,3.7-0.8c0.6-0.1,1.1-0.2,1.7-0.4c-0.3,0-0.7,0-1.2-0.1c0.9-0.4,1.8-0.3,2.5-0.8
		c-1.6-0.9-3.1-0.4-4.7-0.1c-6.4,1.2-12.5,3.3-18.4,6.1c-0.6,0.3-1,0.3-1.4-0.3c-1.4-2.1-3.3-3.6-5.2-5.2c0-0.5,0.4-0.6,0.7-0.7
		c2.1-1,4.3-1.7,6.5-2.3c3.2-0.9,6.5-1.5,9.9-1.7c1.6-0.1,3.2-0.1,4.8-0.1c-5.1-0.1-10.2,0.5-15.2,1.7c-1.1,0.3-2.2,0.6-3.2,1
		c-0.4,0.1-0.8,0.3-1.2,0.4c-0.3,0.1-0.8,0.3-1-0.2c-0.2-0.5,0.3-0.6,0.6-0.8c2.8-1.5,5.8-2.3,8.9-3.1c-2.9,0.7-5.7,1.6-8.4,2.9
		c-0.9,0.5-1.8,0.9-2.8,1.2c-0.3,0.1-0.6,0.2-0.8-0.2c-0.2-0.3,0-0.6,0.2-0.8c0.3-0.3,0.6-0.5,0.9-0.8c0.2-0.3,0.2-0.5-0.2-0.5
		c-0.3,0-0.6,0-0.7-0.4c-0.1-0.3,0.1-0.6,0.3-0.8c1.1-1,2.4-1.7,3.7-2.3c2.8-1.2,5.8-1.8,8.8-2.2c1.9-0.3,3.7-0.4,5.6-0.4
		c2,0,4.1,0.1,6.1,0.4c2.9,0.4,5.8,1.1,8.5,2.2c3.2,1.4,6,3.3,7.9,6.3c0.2,0.3,0.3,0.6,0.4,0.9c0.1,0.2,0.1,0.5-0.1,0.7
		c-0.2,0.2-0.5,0-0.6-0.2c-0.5-0.6-1.1-1-1.5-1.6c-0.9-1.4-2.2-2.3-3.6-3.1c-2-1.1-4.1-2.2-6.2-3c-0.7-0.3-1.5-0.5-2.3-0.6
		c1.4,0.2,3.2,0.9,4.5,1.5c1.2,0.6,2.4,1.1,3.6,1.7c1.3,0.7,2.5,1.5,3.5,2.6c0.5,0.6,0.4,0.8-0.3,1c0.9,0.3,1.3,1,1.7,1.8
		c0.1,0.3,0.1,0.6-0.1,0.8c-0.3,0.2-0.5,0.1-0.7,0c-0.8-0.5-1.4-1.1-2.1-1.7c-2.4-2-5.2-3-8.2-3.6c-0.2,0-0.4-0.1-0.7-0.2
		c1,0.2,1.8,0.4,2.7,0.7c0.8,0.3,1.7,0.5,2.5,0.8c2.3,1,4.2,2.5,5.8,4.2c1.1,1.1,2,2.4,2.8,3.8c1.5,2.8,1.8,5.8,1.3,8.9
		c0,0.3-0.2,0.5-0.1,0.8c-0.2,1.2-0.6,2.3-1,3.4c-0.7-0.1-0.4-0.5-0.3-0.9c0.3-1.1,0.4-2.2,0.4-3.3c0-3.2-2-5.9-5.1-6.9
		c-1-0.4-1.9-0.5-3-0.7C102.2,64.7,102.2,64.7,102.1,64.6z"/>
	<path class="st2" d="M105.3,65.1c4.3,1.1,6.3,5.7,5.2,10c-0.1,0.4-0.4,0.9-0.2,1.4c-0.8,2.9-2.3,5.4-4.2,7.7c-4,4.9-9.1,8-15.2,9.7
		c-0.1,0-0.2,0-0.4,0.1c-0.2,0-0.5,0.1-0.4-0.3c4.6-1.2,8.8-3.3,12.3-6.4c1.6-1.4,3.1-3.1,4.4-4.8c0.2-0.2,0.3-0.5,0.4-0.8
		c-1.5,1.1-2.3,2.9-3.7,4.1c-0.1-0.1,0-0.2,0.1-0.2c0.1-0.2,0.4-0.3,0.2-0.5c-0.2-0.2-0.4,0-0.5,0.1c-1.6,1.1-3.3,2.1-4.9,3.3
		c-1.7,1.1-3.5,2.3-5.4,3c-2.3,0.9-4.6,1.6-7.1,1.9c-2.4,0.3-4.8,0.5-7.3,0.2c-1.6-0.2-3.2-0.8-4.7-1.4c0-0.1,0-0.2,0.1-0.1
		c0.6,0.1,1.1,0.4,1.9,0.3c-1.3-0.5-2.4-0.9-3.6-1.4c0-0.1,0-0.1,0-0.2c0.6,0.1,1.3,0.1,1.9,0.2c4.5,0.6,8.9,0.7,13.3-0.7
		c-0.6,0.2-1.3,0.4-2,0.5C85,90.8,84.3,91,83.6,91c-0.7,0.1-1.4,0.1-2,0.1c-1.3,0.1-2.6,0.1-3.8,0c-0.6,0-1.2,0-1.6-0.5
		c-2.9-0.3-5.8-0.9-8.3-2.6c-0.4-0.2-0.7-0.5-1-0.8c-0.2-0.2-0.1-0.2,0.1-0.2c0.2,0,0.4,0.1,0.6,0.2c-0.2-0.1-0.3-0.2-0.4-0.3
		c-1-0.6-2-1.2-2.8-2c-0.2-0.2-0.4-0.3-0.1-0.6c0.3-0.3,0.4,0,0.5,0.1c3.8,3,8.2,3.9,13,3.7c2.6-0.1,5.2-0.7,7.7-1.4
		c0.1-0.2,0.3-0.4,0.6-0.5c1.9-0.7,3.6-1.5,5.4-2.3c1.5-0.9,3.1-1.9,4.4-3c-0.5-0.1-1.2,0.1-1.4-0.5c-0.3-0.6,0.2-1.1,0.5-1.5
		c0.2-0.2,0.3-0.5,0.6-0.6c0.6-0.2,0.8-0.8,1.3-1.1c0.6-0.5,1.2-0.9,1.7-1.5c0.3-0.1,0.5-0.3,0.7-0.5c0.9-1,2.1-1.9,2.9-3.1
		c0.5-0.5,0.8-1.1,1.1-1.7c0.6-1.1,1.1-2.1,1.6-3.2c0.2-0.4,0.3-0.8,0.3-1.2C105,65.5,105,65.2,105.3,65.1z"/>
	<path class="st3" d="M111.3,73.1c-0.2-0.4,0-0.9,0-1.3c0.3-4.5-1-8.3-4.1-11.7c-2.8-3.1-6.3-4.9-10.3-5.9c-0.4-0.1-0.8-0.2-1.1-0.3
		c-0.1,0-0.2-0.1-0.2-0.2c0.9,0.2,1.7,0.4,2.6,0.5c3.4,0.6,6.3,2.3,8.9,4.5c0.2,0.2,0.6,0.7,0.8,0.4c0.3-0.3-0.1-0.7-0.3-1
		c-0.5-0.7-1.3-1.3-2-1.9c0.2-0.2,0.3,0,0.5,0c0.2,0.1,0.5,0.4,0.7,0.1c0.2-0.3-0.1-0.5-0.3-0.7c-0.9-1-2-1.7-3.2-2.3
		c-2.7-1.4-5.4-2.6-8.4-3.4c-0.2,0-0.3-0.1-0.6-0.2c0.7-0.1,1.3,0,1.8,0.1c0.9,0.1,1.8,0.4,2.6,0.6c0.5,0.2,0.9,0.4,1.3,0.8
		c0.4,0.4,1.1,0.6,1.7,0.9c3,1.3,5.4,3.3,7.5,5.8c0.1,0.1,0.1,0.2,0.2,0.2c0-0.4-0.2-0.7-0.3-1c-2-3.4-5.1-5.3-8.7-6.7
		c-3.8-1.4-7.8-2-11.9-2.2c-4.6-0.1-9.2,0.3-13.6,1.7c-2.1,0.6-4.1,1.5-5.8,2.9c-0.2,0.2-0.5,0.3-0.5,0.6c0.4,0.1,0.7-0.1,1-0.1
		c0.2,0,0.5-0.1,0.7,0.2c0.1,0.2-0.2,0.4-0.3,0.5c-0.6,0.5-1.1,1.1-1.6,1.7c4.1-1.5,8-3.5,12.6-4c-3.5,1.1-6.9,2.2-10,4
		c6.9-2.6,14.1-3.4,21.4-2.7c-0.3,0-0.6,0-1,0c-6.8,0-13.4,1.3-19.8,3.7c-0.8,0.3-1.5,0.7-2.2,1c-0.9-0.7-1.8-1.4-2.7-2.1
		c-0.9-0.7-1.9-1.2-3-1.3c-0.7-0.1-0.6-0.3-0.3-0.8c3.3-5.2,8-8.6,14-10.3c2.6-0.7,5.2-1.4,7.9-1.6c3.4-0.2,6.6,0.3,9.8,1.4
		c-0.1,0.4-0.3,0.2-0.5,0.1c-1.2-0.3-2.4-0.6-3.8-0.7c2.1,0.2,4.9,0.7,7.6,2c3.9,1.9,7,4.7,9.5,8.3c2.7,3.8,4.2,8.1,4.5,12.8
		C112,68.2,111.8,70.7,111.3,73.1z"/>
	<path class="st4" d="M91.4,84.1c-2,1.1-4,2-6.2,2.6c-0.2-0.3-0.6-0.1-0.8-0.1c-1.4,0-2.9,0.1-4.3-0.1c-0.7-0.1-1.3-0.2-1.8-0.9
		c-0.4-0.5-1.2-0.6-1.9-0.8c-0.7-0.1-0.8-0.7-1.1-1.1c-0.1-0.1,0-0.2,0.1-0.3c0.2-0.1,0.3-0.2,0.5-0.1c0.2,0.1,0.4,0.2,0.5,0.4
		c1.3,0.9,2.7,1.4,4.2,1.4c1.1,0,1.5-0.3,1.7-1.3c0.1-0.4,0.4-0.4,0.6-0.5c0.6-0.3,1.2-0.6,0.8-1.4c-0.2-0.4,0.1-0.4,0.3-0.4
		c2.3-0.6,4.6-1.5,6.7-2.6c0.2,0.1,0.3,0.3,0.3,0.5c-0.1,1.3,0.1,2.7,0.3,4C91.6,83.5,91.5,83.8,91.4,84.1z"/>
	<path class="st4" d="M91.4,84.1c-0.4-1.7-0.7-3.5-0.4-5.3c1.5-0.8,2.8-1.8,4.1-2.9c0.3,0,0.5,0.1,0.5,0.4c0.1,0.7,0.3,1.4-0.1,2.1
		c-0.2,0.3-0.5,0.6-0.7,0.9c-0.2,0.3-0.5,0.6-0.3,0.9c0.2,0.4,0.6,0.3,0.9,0.2c0.4,0,0.8-0.1,1.2-0.1C95.1,81.9,93.3,83.1,91.4,84.1
		z"/>
	<path class="st4" d="M95.5,78.4c-0.3-0.8,0-1.7-0.4-2.5c0-0.1,0.1-0.2,0-0.2c-0.2,0-0.3,0.1-0.5,0.1c-0.4,0.1-0.9,0.3-1.1-0.1
		c-0.2-0.4,0.2-0.8,0.5-1c1.2-1.1,2.5-2.3,3.8-3.4c0.6,0.1,0.3,0.8,0.6,1.1c0.1,0.5,0.1,1,0,1.5c0,0.4,0,0.7,0.3,1
		c0.2,0.4,0.1,0.7-0.1,1C97.6,76.7,96.6,77.6,95.5,78.4z"/>
	<path class="st1" d="M85.9,67.5c-0.4,0.2-0.7,0.4-1.1,0.7c-2.1,1.3-4.1,2.6-6.2,3.9c-0.2,0.1-0.5,0.6-0.7,0.1
		c-0.2-0.4-0.4-0.8,0.2-1.2c0.4-0.2,0.8-0.4,1.2-0.6c1.7-0.8,3.4-1.8,5.2-2.5c0.4-0.2,0.9-0.3,1.3-0.5
		C85.9,67.4,85.9,67.5,85.9,67.5z"/>
	<path class="st4" d="M102.1,64.6c0,0,0.1,0,0.1,0c0.4,0.1,0.5,0.4,0.5,0.7c0.2,1.1,0.2,2.2,0.4,3.2c-0.1,0.7-0.7,1-1.3,1.1
		c-0.4,0.1-0.9,0.1-1.4-0.1c-0.6-0.3-0.4-0.8-0.3-1.2C100.9,67.1,101.6,65.9,102.1,64.6z"/>
	<path class="st4" d="M76.1,90.7c1.4,0.1,2.8,0.2,4.2,0.3c2.2,0.1,4.3-0.1,6.4-0.7c0.7-0.2,1.4-0.3,2.1-0.4
		c-1.8,0.7-3.6,1.2-5.5,1.4c-0.9,0.1-1.9,0.2-2.8,0.3c-2.1,0.2-4.1-0.1-6.1-0.7C75,90.7,75.6,90.9,76.1,90.7z"/>
	<path class="st4" d="M86,93.3c3.3-0.6,6.4-1.8,9.3-3.3c1.1-0.5,2-1.3,3.2-1.7c-2.2,1.9-4.6,3.3-7.4,4c-1.5,0.4-2.9,0.6-4.4,1
		C86.4,93.4,86.2,93.5,86,93.3z"/>
	<path class="st4" d="M100.2,68.3c0.1,0.3,0.3,0.7,0.4,1c0.3,0.2,0.1,0.4,0,0.6c-0.6,0.8-1.2,1.5-1.8,2.2c-0.2,0.2-0.4,0.3-0.6,0.3
		c-0.4-0.3-0.4-0.8-0.4-1.2C98.5,70.2,99.3,69.2,100.2,68.3z"/>
	<path class="st5" d="M97.9,44.7c-1.7-0.5-3.4-1.2-5.1-1.5c-1-0.2-2-0.3-2.9-0.6c1.4,0,2.7,0.3,4,0.6c0.2,0.1,0.5,0.2,0.8,0
		C95.8,43.6,96.8,44,97.9,44.7z"/>
	<path class="st6" d="M88.7,63.2c0.6-0.4,1-0.5,1.6-0.4C89.7,63,89.4,63.2,88.7,63.2z"/>
	<path class="st4" d="M90.1,93.6c0.1,0.1,0.3,0.2,0.4,0.3c-0.3,0.2-0.7,0.3-1.1,0.3C89.6,93.9,89.6,93.5,90.1,93.6z"/>
	<path class="st7" d="M74.1,92c0,0-0.1,0.1-0.1,0.1c-0.5-0.1-1-0.3-1.4-0.7C73.1,91.6,73.6,91.8,74.1,92z"/>
	<path class="st4" d="M67.1,86.9c0.5,0.3,0.9,0.6,1.4,0.8c0,0.1-0.1,0.1-0.1,0.2c-0.5-0.3-1-0.6-1.5-0.9C67,87,67,86.9,67.1,86.9z"
		/>
	<path class="st8" d="M92.1,61.2c0.3-0.2,0.7-0.3,1.2-0.4c-0.4,0.4-0.8,0.4-1.2,0.5C92.1,61.3,92.1,61.3,92.1,61.2z"/>
	<path class="st4" d="M103,68.6c-0.6-0.5-0.4-1.3-0.5-1.9c-0.1-0.7-0.2-1.4-0.3-2.1c0.1-0.2,0.2-0.2,0.4-0.2
		c0.9,0.1,1.8,0.3,2.7,0.6c0.3,1.9-1,3.3-1.7,4.8c-0.4,0.8-0.9,1.6-1.5,2.2c-0.1,0-0.3-0.1-0.3-0.3c-0.1-0.2,0-0.4,0.1-0.6
		c0.4-0.7,0.7-1.6,1.2-2.3C103.1,68.8,103,68.7,103,68.6z"/>
	<path class="st4" d="M103.7,76.8c-0.9,0.7-2,1.2-2.9,2c-0.1,0.1-0.3,0.2-0.5,0.2c-0.4,0.1-0.5,0-0.4-0.4c0.2-0.5,0.3-1,0.2-1.5
		c-0.1-0.4,0.2-0.8,0.5-1.1c0.7-1.1,1.5-2,2.4-2.9c0.4-0.1,0.6,0.1,0.6,0.4C103.8,74.5,104,75.6,103.7,76.8z"/>
	<path class="st4" d="M103.7,76.8c-0.2-0.7-0.3-1.4-0.3-2.2c0-0.6,0-1.2-0.4-1.6c0.6-0.8,1.3-1.5,1.8-2.3c0.4-0.1,0.5,0.1,0.6,0.5
		c0.2,1.1,0.4,2.2,0.1,3.3C105,75.3,104.5,76.2,103.7,76.8z"/>
	<path class="st4" d="M105.5,74.4c-0.3-1-0.2-2.1-0.4-3.1c-0.1-0.3-0.1-0.5-0.3-0.7c0.3-0.6,0.8-1.2,0.9-2c-0.4,0.1-0.3,0.6-0.7,0.6
		c0.3-0.8,0.6-1.6,0.8-2.4c0-0.1,0.1-0.2,0.3-0.2c0.2,0.1,0.2,0.2,0.2,0.4c0.1,1,0.2,2.1,0.3,3.1c0,0.2,0,0.5,0.1,0.7
		C106.9,72.3,106.3,73.4,105.5,74.4z"/>
	<path class="st4" d="M101.9,71.7c0.1,0.1,0.1,0.2,0.2,0.3c-1.1,1.3-2.1,2.7-3.5,3.7c-0.1-0.4-0.1-0.7-0.2-1.1
		c-0.2-0.5,0.2-0.7,0.4-0.9c0.9-0.7,1.9-1.1,2.7-2C101.6,71.7,101.8,71.7,101.9,71.7z"/>
	<path class="st5" d="M81.1,44c-4.1,1.3-8.4,1.9-12.5,4C70.1,46.4,77.8,43.9,81.1,44z"/>
</g>
<g>
	<path class="st9" d="M252.9,95c-0.1,0.2-0.2,0.5-0.3,0.7c-0.6,1.7-2,2.7-3.7,2.7c-6.2,0-12.4,0-18.6,0c-3.7,0-7.3-0.8-10.4-3
		c-3.1-2.2-4.6-5.3-4.6-9.1c0-13.4,0-26.8,0-40.3c0-3.3,1-6.2,3.7-8.4c2.1-1.6,4.5-2.3,7-2.3c7.6,0,15.1,0,22.7,0
		c2.2,0,3.8,1.7,3.8,4c0,2.3-1.6,4-3.8,4c-7.1,0-14.3,0-21.4,0c-0.4,0-0.7,0-1.1,0c-1.9,0.3-2.7,1.3-2.7,3.5c0,3.5,0,7,0,10.5
		c0,0.9,0,1.8,0,2.7c0,1,0,1,1,1c7.8,0,15.6,0,23.4,0c2,0,3.6,1.4,4,3.1c0.5,2.1-0.4,4.1-2.2,4.9c-0.6,0.3-1.3,0.3-2,0.3
		c-7.7,0-15.3,0-23,0c-1.1,0-1.1,0-1.1,1.1c0,4.9,0.1,9.8,0,14.6c0,2.8,0.8,4.2,4.2,4.7c0.8,0.1,1.7,0.2,2.5,0.2c6,0,11.9,0,17.9,0
		c2.5,0,3.7,0.9,4.5,3.3c0,0.1,0.1,0.1,0.1,0.2C252.9,94.1,252.9,94.6,252.9,95z"/>
	<path class="st9" d="M0.1,38.7c0.1-0.2,0.1-0.3,0.2-0.5C0.9,36.1,2.8,34.8,5,35c2,0.2,3.6,2,3.6,4.1c0,7,0,14,0,21.1c0,1,0,1,1,1
		c5.3,0,10.7,0,16.3,0c-1.3,1.1-2.2,2.3-2.4,3.9c-0.2,1.6,0,3,0.9,4.5c-0.4,0-0.6,0-0.9,0c-4.6,0-9.2,0-13.8,0c-1.1,0-1.1,0-1.1,1.1
		c0,8,0,16,0,24.1c0,2-1.1,3.6-2.8,4.2c-2.3,0.8-4.7-0.5-5.4-2.8c-0.1-0.2-0.2-0.5-0.2-0.7C0.1,76.6,0.1,57.6,0.1,38.7z"/>
	<path class="st9" d="M79.9,100.1c-1-0.1-1.9-0.2-2.9-0.3c-10.1-1.1-18.9-5.1-26.2-12.2c-2.5-2.4-4.6-5.2-6.4-8.3
		c-0.4-0.8-0.3-1.1,0.6-1.2c1.3-0.1,2.6-0.3,3.9-0.4c1.3,0,2.5,0,3.8,0.2c0.4,0.1,0.8,0.6,1.1,1c0,0.1-0.1,0.2-0.1,0.2
		c-0.7,0-1.5,0-2.2,0c-0.6,0-1.2,0.2-1.7,0.3c-0.5,0.2-0.8,0.7-0.6,1.2c0.4,0.9,0.9,1.9,1.5,2.8c0.2,0.3,0.7,0.5,1,0.5
		c0.5,0,0.7,0.2,1,0.6c1.2,1.8,2.4,2.4,4.4,1.6c1.4-0.5,2.3-0.2,3.4,0.8c5.2,4.8,11.3,7.7,18.3,8.7c9.6,1.5,18.4-0.8,26.3-6.3
		c3.5-2.4,6.1-5.7,8.1-9.5c0.2-0.4,0.5-0.9,0.9-1.2c0.5-0.5,1.1-0.5,1.7-0.2c0.6,0.3,1,0.8,0.9,1.5c-0.1,0.5-0.2,1-0.4,1.5
		c-3,6.1-7.7,10.5-13.7,13.6c-4.9,2.6-10,4.1-15.5,4.8c-1.2,0.1-2.4,0.2-3.5,0.4C82.4,100.1,81.2,100.1,79.9,100.1z"/>
	<path class="st10" d="M0.1,1.9c3.5,0,7,0,10.5,0c3.7,0,7,2.6,7.8,6.1c0.9,4-1.3,8-5.2,9.3c-0.2,0.1-0.5,0.2-0.8,0.3
		c2.6,3.7,5.2,7.4,7.8,11.2c-0.7,0-1.3,0-1.8,0c-1.4,0-2.9,0-4.3,0c-0.3,0-0.7-0.2-0.8-0.4c-1.7-2.6-3.4-5.3-5.1-7.9
		C8.1,20.3,8,20.1,8,19.9c0-2,0-4.1,0-6.2c0.5,0,0.9,0,1.3,0c2.1,0,3.8-1.7,3.8-3.6c0-2-1.7-3.5-3.9-3.5c-1,0-2.1,0-3.2,0
		c0,7.5,0,14.8,0,22.3c-2,0-3.9,0-5.8,0C0.1,19.9,0.1,10.9,0.1,1.9z"/>
	<path class="st9" d="M161.2,58.1c0,6.4,0.2,12.9-0.1,19.3c-0.2,6.1-2,11.8-6.2,16.5c-2.7,3-6.2,4.6-10.1,5.3
		c-5.3,0.9-10.2,0-14.7-3c-4.7-3.1-7.3-7.6-8.5-13c-1.5-7.1-2.7-14.2-4.3-21.2c-1.2-5.3-3.4-10.2-7.2-14.3
		c-4.1-4.3-9.1-7.1-14.8-8.6c-3.5-0.9-7.1-1.5-10.8-1.3c-7.5,0.3-13.9,3.2-19.4,8.2c-1,0.9-2,2-3,3c-0.4,0.4-0.7,0.7-1.1,1
		c-0.6,0.4-1.2,0.4-1.8-0.1c-0.6-0.5-0.8-1.1-0.5-1.8c0.2-0.5,0.5-0.9,0.8-1.3c4.8-6.1,11.1-9.7,18.6-11.5c4.9-1.2,9.9-1.2,15-0.8
		c7.7,0.7,14.6,3.4,20.7,8.1c5.2,4,8.5,9.2,10.4,15.4c1.1,3.7,1.9,7.5,2.8,11.2c1.1,4.4,2.1,8.9,3.2,13.3c0.6,2.3,1.7,4.3,3.6,5.7
		c3.9,3,8.1,3.5,12.6,1.5c2.3-1,3.6-3,4.5-5.3c1.2-2.8,1.8-5.7,1.8-8.7c0-12.3,0-24.6,0-37c0-1.9,1.1-3.5,2.8-4.1
		c1.7-0.6,3.6,0,4.7,1.4c0.6,0.8,0.9,1.8,0.9,2.8C161.2,45.3,161.2,51.7,161.2,58.1C161.2,58.1,161.2,58.1,161.2,58.1z"/>
	<path class="st9" d="M180.8,90.2c3.7,0,7.4,0,11.1,0c2.3,0,4.5-0.5,6.3-2.1c0.5-0.4,0.9-0.9,1.3-1.5c1.7-2.6,2.3-5.5,1.8-8.7
		c-0.6-3.8-3.1-5.9-6.6-6.9c-1.4-0.4-2.9-0.5-4.4-0.6c-1.8-0.1-3.7,0-5.6,0c-8.2,0-14.5-4.9-16.7-12.8c-1.1-3.9-1-7.8,0.3-11.6
		c2.1-5.7,6.3-8.9,12.1-10.3c1.4-0.3,2.9-0.5,4.4-0.5c4.8-0.1,9.6,0,14.3,0c2.3,0,3.9,1.1,4.4,3.1c0.8,2.8-1.3,5.4-4.4,5.4
		c-5,0-10-0.1-15,0c-3.3,0.1-7.2,1.7-8.2,6c-0.5,2.2-0.3,4.4,0.5,6.5c1.1,3,3.1,4.8,6.2,5.4c0.8,0.2,1.6,0.2,2.4,0.2
		c2.6,0.1,5.3-0.1,7.9,0.2c7.1,0.8,13,3.8,15.6,10.9c2.8,7.5,1.4,14.5-3.9,20.5c-2.5,2.9-5.9,4.3-9.7,4.8c-1.7,0.2-3.4,0.3-5.1,0.3
		c-6.6,0-13.2,0-19.8,0c-1.7,0-3.1-0.6-4-2.2c-1.5-2.7,0.2-6.1,3.3-6.2C173.2,90.1,177,90.2,180.8,90.2
		C180.8,90.2,180.8,90.2,180.8,90.2z"/>
	<path class="st10" d="M61.6,76.1c0.9-0.4,1.5-0.2,1.8,0.6c0.3,0.7,0.7,1.5,1.1,2.2c0.4,0.7,0.5,1.4,0.1,2.1
		c-0.1,0.3-0.3,0.5-0.4,0.8c-0.5,1.2-1.4,1.9-2.8,1.8c-0.2,0-0.4,0.1-0.6,0.1c-1.4,0.5-2.9,1.1-4.3,1.6c-1.3,0.4-2.2,0.1-2.9-1.1
		c-0.4-0.7-0.8-1.4-1.8-1.2c-0.2,0-0.4-0.2-0.5-0.3c-0.4-0.5-0.7-1.1-1-1.6c-0.3-0.5-0.2-0.8,0.4-0.9c0.6-0.1,1.2-0.2,1.7-0.2
		c0.6,0,1.2,0.2,1.5,0.8c0.3,0.5,0.7,1,1,1.5c0.5,0.8,1.3,1,2.2,0.7c0.1,0,0.2-0.1,0.4-0.1c2.2-0.7,2.5-2.1,0.9-3.7
		c-0.3-0.3-0.7-0.6-1.1-0.8c-1.3-0.8-2.5-1.6-2.9-3.2c0-0.2-0.3-0.3-0.5-0.4c-0.1,0.2-0.3,0.4-0.2,0.6c0.2,1.1-0.1,1.5-1.2,1.5
		c-0.9,0-1.9-0.1-2.8-0.1c-1.2,0-2.3,0.2-3.5,0.2c-0.5,0-0.9,0.1-1.4,0c-1.1-0.1-1.7-0.7-1.7-1.8c0-0.9,0.2-1.7,0.2-2.6
		c0-0.4,0.3-0.8-0.3-1c-0.5-0.1-0.6,0.4-0.6,0.7c-0.1,0.7-0.3,1.4-0.4,2.2c-0.4,2.7-1.9,4.5-4.7,5c-1.3,0.2-2.6,0.3-3.9,0.5
		c-1.4,0.2-2.7,0.8-3.7,1.9c-0.2,0.2-0.4,0.4-0.5,0.7c-0.1,0.2-0.1,0.5-0.1,0.8c0.2-0.1,0.5-0.2,0.7-0.4c1.5-1.4,3.2-2,5.2-2.1
		c0.8,0,1.7,0,2.5,0c1.7-0.1,3.1-0.8,4.1-2.2c0.3-0.5,0.7-1,1-1.5c0.6,0.2,0.7,0.5,0.5,1.1c-0.3,0.7-0.7,1.3-1.1,2
		c-0.1,0.1-0.1,0.3-0.3,0.3c-1.7,0.9-3.1,2.4-5.3,1.8c-0.6-0.2-1.3-0.3-2-0.2c-0.6,0.1-1.3,0.4-1.8,0.7c-0.7,0.4-1.2,0.9-1.9,1.2
		c-0.5,0.2-1.2,0.3-1.7,0.2c-0.8-0.1-1.3,0-1.7,0.7c-0.1,0.1-0.2,0.3-0.3,0.4c-0.6,1.1-1.2,1.4-2.5,1.2c-1.4-0.2-1.5-0.3-1-1.7
		c0.2-0.6,0.4-1.1,1.2-1.3c0.3-0.1,0.6-0.4,0.8-0.7c0.5-0.4,0.9-0.9,1.4-1.3c0.9-0.6,1.5-1.2,1.8-2.2c0.4-1.5,0.6-1.4,2.1-1.7
		c0.9-0.1,1.7-0.7,2.5-1.1c0.2-0.1,0.3-0.7,0.2-1c-0.6-1.5-0.9-3-0.9-4.6c0-0.5-0.2-0.7-0.7-0.6c-1.4,0.3-2.7,0.5-4.1,0.1
		c-3.5-1.1-4.6-5.2-2.2-7.9c0.9-1,2-1.8,2.9-2.7c0.3-0.3,0.4-0.7,0.5-1c-0.4-0.2-0.7-0.5-1.1-0.5c-1.1,0-2.2-0.2-3.1-0.9
		c-1.2-1.1-1.6-2.6-0.9-3.9c0.2,0.1,0.5,0.3,0.7,0.4c0.9,0.7,2,1.1,3.1,1.3c0.7,0.1,1.5,0.4,2.1,0.7c1.4,0.7,1.9,2.4,1,3.7
		c-0.4,0.6-0.9,1-1.5,1.5c-0.8,0.7-1.6,1.4-2.4,2.1c-1.1,1.1-1.4,2.7-0.7,4c0.7,1.3,2.2,1.9,3.8,1.6c1.7-0.4,3.1-1.2,4.4-2.2
		c1.5-1.1,2.9-2.3,4.8-2.6c0.7-0.1,1.4-0.1,2.1-0.3c1.3-0.2,2.3-0.9,3.3-1.8c1.3-1.3,2.8-1.9,4.6-1.9c0.6,0,1.3-0.4,1.6-0.8
		c1.2-1.4,2.8-2,4.5-2.6c1.3-0.4,2.6-1,3.8-1.7c2.3-1.5,4.6-1.4,6.7,0.2c3.3,2.5,6.6,5.2,9,8.7c1.2,1.7,1.7,3.5,2.1,5.5
		c0.4,2.1,1.1,4.1,1.7,6.2c0,0.1,0.1,0.3,0.2,0.4c0.8,1,1.5,2.1,2.3,3.1c0.4,0.5,1,0.9,1.6,1.4c0.2,0.1,0.3,0.2,0.5,0.3
		c0,0.1,0,0.1,0,0.2c-0.5,0-0.9,0.1-1.4,0c-1.1-0.3-1.9-1.1-2.5-2c-0.4-0.7-1-1.3-1.5-1.9c-0.2-0.2-0.5-0.3-0.7-0.4
		c-0.1,0.1-0.1,0.2-0.1,0.2c0.6,1.2,1.1,2.4,1.8,3.5c0.5,0.7,1.3,1.1,1.9,1.6c0.3,0.2,0.6,0.4,1.1,0.7c-0.4,0.1-0.5,0.2-0.6,0.2
		c-1.6,0-2.9-0.5-4-1.6c-1-0.9-1-0.9-2-0.1c-0.7,0.6-1.5,0.8-2.4,0.8c-0.9,0-1.9,0.2-2.9,0.4c-0.7,0.1-1.3,0.4-2,0.6
		c-0.5,0.1-1.3,0.2-1.5-0.4c-0.2-0.6-0.2-1.4-0.1-2c0-0.3,0.4-0.6,0.7-1c-0.4,0-0.8,0-1.2,0c0.2-0.5,0.3-0.9,0.5-1.2
		c0.4-0.5,0.9-1,1.3-1.6c0.4-0.6,0.6-1.2,0.9-1.9c-0.2,0-0.4,0-0.6,0c-1,0.2-1.9,0.4-2.9,0.6c-0.2,0-0.4,0.1-0.6,0.1
		c-0.3,0-0.6-0.1-1-0.2c0.1-0.3,0.2-0.6,0.3-0.8c0.5-1,0.8-2.1,0.7-3.3c0-0.2-0.2-0.4-0.4-0.6c-0.2,0.2-0.4,0.4-0.5,0.6
		c-0.2,0.7-0.3,1.4-0.5,2.1c-0.3,1.1-0.9,1.6-2,1.8c-1.3,0.2-1.4,0.5-0.7,1.6c0.4,0.8,0.8,1.6,1.3,2.4c0.5,0.8,0.6,1.6,0.3,2.5
		c-0.1,0.3-0.2,0.6-0.3,0.9c1.1-0.3,1.9-2,1.4-3c-0.4-1-0.9-1.9-1.4-2.8C61.8,76.6,61.7,76.4,61.6,76.1z M72.8,72.4
		c0.3-0.3,0.4-0.5,0.6-0.6c0.6-0.7,0.9-0.7,1.5,0c0.6,0.6,0.8,1.2,0.9,2c0,0.2,0.2,0.3,0.3,0.4c0.1-0.1,0.4-0.2,0.4-0.3
		c0.1-0.5,0.3-1,0.1-1.4c-0.5-1.1-1.2-2.1-1.9-3.1c-0.2-0.3-0.7-0.4-1,0c-0.4,0.7-0.7,1.3-1,2C72.7,71.7,72.8,71.9,72.8,72.4z
		 M65.2,65.2c0.8-1.2,0.5-3.5-0.3-4.3c-0.2-0.2-0.6-0.2-0.9-0.3c0,0.3-0.1,0.7,0,1c0.3,0.9,0.7,1.8,1,2.7
		C65.1,64.6,65.1,64.8,65.2,65.2z M72.8,79.7c0.3,0,0.4,0,0.5,0c0.5-0.1,0.9-0.2,0.9-0.8c0-0.3-0.1-0.6-0.2-0.9
		c-0.4,0.1-0.8,0.2-1.1,0.4c-0.2,0.1-0.3,0.2-0.4,0.4c-0.1,0.2-0.3,0.5-0.2,0.8C72.4,79.6,72.8,79.7,72.8,79.7z"/>
	<path class="st10" d="M81.3,14.2c0.3,0.1,0.5,0.3,0.7,0.4c5.4,2.6,5,9.7,0.8,12.6c-1.4,1-3,1.6-4.7,1.6c-3.9,0-7.8,0-11.6,0
		c-0.1,0-0.3,0-0.5-0.1c0-8.9,0-17.8,0-26.6c0.1,0,0.2-0.1,0.3-0.1c3.7,0,7.3,0,11,0.2c3.3,0.1,5.5,2.1,6.3,5.2
		c0.5,2.3-0.1,4.4-1.6,6.2C81.7,13.8,81.5,14,81.3,14.2z M71.6,6.7c0,0.4,0,0.7,0,1c0,4.1,0,8.1,0,12.2c0,1.2,0,2.4,0,3.7
		c0,0.5,0.2,0.7,0.7,0.7c1.6,0,3.1,0,4.7-0.1c2.5-0.1,3.9-2.5,3-4.8c-0.6-1.4-1.6-2.1-3.1-2.1c-1.1,0-2.3,0-3.4,0c0-1.6,0-3.2,0-4.8
		c0.7,0,1.3,0,1.9,0c1.5-0.1,2.7-1.2,2.8-2.6c0.1-1.5-0.9-2.9-2.3-3.1C74.4,6.6,73.1,6.7,71.6,6.7z"/>
	<path class="st10" d="M53.2,13.7c0-0.5,0-0.7,0-1c0-3.8,0-7.6,0-11.4c0-0.8,0.2-1,1-0.9c1.4,0.1,2.9,0,4.3,0c0,9.5,0,19,0,28.4
		c-1.7,0-3.4,0-5.2,0c0-0.6,0-1.2,0-2C53,27,52.9,27,52.8,27.1c-3.8,3.4-9.6,2.2-12-2.4c-2-3.7-1.2-8.5,1.9-11.2
		c2.8-2.5,6.7-2.6,9.7-0.3C52.6,13.2,52.8,13.4,53.2,13.7z M45.4,19.8c0,2.8,1.5,4.7,3.5,4.9c1.9,0.3,3.7-1,4.3-3
		c0.5-1.8,0.1-3.4-1.3-4.7c-1.2-1-2.5-1.3-3.9-0.6C46.1,17.2,45.4,18.6,45.4,19.8z"/>
	<path class="st9" d="M40.3,61.2c0-0.4,0-0.7,0-1c0-6.9,0-13.9,0-20.8c0-1.8,0.7-3.2,2.4-4c1.5-0.7,3-0.6,4.4,0.4
		c1,0.8,1.6,1.8,1.6,3.1c0,6.6,0,13.2,0,19.8c0,0.2,0,0.4-0.1,0.6C47.2,59.4,46,60,45,61c-1.4,1.4-2.9,2.2-4.9,2.2
		c-1.6,0.1-2.9,0.8-4.2,1.6c-1.1,0.8-2.2,1.6-3.3,2.3c-0.9,0.6-1.9,1.1-3.1,1c-1.5-0.1-2.4-1.3-1.8-2.7c0.3-0.7,0.8-1.3,1.3-1.8
		c0.8-0.8,1.6-1.4,2.4-2.1c0.2-0.2,0.5-0.2,0.8-0.2c2.3,0,4.7,0,7,0C39.6,61.2,39.9,61.2,40.3,61.2z"/>
	<path class="st10" d="M25.3,21.6c-0.1,1.6,0.8,2.8,2.3,3.3c1.8,0.7,3.3,0.1,4.8-1.7c0.2,0.1,0.4,0.2,0.6,0.3
		c1.2,0.6,2.4,1.1,3.8,1.8c-0.7,0.8-1.3,1.6-2.1,2.2c-2.9,2.2-6.1,2.7-9.4,1.4c-3.3-1.2-5.1-3.8-5.5-7.2c-0.7-6,4.2-10.6,9.7-10.1
		c4.6,0.4,8,3.7,7.7,9.5c0,0.6-0.4,0.6-0.8,0.6c-3.4,0-6.8,0-10.2,0C25.9,21.6,25.6,21.6,25.3,21.6z M31.8,18.5
		c0.1-1.8-1.5-3.3-3.3-3.3c-1.8,0-3.3,1.6-3.1,3.3C27.5,18.5,29.6,18.5,31.8,18.5z"/>
	<path class="st10" d="M99.4,12.5c1.8,0,3.4,0,5.2,0c0,0.3,0,0.6,0,0.8c0,3.1-0.1,6.2,0,9.3c0.1,2.4-1,4.2-3,5.5
		c-3.4,2.3-8.5,2-11.6-0.6c-1.5-1.2-2.2-2.8-2.2-4.7c0-3.2,0-6.3,0-9.5c0-0.3,0-0.5,0-0.8c1.8,0,3.5,0,5.3,0c0,0.3,0,0.6,0,0.8
		c0,2.9,0,5.8,0,8.6c0,1.8,1.3,3.1,3.1,3.1c1.8,0,3.1-1.3,3.1-3.1C99.4,18.8,99.4,15.7,99.4,12.5z"/>
	<path class="st10" d="M113,28.9c-1.7,0-3.3,0-4.9,0c-0.1,0-0.3-0.2-0.4-0.4c-0.1-0.2,0-0.4,0-0.6c0-8.8,0-17.6,0-26.4
		c0-0.3,0-0.6,0-0.9c1.8,0,3.5,0,5.2,0C113,10.1,113,19.4,113,28.9z"/>
	<path class="st10" d="M116.9,0.6c1.7,0,3.4,0,5.2,0c0,9.4,0,18.7,0,28.2c-1.7,0-3.4,0-5.2,0C116.9,19.5,116.9,10.1,116.9,0.6z"/>
	<g>
		<path class="st9" d="M186.1,14.8c0-4,0-7.9,0-11.9c0-0.3,0-0.5,0-0.8c0.1-0.9,0.6-1.5,1.6-1.5c4.8,0,9.7,0,14.5,0
			c4.5,0.1,8.8,3.6,9.8,8c0.9,3.9,0.9,7.9-0.1,11.8c-1.2,4.6-5,7.9-9.8,8.3c-2,0.2-4.1,0.1-6.1,0.1c-2.6,0-5.2,0-7.8,0
			c-1.5,0-2-0.6-2-2C186.1,22.9,186.1,18.8,186.1,14.8z M189.3,14.7c0,3.4,0,6.8,0,10.2c0,0.6,0.1,0.8,0.8,0.8c3.6,0,7.2,0,10.8,0
			c3.8,0,6.9-2.5,7.8-6.1c0.8-2.9,0.8-5.8,0.4-8.7c-0.5-4.2-3.5-7.2-8.5-7.1c-3.5,0.1-6.9,0-10.4,0c-0.7,0-0.9,0.2-0.9,0.9
			C189.3,8,189.3,11.4,189.3,14.7z"/>
		<path class="st9" d="M143.4,11.8c0.2-0.3,0.3-0.6,0.5-0.8c3.3-3.3,6.5-6.6,9.8-9.8c0.7-0.7,1.7-0.9,2.3-0.3c0.3,0.2,0.4,0.6,0.5,1
			c0.1,0.3,0.1,0.7,0.1,1.1c0,7.9,0,15.8,0,23.7c0,0.3,0,0.6,0,0.9c-0.1,1-0.7,1.6-1.7,1.6c-0.9,0-1.5-0.7-1.5-1.7
			c0-5.5,0-11,0-16.5c0-1.5,0-3,0-4.7c-0.4,0.3-0.6,0.5-0.8,0.7c-2.6,2.6-5.3,5.3-7.9,7.9c-1.2,1.1-1.9,1.2-3,0
			c-2.7-2.7-5.4-5.4-8.1-8.1c-0.2-0.2-0.4-0.4-0.8-0.7c0,0.5-0.1,0.8-0.1,1.1c0,6.6,0,13.1,0,19.7c0,0.3,0,0.6,0,0.9
			c-0.1,0.9-0.8,1.4-1.7,1.4c-0.8,0-1.5-0.6-1.5-1.5c0-0.1,0-0.3,0-0.4c0-8.3,0-16.6,0-25c0-0.4,0-0.8,0.2-1.1
			c0.5-1.1,1.8-1.2,2.7-0.3c3.4,3.4,6.7,6.7,10.1,10.1C142.8,11.2,143,11.4,143.4,11.8z"/>
		<path class="st9" d="M160.9,14.8c0-3.3-0.1-6.6,0-10c0.1-2.4,2-4.2,4.5-4.2c5.1,0,10.2,0,15.3,0c1,0,1.7,0.6,1.7,1.5
			c0,1-0.6,1.7-1.6,1.7c-2.6,0-5.2,0-7.8,0c-2.5,0-4.9,0-7.4,0.1c-1.1,0-1.4,0.5-1.4,1.6c0,2,0,4,0,6c0,0.7,0.2,1,0.9,1
			c5,0,10,0,14.9,0c0.2,0,0.4,0,0.7,0c0.9,0,1.5,0.7,1.5,1.6c0,0.9-0.6,1.6-1.5,1.6c-0.9,0-1.8,0-2.6,0c-4.2,0-8.5,0-12.7,0
			c-1.1,0-1.1,0-1.1,1.2c0,2.3,0,4.7,0,7c0,1.4,0.4,1.8,1.8,1.8c4.9,0,9.9,0,14.8,0c0.9,0,1.6,0.5,1.7,1.3c0.2,1.1-0.5,1.9-1.6,1.9
			c-1.6,0-3.3,0-4.9,0c-3.4,0-6.8,0-10.2,0c-3,0-4.7-1.7-4.8-4.7C160.9,21,160.9,17.9,160.9,14.8C160.9,14.8,160.9,14.8,160.9,14.8z
			"/>
		<path class="st9" d="M237.1,5.6c-0.9,1.7-1.7,3.2-2.5,4.7c-3,5.8-6,11.5-9,17.3c-0.5,0.9-1.2,1.3-1.9,1.1c-1.2-0.3-1.6-1.4-1-2.5
			c1.3-2.4,2.5-4.8,3.8-7.3c3-5.7,6-11.4,9-17.2c0.2-0.4,0.4-0.7,0.7-1c0.8-0.7,2-0.4,2.5,0.7c1.5,2.8,3,5.7,4.4,8.5
			c2.8,5.4,5.7,10.8,8.5,16.2c0.2,0.4,0.4,1,0.4,1.4c0,0.8-0.6,1.3-1.4,1.4c-0.6,0.1-1.3-0.2-1.7-0.9c-1-1.9-2-3.8-3-5.7
			c-2.8-5.4-5.6-10.7-8.4-16.1C237.5,6.2,237.3,6,237.1,5.6z"/>
		<path class="st9" d="M219.4,14.8c0,4.1,0,8.2,0,12.3c0,1.4-1.2,2.3-2.3,1.7c-0.7-0.3-0.9-0.9-0.9-1.6c0-1.9,0-3.7,0-5.6
			c0-6.4,0-12.8,0-19.2c0-1.1,0.6-1.8,1.6-1.8c1.1,0,1.7,0.6,1.7,1.8C219.4,6.5,219.4,10.7,219.4,14.8z"/>
	</g>
	<path class="st10" d="M54.9,79.8c0.7-0.1,1.4-0.2,2.1-0.1c0.2,0,0.5,0.2,0.6,0.4c0.2,0.4,0.3,0.9,0.6,1.6c-0.5,0.2-1,0.4-1.5,0.5
		c-0.2,0-0.5-0.1-0.6-0.2C55.8,81.3,55.4,80.6,54.9,79.8z"/>
	<path class="st10" d="M22.3,86.6c-0.3,0-0.5-0.1-0.7-0.1c-0.9-0.2-0.9-0.3-0.5-1.1c0.1-0.4,0.1-0.8,0.2-1.1
		c0.2-0.4,0.4-0.8,0.7-1.1c0.1-0.1,0.5,0.1,0.7,0.2c0.4,0.3,0.4,0.7,0.2,1.2C22.6,85.2,22.5,85.9,22.3,86.6z"/>
	<path class="st10" d="M23.9,83c-0.2-0.1-0.6-0.3-0.6-0.5c0-0.3,0.1-0.7,0.3-0.9c0.3-0.3,0.8-0.6,1.2-0.8c0.2-0.1,0.6-0.1,0.7,0
		c0.1,0.1,0.2,0.5,0.1,0.7C25.3,82.2,24.9,82.9,23.9,83z"/>
	<path class="st5" d="M72.8,72.4c0-0.4-0.1-0.7-0.1-0.9c0.3-0.7,0.6-1.4,1-2c0.3-0.5,0.7-0.4,1,0c0.7,1,1.4,2,1.9,3.1
		c0.2,0.4,0,0.9-0.1,1.4c0,0.1-0.3,0.2-0.4,0.3c-0.1-0.1-0.3-0.3-0.3-0.4c-0.1-0.8-0.3-1.5-0.9-2c-0.7-0.7-0.9-0.7-1.5,0
		C73.3,71.9,73.1,72.1,72.8,72.4z"/>
	<path class="st5" d="M65.2,65.2c-0.1-0.4-0.2-0.6-0.3-0.9c-0.3-0.9-0.7-1.8-1-2.7c-0.1-0.3,0-0.7,0-1c0.3,0.1,0.7,0.1,0.9,0.3
		C65.7,61.7,66,64,65.2,65.2z"/>
	<path class="st5" d="M72.8,79.7c-0.1,0-0.5-0.1-0.5-0.2c-0.1-0.2,0.1-0.5,0.2-0.8c0.1-0.2,0.2-0.3,0.4-0.4c0.4-0.2,0.7-0.2,1.1-0.4
		c0.1,0.3,0.2,0.6,0.2,0.9c0,0.5-0.4,0.7-0.9,0.8C73.3,79.7,73.1,79.7,72.8,79.7z"/>
	<path class="st5" d="M45.4,19.8c0-1.2,0.8-2.6,2.5-3.4c1.4-0.7,2.8-0.4,3.9,0.6c1.4,1.3,1.8,2.9,1.3,4.7c-0.6,2-2.4,3.3-4.3,3
		C46.8,24.5,45.4,22.6,45.4,19.8z"/>
	<path class="st5" d="M189.3,14.7c0-3.3,0-6.7,0-10c0-0.7,0.2-0.9,0.9-0.9c3.5,0,6.9,0.1,10.4,0c5-0.1,8,2.9,8.5,7.1
		c0.4,2.9,0.4,5.8-0.4,8.7c-1,3.6-4.1,6.1-7.8,6.1c-3.6,0-7.2,0-10.8,0c-0.6,0-0.8-0.2-0.8-0.8C189.3,21.5,189.3,18.1,189.3,14.7z"
		/>
</g>
</svg>
