<?xml version="1.0" standalone="no"?>
<!DOCTYPE svg PUBLIC "-//W3C//DTD SVG 1.1//EN" "http://www.w3.org/Graphics/SVG/1.1/DTD/svg11.dtd">
<svg width="100%" height="100%" viewBox="0 0 2363 905" version="1.1" xmlns="http://www.w3.org/2000/svg" xmlns:xlink="http://www.w3.org/1999/xlink" xml:space="preserve" style="fill-rule:evenodd;clip-rule:evenodd;stroke-linejoin:round;stroke-miterlimit:1.41421;">
    <g transform="matrix(4.16667,0,0,4.16667,0,0)">
        <rect x="228.534" y="0.812" width="4.258" height="216.187" style="fill:rgb(64,63,65);"/>
        <path d="M273.692,117.736L268.257,125.563C272.658,129.316 279.385,132.938 289.608,132.938C300.797,132.938 308.433,128.087 308.433,118.253C308.433,105.574 296.205,104.603 288.506,102.987C284.238,102.08 279.126,101.303 279.126,97.94C279.126,94.187 284.302,93.282 287.277,93.282C291.87,93.282 296.594,95.223 300.668,98.135L306.362,90.372C301.186,86.555 295.948,84.032 287.665,84.032C279.321,84.032 268.905,87.071 268.905,98.329C268.905,109.65 281.713,111.848 287.665,112.819C293.164,113.789 298.21,114.761 298.21,118.512C298.21,121.166 295.105,123.752 289.478,123.752C284.043,123.752 277.121,120.582 273.692,117.736ZM347.57,93.605L347.57,84.743L309.789,84.743L309.789,93.605L323.57,93.605L323.57,132.032L333.855,132.032L333.855,93.605L347.57,93.605ZM340.841,132.032L352.098,132.032L355.722,124.787L377.782,124.787L381.534,132.032L392.724,132.032L366.783,83.254L340.841,132.032ZM360.766,116.054L366.783,103.698L372.864,116.054L360.766,116.054ZM405.664,132.032L405.664,117.283L412.652,117.283C416.534,122.458 420.09,127.182 423.973,132.032L436.2,132.032C432.382,126.986 428.047,121.294 423.973,116.184C429.86,113.66 433.611,108.031 433.611,101.173C433.611,91.472 426.689,84.743 416.534,84.743L395.507,84.743L395.507,132.032L405.664,132.032ZM405.664,108.421L405.664,93.605L416.534,93.605C422.548,93.605 423.455,98.717 423.455,101.173C423.455,106.09 419.702,108.421 416.534,108.421L405.664,108.421ZM475.403,93.605L475.403,84.743L437.622,84.743L437.622,93.605L451.402,93.605L451.402,132.032L461.689,132.032L461.689,93.605L475.403,93.605ZM501.464,132.873C514.273,132.873 522.555,124.981 522.555,112.883L522.555,84.809L512.331,84.809L512.331,112.883C512.331,121.812 505.476,124.076 501.464,124.076C497.325,124.076 490.465,121.812 490.465,112.883L490.465,84.809L480.245,84.809L480.245,112.883C480.245,124.981 488.59,132.873 501.464,132.873ZM547.33,84.743L528.117,84.743L528.117,132.032L538.339,132.032L538.339,118.253L547.266,118.253C559.946,118.253 566.414,111.008 566.414,101.691C566.414,92.312 559.234,84.743 547.33,84.743ZM548.753,109.391L538.339,109.391L538.339,93.605L547.718,93.605C553.217,93.605 556.129,97.682 556.129,101.691C556.129,105.574 553.864,109.391 548.753,109.391Z" style="fill:rgb(64,63,65);fill-rule:nonzero;"/>
        <path d="M273.692,53.044L268.257,60.871C272.658,64.624 279.385,68.245 289.608,68.245C300.797,68.245 308.433,63.395 308.433,53.561C308.433,40.882 296.205,39.911 288.506,38.295C284.238,37.387 279.126,36.611 279.126,33.248C279.126,29.495 284.302,28.59 287.277,28.59C291.87,28.59 296.594,30.53 300.668,33.442L306.362,25.68C301.186,21.862 295.948,19.34 287.665,19.34C279.321,19.34 268.905,22.379 268.905,33.636C268.905,44.958 281.713,47.156 287.665,48.127C293.164,49.097 298.21,50.068 298.21,53.819C298.21,56.474 295.105,59.06 289.478,59.06C284.043,59.06 277.121,55.89 273.692,53.044ZM374.483,20.115L363.614,20.115L354.299,44.635L341.878,18.887L329.457,44.635L320.334,20.115L309.338,20.115L328.229,69.088L341.878,41.011L355.399,69.088L374.483,20.115ZM390.719,20.051L380.497,20.051L380.497,67.342L390.719,67.342L390.719,20.051ZM404.24,53.044L398.806,60.871C403.205,64.624 409.933,68.245 420.156,68.245C431.345,68.245 438.981,63.395 438.981,53.561C438.981,40.882 426.754,39.911 419.056,38.295C414.785,37.387 409.674,36.611 409.674,33.248C409.674,29.495 414.85,28.59 417.826,28.59C422.419,28.59 427.142,30.53 431.216,33.442L436.909,25.68C431.736,21.862 426.495,19.34 418.213,19.34C409.868,19.34 399.452,22.379 399.452,33.636C399.452,44.958 412.261,47.156 418.213,48.127C423.712,49.097 428.759,50.068 428.759,53.819C428.759,56.474 425.655,59.06 420.026,59.06C414.591,59.06 407.669,55.89 404.24,53.044ZM449.977,53.044L444.542,60.871C448.943,64.624 455.67,68.245 465.892,68.245C477.082,68.245 484.718,63.395 484.718,53.561C484.718,40.882 472.491,39.911 464.791,38.295C460.523,37.387 455.411,36.611 455.411,33.248C455.411,29.495 460.587,28.59 463.562,28.59C468.156,28.59 472.879,30.53 476.953,33.442L482.647,25.68C477.471,21.862 472.232,19.34 463.951,19.34C455.606,19.34 445.19,22.379 445.19,33.636C445.19,44.958 457.998,47.156 463.951,48.127C469.45,49.097 474.495,50.068 474.495,53.819C474.495,56.474 471.389,59.06 465.763,59.06C460.328,59.06 453.407,55.89 449.977,53.044Z" style="fill:rgb(64,63,65);fill-rule:nonzero;"/>
        <path d="M318.667,174.12C318.667,174.965 318.603,175.875 318.537,176.85C317.497,189.005 306.512,197.651 293.706,197.651C279.601,197.651 268.096,186.6 268.096,173.015C268.096,159.495 279.601,148.379 293.706,148.379C302.547,148.379 310.542,152.865 315.223,159.82L306.382,164.955C303.457,160.924 298.842,157.74 293.706,157.74C285.256,157.74 278.301,164.89 278.301,173.015C278.301,181.14 285.256,188.356 293.706,188.356C299.817,188.356 306.057,184.39 307.552,179.32L289.807,179.32L289.807,170.285L318.537,170.285C318.603,171.585 318.667,173.08 318.667,174.12Z" style="fill:rgb(64,63,65);fill-rule:nonzero;"/>
        <path d="M344.927,173.015C348.112,173.015 351.882,170.675 351.882,165.735C351.882,163.265 350.972,158.129 344.927,158.129L334.006,158.129L334.006,173.015L344.927,173.015ZM323.801,196.741L323.801,149.224L344.927,149.224C355.132,149.224 362.087,155.985 362.087,165.735C362.087,172.625 358.318,178.28 352.402,180.815C356.497,185.951 360.853,191.67 364.688,196.741L352.402,196.741C348.502,191.866 344.927,187.121 341.027,181.92L334.006,181.92L334.006,196.741L323.801,196.741Z" style="fill:rgb(64,63,65);fill-rule:nonzero;"/>
        <path d="M376.67,172.95C376.67,181.14 383.561,188.356 392.011,188.356C400.527,188.356 407.352,181.14 407.352,172.95C407.352,164.825 400.527,157.674 392.011,157.674C383.561,157.674 376.67,164.825 376.67,172.95ZM366.465,172.95C366.465,159.429 377.906,148.314 392.011,148.314C406.182,148.314 417.687,159.429 417.687,172.95C417.687,186.6 406.182,197.651 392.011,197.651C377.906,197.651 366.465,186.6 366.465,172.95Z" style="fill:rgb(64,63,65);fill-rule:nonzero;"/>
        <path d="M421.39,177.5L421.39,149.29L431.66,149.29L431.66,177.5C431.66,186.47 438.55,188.746 442.71,188.746C446.741,188.746 453.631,186.47 453.631,177.5L453.631,149.29L463.902,149.29L463.902,177.5C463.902,189.656 455.581,197.586 442.71,197.586C429.775,197.586 421.39,189.656 421.39,177.5Z" style="fill:rgb(64,63,65);fill-rule:nonzero;"/>
        <path d="M497.31,166.254C497.31,162.225 494.385,158.129 488.86,158.129L479.435,158.129L479.435,173.99L489.9,173.99C495.035,173.99 497.31,170.155 497.31,166.254ZM507.646,166.254C507.646,175.615 501.146,182.895 488.405,182.895L479.435,182.895L479.435,196.741L469.164,196.741L469.164,149.224L488.47,149.224C500.43,149.224 507.646,156.83 507.646,166.254Z" style="fill:rgb(64,63,65);fill-rule:nonzero;"/>
        <path d="M65.452,89.524L32.722,70.628L0.205,89.524L32.935,108.421L65.452,89.524Z" style="fill:url(#_Linear1);"/>
        <path d="M195.808,89.502L163.077,70.605L130.561,89.502L163.29,108.398L195.808,89.502Z" style="fill:url(#_Linear2);"/>
        <path d="M65.563,127.279L98.293,146.174L130.811,127.278L98.081,108.381L65.563,127.279Z" style="fill:url(#_Linear3);"/>
        <path d="M65.341,202.486L97.857,183.589L97.965,145.98L65.447,164.876L65.341,202.486Z" style="fill:url(#_Linear4);"/>
        <path d="M130.59,89.482L163.107,70.585L163.214,32.976L130.697,51.874L130.59,89.482Z" style="fill:url(#_Linear5);"/>
        <path d="M98.18,70.781L65.663,89.678L65.556,127.286L98.073,108.389L98.18,70.781Z" style="fill:url(#_Linear6);"/>
        <path d="M97.857,183.594L130.588,202.491L130.695,164.882L97.964,145.985L97.857,183.594Z" style="fill:rgb(73,76,77);fill-rule:nonzero;"/>
        <path d="M32.615,70.6L65.345,89.496L65.451,51.888L32.722,32.991L32.615,70.6Z" style="fill:rgb(73,76,77);fill-rule:nonzero;"/>
        <path d="M130.909,89.676L98.18,70.779L98.073,108.388L130.802,127.285L130.909,89.676Z" style="fill:rgb(73,76,77);fill-rule:nonzero;"/>
        <path d="M130.69,51.883L163.207,32.985L130.487,14.095L97.97,32.991L65.239,14.095L32.722,32.991L65.452,51.889L32.935,70.785L65.655,89.676L98.173,70.779L130.903,89.676L163.419,70.779L130.69,51.883Z" style="fill:url(#_Linear7);"/>
        <path d="M65.556,127.278L65.663,89.67L32.942,70.778L32.836,108.387L0.106,89.491L0,127.1L32.729,145.997L32.623,183.605L65.343,202.496L65.449,164.887L98.18,183.784L98.286,146.174L65.556,127.278Z" style="fill:rgb(73,76,77);fill-rule:nonzero;"/>
        <path d="M163.311,108.385L163.417,70.776L130.909,89.668L130.802,127.277L98.286,146.173L98.18,183.783L130.697,164.885L130.59,202.495L163.098,183.603L163.204,145.995L195.722,127.097L195.828,89.488L163.311,108.385Z" style="fill:url(#_Linear8);"/>
    </g>
    <defs>
        <linearGradient id="_Linear1" x1="0" y1="0" x2="1" y2="0" gradientUnits="userSpaceOnUse" gradientTransform="matrix(65.2468,0,0,65.2468,0.205855,89.5242)"><stop offset="0%" style="stop-color:rgb(142,145,145);stop-opacity:1"/><stop offset="100%" style="stop-color:rgb(104,107,108);stop-opacity:1"/></linearGradient>
        <linearGradient id="_Linear2" x1="0" y1="0" x2="1" y2="0" gradientUnits="userSpaceOnUse" gradientTransform="matrix(65.2463,0,0,65.2463,130.561,89.5012)"><stop offset="0%" style="stop-color:rgb(142,145,145);stop-opacity:1"/><stop offset="100%" style="stop-color:rgb(104,107,108);stop-opacity:1"/></linearGradient>
        <linearGradient id="_Linear3" x1="0" y1="0" x2="1" y2="0" gradientUnits="userSpaceOnUse" gradientTransform="matrix(65.2463,0,0,65.2463,65.5642,127.278)"><stop offset="0%" style="stop-color:rgb(142,145,145);stop-opacity:1"/><stop offset="100%" style="stop-color:rgb(104,107,108);stop-opacity:1"/></linearGradient>
        <linearGradient id="_Linear4" x1="0" y1="0" x2="1" y2="0" gradientUnits="userSpaceOnUse" gradientTransform="matrix(32.6234,0,0,32.6234,65.3413,174.233)"><stop offset="0%" style="stop-color:rgb(215,217,216);stop-opacity:1"/><stop offset="100%" style="stop-color:rgb(163,166,166);stop-opacity:1"/></linearGradient>
        <linearGradient id="_Linear5" x1="0" y1="0" x2="1" y2="0" gradientUnits="userSpaceOnUse" gradientTransform="matrix(32.6239,0,0,32.6239,130.59,61.2289)"><stop offset="0%" style="stop-color:rgb(215,217,216);stop-opacity:1"/><stop offset="100%" style="stop-color:rgb(163,166,166);stop-opacity:1"/></linearGradient>
        <linearGradient id="_Linear6" x1="0" y1="0" x2="1" y2="0" gradientUnits="userSpaceOnUse" gradientTransform="matrix(32.6234,0,0,32.6234,65.5565,99.0334)"><stop offset="0%" style="stop-color:rgb(215,217,216);stop-opacity:1"/><stop offset="100%" style="stop-color:rgb(163,166,166);stop-opacity:1"/></linearGradient>
        <linearGradient id="_Linear7" x1="0" y1="0" x2="1" y2="0" gradientUnits="userSpaceOnUse" gradientTransform="matrix(118.245,55.6761,-55.6761,118.245,44.5812,26.6991)"><stop offset="0%" style="stop-color:rgb(142,145,145);stop-opacity:1"/><stop offset="100%" style="stop-color:rgb(104,107,108);stop-opacity:1"/></linearGradient>
        <linearGradient id="_Linear8" x1="0" y1="0" x2="1" y2="0" gradientUnits="userSpaceOnUse" gradientTransform="matrix(120.561,-12.0804,12.0804,120.561,99.0263,141.443)"><stop offset="0%" style="stop-color:rgb(215,217,216);stop-opacity:1"/><stop offset="100%" style="stop-color:rgb(163,166,166);stop-opacity:1"/></linearGradient>
    </defs>
</svg>
