<svg height="288.25333" viewBox="0 0 857.65332 288.25333" width="857.65332" xmlns="http://www.w3.org/2000/svg"><g transform="matrix(.13333333 0 0 -.13333333 0 288.25333)"><g fill="#fff"><path d="m2327.92 0h-42.57v2161.88h42.57z" fill-rule="evenodd"/><path d="m2926.46 1533.62c70.67 0 109.67 32.5 109.67 65.8 0 47.12-63.37 59.31-132.42 71.49-74.74 12.19-235.58 39.81-235.58 181.97 0 141.36 130.79 179.54 235.58 179.54 103.99 0 169.79-31.68 234.78-79.61l-71.49-97.49c-51.18 36.56-110.48 60.93-168.16 60.93-37.37 0-102.36-11.38-102.36-58.49 0-42.25 64.18-51.99 117.79-63.37 96.68-20.31 250.22-32.49 250.22-191.72 0-123.48-95.86-184.41-236.4-184.41-128.36 0-212.85 45.5-268.09 92.62l68.24 98.29c43.05-35.75 129.98-75.55 198.22-75.55"/><path d="m3697.37 1407.7-169.79 352.57-171.41-352.57-237.21 614.97h138.1l114.54-307.89 155.98 323.33 155.97-323.33 116.99 307.89h136.48z"/><path d="m3988.13 2023.48h128.36v-593.85h-128.36z"/><path d="m4460.1 1533.62c70.67 0 109.66 32.5 109.66 65.8 0 47.12-63.36 59.31-132.41 71.49-74.73 12.19-235.58 39.81-235.58 181.97 0 141.36 130.79 179.54 235.58 179.54 103.99 0 169.79-31.68 234.78-79.61l-71.49-97.49c-51.18 36.56-110.49 60.93-168.16 60.93-37.37 0-102.36-11.38-102.36-58.49 0-42.25 64.18-51.99 117.79-63.37 96.68-20.31 250.21-32.49 250.21-191.72 0-123.48-95.86-184.41-236.39-184.41-128.36 0-212.85 45.5-268.1 92.62l68.24 98.29c43.06-35.75 129.98-75.55 198.23-75.55"/><path d="m4993.78 1533.62c70.67 0 109.67 32.5 109.67 65.8 0 47.12-63.36 59.31-132.42 71.49-74.74 12.19-235.58 39.81-235.58 181.97 0 141.36 130.79 179.54 235.58 179.54 103.99 0 169.79-31.68 234.78-79.61l-71.5-97.49c-51.16 36.56-110.47 60.93-168.15 60.93-37.37 0-102.36-11.38-102.36-58.49 0-42.25 64.18-51.99 117.79-63.37 96.67-20.31 250.21-32.49 250.21-191.72 0-123.48-95.85-184.41-236.4-184.41-128.35 0-212.84 45.5-268.09 92.62l68.25 98.29c43.05-35.75 129.98-75.55 198.22-75.55"/><path d="m2926.46 890.898c70.67 0 109.67 32.5 109.67 65.801 0 47.121-63.37 59.311-132.42 71.491-74.74 12.19-235.58 39.81-235.58 181.98 0 141.36 130.79 179.53 235.58 179.53 103.99 0 169.79-31.68 234.78-79.61l-71.49-97.49c-51.18 36.56-110.48 60.94-168.16 60.94-37.37 0-102.36-11.38-102.36-58.49 0-42.25 64.18-52 117.79-63.38 96.68-20.3 250.22-32.49 250.22-191.721 0-123.469-95.86-184.41-236.4-184.41-128.36 0-212.85 45.5-268.09 92.621l68.24 98.289c43.05-35.75 129.98-75.551 198.22-75.551"/><path d="m3443.08 1269.47v-482.56h-129.17v482.56h-173.03v111.3h474.43v-111.3z"/><path d="m3892.29 987.57-76.35 155.17-75.56-155.17zm-76.35 411.88 325.75-612.528h-140.53l-47.12 90.976h-277.02l-45.5-90.976h-141.35z"/><path d="m4400 1083.44c39.79 0 86.92 29.24 86.92 90.99 0 30.87-11.37 95.05-86.92 95.05h-136.49v-186.04zm-264.02-296.518v593.848h264.02c127.54 0 214.46-84.49 214.46-206.34 0-86.12-47.13-156.8-121.04-188.481 51.18-64.179 105.61-135.66 153.54-199.027h-153.54c-48.74 60.918-93.42 120.226-142.16 185.219h-87.75v-185.219z"/><path d="m4926.38 1269.47v-482.56h-129.17v482.56h-173.04v111.3h474.43v-111.3z"/><path d="m5136.75 1027.38v352.58h128.35v-352.58c0-112.11 86.11-140.54 138.1-140.54 50.37 0 136.49 28.43 136.49 140.54v352.58h128.35v-352.58c0-151.911-104-251.021-264.84-251.021-161.67 0-266.45 99.11-266.45 251.021"/><path d="m6113.98 1167.93c0 50.37-36.56 101.55-105.61 101.55h-117.8v-198.22h130.8c64.18 0 92.61 47.92 92.61 96.67m129.17 0c0-116.99-81.24-207.969-240.47-207.969h-112.11v-173.051h-128.35v593.86h241.27c149.49 0 239.66-95.05 239.66-212.84"/><path d="m2815.16 495.949h283.52v-111.301h-283.52v-240.457h-129.17v593.848h450.06v-111.301h-320.89z"/><path d="m3426.04 344.84-76.36 155.18-75.55-155.18zm-76.36 411.89 325.76-612.531h-140.54l-47.12 90.981h-277.01l-45.5-90.981h-141.35z"/><path d="m3956.49 132.809c-176.29 0-320.08 138.121-320.08 307.89 0 168.992 143.79 307.082 320.08 307.082 119.43 0 225.03-65.801 281.89-162.472l-119.41-46.309c-35.75 51.191-96.68 92.621-162.48 92.621-105.61 0-190.91-89.359-190.91-190.922 0-101.539 85.3-191.711 190.91-191.711 65.8 0 126.73 42.242 162.48 94.231l119.41-46.309c-56.86-98.289-162.46-164.101-281.89-164.101"/><path d="m4521.05 626.738v-482.547h-129.17v482.547h-173.03v111.301h474.42v-111.301z"/><path d="m4815.09 441.52c0-102.348 86.11-192.532 191.72-192.532 106.4 0 191.71 90.184 191.71 192.532 0 101.55-85.31 190.91-191.71 190.91-105.61 0-191.72-89.36-191.72-190.91m-127.55 0c0 168.98 142.98 307.89 319.27 307.89 177.09 0 320.88-138.91 320.88-307.89 0-170.598-143.79-308.711-320.88-308.711-176.29 0-319.27 138.113-319.27 308.711"/><path d="m5655.85 440.699c39.8 0 86.92 29.25 86.92 91 0 30.883-11.38 95.051-86.92 95.051h-136.49v-186.051zm-264.03-296.5v593.84h264.03c127.54 0 214.46-84.48 214.46-206.34 0-86.109-47.12-156.801-121.04-188.48 51.18-64.18 105.6-135.649 153.54-199.02h-153.54c-48.74 60.922-93.42 120.223-142.17 185.211h-87.74v-185.211z"/><path d="m6196.84 369.219v-225.028h-128.35v225.028l-233.96 368.011h150.28l147.85-239.648 149.49 239.648h150.29z"/></g><g fill="#3074b9"><path d="m654.531 1274.76-327.301 188.97-325.17141-188.97 327.30041-188.96z"/><path d="m1958.08 1274.99-327.29 188.96-325.18-188.96 327.3-188.95z"/><path d="m655.648 897.219 327.29-188.957 325.172 188.957-327.29 188.961z"/></g><path d="m653.418 145.148 325.168 188.961 1.07 376.09-325.172-188.969z" fill="#aec1db"/><path d="m1305.9 1275.18 325.18 188.97 1.06 376.1-325.17-188.98z" fill="#aec1db"/><path d="m981.805 1462.19-325.172-188.96-1.067-376.082 325.18 188.952z" fill="#aec1db"/><path d="m978.582 334.059 327.298-188.95 1.07 376.071-327.298 188.968z" fill="#113e5d"/><path d="m326.16 1464.02 327.289-188.97 1.071 376.08-327.301 188.96z" fill="#113e5d"/><path d="m1309.1 1273.24-327.295 188.97-1.071-376.09 327.316-188.948z" fill="#113e5d"/><path d="m1306.91 1651.18 325.17 188.96-327.21 188.92-325.175-188.97-327.3 188.97-325.165-188.97 327.301-188.96-325.172-188.98 327.207-188.91 325.161 188.97 327.303-188.96 325.17 188.97z" fill="#3580cb"/><path d="m655.57 897.219 1.059 376.091-327.195 188.91-1.067-376.08-327.30059 188.96-1.06641-376.088 327.297-188.973-1.067-376.078 327.211-188.922 1.071 376.09 327.297-188.969 1.058 376.102z" fill="#14476b"/><path d="m1633.11 1086.15 1.07 376.09-325.08-188.91-1.05-376.092-325.175-188.968-1.07-376.079 325.175 188.95-1.08-376.071 325.08 188.91 1.07 376.09 325.18 188.95 1.06 376.11z" fill="#bfd4f0"/></g></svg>