<?xml version="1.0" encoding="utf-8"?>
<!-- Generator: Adobe Illustrator 23.0.1, SVG Export Plug-In . SVG Version: 6.00 Build 0)  -->
<svg version="1.1" id="Layer_1" xmlns="http://www.w3.org/2000/svg" xmlns:xlink="http://www.w3.org/1999/xlink" height="200px"
	 viewBox="0 0 566.41 216.19" style="enable-background:new 0 0 566.41 216.19;" xml:space="preserve">
<style type="text/css">
	.st0{fill-rule:evenodd;clip-rule:evenodd;fill:#3C3C3B;}
	.st1{fill:#E28E47;}
	.st2{fill:#F4C75F;}
	.st3{fill:#8B3C3E;}
	.st4{fill:#3C3C3B;}
</style>
<rect x="228.53" class="st0" width="4.26" height="216.19"/>
<polyline class="st1" points="65.45,88.71 32.72,69.82 0.21,88.71 32.94,107.61 65.45,88.71 "/>
<polyline class="st1" points="195.81,88.69 163.08,69.79 130.56,88.69 163.29,107.59 195.81,88.69 "/>
<polyline class="st1" points="65.56,126.47 98.29,145.36 130.81,126.47 98.08,107.57 65.56,126.47 "/>
<polyline class="st2" points="65.34,201.67 97.86,182.78 97.96,145.17 65.45,164.06 65.34,201.67 "/>
<polyline class="st2" points="130.59,88.67 163.11,69.77 163.21,32.16 130.7,51.06 130.59,88.67 "/>
<polyline class="st2" points="98.18,69.97 65.66,88.87 65.56,126.47 98.07,107.58 98.18,69.97 "/>
<polyline class="st3" points="97.86,182.78 130.59,201.68 130.69,164.07 97.96,145.17 97.86,182.78 "/>
<polyline class="st3" points="32.62,69.79 65.35,88.68 65.45,51.07 32.72,32.18 32.62,69.79 "/>
<polyline class="st3" points="130.91,88.86 98.18,69.97 98.07,107.58 130.8,126.47 130.91,88.86 "/>
<polygon class="st1" points="130.69,51.07 163.21,32.17 130.49,13.28 97.97,32.18 65.24,13.28 32.72,32.18 65.45,51.08 32.94,69.97 
	65.66,88.86 98.17,69.97 130.9,88.86 163.42,69.97 "/>
<polygon class="st3" points="65.56,126.47 65.66,88.86 32.94,69.97 32.84,107.57 0.11,88.68 0,126.29 32.73,145.18 32.62,182.79 
	65.34,201.68 65.45,164.08 98.18,182.97 98.29,145.36 "/>
<polygon class="st2" points="163.31,107.57 163.42,69.96 130.91,88.86 130.8,126.46 98.29,145.36 98.18,182.97 130.7,164.07 
	130.59,201.68 163.1,182.79 163.2,145.18 195.72,126.29 195.83,88.68 "/>
<g>
	<path class="st4" d="M447.13,148.62h-10.16v20.05h-22.19v-20.05h-10.16v47.29h10.16v-18.37h22.19v18.37h10.16V148.62z
		 M398.87,183.75l-9.51-3.69c-2.85,4.14-7.7,7.5-12.94,7.5c-8.41,0-15.2-7.18-15.2-15.27c0-8.09,6.79-15.2,15.2-15.2
		c5.24,0,10.09,3.3,12.94,7.37l9.51-3.69c-4.53-7.7-12.94-12.94-22.45-12.94c-14.04,0-25.49,11-25.49,24.45
		c0,13.52,11.45,24.52,25.49,24.52C385.93,196.82,394.34,191.58,398.87,183.75 M321.11,157.49h25.62v-8.86h-35.84v47.29h35.84v-8.86
		h-25.62v-10.09h22.64v-8.93h-22.64V157.49z M305.97,157.49v-8.86h-37.78v8.86h13.78v38.43h10.29v-38.43H305.97z"/>
	<path class="st4" d="M548.75,108.58h-10.41V92.79h9.38c5.5,0,8.41,4.08,8.41,8.09C556.13,104.76,553.86,108.58,548.75,108.58
		 M547.33,83.93h-19.21v47.29h10.22v-13.78h8.93c12.68,0,19.15-7.25,19.15-16.56C566.41,91.5,559.23,83.93,547.33,83.93
		 M501.46,132.06c12.81,0,21.09-7.89,21.09-19.99V84h-10.22v28.08c0,8.93-6.86,11.19-10.87,11.19c-4.14,0-11-2.26-11-11.19V84
		h-10.22v28.08C480.25,124.17,488.59,132.06,501.46,132.06 M475.4,92.79v-8.86h-37.78v8.86h13.78v38.43h10.29V92.79H475.4z
		 M405.66,107.61V92.79h10.87c6.01,0,6.92,5.11,6.92,7.57c0,4.92-3.75,7.25-6.92,7.25H405.66z M405.66,131.22v-14.75h6.99
		c3.88,5.18,7.44,9.9,11.32,14.75h12.23c-3.82-5.05-8.15-10.74-12.23-15.85c5.89-2.52,9.64-8.15,9.64-15.01
		c0-9.7-6.92-16.43-17.08-16.43h-21.03v47.29H405.66z M360.77,115.24l6.02-12.36l6.08,12.36H360.77z M340.84,131.22h11.26l3.62-7.25
		h22.06l3.75,7.25h11.19l-25.94-48.78L340.84,131.22z M347.57,92.79v-8.86h-37.78v8.86h13.78v38.43h10.28V92.79H347.57z
		 M273.69,116.92l-5.43,7.83c4.4,3.75,11.13,7.37,21.35,7.37c11.19,0,18.83-4.85,18.83-14.68c0-12.68-12.23-13.65-19.93-15.27
		c-4.27-0.91-9.38-1.68-9.38-5.05c0-3.75,5.18-4.66,8.15-4.66c4.59,0,9.32,1.94,13.39,4.85l5.69-7.76
		c-5.18-3.82-10.41-6.34-18.7-6.34c-8.34,0-18.76,3.04-18.76,14.3c0,11.32,12.81,13.52,18.76,14.49c5.5,0.97,10.55,1.94,10.55,5.69
		c0,2.65-3.11,5.24-8.73,5.24C284.04,122.94,277.12,119.77,273.69,116.92"/>
	<path class="st4" d="M449.98,52.23l-5.43,7.83c4.4,3.75,11.13,7.37,21.35,7.37c11.19,0,18.83-4.85,18.83-14.68
		c0-12.68-12.23-13.65-19.93-15.27c-4.27-0.91-9.38-1.68-9.38-5.05c0-3.75,5.18-4.66,8.15-4.66c4.59,0,9.32,1.94,13.39,4.85
		l5.69-7.76c-5.18-3.82-10.41-6.34-18.7-6.34c-8.34,0-18.76,3.04-18.76,14.3c0,11.32,12.81,13.52,18.76,14.49
		c5.5,0.97,10.55,1.94,10.55,5.69c0,2.65-3.11,5.24-8.73,5.24C460.33,58.25,453.41,55.08,449.98,52.23 M404.24,52.23l-5.43,7.83
		c4.4,3.75,11.13,7.37,21.35,7.37c11.19,0,18.83-4.85,18.83-14.68c0-12.68-12.23-13.65-19.92-15.27c-4.27-0.91-9.38-1.68-9.38-5.05
		c0-3.75,5.18-4.66,8.15-4.66c4.59,0,9.32,1.94,13.39,4.85l5.69-7.76c-5.17-3.82-10.41-6.34-18.7-6.34
		c-8.34,0-18.76,3.04-18.76,14.3c0,11.32,12.81,13.52,18.76,14.49c5.5,0.97,10.55,1.94,10.55,5.69c0,2.65-3.1,5.24-8.73,5.24
		C414.59,58.25,407.67,55.08,404.24,52.23 M390.72,19.24H380.5v47.29h10.22V19.24z M374.48,19.3h-10.87l-9.31,24.52l-12.42-25.75
		l-12.42,25.75l-9.12-24.52h-11l18.89,48.97l13.65-28.08l13.52,28.08L374.48,19.3z M273.69,52.23l-5.43,7.83
		c4.4,3.75,11.13,7.37,21.35,7.37c11.19,0,18.83-4.85,18.83-14.68c0-12.68-12.23-13.65-19.93-15.27c-4.27-0.91-9.38-1.68-9.38-5.05
		c0-3.75,5.18-4.66,8.15-4.66c4.59,0,9.32,1.94,13.39,4.85l5.69-7.76c-5.18-3.82-10.41-6.34-18.7-6.34
		c-8.34,0-18.76,3.04-18.76,14.3c0,11.32,12.81,13.52,18.76,14.49c5.5,0.97,10.55,1.94,10.55,5.69c0,2.65-3.11,5.24-8.73,5.24
		C284.04,58.25,277.12,55.08,273.69,52.23"/>
</g>
</svg>
