<?xml version="1.0" standalone="no"?><!DOCTYPE svg PUBLIC "-//W3C//DTD SVG 1.1//EN" "http://www.w3.org/Graphics/SVG/1.1/DTD/svg11.dtd"><svg width="100%" height="100%" viewBox="0 0 250 224" version="1.1" xmlns="http://www.w3.org/2000/svg" xmlns:xlink="http://www.w3.org/1999/xlink" xml:space="preserve" style="fill-rule:evenodd;clip-rule:evenodd;stroke-linejoin:round;stroke-miterlimit:1.41421;"><g><path d="M95.527,94.074l-32.729,-18.896l-32.518,18.896l32.731,18.897l32.516,-18.897Z" style="fill:#e38f47;fill-rule:nonzero;"/><path d="M225.883,94.051l-32.731,-18.896l-32.516,18.897l32.729,18.896l32.518,-18.897Z" style="fill:#e38f47;fill-rule:nonzero;"/><path d="M95.639,131.829l32.729,18.896l32.518,-18.897l-32.73,-18.896l-32.517,18.897Z" style="fill:#e38f47;fill-rule:nonzero;"/><path d="M95.416,207.036l32.517,-18.897l0.107,-37.609l-32.517,18.897l-0.107,37.609Z" style="fill:#f5c75e;fill-rule:nonzero;"/><path d="M160.665,94.032l32.517,-18.897l0.107,-37.608l-32.517,18.896l-0.107,37.609Z" style="fill:#f5c75e;fill-rule:nonzero;"/><path d="M128.255,75.331l-32.517,18.897l-0.106,37.609l32.516,-18.897l0.107,-37.609Z" style="fill:#f5c75e;fill-rule:nonzero;"/><path d="M127.933,188.144l32.73,18.897l0.107,-37.609l-32.731,-18.896l-0.106,37.608Z" style="fill:#8a3c3e;fill-rule:nonzero;"/><path d="M62.69,75.15l32.73,18.896l0.106,-37.609l-32.729,-18.896l-0.107,37.609Z" style="fill:#8a3c3e;fill-rule:nonzero;"/><path d="M160.984,94.226l-32.729,-18.897l-0.107,37.609l32.73,18.897l0.106,-37.609Z" style="fill:#8a3c3e;fill-rule:nonzero;"/><path d="M160.765,56.432l32.517,-18.896l-32.72,-18.891l-32.517,18.896l-32.73,-18.896l-32.518,18.897l32.73,18.896l-32.516,18.897l32.72,18.891l32.517,-18.897l32.73,18.897l32.516,-18.897l-32.729,-18.897Z" style="fill:#e38f47;fill-rule:nonzero;"/><path d="M95.632,131.828l0.106,-37.608l-32.72,-18.891l-0.107,37.608l-32.73,-18.896l-0.106,37.609l32.73,18.897l-0.107,37.608l32.72,18.892l0.106,-37.609l32.731,18.896l0.106,-37.609l-32.729,-18.897Z" style="fill:#8a3c3e;fill-rule:nonzero;"/><path d="M193.386,112.935l0.106,-37.608l-32.508,18.891l-0.106,37.609l-32.517,18.896l-0.106,37.61l32.517,-18.897l-0.107,37.609l32.508,-18.892l0.106,-37.608l32.518,-18.897l0.106,-37.61l-32.517,18.897Z" style="fill:#f5c75e;fill-rule:nonzero;"/></g></svg>