<?xml version="1.0" encoding="utf-8"?>
<!-- Generator: Adobe Illustrator 23.0.1, SVG Export Plug-In . SVG Version: 6.00 Build 0)  -->
<svg version="1.1" id="Layer_1" xmlns="http://www.w3.org/2000/svg" xmlns:xlink="http://www.w3.org/1999/xlink" height="70px"
	 viewBox="0 0 170.18 152.19" style="enable-background:new 0 0 170.18 152.19;" xml:space="preserve">
<style type="text/css">
	.st0{fill:#575757;}
</style>
<path class="st0" d="M85.21,22.58c1.92-2.37,3.54-4.58,5.38-6.58C103.12,2.4,118.4-3.27,136.42,1.94
	c18.25,5.27,29.02,18.09,32.75,36.59c3.15,15.67-1.31,29.88-9.47,43.13c-8.75,14.22-20.63,25.61-33.3,36.21
	c-9.61,8.04-19.49,15.76-29.11,23.8c-3,2.5-5.59,5.51-8.24,8.41c-2.23,2.45-5.5,2.96-7.36,0.54c-6.29-8.18-14.69-13.97-22.6-20.3
	c-12.93-10.36-25.88-20.69-36.9-33.18C13.08,86.81,5.67,75.51,1.95,62.05C-5.36,35.52,8.43,9.58,33.98,1.93
	c18.69-5.6,37.59,1.22,49.13,17.7C83.78,20.58,84.46,21.52,85.21,22.58z M85.12,140.02c2.37-2.14,4.47-4.18,6.72-6.03
	c10.88-8.95,21.95-17.69,32.68-26.82c10.91-9.28,20.88-19.49,28.19-31.98c6.52-11.15,10.07-23.03,7.17-35.97
	c-3.27-14.6-12.24-24.43-26.66-28.55c-13.92-3.97-25.64,0.65-35.11,11.06c-3.23,3.55-5.73,7.78-8.33,11.86
	c-1.22,1.92-2.53,3.46-4.86,3.44c-2.4-0.03-3.62-1.71-4.62-3.73c-1.17-2.37-2.45-4.71-3.91-6.92C59.94,1.55,28.9,5.51,15,27.43
	c-7.7,12.14-7.08,25.04-2.13,37.94C18.1,79,27.05,90.19,37.77,99.74C53.2,113.48,69.22,126.55,85.12,140.02z"/>
</svg>
