<?xml version="1.0" encoding="utf-8"?>
<!-- Generator: Adobe Illustrator 23.0.1, SVG Export Plug-In . SVG Version: 6.00 Build 0)  -->
<svg version="1.1" id="Layer_1" xmlns="http://www.w3.org/2000/svg" xmlns:xlink="http://www.w3.org/1999/xlink" height="70px"
	 viewBox="0 0 171.99 121.54" style="enable-background:new 0 0 171.99 121.54;" xml:space="preserve">
<style type="text/css">
	.st0{fill:#939999;}
	.st1{fill:url(#SVGID_1_);}
	.st2{fill:url(#SVGID_2_);}
	.st3{fill:url(#SVGID_3_);}
	.st4{fill:url(#SVGID_4_);}
</style>
<g>
	<g>
		<path class="st0" d="M92.21,117.26c-1.59,0.55-3.25-0.62-3.25-2.3c0-4.94,0-9.71,0-14.48c0-28.8,0.02-57.6-0.03-86.4
			c0-1.79,0.56-2.56,2.22-3.17c11.98-4.38,24.34-7.29,36.97-8.74c9.72-1.11,19.52-1.48,29.29-2.17c0.01,0,0.02,0,0.02,0
			c1.39-0.09,2.56,1.04,2.56,2.44v101.78c0,1.33-1.07,2.42-2.41,2.44C135.37,107.07,113.53,109.85,92.21,117.26z"/>
		<path class="st0" d="M5.87,12.26v97.24c0,1.79,1.46,3.24,3.25,3.23c21.55-0.16,42.59,2.19,63.1,8.72
			c-0.56,0.03-1.13,0.08-1.69,0.08c-22.11,0-44.21,0.01-66.32,0c-3.37,0-4.21-0.82-4.21-4.17C0,82.48,0,47.6,0,12.72
			c0-1.95,0.39-3.04,1.6-3.51C3.66,8.41,5.87,10.05,5.87,12.26z"/>
		<path class="st0" d="M99.78,121.45c20.81-6.64,42.19-8.95,64.11-8.73c1.23,0.01,2.24-0.98,2.24-2.21v-99.4
			c0-1.21,0.98-2.22,2.19-2.21c0.01,0,0.01,0,0.02,0c2.68,0.01,3.62,0.96,3.63,3.68c0.01,12.1,0.01,24.2,0.01,36.3
			c0,22.85,0,45.7-0.01,68.55c0,3.14-0.86,4.09-3.88,4.09c-22.58,0.02-45.16,0.01-67.74,0.01
			C100.16,121.54,99.97,121.48,99.78,121.45z"/>
		<path class="st0" d="M79.14,117.26c1.59,0.55,3.25-0.62,3.25-2.3c0-4.94,0-9.71,0-14.48c0-28.8-0.02-57.6,0.03-86.4
			c0-1.79-0.56-2.56-2.22-3.17C68.22,6.53,55.87,3.62,43.23,2.17c-9.72-1.11-19.52-1.48-29.29-2.17c-0.01,0-0.02,0-0.02,0
			c-1.39-0.09-2.56,1.04-2.56,2.44v101.78c0,1.33,1.07,2.42,2.41,2.44C35.98,107.07,57.82,109.85,79.14,117.26z"/>
	</g>
	<g>
		<linearGradient id="SVGID_1_" gradientUnits="userSpaceOnUse" x1="88.9251" y1="58.6985" x2="159.9927" y2="58.6985">
			<stop  offset="0" style="stop-color:#FFFFFF;stop-opacity:0"/>
			<stop  offset="1" style="stop-color:#000000;stop-opacity:0.25"/>
		</linearGradient>
		<path class="st1" d="M92.21,117.26c-1.59,0.55-3.25-0.62-3.25-2.3c0-4.94,0-9.71,0-14.48c0-28.8,0.02-57.6-0.03-86.4
			c0-1.79,0.56-2.56,2.22-3.17c11.98-4.38,24.34-7.29,36.97-8.74c9.72-1.11,19.52-1.48,29.29-2.17c0.01,0,0.02,0,0.02,0
			c1.39-0.09,2.56,1.04,2.56,2.44v101.78c0,1.33-1.07,2.42-2.41,2.44C135.37,107.07,113.53,109.85,92.21,117.26z"/>
		<linearGradient id="SVGID_2_" gradientUnits="userSpaceOnUse" x1="-9.094947e-13" y1="65.2704" x2="72.2206" y2="65.2704">
			<stop  offset="0" style="stop-color:#FFFFFF;stop-opacity:0"/>
			<stop  offset="1" style="stop-color:#000000;stop-opacity:0.25"/>
		</linearGradient>
		<path class="st2" d="M5.87,12.26v97.24c0,1.79,1.46,3.24,3.25,3.23c21.55-0.16,42.59,2.19,63.1,8.72
			c-0.56,0.03-1.13,0.08-1.69,0.08c-22.11,0-44.21,0.01-66.32,0c-3.37,0-4.21-0.82-4.21-4.17C0,82.48,0,47.6,0,12.72
			c0-1.95,0.39-3.04,1.6-3.51C3.66,8.41,5.87,10.05,5.87,12.26z"/>
		<linearGradient id="SVGID_3_" gradientUnits="userSpaceOnUse" x1="99.7816" y1="65.222" x2="171.988" y2="65.222">
			<stop  offset="0" style="stop-color:#FFFFFF;stop-opacity:0"/>
			<stop  offset="1" style="stop-color:#000000;stop-opacity:0.25"/>
		</linearGradient>
		<path class="st3" d="M99.78,121.45c20.81-6.64,42.19-8.95,64.11-8.73c1.23,0.01,2.24-0.98,2.24-2.21v-99.4
			c0-1.21,0.98-2.22,2.19-2.21c0.01,0,0.01,0,0.02,0c2.68,0.01,3.62,0.96,3.63,3.68c0.01,12.1,0.01,24.2,0.01,36.3
			c0,22.85,0,45.7-0.01,68.55c0,3.14-0.86,4.09-3.88,4.09c-22.58,0.02-45.16,0.01-67.74,0.01
			C100.16,121.54,99.97,121.48,99.78,121.45z"/>
		<linearGradient id="SVGID_4_" gradientUnits="userSpaceOnUse" x1="11.3534" y1="58.6985" x2="82.421" y2="58.6985">
			<stop  offset="0" style="stop-color:#FFFFFF;stop-opacity:0"/>
			<stop  offset="1" style="stop-color:#000000;stop-opacity:0.25"/>
		</linearGradient>
		<path class="st4" d="M79.14,117.26c1.59,0.55,3.25-0.62,3.25-2.3c0-4.94,0-9.71,0-14.48c0-28.8-0.02-57.6,0.03-86.4
			c0-1.79-0.56-2.56-2.22-3.17C68.22,6.53,55.87,3.62,43.23,2.17c-9.72-1.11-19.52-1.48-29.29-2.17c-0.01,0-0.02,0-0.02,0
			c-1.39-0.09-2.56,1.04-2.56,2.44v101.78c0,1.33,1.07,2.42,2.41,2.44C35.98,107.07,57.82,109.85,79.14,117.26z"/>
	</g>
</g>
</svg>
