<?xml version="1.0" encoding="utf-8"?>
<!-- Generator: Adobe Illustrator 23.0.1, SVG Export Plug-In . SVG Version: 6.00 Build 0)  -->
<svg version="1.1" id="Layer_1" xmlns="http://www.w3.org/2000/svg" xmlns:xlink="http://www.w3.org/1999/xlink" height="100" width="250"
	 viewBox="0 0 210.24 71" style="enable-background:new 0 0 210.24 71;" xml:space="preserve">
<g>
	<path d="M199.09,7.88c0.06-0.93,0.13-1.66,0.16-2.4c0.15-3.98,1.82-5.6,5.61-5.47c3.45,0.12,4.85,1.69,4.85,5.52
		c0.01,6.16,0.04,12.33-0.01,18.49c-0.08,8.67-4.1,12.8-12.81,13.27c-3.02,0.16-6.05,0.4-9.07,0.48c-2.99,0.08-5.99,0.02-9.02,0.02
		c-0.85,3.84-0.62,4.09,3.28,4.18c6.24,0.15,12.54-0.09,18.7,0.72c6.32,0.83,8.98,4.18,9.41,10.56c0.19,2.89-0.06,5.89-0.64,8.73
		c-0.86,4.21-3.89,6.72-7.95,7.62c-8.32,1.85-16.73,1.88-25.06,0.04c-5.18-1.14-8.03-4.63-8.08-9.92
		c-0.12-13.84-0.12-27.68,0.01-41.52c0.06-5.97,3.37-9.72,9.33-10.14c6.2-0.44,12.45-0.15,18.68-0.18
		C197.23,7.88,197.98,7.88,199.09,7.88z M188.49,27.89c0,0.02,0,0.03,0,0.05c1.04,0,2.08,0.02,3.12,0c6.74-0.12,7.8-1.33,7.66-8.06
		c-0.04-1.9-0.8-2.47-2.51-2.52c-2.17-0.06-4.34-0.45-6.49-0.37c-2.9,0.11-5.85,0.27-8.66,0.9c-2.65,0.6-3.52,2.77-3.15,6.1
		c0.29,2.63,1.9,3.78,4.38,3.88C184.71,27.95,186.6,27.89,188.49,27.89z M186.93,50.7c-0.01,0.08-0.01,0.17-0.02,0.25
		c-2.09,0-4.18-0.05-6.26,0.03c-0.69,0.03-1.67,0.2-1.99,0.67c-1.77,2.6,0.21,8.58,3.23,8.85c4.84,0.43,9.76,0.31,14.62,0.01
		c2.3-0.14,3.67-2.04,3.6-4.41c-0.07-2.43-1.37-4.21-3.88-4.56C193.15,51.12,190.03,50.97,186.93,50.7z"/>
	<path d="M85.62,36.58c0,4.08,0.04,8.16-0.01,12.23c-0.04,3.36-1.86,4.96-5.5,4.97c-3.7,0.01-5.54-1.55-5.56-4.9
		c-0.05-7.96,0.01-15.93-0.03-23.89c-0.03-5.47-1.62-7.03-7.13-7.17c-7.53-0.19-9.05,1.26-9.07,8.74c-0.02,7.3,0.01,14.6-0.01,21.9
		c-0.01,3.66-1.52,5.22-5.08,5.31c-3.91,0.1-5.97-1.55-5.94-5.18c0.08-9.76,0.13-19.52,0.55-29.27c0.33-7.69,4.72-11.52,13.1-11.88
		c6.15-0.26,12.31-0.35,18.14,2.26c0.64,0.29,1.65,0.1,2.36-0.17c7.22-2.8,14.66-2.72,22.09-1.42c5.4,0.95,8.56,5.04,8.79,11.35
		c0.35,9.65,0.46,19.32,0.54,28.98c0.03,3.73-1.94,5.38-5.8,5.33c-3.7-0.06-5.21-1.62-5.22-5.46c-0.01-7.21,0.03-14.41-0.03-21.62
		c-0.01-1.69-0.28-3.39-0.57-5.06c-0.12-0.71-0.42-1.56-0.93-2.02c-3.34-2.96-7.35-1.97-11.07-1.35c-2.9,0.49-3.49,3.25-3.56,5.79
		c-0.12,4.17-0.03,8.34-0.03,12.52C85.63,36.58,85.63,36.58,85.62,36.58z"/>
	<path d="M28.02,25.62c1.19-6.37-0.21-8.32-6.07-8.2c-4.62,0.1-9.22,0.79-13.84,1.04c-3.4,0.18-4.9-1.02-5.28-3.78
		c-0.47-3.45,0.57-5.45,3.88-6.16c7.94-1.68,15.96-1.79,23.93-0.17c5.97,1.21,8.51,5.59,8.65,11.13c0.22,8.51,0.15,17.04-0.35,25.53
		c-0.3,5.11-2.96,8.13-7.98,8.49c-7.59,0.56-15.28,0.45-22.88-0.04c-4.34-0.28-7.15-3.32-7.58-7.89c-0.28-3-0.66-6.06-0.41-9.04
		C0.71,29,4.4,25.86,12.56,25.65C17.67,25.52,22.78,25.62,28.02,25.62z M27.92,34.99c-4.02,0-8.09-0.05-12.15,0.01
		c-3.51,0.05-4.91,1.34-5,4.41c-0.09,2.96,1.45,4.65,4.64,4.95c1.79,0.17,3.6,0.31,5.39,0.2c7.81-0.46,8.33-1.12,7.5-8.93
		C28.29,35.55,28.21,35.48,27.92,34.99z"/>
	<path d="M148.74,25.6c1.22-6.34-0.15-8.25-5.99-8.18c-3.76,0.05-7.55,0.42-11.28,0.95c-5.27,0.75-7.75-0.52-7.94-4.53
		c-0.13-2.66,0.86-4.73,3.65-5.29c8.33-1.67,16.73-2.03,25.02,0.03c5.16,1.29,7.83,5.28,7.94,11.41c0.14,7.67,0.17,15.35,0,23.02
		c-0.16,7.09-3.38,10.32-11.97,11.12c-5.52,0.51-11.2,0.39-16.7-0.29c-8.06-0.99-10.09-3.41-10.68-11.58
		c-0.21-2.98,0.07-6.08,0.66-9.02c0.99-4.92,5.03-7.41,11.83-7.61c4.17-0.12,8.34-0.04,12.51-0.05
		C146.79,25.6,147.8,25.6,148.74,25.6z M141.46,34.98c0,0.01,0,0.01,0,0.02c-1.8,0-3.59-0.05-5.39,0.01
		c-3.27,0.11-4.69,1.4-4.85,4.3c-0.17,2.89,1.42,4.77,4.54,5.04c2.34,0.2,4.72,0.22,7.06,0.1c5.71-0.3,6.32-1.11,6.28-6.86
		c-0.01-1.89-0.48-2.81-2.54-2.63C144.88,35.1,143.17,34.98,141.46,34.98z"/>
</g>
</svg>
