<?xml version="1.0" encoding="utf-8"?>
<!-- Generator: Adobe Illustrator 23.0.1, SVG Export Plug-In . SVG Version: 6.00 Build 0)  -->
<svg version="1.1" id="Ebene_1" xmlns="http://www.w3.org/2000/svg" xmlns:xlink="http://www.w3.org/1999/xlink" x="0px" y="0px"
	 viewBox="0 0 169.94 39.85" style="enable-background:new 0 0 169.94 39.85;" xml:space="preserve">
<style type="text/css">
	.st0{fill:#181716;}
	.st1{fill:#636262;}
	.st2{fill:#727070;}
	.st3{fill:#757474;}
	.st4{fill:#A5A5A5;}
	.st5{fill:#A09F9F;}
	.st6{fill:#8E8B8A;}
	.st7{fill:#999796;}
</style>
<path class="st0" d="M6.01,9.5v10.05h0.07c1.39-1.85,3.08-2.71,5.42-2.71c4.3,0,6.38,2.84,6.38,7.14v10.38h-6.02v-8.69
	c0-1.99-0.3-4.03-2.71-4.03c-2.38,0-3.14,2.05-3.14,4.03v8.69H0V9.5H6.01z"/>
<path class="st0" d="M38.28,26.9H25.62c0,2.44,1.29,3.77,3.77,3.77c1.29,0,2.21-0.43,2.88-1.55h5.78c-0.96,4-4.76,5.82-8.63,5.82
	c-5.62,0-9.82-3.17-9.82-9.02c0-5.66,3.87-9.06,9.39-9.06c5.89,0,9.29,3.64,9.29,9.42L38.28,26.9L38.28,26.9z M32.7,23.42
	c-0.3-1.62-1.79-2.68-3.41-2.68c-1.75,0-3.21,0.93-3.57,2.68H32.7z"/>
<path class="st0" d="M46.05,34.37h-6.01V9.5h6.01V34.37z"/>
<path class="st0" d="M57.47,26.1l4.03-8.7h6.75l-8.86,16.96h-3.83l-8.89-16.96h6.74L57.47,26.1z"/>
<path class="st0" d="M85.44,26.9H72.78c0,2.44,1.29,3.77,3.77,3.77c1.29,0,2.21-0.43,2.88-1.55h5.79c-0.96,4-4.76,5.82-8.63,5.82
	c-5.62,0-9.82-3.17-9.82-9.02c0-5.66,3.87-9.06,9.39-9.06c5.88,0,9.29,3.64,9.29,9.42L85.44,26.9L85.44,26.9z M79.85,23.42
	c-0.3-1.62-1.78-2.68-3.4-2.68c-1.75,0-3.21,0.93-3.57,2.68H79.85z"/>
<path class="st0" d="M94.31,34.37h-6.02v-12h-1.95V17.4h1.95v-5.09h6.02v5.09h3.4v4.96h-3.4V34.37z"/>
<path class="st0" d="M105.24,12.05c0,1.85-1.52,3.37-3.37,3.37c-1.85,0-3.37-1.52-3.37-3.37c0-1.85,1.52-3.37,3.37-3.37
	C103.72,8.68,105.24,10.2,105.24,12.05z M104.88,34.37h-6.02V17.4h6.02V34.37z"/>
<path class="st0" d="M126.4,34.37h-6.02v-1.89h-0.06c-1.06,1.69-3.14,2.45-5.12,2.45c-5.03,0-8.56-4.2-8.56-9.06
	c0-4.86,3.47-9.03,8.5-9.03c1.95,0,4,0.73,5.25,2.22V17.4h6.02L126.4,34.37L126.4,34.37z M112.84,25.9c0,2.15,1.42,3.8,3.87,3.8
	s3.87-1.65,3.87-3.8c0-2.08-1.42-3.84-3.87-3.84S112.84,23.82,112.84,25.9z"/>
<g>
	<g>
		<polygon class="st1" points="147.83,27.24 140.11,29.22 146.11,15.35 153.86,13.51 		"/>
	</g>
</g>
<g>
	<polygon class="st2" points="145.73,1.7 153.51,0 156.64,7.18 148.88,8.97 	"/>
</g>
<g>
	<polygon class="st3" points="134.38,28.24 145.73,1.7 148.88,8.97 140.11,29.22 	"/>
</g>
<polygon class="st4" points="140.11,29.22 147.83,27.24 160.77,29.4 153.07,31.44 "/>
<g>
	<polygon class="st5" points="156.24,38.76 131.76,34.37 134.38,28.24 153.07,31.44 	"/>
</g>
<g>
	<polygon class="st6" points="148.88,8.97 156.64,7.18 169.94,37.69 162.28,39.85 	"/>
</g>
<g>
	<polygon class="st7" points="146.11,15.35 148.88,8.97 162.28,39.85 156.24,38.76 	"/>
</g>
</svg>
