<?xml version="1.0" encoding="utf-8"?>
<!-- Generator: Adobe Illustrator 23.0.1, SVG Export Plug-In . SVG Version: 6.00 Build 0)  -->
<svg version="1.1" id="Layer_1" xmlns="http://www.w3.org/2000/svg" xmlns:xlink="http://www.w3.org/1999/xlink" height="100px" width="250px"
	 viewBox="0 0 718.09 43" style="enable-background:new 0 0 718.09 43;" xml:space="preserve">
<g>
	<path d="M0,40.98c0.89-0.27,1.48-0.5,2.08-0.61c1.58-0.3,3.18-0.49,4.75-0.82c1.87-0.4,2.88-1.6,2.88-3.55
		C9.7,26.14,9.72,16.29,9.62,6.43C9.58,3.12,8.39,2.01,5.05,1.5c-1.53-0.23-3.06-0.45-4.6-0.67c0-0.18,0.01-0.35,0.01-0.53
		C0.9,0.19,1.33,0,1.75,0c14.8,0.17,29.61,0.22,44.41,0.67c2.83,0.09,5.81,1.37,8.38,2.75c5.72,3.09,5.97,9.51,0.48,13.02
		c-2.72,1.74-5.96,2.65-8.96,3.93c-0.39,0.17-0.79,0.3-1.41,0.54c0.45,0.51,0.75,0.93,1.14,1.26c5.49,4.73,10.99,9.46,16.5,14.17
		c2.4,2.05,5.11,3.45,8.33,3.75c0.64,0.06,1.25,0.47,1.87,0.71c-0.03,0.19-0.05,0.39-0.08,0.58c-0.67,0.12-1.35,0.33-2.02,0.33
		c-5.58,0.04-11.16,0.08-16.73,0.01c-0.84-0.01-1.87-0.34-2.5-0.88c-6.13-5.32-12.28-10.61-18.22-16.14
		c-1.82-1.7-3.54-2.55-6.02-2.47c-3.92,0.13-3.95,0-3.88,3.93c0.06,3.22,0.18,6.44,0.32,9.66c0.1,2.3,0.78,3.21,3.07,3.79
		c1.55,0.4,3.17,0.49,4.75,0.74c0.75,0.12,1.49,0.29,2.5,0.49C31.95,41.96,2.19,42.05,0,40.98z M23.02,2.09c0,0.7,0,1.36,0,2.02
		c0,3.65,0,7.31,0,10.96c0,5.15,0,5.21,5.1,5.11c3.95-0.08,7.93-0.07,11.65-1.76c2.11-0.96,3.78-2.3,4.55-4.59
		c1.56-4.69-0.66-8.92-5.89-10.71C33.5,1.41,28.4,1.23,23.02,2.09z"/>
	<path d="M393.47,41.04c1.38-0.22,2.75-0.46,4.13-0.64c2.03-0.26,3.29-1.34,3.65-3.37c1.22-6.94,2.47-13.88,3.58-20.84
		c0.39-2.44-0.47-3.56-2.87-4.2c-1.52-0.41-3.1-0.62-4.65-1.32c0.43-0.07,0.86-0.19,1.29-0.2c4.59-0.06,9.17-0.15,13.76-0.08
		c0.77,0.01,1.77,0.55,2.26,1.16c5.52,6.93,10.97,13.92,16.44,20.89c0.41,0.52,0.85,1.02,1.41,1.68c1.42-1.76,2.75-3.38,4.05-5.02
		c4.62-5.83,9.25-11.65,13.82-17.51c0.73-0.94,1.48-1.28,2.66-1.25c4.15,0.1,8.3,0.09,12.46,0.12c0.67,0.01,1.33,0.07,2.06,0.46
		c-0.34,0.12-0.67,0.3-1.01,0.35c-0.73,0.12-1.47,0.19-2.21,0.26c-4.32,0.4-4.81,0.86-4.25,5.08c0.9,6.75,1.93,13.48,2.97,20.21
		c0.45,2.92,1.31,3.6,4.3,3.87c0.83,0.08,1.66,0.19,2.49,0.29c-0.01,0.16-0.02,0.32-0.03,0.48c-7.83,0-15.66,0-23.49,0
		c-0.01-0.15-0.02-0.29-0.03-0.44c1.38-0.22,2.76-0.42,4.13-0.67c1.7-0.31,2.58-1.19,2.34-3.09c-0.82-6.51-1.56-13.03-2.34-19.55
		c-0.01-0.09-0.14-0.17-0.39-0.46c-0.61,0.7-1.23,1.35-1.79,2.04c-5.75,7.14-11.47,14.31-17.25,21.43
		c-1.99,2.45-2.37,2.44-4.32-0.04c-5.39-6.88-10.72-13.8-16.08-20.7c-0.6-0.77-1.23-1.52-2.1-2.59c-0.21,0.94-0.4,1.55-0.49,2.17
		c-0.71,5.15-1.39,10.31-2.12,15.46c-0.62,4.41,0.32,5.54,4.85,5.74c0.78,0.03,1.55,0.14,2.32,0.21c-0.01,0.16-0.02,0.32-0.03,0.48
		c-6.49,0-12.99,0-19.48,0C393.49,41.32,393.48,41.18,393.47,41.04z"/>
	<path d="M269.29,10.68c7.97,0,15.93,0,23.9,0c0.01,0.15,0.02,0.3,0.03,0.44c-1.19,0.15-2.39,0.27-3.57,0.47
		c-2.34,0.41-2.94,1.08-2.95,3.48c-0.03,7.25-0.03,14.5-0.01,21.75c0.01,2.78,0.6,3.42,3.42,3.84c1.08,0.16,2.18,0.2,3.49,0.32
		c-1.5,0.96-22.69,1.04-24.94,0.02c1.56-0.11,2.64-0.17,3.72-0.27c3.38-0.31,4.31-1.3,4.36-4.69c0.04-2.66-0.01-5.33,0.04-7.99
		c0.02-1.05-0.22-1.58-1.43-1.57c-8.98,0.1-17.97,0.15-26.95,0.22c-0.24,0-0.47,0.08-0.79,0.14c0,3.85-0.15,7.66,0.06,11.45
		c0.11,1.92,1.98,2.16,3.53,2.37c1.2,0.17,2.43,0.2,3.64,0.29c-0.01,0.17-0.01,0.33-0.02,0.5c-7.91,0-15.82,0-23.74,0
		c-0.01-0.15-0.03-0.31-0.04-0.46c1.08-0.11,2.16-0.2,3.23-0.34c2.32-0.31,3.06-1.03,3.08-3.38c0.05-7.43,0.05-14.87,0-22.3
		c-0.02-2.44-0.81-3.18-3.2-3.43c-1.02-0.1-2.04-0.23-3.06-0.34c0.01-0.16,0.02-0.32,0.04-0.49c7.86,0,15.72,0,23.58,0
		c0.01,0.15,0.03,0.31,0.04,0.46c-1.24,0.13-2.48,0.25-3.72,0.39c-2.57,0.29-3.53,1.21-3.63,3.79c-0.09,2.47,0.01,4.96-0.01,7.43
		c-0.01,1.01,0.37,1.44,1.42,1.44c8.86-0.02,17.72,0,26.58-0.07c0.44,0,1.23-0.81,1.25-1.27c0.13-2.66,0.14-5.33,0.07-7.99
		c-0.05-1.96-1.06-2.91-3.34-3.3c-1.35-0.23-2.73-0.33-4.09-0.49C269.26,10.97,269.27,10.82,269.29,10.68z"/>
	<path d="M523.75,42.53c-7.96-0.13-15.69-1.27-22.64-5.5c-3.91-2.38-6.6-5.64-6.82-10.42c-0.2-4.3,2.06-7.42,5.23-9.96
		c4.59-3.66,9.99-5.45,15.68-6.32c8.12-1.24,16.23-0.91,24.1,1.53c3.26,1.01,6.52,2.49,9.34,4.41c6.29,4.3,6.89,11.71,1.73,17.36
		c-3.29,3.6-7.5,5.76-12.13,6.85c-4.74,1.11-9.59,1.7-14.4,2.52C523.81,42.84,523.78,42.69,523.75,42.53z M525.04,40.8
		c1.64-0.14,3.62-0.26,5.59-0.5c6.04-0.76,10.41-4.36,11.74-9.6c1.86-7.33-1.5-13.99-8.78-17.23c-5.72-2.55-11.63-2.53-17.65-1.21
		c-12.43,2.72-13.03,15.57-7.13,22.26C513.03,39.3,518.62,40.67,525.04,40.8z"/>
	<path d="M633.58,42.95c-1.66-0.62-3.11-0.92-4.28-1.66c-9.88-6.17-19.7-12.41-29.54-18.64c-3.18-2.01-6.36-4.04-9.76-6.2
		c-0.09,0.68-0.2,1.12-0.2,1.57c0,5.82-0.01,11.65,0.03,17.47c0.02,3.38,0.89,4.38,4.22,4.95c1.36,0.24,2.73,0.41,4.05,1.05
		c-6.71,0-13.43,0-20.14,0c-0.01-0.16-0.03-0.33-0.04-0.49c0.75-0.09,1.49-0.21,2.25-0.28c4.04-0.39,5.65-2.06,5.68-6.08
		c0.04-5.95,0.04-11.89,0.01-17.84c-0.01-2.92-0.54-3.61-3.31-4.62c-0.75-0.27-1.54-0.46-2.32-0.63c-0.76-0.17-1.53-0.27-2.3-0.39
		c0.01-0.16,0.01-0.33,0.02-0.49c0.56-0.07,1.12-0.2,1.68-0.21c4.27-0.06,8.55-0.16,12.82-0.09c0.97,0.01,2.05,0.44,2.88,0.97
		c10.7,6.83,21.37,13.71,32.05,20.58c0.55,0.36,1.13,0.68,1.97,1.18c0.09-1.73,0.22-3.13,0.23-4.53c0.04-4.03,0.04-8.05,0.03-12.08
		c-0.01-2.39-1.18-3.95-3.52-4.56c-1.48-0.38-3-0.6-4.48-1.27c6.41,0,12.81,0,19.22,0c0.02,0.16,0.04,0.32,0.06,0.49
		c-0.87,0.13-1.73,0.26-2.6,0.38c-3.29,0.46-4.73,1.94-4.74,5.22c-0.03,7.99,0.02,15.98,0.04,23.98
		C633.58,41.22,633.58,41.71,633.58,42.95z"/>
	<path d="M322.94,41.05c1.39-0.22,2.78-0.41,4.17-0.66c1.57-0.28,2.38-1.23,2.38-2.83c0.01-7.5,0.05-15-0.01-22.5
		c-0.02-2.21-1.1-3.21-3.31-3.51c-1.09-0.14-2.19-0.26-3.28-0.38c0.01-0.17,0.01-0.34,0.02-0.51c13.04,0,26.08,0,39.25,0
		c0.13,2.01,0.28,4.14,0.47,7c-1.11-0.69-2.14-0.96-2.38-1.55c-0.9-2.24-2.66-3.51-4.79-3.61c-5.24-0.23-10.49-0.08-16.02-0.08
		c0,3.54-0.03,7.29,0.05,11.04c0.01,0.3,0.71,0.85,1.08,0.85c3.71-0.07,7.43-0.17,11.14-0.38c1.6-0.09,2.68-1.05,3.4-2.53
		c0.26-0.52,1.06-0.78,1.61-1.16c0.23,0.55,0.65,1.1,0.67,1.66c0.06,2.29,0.05,4.59-0.07,6.88c-0.03,0.61-0.54,1.2-0.84,1.8
		c-0.47-0.44-1.19-0.81-1.36-1.34c-0.6-1.92-2.04-2.63-3.8-2.74c-3.52-0.21-7.06-0.27-10.59-0.41c-0.93-0.04-1.35,0.31-1.34,1.28
		c0.05,3.16-0.08,6.33,0.15,9.48c0.06,0.89,0.98,1.9,1.79,2.48c0.69,0.49,1.77,0.61,2.67,0.6c4.64-0.05,9.28-0.14,13.92-0.32
		c2.67-0.1,4.88-1.24,6.53-3.41c0.34-0.44,0.69-0.91,1.15-1.19c0.3-0.19,0.84-0.17,1.19-0.03c0.17,0.07,0.27,0.67,0.17,0.96
		c-0.56,1.7-1.07,3.44-1.86,5.04c-0.23,0.47-1.29,0.74-1.97,0.74c-10.04,0.03-20.08,0-30.12-0.02c-2.79-0.01-5.58-0.02-8.37-0.05
		c-0.59-0.01-1.17-0.1-1.76-0.15C322.92,41.36,322.93,41.21,322.94,41.05z"/>
	<path d="M201.67,33.54c-0.54,2.06-1,4.16-1.69,6.17c-0.18,0.53-1.07,1.05-1.7,1.17c-11.26,2.02-22.54,2.7-33.65-0.71
		c-3.13-0.96-6.28-2.51-8.85-4.51c-6.94-5.38-6.68-14.17,0.35-19.41c5.02-3.74,10.93-5.11,16.98-6.02
		c8.46-1.27,16.8-0.12,25.12,1.26c0.61,0.1,1.27,0.04,1.83,0.26c0.42,0.17,0.97,0.63,1.01,1.01c0.24,2.08,0.35,4.17,0.54,6.79
		c-0.97-0.38-1.99-0.44-2.31-0.95c-2.85-4.46-7.14-6.36-12.14-6.93c-5.72-0.65-11.39-0.48-16.81,1.73c-4.67,1.91-8,5.17-8.54,10.33
		c-0.57,5.55,1.55,10.26,6.44,13.08c8.18,4.71,16.89,5.44,25.68,1.87c2-0.81,3.52-2.79,5.28-4.21c0.63-0.51,1.32-0.94,1.98-1.4
		C201.35,33.23,201.51,33.39,201.67,33.54z"/>
	<path d="M703.71,41.47c-8.43,0-16.86,0-25.29,0c-0.02-0.15-0.03-0.29-0.05-0.44c1.1-0.11,2.21-0.22,3.31-0.32
		c3.36-0.29,4.21-1.01,4.26-4.31c0.11-7.62,0.08-15.23,0.1-22.85c0-0.36-0.11-0.72-0.14-0.86c-5.78,0-11.46-0.04-17.14,0.03
		c-1.43,0.02-2.36,0.95-2.85,2.3c-0.38,1.05-0.99,1.71-2.5,1.04c0.44-1.99,0.82-4.03,1.35-6.03c0.27-1.04,1.01-0.93,1.93-0.65
		c1.33,0.41,2.74,0.82,4.12,0.83c13.32,0.05,26.63,0.05,39.95-0.05c2.05-0.02,4.09-0.64,6.14-0.97c0.34-0.05,0.7-0.01,1.2-0.01
		c-0.25,2.14-0.44,4.15-0.77,6.14c-0.07,0.4-0.68,0.94-1.09,1c-0.38,0.05-1.07-0.37-1.22-0.75c-0.96-2.48-2.9-3.23-5.31-3.23
		c-4.45-0.01-8.9,0-13.54,0c-0.05,0.49-0.15,1.02-0.15,1.55c0.03,7.37,0.05,14.74,0.12,22.11c0.03,3.39,0.92,4.31,4.35,4.72
		c1.08,0.13,2.17,0.19,3.25,0.29C703.73,41.15,703.72,41.31,703.71,41.47z"/>
	<path d="M95.36,10.64c7.74,0,15.48,0,23.22,0c0.02,0.14,0.05,0.28,0.07,0.42c-0.95,0.14-1.9,0.3-2.85,0.43
		c-3.33,0.45-3.84,0.93-3.86,4.21c-0.04,6.88-0.04,13.76,0,20.64c0.02,3.43,0.78,4.14,4.28,4.42c0.83,0.07,1.67,0.16,2.5,0.24
		c-0.01,0.16-0.01,0.32-0.02,0.48c-7.77,0-15.55,0-23.32,0c-0.02-0.13-0.05-0.26-0.07-0.39c0.9-0.12,1.8-0.27,2.7-0.36
		c2.91-0.3,3.93-1.35,3.94-4.29c0.03-6.82,0.03-13.64,0-20.45c-0.01-3.32-0.76-4.11-4.08-4.49c-0.85-0.1-1.7-0.23-2.54-0.35
		C95.34,10.97,95.35,10.8,95.36,10.64z"/>
</g>
</svg>
