<?xml version="1.0" encoding="utf-8"?>
<!-- Generator: Adobe Illustrator 23.0.1, SVG Export Plug-In . SVG Version: 6.00 Build 0)  -->
<svg version="1.1" id="Layer_1" xmlns="http://www.w3.org/2000/svg" xmlns:xlink="http://www.w3.org/1999/xlink" height="100px" width="250px"
	 viewBox="0 0 430.54 51.92" style="enable-background:new 0 0 430.54 51.92;" xml:space="preserve">
<g>
	<path d="M40.63,0.05L26.59,14.09c-0.07,0.07-0.18,0.07-0.25,0L12.3,0.05c-0.07-0.07-0.18-0.07-0.25,0L1.07,11.03
		C1,11.1,1,11.21,1.07,11.28l14.04,14.04c0.07,0.07,0.07,0.18,0,0.25L0.05,40.63c-0.07,0.07-0.07,0.18,0,0.25l10.98,10.98
		c0.07,0.07,0.18,0.07,0.25,0L26.34,36.8c0.07-0.07,0.18-0.07,0.25,0l15.06,15.06c0.07,0.07,0.18,0.07,0.25,0l10.98-10.98
		c0.07-0.07,0.07-0.18,0-0.25L37.82,25.57c-0.07-0.07-0.07-0.18,0-0.25l14.04-14.04c0.07-0.07,0.07-0.18,0-0.25L40.88,0.05
		C40.82-0.02,40.7-0.02,40.63,0.05z"/>
	<g>
		<path d="M76.25,27.77h7.34c0,2.16,0.77,3.8,2.32,4.93c1.32,0.97,3.09,1.45,5.31,1.45c1.74,0,3.19-0.27,4.35-0.82
			c1.58-0.74,2.37-1.9,2.37-3.48c0-1.96-1.77-3.45-5.31-4.44c-6.12-1.74-9.42-2.74-9.9-3c-3.54-1.71-5.31-4.39-5.31-8.07
			c0-3.32,1.37-5.94,4.11-7.87c2.45-1.71,5.38-2.56,8.79-2.56c3.96,0,7.16,0.85,9.61,2.56c2.8,1.96,4.2,4.81,4.2,8.55h-7.34
			c-0.19-3.48-2.46-5.22-6.81-5.22c-1.39,0-2.56,0.29-3.53,0.87c-1.13,0.71-1.69,1.72-1.69,3.04c0,1.26,0.63,2.17,1.88,2.75
			c0.97,0.45,3.77,1.27,8.41,2.46c2.7,0.68,4.72,1.45,6.04,2.32c2.8,1.8,4.2,4.38,4.2,7.73c0,3.28-1.22,5.93-3.67,7.92
			c-2.58,2.09-6.13,3.14-10.67,3.14c-4.15,0-7.57-0.98-10.24-2.95C77.7,34.87,76.22,31.76,76.25,27.77z"/>
		<path d="M117.74,6.76v7.49h5.02v4.59h-5.02V31.2c0,1.16,0.19,1.93,0.58,2.32c0.39,0.39,1.16,0.58,2.32,0.58
			c0.77,0,1.48-0.06,2.13-0.19v5.36c-0.97,0.16-2.3,0.24-4.01,0.24c-5.25,0-7.87-1.98-7.87-5.94V18.83h-4.15v-4.59h4.15V6.76H117.74
			z"/>
		<path d="M132.62,21.92h-6.86c0.19-2.96,1.5-5.15,3.91-6.57c2-1.19,4.6-1.79,7.82-1.79c7.31,0,10.96,2.37,10.96,7.1v12.99
			c0,2.77,0.29,4.62,0.87,5.55h-6.96c-0.29-0.9-0.45-1.71-0.48-2.41c-1.96,2.06-4.77,3.09-8.4,3.09c-2.51,0-4.52-0.61-6.04-1.84
			c-1.64-1.32-2.46-3.2-2.46-5.65c0-2.54,0.89-4.44,2.66-5.7c1.29-0.87,3.24-1.5,5.84-1.88c3.7-0.52,5.59-0.79,5.65-0.82
			c1.64-0.42,2.46-1.24,2.46-2.46c0-1.35-0.45-2.29-1.35-2.8c-0.65-0.39-1.67-0.58-3.09-0.58
			C134.36,18.16,132.84,19.41,132.62,21.92z M141.6,29.56V27c-0.55,0.48-1.74,0.85-3.57,1.11c-2.09,0.32-3.48,0.63-4.15,0.92
			c-1.35,0.61-2.03,1.64-2.03,3.09c0,2.13,1.4,3.19,4.2,3.19C139.75,35.3,141.6,33.39,141.6,29.56z"/>
		<path d="M153.77,39.22V14.24h6.52v4.64h0.1c0.61-1.55,1.67-2.82,3.19-3.82c1.51-1,3.11-1.5,4.78-1.5c0.51,0,1.01,0.08,1.5,0.24
			v6.38c-0.71-0.16-1.53-0.24-2.46-0.24c-4.51,0-6.76,2.67-6.76,8.02v11.25H153.77z"/>
		<path d="M181.26,6.76v7.49h5.02v4.59h-5.02V31.2c0,1.16,0.19,1.93,0.58,2.32c0.39,0.39,1.16,0.58,2.32,0.58
			c0.77,0,1.48-0.06,2.13-0.19v5.36c-0.97,0.16-2.3,0.24-4.01,0.24c-5.25,0-7.87-1.98-7.87-5.94V18.83h-4.15v-4.59h4.15V6.76H181.26
			z"/>
		<path d="M212.99,14.24v24.97h-6.52v-3.48h-0.15c-1.71,2.77-4.25,4.15-7.63,4.15c-3.45,0-5.88-0.95-7.29-2.85
			c-1.22-1.58-1.84-4.06-1.84-7.44V14.24h6.86v14.1c0,4.09,1.46,6.13,4.4,6.13c1.87,0,3.22-0.56,4.06-1.69
			c0.84-1.13,1.26-2.95,1.26-5.46V14.24H212.99z"/>
		<path d="M218.21,48.01V14.24h6.52v3.19h0.1c1.58-2.58,4.06-3.86,7.44-3.86c3.7,0,6.57,1.35,8.6,4.06
			c1.84,2.41,2.75,5.54,2.75,9.37c0,3.57-0.92,6.55-2.75,8.94c-2,2.64-4.73,3.96-8.21,3.96c-3.32,0-5.81-1.26-7.49-3.77h-0.1v11.88
			H218.21z M230.81,34.72c3.96,0,5.94-2.64,5.94-7.92c0-2.25-0.45-4.09-1.35-5.51c-1.06-1.71-2.61-2.56-4.64-2.56
			c-2.09,0-3.64,0.84-4.64,2.51c-0.87,1.42-1.3,3.27-1.3,5.55c0,2.25,0.45,4.07,1.35,5.46C227.21,33.9,228.75,34.72,230.81,34.72z"
			/>
		<path d="M261.87,39.22V4.73h7.58v34.49H261.87z"/>
		<path d="M276.12,39.22V4.73h7.57l14.46,23.14V4.73h7.1v34.49h-7.62l-14.41-23.09v23.09H276.12z"/>
		<path d="M339.39,4.73l-11.45,34.49h-8.55L308.19,4.73h7.82l7.68,24.25h0.1l7.78-24.25H339.39z"/>
		<path d="M342.34,39.22V4.73h25.79v6.38h-18.21v7.39h16.71v5.89h-16.71v8.45h18.6v6.38H342.34z"/>
		<path d="M371.47,27.77h7.34c0,2.16,0.77,3.8,2.32,4.93c1.32,0.97,3.09,1.45,5.31,1.45c1.74,0,3.19-0.27,4.35-0.82
			c1.58-0.74,2.37-1.9,2.37-3.48c0-1.96-1.77-3.45-5.31-4.44c-6.12-1.74-9.42-2.74-9.9-3c-3.54-1.71-5.31-4.39-5.31-8.07
			c0-3.32,1.37-5.94,4.11-7.87c2.45-1.71,5.38-2.56,8.79-2.56c3.96,0,7.16,0.85,9.61,2.56c2.8,1.96,4.2,4.81,4.2,8.55h-7.34
			c-0.19-3.48-2.46-5.22-6.81-5.22c-1.39,0-2.56,0.29-3.53,0.87c-1.13,0.71-1.69,1.72-1.69,3.04c0,1.26,0.63,2.17,1.88,2.75
			c0.97,0.45,3.77,1.27,8.4,2.46c2.7,0.68,4.72,1.45,6.04,2.32c2.8,1.8,4.2,4.38,4.2,7.73c0,3.28-1.22,5.93-3.67,7.92
			c-2.58,2.09-6.13,3.14-10.67,3.14c-4.15,0-7.57-0.98-10.24-2.95C372.91,34.87,371.43,31.76,371.47,27.77z"/>
		<path d="M412.62,39.22V11.11h-10.34V4.73h28.26v6.38H420.2v28.11H412.62z"/>
	</g>
</g>
</svg>
