<?xml version="1.0" encoding="utf-8"?>
<!-- Generator: Adobe Illustrator 23.0.1, SVG Export Plug-In . SVG Version: 6.00 Build 0)  -->
<svg version="1.1" id="Layer_1" xmlns="http://www.w3.org/2000/svg" xmlns:xlink="http://www.w3.org/1999/xlink" height="100px" width="250px"
	 viewBox="0 0 304.46 54.51" style="enable-background:new 0 0 304.46 54.51;" xml:space="preserve">
<g>
	<path d="M291.61,0c0,13.94,0,27.88,0,42.08c-2.47,0-4.57,0-7.33,0c0-13.99,0-28.03,0-42.08C286.73,0,289.17,0,291.61,0z"/>
	<path d="M14.23,42.03c-6,0.64-6.06,0.65-7.6-4.78C4.4,29.37,2.26,21.46,0,13.3c2.37,0,4.47,0,6.79,0
		c1.55,6.96,3.1,13.87,4.81,21.53c2.03-7.6,3.84-14.41,5.73-21.47c1.86,0,3.69,0,5.84,0c1.75,6.79,3.55,13.76,5.56,21.54
		c1.78-7.7,3.35-14.53,4.98-21.58c2,0,3.95,0,6.09,0c-2.74,9.73-5.44,19.28-8.15,28.88c-2.11,0-3.98,0-6.11,0
		c-1.85-6.75-3.69-13.46-5.62-20.47C17.96,28.72,16.08,35.41,14.23,42.03z"/>
	<path d="M99.94,52.94c1.04-2.09,1.69-3.38,2.32-4.65c10.38,2.88,13.51,1.47,13.47-5.92c-0.21-0.14-0.46-0.42-0.64-0.38
		c-5.58,1.34-10.55,0.72-13.96-4.49c-3.58-5.47-3.45-14.49,0.46-19.55c3.85-4.98,9.09-6.42,15.17-5.07c5.78,1.29,5.74,1.29,5.7,7.25
		c-0.05,7.31,0.08,14.62-0.05,21.93c-0.16,8.78-4.4,12.8-13.18,12.42C106.29,54.36,103.41,53.54,99.94,52.94z M115.58,17.46
		c-6.45-1.37-9.38,0.75-9.77,7.02c-0.12,2.02-0.14,4.06-0.06,6.08c0.28,6.67,2.97,8.7,9.83,7.31
		C115.58,31.08,115.58,24.25,115.58,17.46z"/>
	<path d="M77.42,42.14c-2.26,0-4.21,0-6.54,0c0-8.69-0.04-17.18,0.07-25.68c0.01-0.82,0.86-2.16,1.57-2.36
		c4.94-1.41,9.91-2.65,15.08-0.88c4.04,1.38,6.33,3.94,6.32,8.34c-0.02,6.76-0.01,13.51-0.01,20.51c-2.09,0-4.18,0-6.71,0
		c0-6.4,0.02-12.72-0.01-19.05c-0.02-5.18-2.88-7.39-7.87-5.77c-0.89,0.29-1.8,2.13-1.82,3.27C77.33,27.67,77.42,34.81,77.42,42.14z
		"/>
	<path d="M186.04,26.11c-4.68-4.07-5.35-6.76-2.79-10.2c2.99-4.01,9.64-4.65,14.65-1.35c-0.5,2.37-1.18,3.95-4.32,2.76
		c-2.29-0.87-4.97-0.27-5.34,2.63c-0.39,3.05,2.05,3.83,4.59,3.68c2-0.12,4.02-0.43,5.95-0.97c1.78-0.5,3.44-1.41,5.31-2.21
		c0.67,1.32,1.25,2.49,2.15,4.25c-5.68,0-5.19,3.74-4.96,7.33c0.04,0.68,0,1.36,0,2.03c-0.01,8.16-0.19,8.39-8.46,8.62
		c-2.01,0.06-4.1-0.12-6.04-0.62c-3.5-0.9-6.09-3.08-6.63-6.83C179.52,30.9,182,28.17,186.04,26.11z M195.32,27.72
		c-6.06,0.37-9.15,2.73-8.82,6.48c0.31,3.43,2.94,4.58,8.82,3.73C195.32,34.64,195.32,31.31,195.32,27.72z"/>
	<path d="M279.38,27.58c-6.1,0.96-11.82,1.85-17.54,2.75c1.11,7.82,4.55,9.33,15.12,6.46c0.53,1.24,1.09,2.53,1.64,3.81
		c-8.82,4.28-17.18,2.8-21.16-3.57c-4.79-7.67-2.24-19.89,4.86-23.25c8.26-3.91,16.6,1.05,17.08,10.16
		C279.42,25.01,279.38,26.08,279.38,27.58z M273.82,24.77c-1.21-2.63-1.75-5.44-3.45-6.95c-1.13-1-4.29-0.8-5.87,0.07
		c-3.22,1.76-3.31,5.19-2.98,8.7C265.35,26.03,269.01,25.48,273.82,24.77z"/>
	<path d="M151.45,27.56c-5.98,0.93-11.69,1.83-17.4,2.72c0.54,7.64,4.65,9.48,14.9,6.46c0.52,1.24,1.06,2.52,1.58,3.77
		c-7.34,3.94-15.83,3.08-20.01-1.87c-4.28-5.06-4.53-15.96-0.49-21.47c2.64-3.6,8.14-5.42,12.7-4.2c5.2,1.39,8.16,4.9,8.7,10.42
		C151.55,24.59,151.45,25.81,151.45,27.56z M133.45,26.62c3.82-0.56,7.59-1.12,11.35-1.68c0.43-5.41-1.08-7.84-4.9-8.01
		C135.5,16.73,133.51,19.65,133.45,26.62z"/>
	<path d="M65.97,27.44c-6.17,0.98-11.99,1.91-17.81,2.84c-0.17,7.3,3.8,9.06,14.94,6.52c0.42,1.21,0.85,2.44,1.39,3.95
		c-5.61,2.74-11.21,3.49-16.64,0.48c-4.96-2.74-6.61-7.54-6.61-13.06c0-8.56,2.8-13.21,9.3-15.17c6.22-1.87,12.19,1.2,14.06,7.38
		C65.26,22.54,65.48,24.82,65.97,27.44z M59.07,24.85c-0.23-6.03-2.21-8.4-6.35-7.87c-3.94,0.5-6.03,4.55-4.99,9.69
		C51.41,26.07,55.1,25.48,59.07,24.85z"/>
	<path d="M214.6,13.24c2.56,0,4.83,0,7.27,0c1.89,7.07,3.76,14.05,5.77,21.52c1.6-5.77,3.4-10.98,4.41-16.35
		c0.84-4.47,2.69-6.48,7.81-4.94c-3.07,9.52-6.16,19.13-9.21,28.62c-6.43,0.51-6.42,0.51-8.2-4.95
		C219.86,29.22,217.25,21.31,214.6,13.24z"/>
	<path d="M170.66,11.79c-0.61,2.61-0.99,4.22-1.37,5.83c-5.94-1.2-6.3-0.84-6.23,4.74c0.09,6.47,0.02,12.94,0.02,19.67
		c-2.22,0-4.18,0-6.68,0c0-8.64-0.04-17.37,0.07-26.1c0.01-0.66,0.98-1.73,1.66-1.88C162.03,13.23,165.96,12.61,170.66,11.79z"/>
	<path d="M304.4,13.3c0,9.74,0,19.16,0,28.81c-2.26,0-4.36,0-6.73,0c0-9.53,0-19.05,0-28.81C299.85,13.3,301.95,13.3,304.4,13.3z"/>
	<path d="M249.86,42.18c-2.13,0-3.99,0-6.07,0c0-9.59,0-19.02,0-28.78c1.87,0,3.82,0,6.07,0C249.86,22.79,249.86,32.32,249.86,42.18
		z"/>
	<circle cx="246.96" cy="6.91" r="3.5"/>
	<circle cx="300.96" cy="6.91" r="3.5"/>
</g>
</svg>
