<?xml version="1.0" encoding="utf-8"?>
<!-- Generator: Adobe Illustrator 23.0.1, SVG Export Plug-In . SVG Version: 6.00 Build 0)  -->
<svg version="1.1" id="Layer_1" xmlns="http://www.w3.org/2000/svg" xmlns:xlink="http://www.w3.org/1999/xlink" height="100px" width="250px"
	 viewBox="0 0 314.14 58.34" style="enable-background:new 0 0 314.14 58.34;" xml:space="preserve">
<style type="text/css">
	.st0{opacity:0.39;}
</style>
<g>
	<path class="st0" d="M175.8,0c3.6,1.49,4.74,4.24,4.49,8.01c-0.24,3.59-0.05,7.21-0.05,10.59c3.5-1.25,6.9-3.14,10.48-3.59
		c10.35-1.32,16.22,3.81,16.48,14.2c0.23,9.29,0.05,18.59,0.05,28.22c-1.84,0-3.3,0.02-4.76,0c-5.31-0.08-7.14-1.92-7.16-7.24
		c-0.03-5.98,0.05-11.95-0.02-17.93c-0.07-5.55-3.2-7.63-8.39-5.56c-4.79,1.91-6.55,5.86-6.63,10.66
		c-0.12,6.56-0.03,13.13-0.03,19.87c-4.06,0-7.74,0-12.02,0c0-7.74,0-15.4,0-23.07c0-7.57,0-15.14,0-22.87
		c-1.72-0.16-3.15-0.29-5.13-0.47c0-3.68,0-7.25,0-10.82C167.33,0,171.57,0,175.8,0z"/>
	<path class="st0" d="M314.14,51.59c-6.97,5.55-14.71,7.93-23.6,5.89c-8.04-1.85-14.21-8.43-15.78-17
		c-1.59-8.66,2.06-17.94,8.79-22.33c6.86-4.47,16.5-4.49,22.89-0.23c4.61,3.07,6.16,7.87,7.71,12.73c0,2.74,0,5.48,0,8.23
		c-1.46,0.19-2.91,0.53-4.37,0.54c-7.43,0.06-14.87,0.03-22.38,0.03c0.95,4.13,2.31,5.99,5.56,7.18c6.02,2.22,11.06-0.1,15.64-3.87
		c1.95,2.84,3.75,5.46,5.55,8.08C314.14,51.1,314.14,51.35,314.14,51.59z M287.72,29.8c4.85,0,9.19,0,13.73,0
		c-0.76-3.19-2.53-4.92-5.41-5.15C292.38,24.38,289.64,25.95,287.72,29.8z"/>
	<path class="st0" d="M225.9,0c0.19,3.68,0.37,7.36,0.57,11.37c-3.79,0-7.17,0-11.04,0c0-3.78,0-7.58,0-11.37
		C218.92,0,222.41,0,225.9,0z"/>
	<g id="XMLID_1_">
		<g>
			<path d="M60.7,16.21c1.35-0.03,2.7,0,4.25,0c0,2.44-0.45,6.82-0.67,6.69c-1.11,1.6-2.66,3.07-3.29,4.85
				c-3,8.67-5.86,17.4-8.55,26.17c-0.48,1.55-0.52,2.46-1.35,2.97c-0.68,0.41-1.86,0.55-4.18,0.55c-2.08,0-4.95,0.01-5.2,0
				c-1.87-0.15-6.04-17.98-9.07-27.36c-2.7,8.36-5.44,16.24-7.7,24.25c-0.79,2.76-2.01,3.62-4.6,3.26c-0.74-0.1-1.52-0.12-2.25,0
				c-3.18,0.56-4.46-0.9-5.37-3.91c-2.68-8.94-5.67-17.79-8.7-26.62c-0.49-1.4-1.81-2.53-2.74-3.78c-0.35,0.18-1.05-4.12-1.05-6.75
				c2.84,0,5.74-0.45,8.38,0.18c1.37,0.32,2.84,2.36,3.34,3.92c2.45,7.57,4.59,15.24,6.84,22.87c0.12,0.43,0.38,0.81,0.86,1.79
				c2.81-9.05,5.67-17.44,7.93-25.98c0.85-3.24,2.72-2.91,4.93-2.86c2.25,0.05,4.38-0.63,5.27,2.93c2.01,7.95,4.72,15.72,7.16,23.56
				c0.21,0.67,0.61,1.28,1.08,2.25c2.26-7.88,4.39-15.37,6.56-22.84C54.15,17.02,55.06,16.35,60.7,16.21z"/>
		</g>
	</g>
	<path class="st0" d="M252.63,41.2c2.11-5.94,4.19-11.76,6.26-17.58c2.7-7.59,3.21-7.95,11.22-7.92c0.98,0,1.97,0,3.21,0
		c0,3.39,0,6.57,0,8.54c-1.82,2.61-3.46,4.27-4.26,6.26c-3.25,8.04-6.32,16.15-9.28,24.3c-0.71,1.95-1.58,2.65-3.7,2.67
		c-10.44,0.09-10.44,0.16-14.14-9.61c-2.1-5.56-4.08-11.17-6.33-16.67c-0.81-1.98-0.65-4.93-3.95-5.19
		c-0.24-0.02-0.53-1.24-0.55-1.91c-0.06-2.6-0.03-5.21-0.03-8.25c3.1,0,6.22-0.64,8.88,0.21c1.98,0.63,4.01,2.9,4.86,4.93
		c2.68,6.38,4.81,13,7.17,19.52C252.07,40.68,252.3,40.84,252.63,41.2z"/>
	<path d="M103.27,38.39c-9.88,0-19.4,0-28.94,0c1.76,12.3,11.59,15.2,24.71,7.2c1.23,2.06,2.46,4.13,3.65,6.11
		c-5.44,6.53-17.44,8.58-25.75,4.65c-8.26-3.91-12.69-11.96-11.96-21.4c0.93-12.08,7.96-18.69,18.73-19.79
		c9.83-1.01,18.02,4.78,19.53,16.75C103.49,33.96,103.27,36.08,103.27,38.39z M93.5,31.3c-0.16-5.37-3.22-8.58-8.12-8.64
		c-5.26-0.06-9.65,3.65-10.15,8.64C81.32,31.3,87.41,31.3,93.5,31.3z"/>
	<path d="M109.16,45.36c4.12,1.87,7.57,3.6,11.15,4.98c1.13,0.43,3.47,0.32,4.59-0.18c1.4-0.63,1.82-2.15,2.08-3.12
		c0.32-1.21,0-3.12-1.8-4.19c-2.71-1.62-6.02-2.28-8.66-3.98c-3.23-2.08-6.87-4.3-8.81-7.41c-3.44-5.51-0.14-12.55,6.15-14.91
		c4.75-1.78,9.61-2.01,14.5-0.61c6.16,1.76,8.28,5.33,7.18,12.27c-2.63,0-5.29,0-7.94,0c-0.8-4.75-6.01-6.91-10.14-4.36
		c-2.16,1.33-2.46,3.97-0.23,5.51c2.18,1.51,4.81,2.35,7.2,3.57c2.82,1.44,5.71,2.78,8.37,4.49c6.96,4.48,5.23,15.47-1.89,18.98
		c-6.98,3.44-17.83,2.04-23.59-3.28c-1.97-1.82-0.16-5.12-0.16-5.12S108.8,45.85,109.16,45.36z"/>
	<path d="M162.21,15.96c0,2.78,0,5.12,0,7.87c-3.06,0-6.11,0-8.94,0c0,5.24,0.03,10.07-0.01,14.89c-0.06,9.26,0.53,9.96,9.62,10.91
		c0,2.52,0,5.06,0,7.58c-12.31,1.71-19.24-4.21-19.25-16.29c0-5.57,0-11.14,0-16.85c-1.84-0.1-3.29-0.17-4.98-0.26
		c0-2.43,0-4.74,0-7.36c1.44,0,2.98,0,4.92,0c0-3.77,0-7.3,0-11.02c3.31,0,6.24,0,9.42,0c0,3.43,0,6.84,0,10.52
		C155.99,15.96,158.92,15.96,162.21,15.96z"/>
	<path class="st0" d="M214.88,26.41c-1.84-0.15-3.05-0.25-4.43-0.36c0-3.42,0-6.71,0-10.27c4.11,0,8.07-0.25,11.99,0.07
		c3.8,0.31,4.6,3.37,4.64,6.53c0.09,6.58,0.02,13.17,0.02,19.75c0,4.94,0,9.88,0,15.26c-1.83,0-3.27,0.01-4.72,0
		c-5.52-0.04-7.44-1.88-7.48-7.33c-0.05-6.58-0.01-13.17-0.01-19.75C214.88,29.1,214.88,27.89,214.88,26.41z"/>
</g>
</svg>
