<?xml version="1.0" encoding="UTF-8" standalone="no"?>
<!DOCTYPE svg PUBLIC "-//W3C//DTD SVG 1.1//EN" "http://www.w3.org/Graphics/SVG/1.1/DTD/svg11.dtd">
<svg width="100%" height="100%" viewBox="0 0 165 165" version="1.1" xmlns="http://www.w3.org/2000/svg" xmlns:xlink="http://www.w3.org/1999/xlink" xml:space="preserve" xmlns:serif="http://www.serif.com/" style="fill-rule:evenodd;clip-rule:evenodd;stroke-linejoin:round;stroke-miterlimit:1.41421;">
    <g>
        <g transform="matrix(1.12127,0,0,1.05055,-4.19224,-2.93141)">
            <g transform="matrix(1.14877,0,0,1.02789,-2.00744,-4.40054)">
                <rect x="13.494" y="133.828" width="5.536" height="23.965" style="fill-rule:nonzero;"/>
            </g>
            <g transform="matrix(1.14877,0,0,0.33429,-2.00744,75.5542)">
                <rect x="13.494" y="133.828" width="5.536" height="23.965" style="fill-rule:nonzero;"/>
            </g>
            <path d="M25.488,133.828L31.048,133.828L31.048,136.043C32.984,134.124 35.166,133.164 37.593,133.164C40.382,133.164 42.555,134.042 44.113,135.797C45.458,137.289 46.131,139.725 46.131,143.104L46.131,157.793L40.57,157.793L40.57,144.408C40.57,142.046 40.242,140.414 39.586,139.512C38.946,138.593 37.782,138.134 36.092,138.134C34.255,138.134 32.951,138.741 32.18,139.955C31.426,141.152 31.048,143.244 31.048,146.229L31.048,157.793L25.488,157.793L25.488,133.828Z" style="fill-rule:nonzero;"/>
            <path d="M89.557,147.115L72.383,147.115C72.53,149.083 73.17,150.65 74.302,151.814C75.434,152.962 76.885,153.536 78.657,153.536C80.035,153.536 81.175,153.208 82.077,152.552C82.963,151.896 83.971,150.682 85.103,148.911L89.778,151.519C89.056,152.749 88.293,153.803 87.49,154.681C86.686,155.558 85.825,156.28 84.906,156.846C83.988,157.412 82.995,157.826 81.929,158.088C80.863,158.351 79.707,158.482 78.46,158.482C74.884,158.482 72.014,157.334 69.848,155.037C67.683,152.725 66.601,149.657 66.601,145.835C66.601,142.046 67.65,138.979 69.75,136.633C71.866,134.32 74.671,133.164 78.165,133.164C81.691,133.164 84.48,134.288 86.53,136.535C88.564,138.766 89.581,141.858 89.581,145.811L89.557,147.115ZM83.873,142.587C83.102,139.635 81.24,138.159 78.288,138.159C77.615,138.159 76.984,138.261 76.393,138.466C75.803,138.671 75.265,138.967 74.782,139.352C74.298,139.737 73.883,140.201 73.539,140.742C73.195,141.283 72.932,141.899 72.752,142.587L83.873,142.587Z" style="fill-rule:nonzero;"/>
            <g transform="matrix(1,0,0,1,-2.28487,-0.00400954)">
                <path d="M112.721,133.828L118.282,133.828L118.282,157.793L112.721,157.793L112.721,155.283C110.441,157.416 107.989,158.482 105.364,158.482C102.051,158.482 99.312,157.285 97.146,154.89C94.998,152.446 93.923,149.395 93.923,145.737C93.923,142.145 94.998,139.151 97.146,136.756C99.295,134.361 101.985,133.164 105.217,133.164C108.005,133.164 110.507,134.312 112.721,136.609L112.721,133.828ZM99.582,145.737C99.582,148.033 100.197,149.903 101.427,151.347C102.691,152.807 104.282,153.536 106.201,153.536C108.251,153.536 109.908,152.831 111.171,151.42C112.434,149.961 113.065,148.107 113.065,145.86C113.065,143.613 112.434,141.759 111.171,140.299C109.908,138.872 108.268,138.159 106.25,138.159C104.347,138.159 102.756,138.88 101.477,140.324C100.214,141.784 99.582,143.588 99.582,145.737Z" style="fill-rule:nonzero;"/>
            </g>
            <g transform="matrix(1.10789,0,0,1.03634,-15.1256,-5.75858)">
                <path d="M138.641,137.913L134.065,140.348C133.343,138.872 132.449,138.134 131.383,138.134C130.874,138.134 130.44,138.302 130.079,138.638C129.718,138.975 129.537,139.405 129.537,139.93C129.537,140.849 130.604,141.759 132.736,142.661C135.672,143.924 137.649,145.089 138.666,146.155C139.683,147.221 140.191,148.657 140.191,150.461C140.191,152.774 139.338,154.709 137.632,156.268C135.976,157.744 133.974,158.482 131.629,158.482C127.61,158.482 124.764,156.522 123.091,152.602L127.815,150.412C128.471,151.56 128.972,152.29 129.316,152.602C129.988,153.225 130.792,153.536 131.727,153.536C133.597,153.536 134.532,152.684 134.532,150.978C134.532,149.993 133.81,149.075 132.367,148.222C131.809,147.943 131.252,147.672 130.694,147.41C130.136,147.148 129.57,146.877 128.996,146.598C127.389,145.811 126.257,145.023 125.601,144.236C124.764,143.235 124.346,141.948 124.346,140.373C124.346,138.29 125.059,136.568 126.486,135.206C127.946,133.845 129.718,133.164 131.801,133.164C134.868,133.164 137.148,134.747 138.641,137.913Z" style="fill-rule:nonzero;"/>
            </g>
        </g>
        <g>
            <g transform="matrix(1.15337,0,0,1.15337,-17.567,-9.06216)">
                <path d="M98.191,76.257C103.574,78.565 109.5,79.838 115.721,79.838C117.52,79.838 119.294,79.732 121.022,79.495C113.795,89.584 102.477,96.512 89.491,97.879C94.175,91.739 97.273,84.335 98.191,76.257Z" style="fill-opacity:0.776471;"/>
            </g>
            <g transform="matrix(1.15337,0,0,1.15337,-17.567,-9.06216)">
                <path d="M79.461,9.067C75.108,15.043 72.226,22.164 71.348,29.904C65.965,27.597 60.039,26.324 53.818,26.324C52.223,26.324 50.647,26.407 49.09,26.579C56.209,17.066 67.046,10.513 79.461,9.067Z" style="fill-opacity:0.776471;"/>
            </g>
        </g>
        <g transform="matrix(1.15337,0,0,1.15337,18.1393,-30.1642)">
            <path d="M48.518,27.361C50.231,27.127 52.005,27.02 53.804,27.02C78.478,27.02 98.509,47.052 98.509,71.725C98.509,81.467 95.387,90.485 90.063,97.791C88.336,98.028 86.561,98.134 84.762,98.134C78.541,98.134 72.615,96.861 67.233,94.553C67.461,92.86 67.565,91.104 67.565,89.325C67.565,70.872 56.361,55.016 40.389,48.2C41.287,40.47 44.158,33.343 48.518,27.361Z" style="fill-opacity:0.431373;"/>
        </g>
        <g transform="matrix(1.15337,0,0,1.15337,-53.2577,11.2367)">
            <path d="M129.128,58.654C128.217,66.735 125.119,74.139 120.435,80.279C118.878,80.451 117.302,80.535 115.707,80.535C91.034,80.535 71.002,60.503 71.002,35.83C71.002,25.742 74.35,16.43 80.034,8.98C81.591,8.808 83.167,8.724 84.762,8.724C90.984,8.724 96.91,9.998 102.292,12.305C102.064,13.998 101.96,15.754 101.96,17.534C101.96,35.96 113.132,51.797 129.128,58.654Z" style="fill-opacity:0.643137;"/>
        </g>
        <g transform="matrix(1.15337,0,0,1.15337,-53.2577,11.2367)">
            <path d="M129.313,57.173L129.165,58.351L129.337,56.593L129.313,57.173Z"/>
        </g>
        <g transform="matrix(1.15337,0,0,1.15337,-53.2577,11.2367)">
            <path d="M129.237,48.861L129.259,49.314L129.123,48.119L129.237,48.861Z"/>
        </g>
        <g transform="matrix(1.15337,0,0,1.15337,-53.2577,11.2367)">
            <path d="M128.559,44.424L128.67,45.154L128.45,44.002L128.559,44.424Z"/>
        </g>
        <g transform="matrix(1.15337,0,0,1.15337,-53.2577,11.2367)">
            <path d="M127.456,40.141L127.46,40.157L127.419,40.04L127.456,40.141Z"/>
        </g>
        <g transform="matrix(1.15337,0,0,1.15337,-53.2577,11.2367)">
            <path d="M125.952,36.035L126.107,36.459L125.638,35.384L125.952,36.035Z"/>
        </g>
        <g transform="matrix(1.15337,0,0,1.15337,-53.2577,11.2367)">
            <path d="M124.069,32.127L124.385,32.783L123.853,31.772L124.069,32.127Z"/>
        </g>
        <g transform="matrix(1.15337,0,0,1.15337,-53.2577,11.2367)">
            <path d="M121.828,28.441L121.849,28.475L121.685,28.249L121.828,28.441Z"/>
        </g>
        <g transform="matrix(1.15337,0,0,1.15337,-53.2577,11.2367)">
            <path d="M119.254,24.999L119.539,25.381L118.76,24.456L119.254,24.999Z"/>
        </g>
        <g transform="matrix(1.15337,0,0,1.15337,-53.2577,11.2367)">
            <path d="M116.368,21.824L116.885,22.393L116.055,21.54L116.368,21.824Z"/>
        </g>
        <g transform="matrix(1.15337,0,0,1.15337,-53.2577,11.2367)">
            <path d="M113.192,18.938L113.252,18.992L112.824,18.662L113.192,18.938Z"/>
        </g>
        <g transform="matrix(1.15337,0,0,1.15337,-53.2577,11.2367)">
            <path d="M109.75,16.363L110.182,16.686L109.065,15.947L109.75,16.363Z"/>
        </g>
        <g transform="matrix(1.15337,0,0,1.15337,-53.2577,11.2367)">
            <path d="M106.064,14.123L106.817,14.581L105.644,13.921L106.064,14.123Z"/>
        </g>
        <g transform="matrix(1.15337,0,0,1.15337,-53.2577,11.2367)">
            <path d="M129.136,58.658L129.128,58.654L129.165,58.351L129.136,58.658Z"/>
        </g>
        <g transform="matrix(1.15337,0,0,1.15337,-53.2577,11.2367)">
            <path d="M129.259,49.314C129.403,50.647 129.467,52.031 129.467,53.429C129.467,54.503 129.43,55.568 129.337,56.593L129.467,53.429L129.259,49.314Z"/>
        </g>
        <g transform="matrix(1.15337,0,0,1.15337,-53.2577,11.2367)">
            <path d="M128.955,46.644L129.123,48.119L128.67,45.154L128.955,46.644Z"/>
        </g>
        <g transform="matrix(1.15337,0,0,1.15337,-53.2577,11.2367)">
            <path d="M127.46,40.157C127.85,41.41 128.187,42.687 128.45,44.002L127.46,40.157Z"/>
        </g>
        <g transform="matrix(1.15337,0,0,1.15337,-53.2577,11.2367)">
            <path d="M126.382,37.087L127.419,40.04L126.107,36.459L126.382,37.087Z"/>
        </g>
        <g transform="matrix(1.15337,0,0,1.15337,-53.2577,11.2367)">
            <path d="M125.08,34.105L125.638,35.384L124.385,32.783L125.08,34.105Z"/>
        </g>
        <g transform="matrix(1.15337,0,0,1.15337,-53.2577,11.2367)">
            <path d="M121.849,28.475C122.568,29.54 123.242,30.637 123.853,31.772L121.849,28.475Z"/>
        </g>
        <g transform="matrix(1.15337,0,0,1.15337,-53.2577,11.2367)">
            <path d="M119.978,25.902L121.685,28.249L119.539,25.381L119.978,25.902Z"/>
        </g>
        <g transform="matrix(1.15337,0,0,1.15337,-53.2577,11.2367)">
            <path d="M117.909,23.447L118.76,24.456L116.885,22.393L117.909,23.447Z"/>
        </g>
        <g transform="matrix(1.15337,0,0,1.15337,-53.2577,11.2367)">
            <path d="M113.252,18.992C114.225,19.798 115.163,20.643 116.055,21.54L113.252,18.992Z"/>
        </g>
        <g transform="matrix(1.15337,0,0,1.15337,-53.2577,11.2367)">
            <path d="M110.731,17.05L112.824,18.662L110.182,16.686L110.731,17.05Z"/>
        </g>
        <g transform="matrix(1.15337,0,0,1.15337,-53.2577,11.2367)">
            <path d="M108.045,15.272L109.065,15.947L106.817,14.581L108.045,15.272Z"/>
        </g>
        <g transform="matrix(1.15337,0,0,1.15337,-53.2577,11.2367)">
            <path d="M105.229,13.687L105.644,13.921L102.292,12.305L105.229,13.687Z"/>
        </g>
        <path d="M69.08,122.976L69.08,129.98C69.08,129.98 62.314,128.004 63.048,136.96L69.08,136.96L69.08,142.945L63.048,142.945L63.048,162.838L56.072,162.838L56.072,142.945L51.967,142.945L51.967,136.96L56.072,136.96L56.072,128.924C56.072,128.924 58.045,120.843 69.08,122.976Z"/>
    </g>
</svg>
