<?xml version="1.0" encoding="utf-8"?>
<!-- Generator: Adobe Illustrator 23.0.1, SVG Export Plug-In . SVG Version: 6.00 Build 0)  -->
<svg version="1.1" id="Layer_1" xmlns="http://www.w3.org/2000/svg" xmlns:xlink="http://www.w3.org/1999/xlink" x="0px" y="0px"
	 viewBox="0 0 183.49 32.43" style="enable-background:new 0 0 183.49 32.43;" xml:space="preserve">
<style type="text/css">
	.st0{fill:#FFFFFF;}
</style>
<g>
	<path d="M0,31.17c0.34-0.65,0.74-1.28,1.01-1.96c3.6-8.94,7.21-17.89,10.75-26.86c0.45-1.13,1-1.62,2.24-1.51
		c1.61,0.14,3.63-0.46,4.75,0.31c1.1,0.77,1.33,2.83,1.88,4.34c2.96,8.14,5.91,16.3,8.86,24.45c0.18,0.49,0.31,1,0.53,1.74
		c-2.44,0-4.7,0.08-6.94-0.07c-0.42-0.03-1.04-0.9-1.13-1.46c-0.31-1.84-1.21-2.46-3.09-2.31c-2.37,0.19-4.77,0.1-7.16,0.02
		c-1.08-0.03-1.64,0.23-1.96,1.37c-0.69,2.47-0.77,2.44-3.39,2.46C4.22,31.72,2.11,31.78,0,31.82C0,31.6,0,31.39,0,31.17z
		 M15.91,10.26c-0.14,0-0.27,0.01-0.41,0.01c-1.18,3.97-2.36,7.93-3.57,11.98c2.57,0,4.92,0,7.47,0
		C18.2,18.13,17.05,14.2,15.91,10.26z"/>
	<path d="M92.06,0.87c2.42,0,4.54-0.08,6.64,0.05c0.52,0.03,1.18,0.64,1.47,1.16c3.23,5.71,6.4,11.46,9.59,17.2
		c0.2,0.37,0.43,0.72,0.95,1.03c0-6.4,0-12.81,0-19.33c2.41,0,4.6,0,6.9,0c0,10.18,0,20.31,0,30.7c-2.28,0-4.53,0.06-6.78-0.05
		c-0.41-0.02-0.9-0.69-1.17-1.16c-3.1-5.48-6.16-10.97-9.24-16.46c-0.28-0.5-0.59-0.99-1.23-1.42c0,6.3,0,12.6,0,19.1
		c-2.27,0-4.33,0.05-6.37-0.06c-0.28-0.01-0.73-0.82-0.74-1.27c-0.07-2.99-0.03-5.97-0.04-8.96c0-6.19,0-12.38,0-18.57
		C92.06,2.23,92.06,1.64,92.06,0.87z"/>
	<path d="M167.07,32.43c-9.4,0-16.36-6.9-16.32-16.18c0.04-9.29,6.99-16.21,16.33-16.25c9.37-0.04,16.5,7.06,16.41,16.33
		C183.4,25.68,176.51,32.43,167.07,32.43z M176.17,16.2c-0.01-4.67-2.83-8.56-6.88-9.52c-4.84-1.14-9.41,1.59-10.81,6.48
		c-1.51,5.28,1.09,10.91,5.77,12.46C170.38,27.65,176.18,23.07,176.17,16.2z"/>
	<path d="M86.9,31.69c-2.43,0-4.6,0.07-6.76-0.06c-0.46-0.03-1.07-0.74-1.27-1.27c-0.9-2.45-0.86-2.47-3.45-2.47
		c-2.28,0-4.56,0.07-6.84-0.03c-1.19-0.05-1.91,0.31-2.03,1.5c-0.2,1.99-1.28,2.56-3.19,2.36c-1.59-0.17-3.22-0.04-5.13-0.04
		c0.64-1.81,1.2-3.36,1.76-4.92c2.92-8.16,5.85-16.32,8.72-24.5c0.39-1.11,0.91-1.52,2.07-1.43c1.67,0.13,3.74-0.46,4.91,0.33
		c1.1,0.74,1.28,2.87,1.83,4.4c2.9,8,5.78,16,8.67,24C86.42,30.17,86.6,30.79,86.9,31.69z M68.77,22.27c2.58,0,4.93,0,7.49,0
		c-1.21-4.15-2.38-8.14-3.55-12.14c-0.11,0.01-0.22,0.02-0.33,0.02C71.2,14.12,70.01,18.09,68.77,22.27z"/>
	<path d="M126.42,0.95c6.25,0,12.37,0,18.6,0c0,1.79,0,3.5,0,5.5c-1.78,0-3.55,0-5.32,0c-1.68,0-3.37-0.06-5.05,0.04
		c-0.43,0.03-1.17,0.53-1.19,0.85c-0.11,1.99-0.06,3.99-0.06,6.19c3.94,0,7.71,0,11.6,0c0,1.9,0,3.61,0,5.51c-3.78,0-7.55,0-11.47,0
		c0,2.38,0,4.56,0,6.93c3.82,0,7.59,0,11.48,0c0,1.89,0,3.6,0,5.51c-0.33,0.06-0.71,0.21-1.1,0.21c-5.43,0.01-10.87-0.01-16.3,0.03
		c-0.97,0.01-1.34-0.29-1.34-1.3c0.03-9.56,0.02-19.12,0.03-28.68C126.3,1.52,126.36,1.31,126.42,0.95z"/>
	<path d="M58.16,0.87c-0.63,1.88-1.19,3.56-1.76,5.24c-2.72,8-5.46,16-8.13,24.02c-0.39,1.16-0.87,1.7-2.15,1.59
		c-1.61-0.14-3.64,0.46-4.74-0.32c-1.1-0.78-1.32-2.85-1.87-4.38c-2.89-8.06-5.76-16.13-8.63-24.19c-0.2-0.55-0.37-1.11-0.65-1.94
		c2.47,0,4.77-0.04,7.06,0.05c0.3,0.01,0.69,0.72,0.83,1.18c1.93,6.16,3.82,12.32,5.72,18.49c0.16,0.51,0.35,1,0.67,1.88
		c1.32-4.29,2.53-8.21,3.74-12.12c0.86-2.8,1.68-5.6,2.6-8.38c0.15-0.44,0.69-1.05,1.08-1.07C53.91,0.81,55.92,0.87,58.16,0.87z"/>
	<path class="st0" d="M15.91,10.26c1.15,3.94,2.29,7.88,3.49,11.99c-2.55,0-4.89,0-7.47,0c1.21-4.05,2.39-8.01,3.57-11.98
		C15.63,10.27,15.77,10.26,15.91,10.26z"/>
	<path class="st0" d="M176.17,16.2c0.02,6.86-5.79,11.45-11.92,9.42c-4.68-1.55-7.28-7.18-5.77-12.46c1.4-4.88,5.97-7.62,10.81-6.48
		C173.34,7.64,176.16,11.54,176.17,16.2z"/>
	<path class="st0" d="M68.77,22.27c1.25-4.18,2.43-8.15,3.61-12.11c0.11-0.01,0.22-0.02,0.33-0.02c1.17,3.99,2.33,7.99,3.55,12.14
		C73.7,22.27,71.35,22.27,68.77,22.27z"/>
</g>
</svg>
