<?xml version="1.0" encoding="utf-8"?>
<!-- Generator: Adobe Illustrator 23.0.1, SVG Export Plug-In . SVG Version: 6.00 Build 0)  -->
<svg version="1.1" id="Layer_1" xmlns="http://www.w3.org/2000/svg" xmlns:xlink="http://www.w3.org/1999/xlink" x="0px" y="0px"
	 viewBox="0 0 513.9 120.37" style="enable-background:new 0 0 513.9 120.37;" xml:space="preserve">
<style type="text/css">
	.st0{fill:#FFFFFF;}
</style>
<g>
	<path d="M50.34,0.02c25.35-0.08,46.82,18.72,49.78,43.67c1.75,14.79-2,28.18-12,39.23c-10.08,11.12-20.81,21.65-31.27,32.42
		c-1.44,1.48-3,2.83-4.44,4.31c-0.92,0.95-1.68,0.94-2.63,0.06c-13.06-12.18-26.57-23.95-37.94-37.75
		C-0.43,67.08-3.18,49.98,3.68,32.04C10.5,14.22,24.02,3.84,42.82,0.45c1.2-0.22,2.43-0.35,3.65-0.41
		C47.75-0.03,49.05,0.02,50.34,0.02z M50.34,89.8c22.03,0,39.85-17.82,39.84-39.83C90.16,28.3,72.38,10.53,50.98,10.22
		C30.32,9.93,10.64,26.25,10.56,50.1C10.48,72.08,28.46,89.8,50.34,89.8z"/>
	<path d="M385.78,77.34c0,0.62,0,1.23,0,1.85c0,5.61,0.01,11.22-0.01,16.83c-0.01,2.38-1.32,3.78-3.44,3.73
		c-2.05-0.05-3.27-1.4-3.27-3.7c-0.01-19.03-0.01-38.05,0-57.08c0-2.55,1.26-3.69,3.73-3.53c1.66,0.1,2.67,0.91,2.74,2.63
		c0.06,1.33,0.01,2.66,0.01,4.01c0.39-0.02,0.58,0.02,0.62-0.04c5.29-7.95,17.69-9.59,27.34-3.63c6.79,4.18,10.29,10.47,11.1,18.3
		c0.64,6.14-0.36,11.94-3.83,17.17c-5.72,8.65-17.91,12.48-27.58,8.7C390.38,81.46,388,79.75,385.78,77.34z M385.68,59.31
		c0.05,0,0.1,0,0.15,0.01c0,1.35-0.06,2.71,0.01,4.06c0.42,7.85,5.9,13.44,13.72,14.04c9.25,0.71,16.75-5.24,18.17-14.42
		c1.49-9.61-3.72-18.52-12.31-21.04c-8.8-2.58-17.71,2.43-19.33,11C385.7,55.03,385.8,57.19,385.68,59.31z"/>
	<path d="M311.56,63.03c0.53,6.48,6.51,12.47,13.29,13.58c5.87,0.96,11.26-0.14,16.12-3.67c1.87-1.36,3.86-1.24,5.02,0.22
		c1.1,1.38,0.78,3.12-1.02,4.74c-3.7,3.33-8.22,4.93-13.06,5.12c-3.56,0.14-7.28-0.05-10.7-0.94
		c-10.79-2.81-17.02-12.07-16.71-24.14c0.29-11.21,7.37-20.25,17.79-22.73c11.21-2.67,22.55,2.02,27.57,11.39
		c2.12,3.96,2.87,8.25,2.97,12.66c0.06,2.39-1.6,3.75-4.42,3.76c-7.93,0.02-15.86,0.01-23.79,0.01
		C320.31,63.03,315.99,63.03,311.56,63.03z M346.02,57.27c0.35-8.87-8.14-16.64-17.68-16.4c-11.33,0.29-17.18,9.11-16.99,16.4
		C322.91,57.27,334.47,57.27,346.02,57.27z"/>
	<path d="M438.81,63.03c0.69,4.44,2.8,7.78,6.14,10.35c6.21,4.79,15.83,4.79,22.67,0.09c2.67-1.84,4.53-1.92,5.79-0.24
		c1.25,1.66,0.58,3.79-2.18,5.58c-9.04,5.86-18.59,6.09-27.87,1.13c-9.26-4.95-11.96-13.67-11.38-23.62
		c0.62-10.61,8.09-19.06,18.69-21.35c10.62-2.29,21.75,2.61,26.59,11.7c2.11,3.96,2.85,8.26,2.92,12.67
		c0.04,2.32-1.59,3.65-4.29,3.68c-3.61,0.04-7.22,0.01-10.83,0.01c-8,0-15.99,0-23.99,0C440.37,63.03,439.68,63.03,438.81,63.03z
		 M473.43,57.29c0.01-9.81-8.66-17.12-19.32-16.29c-9.42,0.73-15.62,8.54-15.35,16.29C450.27,57.29,461.78,57.29,473.43,57.29z"/>
	<path d="M201.15,41.23c0-0.96-0.05-2.03,0.01-3.09c0.1-1.82,1.15-2.84,2.92-2.96c1.92-0.12,3.39,0.94,3.67,2.68
		c0.06,0.38,0.03,0.77,0.03,1.16c0,13.42,0,26.83,0,40.25c0,2.34-0.99,3.57-2.97,3.77c-2.23,0.23-3.58-0.92-3.66-3.17
		c-0.04-1.21-0.01-2.42-0.01-3.61c-0.29-0.02-0.47-0.09-0.51-0.03c-5.48,7.11-12.77,8.72-21.08,6.64
		c-10.88-2.72-17.91-12.8-17.48-24.56c0.35-9.62,4.25-17.09,13.15-21.28c6.55-3.08,13.38-3.29,20-0.17
		C197.35,37.87,199.1,39.69,201.15,41.23z M201.3,58.97c-0.05,0-0.11-0.01-0.16-0.01c0-0.9,0.02-1.8,0-2.71
		c-0.21-7.54-3.4-12.08-9.73-14.12c-9.44-3.05-21.35,2.16-22.46,14.55c-0.8,8.89,3.76,16.96,11.63,19.68
		c9.06,3.13,18.15-1.65,20.09-10.68C201.13,63.49,201.1,61.21,201.3,58.97z"/>
	<path d="M256.09,42.71c6.78-9.69,21.97-10.34,30.31-4.47c5.45,3.84,8.35,9.12,8.49,15.7c0.19,8.64,0.06,17.28,0.04,25.93
		c0,2.4-0.96,3.4-3.17,3.43c-2.31,0.02-3.42-1.05-3.42-3.43c-0.02-7.87,0.04-15.74-0.02-23.61c-0.06-7.83-4.48-13.67-11.57-15.08
		c-9.38-1.86-20.87,4.48-20.68,16.29c0.12,7.42,0.04,14.83,0.01,22.25c-0.01,2.8-1.5,4-4.23,3.52c-1.44-0.26-2.27-1.14-2.54-2.55
		c-0.07-0.37-0.03-0.77-0.03-1.16c0-18.25,0-36.51,0-54.76c0-2.49,1.11-3.6,3.48-3.55c2.23,0.05,3.31,1.09,3.32,3.36
		c0.03,5.35,0.01,10.71,0.01,16.06C256.09,41.32,256.09,42.02,256.09,42.71z"/>
	<path d="M139,34.06c6.73-0.08,12.27,2.51,16.71,7.51c1.46,1.65,1.46,3.32,0.05,4.57c-1.5,1.33-3.28,1.21-4.79-0.38
		c-5.04-5.3-11.19-6.84-18.01-4.69c-6.82,2.15-10.37,7.39-11.48,14.25c-1.16,7.16,0.21,13.68,6.05,18.54
		c7.18,5.97,18.39,4.95,24.41-2.04c1.41-1.64,3.22-1.92,4.73-0.74c1.54,1.21,1.64,3,0.13,4.74c-5.46,6.27-12.52,8.66-20.61,8.04
		c-10.17-0.79-17.95-7.07-20.77-16.43c-3.19-10.61-0.23-21.86,7.38-28.06C127.13,35.85,132.6,34.06,139,34.06z"/>
	<path d="M226.67,41.96c2.37-2.97,4.97-5.27,8.6-6.06c1.81-0.39,3.68-0.6,5.54-0.64c2-0.04,3.2,1.22,3.27,3.07
		c0.07,1.83-1.06,3.07-3.05,3.3c-1.15,0.13-2.33,0.09-3.46,0.32c-5.66,1.14-9.39,5.44-10.36,12c-0.28,1.9-0.4,3.84-0.42,5.77
		c-0.05,6.51-0.01,13.02-0.02,19.53c0,2.49-1.17,3.8-3.34,3.82c-2.19,0.02-3.31-1.23-3.31-3.78c-0.01-13.41-0.01-26.81,0-40.22
		c0-2.47,1.2-3.84,3.3-3.84c1.98,0,3.12,1.29,3.25,3.75C226.71,39.96,226.67,40.96,226.67,41.96z"/>
	<path d="M496.49,41.95c3.59-5.06,8.4-6.82,14.11-6.71c2.01,0.04,3.21,1.22,3.29,3.07c0.09,1.83-1.04,3.07-3.03,3.33
		c-9.83,1.28-14.02,5.88-14.21,15.94c-0.14,7.28-0.04,14.56-0.07,21.85c-0.01,2.44-1.45,3.83-3.7,3.64
		c-1.94-0.16-2.94-1.33-2.94-3.55c-0.02-6.51-0.01-13.02-0.01-19.53c0-6.96-0.01-13.92,0-20.88c0-2.49,1.17-3.85,3.27-3.87
		c1.97-0.02,3.15,1.29,3.27,3.72C496.54,39.94,496.49,40.95,496.49,41.95z"/>
	<path d="M361.8,51.96c0-9.02,0-18.05,0-27.07c0-2.57,1.07-3.84,3.23-3.89c2.14-0.05,3.42,1.42,3.42,3.95
		c0,18.11,0.01,36.23,0,54.34c0,2.85-1.96,4.38-4.51,3.58c-1.71-0.54-2.16-1.79-2.15-3.44C361.81,70.27,361.8,61.12,361.8,51.96z"/>
	<path d="M34.32,65.06c-0.51,3.44-0.51,3.44-4.13,3.44c-2.06,0-4.13-0.05-6.19,0.02c-1.32,0.04-1.92-0.46-1.87-1.79
		c0.03-0.84-0.03-1.68,0.01-2.52c0.07-1.2-0.55-2.06-1.04-3.1c-0.85-1.83-1.15-4.01-1.24-6.06c-0.23-5.32,1.49-10.01,5.19-13.92
		c0.21-0.22,0.34-0.51-0.08-0.33c-0.8-1.09-1.66-2.13-2.38-3.27c-1.08-1.7-0.62-3.06,1.2-3.93c2.55-1.21,5.1-0.92,7.12,0.9
		c1.29-1.31,2.64-2.59,3.86-3.97c1.02-1.15,2.16-1.6,3.72-1.58c8,0.07,16,0.06,24,0.01c1.48-0.01,2.57,0.37,3.52,1.54
		c1.09,1.34,2.37,2.53,3.63,3.85c2.11-2.12,4.5-1.64,6.84-0.8c2.01,0.72,2.53,2.45,1.24,4.15c-0.76,1-1.81,1.77-2.76,2.67
		c0.08,0.16,0.13,0.36,0.25,0.49c4.77,4.71,5.34,10.64,4.94,16.86c-0.03,0.5-0.05,1.15-0.36,1.46c-2.07,2.07-1.9,4.67-1.76,7.24
		c0.09,1.62-0.54,2.18-2.13,2.11c-2.32-0.1-4.65-0.12-6.97,0.01c-1.78,0.1-2.74-0.37-2.44-2.33c0.05-0.31-0.03-0.64-0.07-1.14
		C55.75,65.06,45.08,65.06,34.32,65.06z M50.34,56.4c0.77-0.07,2.11,0.03,3.32-0.32c3.56-1.05,7.08-2.24,10.58-3.49
		c0.39-0.14,0.55-0.97,0.81-1.47c-0.56-0.1-1.12-0.27-1.68-0.29c-0.28-0.01-0.56,0.29-0.85,0.43c-5.85,2.88-11.99,3.97-18.38,2.43
		c-2.47-0.6-4.79-1.83-7.21-2.68c-0.54-0.19-1.22,0.01-1.84,0.03c0.29,0.56,0.52,1.16,0.89,1.66c0.21,0.28,0.65,0.41,0.99,0.58
		C41.01,55.3,45.31,56.3,50.34,56.4z M25.46,47.82c0.01,2.16,1.73,3.95,3.85,3.99c2.2,0.05,4.04-1.78,4.04-4.01
		c0-2.21-1.86-4.04-4.06-3.98C27.16,43.88,25.45,45.66,25.46,47.82z M70.57,43.82c-1.89,0.01-3.74,1.53-3.91,3.37
		c-0.04,0.49,0.46,1.03,0.72,1.55c0.41-0.31,0.83-0.6,1.21-0.94c0.65-0.6,1.18-1.58,1.92-1.77c1.21-0.32,1.73,0.68,2.05,1.79
		c0.11,0.39,0.8,0.61,1.22,0.91c0.24-0.52,0.74-1.07,0.69-1.56C74.29,45.3,72.44,43.8,70.57,43.82z"/>
	<path class="st0" d="M50.34,56.4c-5.03-0.1-9.33-1.1-13.37-3.12c-0.35-0.17-0.78-0.3-0.99-0.58c-0.37-0.5-0.6-1.1-0.89-1.66
		c0.62-0.02,1.3-0.22,1.84-0.03c2.42,0.85,4.74,2.08,7.21,2.68c6.39,1.54,12.53,0.45,18.38-2.43c0.29-0.14,0.57-0.43,0.85-0.43
		c0.56,0.01,1.12,0.18,1.68,0.29c-0.26,0.51-0.42,1.33-0.81,1.47c-3.5,1.24-7.02,2.44-10.58,3.49
		C52.45,56.43,51.11,56.33,50.34,56.4z"/>
	<path class="st0" d="M25.46,47.82c-0.01-2.16,1.7-3.95,3.83-4c2.2-0.06,4.06,1.77,4.06,3.98c0,2.23-1.84,4.06-4.04,4.01
		C27.19,51.77,25.47,49.98,25.46,47.82z M31.61,48.23c-0.01-0.31-0.01-0.62-0.02-0.94c-0.76-0.45-1.56-1.29-2.27-1.23
		c-0.66,0.06-1.82,1.22-1.72,1.66c0.17,0.77,1.08,1.79,1.8,1.89C30.05,49.71,30.86,48.73,31.61,48.23z"/>
	<path class="st0" d="M70.57,43.82c1.88-0.01,3.72,1.48,3.91,3.34c0.05,0.49-0.44,1.04-0.69,1.56c-0.42-0.3-1.11-0.52-1.22-0.91
		c-0.33-1.11-0.85-2.11-2.05-1.79c-0.74,0.19-1.27,1.17-1.92,1.77c-0.38,0.34-0.81,0.63-1.21,0.94c-0.25-0.52-0.76-1.06-0.72-1.55
		C66.82,45.35,68.67,43.83,70.57,43.82z"/>
	<path d="M31.61,48.23c-0.74,0.51-1.55,1.49-2.21,1.39c-0.72-0.1-1.63-1.13-1.8-1.89c-0.1-0.45,1.06-1.6,1.72-1.66
		c0.71-0.06,1.51,0.78,2.27,1.23C31.6,47.6,31.6,47.91,31.61,48.23z"/>
</g>
</svg>
