<?xml version="1.0" encoding="utf-8"?>
<!-- Generator: Adobe Illustrator 23.0.1, SVG Export Plug-In . SVG Version: 6.00 Build 0)  -->
<svg version="1.1" id="Layer_1" xmlns="http://www.w3.org/2000/svg" xmlns:xlink="http://www.w3.org/1999/xlink" x="0px" y="0px"
	 viewBox="0 0 394.29 51.06" style="enable-background:new 0 0 394.29 51.06;" xml:space="preserve">
<style type="text/css">
	.st0{stroke:#000000;stroke-width:0.75;stroke-miterlimit:10;}
</style>
<g>
	<path class="st0" d="M10.92,45.98h-0.13v3.89H0.38V0.38h10.42v21.09h0.13c2.57-3.9,6.23-5.84,10.98-5.84
		c4.35,0,7.7,1.48,10.05,4.44c2.35,2.96,3.53,7.01,3.53,12.15c0,5.57-1.37,10.04-4.12,13.42c-2.75,3.37-6.42,5.06-11.01,5.06
		C16.2,50.69,13.05,49.12,10.92,45.98z M10.63,31.88v3.43c0,2.15,0.63,3.94,1.88,5.35c1.25,1.42,2.86,2.12,4.81,2.12
		c2.37,0,4.21-0.91,5.52-2.73c1.31-1.82,1.96-4.39,1.96-7.72c0-2.76-0.6-4.92-1.8-6.48c-1.2-1.56-2.91-2.33-5.13-2.33
		c-2.09,0-3.82,0.77-5.19,2.32C11.31,27.39,10.63,29.4,10.63,31.88z"/>
	<path class="st0" d="M70.53,36.09H48.52c0.35,4.85,3.44,7.28,9.26,7.28c3.71,0,6.98-0.87,9.79-2.61v7.44
		c-3.12,1.65-7.17,2.48-12.16,2.48c-5.45,0-9.68-1.5-12.69-4.49c-3.01-2.99-4.52-7.17-4.52-12.52c0-5.55,1.63-9.95,4.88-13.19
		c3.25-3.24,7.25-4.86,12-4.86c4.92,0,8.73,1.45,11.42,4.34c2.69,2.89,4.04,6.82,4.04,11.79V36.09z M60.88,29.76
		c0-4.79-1.96-7.18-5.87-7.18c-1.67,0-3.11,0.69-4.33,2.06c-1.22,1.37-1.96,3.08-2.22,5.13H60.88z"/>
	<path class="st0" d="M102.79,49.87h-9.86v-4.8H92.8c-2.26,3.74-5.61,5.62-10.05,5.62c-3.27,0-5.85-0.92-7.73-2.76
		c-1.88-1.84-2.82-4.29-2.82-7.36c0-6.49,3.88-10.23,11.64-11.23L93,28.13c0-3.66-2-5.48-6-5.48c-4.02,0-7.84,1.19-11.47,3.56v-7.77
		c1.45-0.74,3.43-1.39,5.95-1.96c2.52-0.57,4.81-0.85,6.87-0.85c9.62,0,14.44,4.76,14.44,14.27V49.87z M93,36.29v-2.25l-6.13,0.78
		c-3.38,0.44-5.08,1.95-5.08,4.54c0,1.18,0.41,2.14,1.24,2.89c0.82,0.75,1.94,1.13,3.35,1.13c1.96,0,3.55-0.67,4.78-2.01
		C92.38,40.03,93,38.33,93,36.29z"/>
	<path class="st0" d="M134.58,48.66c-2.35,1.35-5.75,2.02-10.18,2.02c-5.19,0-9.38-1.56-12.59-4.67c-3.21-3.11-4.81-7.13-4.81-12.05
		c0-5.68,1.72-10.16,5.16-13.43c3.44-3.28,8.04-4.91,13.79-4.91c3.98,0,6.86,0.52,8.64,1.57v8.75c-2.18-1.61-4.6-2.42-7.28-2.42
		c-2.99,0-5.36,0.87-7.1,2.6s-2.62,4.12-2.62,7.17c0,2.96,0.83,5.28,2.51,6.97c1.67,1.69,3.97,2.53,6.89,2.53
		c2.59,0,5.13-0.8,7.61-2.42V48.66z"/>
	<path class="st0" d="M155.46,50.69c-5.63,0-10.05-1.56-13.27-4.68c-3.22-3.12-4.83-7.36-4.83-12.72c0-5.53,1.67-9.85,5.01-12.98
		c3.34-3.12,7.86-4.68,13.55-4.68c5.6,0,10,1.56,13.18,4.68c3.19,3.12,4.78,7.25,4.78,12.39c0,5.55-1.64,9.94-4.93,13.16
		C165.68,49.07,161.18,50.69,155.46,50.69z M155.73,23.52c-2.46,0-4.37,0.84-5.74,2.51c-1.36,1.68-2.04,4.05-2.04,7.12
		c0,6.42,2.61,9.63,7.84,9.63c4.99,0,7.48-3.3,7.48-9.89C163.27,26.65,160.76,23.52,155.73,23.52z"/>
	<path class="st0" d="M211.22,49.87h-10.38V31.29c0-5.18-1.87-7.77-5.6-7.77c-1.8,0-3.29,0.69-4.45,2.06
		c-1.16,1.37-1.75,3.11-1.75,5.22v19.07h-10.42V16.44h10.42v5.29h0.13c2.48-4.07,6.1-6.11,10.84-6.11c7.47,0,11.21,4.59,11.21,13.78
		V49.87z"/>
	<path class="st0" d="M215.22,48.99v-8.36c1.71,1.02,3.42,1.78,5.13,2.29c1.7,0.5,3.31,0.75,4.83,0.75c1.85,0,3.3-0.25,4.37-0.75
		c1.07-0.5,1.6-1.26,1.6-2.29c0-0.65-0.24-1.2-0.73-1.63c-0.48-0.44-1.1-0.82-1.86-1.14c-0.76-0.33-1.59-0.62-2.49-0.88
		c-0.9-0.26-1.77-0.56-2.6-0.88c-1.34-0.5-2.52-1.04-3.54-1.62c-1.02-0.58-1.88-1.25-2.57-2.01c-0.69-0.76-1.22-1.64-1.58-2.64
		c-0.36-1-0.54-2.19-0.54-3.56c0-1.87,0.41-3.48,1.24-4.83c0.82-1.35,1.92-2.45,3.3-3.31c1.37-0.86,2.94-1.49,4.71-1.89
		c1.77-0.4,3.61-0.6,5.52-0.6c1.49,0,3.01,0.11,4.55,0.34c1.54,0.23,3.05,0.56,4.55,1v7.97c-1.32-0.76-2.73-1.33-4.24-1.71
		c-1.51-0.38-2.98-0.57-4.43-0.57c-0.68,0-1.32,0.06-1.93,0.18c-0.6,0.12-1.14,0.29-1.6,0.52c-0.46,0.23-0.82,0.52-1.09,0.88
		s-0.4,0.77-0.4,1.22c0,0.61,0.2,1.13,0.59,1.57c0.4,0.44,0.91,0.81,1.55,1.13c0.64,0.32,1.35,0.6,2.13,0.85
		c0.78,0.25,1.55,0.51,2.32,0.77c1.38,0.48,2.64,1,3.76,1.57c1.12,0.57,2.08,1.23,2.88,1.99c0.8,0.76,1.42,1.65,1.85,2.68
		c0.43,1.02,0.64,2.24,0.64,3.66c0,1.98-0.43,3.67-1.3,5.08c-0.87,1.4-2.02,2.55-3.46,3.43c-1.44,0.88-3.1,1.52-4.98,1.93
		c-1.88,0.4-3.83,0.6-5.85,0.6C221.83,50.69,218.39,50.12,215.22,48.99z"/>
	<path class="st0" d="M298.7,49.87h-10.38V30.8c0-4.85-1.8-7.28-5.41-7.28c-1.71,0-3.11,0.73-4.19,2.19
		c-1.08,1.46-1.62,3.28-1.62,5.45v18.71h-10.42V30.61c0-4.72-1.77-7.08-5.31-7.08c-1.78,0-3.2,0.7-4.27,2.09
		c-1.07,1.39-1.6,3.29-1.6,5.68v18.58h-10.42V16.44h10.42v5.22h0.13c1.08-1.78,2.59-3.24,4.53-4.36c1.94-1.12,4.07-1.68,6.38-1.68
		c4.77,0,8.03,2.08,9.79,6.24c2.57-4.16,6.35-6.24,11.34-6.24c7.34,0,11.01,4.48,11.01,13.45V49.87z"/>
	<path class="st0" d="M310.19,11.15c-1.76,0-3.2-0.52-4.32-1.55c-1.12-1.03-1.68-2.3-1.68-3.8c0-1.55,0.56-2.81,1.68-3.79
		s2.56-1.47,4.32-1.47c1.78,0,3.22,0.49,4.33,1.47c1.11,0.98,1.66,2.24,1.66,3.79c0,1.57-0.56,2.85-1.66,3.85
		C313.41,10.65,311.97,11.15,310.19,11.15z M315.33,49.87h-10.42V16.44h10.42V49.87z"/>
	<path class="st0" d="M354.67,49.87h-10.38V31.29c0-5.18-1.87-7.77-5.6-7.77c-1.8,0-3.29,0.69-4.45,2.06
		c-1.16,1.37-1.75,3.11-1.75,5.22v19.07h-10.42V16.44h10.42v5.29h0.13c2.48-4.07,6.1-6.11,10.84-6.11c7.47,0,11.21,4.59,11.21,13.78
		V49.87z"/>
	<path class="st0" d="M393.91,49.87H383.5v-4.6h-0.13c-2.37,3.61-5.86,5.42-10.45,5.42c-4.22,0-7.61-1.47-10.18-4.42
		c-2.57-2.95-3.86-7.07-3.86-12.36c0-5.53,1.42-9.96,4.25-13.29s6.55-5,11.14-5c4.35,0,7.38,1.55,9.1,4.64h0.13V0.38h10.42V49.87z
		 M383.7,33.61V31.1c0-2.18-0.64-3.98-1.91-5.42c-1.27-1.44-2.93-2.15-4.98-2.15c-2.31,0-4.11,0.9-5.41,2.69
		c-1.3,1.8-1.94,4.26-1.94,7.39c0,2.94,0.63,5.2,1.88,6.79c1.25,1.59,2.99,2.38,5.21,2.38c2.11,0,3.83-0.84,5.16-2.51
		C383.03,38.59,383.7,36.37,383.7,33.61z"/>
</g>
</svg>
