<?xml version="1.0" encoding="utf-8"?>
<!-- Generator: Adobe Illustrator 23.0.1, SVG Export Plug-In . SVG Version: 6.00 Build 0)  -->
<svg version="1.1" id="Layer_1" xmlns="http://www.w3.org/2000/svg" xmlns:xlink="http://www.w3.org/1999/xlink" x="0px" y="0px"
	 viewBox="0 0 468 126.68" style="enable-background:new 0 0 468 126.68;" xml:space="preserve">
<style type="text/css">
	.st0{fill:#1A1A1A;}
	.st1{fill:#808080;}
	.st2{fill:#4D4D4D;}
</style>
<g>
	<g>
		<path class="st0" d="M178.69,63.65c-1.84-1.51-4.03-2.79-6.56-3.84c-2.53-1.05-5.29-2-8.29-2.85c-2.44-0.65-4.6-1.31-6.51-1.97
			c-1.91-0.66-3.5-1.38-4.78-2.17c-1.28-0.79-2.25-1.66-2.9-2.61c-0.66-0.95-0.98-2.08-0.98-3.4c0-0.72,0.2-1.48,0.61-2.26
			c0.41-0.79,0.98-1.49,1.73-2.12c0.75-0.62,1.7-1.15,2.86-1.57c1.15-0.43,2.54-0.64,4.17-0.64c2.62,0,5.13,0.54,7.54,1.62
			c2.4,1.08,4.95,2.97,7.63,5.66l10.77-7.28c-1.06-1.44-2.39-2.94-3.98-4.48c-1.59-1.54-3.45-2.92-5.57-4.13
			c-2.12-1.21-4.53-2.21-7.21-3c-2.68-0.79-5.68-1.18-8.99-1.18c-3.18,0-6.17,0.48-8.94,1.43c-2.78,0.95-5.2,2.32-7.26,4.09
			c-2.06,1.77-3.67,3.96-4.82,6.56c-1.16,2.6-1.73,5.5-1.73,8.73c0,2.96,0.5,5.52,1.5,7.69c1,2.17,2.44,4.03,4.31,5.57
			c1.87,1.54,4.15,2.86,6.84,3.94c2.68,1.09,5.71,2.05,9.08,2.91c2.75,0.72,5.02,1.46,6.84,2.22c1.81,0.76,3.25,1.55,4.31,2.37
			c1.06,0.82,1.81,1.66,2.25,2.51c0.44,0.86,0.66,1.74,0.66,2.66c0,1.31-0.31,2.42-0.94,3.3c-0.63,0.89-1.44,1.63-2.43,2.22
			c-1,0.59-2.11,1.02-3.32,1.28c-1.22,0.26-2.42,0.39-3.61,0.39c-1.87,0-3.59-0.2-5.15-0.59c-1.56-0.39-3-0.97-4.31-1.72
			c-1.31-0.75-2.56-1.67-3.75-2.76c-1.19-1.08-2.37-2.31-3.56-3.69l-10.96,7.28c0.94,1.83,2.29,3.59,4.07,5.29
			c1.78,1.69,3.85,3.21,6.23,4.54c2.37,1.34,5.01,2.41,7.91,3.22c2.9,0.81,5.95,1.22,9.13,1.22c3.43,0,6.6-0.51,9.51-1.53
			c2.9-1.02,5.43-2.46,7.58-4.33c2.15-1.87,3.84-4.12,5.06-6.74c1.22-2.62,1.83-5.51,1.83-8.66v-0.3c0-2.89-0.52-5.38-1.55-7.48
			C181.97,66.96,180.53,65.16,178.69,63.65z"/>
		<path class="st0" d="M205.47,84.22c-1.03-1.05-1.55-2.33-1.55-3.84V64.77h11.53l-5.81-10.93h-5.73V35.3h-12.45v17.82h-6.74v10.93
			h6.74V78.8c0,2.56,0.47,4.96,1.4,7.19c0.94,2.23,2.2,4.18,3.79,5.86c1.59,1.67,3.46,2.99,5.62,3.94c2.15,0.95,4.45,1.43,6.88,1.43
			h9.08V85.79h-9.08C207.73,85.79,206.5,85.27,205.47,84.22z"/>
		<path class="st0" d="M252.06,47.21c-6.37,0-11.21,2.4-14.51,7.19v-6.4h-12.74v49.22h12.74V70.14c0.25-1.57,0.76-3.05,1.55-4.43
			c0.78-1.38,1.73-2.57,2.86-3.59c1.12-1.02,2.4-1.8,3.84-2.36c1.44-0.56,2.96-0.84,4.59-0.84c2.37,0,4.59,0.62,6.65,1.87l0.09,0.1
			l4.78-8.96l1.12-1.97h-0.09C259.42,48.13,255.8,47.21,252.06,47.21z"/>
		<path class="st0" d="M299.05,82.96l-2.97,1.85c-0.87,0.53-1.81,0.95-2.8,1.28c-1,0.33-2.02,0.49-3.08,0.49
			c-2.3,0-4.08-0.38-5.32-1.13c-1.25-0.75-2.16-1.75-2.76-3c-0.59-1.25-0.93-2.69-1.03-4.33c-0.09-1.64-0.14-3.35-0.14-5.12v-25
			h-12.8v25c0,8.47,1.46,14.63,4.39,18.51c3.18,4.33,8.56,6.5,16.16,6.5c3.96,0,7.38-1.05,10.28-3.11v2.62h12.83V47.99h-12.83
			L299.05,82.96z"/>
		<path class="st0" d="M338.3,62.91c1.06-1.28,2.32-2.3,3.79-3.05c1.47-0.75,3.04-1.13,4.73-1.13c2.31,0,4.42,0.76,6.32,2.26
			c1.9,1.51,3.36,3.48,4.35,5.91l0.09,0.1L367.8,60l-0.09-0.1c-2.19-3.94-5.14-7.02-8.85-9.25c-3.72-2.23-7.73-3.35-12.03-3.35
			c-3.37,0-6.52,0.67-9.46,2.02c-2.93,1.35-5.49,3.17-7.68,5.46c-2.19,2.3-3.92,4.99-5.2,8.07c-1.28,3.09-1.92,6.37-1.92,9.84
			c0,3.48,0.64,6.76,1.92,9.84c1.28,3.09,3.01,5.78,5.2,8.07c2.18,2.3,4.74,4.12,7.68,5.46c2.93,1.34,6.09,2.02,9.46,2.02
			c4.31,0,8.32-1.12,12.03-3.35c3.71-2.23,6.66-5.32,8.85-9.25l0.09-0.1l-10.11-6.99l-0.09-0.1l-0.09,0.2
			c-1,2.43-2.45,4.32-4.35,5.66c-1.9,1.35-4.01,2.02-6.32,2.02c-1.69,0-3.26-0.34-4.73-1.03c-1.47-0.69-2.73-1.64-3.79-2.85
			c-1.06-1.21-1.91-2.64-2.53-4.28c-0.63-1.64-0.94-3.41-0.94-5.32c0-1.9,0.31-3.69,0.94-5.36C336.4,65.66,337.24,64.19,338.3,62.91
			z"/>
		<path class="st0" d="M413.74,86.49c-0.79-1.12-1.55-2.23-2.3-3.35c-0.75-1.12-1.76-2.63-3.05-4.54c-1.28-1.91-2.94-4.36-4.97-7.33
			c-0.57-0.84-1.2-1.76-1.87-2.74l3.61-3.79c4.81-5.05,10.14-10.63,16.01-16.73h-15.45l-19.85,19.98V28.31h-12.45v68.9h12.45V85.01
			l5.87-6.17l-0.14,0.72l11.55,17.22l0.11,0.16h17.54c-1.85-2.66-3.3-4.78-4.33-6.38C415.44,88.96,414.53,87.61,413.74,86.49z"/>
		<path class="st0" d="M455.55,28.31v26.58c-3.37-4.99-8.24-7.48-14.61-7.48c-3.37,0-6.52,0.66-9.46,1.97
			c-2.93,1.31-5.49,3.12-7.68,5.41c-2.19,2.3-3.92,4.99-5.2,8.07c-1.28,3.09-1.92,6.37-1.92,9.84c0,3.48,0.64,6.76,1.92,9.84
			c1.28,3.09,3.01,5.78,5.2,8.07c2.18,2.3,4.74,4.1,7.68,5.41c2.93,1.31,6.09,1.97,9.46,1.97c4.43,0,8.18-1.25,11.24-3.74l0.09-0.1
			l-4.59-8.86h-0.09h-0.09c-0.75,0.39-1.56,0.66-2.43,0.79c-0.87,0.13-1.75,0.2-2.62,0.2c-1.81,0-3.5-0.36-5.06-1.08
			c-1.56-0.72-2.92-1.69-4.07-2.9c-1.16-1.21-2.08-2.64-2.76-4.28c-0.69-1.64-1.03-3.41-1.03-5.32c0-1.9,0.34-3.67,1.03-5.32
			c0.69-1.64,1.61-3.08,2.76-4.33c1.15-1.25,2.51-2.21,4.07-2.9c1.56-0.69,3.25-1.03,5.06-1.03c1.81,0,3.51,0.34,5.1,1.03
			c1.59,0.69,2.96,1.64,4.12,2.85c1.15,1.21,2.09,2.64,2.81,4.28c0.72,1.64,1.08,3.38,1.08,5.22l-0.09,24.71H468v-68.9H455.55z"/>
	</g>
	<polygon class="st1" points="0,2.7 38.81,0 105.12,45.28 87.33,72.24 78.7,72.24 69,94.88 58.76,94.88 47.44,126.68 17.79,76.01 
		25.88,73.85 10.78,42.59 14.55,40.43 	"/>
	<polygon class="st2" points="9.92,8.21 61.4,43.19 57.28,67.52 52.06,65.35 50.32,87.72 45.55,86.2 45.76,110.75 27.95,77.08 
		35.77,79.69 17.3,43.41 25.99,46.23 	"/>
</g>
</svg>
