<?xml version="1.0" encoding="utf-8"?>
<!-- Generator: Adobe Illustrator 23.0.1, SVG Export Plug-In . SVG Version: 6.00 Build 0)  -->
<svg version="1.1" id="Layer_1" xmlns="http://www.w3.org/2000/svg" xmlns:xlink="http://www.w3.org/1999/xlink" x="0px" y="0px"
	 viewBox="0 0 377.88 193.18" style="enable-background:new 0 0 377.88 193.18;" xml:space="preserve">
<g>
	<path d="M0,7.34c2.99-6.83,8.96-5.01,14.92-5.17c0,1.66,0,3.09,0,4.51c0,37.12,0,74.24,0,111.36c0,8.6-1.8,10.37-10.47,10.39
		c-1.48,0-2.96,0.08-4.44,0.12C0,88.15,0,47.74,0,7.34z"/>
	<path d="M359.88,115.68c0-37.95,0-75.89,0-114.01c5.07,0,9.71,0,14.78,0c0,1.52,0,2.85,0,4.17c0,37.42,0,74.85-0.01,112.27
		c0,8.08-2.35,9.19-10.46,10.31c-3.26,0.45-5.93,0.45-9.66,0.06c-2.88-0.3-4.4-0.79-5.77-3.37
		c-19.01-35.73-38.14-71.41-57.25-107.09c-0.73-1.37-1.51-2.7-3.1-3.88c0,1.28,0,2.56,0,3.84c0,32.72-0.12,65.43,0.07,98.15
		c0.05,8.72-0.77,13.87-14.87,11.83c0-1.25,0-2.57,0-3.9c0-37.55,0-75.1,0-112.65c0-8.01,2.04-9.99,10.18-9.99
		c3.22,0,6.47,0.23,9.66-0.07c3.25-0.3,4.8,1.11,6.27,3.86c18.94,35.63,38.01,71.2,57.05,106.78c0.69,1.29,1.42,2.55,2.13,3.83
		C359.23,115.79,359.56,115.73,359.88,115.68z"/>
	<path d="M37.87,128.42c0-1.67,0-2.88,0-4.09c0.01-25.53-0.11-51.07,0.14-76.6c0.06-5.62,0.77-11.44,2.39-16.81
		C44.27,18.07,52.75,9.11,65.45,4.39c12.51-4.65,25.25-5.86,38.28-2.41c21.81,5.77,33.42,18.68,34.83,41.15
		c0.95,15.17,0.77,30.52-0.36,45.67c-1.46,19.65-16.08,34.69-35.51,38.1c-5.34,0.94-10.82,1.38-16.25,1.45
		C70.47,128.54,54.5,128.42,37.87,128.42z M52.87,114.69c14.11,0,27.89,0.78,41.54-0.2c16.92-1.21,28.08-12.19,29.35-29.08
		c1.04-13.79,0.63-27.75,0.01-41.6c-0.49-11.09-5.8-20.02-16.07-24.99c-4.49-2.17-9.51-3.86-14.44-4.4
		c-12.18-1.34-23.52,1.22-32.34,10.47c-5.62,5.89-8.16,13.24-8.19,21.35c-0.08,22.06-0.05,44.12-0.05,66.18
		C52.68,113.14,52.8,113.87,52.87,114.69z"/>
	<path d="M161.24,2.35c1.36-0.08,2.2-0.16,3.04-0.16c3.71-0.01,7.41-0.01,11.65-0.01c0,1.71,0,3.16,0,4.61
		c0,27.39,0.51,54.78-0.18,82.15c-0.46,18.03,9.64,23.77,21.71,25.87c8.72,1.52,17.54,1.23,25.91-2.43
		c8.73-3.82,13.17-10.31,13.13-20.01c-0.1-28.38-0.04-56.75-0.04-85.13c0-1.48,0-2.96,0-4.75c4.92,0,9.65,0,14.76,0
		c0,1.59,0,3.04,0,4.5c0.01,27.38,0.01,54.77,0.02,82.15c0.01,21.71-9.73,34.13-31.17,38.77c-14.03,3.03-27.87,2.22-40.81-4.75
		c-11.91-6.42-18.16-16.21-18.07-30.07c0.18-28.87,0.05-57.74,0.05-86.62C161.24,5.24,161.24,4,161.24,2.35z"/>
	<g>
		<path d="M132.54,154.66v1.51h-8.05v26.47h-1.83v-26.47h-8.02v-1.51H132.54z"/>
		<path d="M152.11,179.75c1.48-1.1,2.38-2.6,2.7-4.5h1.86c-0.4,2.3-1.47,4.15-3.23,5.56c-1.76,1.4-4,2.1-6.73,2.1
			c-2.04,0-3.84-0.44-5.42-1.33c-1.57-0.89-2.81-2.16-3.71-3.83c-0.9-1.67-1.35-3.64-1.35-5.91c0-2.25,0.45-4.21,1.35-5.87
			c0.9-1.67,2.14-2.94,3.71-3.83c1.57-0.89,3.38-1.33,5.42-1.33c2.09,0,3.89,0.44,5.42,1.33c1.52,0.89,2.67,2.05,3.45,3.49
			c0.78,1.44,1.17,2.98,1.17,4.62c0,0.66-0.07,1.36-0.2,2.1h-18.53c0.03,2.01,0.44,3.7,1.25,5.06c0.81,1.36,1.85,2.37,3.13,3.02
			c1.28,0.65,2.69,0.97,4.23,0.97C148.8,181.4,150.62,180.85,152.11,179.75z M142.42,163.27c-1.3,0.66-2.35,1.67-3.15,3.02
			c-0.81,1.35-1.22,3.02-1.25,5H155c0.11-1.98-0.22-3.66-0.99-5.02c-0.77-1.36-1.8-2.37-3.09-3.02c-1.3-0.65-2.7-0.97-4.21-0.97
			C145.15,162.27,143.72,162.61,142.42,163.27z"/>
		<path d="M179.13,162.93c1.77,1.42,2.86,3.29,3.25,5.61h-1.87c-0.32-1.9-1.22-3.41-2.7-4.52c-1.48-1.11-3.31-1.67-5.48-1.67
			c-1.56,0-2.99,0.34-4.29,1.03c-1.3,0.69-2.34,1.75-3.13,3.17c-0.79,1.43-1.19,3.19-1.19,5.28c0,2.09,0.4,3.85,1.19,5.28
			c0.79,1.43,1.84,2.49,3.13,3.17c1.3,0.69,2.72,1.03,4.29,1.03c2.17,0,3.99-0.56,5.48-1.67c1.48-1.11,2.38-2.62,2.7-4.52h1.87
			c-0.4,2.35-1.48,4.24-3.25,5.65c-1.77,1.42-4.02,2.12-6.75,2.12c-2.04,0-3.84-0.44-5.42-1.33c-1.57-0.89-2.81-2.16-3.71-3.83
			c-0.9-1.67-1.35-3.64-1.35-5.91c0-2.25,0.45-4.21,1.35-5.87c0.9-1.67,2.14-2.94,3.71-3.83c1.57-0.89,3.38-1.33,5.42-1.33
			C175.11,160.81,177.35,161.51,179.13,162.93z"/>
		<path d="M204.76,163.03c1.59,1.59,2.38,3.93,2.38,7.02v12.58h-1.79v-12.5c0-2.59-0.65-4.57-1.94-5.93
			c-1.3-1.36-3.07-2.04-5.32-2.04c-2.33,0-4.2,0.76-5.61,2.28c-1.42,1.52-2.12,3.76-2.12,6.73v11.47h-1.79v-29.36h1.79v13.49
			c0.53-2.01,1.54-3.53,3.04-4.56c1.49-1.03,3.22-1.55,5.18-1.55C201.11,160.65,203.17,161.44,204.76,163.03z"/>
		<path d="M230.31,163.03c1.59,1.59,2.38,3.93,2.38,7.02v12.58h-1.79v-12.5c0-2.59-0.65-4.57-1.94-5.93
			c-1.3-1.36-3.07-2.04-5.32-2.04c-2.33,0-4.2,0.76-5.61,2.28c-1.42,1.52-2.12,3.76-2.12,6.73v11.47h-1.79v-21.55h1.79v5.67
			c0.53-2.01,1.54-3.53,3.04-4.56c1.49-1.03,3.22-1.55,5.18-1.55C226.66,160.65,228.72,161.44,230.31,163.03z"/>
		<path d="M254.75,162.14c1.61,0.89,2.88,2.16,3.79,3.83c0.91,1.67,1.37,3.62,1.37,5.87c0,2.28-0.46,4.25-1.37,5.91
			c-0.91,1.67-2.18,2.94-3.79,3.83c-1.61,0.89-3.44,1.33-5.48,1.33c-2.01,0-3.82-0.44-5.44-1.33c-1.61-0.89-2.88-2.17-3.81-3.85
			c-0.93-1.68-1.39-3.64-1.39-5.89c0-2.25,0.46-4.21,1.39-5.87c0.93-1.67,2.2-2.94,3.81-3.83c1.61-0.89,3.43-1.33,5.44-1.33
			C251.32,160.81,253.14,161.25,254.75,162.14z M244.93,163.43c-1.34,0.69-2.41,1.74-3.23,3.15c-0.82,1.42-1.23,3.17-1.23,5.26
			c0,2.09,0.41,3.85,1.23,5.28c0.82,1.43,1.9,2.49,3.23,3.17c1.34,0.69,2.78,1.03,4.34,1.03c1.56,0,3.01-0.34,4.34-1.03
			c1.34-0.69,2.41-1.75,3.23-3.17c0.82-1.43,1.23-3.19,1.23-5.28c0-2.09-0.4-3.84-1.21-5.26c-0.81-1.41-1.88-2.47-3.21-3.15
			c-1.34-0.69-2.8-1.03-4.38-1.03C247.72,162.39,246.27,162.74,244.93,163.43z"/>
		<path d="M267.89,153.27v29.36h-1.79v-29.36H267.89z"/>
		<path d="M290.19,162.14c1.61,0.89,2.88,2.16,3.79,3.83c0.91,1.67,1.37,3.62,1.37,5.87c0,2.28-0.46,4.25-1.37,5.91
			c-0.91,1.67-2.18,2.94-3.79,3.83c-1.61,0.89-3.44,1.33-5.48,1.33c-2.01,0-3.82-0.44-5.44-1.33c-1.61-0.89-2.88-2.17-3.81-3.85
			c-0.93-1.68-1.39-3.64-1.39-5.89c0-2.25,0.46-4.21,1.39-5.87c0.93-1.67,2.2-2.94,3.81-3.83c1.61-0.89,3.43-1.33,5.44-1.33
			C286.75,160.81,288.57,161.25,290.19,162.14z M280.37,163.43c-1.34,0.69-2.41,1.74-3.23,3.15c-0.82,1.42-1.23,3.17-1.23,5.26
			c0,2.09,0.41,3.85,1.23,5.28c0.82,1.43,1.9,2.49,3.23,3.17c1.34,0.69,2.78,1.03,4.34,1.03c1.56,0,3.01-0.34,4.34-1.03
			c1.34-0.69,2.41-1.75,3.23-3.17c0.82-1.43,1.23-3.19,1.23-5.28c0-2.09-0.4-3.84-1.21-5.26c-0.81-1.41-1.88-2.47-3.21-3.15
			c-1.34-0.69-2.8-1.03-4.38-1.03C283.15,162.39,281.7,162.74,280.37,163.43z"/>
		<path d="M316.73,162.65c1.61,1.23,2.71,2.85,3.29,4.86v-6.43h1.79v22.18c0,1.98-0.43,3.73-1.29,5.24
			c-0.86,1.51-2.04,2.66-3.53,3.47c-1.49,0.81-3.14,1.21-4.94,1.21c-2.7,0-4.93-0.65-6.69-1.96c-1.76-1.31-2.93-3.09-3.51-5.34h1.75
			c0.53,1.75,1.51,3.13,2.94,4.17c1.43,1.03,3.24,1.55,5.44,1.55c1.51,0,2.88-0.34,4.11-1.01c1.23-0.67,2.2-1.64,2.9-2.9
			c0.7-1.26,1.05-2.73,1.05-4.42v-7.06c-0.58,2.01-1.68,3.63-3.29,4.86c-1.61,1.23-3.6,1.85-5.95,1.85c-2.01,0-3.79-0.44-5.34-1.33
			c-1.55-0.89-2.76-2.17-3.63-3.85c-0.87-1.68-1.31-3.64-1.31-5.89c0-2.25,0.44-4.21,1.31-5.87c0.87-1.67,2.08-2.94,3.63-3.83
			c1.55-0.89,3.33-1.33,5.34-1.33C313.13,160.81,315.12,161.42,316.73,162.65z M304.73,164.93c-1.6,1.69-2.4,3.99-2.4,6.9
			c0,2.94,0.79,5.25,2.38,6.94c1.59,1.69,3.74,2.54,6.47,2.54c1.69,0,3.21-0.39,4.56-1.17c1.35-0.78,2.4-1.89,3.15-3.33
			c0.75-1.44,1.13-3.1,1.13-4.98c0-1.88-0.38-3.53-1.13-4.96s-1.81-2.53-3.15-3.31c-1.35-0.78-2.87-1.17-4.56-1.17
			C308.48,162.39,306.33,163.24,304.73,164.93z"/>
		<path d="M328.77,153.53c0.28-0.28,0.64-0.42,1.09-0.42c0.45,0,0.82,0.14,1.11,0.42c0.29,0.28,0.44,0.63,0.44,1.05
			c0,0.45-0.15,0.81-0.44,1.09c-0.29,0.28-0.66,0.42-1.11,0.42c-0.45,0-0.81-0.14-1.09-0.42c-0.28-0.28-0.42-0.64-0.42-1.09
			C328.36,154.15,328.5,153.8,328.77,153.53z M330.78,161.08v21.55h-1.79v-21.55H330.78z"/>
		<path d="M352.84,179.75c1.48-1.1,2.38-2.6,2.7-4.5h1.86c-0.4,2.3-1.47,4.15-3.23,5.56c-1.76,1.4-4,2.1-6.73,2.1
			c-2.04,0-3.84-0.44-5.42-1.33c-1.57-0.89-2.81-2.16-3.71-3.83c-0.9-1.67-1.35-3.64-1.35-5.91c0-2.25,0.45-4.21,1.35-5.87
			c0.9-1.67,2.14-2.94,3.71-3.83c1.57-0.89,3.38-1.33,5.42-1.33c2.09,0,3.89,0.44,5.42,1.33c1.52,0.89,2.67,2.05,3.45,3.49
			c0.78,1.44,1.17,2.98,1.17,4.62c0,0.66-0.07,1.36-0.2,2.1h-18.53c0.03,2.01,0.44,3.7,1.25,5.06c0.81,1.36,1.85,2.37,3.13,3.02
			c1.28,0.65,2.69,0.97,4.23,0.97C349.53,181.4,351.36,180.85,352.84,179.75z M343.16,163.27c-1.3,0.66-2.35,1.67-3.15,3.02
			c-0.81,1.35-1.22,3.02-1.25,5h16.98c0.11-1.98-0.23-3.66-0.99-5.02c-0.77-1.36-1.8-2.37-3.09-3.02c-1.3-0.65-2.7-0.97-4.21-0.97
			C345.88,162.27,344.45,162.61,343.16,163.27z"/>
		<path d="M375.22,162.61c1.38,1.2,2.2,2.85,2.46,4.94h-1.71c-0.16-1.53-0.77-2.81-1.85-3.83c-1.07-1.02-2.52-1.53-4.34-1.53
			c-1.61,0-2.88,0.4-3.79,1.19c-0.91,0.79-1.37,1.85-1.37,3.17c0,0.98,0.27,1.76,0.81,2.34c0.54,0.58,1.2,1.01,1.98,1.29
			c0.78,0.28,1.87,0.59,3.27,0.93c1.56,0.34,2.82,0.7,3.77,1.07c0.95,0.37,1.76,0.95,2.42,1.75c0.66,0.79,0.99,1.88,0.99,3.25
			c0,1.69-0.61,3.07-1.83,4.13c-1.22,1.06-2.82,1.59-4.8,1.59c-2.38,0-4.33-0.6-5.85-1.81c-1.52-1.2-2.43-2.85-2.72-4.94h1.79
			c0.16,1.53,0.83,2.81,2,3.83c1.18,1.02,2.78,1.53,4.82,1.53c1.53,0,2.73-0.4,3.59-1.21c0.86-0.81,1.29-1.86,1.29-3.15
			c0-1.03-0.28-1.86-0.83-2.48c-0.56-0.62-1.25-1.08-2.08-1.37c-0.83-0.29-1.94-0.6-3.31-0.91c-1.56-0.37-2.8-0.73-3.71-1.09
			s-1.69-0.91-2.34-1.67c-0.65-0.75-0.97-1.78-0.97-3.08c0-1.75,0.62-3.14,1.86-4.19c1.24-1.04,2.91-1.57,5-1.57
			C372.03,160.81,373.84,161.41,375.22,162.61z"/>
	</g>
</g>
</svg>
