<?xml version="1.0" encoding="utf-8"?>
<!-- Generator: Adobe Illustrator 23.0.1, SVG Export Plug-In . SVG Version: 6.00 Build 0)  -->
<svg version="1.1" id="Layer_1" xmlns="http://www.w3.org/2000/svg" xmlns:xlink="http://www.w3.org/1999/xlink" x="0px" y="0px"
	 viewBox="0 0 324.03 75.14" style="enable-background:new 0 0 324.03 75.14;" xml:space="preserve">
<g>
	<path d="M324.03,2.11c-0.82,2.87-1.64,5.74-2.46,8.64c-11.57,1.89-17.31,8.5-19.74,22.57c-1.35,7.85-2.87,15.67-4.32,23.6
		c-3.62,0-7.03,0-10.68,0c0.35-2.17,0.67-4.16,1.09-6.74c-1.3,0.58-2.22,0.94-3.1,1.39c-8.58,4.43-17.64,6.82-27.35,6.78
		c-7.77-0.03-14.07-2.76-17.84-8.81c-7.66,2.7-14.8,5.72-22.24,7.64c-4.59,1.19-9.7,1.37-14.44,0.83
		c-10.65-1.21-16.96-8.64-17.25-20.42c-0.32-13.2,4.55-24.4,15.49-32.15c3.64-2.58,7.51-4.42,12.01-5.29c1.27-0.25,3.26-0.21,4.54,0
		c0.94,0.15,1.67,0.44,2.59,0.65c6.63,1.49,10.71,5.72,11.79,12.06c1.04,6.08-1.47,11.94-7.06,15.11c-2.95,1.68-6.27,3.06-9.59,3.64
		c-5.49,0.97-11.12,1.13-16.68,1.76c-0.97,0.11-2.49,0.71-2.68,1.39c-1.51,5.32,2.67,12.82,8.12,14.08
		c2.97,0.69,6.24,0.75,9.27,0.34c7.96-1.07,14.4-3.89,20.44-8.86c1.21-0.99,2.29-4.34,2.42-5.91c0.92-11.56,5.28-21.43,14.66-28.38
		c3.68-2.72,5.6-4.6,12.73-5.89c1.73,0,4.77-0.38,9.07,0.65c6.01,1.44,9.06,5.63,10.01,11.84c0.96,6.28-1,11.7-6.61,15.02
		c-3.1,1.83-6.62,3.32-10.13,3.97c-5.48,1.01-11.13,1.12-16.68,1.76c-0.94,0.11-2.41,0.81-2.58,1.49
		c-1.41,5.74,2.85,12.59,8.61,14.13c5.17,1.39,11.96-0.33,16.74-2.2c16.9-6.59,19.72-15.51,20.09-16.85
		c2.5-9.01,2.9-18.29,4.59-27.71c2.79,0,5.74,0,8.78,0c-0.21,2.56-0.4,4.89-0.59,7.21c0.27,0.09,0.53,0.17,0.8,0.26
		c3.04-5.02,7.64-7.82,12.99-9.57c1.19,0,1.94,0,3.24,0C324.18,0.17,324,1.04,324.03,2.11z M198.14,25.21
		c6.58-0.1,13.14,0.01,19.26-2.84c3.88-1.8,5.48-5.1,4.47-8.65c-0.83-2.9-3.81-4.58-7.8-4.41C207.1,9.62,198.86,17.68,198.14,25.21z
		 M248.7,25.2c6.52-0.04,12.75-0.05,18.65-2.46c4.41-1.8,6.4-5.43,5.23-9.13c-1.01-3.17-4.78-4.86-9.18-4.12
		C256.87,10.58,250.26,17.46,248.7,25.2z"/>
	<path d="M0.02,72.75c0.64-2.22,1.28-4.43,1.97-6.82c0.09-0.03,0.41-0.23,0.67-0.17c7.43,1.72,10.85-2.01,12.45-8.78
		c2.38-10.05,4.31-20.21,6.41-30.33c1.66-8,3.28-16.01,4.96-24.2c3.41,0,6.7,0,10.45,0c-0.91,4.42-1.8,8.77-2.7,13.12
		c-2.82,13.6-5.48,27.25-8.55,40.79c-0.91,4.02-2.25,8.21-4.63,11.61c-2.88,4.12-6.43,5.95-10.66,6.72
		c-2.87,0.52-5.18,0.65-8.74,0.07C-0.39,74.44,0.05,73.82,0.02,72.75z"/>
	<path d="M65.62,58.54c-13.63,0.74-22.77-7.37-23.68-21.07C41.07,24.18,48,9.9,60.67,3.86c5.86-2.8,12.07-3.5,18.29-1.94
		c9.45,2.37,13.79,9.25,15.15,18.45c2.4,16.28-8.78,33.83-23.96,37.5C68.38,58.29,66.53,58.41,65.62,58.54z M52.61,35.5
		c0.11,0.96,0.2,2.14,0.39,3.32c1.64,10.48,12.41,14.76,20.44,7.83c8.44-7.28,11.33-16.86,9.5-27.71c-0.96-5.67-5.04-9.3-10.31-9.67
		c-4.17-0.3-7.82,1.38-10.85,4.22C55.47,19.37,53.04,26.9,52.61,35.5z"/>
	<path d="M170.07,56.94c-3.64,0-6.96,0-10.54,0c2.08-10.95,4.18-21.72,6.15-32.51c0.42-2.31,0.65-4.72,0.51-7.06
		c-0.39-6.45-4.94-9.4-11.04-7.08c-7.24,2.76-11.35,8.58-13.29,15.67c-1.96,7.15-2.97,14.25-4.46,21.53
		c-0.6,2.94-0.45,7.23-2.27,8.77c-1.81,1.54-5.72,0.61-8.7,0.74c-0.31,0.01-0.63-0.09-1.21-0.18c1.38-7.31,2.76-14.57,4.11-21.84
		c1.9-10.27,3.74-20.56,5.72-30.82c0.15-0.79,1.11-1.94,1.78-2.01c2.43-0.24,4.9-0.1,7.67-0.1c-0.3,2.81-0.56,5.21-0.89,8.35
		c1.22-1.11,1.91-1.7,2.56-2.33c3.65-3.54,7.89-5.97,12.94-6.89c11.25-2.03,19.11,5.01,17.86,16.71c-0.95,8.87-2.85,17.64-4.4,26.44
		C171.83,48.47,170.94,52.58,170.07,56.94z"/>
	<path d="M110.09,56.96c-3.55,0-6.76,0-10.49,0c1.06-5.66,2.07-11.2,3.15-16.73c2.31-11.93,4.68-23.85,6.96-35.79
		c0.31-1.6,0.8-2.46,2.65-2.43c8.19,0.11,5.33,0.03,8.4,0.03C117.16,20.6,113.65,38.65,110.09,56.96z"/>
</g>
</svg>
