<?xml version="1.0" encoding="utf-8"?>
<!-- Generator: Adobe Illustrator 23.0.1, SVG Export Plug-In . SVG Version: 6.00 Build 0)  -->
<svg version="1.1" id="Layer_1" xmlns="http://www.w3.org/2000/svg" xmlns:xlink="http://www.w3.org/1999/xlink" x="0px" y="0px"
	 viewBox="0 0 332.09 80.75" style="enable-background:new 0 0 332.09 80.75;" xml:space="preserve">
<g>
	<path d="M182.23,0c-0.01,24.22-0.01,48.44-0.02,72.66c0,1.87,0.07,3.75-0.04,5.62c-0.03,0.5-0.5,1.26-0.94,1.42
		c-9,3.23-15.65-1.73-16.39-9.83c-0.05-0.56-0.04-1.12-0.04-1.69c0-18.27,0.01-36.54-0.02-54.81c0-1.03,0.26-1.69,1.12-2.33
		c4.42-3.31,8.79-6.7,13.17-10.07c0.35-0.27,0.62-0.64,0.93-0.96C180.73,0,181.48,0,182.23,0z"/>
	<path d="M332.09,48.08c-0.38,0.25-0.77,0.73-1.15,0.73c-6.46,0.04-12.93,0.03-19.39,0.02c-0.13,0-0.27-0.06-0.51-0.11
		c0-0.71,0-1.43,0-2.22c1.39-0.07,2.8-0.03,4.17-0.22c4.7-0.67,6.51-3.36,5.5-8.03c-0.94-4.32-4.62-7.07-9.64-7.22
		c-6.12-0.18-10.33,3.24-11.57,9.59c-2.47,12.67,4.9,29.83,22.89,32.11c1.51,0.19,3.07,0.03,5.05,0.03
		c-0.41,0.9-0.51,1.67-0.95,2.01c-9.92,7.61-21.41,8.08-30.81,0.69c-8.18-6.43-11.34-15.16-9.52-25.32
		c1.8-10.08,7.78-16.98,17.64-20.1c8.82-2.79,19.14,0.29,24.78,7.06c1.74,2.09,2.75,4.51,3.53,7.07
		C332.09,45.45,332.09,46.77,332.09,48.08z"/>
	<path d="M226.64,30.35c5.55,0,10.92,0,16.52,0c0,0.59,0,1.13,0,1.67c0,11.1-0.02,22.21,0.01,33.31c0.01,2.2,0.15,4.39,0.33,6.58
		c0.22,2.66,1.71,4.33,4.32,4.8c1.32,0.23,1.79,0.78,1.4,2.16c-7.32,0-14.7,0-22.27,0c0-1.62,0-3.31,0-5
		c-0.15-0.08-0.29-0.16-0.44-0.23c-0.19,0.3-0.34,0.64-0.57,0.9c-5.13,5.6-15.12,7.84-22.17,4.94c-4.65-1.91-7.14-5.7-8.25-10.35
		c-0.72-3.02-1.1-6.18-1.18-9.29c-0.17-6.79-0.09-13.58-0.04-20.38c0.03-3.46-0.9-6.21-4.65-7.2c0-0.61,0-1.16,0-1.84
		c7.22,0,14.41,0,21.78,0c0,0.52,0,1.07,0,1.61c0,10.87-0.02,21.74,0.02,32.6c0.01,1.34,0.18,2.72,0.54,4.01
		c1.03,3.7,3.81,5.67,7.48,5.49c3.72-0.19,6.15-2.38,6.83-6.25c0.21-1.19,0.29-2.42,0.29-3.63c0.02-10.68,0.01-21.36,0.01-32.04
		C226.64,31.64,226.64,31.09,226.64,30.35z"/>
	<path d="M156.48,55.68c-0.46,9.59-5.62,17.28-15.12,22.05c-11.32,5.68-25.55,3.1-34.23-6.09c-10.26-10.86-8.6-28.19,3.54-37.05
		c10.91-7.96,26.78-7.48,37.05,1.24C153.45,40.7,156.37,46.99,156.48,55.68z M137.84,54.69C137.84,54.68,137.84,54.68,137.84,54.69
		c-0.01-5.29,0.12-10.58-0.06-15.86c-0.09-2.72-1.38-5.04-3.84-6.5c-6.8-4.07-14.81,0.08-15.02,7.93
		c-0.21,7.44-0.13,14.89-0.14,22.33c0,2.48,0.01,4.96,0.21,7.43c0.22,2.85,1.2,5.41,3.68,7.1c6.17,4.2,14.52,0.53,15.1-6.86
		C138.17,65.1,137.84,59.88,137.84,54.69z"/>
	<path d="M271.77,11.96c0.75,0,1.43,0,2.32,0c0,0.66,0,1.25,0,1.83c0,16.53-0.01,33.07,0.01,49.6c0,1.4,0.03,2.82,0.25,4.2
		c0.69,4.26,3.57,6.4,7.87,5.95c0.92-0.1,1.83-0.27,2.75-0.4c0.38,1.26,0.09,2.12-1.03,2.88c-4.96,3.37-10.28,5.31-16.38,4.43
		c-4.19-0.61-7.13-2.87-8.86-6.71c-1.67-3.71-2.04-7.67-2.05-11.66c-0.02-9.27-0.01-18.55-0.01-27.82c0-0.55,0-1.11,0-1.83
		c-1.55,0-2.97,0-4.35,0c-0.54-2.02-0.44-2.14,1.39-2.3c4.02-0.35,7.49-1.99,10.47-4.64C268.19,21.9,270.97,17.56,271.77,11.96z"/>
	<path d="M25.41,48.74c0-0.78,0-1.47,0-2.35c1.06,0,2.08,0.04,3.09-0.01c5.66-0.26,8.12-3.24,6.16-9.5
		c-1.12-3.57-4.82-5.76-9.22-5.89c-6.14-0.18-10.34,3.21-11.59,9.58c-2.49,12.72,4.91,29.92,22.99,32.16
		c1.47,0.18,2.97,0.02,4.39,0.02c0.44,1.13,0.04,1.71-0.74,2.29C23.19,88.03,3.45,76.62,0.4,59.36
		c-2.44-13.83,6.44-27.33,20.21-29.9c8.83-1.65,16.49,1.04,22.47,7.88c2.46,2.82,3.59,6.2,3.36,10c-0.07,1.09-0.43,1.52-1.61,1.51
		c-6.04-0.06-12.09-0.03-18.13-0.03C26.29,48.82,25.88,48.77,25.41,48.74z"/>
	<path d="M47.07,32.32c0-0.71,0-1.26,0-1.94c0.48-0.03,0.93-0.08,1.38-0.08c6.32-0.01,12.65,0.01,18.97-0.03
		c0.97-0.01,1.46,0.28,1.87,1.2c3.67,8.3,7.4,16.57,11.13,24.84c0.51,1.13,0.93,2.54,2.48,2.54c1.58,0.01,2.1-1.37,2.65-2.56
		c3.69-7.98,7.37-15.96,11.06-23.95c1.06-2.3,1.07-2.3,3.91-1.91c-0.26,0.62-0.49,1.2-0.75,1.77
		c-7.01,15.41-14.03,30.81-21.04,46.22c-0.73,1.61-2.02,2.14-3.4,0.98c-1.32-1.11-2.55-2.52-3.33-4.05
		c-2.44-4.79-4.65-9.7-6.93-14.57c-3.33-7.11-6.64-14.24-9.98-21.35c-0.42-0.89-0.9-1.75-1.4-2.59
		C52.22,34.36,50.28,32.51,47.07,32.32z"/>
</g>
</svg>
