<?xml version="1.0" encoding="utf-8"?>
<!-- Generator: Adobe Illustrator 23.0.1, SVG Export Plug-In . SVG Version: 6.00 Build 0)  -->
<svg version="1.1" id="Layer_1" xmlns="http://www.w3.org/2000/svg" xmlns:xlink="http://www.w3.org/1999/xlink" x="0px" y="0px"
	 viewBox="0 0 132.94 71.63" style="enable-background:new 0 0 132.94 71.63;" xml:space="preserve">
<style type="text/css">
	.st0{fill:#1A1A1A;}
	.st1{fill:#333333;}
</style>
<g>
	<path class="st0" d="M31.31,25.63c6.72,3.54,9.72,8.18,9.3,14.84c-0.44,7.09-4.23,12.58-11.58,13.45
		c-8.87,1.05-17.93,0.63-26.9,0.63c-0.76,0-2.17-1.7-2.12-2.54c0.08-1.31,1.07-3.59,1.82-3.65c3.74-0.31,3.71-2.62,3.7-5.37
		C5.45,32.49,5.46,22.01,5.51,11.53c0.01-2.56,0.1-4.78-3.47-5.11c-0.83-0.08-2-2.26-2.03-3.5c-0.02-0.96,1.48-2.79,2.32-2.8
		C10.64,0,18.98-0.17,27.26,0.39c5.59,0.38,9.85,3.39,11.27,9.33c1.45,6.08,0.01,11.16-5.14,14.96
		C32.96,25.01,32.4,25.15,31.31,25.63z M19.89,48.26c0,0.03,0,0.06,0,0.09c0.81,0,1.61,0.03,2.42-0.01
		c6.66-0.32,9.76-3.26,9.78-9.23c0.02-5.69-3.05-8.69-9.49-9.14c-2.01-0.14-4.03,0.01-6.05-0.09c-2.15-0.1-3.24,0.66-3.18,3
		c0.11,4.17-0.15,8.35,0.16,12.49c0.08,1.02,1.62,2.24,2.77,2.78C17.3,48.63,18.68,48.26,19.89,48.26z M13.4,15c0,0,0.01,0,0.01,0
		c0,2.01-0.19,4.04,0.09,6.01c0.13,0.92,1.17,2.43,1.8,2.43c3.45,0.01,6.97-0.01,10.33-0.72c3-0.64,4.55-3.15,4.79-6.25
		c0.24-3.12,0.6-7.08-2.67-8.17C23.62,6.93,18.96,6.9,14.55,7c-0.44,0.01-0.77,4.95-1.15,7.6C13.38,14.73,13.4,14.87,13.4,15z"/>
	<path class="st1" d="M116.19,4.35c-7.03,13.87-14.08,27.79-21.31,42.05c5.74,0,11.05,0,16.98,0c0-4.08,0.18-8.06-0.05-12.02
		c-0.19-3.27,1.21-4.25,4.24-4.18c2.8,0.07,5.07,0.14,4.82,4.01c-0.26,3.98-0.06,7.98-0.06,12.41c3.33,0,6.12,0.09,8.91-0.02
		c2.97-0.12,3.21,1.83,3.22,3.97c0.01,2.22,0,4.51-3.22,4.4c-0.13,0-0.27,0-0.4,0c-8.51,0.45-8.51,0.45-8.5,8.85
		c0,1.08-0.09,2.16,0.02,3.23c0.33,3.28-1.03,4.53-4.38,4.58c-3.51,0.05-4.86-1.17-4.64-4.71c0.23-3.74,0.05-7.5,0.05-11.94
		c-6,0-11.72,0-17.44,0c-8-0.01-10.02-2.5-7.02-10.14c3.08-7.85,6.9-15.42,10.61-23.01c2.65-5.42,5.52-10.74,8.51-15.98
		C109.16,1.24,110.92,1.01,116.19,4.35z"/>
	<path class="st0" d="M56.58,7.86c3.51,11.83,7.04,23.73,10.58,35.63c0.3,0.02,0.6,0.04,0.9,0.05c1.97-6.47,3.94-12.93,5.91-19.4
		c1.41-4.63,2.95-9.22,4.1-13.91c0.26-1.07-0.87-2.46-1.28-3.73c-0.49-1.53-1.24-3.1-1.18-4.63c0.02-0.59,1.94-1.49,3.05-1.57
		c3.08-0.22,6.2-0.29,9.26,0.03c1.22,0.13,3.25,1.43,3.26,2.22c0.02,1.37-1.13,2.83-2,4.12c-0.89,1.31-2.52,2.29-2.99,3.7
		c-4.39,13.26-8.67,26.55-12.79,39.9c-0.98,3.18-2.44,4.54-5.95,4.49c-3.35-0.05-5-1.03-6.01-4.32
		c-4.12-13.34-8.45-26.62-12.88-39.87c-0.51-1.51-2.33-2.54-3.26-3.97c-0.84-1.3-1.72-2.84-1.73-4.28
		c-0.01-0.69,1.92-1.89,3.04-1.99c3.2-0.28,6.46-0.28,9.66-0.02c1.32,0.11,3.3,0.89,3.7,1.88c0.76,1.89,0.44,4.05-2.24,4.73
		C57.38,7,57.12,7.39,56.58,7.86z"/>
</g>
</svg>
