<?xml version="1.0" encoding="utf-8"?>
<!-- Generator: Adobe Illustrator 23.0.1, SVG Export Plug-In . SVG Version: 6.00 Build 0)  -->
<svg version="1.1" id="Layer_1" xmlns="http://www.w3.org/2000/svg" xmlns:xlink="http://www.w3.org/1999/xlink" x="0px" y="0px"
	 viewBox="0 0 546.23 97.98" style="enable-background:new 0 0 546.23 97.98;" xml:space="preserve">
<g>
	<path d="M306.43,48.01c1.22-7.41,2.64-14.8,3.58-22.25c0.44-3.51,1.58-5.17,5.34-4.95c4.35,0.26,8.72,0.06,13.66,0.06
		c-3.43,19.35-6.66,37.61-10.06,56.81c-5.54,0-11.03,0.31-16.43-0.2c-1.52-0.14-3.34-2.48-4.11-4.22
		c-3.12-7.05-5.88-14.25-10.01-21.42c-1.44,8.47-2.87,16.94-4.34,25.58c-6.01,0-11.48,0-17.81,0c1.03-6.38,1.92-12.4,2.97-18.4
		c1.96-11.13,4.14-22.23,5.96-33.38c0.57-3.47,1.88-4.76,5.52-4.89c13.4-0.47,13.39-0.61,18.32,12.09
		c1.99,5.12,4.03,10.21,6.05,15.31C305.53,48.1,305.98,48.05,306.43,48.01z"/>
	<path d="M349.41,56.11c-1.03,5.62-2.29,11.21-3,16.87c-0.45,3.61-1.9,5-5.54,4.78c-4.16-0.25-8.36-0.06-13.34-0.06
		c2.55-14.98,4.82-29.32,7.46-43.58c2.65-14.32,2.81-14.29,17.69-13.19c0.63,0.05,1.25,0.34,2.57,0.73
		c-0.56,3.18-1.17,6.34-1.67,9.52c-0.49,3.05-0.87,6.12-1.58,11.19c5.26-6.35,9.68-11.15,13.46-16.41
		c2.93-4.07,6.33-5.62,11.25-5.21c5.38-0.44,9.59,0.09,15.99,0.09c-7.86,8.43-14.41,15.82-21.39,22.79
		c-3.35,3.34-4.06,5.9-1.25,10.09c4.91,7.3,9.14,15.06,14.45,23.95c-7.45,0-13.74,0.28-19.97-0.19c-1.61-0.12-3.51-2.33-4.48-4.03
		c-3.27-5.74-6.18-11.68-9.23-17.54C350.35,55.97,349.88,56.04,349.41,56.11z"/>
	<path d="M416.24,41.4c5.69,0,11.39,0,18.16,0c-0.72,4.52-1.07,8.4-2.09,12.08c-0.32,1.14-1.91,2.01-3.3,2.14
		c-3.74,0.35-12.41,0.43-14.97,0.43c-0.43,2.57,0,2.14-1.07,5.78c6.72,0,13.44,0,21.11,0c-0.95,5.72-1.72,10.39-2.55,15.37
		c-13.09,0-25.88,0-39.61,0c2.37-13.59,4.67-26.81,6.99-40.03c0.15-0.87,0.4-1.73,0.55-2.61c2.45-14.05,2.45-14.05,17.03-14.05
		c7.28,0,14.55,0,22.61,0c-0.9,5.44-1.65,10.64-2.37,15c-11.12,0.43-5.99,0-20.11,0.43C416.76,36.75,416.07,40.58,416.24,41.4z"/>
	<path d="M492.67,70.82c3.1-2.87,5.97-5.26,8.52-7.97c2.47-2.62,4.44-3.11,7.92-1.15c9.27,7.33,12.85,0.95,12.81-0.6
		c-0.06-2.51-0.89-3-1.94-3.65c-2.04-1.26-4.45-1.94-6.72-2.81c-6.34-2.42-11.49-5.91-12.01-13.49c-0.53-7.82,2.72-13.78,9.21-17.95
		c10.34-6.64,25.72-5.52,35.76,2.75c-3.7,3.68-7.37,7.33-10.35,10.28c-4.39-0.72-8.07-2.57-11.57-1.72c-3.6,0.87-3.6,5.51-0.97,6.47
		c2.69,0.97,5.4,2.01,8.01,3.21c13.07,6.01,14.38,21.5,2.58,29.95C523.31,81.73,504.89,80.53,492.67,70.82z"/>
	<path d="M192.03,76.74c3.08-17.58,6-34.84,9.29-52.02c0.31-1.62,2.82-3.79,4.51-4c4.54-0.56,9.2-0.19,14.74-0.19
		c-2.32,13.8-4.51,26.81-6.85,40.73l18.46-0.08c0.43,0.86,0.28,1.71,0.23,2.05c-2.32,14.33-2.32,14.34-16.7,14.32
		c-7.32-0.01-14.63-0.08-21.95-0.16C193.35,77.4,192.95,77.1,192.03,76.74z"/>
	<path d="M239.09,77.52c3.25-18.53,6.29-36.21,9.58-53.84c0.23-1.21,2.19-2.9,3.44-2.98c5-0.34,10.05-0.14,15.79-0.14
		c-3.28,18.59-6.34,36.24-9.64,53.84c-0.23,1.21-2.17,2.89-3.41,2.98C249.82,77.72,244.75,77.52,239.09,77.52z"/>
	<path d="M484.14,51.94c5.64-3.94,8.66-11.97,7.1-18.86c-1.64-7.25-6.69-11.27-13.6-11.73c-9.85-0.65-19.77-0.17-30.05-0.17
		c-3.27,18.64-6.51,37.1-9.8,55.88c6.47,0,12.09,0,17.76,0c1.36-6.97,2.62-13.47,3.89-19.97c0.64-0.01,1.27-0.02,1.91-0.03
		c2.1,5.49,4.07,11.03,6.4,16.42c0.68,1.57,2.32,3.75,3.64,3.84c5.87,0.42,11.78,0.18,18.62,0.18c-3.77-8.12-7.09-15.28-10.55-22.75
		C481.19,53.72,482.73,52.92,484.14,51.94z M469.84,45.03l-9.54-0.16l0.17-9.86l9.6,0.17c2.71,0.05,4.8,2.27,4.75,4.72
		C474.78,42.34,473.44,45.09,469.84,45.03z"/>
	<path d="M179.14,47.84c0.81-0.68,1.23-1.1,1.72-1.43c6.69-4.52,9.45-9.93,7.77-16.06c-1.97-7.21-7.78-9.3-14.32-9.59
		c-7.96-0.35-15.96-0.45-23.91-0.02c-1.81,0.1-4.68,2.57-5.02,4.34c-3.28,17.16-6.13,34.4-9.36,53.09
		c12.9-0.7,25.24-0.82,37.43-2.27c6.62-0.78,11.71-5.15,13.14-12.4C187.94,56.6,185.55,51.36,179.14,47.84z M168.01,64.61
		c-1.71,1.09-8.98,0-8.98,0l0.43-8.13c0,0,8.49-1.23,9.84,0.43C170.6,58.52,172.72,61.61,168.01,64.61z M171.43,41.07
		c-1.71,1.09-8.98,0-8.98,0l0.43-8.13c0,0,8.49-1.23,9.84,0.43C174.03,34.99,176.14,38.08,171.43,41.07z"/>
	<path d="M48.99,0C21.93,0,0,21.93,0,48.99s21.93,48.99,48.99,48.99c27.06,0,48.99-21.93,48.99-48.99S76.05,0,48.99,0z M66.38,57.5
		c-0.04,0.05-0.08,0.1-0.13,0.14L44.05,78.89c-1.91,1.83-4.92,1.82-6.82-0.02c-1.92-1.85-2.01-4.89-0.22-6.86l10.98-12.05l1.51-1.66
		c0.83-0.91,1.28-2.09,1.28-3.32V42.83c0-1.27-0.49-2.49-1.37-3.41l-1.12-1.17l-11.32-11.8c-1.79-1.87-1.83-4.8-0.1-6.72l0.32-0.35
		c1.88-2.07,5.1-2.17,7.1-0.21l21.33,20.96c2.87,1.96,4.76,5.25,4.76,8.97C70.38,52.48,68.82,55.51,66.38,57.5z"/>
</g>
</svg>
