<?xml version="1.0" encoding="utf-8"?>
<!-- Generator: Adobe Illustrator 23.0.1, SVG Export Plug-In . SVG Version: 6.00 Build 0)  -->
<svg version="1.1" id="Layer_1" xmlns="http://www.w3.org/2000/svg" xmlns:xlink="http://www.w3.org/1999/xlink" x="0px" y="0px"
	 viewBox="0 0 448.16 87.73" style="enable-background:new 0 0 448.16 87.73;" xml:space="preserve">
<style type="text/css">
	.st0{fill:#4D4D4D;}
</style>
<g>
	<path d="M12.84,50.76c0.13,10.67,3.64,19.41,10.49,26.82c1.24,1.34,1.24,1.62-0.02,2.92c-2.08,2.14-4.15,4.28-6.23,6.41
		c-1.07,1.1-1.58,1.09-2.65-0.02C6.75,78.91,1.99,69.46,0.5,58.5c-2.1-15.46,2.47-28.96,12.62-40.62
		C20.17,9.78,28.87,4.07,39.35,1.6C57.03-2.59,72.8,1.5,86.52,13.42c0.97,0.84,0.97,1.47,0.07,2.4c-2.15,2.22-4.31,4.45-6.47,6.66
		c-1.08,1.1-1.51,1.09-2.69,0.06c-6.47-5.63-13.95-8.87-22.53-9.61c-19.24-1.66-36.36,11.21-40.88,29.12
		c-0.34,1.37-0.65,2.75-0.82,4.15C12.98,47.9,12.92,49.62,12.84,50.76z"/>
	<path d="M86.34,68.46c-0.83,0-1.36,0-1.89,0c-16.12,0-32.24,0-48.36,0c-0.42,0-0.86,0.08-1.25-0.03c-0.47-0.13-1.17-0.34-1.27-0.67
		c-0.13-0.42,0.08-1.15,0.41-1.49c2.33-2.48,4.72-4.89,7.09-7.33c0.13-0.14,0.3-0.25,0.4-0.41c1.66-2.39,3.92-2.92,6.79-2.9
		c17.53,0.13,35.06,0.07,52.6,0.07c2.06,0,2.33,0.36,2.05,2.36c-1.4,10.18-5.51,19.13-12.22,26.9c-0.62,0.72-1.28,1.42-1.96,2.09
		c-0.92,0.91-1.38,0.91-2.31-0.03c-2.18-2.2-4.35-4.4-6.51-6.62c-1.11-1.13-1.02-1.46-0.06-2.69c1.96-2.52,3.83-5.12,5.72-7.7
		C85.84,69.63,86,69.16,86.34,68.46z"/>
	<path d="M78.83,46.93c-7.44,0-14.89,0-22.33,0c-0.72,0-1.54,0.13-1.89-0.71c-0.34-0.81,0.22-1.35,0.75-1.88
		c3.03-3.07,6.06-6.15,9.05-9.25c0.63-0.65,1.27-0.95,2.19-0.94c10.77,0.03,21.53,0.03,32.3-0.01c1.2,0,1.86,0.38,2.11,1.56
		c0.67,3.16,1.44,6.3,2.02,9.47c0.27,1.45-0.14,1.76-1.62,1.76C93.87,46.93,86.35,46.93,78.83,46.93z"/>
	<path d="M241.28,39.58c-0.6,1.86-1.1,3.39-1.59,4.94c-2.3,7.2-4.6,14.4-6.9,21.59c-0.42,1.33-1.07,1.84-2.28,1.85
		c-1.18,0.01-1.92-0.51-2.34-1.79c-3.09-9.43-6.17-18.86-9.24-28.3c-0.29-0.9-0.48-1.83,0.6-2.4c1.07-0.57,2.07-0.05,2.5,1.32
		c1.23,3.89,2.44,7.79,3.66,11.69c1.5,4.81,3.01,9.62,4.51,14.42c0.08,0.25,0.17,0.49,0.38,1.05c0.36-1.08,0.63-1.87,0.88-2.66
		c2.49-7.94,4.96-15.88,7.5-23.81c0.24-0.74,0.77-1.56,1.41-1.94c1.38-0.83,2.86-0.02,3.41,1.71c1.63,5.09,3.24,10.18,4.86,15.27
		c1.09,3.42,2.18,6.84,3.27,10.25c0.09,0.27,0.2,0.54,0.41,1.11c0.74-2.38,1.4-4.48,2.05-6.57c2.07-6.71,4.13-13.42,6.21-20.13
		c0.14-0.47,0.28-1.09,0.63-1.3c0.52-0.32,1.3-0.59,1.81-0.41c0.44,0.15,0.79,0.92,0.93,1.48c0.1,0.43-0.17,0.96-0.32,1.43
		c-3.01,9.17-6.03,18.35-9.04,27.52c-0.51,1.54-1.17,2.08-2.49,2.07c-1.25-0.01-1.86-0.53-2.36-2.07
		c-2.65-8.29-5.29-16.58-7.93-24.87C241.67,40.66,241.53,40.28,241.28,39.58z"/>
	<path d="M214.61,51.72c-0.01,9.24-7.34,16.7-16.38,16.68c-9.04-0.02-16.33-7.5-16.32-16.74c0.01-9.31,7.34-16.84,16.38-16.83
		C207.3,34.84,214.62,42.41,214.61,51.72z M211.57,51.68c-0.1-0.91-0.16-1.83-0.32-2.72c-1.6-9.04-11.25-13.92-19.07-9.66
		c-5.96,3.25-8.7,10.82-6.27,17.33c1.95,5.21,6.71,8.75,11.97,8.88C205.38,65.7,211.52,59.47,211.57,51.68z"/>
	<path d="M350.6,68.41c-9.02,0.02-16.37-7.47-16.38-16.69c-0.01-9.31,7.31-16.88,16.33-16.89c9.04-0.01,16.34,7.51,16.38,16.84
		C366.96,60.9,359.66,68.38,350.6,68.41z M363.84,51.48c-0.02-0.37-0.05-0.9-0.1-1.43C363.05,42.12,355.65,36.46,348,38
		c-5.57,1.12-9.76,5.93-10.56,12.13c-1.06,8.18,5.52,15.62,13.6,15.38C358.15,65.29,363.88,59.08,363.84,51.48z"/>
	<path d="M327.19,58.3c0,1.49-0.07,2.98,0.02,4.47c0.11,2.01-0.89,3.25-2.58,4.05c-3.06,1.45-6.33,1.72-9.63,1.51
		c-8.47-0.55-14.86-7.07-15.42-15.63c-0.55-8.44,4.97-15.85,13.15-17.53c4.18-0.86,8.22-0.27,11.98,1.77
		c0.78,0.42,1.49,1.07,2.07,1.76c0.26,0.31,0.3,1.11,0.07,1.44c-0.22,0.32-0.96,0.52-1.37,0.41c-0.8-0.21-1.53-0.67-2.28-1.04
		c-4.15-2.04-8.4-2.5-12.71-0.57c-5.73,2.57-8.87,9.29-7.47,15.84c1.3,6.13,6.68,10.72,12.9,10.68c2.41-0.01,4.81-0.65,7.21-1.02
		c0.8-0.12,1.08-0.6,1.06-1.44c-0.05-3.21-0.04-6.42,0-9.63c0.01-0.53,0.14-1.22,0.49-1.55c0.33-0.31,1.16-0.48,1.51-0.27
		c0.46,0.27,0.91,0.96,0.94,1.5C327.26,54.79,327.18,56.55,327.19,58.3C327.18,58.3,327.19,58.3,327.19,58.3z"/>
	<path d="M174.84,58.36c0,1.6-0.03,3.21,0.01,4.81c0.03,1.35-0.54,2.35-1.62,3.1c-0.28,0.2-0.57,0.4-0.88,0.53
		c-9.83,4.06-21.81,0.67-24.63-11.23c-1.64-6.95,0.36-13.06,6.14-17.42c5.81-4.38,12.17-4.34,18.58-1.18
		c0.76,0.38,1.45,1.01,1.98,1.68c0.27,0.34,0.29,1.15,0.06,1.53c-0.18,0.3-0.97,0.45-1.4,0.33c-0.79-0.22-1.52-0.69-2.28-1.05
		c-4.75-2.26-9.5-2.57-14.11,0.27c-5.14,3.16-7.53,9.89-5.79,15.88c1.74,6,6.96,10,13.21,9.86c2.22-0.05,4.43-0.65,6.64-1.01
		c0.85-0.14,1.13-0.63,1.11-1.51c-0.06-3.25-0.07-6.49,0.02-9.74c0.01-0.58,0.41-1.35,0.88-1.66c0.93-0.62,2.03,0.17,2.06,1.43
		C174.87,54.77,174.84,56.56,174.84,58.36z"/>
	<path d="M288.13,55.91c-2.38-5.66-4.69-11.16-7.08-16.85c-0.24,0.52-0.41,0.85-0.55,1.19c-3.63,8.62-7.26,17.23-10.9,25.85
		c-0.06,0.14-0.11,0.29-0.17,0.43c-0.54,1.22-1.39,1.69-2.3,1.27c-0.77-0.35-0.9-1.14-0.36-2.41c4.02-9.36,8.04-18.73,12.07-28.09
		c0.15-0.35,0.31-0.7,0.51-1.02c0.91-1.38,2.75-1.39,3.58,0.04c0.59,1.02,1.01,2.14,1.48,3.22c3.65,8.49,7.29,16.98,10.93,25.47
		c0.11,0.25,0.21,0.49,0.3,0.74c0.29,0.77,0.38,1.52-0.46,2.01c-0.76,0.44-1.78,0.13-2.3-0.68c-0.2-0.32-0.35-0.68-0.5-1.03
		c-0.92-2.18-1.86-4.35-2.73-6.55c-0.27-0.68-0.64-0.9-1.36-0.89c-2.29,0.05-4.58,0.02-6.88,0.01c-1.12,0-1.74-0.51-1.73-1.37
		c0.01-0.85,0.63-1.34,1.76-1.35C283.62,55.9,285.79,55.91,288.13,55.91z"/>
	<path class="st0" d="M448.13,58.35c0,1.49-0.07,2.98,0.02,4.47c0.11,2.01-0.89,3.25-2.58,4.05c-3.06,1.45-6.33,1.72-9.63,1.51
		c-8.47-0.55-14.86-7.07-15.42-15.63c-0.55-8.44,4.97-15.85,13.15-17.53c4.18-0.86,8.22-0.27,11.98,1.77
		c0.78,0.42,1.49,1.07,2.07,1.76c0.26,0.31,0.3,1.11,0.07,1.44c-0.22,0.32-0.96,0.52-1.37,0.41c-0.8-0.21-1.53-0.67-2.28-1.04
		c-4.15-2.04-8.4-2.5-12.71-0.57c-5.73,2.57-8.87,9.29-7.47,15.84c1.3,6.13,6.68,10.72,12.9,10.68c2.41-0.01,4.81-0.65,7.21-1.02
		c0.8-0.12,1.08-0.6,1.06-1.44c-0.05-3.21-0.04-6.42,0-9.63c0.01-0.53,0.14-1.22,0.49-1.55c0.33-0.31,1.16-0.48,1.51-0.27
		c0.46,0.27,0.91,0.96,0.94,1.5C448.2,54.83,448.13,56.59,448.13,58.35C448.13,58.35,448.13,58.35,448.13,58.35z"/>
	<path class="st0" d="M409.08,55.95c-2.38-5.66-4.69-11.16-7.08-16.85c-0.24,0.52-0.41,0.85-0.55,1.19
		c-3.63,8.62-7.26,17.23-10.9,25.85c-0.06,0.14-0.11,0.29-0.17,0.43c-0.54,1.22-1.39,1.69-2.3,1.27c-0.77-0.35-0.9-1.14-0.36-2.41
		c4.02-9.36,8.04-18.73,12.07-28.09c0.15-0.35,0.31-0.7,0.51-1.02c0.91-1.38,2.75-1.39,3.58,0.04c0.59,1.02,1.01,2.14,1.48,3.22
		c3.65,8.49,7.29,16.98,10.93,25.47c0.11,0.25,0.21,0.49,0.3,0.74c0.29,0.77,0.38,1.52-0.46,2.01c-0.76,0.44-1.78,0.13-2.3-0.68
		c-0.2-0.32-0.35-0.68-0.5-1.03c-0.92-2.18-1.86-4.35-2.73-6.55c-0.27-0.68-0.64-0.9-1.36-0.89c-2.29,0.05-4.58,0.02-6.88,0.01
		c-1.12,0-1.74-0.51-1.73-1.37c0.01-0.85,0.63-1.34,1.76-1.35C404.57,55.94,406.73,55.95,409.08,55.95z"/>
</g>
</svg>
