<?xml version="1.0" encoding="utf-8"?>
<!-- Generator: Adobe Illustrator 23.0.1, SVG Export Plug-In . SVG Version: 6.00 Build 0)  -->
<svg version="1.1" id="Layer_1" xmlns="http://www.w3.org/2000/svg" xmlns:xlink="http://www.w3.org/1999/xlink" x="0px" y="0px"
	 viewBox="0 0 387.79 97.95" style="enable-background:new 0 0 387.79 97.95;" xml:space="preserve">
<g>
	<path d="M48.85,97.95C21.33,97.81-0.36,75.84,0,48.06C0.37,20.38,23.13-0.36,49.68,0c26.36,0.36,48.42,21.5,48.36,49.02
		C97.98,76.62,75.86,97.83,48.85,97.95z M18.18,61.31c0,1.23,0.05,2.46-0.01,3.69c-0.05,1.1,0.41,1.79,1.35,2.3
		c1.4,0.75,2.76,1.59,4.15,2.36c4.47,2.48,3.11,2.37,7.44,0.09c1.5-0.79,2.28-1.74,2.17-3.52c-0.11-1.71,3.83-4.47,5.5-3.98
		c0.04,0.01,0.09,0.03,0.13,0.04c3.61,1.25,4.3,2.29,4.36,6.14c0.02,1.41-0.42,2.39-1.71,2.94c-1.27,0.53-1.73,1.47-1.62,2.82
		c0.09,1.09,0.06,2.18,0.01,3.27c-0.04,0.98,0.33,1.64,1.18,2.12c2.26,1.28,4.51,2.56,6.74,3.88c0.88,0.52,1.69,0.5,2.56-0.02
		c1.37-0.82,2.78-1.55,4.15-2.36c4.55-2.68,3.71-1.38,3.87-6.58c0.05-1.57-0.46-2.55-1.85-3.29c-0.63-0.34-1.33-1.13-1.42-1.79
		c-0.58-4.29-0.32-4.7,3.47-6.75c0.04-0.02,0.08-0.04,0.12-0.06c1.57-0.83,5.9,1.18,6.3,2.93c0.04,0.18,0.07,0.37,0.03,0.54
		c-0.34,1.94,0.6,3.08,2.31,3.81c0.75,0.32,1.45,0.77,2.14,1.2c0.87,0.54,1.69,0.51,2.57,0.01c2.25-1.29,4.5-2.58,6.77-3.84
		c0.9-0.5,1.28-1.2,1.26-2.22c-0.04-1.73,0-3.46-0.01-5.19c-0.04-4.43,0.51-3.52-3.42-5.89c-1.57-0.95-2.88-1.21-4.5-0.11
		c-1.44,0.97-5.82-1.22-6.14-2.92c-0.01-0.04-0.02-0.09-0.02-0.14c0-1.27-0.06-2.55,0.04-3.82c0.03-0.44,0.35-1,0.71-1.24
		c1.14-0.75,2.32-1.45,3.56-2c0.46-0.2,1.29-0.16,1.66,0.14c1.82,1.42,3.44,0.91,5.09-0.27c0.52-0.37,1.09-0.67,1.66-0.95
		c0.97-0.48,1.38-1.23,1.36-2.3c-0.03-2.55-0.04-5.1,0-7.65c0.02-1.05-0.43-1.7-1.32-2.19c-1.4-0.76-2.76-1.58-4.16-2.35
		c-4.49-2.47-3.11-2.46-7.68,0c-1.38,0.74-2.08,1.66-1.88,3.24c0.15,1.19-0.45,1.96-1.47,2.52c-4.22,2.31-2.86,2.39-7.29-0.11
		c-1.51-0.85-1.84-5.63-0.54-6.78c0.07-0.06,0.14-0.14,0.22-0.16c2.35-0.78,2.61-2.62,2.4-4.71c-0.06-0.63,0.14-1.32-0.05-1.9
		c-0.23-0.72-0.58-1.6-1.15-1.97c-2.22-1.41-4.57-2.64-6.85-3.97c-0.89-0.52-1.69-0.49-2.56,0.02c-1.29,0.77-2.63,1.45-3.91,2.24
		c-4.72,2.91-3.82,1.21-3.98,6.93c-0.04,1.48,0.49,2.34,1.75,3.05c0.66,0.37,1.39,1.19,1.5,1.89c0.61,4.06,0.33,4.51-3.22,6.51
		c-0.12,0.07-0.24,0.14-0.36,0.2c-1.54,0.82-5.83-1.02-6.29-2.7c-0.04-0.13-0.07-0.28-0.05-0.4c0.44-2.41-0.97-3.58-2.91-4.43
		c-0.58-0.25-1.08-0.77-1.68-0.89c-0.78-0.16-1.76-0.33-2.41-0.01c-2.36,1.18-4.61,2.56-6.91,3.86c-0.84,0.47-1.22,1.14-1.19,2.12
		c0.05,1.55-0.01,3.09,0.02,4.64c0.08,5.34-0.76,3.97,3.95,6.8c1.24,0.75,2.28,0.77,3.54,0.05c0.67-0.38,1.71-0.65,2.38-0.4
		c3.9,1.43,4.44,2.33,4.27,6.43c-0.07,1.77-4.09,4.5-5.76,3.92c-0.09-0.03-0.18-0.06-0.24-0.12c-1.79-1.53-3.49-1.04-5.18,0.21
		c-0.55,0.4-1.3,0.58-1.74,1.06c-0.53,0.58-1.07,1.34-1.18,2.08C18.04,58.65,18.18,59.99,18.18,61.31z"/>
	<path d="M206.89,55.59c0.9-2.71,1.71-5.09,2.48-7.49c1.17-3.61,2.38-7.22,3.46-10.86c0.3-1,0.76-1.28,1.73-1.22
		c1.18,0.07,2.37,0.08,3.55,0c1-0.07,1.42,0.31,1.72,1.26c1.7,5.4,3.47,10.78,5.23,16.17c0.18,0.55,0.41,1.08,0.75,1.94
		c0.33-0.84,0.59-1.39,0.77-1.96c1.71-5.22,3.47-10.42,5.09-15.67c0.4-1.3,0.93-1.89,2.35-1.75c1.34,0.13,2.71,0.03,4.27,0.03
		c-0.2,0.72-0.31,1.28-0.5,1.8c-2.8,7.73-5.63,15.44-8.39,23.18c-0.35,0.99-0.83,1.37-1.86,1.29c-1.13-0.08-2.28-0.1-3.41,0
		c-1.14,0.11-1.58-0.4-1.92-1.41c-1.76-5.23-3.59-10.44-5.4-15.66c-0.12-0.36-0.29-0.7-0.56-1.36c-1.16,3.3-2.22,6.32-3.27,9.35
		c-0.92,2.65-1.85,5.3-2.7,7.97c-0.27,0.85-0.71,1.15-1.57,1.1c-1.23-0.06-2.46-0.06-3.68,0c-0.91,0.05-1.37-0.24-1.7-1.14
		c-2.88-7.98-5.82-15.94-8.73-23.9c-0.12-0.32-0.18-0.67-0.31-1.21c1.96,0,3.77-0.06,5.57,0.05c0.32,0.02,0.72,0.72,0.87,1.17
		c1.83,5.41,3.62,10.84,5.43,16.26C206.32,54.11,206.55,54.68,206.89,55.59z"/>
	<path d="M330.79,47.19c2.63-2.6,4.99-4.8,7.21-7.14c4.05-4.27,4.02-4.31,9.84-4.01c0.25,0.01,0.49,0.1,0.98,0.2
		c-3.26,3.43-6.37,6.71-9.54,10.05c1.77,2.69,3.49,5.31,5.19,7.93c1.67,2.57,3.32,5.15,5.18,8.05c-2.52,0-4.64,0.06-6.75-0.05
		c-0.38-0.02-0.81-0.65-1.09-1.08c-2.22-3.43-4.42-6.87-6.77-10.55c-1.41,1.51-2.76,2.89-4.02,4.35c-0.24,0.28-0.17,0.87-0.18,1.31
		c-0.02,1.95-0.01,3.9-0.01,6.03c-1.91,0-3.62,0.03-5.33-0.03c-0.21-0.01-0.5-0.43-0.58-0.7c-0.1-0.33-0.03-0.72-0.03-1.08
		c0-10.97,0-21.94,0-32.91c0-0.53,0-1.07,0-1.71c1.98,0,3.82,0,5.88,0C330.79,32.84,330.79,39.82,330.79,47.19z"/>
	<path d="M368.34,51.56c0.93,5.31,8.23,8.91,15.13,3.09c0.79,0.85,1.55,1.74,2.4,2.54c0.68,0.63,0.58,1.07-0.03,1.67
		c-5.28,5.26-17.56,5.49-21.91-2.46c-3.47-6.35-2.21-17.61,7.55-20.13c4.61-1.19,9.15-0.93,12.9,2.55c2.2,2.04,3.04,4.78,3.32,7.69
		c0.12,1.22-0.01,2.45,0.08,3.68c0.07,1.07-0.4,1.29-1.37,1.28c-5.23-0.04-10.47-0.02-15.7-0.01
		C369.95,51.46,369.19,51.52,368.34,51.56z M382.43,46.97c-0.42-4.4-2.91-6.42-7.61-6.29c-3.82,0.1-6.63,3.67-6.5,6.29
		C373.02,46.97,377.72,46.97,382.43,46.97z"/>
	<path d="M180.75,62.56c-6.14,0-10.93-3.13-12.78-8.34c-2.04-5.74-0.5-11.99,3.79-15.53c6.36-5.24,19.94-4.11,22.45,6.8
		C196.47,55.31,190.05,62.88,180.75,62.56z M180.89,57.48c4.51,0,7.7-3.44,7.7-8.28c0-4.82-3.23-8.27-7.76-8.21
		c-4.54,0.06-7.69,3.13-7.64,8.28C173.25,54.99,176.89,57.5,180.89,57.48z"/>
	<path d="M276.27,35.7c6.72,0.09,11.3,2.16,13.55,7.56c2.22,5.31,1.74,10.51-2.08,15.11c-1.46,1.76-3.4,2.89-5.56,3.56
		c-2.88,0.88-5.84,1-8.75,0.24c-5.47-1.44-8.8-5.01-9.6-10.62c-0.82-5.72,0.89-11.01,6.19-14.03
		C272.26,36.22,274.71,35.57,276.27,35.7z M269.71,49.35c0.1,3.18,1.21,5.91,4.28,7.42c3.64,1.79,7.99,0.4,9.93-3.03
		c2.14-3.79,1.16-9.18-2.13-11.4c-2.59-1.76-5.4-1.9-8.12-0.47C270.77,43.39,269.76,46.11,269.71,49.35z"/>
	<path d="M306.76,62.56c-6.03,0-10.74-3.01-12.66-8.1c-2.12-5.6-0.69-12.01,3.6-15.68c2.51-2.15,5.5-2.98,8.8-3.05
		c3.64-0.08,6.94,0.77,9.71,3.17c4.14,3.6,5.55,10.05,3.48,15.53C317.74,59.6,313.02,62.57,306.76,62.56z M299.2,49.22
		c0.01,5.95,5.02,9.75,10.36,7.85c3.5-1.24,5.7-5.53,4.88-9.48c-0.63-3.05-2.13-5.47-5.28-6.31
		C303.65,39.82,299.19,43.44,299.2,49.22z"/>
	<path d="M144.4,36.04c0,1.35,0,2.47,0,3.86c0.37-0.33,0.58-0.47,0.72-0.66c2.97-3.8,9.08-4.24,12.77-2.85
		c3.79,1.43,5.6,4.47,5.72,8.36c0.16,5.59,0.02,11.19,0,16.78c0,0.18-0.06,0.35-0.13,0.75c-1.69,0-3.4,0.05-5.1-0.06
		c-0.25-0.02-0.64-0.77-0.65-1.19c-0.05-4.09-0.04-8.19-0.04-12.28c0-0.55,0-1.09-0.05-1.64c-0.4-4.45-3.79-6.7-8.1-5.39
		c-3.12,0.95-5.12,3.77-5.15,7.38c-0.03,3.96-0.04,7.91,0.01,11.87c0.01,0.99-0.22,1.41-1.28,1.34c-1.18-0.08-2.37-0.05-3.55-0.01
		c-0.8,0.03-1.14-0.23-1.14-1.08c0.02-8.05-0.01-16.1,0.03-24.15c0-0.34,0.45-0.97,0.71-0.98C140.86,35.99,142.53,36.04,144.4,36.04
		z"/>
	<path d="M115.28,54.87c2.24,0.93,4.22,1.95,6.32,2.56c1.34,0.38,2.86,0.27,4.29,0.15c1.13-0.09,2.09-0.71,2.29-1.99
		c0.18-1.18-0.34-2.1-1.37-2.58c-1.35-0.63-2.79-1.08-4.18-1.63c-1.56-0.62-3.2-1.1-4.63-1.94c-4.55-2.65-4.5-9.33-0.02-12.15
		c4.04-2.54,11.27-1.77,15.1,0.73c0.23,0.15,0.5,0.65,0.41,0.85c-0.58,1.36-1.25,2.68-1.81,3.85c-2.1-0.69-3.95-1.47-5.87-1.87
		c-1.24-0.26-2.63-0.12-3.88,0.18c-0.61,0.15-1.37,1.03-1.46,1.66c-0.09,0.64,0.4,1.69,0.95,2.01c1.27,0.75,2.74,1.16,4.13,1.71
		c1.73,0.69,3.5,1.28,5.16,2.09c4.55,2.21,4.51,9.78,0.19,12.33c-3.89,2.3-8,2.2-12.12,0.99c-1.62-0.47-3.1-1.45-4.63-2.24
		c-0.74-0.38-0.84-0.95-0.41-1.7C114.33,56.82,114.84,55.72,115.28,54.87z"/>
	<path d="M258.89,44.03c-4.62-4.16-10.43-3.46-12.87-0.71c-2.76,3.11-2.75,8.62-0.1,11.7c2.41,2.8,8.5,3.68,13.43-0.95
		c0.88,1,1.83,1.98,2.62,3.07c0.19,0.26,0.01,1.03-0.26,1.34c-2.26,2.55-5.22,3.74-8.53,4.04c-3.96,0.36-7.73-0.2-10.88-2.92
		c-3.57-3.08-4.76-7.12-4.41-11.64c0.5-6.5,4.24-10.9,10.65-12.01c4.45-0.77,8.79-0.1,12.46,2.97c0.94,0.79,1.28,1.41,0.26,2.39
		C260.4,42.11,259.71,43.07,258.89,44.03z"/>
	<path d="M358.22,49.17c0,3.87-0.04,7.74,0.02,11.61c0.02,1.19-0.33,1.65-1.55,1.53c-1.08-0.1-2.18-0.05-3.27-0.01
		c-0.8,0.03-1.15-0.23-1.15-1.08c0.02-8.06,0.01-16.11-0.01-24.17c0-0.77,0.29-1.05,1.05-1.02c1.23,0.04,2.46,0.07,3.69-0.01
		c1-0.06,1.24,0.37,1.23,1.28C358.2,41.25,358.22,45.21,358.22,49.17C358.22,49.17,358.22,49.17,358.22,49.17z"/>
	<path d="M355.26,32.23c-2.06-0.01-3.34-1.39-3.32-3.59c0.02-2.04,1.41-3.47,3.37-3.48c2.01-0.01,3.42,1.47,3.41,3.6
		C358.73,30.91,357.39,32.24,355.26,32.23z"/>
</g>
</svg>
