<?xml version="1.0" encoding="utf-8"?>
<!-- Generator: Adobe Illustrator 23.0.1, SVG Export Plug-In . SVG Version: 6.00 Build 0)  -->
<svg version="1.1" id="Layer_1" xmlns="http://www.w3.org/2000/svg" xmlns:xlink="http://www.w3.org/1999/xlink" x="0px" y="0px"
	 viewBox="0 0 448.36 95.29" style="enable-background:new 0 0 448.36 95.29;" xml:space="preserve">
<style type="text/css">
	.st0{fill:none;}
</style>
<g>
	<path d="M448.36,83.41c-8.81,1.4-14.27-3.32-18.79-10.05c-1.69-2.51-3.9-4.67-6.54-7.77c0,5.35-0.12,9.68,0.05,14.01
		c0.1,2.53-0.56,3.74-3.33,3.56c-2.89-0.19-5.81-0.04-9.04-0.04c0-12.85,0-25.4,0-38.1c6.02-1.2,11.25-1,15.02,5.13
		c2.44,3.97,5.92,7.3,9.6,11.72c0-6.21,0-11.35,0-17.37c4.56,0,8.8,0,13.03,0C448.36,57.46,448.36,70.43,448.36,83.41z"/>
	<path d="M73.17,0c2.92,1.5,5.84,3,9.31,4.78c-4.27,2.65-8.17,5.08-12.65,7.86c6.46,2.31,12.13,4.68,18.01,6.31
		c4.14,1.15,5.53,3.23,4.34,7.72C80.55,20.78,68.98,14.91,57.4,9.05c0.09-0.22,0.18-0.44,0.27-0.66c3.7,1.28,7.39,2.56,10.95,3.79
		c4.31-3.7,1.69-8.11,1.76-12.17C71.31,0,72.24,0,73.17,0z"/>
	<path d="M59.79,85.57c1.99-3.12,3.44-5.39,4.89-7.66c-8.5,6.26-15.73,16.57-27.88,7.05c1.68,5.88,8.64,9.27,14.52,7.33
		c3.81-1.25,7.91-2.03,11.91-2.18c4.75-0.18,9.53,0.48,14.29,0.93c1.3,0.12,2.55,0.78,3.8,1.82c-16.99,3.38-33.99,3.17-51.26-0.19
		c1.37-0.62,2.73-1.25,4.77-2.18c-7.66-2.25-11.14-7.28-12.77-14.34c-2.17-9.4-5.04-18.64-7.55-27.97
		C11.75,38,15.98,30.5,26.04,27.71c10.18-2.83,20.38-5.61,30.59-8.36c10.12-2.72,17.73,1.5,20.54,11.54
		c2.94,10.47,5.75,20.98,8.51,31.5c2.01,7.65-1.59,15.32-8.93,18.15C71.54,82.56,66.01,83.76,59.79,85.57z M66.69,69.16
		c3.09-9.42,6.54-18.75,9.13-28.3c1.28-4.76,0.36-9.82-2.96-13.97c-4.52-5.65-10.37-7.32-17.28-5.53
		c-5.55,1.43-10.48,6.83-11.23,12.24c-1.02,7.33,1.88,14.11,8.55,17.45C60.59,54.9,65.15,60.55,66.69,69.16z M31.68,72.53
		c1.09-3.87,1.7-7.88,3.35-11.39c2.21-4.71,1.62-10.5-2.23-13.39c-3.47-2.6-9.43-2.14-12.32,0.96c-3.3,3.53-3.32,9.58,0.36,13.44
		C24.54,66.03,28.58,69.58,31.68,72.53z"/>
	<path d="M335.11,63.21c0,4.68,0.13,9.12-0.09,13.55c-0.06,1.14-0.96,2.77-1.93,3.24c-8.7,4.3-17.72,5.34-26.58,0.77
		c-7.12-3.67-10.29-10.17-9.89-17.99c0.41-7.79,4.18-13.69,11.58-16.94c10.83-4.74,23.39-1.12,27.35,5.56
		c-2.48,2.2-4.99,4.42-7.23,6.41c-2.87-1.28-5.33-2.97-8.01-3.45c-6.01-1.09-10.57,2.91-10.93,8.97
		c-0.35,6.02,3.84,10.13,10.01,10.06c2.85-0.03,4.38-0.9,4.11-4.03c-0.17-1.95-0.03-3.93-0.03-6.16
		C327.47,63.21,331.08,63.21,335.11,63.21z"/>
	<path d="M389.34,82.83c0-12.69,0-25.23,0-38.01c4.15,0,8.08,0,12.32,0c0,12.59,0,25.14,0,38.01
		C397.66,82.83,393.61,82.83,389.34,82.83z"/>
	<path d="M51.11,9.03C34.28,17.61,17.45,26.18,0.5,34.82c-1.06-8.34-1.03-8.28,6.38-10.88c14-4.91,27.98-9.89,41.97-14.84
		c0.67-0.24,1.33-0.47,2-0.71C50.93,8.61,51.02,8.82,51.11,9.03z"/>
	<circle cx="60.46" cy="35.89" r="7.64"/>
	<circle cx="27.19" cy="55.53" r="3.82"/>
	<path class="st0" d="M134.71,65.37C134.74,65.38,134.75,65.38,134.71,65.37L134.71,65.37z"/>
	<path d="M134.65,65.35C134.56,65.32,134.48,65.3,134.65,65.35L134.65,65.35z"/>
	<path d="M147.05,56.3c-0.3,0.55-0.58,1.11-0.85,1.7c0-5.28-0.11-9.28-0.11-13.38c-1.97,0-5.73,0-7.64,0
		c-2.73,0-3.27-0.55-5.92,5.02c-2.55,5.2-5.86,10.04-9.15,15.54c-3.86-6.23-7.43-12.14-11.17-17.92c-0.72-1.11-2.06-2.37-3.24-2.53
		c-2.83-0.37-5.74-0.12-8.59-0.12c0,13.16,0,25.74,0,38.4c3.93,0,7.56,0,11.58,0c0-5.49,0-10.76,0-17.35
		c2.71,4.55,4.7,7.95,6.74,11.31c2.42,3.99,6.58,3.95,8.93-0.08c2.03-3.49,4.99-8.04,7.01-11.55c-0.17-0.05-0.08-0.03,0,0
		c0.02,0.01,0.05,0.01,0.07,0.02c0.04,0.01,0.03,0.01,0,0c-0.02,0-0.03-0.01-0.07-0.02c0,5.44,0.04,12.22,0.04,17.6
		c4.13,0,7.76,0,11.85,0c0-4.15,0-8.04,0-12.72c-0.63-1.97-0.98-4.07-0.98-6.25C145.56,61.27,146.09,58.67,147.05,56.3z"/>
	<path d="M134.65,65.35c0.03,0.01,0.05,0.02,0.07,0.02C134.69,65.36,134.67,65.36,134.65,65.35z"/>
	<path class="st0" d="M221.38,53.89C221.24,53.86,221.31,53.88,221.38,53.89L221.38,53.89z"/>
	<path d="M221.38,53.89C221.52,53.92,221.45,53.91,221.38,53.89L221.38,53.89z"/>
	<path d="M281.9,52.62c-2.39-6.46-5.77-9.19-12.71-8.18c-2.78,0.4-4.34,0.95-5.43,3.67c-2.97,7.41-6.19,14.73-9.5,22
		c-0.58,1.28-2.08,2.96-3.24,3.03c-5.66,0.31-11.66-0.16-17.65-0.16c0-1.64,0-3.27,0-4.91c5.66,0,11.53-0.02,16.75-0.02
		c0-3.31,0-6.17,0-9.27c-5.5,0-11.07,0.01-16.75,0.01c0.08-1.65-0.07-2.81,0-4.36c6.36,0,12.6,0,18.55,0c0-3.27,0.17-6.46,0.17-9.68
		c-13.5,0-26.71,0-39.74,0c-3.11,7.46-6.09,14.64-9.38,22.55c-3.31-8.09-6.27-15.33-9.18-22.42c-4.64,0-9.01,0-13.73,0
		c1.24,2.85,12.85,30.42,16.21,38.47c2.81,0.14,5.4,0,8.73,0c4.36,0,3.82,0,5.33-3.75c3.23-8.03,7.67-17.72,11.04-25.71
		c-0.07-0.02-0.14-0.03,0,0c0.07,0.02,0.14,0.03,0,0c0,9.02-0.23,19.93-0.23,29.19c13.15,0,25.93,0.05,38.7-0.11
		c0.91-0.01,2.42-1.48,2.6-2.46c0.77-4.2,7.05-4.57,7.05-4.57l5.09,0c0,0,5.15,0.53,6.01,3.94c0.32,1.26,1.98,2.95,3.18,3.09
		c3.58,0.41,7.24,0.15,11.3,0.15C290.48,72.61,285.67,62.81,281.9,52.62z M267.43,66.99c1.21-3.37,2.26-6.33,3.7-10.36
		c1.43,3.99,2.49,6.96,3.71,10.36C272.2,66.99,270.03,66.99,267.43,66.99z"/>
	<path d="M153.18,48.46c-3.25,2.08-6.09,5.05-8.19,8.93c-0.96,2.37-1.5,4.97-1.5,7.69c0,2.18,0.34,4.28,0.98,6.25
		c0-0.15,0-0.3,0-0.45c1.9,3.69,4.03,6.6,6.45,8.79c-3.65-3.78-5.91-8.92-5.91-14.59C145.01,58.31,148.21,52.3,153.18,48.46z"/>
	<path d="M166.01,44.07c-4.83,0-9.28,1.64-12.83,4.38c4.08-2.61,8.79-3.81,13.49-3.65c10.01,1.33,17.73,9.9,17.73,20.27
		c0,8.97-5.78,16.59-13.81,19.35c-8.2,1.31-14.57-0.12-19.67-4.75c3.82,3.95,9.17,6.41,15.1,6.41c11.6,0,21-9.4,21-21
		C187.01,53.48,177.61,44.07,166.01,44.07z"/>
	<path d="M170.59,84.42c8.03-2.76,13.81-10.38,13.81-19.35c0-10.37-7.72-18.94-17.73-20.27c-4.7-0.16-9.41,1.04-13.49,3.65
		c-4.97,3.84-8.17,9.85-8.17,16.62c0,5.67,2.25,10.81,5.91,14.59C156.02,84.3,162.39,85.73,170.59,84.42z M156.56,64.7
		c0.05-5.69,4.22-9.85,9.6-9.56c4.79,0.25,8.11,4.44,7.99,10.07c-0.12,5.42-3.85,9.42-8.71,9.37
		C160.41,74.52,156.52,70.19,156.56,64.7z"/>
	<path d="M383.06,78.82c-3.78-8.57-7.61-17.11-11.37-25.68c-3.79-8.66-3.76-8.56-13.14-8.62c-2.53-0.01-3.77,0.7-4.75,3.08
		c-3.22,7.8-6.73,15.49-10.13,23.21c-1.71,3.89-3.44,7.77-5.44,12.29c4.33,0,7.98,0.15,11.6-0.11c0.87-0.06,2.23-1.34,2.38-2.23
		c0.79-4.67,7.72-4.8,7.72-4.8l3.7,0c0,0,6.16,0.45,7.06,4.52c0.23,1.05,1.9,2.41,3.01,2.51c3.45,0.33,6.95,0.12,10.97,0.12
		C384,81.31,383.6,80.03,383.06,78.82z M357.17,66.99l4.36-10.37l4.36,10.37H357.17z"/>
</g>
</svg>
