<?xml version="1.0" encoding="UTF-8"?>
<svg width="143px" height="40px" viewBox="0 0 143 40" version="1.1" xmlns="http://www.w3.org/2000/svg" xmlns:xlink="http://www.w3.org/1999/xlink">
    <!-- Generator: Sketch 63.1 (92452) - https://sketch.com -->
    <title>Logo</title>
    <desc>Created with Sketch.</desc>
    <g id="Page-1" stroke="none" stroke-width="1" fill="none" fill-rule="evenodd">
        <g id="Logo" fill="#292929">
            <path d="M54.528,31.216 C55.936,31.216 57.012,30.936 57.756,30.376 C58.5,29.816 59.008,29.028 59.28,28.012 C59.552,26.996 59.688,25.808 59.688,24.448 L59.688,24.448 L59.688,11.56 L57.12,11.56 L57.12,24.568 C57.12,25.4 57.064,26.16 56.952,26.848 C56.84,27.536 56.6,28.08 56.232,28.48 C55.864,28.88 55.296,29.08 54.528,29.08 C53.776,29.08 53.212,28.88 52.836,28.48 C52.46,28.08 52.216,27.536 52.104,26.848 C51.992,26.16 51.936,25.4 51.936,24.568 L51.936,24.568 L51.936,11.56 L49.344,11.56 L49.344,24.448 C49.344,25.808 49.48,26.996 49.752,28.012 C50.024,29.028 50.536,29.816 51.288,30.376 C52.04,30.936 53.12,31.216 54.528,31.216 Z M64.968,31 L64.968,20.872 C65.288,20.344 65.612,19.988 65.94,19.804 C66.268,19.62 66.632,19.528 67.032,19.528 C67.288,19.528 67.54,19.556 67.788,19.612 C68.036,19.668 68.256,19.736 68.448,19.816 L68.448,19.816 L68.448,16.984 C68.352,16.968 68.276,16.96 68.22,16.96 L68.22,16.96 L68.04,16.96 C67.528,16.96 67.016,17.104 66.504,17.392 C65.992,17.68 65.48,18.248 64.968,19.096 L64.968,19.096 L64.968,17.128 L62.4,17.128 L62.4,31 L64.968,31 Z M75,31.192 C75.912,31.192 76.616,30.924 77.112,30.388 C77.608,29.852 77.952,29.148 78.144,28.276 C78.336,27.404 78.432,26.48 78.432,25.504 L78.432,25.504 L78.432,22.144 C78.432,21.728 78.4,21.228 78.336,20.644 C78.272,20.06 78.136,19.484 77.928,18.916 C77.72,18.348 77.404,17.876 76.98,17.5 C76.556,17.124 75.984,16.936 75.264,16.936 C74.672,16.936 74.164,17.064 73.74,17.32 C73.316,17.576 72.952,17.88 72.648,18.232 L72.648,18.232 L72.648,11.56 L70.08,11.56 L70.08,31 L72.648,31 L72.648,29.992 C72.936,30.296 73.276,30.572 73.668,30.82 C74.06,31.068 74.504,31.192 75,31.192 Z M74.472,29.176 C74.104,29.176 73.764,29.116 73.452,28.996 C73.14,28.876 72.872,28.728 72.648,28.552 L72.648,28.552 L72.648,19.648 C72.872,19.472 73.132,19.312 73.428,19.168 C73.724,19.024 74.04,18.952 74.376,18.952 C74.824,18.952 75.152,19.096 75.36,19.384 C75.568,19.672 75.704,20.06 75.768,20.548 C75.832,21.036 75.864,21.568 75.864,22.144 L75.864,22.144 L75.864,25.504 C75.864,26.176 75.84,26.792 75.792,27.352 C75.744,27.912 75.624,28.356 75.432,28.684 C75.24,29.012 74.92,29.176 74.472,29.176 Z M83.256,31.192 C84.056,31.192 84.684,30.956 85.14,30.484 C85.596,30.012 85.904,29.504 86.064,28.96 C86.096,29.28 86.148,29.636 86.22,30.028 C86.292,30.42 86.352,30.744 86.4,31 L86.4,31 L88.752,31 C88.72,30.696 88.684,30.372 88.644,30.028 C88.604,29.684 88.572,29.312 88.548,28.912 C88.524,28.512 88.512,28.096 88.512,27.664 L88.512,27.664 L88.512,21.328 C88.512,19.904 88.224,18.816 87.648,18.064 C87.072,17.312 86.096,16.936 84.72,16.936 C83.312,16.936 82.272,17.3 81.6,18.028 C80.928,18.756 80.576,19.888 80.544,21.424 L80.544,21.424 L83.088,21.52 L83.088,20.824 C83.088,20.424 83.136,20.076 83.232,19.78 C83.328,19.484 83.484,19.256 83.7,19.096 C83.916,18.936 84.2,18.856 84.552,18.856 C84.952,18.856 85.252,18.948 85.452,19.132 C85.652,19.316 85.784,19.592 85.848,19.96 C85.912,20.328 85.944,20.792 85.944,21.352 L85.944,21.352 L85.944,22.336 C85.208,22.624 84.508,22.92 83.844,23.224 C83.18,23.528 82.596,23.884 82.092,24.292 C81.588,24.7 81.192,25.2 80.904,25.792 C80.616,26.384 80.472,27.112 80.472,27.976 C80.472,28.52 80.592,29.036 80.832,29.524 C81.072,30.012 81.4,30.412 81.816,30.724 C82.232,31.036 82.712,31.192 83.256,31.192 Z M84.264,28.984 C83.864,28.984 83.56,28.824 83.352,28.504 C83.144,28.184 83.04,27.744 83.04,27.184 C83.04,26.784 83.116,26.428 83.268,26.116 C83.42,25.804 83.628,25.524 83.892,25.276 C84.156,25.028 84.464,24.792 84.816,24.568 C85.168,24.344 85.544,24.12 85.944,23.896 L85.944,23.896 L85.944,27.832 C85.88,27.944 85.76,28.092 85.584,28.276 C85.408,28.46 85.208,28.624 84.984,28.768 C84.76,28.912 84.52,28.984 84.264,28.984 Z M93.552,31 L93.552,19.816 C93.84,19.576 94.14,19.372 94.452,19.204 C94.764,19.036 95.064,18.952 95.352,18.952 C95.8,18.952 96.096,19.088 96.24,19.36 C96.384,19.632 96.456,20.016 96.456,20.512 L96.456,20.512 L96.456,31 L99.024,31 L99.024,19.768 C99.024,19.32 98.964,18.88 98.844,18.448 C98.724,18.016 98.516,17.656 98.22,17.368 C97.924,17.08 97.496,16.936 96.936,16.936 C96.264,16.936 95.648,17.088 95.088,17.392 C94.528,17.696 94.016,18.064 93.552,18.496 L93.552,18.496 L93.552,17.128 L90.984,17.128 L90.984,31 L93.552,31 Z M104.448,31 L104.448,21.904 L109.44,21.904 L109.44,31 L112.152,31 L112.152,11.56 L109.44,11.56 L109.44,19.96 L104.448,19.96 L104.448,11.56 L101.736,11.56 L101.736,31 L104.448,31 Z M117.48,31.192 C118.28,31.192 118.908,30.956 119.364,30.484 C119.82,30.012 120.128,29.504 120.288,28.96 C120.32,29.28 120.372,29.636 120.444,30.028 C120.516,30.42 120.576,30.744 120.624,31 L120.624,31 L122.976,31 C122.944,30.696 122.908,30.372 122.868,30.028 C122.828,29.684 122.796,29.312 122.772,28.912 C122.748,28.512 122.736,28.096 122.736,27.664 L122.736,27.664 L122.736,21.328 C122.736,19.904 122.448,18.816 121.872,18.064 C121.296,17.312 120.32,16.936 118.944,16.936 C117.536,16.936 116.496,17.3 115.824,18.028 C115.152,18.756 114.8,19.888 114.768,21.424 L114.768,21.424 L117.312,21.52 L117.312,20.824 C117.312,20.424 117.36,20.076 117.456,19.78 C117.552,19.484 117.708,19.256 117.924,19.096 C118.14,18.936 118.424,18.856 118.776,18.856 C119.176,18.856 119.476,18.948 119.676,19.132 C119.876,19.316 120.008,19.592 120.072,19.96 C120.136,20.328 120.168,20.792 120.168,21.352 L120.168,21.352 L120.168,22.336 C119.432,22.624 118.732,22.92 118.068,23.224 C117.404,23.528 116.82,23.884 116.316,24.292 C115.812,24.7 115.416,25.2 115.128,25.792 C114.84,26.384 114.696,27.112 114.696,27.976 C114.696,28.52 114.816,29.036 115.056,29.524 C115.296,30.012 115.624,30.412 116.04,30.724 C116.456,31.036 116.936,31.192 117.48,31.192 Z M118.488,28.984 C118.088,28.984 117.784,28.824 117.576,28.504 C117.368,28.184 117.264,27.744 117.264,27.184 C117.264,26.784 117.34,26.428 117.492,26.116 C117.644,25.804 117.852,25.524 118.116,25.276 C118.38,25.028 118.688,24.792 119.04,24.568 C119.392,24.344 119.768,24.12 120.168,23.896 L120.168,23.896 L120.168,27.832 C120.104,27.944 119.984,28.092 119.808,28.276 C119.632,28.46 119.432,28.624 119.208,28.768 C118.984,28.912 118.744,28.984 118.488,28.984 Z M127.2,31.192 C127.872,31.192 128.492,31.04 129.06,30.736 C129.628,30.432 130.136,30.064 130.584,29.632 L130.584,29.632 L130.584,31 L133.152,31 L133.152,17.128 L130.584,17.128 L130.584,28.312 C130.296,28.552 129.996,28.756 129.684,28.924 C129.372,29.092 129.072,29.176 128.784,29.176 C128.336,29.176 128.04,29.036 127.896,28.756 C127.752,28.476 127.68,28.088 127.68,27.592 L127.68,27.592 L127.68,17.128 L125.112,17.128 L125.112,28.36 C125.112,28.808 125.172,29.248 125.292,29.68 C125.412,30.112 125.624,30.472 125.928,30.76 C126.232,31.048 126.656,31.192 127.2,31.192 Z M138.984,31.192 C139.752,31.192 140.424,31.06 141,30.796 C141.576,30.532 142.024,30.136 142.344,29.608 C142.664,29.08 142.824,28.424 142.824,27.64 C142.824,27.048 142.728,26.528 142.536,26.08 C142.344,25.632 142.1,25.232 141.804,24.88 C141.508,24.528 141.192,24.2 140.856,23.896 L140.856,23.896 L138.408,21.64 C138.152,21.416 137.972,21.188 137.868,20.956 C137.764,20.724 137.712,20.488 137.712,20.248 C137.712,19.864 137.836,19.532 138.084,19.252 C138.332,18.972 138.664,18.832 139.08,18.832 C139.448,18.832 139.744,18.932 139.968,19.132 C140.192,19.332 140.368,19.612 140.496,19.972 C140.624,20.332 140.72,20.752 140.784,21.232 L140.784,21.232 L142.512,20.584 C142.432,19.576 142.1,18.716 141.516,18.004 C140.932,17.292 140.088,16.936 138.984,16.936 C138.264,16.936 137.636,17.068 137.1,17.332 C136.564,17.596 136.148,17.98 135.852,18.484 C135.556,18.988 135.408,19.608 135.408,20.344 C135.408,21.16 135.572,21.824 135.9,22.336 C136.228,22.848 136.632,23.312 137.112,23.728 L137.112,23.728 L139.488,25.768 C139.888,26.104 140.176,26.432 140.352,26.752 C140.528,27.072 140.616,27.432 140.616,27.832 C140.616,28.28 140.496,28.636 140.256,28.9 C140.016,29.164 139.664,29.296 139.2,29.296 C138.608,29.296 138.16,29.076 137.856,28.636 C137.552,28.196 137.336,27.536 137.208,26.656 L137.208,26.656 L135.072,27.304 C135.168,28.472 135.56,29.412 136.248,30.124 C136.936,30.836 137.848,31.192 138.984,31.192 Z" id="UrbanHaus" fill-rule="nonzero"></path>
            <g id="Union">
                <path d="M37.5,20 C37.5,28.7415 31.0906667,35.9860833 22.715,37.2906667 L36.15025,13.24875 C37.0196667,15.3261667 37.5,17.607 37.5,20 Z M8.76625,33.4189167 C9.94966667,34.4106667 11.26625,35.24875 12.6851667,35.9025833 L30.1473333,5.74064167 C28.8930833,4.84643333 27.51575,4.1136 26.04575,3.57243333 L8.76625,33.4189167 Z M22.72225,23.5555833 L15.0586667,36.7926667 C16.5449167,37.2293333 18.1134167,37.474 19.73525,37.498 L25.8043333,26.6376667 L22.72225,23.5555833 Z M24.0185833,21.3164167 L27.07175,24.3695833 L34.7651667,10.6023333 C34.0083333,9.41566667 33.1123333,8.32630833 32.1001667,7.35731667 L24.0185833,21.3164167 Z M6.917175,31.6230833 C6.0363,30.6323333 5.26626667,29.54075 4.62653333,28.3679167 L19.5164167,2.50655 C19.6770833,2.50219167 19.83825,2.5 20,2.5 C21.2224167,2.5 22.4155833,2.62533333 23.56725,2.86385833 L6.917175,31.6230833 Z M16.425,2.86545833 C8.47458333,4.51575 2.5,11.5601667 2.5,20 C2.5,21.926 2.811125,23.77925 3.38586667,25.5124167 L16.425,2.86545833 Z M40,20 C40,31.0456667 31.0456667,40 20,40 C8.95433333,40 0,31.0456667 0,20 C0,8.95433333 8.95433333,0 20,0 C31.0456667,0 40,8.95433333 40,20 Z" id="Shape"></path>
            </g>
        </g>
    </g>
</svg>