<?xml version="1.0" standalone="no"?><!DOCTYPE svg PUBLIC "-//W3C//DTD SVG 1.1//EN" "http://www.w3.org/Graphics/SVG/1.1/DTD/svg11.dtd"><svg width="250px" height="250px" viewBox="0 0 198 195" version="1.1" xmlns="http://www.w3.org/2000/svg" xmlns:xlink="http://www.w3.org/1999/xlink" xml:space="preserve" style="fill-rule:evenodd;clip-rule:evenodd;stroke-linejoin:round;stroke-miterlimit:1.41421;"><g><path d="M66.364,78.776l-32.73,-18.896l-32.517,18.896l32.73,18.897l32.517,-18.897Z" style="fill:url(#_Linear1);"/><path d="M196.72,78.754l-32.731,-18.897l-32.516,18.897l32.729,18.896l32.518,-18.896Z" style="fill:url(#_Linear2);"/><path d="M66.475,116.531l32.73,18.895l32.518,-18.896l-32.73,-18.897l-32.518,18.898Z" style="fill:url(#_Linear3);"/><path d="M66.253,191.738l32.516,-18.897l0.108,-37.609l-32.518,18.896l-0.106,37.61Z" style="fill:url(#_Linear4);"/><path d="M131.502,78.734l32.517,-18.897l0.107,-37.609l-32.517,18.898l-0.107,37.608Z" style="fill:url(#_Linear5);"/><path d="M99.092,60.033l-32.517,18.897l-0.107,37.608l32.517,-18.897l0.107,-37.608Z" style="fill:url(#_Linear6);"/><path d="M98.769,172.846l32.731,18.897l0.107,-37.609l-32.731,-18.897l-0.107,37.609Z" style="fill:#494c4d;fill-rule:nonzero;"/><path d="M33.527,59.852l32.73,18.896l0.106,-37.608l-32.729,-18.897l-0.107,37.609Z" style="fill:#494c4d;fill-rule:nonzero;"/><path d="M131.821,78.928l-32.729,-18.897l-0.107,37.609l32.729,18.897l0.107,-37.609Z" style="fill:#494c4d;fill-rule:nonzero;"/><path d="M131.602,41.135l32.517,-18.898l-32.72,-18.89l-32.517,18.896l-32.731,-18.896l-32.517,18.896l32.73,18.898l-32.517,18.896l32.72,18.891l32.518,-18.897l32.73,18.897l32.516,-18.897l-32.729,-18.896Z" style="fill:url(#_Linear7);"/><path d="M66.468,116.53l0.107,-37.608l-32.721,-18.892l-0.106,37.609l-32.73,-18.896l-0.106,37.609l32.729,18.897l-0.106,37.608l32.72,18.891l0.106,-37.609l32.731,18.897l0.106,-37.61l-32.73,-18.896Z" style="fill:#494c4d;fill-rule:nonzero;"/><path d="M164.223,97.637l0.106,-37.609l-32.508,18.892l-0.107,37.609l-32.516,18.896l-0.106,37.61l32.517,-18.898l-0.107,37.61l32.508,-18.892l0.106,-37.608l32.518,-18.898l0.106,-37.609l-32.517,18.897Z" style="fill:url(#_Linear8);"/></g><defs><linearGradient id="_Linear1" x1="0" y1="0" x2="1" y2="0" gradientUnits="userSpaceOnUse" gradientTransform="matrix(65.2468,0,0,65.2468,1.11736,78.7763)"><stop offset="0%" style="stop-color:#8e9191;stop-opacity:1"/><stop offset="100%" style="stop-color:#686b6c;stop-opacity:1"/></linearGradient><linearGradient id="_Linear2" x1="0" y1="0" x2="1" y2="0" gradientUnits="userSpaceOnUse" gradientTransform="matrix(65.2463,0,0,65.2463,131.473,78.7533)"><stop offset="0%" style="stop-color:#8e9191;stop-opacity:1"/><stop offset="100%" style="stop-color:#686b6c;stop-opacity:1"/></linearGradient><linearGradient id="_Linear3" x1="0" y1="0" x2="1" y2="0" gradientUnits="userSpaceOnUse" gradientTransform="matrix(65.2463,0,0,65.2463,66.4757,116.53)"><stop offset="0%" style="stop-color:#8e9191;stop-opacity:1"/><stop offset="100%" style="stop-color:#686b6c;stop-opacity:1"/></linearGradient><linearGradient id="_Linear4" x1="0" y1="0" x2="1" y2="0" gradientUnits="userSpaceOnUse" gradientTransform="matrix(32.6234,0,0,32.6234,66.2528,163.485)"><stop offset="0%" style="stop-color:#d7d9d8;stop-opacity:1"/><stop offset="100%" style="stop-color:#a3a6a6;stop-opacity:1"/></linearGradient><linearGradient id="_Linear5" x1="0" y1="0" x2="1" y2="0" gradientUnits="userSpaceOnUse" gradientTransform="matrix(32.6239,0,0,32.6239,131.502,50.481)"><stop offset="0%" style="stop-color:#d7d9d8;stop-opacity:1"/><stop offset="100%" style="stop-color:#a3a6a6;stop-opacity:1"/></linearGradient><linearGradient id="_Linear6" x1="0" y1="0" x2="1" y2="0" gradientUnits="userSpaceOnUse" gradientTransform="matrix(32.6234,0,0,32.6234,66.468,88.2855)"><stop offset="0%" style="stop-color:#d7d9d8;stop-opacity:1"/><stop offset="100%" style="stop-color:#a3a6a6;stop-opacity:1"/></linearGradient><linearGradient id="_Linear7" x1="0" y1="0" x2="1" y2="0" gradientUnits="userSpaceOnUse" gradientTransform="matrix(118.245,55.6761,-55.6761,118.245,45.4927,15.9512)"><stop offset="0%" style="stop-color:#8e9191;stop-opacity:1"/><stop offset="100%" style="stop-color:#686b6c;stop-opacity:1"/></linearGradient><linearGradient id="_Linear8" x1="0" y1="0" x2="1" y2="0" gradientUnits="userSpaceOnUse" gradientTransform="matrix(120.561,-12.0804,12.0804,120.561,99.9378,130.695)"><stop offset="0%" style="stop-color:#d7d9d8;stop-opacity:1"/><stop offset="100%" style="stop-color:#a3a6a6;stop-opacity:1"/></linearGradient></defs></svg>